G75*
%MOIN*%
%OFA0B0*%
%FSLAX25Y25*%
%IPPOS*%
%LPD*%
%AMOC8*
5,1,8,0,0,1.08239X$1,22.5*
%
%ADD10C,0.00000*%
%ADD11C,0.01000*%
%ADD12C,0.00984*%
%ADD13C,0.00300*%
%ADD14C,0.00200*%
%ADD15C,0.00500*%
%ADD16C,0.00600*%
%ADD17R,0.01000X0.10000*%
%ADD18C,0.00700*%
%ADD19C,0.00800*%
%ADD20C,0.05000*%
%ADD21C,0.00400*%
D10*
X0049044Y0040429D02*
X0379753Y0040429D01*
X0379753Y0678224D01*
X0049044Y0678224D01*
X0049005Y0678382D02*
X0049005Y0040587D01*
X0090382Y0253028D02*
X0090384Y0253181D01*
X0090390Y0253335D01*
X0090400Y0253488D01*
X0090414Y0253640D01*
X0090432Y0253793D01*
X0090454Y0253944D01*
X0090479Y0254095D01*
X0090509Y0254246D01*
X0090543Y0254396D01*
X0090580Y0254544D01*
X0090621Y0254692D01*
X0090666Y0254838D01*
X0090715Y0254984D01*
X0090768Y0255128D01*
X0090824Y0255270D01*
X0090884Y0255411D01*
X0090948Y0255551D01*
X0091015Y0255689D01*
X0091086Y0255825D01*
X0091161Y0255959D01*
X0091238Y0256091D01*
X0091320Y0256221D01*
X0091404Y0256349D01*
X0091492Y0256475D01*
X0091583Y0256598D01*
X0091677Y0256719D01*
X0091775Y0256837D01*
X0091875Y0256953D01*
X0091979Y0257066D01*
X0092085Y0257177D01*
X0092194Y0257285D01*
X0092306Y0257390D01*
X0092420Y0257491D01*
X0092538Y0257590D01*
X0092657Y0257686D01*
X0092779Y0257779D01*
X0092904Y0257868D01*
X0093031Y0257955D01*
X0093160Y0258037D01*
X0093291Y0258117D01*
X0093424Y0258193D01*
X0093559Y0258266D01*
X0093696Y0258335D01*
X0093835Y0258400D01*
X0093975Y0258462D01*
X0094117Y0258520D01*
X0094260Y0258575D01*
X0094405Y0258626D01*
X0094551Y0258673D01*
X0094698Y0258716D01*
X0094846Y0258755D01*
X0094995Y0258791D01*
X0095145Y0258822D01*
X0095296Y0258850D01*
X0095447Y0258874D01*
X0095600Y0258894D01*
X0095752Y0258910D01*
X0095905Y0258922D01*
X0096058Y0258930D01*
X0096211Y0258934D01*
X0096365Y0258934D01*
X0096518Y0258930D01*
X0096671Y0258922D01*
X0096824Y0258910D01*
X0096976Y0258894D01*
X0097129Y0258874D01*
X0097280Y0258850D01*
X0097431Y0258822D01*
X0097581Y0258791D01*
X0097730Y0258755D01*
X0097878Y0258716D01*
X0098025Y0258673D01*
X0098171Y0258626D01*
X0098316Y0258575D01*
X0098459Y0258520D01*
X0098601Y0258462D01*
X0098741Y0258400D01*
X0098880Y0258335D01*
X0099017Y0258266D01*
X0099152Y0258193D01*
X0099285Y0258117D01*
X0099416Y0258037D01*
X0099545Y0257955D01*
X0099672Y0257868D01*
X0099797Y0257779D01*
X0099919Y0257686D01*
X0100038Y0257590D01*
X0100156Y0257491D01*
X0100270Y0257390D01*
X0100382Y0257285D01*
X0100491Y0257177D01*
X0100597Y0257066D01*
X0100701Y0256953D01*
X0100801Y0256837D01*
X0100899Y0256719D01*
X0100993Y0256598D01*
X0101084Y0256475D01*
X0101172Y0256349D01*
X0101256Y0256221D01*
X0101338Y0256091D01*
X0101415Y0255959D01*
X0101490Y0255825D01*
X0101561Y0255689D01*
X0101628Y0255551D01*
X0101692Y0255411D01*
X0101752Y0255270D01*
X0101808Y0255128D01*
X0101861Y0254984D01*
X0101910Y0254838D01*
X0101955Y0254692D01*
X0101996Y0254544D01*
X0102033Y0254396D01*
X0102067Y0254246D01*
X0102097Y0254095D01*
X0102122Y0253944D01*
X0102144Y0253793D01*
X0102162Y0253640D01*
X0102176Y0253488D01*
X0102186Y0253335D01*
X0102192Y0253181D01*
X0102194Y0253028D01*
X0102192Y0252875D01*
X0102186Y0252721D01*
X0102176Y0252568D01*
X0102162Y0252416D01*
X0102144Y0252263D01*
X0102122Y0252112D01*
X0102097Y0251961D01*
X0102067Y0251810D01*
X0102033Y0251660D01*
X0101996Y0251512D01*
X0101955Y0251364D01*
X0101910Y0251218D01*
X0101861Y0251072D01*
X0101808Y0250928D01*
X0101752Y0250786D01*
X0101692Y0250645D01*
X0101628Y0250505D01*
X0101561Y0250367D01*
X0101490Y0250231D01*
X0101415Y0250097D01*
X0101338Y0249965D01*
X0101256Y0249835D01*
X0101172Y0249707D01*
X0101084Y0249581D01*
X0100993Y0249458D01*
X0100899Y0249337D01*
X0100801Y0249219D01*
X0100701Y0249103D01*
X0100597Y0248990D01*
X0100491Y0248879D01*
X0100382Y0248771D01*
X0100270Y0248666D01*
X0100156Y0248565D01*
X0100038Y0248466D01*
X0099919Y0248370D01*
X0099797Y0248277D01*
X0099672Y0248188D01*
X0099545Y0248101D01*
X0099416Y0248019D01*
X0099285Y0247939D01*
X0099152Y0247863D01*
X0099017Y0247790D01*
X0098880Y0247721D01*
X0098741Y0247656D01*
X0098601Y0247594D01*
X0098459Y0247536D01*
X0098316Y0247481D01*
X0098171Y0247430D01*
X0098025Y0247383D01*
X0097878Y0247340D01*
X0097730Y0247301D01*
X0097581Y0247265D01*
X0097431Y0247234D01*
X0097280Y0247206D01*
X0097129Y0247182D01*
X0096976Y0247162D01*
X0096824Y0247146D01*
X0096671Y0247134D01*
X0096518Y0247126D01*
X0096365Y0247122D01*
X0096211Y0247122D01*
X0096058Y0247126D01*
X0095905Y0247134D01*
X0095752Y0247146D01*
X0095600Y0247162D01*
X0095447Y0247182D01*
X0095296Y0247206D01*
X0095145Y0247234D01*
X0094995Y0247265D01*
X0094846Y0247301D01*
X0094698Y0247340D01*
X0094551Y0247383D01*
X0094405Y0247430D01*
X0094260Y0247481D01*
X0094117Y0247536D01*
X0093975Y0247594D01*
X0093835Y0247656D01*
X0093696Y0247721D01*
X0093559Y0247790D01*
X0093424Y0247863D01*
X0093291Y0247939D01*
X0093160Y0248019D01*
X0093031Y0248101D01*
X0092904Y0248188D01*
X0092779Y0248277D01*
X0092657Y0248370D01*
X0092538Y0248466D01*
X0092420Y0248565D01*
X0092306Y0248666D01*
X0092194Y0248771D01*
X0092085Y0248879D01*
X0091979Y0248990D01*
X0091875Y0249103D01*
X0091775Y0249219D01*
X0091677Y0249337D01*
X0091583Y0249458D01*
X0091492Y0249581D01*
X0091404Y0249707D01*
X0091320Y0249835D01*
X0091238Y0249965D01*
X0091161Y0250097D01*
X0091086Y0250231D01*
X0091015Y0250367D01*
X0090948Y0250505D01*
X0090884Y0250645D01*
X0090824Y0250786D01*
X0090768Y0250928D01*
X0090715Y0251072D01*
X0090666Y0251218D01*
X0090621Y0251364D01*
X0090580Y0251512D01*
X0090543Y0251660D01*
X0090509Y0251810D01*
X0090479Y0251961D01*
X0090454Y0252112D01*
X0090432Y0252263D01*
X0090414Y0252416D01*
X0090400Y0252568D01*
X0090390Y0252721D01*
X0090384Y0252875D01*
X0090382Y0253028D01*
X0309404Y0298919D02*
X0309406Y0299010D01*
X0309412Y0299100D01*
X0309422Y0299191D01*
X0309436Y0299280D01*
X0309454Y0299369D01*
X0309475Y0299458D01*
X0309501Y0299545D01*
X0309530Y0299631D01*
X0309564Y0299715D01*
X0309600Y0299798D01*
X0309641Y0299880D01*
X0309685Y0299959D01*
X0309732Y0300037D01*
X0309783Y0300112D01*
X0309837Y0300185D01*
X0309894Y0300255D01*
X0309954Y0300323D01*
X0310017Y0300389D01*
X0310083Y0300451D01*
X0310152Y0300510D01*
X0310223Y0300567D01*
X0310297Y0300620D01*
X0310373Y0300670D01*
X0310451Y0300717D01*
X0310531Y0300760D01*
X0310612Y0300799D01*
X0310696Y0300835D01*
X0310781Y0300867D01*
X0310867Y0300896D01*
X0310954Y0300920D01*
X0311043Y0300941D01*
X0311132Y0300958D01*
X0311222Y0300971D01*
X0311312Y0300980D01*
X0311403Y0300985D01*
X0311494Y0300986D01*
X0311584Y0300983D01*
X0311675Y0300976D01*
X0311765Y0300965D01*
X0311855Y0300950D01*
X0311944Y0300931D01*
X0312032Y0300909D01*
X0312118Y0300882D01*
X0312204Y0300852D01*
X0312288Y0300818D01*
X0312371Y0300780D01*
X0312452Y0300739D01*
X0312531Y0300694D01*
X0312608Y0300645D01*
X0312682Y0300594D01*
X0312755Y0300539D01*
X0312825Y0300481D01*
X0312892Y0300420D01*
X0312956Y0300356D01*
X0313018Y0300290D01*
X0313077Y0300220D01*
X0313132Y0300149D01*
X0313185Y0300074D01*
X0313234Y0299998D01*
X0313280Y0299920D01*
X0313322Y0299839D01*
X0313361Y0299757D01*
X0313396Y0299673D01*
X0313427Y0299588D01*
X0313454Y0299501D01*
X0313478Y0299414D01*
X0313498Y0299325D01*
X0313514Y0299236D01*
X0313526Y0299146D01*
X0313534Y0299055D01*
X0313538Y0298964D01*
X0313538Y0298874D01*
X0313534Y0298783D01*
X0313526Y0298692D01*
X0313514Y0298602D01*
X0313498Y0298513D01*
X0313478Y0298424D01*
X0313454Y0298337D01*
X0313427Y0298250D01*
X0313396Y0298165D01*
X0313361Y0298081D01*
X0313322Y0297999D01*
X0313280Y0297918D01*
X0313234Y0297840D01*
X0313185Y0297764D01*
X0313132Y0297689D01*
X0313077Y0297618D01*
X0313018Y0297548D01*
X0312956Y0297482D01*
X0312892Y0297418D01*
X0312825Y0297357D01*
X0312755Y0297299D01*
X0312682Y0297244D01*
X0312608Y0297193D01*
X0312531Y0297144D01*
X0312452Y0297099D01*
X0312371Y0297058D01*
X0312288Y0297020D01*
X0312204Y0296986D01*
X0312118Y0296956D01*
X0312032Y0296929D01*
X0311944Y0296907D01*
X0311855Y0296888D01*
X0311765Y0296873D01*
X0311675Y0296862D01*
X0311584Y0296855D01*
X0311494Y0296852D01*
X0311403Y0296853D01*
X0311312Y0296858D01*
X0311222Y0296867D01*
X0311132Y0296880D01*
X0311043Y0296897D01*
X0310954Y0296918D01*
X0310867Y0296942D01*
X0310781Y0296971D01*
X0310696Y0297003D01*
X0310612Y0297039D01*
X0310531Y0297078D01*
X0310451Y0297121D01*
X0310373Y0297168D01*
X0310297Y0297218D01*
X0310223Y0297271D01*
X0310152Y0297328D01*
X0310083Y0297387D01*
X0310017Y0297449D01*
X0309954Y0297515D01*
X0309894Y0297583D01*
X0309837Y0297653D01*
X0309783Y0297726D01*
X0309732Y0297801D01*
X0309685Y0297879D01*
X0309641Y0297958D01*
X0309600Y0298040D01*
X0309564Y0298123D01*
X0309530Y0298207D01*
X0309501Y0298293D01*
X0309475Y0298380D01*
X0309454Y0298469D01*
X0309436Y0298558D01*
X0309422Y0298647D01*
X0309412Y0298738D01*
X0309406Y0298828D01*
X0309404Y0298919D01*
X0320574Y0309498D02*
X0320576Y0309575D01*
X0320582Y0309651D01*
X0320592Y0309727D01*
X0320606Y0309802D01*
X0320623Y0309877D01*
X0320645Y0309950D01*
X0320670Y0310023D01*
X0320700Y0310094D01*
X0320732Y0310163D01*
X0320769Y0310230D01*
X0320808Y0310296D01*
X0320851Y0310359D01*
X0320898Y0310420D01*
X0320947Y0310479D01*
X0321000Y0310535D01*
X0321055Y0310588D01*
X0321113Y0310638D01*
X0321173Y0310685D01*
X0321236Y0310729D01*
X0321301Y0310770D01*
X0321368Y0310807D01*
X0321437Y0310841D01*
X0321507Y0310871D01*
X0321579Y0310897D01*
X0321653Y0310919D01*
X0321727Y0310938D01*
X0321802Y0310953D01*
X0321878Y0310964D01*
X0321954Y0310971D01*
X0322031Y0310974D01*
X0322107Y0310973D01*
X0322184Y0310968D01*
X0322260Y0310959D01*
X0322336Y0310946D01*
X0322410Y0310929D01*
X0322484Y0310909D01*
X0322557Y0310884D01*
X0322628Y0310856D01*
X0322698Y0310824D01*
X0322766Y0310789D01*
X0322832Y0310750D01*
X0322896Y0310708D01*
X0322957Y0310662D01*
X0323017Y0310613D01*
X0323073Y0310562D01*
X0323127Y0310507D01*
X0323178Y0310450D01*
X0323226Y0310390D01*
X0323271Y0310328D01*
X0323312Y0310263D01*
X0323350Y0310197D01*
X0323385Y0310129D01*
X0323415Y0310058D01*
X0323443Y0309987D01*
X0323466Y0309914D01*
X0323486Y0309840D01*
X0323502Y0309765D01*
X0323514Y0309689D01*
X0323522Y0309613D01*
X0323526Y0309536D01*
X0323526Y0309460D01*
X0323522Y0309383D01*
X0323514Y0309307D01*
X0323502Y0309231D01*
X0323486Y0309156D01*
X0323466Y0309082D01*
X0323443Y0309009D01*
X0323415Y0308938D01*
X0323385Y0308867D01*
X0323350Y0308799D01*
X0323312Y0308733D01*
X0323271Y0308668D01*
X0323226Y0308606D01*
X0323178Y0308546D01*
X0323127Y0308489D01*
X0323073Y0308434D01*
X0323017Y0308383D01*
X0322957Y0308334D01*
X0322896Y0308288D01*
X0322832Y0308246D01*
X0322766Y0308207D01*
X0322698Y0308172D01*
X0322628Y0308140D01*
X0322557Y0308112D01*
X0322484Y0308087D01*
X0322410Y0308067D01*
X0322336Y0308050D01*
X0322260Y0308037D01*
X0322184Y0308028D01*
X0322107Y0308023D01*
X0322031Y0308022D01*
X0321954Y0308025D01*
X0321878Y0308032D01*
X0321802Y0308043D01*
X0321727Y0308058D01*
X0321653Y0308077D01*
X0321579Y0308099D01*
X0321507Y0308125D01*
X0321437Y0308155D01*
X0321368Y0308189D01*
X0321301Y0308226D01*
X0321236Y0308267D01*
X0321173Y0308311D01*
X0321113Y0308358D01*
X0321055Y0308408D01*
X0321000Y0308461D01*
X0320947Y0308517D01*
X0320898Y0308576D01*
X0320851Y0308637D01*
X0320808Y0308700D01*
X0320769Y0308766D01*
X0320732Y0308833D01*
X0320700Y0308902D01*
X0320670Y0308973D01*
X0320645Y0309046D01*
X0320623Y0309119D01*
X0320606Y0309194D01*
X0320592Y0309269D01*
X0320582Y0309345D01*
X0320576Y0309421D01*
X0320574Y0309498D01*
X0182902Y0591610D02*
X0182904Y0591735D01*
X0182910Y0591860D01*
X0182920Y0591984D01*
X0182934Y0592108D01*
X0182951Y0592232D01*
X0182973Y0592355D01*
X0182999Y0592477D01*
X0183028Y0592599D01*
X0183061Y0592719D01*
X0183099Y0592838D01*
X0183139Y0592957D01*
X0183184Y0593073D01*
X0183232Y0593188D01*
X0183284Y0593302D01*
X0183340Y0593414D01*
X0183399Y0593524D01*
X0183461Y0593632D01*
X0183527Y0593739D01*
X0183596Y0593843D01*
X0183669Y0593944D01*
X0183744Y0594044D01*
X0183823Y0594141D01*
X0183905Y0594235D01*
X0183990Y0594327D01*
X0184077Y0594416D01*
X0184168Y0594502D01*
X0184261Y0594585D01*
X0184357Y0594666D01*
X0184455Y0594743D01*
X0184555Y0594817D01*
X0184658Y0594888D01*
X0184763Y0594955D01*
X0184871Y0595020D01*
X0184980Y0595080D01*
X0185091Y0595138D01*
X0185204Y0595191D01*
X0185318Y0595241D01*
X0185434Y0595288D01*
X0185551Y0595330D01*
X0185670Y0595369D01*
X0185790Y0595405D01*
X0185911Y0595436D01*
X0186033Y0595464D01*
X0186155Y0595487D01*
X0186279Y0595507D01*
X0186403Y0595523D01*
X0186527Y0595535D01*
X0186652Y0595543D01*
X0186777Y0595547D01*
X0186901Y0595547D01*
X0187026Y0595543D01*
X0187151Y0595535D01*
X0187275Y0595523D01*
X0187399Y0595507D01*
X0187523Y0595487D01*
X0187645Y0595464D01*
X0187767Y0595436D01*
X0187888Y0595405D01*
X0188008Y0595369D01*
X0188127Y0595330D01*
X0188244Y0595288D01*
X0188360Y0595241D01*
X0188474Y0595191D01*
X0188587Y0595138D01*
X0188698Y0595080D01*
X0188808Y0595020D01*
X0188915Y0594955D01*
X0189020Y0594888D01*
X0189123Y0594817D01*
X0189223Y0594743D01*
X0189321Y0594666D01*
X0189417Y0594585D01*
X0189510Y0594502D01*
X0189601Y0594416D01*
X0189688Y0594327D01*
X0189773Y0594235D01*
X0189855Y0594141D01*
X0189934Y0594044D01*
X0190009Y0593944D01*
X0190082Y0593843D01*
X0190151Y0593739D01*
X0190217Y0593632D01*
X0190279Y0593524D01*
X0190338Y0593414D01*
X0190394Y0593302D01*
X0190446Y0593188D01*
X0190494Y0593073D01*
X0190539Y0592957D01*
X0190579Y0592838D01*
X0190617Y0592719D01*
X0190650Y0592599D01*
X0190679Y0592477D01*
X0190705Y0592355D01*
X0190727Y0592232D01*
X0190744Y0592108D01*
X0190758Y0591984D01*
X0190768Y0591860D01*
X0190774Y0591735D01*
X0190776Y0591610D01*
X0190774Y0591485D01*
X0190768Y0591360D01*
X0190758Y0591236D01*
X0190744Y0591112D01*
X0190727Y0590988D01*
X0190705Y0590865D01*
X0190679Y0590743D01*
X0190650Y0590621D01*
X0190617Y0590501D01*
X0190579Y0590382D01*
X0190539Y0590263D01*
X0190494Y0590147D01*
X0190446Y0590032D01*
X0190394Y0589918D01*
X0190338Y0589806D01*
X0190279Y0589696D01*
X0190217Y0589588D01*
X0190151Y0589481D01*
X0190082Y0589377D01*
X0190009Y0589276D01*
X0189934Y0589176D01*
X0189855Y0589079D01*
X0189773Y0588985D01*
X0189688Y0588893D01*
X0189601Y0588804D01*
X0189510Y0588718D01*
X0189417Y0588635D01*
X0189321Y0588554D01*
X0189223Y0588477D01*
X0189123Y0588403D01*
X0189020Y0588332D01*
X0188915Y0588265D01*
X0188807Y0588200D01*
X0188698Y0588140D01*
X0188587Y0588082D01*
X0188474Y0588029D01*
X0188360Y0587979D01*
X0188244Y0587932D01*
X0188127Y0587890D01*
X0188008Y0587851D01*
X0187888Y0587815D01*
X0187767Y0587784D01*
X0187645Y0587756D01*
X0187523Y0587733D01*
X0187399Y0587713D01*
X0187275Y0587697D01*
X0187151Y0587685D01*
X0187026Y0587677D01*
X0186901Y0587673D01*
X0186777Y0587673D01*
X0186652Y0587677D01*
X0186527Y0587685D01*
X0186403Y0587697D01*
X0186279Y0587713D01*
X0186155Y0587733D01*
X0186033Y0587756D01*
X0185911Y0587784D01*
X0185790Y0587815D01*
X0185670Y0587851D01*
X0185551Y0587890D01*
X0185434Y0587932D01*
X0185318Y0587979D01*
X0185204Y0588029D01*
X0185091Y0588082D01*
X0184980Y0588140D01*
X0184870Y0588200D01*
X0184763Y0588265D01*
X0184658Y0588332D01*
X0184555Y0588403D01*
X0184455Y0588477D01*
X0184357Y0588554D01*
X0184261Y0588635D01*
X0184168Y0588718D01*
X0184077Y0588804D01*
X0183990Y0588893D01*
X0183905Y0588985D01*
X0183823Y0589079D01*
X0183744Y0589176D01*
X0183669Y0589276D01*
X0183596Y0589377D01*
X0183527Y0589481D01*
X0183461Y0589588D01*
X0183399Y0589696D01*
X0183340Y0589806D01*
X0183284Y0589918D01*
X0183232Y0590032D01*
X0183184Y0590147D01*
X0183139Y0590263D01*
X0183099Y0590382D01*
X0183061Y0590501D01*
X0183028Y0590621D01*
X0182999Y0590743D01*
X0182973Y0590865D01*
X0182951Y0590988D01*
X0182934Y0591112D01*
X0182920Y0591236D01*
X0182910Y0591360D01*
X0182904Y0591485D01*
X0182902Y0591610D01*
X0182902Y0646728D02*
X0182904Y0646853D01*
X0182910Y0646978D01*
X0182920Y0647102D01*
X0182934Y0647226D01*
X0182951Y0647350D01*
X0182973Y0647473D01*
X0182999Y0647595D01*
X0183028Y0647717D01*
X0183061Y0647837D01*
X0183099Y0647956D01*
X0183139Y0648075D01*
X0183184Y0648191D01*
X0183232Y0648306D01*
X0183284Y0648420D01*
X0183340Y0648532D01*
X0183399Y0648642D01*
X0183461Y0648750D01*
X0183527Y0648857D01*
X0183596Y0648961D01*
X0183669Y0649062D01*
X0183744Y0649162D01*
X0183823Y0649259D01*
X0183905Y0649353D01*
X0183990Y0649445D01*
X0184077Y0649534D01*
X0184168Y0649620D01*
X0184261Y0649703D01*
X0184357Y0649784D01*
X0184455Y0649861D01*
X0184555Y0649935D01*
X0184658Y0650006D01*
X0184763Y0650073D01*
X0184871Y0650138D01*
X0184980Y0650198D01*
X0185091Y0650256D01*
X0185204Y0650309D01*
X0185318Y0650359D01*
X0185434Y0650406D01*
X0185551Y0650448D01*
X0185670Y0650487D01*
X0185790Y0650523D01*
X0185911Y0650554D01*
X0186033Y0650582D01*
X0186155Y0650605D01*
X0186279Y0650625D01*
X0186403Y0650641D01*
X0186527Y0650653D01*
X0186652Y0650661D01*
X0186777Y0650665D01*
X0186901Y0650665D01*
X0187026Y0650661D01*
X0187151Y0650653D01*
X0187275Y0650641D01*
X0187399Y0650625D01*
X0187523Y0650605D01*
X0187645Y0650582D01*
X0187767Y0650554D01*
X0187888Y0650523D01*
X0188008Y0650487D01*
X0188127Y0650448D01*
X0188244Y0650406D01*
X0188360Y0650359D01*
X0188474Y0650309D01*
X0188587Y0650256D01*
X0188698Y0650198D01*
X0188808Y0650138D01*
X0188915Y0650073D01*
X0189020Y0650006D01*
X0189123Y0649935D01*
X0189223Y0649861D01*
X0189321Y0649784D01*
X0189417Y0649703D01*
X0189510Y0649620D01*
X0189601Y0649534D01*
X0189688Y0649445D01*
X0189773Y0649353D01*
X0189855Y0649259D01*
X0189934Y0649162D01*
X0190009Y0649062D01*
X0190082Y0648961D01*
X0190151Y0648857D01*
X0190217Y0648750D01*
X0190279Y0648642D01*
X0190338Y0648532D01*
X0190394Y0648420D01*
X0190446Y0648306D01*
X0190494Y0648191D01*
X0190539Y0648075D01*
X0190579Y0647956D01*
X0190617Y0647837D01*
X0190650Y0647717D01*
X0190679Y0647595D01*
X0190705Y0647473D01*
X0190727Y0647350D01*
X0190744Y0647226D01*
X0190758Y0647102D01*
X0190768Y0646978D01*
X0190774Y0646853D01*
X0190776Y0646728D01*
X0190774Y0646603D01*
X0190768Y0646478D01*
X0190758Y0646354D01*
X0190744Y0646230D01*
X0190727Y0646106D01*
X0190705Y0645983D01*
X0190679Y0645861D01*
X0190650Y0645739D01*
X0190617Y0645619D01*
X0190579Y0645500D01*
X0190539Y0645381D01*
X0190494Y0645265D01*
X0190446Y0645150D01*
X0190394Y0645036D01*
X0190338Y0644924D01*
X0190279Y0644814D01*
X0190217Y0644706D01*
X0190151Y0644599D01*
X0190082Y0644495D01*
X0190009Y0644394D01*
X0189934Y0644294D01*
X0189855Y0644197D01*
X0189773Y0644103D01*
X0189688Y0644011D01*
X0189601Y0643922D01*
X0189510Y0643836D01*
X0189417Y0643753D01*
X0189321Y0643672D01*
X0189223Y0643595D01*
X0189123Y0643521D01*
X0189020Y0643450D01*
X0188915Y0643383D01*
X0188807Y0643318D01*
X0188698Y0643258D01*
X0188587Y0643200D01*
X0188474Y0643147D01*
X0188360Y0643097D01*
X0188244Y0643050D01*
X0188127Y0643008D01*
X0188008Y0642969D01*
X0187888Y0642933D01*
X0187767Y0642902D01*
X0187645Y0642874D01*
X0187523Y0642851D01*
X0187399Y0642831D01*
X0187275Y0642815D01*
X0187151Y0642803D01*
X0187026Y0642795D01*
X0186901Y0642791D01*
X0186777Y0642791D01*
X0186652Y0642795D01*
X0186527Y0642803D01*
X0186403Y0642815D01*
X0186279Y0642831D01*
X0186155Y0642851D01*
X0186033Y0642874D01*
X0185911Y0642902D01*
X0185790Y0642933D01*
X0185670Y0642969D01*
X0185551Y0643008D01*
X0185434Y0643050D01*
X0185318Y0643097D01*
X0185204Y0643147D01*
X0185091Y0643200D01*
X0184980Y0643258D01*
X0184870Y0643318D01*
X0184763Y0643383D01*
X0184658Y0643450D01*
X0184555Y0643521D01*
X0184455Y0643595D01*
X0184357Y0643672D01*
X0184261Y0643753D01*
X0184168Y0643836D01*
X0184077Y0643922D01*
X0183990Y0644011D01*
X0183905Y0644103D01*
X0183823Y0644197D01*
X0183744Y0644294D01*
X0183669Y0644394D01*
X0183596Y0644495D01*
X0183527Y0644599D01*
X0183461Y0644706D01*
X0183399Y0644814D01*
X0183340Y0644924D01*
X0183284Y0645036D01*
X0183232Y0645150D01*
X0183184Y0645265D01*
X0183139Y0645381D01*
X0183099Y0645500D01*
X0183061Y0645619D01*
X0183028Y0645739D01*
X0182999Y0645861D01*
X0182973Y0645983D01*
X0182951Y0646106D01*
X0182934Y0646230D01*
X0182920Y0646354D01*
X0182910Y0646478D01*
X0182904Y0646603D01*
X0182902Y0646728D01*
X0076603Y0646728D02*
X0076605Y0646853D01*
X0076611Y0646978D01*
X0076621Y0647102D01*
X0076635Y0647226D01*
X0076652Y0647350D01*
X0076674Y0647473D01*
X0076700Y0647595D01*
X0076729Y0647717D01*
X0076762Y0647837D01*
X0076800Y0647956D01*
X0076840Y0648075D01*
X0076885Y0648191D01*
X0076933Y0648306D01*
X0076985Y0648420D01*
X0077041Y0648532D01*
X0077100Y0648642D01*
X0077162Y0648750D01*
X0077228Y0648857D01*
X0077297Y0648961D01*
X0077370Y0649062D01*
X0077445Y0649162D01*
X0077524Y0649259D01*
X0077606Y0649353D01*
X0077691Y0649445D01*
X0077778Y0649534D01*
X0077869Y0649620D01*
X0077962Y0649703D01*
X0078058Y0649784D01*
X0078156Y0649861D01*
X0078256Y0649935D01*
X0078359Y0650006D01*
X0078464Y0650073D01*
X0078572Y0650138D01*
X0078681Y0650198D01*
X0078792Y0650256D01*
X0078905Y0650309D01*
X0079019Y0650359D01*
X0079135Y0650406D01*
X0079252Y0650448D01*
X0079371Y0650487D01*
X0079491Y0650523D01*
X0079612Y0650554D01*
X0079734Y0650582D01*
X0079856Y0650605D01*
X0079980Y0650625D01*
X0080104Y0650641D01*
X0080228Y0650653D01*
X0080353Y0650661D01*
X0080478Y0650665D01*
X0080602Y0650665D01*
X0080727Y0650661D01*
X0080852Y0650653D01*
X0080976Y0650641D01*
X0081100Y0650625D01*
X0081224Y0650605D01*
X0081346Y0650582D01*
X0081468Y0650554D01*
X0081589Y0650523D01*
X0081709Y0650487D01*
X0081828Y0650448D01*
X0081945Y0650406D01*
X0082061Y0650359D01*
X0082175Y0650309D01*
X0082288Y0650256D01*
X0082399Y0650198D01*
X0082509Y0650138D01*
X0082616Y0650073D01*
X0082721Y0650006D01*
X0082824Y0649935D01*
X0082924Y0649861D01*
X0083022Y0649784D01*
X0083118Y0649703D01*
X0083211Y0649620D01*
X0083302Y0649534D01*
X0083389Y0649445D01*
X0083474Y0649353D01*
X0083556Y0649259D01*
X0083635Y0649162D01*
X0083710Y0649062D01*
X0083783Y0648961D01*
X0083852Y0648857D01*
X0083918Y0648750D01*
X0083980Y0648642D01*
X0084039Y0648532D01*
X0084095Y0648420D01*
X0084147Y0648306D01*
X0084195Y0648191D01*
X0084240Y0648075D01*
X0084280Y0647956D01*
X0084318Y0647837D01*
X0084351Y0647717D01*
X0084380Y0647595D01*
X0084406Y0647473D01*
X0084428Y0647350D01*
X0084445Y0647226D01*
X0084459Y0647102D01*
X0084469Y0646978D01*
X0084475Y0646853D01*
X0084477Y0646728D01*
X0084475Y0646603D01*
X0084469Y0646478D01*
X0084459Y0646354D01*
X0084445Y0646230D01*
X0084428Y0646106D01*
X0084406Y0645983D01*
X0084380Y0645861D01*
X0084351Y0645739D01*
X0084318Y0645619D01*
X0084280Y0645500D01*
X0084240Y0645381D01*
X0084195Y0645265D01*
X0084147Y0645150D01*
X0084095Y0645036D01*
X0084039Y0644924D01*
X0083980Y0644814D01*
X0083918Y0644706D01*
X0083852Y0644599D01*
X0083783Y0644495D01*
X0083710Y0644394D01*
X0083635Y0644294D01*
X0083556Y0644197D01*
X0083474Y0644103D01*
X0083389Y0644011D01*
X0083302Y0643922D01*
X0083211Y0643836D01*
X0083118Y0643753D01*
X0083022Y0643672D01*
X0082924Y0643595D01*
X0082824Y0643521D01*
X0082721Y0643450D01*
X0082616Y0643383D01*
X0082508Y0643318D01*
X0082399Y0643258D01*
X0082288Y0643200D01*
X0082175Y0643147D01*
X0082061Y0643097D01*
X0081945Y0643050D01*
X0081828Y0643008D01*
X0081709Y0642969D01*
X0081589Y0642933D01*
X0081468Y0642902D01*
X0081346Y0642874D01*
X0081224Y0642851D01*
X0081100Y0642831D01*
X0080976Y0642815D01*
X0080852Y0642803D01*
X0080727Y0642795D01*
X0080602Y0642791D01*
X0080478Y0642791D01*
X0080353Y0642795D01*
X0080228Y0642803D01*
X0080104Y0642815D01*
X0079980Y0642831D01*
X0079856Y0642851D01*
X0079734Y0642874D01*
X0079612Y0642902D01*
X0079491Y0642933D01*
X0079371Y0642969D01*
X0079252Y0643008D01*
X0079135Y0643050D01*
X0079019Y0643097D01*
X0078905Y0643147D01*
X0078792Y0643200D01*
X0078681Y0643258D01*
X0078571Y0643318D01*
X0078464Y0643383D01*
X0078359Y0643450D01*
X0078256Y0643521D01*
X0078156Y0643595D01*
X0078058Y0643672D01*
X0077962Y0643753D01*
X0077869Y0643836D01*
X0077778Y0643922D01*
X0077691Y0644011D01*
X0077606Y0644103D01*
X0077524Y0644197D01*
X0077445Y0644294D01*
X0077370Y0644394D01*
X0077297Y0644495D01*
X0077228Y0644599D01*
X0077162Y0644706D01*
X0077100Y0644814D01*
X0077041Y0644924D01*
X0076985Y0645036D01*
X0076933Y0645150D01*
X0076885Y0645265D01*
X0076840Y0645381D01*
X0076800Y0645500D01*
X0076762Y0645619D01*
X0076729Y0645739D01*
X0076700Y0645861D01*
X0076674Y0645983D01*
X0076652Y0646106D01*
X0076635Y0646230D01*
X0076621Y0646354D01*
X0076611Y0646478D01*
X0076605Y0646603D01*
X0076603Y0646728D01*
X0076603Y0591610D02*
X0076605Y0591735D01*
X0076611Y0591860D01*
X0076621Y0591984D01*
X0076635Y0592108D01*
X0076652Y0592232D01*
X0076674Y0592355D01*
X0076700Y0592477D01*
X0076729Y0592599D01*
X0076762Y0592719D01*
X0076800Y0592838D01*
X0076840Y0592957D01*
X0076885Y0593073D01*
X0076933Y0593188D01*
X0076985Y0593302D01*
X0077041Y0593414D01*
X0077100Y0593524D01*
X0077162Y0593632D01*
X0077228Y0593739D01*
X0077297Y0593843D01*
X0077370Y0593944D01*
X0077445Y0594044D01*
X0077524Y0594141D01*
X0077606Y0594235D01*
X0077691Y0594327D01*
X0077778Y0594416D01*
X0077869Y0594502D01*
X0077962Y0594585D01*
X0078058Y0594666D01*
X0078156Y0594743D01*
X0078256Y0594817D01*
X0078359Y0594888D01*
X0078464Y0594955D01*
X0078572Y0595020D01*
X0078681Y0595080D01*
X0078792Y0595138D01*
X0078905Y0595191D01*
X0079019Y0595241D01*
X0079135Y0595288D01*
X0079252Y0595330D01*
X0079371Y0595369D01*
X0079491Y0595405D01*
X0079612Y0595436D01*
X0079734Y0595464D01*
X0079856Y0595487D01*
X0079980Y0595507D01*
X0080104Y0595523D01*
X0080228Y0595535D01*
X0080353Y0595543D01*
X0080478Y0595547D01*
X0080602Y0595547D01*
X0080727Y0595543D01*
X0080852Y0595535D01*
X0080976Y0595523D01*
X0081100Y0595507D01*
X0081224Y0595487D01*
X0081346Y0595464D01*
X0081468Y0595436D01*
X0081589Y0595405D01*
X0081709Y0595369D01*
X0081828Y0595330D01*
X0081945Y0595288D01*
X0082061Y0595241D01*
X0082175Y0595191D01*
X0082288Y0595138D01*
X0082399Y0595080D01*
X0082509Y0595020D01*
X0082616Y0594955D01*
X0082721Y0594888D01*
X0082824Y0594817D01*
X0082924Y0594743D01*
X0083022Y0594666D01*
X0083118Y0594585D01*
X0083211Y0594502D01*
X0083302Y0594416D01*
X0083389Y0594327D01*
X0083474Y0594235D01*
X0083556Y0594141D01*
X0083635Y0594044D01*
X0083710Y0593944D01*
X0083783Y0593843D01*
X0083852Y0593739D01*
X0083918Y0593632D01*
X0083980Y0593524D01*
X0084039Y0593414D01*
X0084095Y0593302D01*
X0084147Y0593188D01*
X0084195Y0593073D01*
X0084240Y0592957D01*
X0084280Y0592838D01*
X0084318Y0592719D01*
X0084351Y0592599D01*
X0084380Y0592477D01*
X0084406Y0592355D01*
X0084428Y0592232D01*
X0084445Y0592108D01*
X0084459Y0591984D01*
X0084469Y0591860D01*
X0084475Y0591735D01*
X0084477Y0591610D01*
X0084475Y0591485D01*
X0084469Y0591360D01*
X0084459Y0591236D01*
X0084445Y0591112D01*
X0084428Y0590988D01*
X0084406Y0590865D01*
X0084380Y0590743D01*
X0084351Y0590621D01*
X0084318Y0590501D01*
X0084280Y0590382D01*
X0084240Y0590263D01*
X0084195Y0590147D01*
X0084147Y0590032D01*
X0084095Y0589918D01*
X0084039Y0589806D01*
X0083980Y0589696D01*
X0083918Y0589588D01*
X0083852Y0589481D01*
X0083783Y0589377D01*
X0083710Y0589276D01*
X0083635Y0589176D01*
X0083556Y0589079D01*
X0083474Y0588985D01*
X0083389Y0588893D01*
X0083302Y0588804D01*
X0083211Y0588718D01*
X0083118Y0588635D01*
X0083022Y0588554D01*
X0082924Y0588477D01*
X0082824Y0588403D01*
X0082721Y0588332D01*
X0082616Y0588265D01*
X0082508Y0588200D01*
X0082399Y0588140D01*
X0082288Y0588082D01*
X0082175Y0588029D01*
X0082061Y0587979D01*
X0081945Y0587932D01*
X0081828Y0587890D01*
X0081709Y0587851D01*
X0081589Y0587815D01*
X0081468Y0587784D01*
X0081346Y0587756D01*
X0081224Y0587733D01*
X0081100Y0587713D01*
X0080976Y0587697D01*
X0080852Y0587685D01*
X0080727Y0587677D01*
X0080602Y0587673D01*
X0080478Y0587673D01*
X0080353Y0587677D01*
X0080228Y0587685D01*
X0080104Y0587697D01*
X0079980Y0587713D01*
X0079856Y0587733D01*
X0079734Y0587756D01*
X0079612Y0587784D01*
X0079491Y0587815D01*
X0079371Y0587851D01*
X0079252Y0587890D01*
X0079135Y0587932D01*
X0079019Y0587979D01*
X0078905Y0588029D01*
X0078792Y0588082D01*
X0078681Y0588140D01*
X0078571Y0588200D01*
X0078464Y0588265D01*
X0078359Y0588332D01*
X0078256Y0588403D01*
X0078156Y0588477D01*
X0078058Y0588554D01*
X0077962Y0588635D01*
X0077869Y0588718D01*
X0077778Y0588804D01*
X0077691Y0588893D01*
X0077606Y0588985D01*
X0077524Y0589079D01*
X0077445Y0589176D01*
X0077370Y0589276D01*
X0077297Y0589377D01*
X0077228Y0589481D01*
X0077162Y0589588D01*
X0077100Y0589696D01*
X0077041Y0589806D01*
X0076985Y0589918D01*
X0076933Y0590032D01*
X0076885Y0590147D01*
X0076840Y0590263D01*
X0076800Y0590382D01*
X0076762Y0590501D01*
X0076729Y0590621D01*
X0076700Y0590743D01*
X0076674Y0590865D01*
X0076652Y0590988D01*
X0076635Y0591112D01*
X0076621Y0591236D01*
X0076611Y0591360D01*
X0076605Y0591485D01*
X0076603Y0591610D01*
D11*
X0111997Y0558303D02*
X0111997Y0555350D01*
X0111997Y0551413D02*
X0111997Y0548461D01*
X0269517Y0197909D02*
X0274110Y0197909D01*
X0278047Y0197909D02*
X0282640Y0197909D01*
X0286577Y0197909D02*
X0291170Y0197909D01*
X0295107Y0197909D02*
X0299700Y0197909D01*
X0303637Y0197909D02*
X0308230Y0197909D01*
X0312167Y0197909D02*
X0316761Y0197909D01*
X0316761Y0193972D01*
X0316761Y0190035D02*
X0316761Y0186098D01*
X0316761Y0182161D02*
X0316761Y0178224D01*
X0316761Y0174287D02*
X0316761Y0170350D01*
X0316761Y0166413D02*
X0316761Y0162476D01*
X0316761Y0158539D02*
X0316761Y0154602D01*
X0316761Y0150009D01*
X0316761Y0146072D02*
X0316761Y0141479D01*
X0316761Y0137542D02*
X0316761Y0132949D01*
X0316761Y0128520D01*
X0316761Y0124583D02*
X0316761Y0120154D01*
X0316761Y0116217D02*
X0316761Y0111787D01*
X0316761Y0107850D02*
X0316761Y0103421D01*
X0316761Y0132949D02*
X0312824Y0132949D01*
X0308887Y0132949D02*
X0304950Y0132949D01*
X0301013Y0132949D02*
X0297076Y0132949D01*
X0293139Y0132949D02*
X0289202Y0132949D01*
X0285265Y0132949D02*
X0281328Y0132949D01*
X0277391Y0132949D02*
X0273454Y0132949D01*
X0269517Y0132949D02*
X0265580Y0132949D01*
X0265580Y0150665D02*
X0260330Y0150665D01*
X0256393Y0150665D02*
X0251144Y0150665D01*
X0247207Y0150665D02*
X0241957Y0150665D01*
X0241957Y0155587D01*
X0241957Y0159524D02*
X0241957Y0164445D01*
X0241957Y0168382D02*
X0241957Y0173303D01*
X0241957Y0177240D02*
X0241957Y0182161D01*
X0245894Y0182161D01*
X0249831Y0182161D02*
X0253769Y0182161D01*
X0257706Y0182161D02*
X0261643Y0182161D01*
X0265580Y0182161D02*
X0269517Y0182161D01*
X0269517Y0188067D01*
X0269517Y0192004D02*
X0269517Y0197909D01*
X0360068Y0154602D02*
X0360068Y0150665D01*
X0360068Y0146728D02*
X0360068Y0142791D01*
X0360068Y0138854D02*
X0360068Y0134917D01*
X0360068Y0130980D02*
X0360068Y0127043D01*
X0360068Y0123106D02*
X0360068Y0119169D01*
X0360068Y0115232D02*
X0360068Y0111295D01*
X0360068Y0107358D02*
X0360068Y0103421D01*
D12*
X0353670Y0103421D01*
X0349733Y0103421D02*
X0343335Y0103421D01*
X0343335Y0092594D01*
X0329556Y0092594D01*
X0329556Y0103421D01*
X0325127Y0103421D01*
X0321190Y0103421D02*
X0316761Y0103421D01*
X0329556Y0103421D02*
X0329556Y0108343D01*
X0343335Y0108343D01*
X0343335Y0103421D01*
X0360068Y0060114D02*
X0068729Y0060114D01*
X0068729Y0217594D01*
X0360068Y0217594D01*
X0360068Y0060114D01*
X0360068Y0154602D02*
X0356131Y0154602D01*
X0352194Y0154602D02*
X0348257Y0154602D01*
X0344320Y0154602D02*
X0340383Y0154602D01*
X0336446Y0154602D02*
X0332509Y0154602D01*
X0328572Y0154602D02*
X0324635Y0154602D01*
X0320698Y0154602D02*
X0316761Y0154602D01*
X0265580Y0150665D02*
X0265580Y0143776D01*
X0265580Y0139839D02*
X0265580Y0132949D01*
X0182902Y0132293D02*
X0182902Y0137542D01*
X0182902Y0141479D02*
X0182902Y0146728D01*
X0182902Y0128356D02*
X0182902Y0123106D01*
X0178965Y0123106D01*
X0175028Y0123106D02*
X0171091Y0123106D01*
X0171091Y0120154D01*
X0171091Y0116217D02*
X0171091Y0113264D01*
X0165678Y0113264D01*
X0161741Y0113264D02*
X0156328Y0113264D01*
X0123847Y0113264D02*
X0116957Y0113264D01*
X0113020Y0113264D02*
X0106131Y0113264D01*
X0068729Y0233343D02*
X0068729Y0386886D01*
X0068729Y0390823D02*
X0360068Y0390823D01*
X0360068Y0233343D01*
X0068729Y0233343D01*
X0161249Y0292398D02*
X0229162Y0292398D01*
X0255737Y0293054D02*
X0255737Y0288461D01*
X0260461Y0288461D01*
X0264398Y0288461D02*
X0269123Y0288461D01*
X0273060Y0288461D02*
X0277784Y0288461D01*
X0281721Y0288461D02*
X0286446Y0288461D01*
X0290383Y0288461D02*
X0295107Y0288461D01*
X0295107Y0283867D01*
X0295107Y0279930D02*
X0295107Y0275337D01*
X0295107Y0271400D02*
X0295107Y0266807D01*
X0290383Y0266807D01*
X0286446Y0266807D02*
X0281721Y0266807D01*
X0277784Y0266807D02*
X0273060Y0266807D01*
X0269123Y0266807D02*
X0264398Y0266807D01*
X0260461Y0266807D02*
X0255737Y0266807D01*
X0255737Y0271400D01*
X0255737Y0275337D02*
X0255737Y0279930D01*
X0255737Y0283867D02*
X0255737Y0288461D01*
X0255737Y0296991D02*
X0255737Y0301584D01*
X0255737Y0305521D02*
X0255737Y0310114D01*
X0260461Y0310114D01*
X0264398Y0310114D02*
X0269123Y0310114D01*
X0273060Y0310114D02*
X0277784Y0310114D01*
X0281721Y0310114D02*
X0286446Y0310114D01*
X0290383Y0310114D02*
X0295107Y0310114D01*
X0295107Y0305521D01*
X0295107Y0301584D02*
X0295107Y0296991D01*
X0295107Y0293054D02*
X0295107Y0288461D01*
X0295107Y0310114D02*
X0295107Y0315364D01*
X0295107Y0319301D02*
X0295107Y0324550D01*
X0295107Y0328487D02*
X0295107Y0333736D01*
X0290383Y0333736D01*
X0286446Y0333736D02*
X0281721Y0333736D01*
X0277784Y0333736D02*
X0273060Y0333736D01*
X0269123Y0333736D02*
X0264398Y0333736D01*
X0260461Y0333736D02*
X0255737Y0333736D01*
X0255737Y0328487D01*
X0255737Y0324550D02*
X0255737Y0319301D01*
X0255737Y0315364D02*
X0255737Y0310114D01*
X0267548Y0300272D02*
X0267548Y0369169D01*
X0324635Y0365232D02*
X0324635Y0361295D01*
X0324635Y0357358D02*
X0324635Y0353421D01*
X0324635Y0349484D02*
X0324635Y0345547D01*
X0324635Y0341610D02*
X0324635Y0337673D01*
X0324635Y0333736D02*
X0324635Y0329799D01*
X0324635Y0325862D02*
X0324635Y0321925D01*
X0330048Y0321925D01*
X0333985Y0321925D02*
X0339398Y0321925D01*
X0343335Y0321925D02*
X0348749Y0321925D01*
X0352686Y0321925D02*
X0358099Y0321925D01*
X0358099Y0325862D01*
X0358099Y0329799D02*
X0358099Y0333736D01*
X0358099Y0337673D02*
X0358099Y0341610D01*
X0358099Y0345547D02*
X0358099Y0349484D01*
X0358099Y0353421D02*
X0358099Y0357358D01*
X0358099Y0361295D02*
X0358099Y0365232D01*
X0352686Y0365232D01*
X0348749Y0365232D02*
X0343335Y0365232D01*
X0339398Y0365232D02*
X0333985Y0365232D01*
X0330048Y0365232D02*
X0324635Y0365232D01*
X0343335Y0387870D02*
X0356131Y0387870D01*
X0356131Y0262870D01*
X0295107Y0262870D02*
X0295107Y0266807D01*
X0295107Y0258933D02*
X0295107Y0254996D01*
X0295107Y0251059D02*
X0295107Y0247122D01*
X0290383Y0247122D01*
X0286446Y0247122D02*
X0281721Y0247122D01*
X0277784Y0247122D02*
X0273060Y0247122D01*
X0269123Y0247122D02*
X0264398Y0247122D01*
X0260461Y0247122D02*
X0255737Y0247122D01*
X0255737Y0251059D01*
X0255737Y0254996D02*
X0255737Y0258933D01*
X0255737Y0262870D02*
X0255737Y0266807D01*
X0360068Y0406571D02*
X0068729Y0406571D01*
X0068729Y0564051D01*
X0360068Y0564051D01*
X0360068Y0406571D01*
X0198650Y0579799D02*
X0068729Y0579799D01*
X0068729Y0658539D01*
X0198650Y0658539D01*
X0198650Y0579799D01*
X0139556Y0548461D02*
X0139556Y0543539D01*
X0139556Y0539602D02*
X0139556Y0534681D01*
X0139556Y0530744D02*
X0139556Y0525823D01*
X0139556Y0521886D02*
X0139556Y0516965D01*
X0135056Y0516965D01*
X0131119Y0516965D02*
X0126620Y0516965D01*
X0122683Y0516965D02*
X0118184Y0516965D01*
X0114247Y0516965D02*
X0109747Y0516965D01*
X0105810Y0516965D02*
X0101311Y0516965D01*
X0097374Y0516965D02*
X0092874Y0516965D01*
X0088937Y0516965D02*
X0084438Y0516965D01*
X0084438Y0520902D01*
X0084438Y0524839D02*
X0084438Y0528776D01*
X0084438Y0532713D02*
X0084438Y0536650D01*
X0076564Y0536650D01*
X0076564Y0541243D01*
X0076564Y0545180D02*
X0076564Y0549773D01*
X0076564Y0553710D02*
X0076564Y0558303D01*
X0080501Y0558303D01*
X0084438Y0558303D02*
X0088375Y0558303D01*
X0092312Y0558303D02*
X0096249Y0558303D01*
X0100186Y0558303D02*
X0104123Y0558303D01*
X0108060Y0558303D02*
X0111997Y0558303D01*
X0111997Y0548461D02*
X0115934Y0548461D01*
X0119871Y0548461D02*
X0123808Y0548461D01*
X0127745Y0548461D02*
X0131682Y0548461D01*
X0135619Y0548461D02*
X0139556Y0548461D01*
X0114005Y0467594D02*
X0107115Y0467594D01*
X0103178Y0467594D02*
X0096288Y0467594D01*
X0096288Y0462673D01*
X0096288Y0458736D02*
X0096288Y0453815D01*
X0096288Y0449878D02*
X0096288Y0444957D01*
X0096288Y0441020D02*
X0096288Y0436098D01*
X0096288Y0432161D02*
X0096288Y0427240D01*
X0096288Y0423303D02*
X0096288Y0418382D01*
X0120894Y0429209D02*
X0125816Y0429209D01*
X0129753Y0429209D02*
X0134674Y0429209D01*
X0138611Y0429209D02*
X0143532Y0429209D01*
X0147469Y0429209D02*
X0152391Y0429209D01*
X0156328Y0429209D02*
X0161249Y0429209D01*
X0161249Y0435442D01*
X0161249Y0439379D02*
X0161249Y0445613D01*
X0161249Y0449550D02*
X0161249Y0455783D01*
X0156656Y0455783D01*
X0152719Y0455783D02*
X0148125Y0455783D01*
X0144188Y0455783D02*
X0139595Y0455783D01*
X0135658Y0455783D02*
X0131065Y0455783D01*
X0127128Y0455783D02*
X0122535Y0455783D01*
X0118598Y0455783D02*
X0114005Y0455783D01*
X0114005Y0459720D01*
X0114005Y0463657D02*
X0114005Y0467594D01*
D13*
X0093566Y0446861D02*
X0094173Y0446254D01*
X0094173Y0445041D01*
X0093566Y0444434D01*
X0092959Y0444434D01*
X0092353Y0445041D01*
X0092353Y0446861D01*
X0093566Y0446861D02*
X0091139Y0446861D01*
X0090533Y0446254D01*
X0090533Y0445041D01*
X0091139Y0444434D01*
X0090533Y0443236D02*
X0090533Y0440809D01*
X0090533Y0442023D02*
X0094173Y0442023D01*
X0092959Y0440809D01*
X0093566Y0439611D02*
X0094173Y0439004D01*
X0094173Y0437791D01*
X0093566Y0437184D01*
X0091139Y0437184D01*
X0090533Y0437791D01*
X0090533Y0439004D01*
X0091139Y0439611D01*
X0090533Y0435981D02*
X0090533Y0434767D01*
X0090533Y0435374D02*
X0094173Y0435374D01*
X0094173Y0434767D02*
X0094173Y0435981D01*
X0097726Y0540953D02*
X0100152Y0540953D01*
X0097726Y0543380D01*
X0097726Y0543987D01*
X0098332Y0544593D01*
X0099546Y0544593D01*
X0100152Y0543987D01*
X0102564Y0544593D02*
X0102564Y0540953D01*
X0103777Y0540953D02*
X0101351Y0540953D01*
X0103777Y0543380D02*
X0102564Y0544593D01*
X0104976Y0543987D02*
X0105582Y0544593D01*
X0106796Y0544593D01*
X0107403Y0543987D01*
X0107403Y0541560D01*
X0106796Y0540953D01*
X0105582Y0540953D01*
X0104976Y0541560D01*
X0108606Y0540953D02*
X0109819Y0540953D01*
X0109213Y0540953D02*
X0109213Y0544593D01*
X0109819Y0544593D02*
X0108606Y0544593D01*
X0215934Y0453061D02*
X0218361Y0450635D01*
X0217754Y0450028D01*
X0216541Y0450028D01*
X0215934Y0450635D01*
X0215934Y0453061D01*
X0216541Y0453668D01*
X0217754Y0453668D01*
X0218361Y0453061D01*
X0218361Y0450635D01*
X0219559Y0450028D02*
X0221986Y0450028D01*
X0219559Y0452455D01*
X0219559Y0453061D01*
X0220166Y0453668D01*
X0221379Y0453668D01*
X0221986Y0453061D01*
X0223184Y0453061D02*
X0223791Y0453668D01*
X0225005Y0453668D01*
X0225611Y0453061D01*
X0225611Y0450635D01*
X0225005Y0450028D01*
X0223791Y0450028D01*
X0223184Y0450635D01*
X0226815Y0450028D02*
X0228028Y0450028D01*
X0227421Y0450028D02*
X0227421Y0453668D01*
X0226815Y0453668D02*
X0228028Y0453668D01*
X0246675Y0443826D02*
X0246675Y0440185D01*
X0247888Y0440185D02*
X0245462Y0440185D01*
X0247888Y0442612D02*
X0246675Y0443826D01*
X0249087Y0443219D02*
X0249694Y0443826D01*
X0250907Y0443826D01*
X0251514Y0443219D01*
X0252712Y0443219D02*
X0253319Y0443826D01*
X0254532Y0443826D01*
X0255139Y0443219D01*
X0255139Y0440792D01*
X0254532Y0440185D01*
X0253319Y0440185D01*
X0252712Y0440792D01*
X0251514Y0440185D02*
X0249087Y0442612D01*
X0249087Y0443219D01*
X0249087Y0440185D02*
X0251514Y0440185D01*
X0256342Y0440185D02*
X0257556Y0440185D01*
X0256949Y0440185D02*
X0256949Y0443826D01*
X0257556Y0443826D02*
X0256342Y0443826D01*
X0335112Y0326487D02*
X0335112Y0325880D01*
X0337539Y0323454D01*
X0337539Y0322847D01*
X0338737Y0323454D02*
X0339344Y0322847D01*
X0340557Y0322847D01*
X0341164Y0323454D01*
X0341164Y0325880D01*
X0340557Y0326487D01*
X0339344Y0326487D01*
X0338737Y0325880D01*
X0337539Y0326487D02*
X0335112Y0326487D01*
X0342367Y0326487D02*
X0343581Y0326487D01*
X0342974Y0326487D02*
X0342974Y0322847D01*
X0343581Y0322847D02*
X0342367Y0322847D01*
X0271629Y0173014D02*
X0271629Y0171244D01*
X0271629Y0172129D02*
X0274284Y0172129D01*
X0273399Y0171244D01*
X0273841Y0170296D02*
X0272956Y0170296D01*
X0272514Y0169853D01*
X0272514Y0168526D01*
X0272514Y0169411D02*
X0271629Y0170296D01*
X0271629Y0168526D02*
X0274284Y0168526D01*
X0274284Y0169853D01*
X0273841Y0170296D01*
X0305847Y0159836D02*
X0308983Y0156700D01*
X0308983Y0158268D02*
X0305847Y0158268D01*
X0305847Y0156700D02*
X0308983Y0159836D01*
X0307415Y0159836D02*
X0307415Y0156700D01*
X0328333Y0118272D02*
X0331469Y0115136D01*
X0328333Y0118272D01*
X0329901Y0118272D02*
X0329901Y0115136D01*
X0329901Y0118272D01*
X0331469Y0118272D02*
X0328333Y0115136D01*
X0331469Y0118272D01*
X0331469Y0116704D02*
X0328333Y0116704D01*
X0331469Y0116704D01*
X0331162Y0099337D02*
X0332376Y0099337D01*
X0332982Y0098731D01*
X0332982Y0096304D01*
X0332376Y0095697D01*
X0331162Y0095697D01*
X0330556Y0096304D01*
X0330556Y0098731D02*
X0331162Y0099337D01*
X0334181Y0098731D02*
X0334787Y0099337D01*
X0336001Y0099337D01*
X0336608Y0098731D01*
X0336608Y0096304D01*
X0336001Y0095697D01*
X0334787Y0095697D01*
X0334181Y0096304D01*
X0337806Y0096911D02*
X0337806Y0099337D01*
X0337806Y0096911D02*
X0339019Y0095697D01*
X0340233Y0096911D01*
X0340233Y0099337D01*
X0210513Y0100207D02*
X0210070Y0099764D01*
X0209185Y0099764D01*
X0208743Y0100207D01*
X0208743Y0101977D01*
X0209185Y0102419D01*
X0210070Y0102419D01*
X0210513Y0101977D01*
X0210513Y0100207D01*
X0209628Y0100649D02*
X0208743Y0099764D01*
X0207794Y0099764D02*
X0206024Y0099764D01*
X0206909Y0099764D02*
X0206909Y0102419D01*
X0207794Y0101534D01*
D14*
X0270016Y0161067D02*
X0270475Y0160608D01*
X0271394Y0160608D01*
X0271853Y0161067D01*
X0271853Y0161526D01*
X0271394Y0161985D01*
X0270475Y0161985D01*
X0270016Y0161526D01*
X0270016Y0161067D01*
X0270475Y0161985D02*
X0270016Y0162445D01*
X0270016Y0162904D01*
X0270475Y0163363D01*
X0271394Y0163363D01*
X0271853Y0162904D01*
X0271853Y0162445D01*
X0271394Y0161985D01*
X0272735Y0162445D02*
X0272735Y0162904D01*
X0273194Y0163363D01*
X0274113Y0163363D01*
X0274572Y0162904D01*
X0275454Y0162904D02*
X0275454Y0161985D01*
X0275913Y0161526D01*
X0277291Y0161526D01*
X0277291Y0160608D02*
X0277291Y0163363D01*
X0275913Y0163363D01*
X0275454Y0162904D01*
X0276372Y0161526D02*
X0275454Y0160608D01*
X0274572Y0160608D02*
X0272735Y0162445D01*
X0272735Y0160608D02*
X0274572Y0160608D01*
X0285062Y0152536D02*
X0285062Y0152077D01*
X0286899Y0150240D01*
X0286899Y0149781D01*
X0287781Y0149781D02*
X0289618Y0149781D01*
X0287781Y0151618D01*
X0287781Y0152077D01*
X0288240Y0152536D01*
X0289159Y0152536D01*
X0289618Y0152077D01*
X0290500Y0152077D02*
X0290500Y0151159D01*
X0290959Y0150699D01*
X0292337Y0150699D01*
X0292337Y0149781D02*
X0292337Y0152536D01*
X0290959Y0152536D01*
X0290500Y0152077D01*
X0291419Y0150699D02*
X0290500Y0149781D01*
X0286899Y0152536D02*
X0285062Y0152536D01*
X0287792Y0142009D02*
X0287333Y0141550D01*
X0287333Y0140632D01*
X0287792Y0140172D01*
X0287333Y0139290D02*
X0287333Y0137454D01*
X0289170Y0139290D01*
X0289629Y0139290D01*
X0290088Y0138831D01*
X0290088Y0137913D01*
X0289629Y0137454D01*
X0289629Y0136572D02*
X0288711Y0136572D01*
X0288251Y0136112D01*
X0288251Y0134735D01*
X0287333Y0134735D02*
X0290088Y0134735D01*
X0290088Y0136112D01*
X0289629Y0136572D01*
X0288251Y0135653D02*
X0287333Y0136572D01*
X0289629Y0140172D02*
X0290088Y0140632D01*
X0290088Y0141550D01*
X0289629Y0142009D01*
X0289170Y0142009D01*
X0288711Y0141550D01*
X0288251Y0142009D01*
X0287792Y0142009D01*
X0288711Y0141550D02*
X0288711Y0141091D01*
X0297575Y0140332D02*
X0299412Y0140332D01*
X0298034Y0141709D01*
X0298034Y0138954D01*
X0300294Y0138954D02*
X0302131Y0138954D01*
X0300294Y0140791D01*
X0300294Y0141250D01*
X0300753Y0141709D01*
X0301672Y0141709D01*
X0302131Y0141250D01*
X0303013Y0141250D02*
X0303013Y0140332D01*
X0303472Y0139873D01*
X0304850Y0139873D01*
X0304850Y0138954D02*
X0304850Y0141709D01*
X0303472Y0141709D01*
X0303013Y0141250D01*
X0303931Y0139873D02*
X0303013Y0138954D01*
X0311939Y0140398D02*
X0311939Y0141316D01*
X0312399Y0141775D01*
X0311939Y0142657D02*
X0311939Y0144494D01*
X0311939Y0145376D02*
X0311939Y0147213D01*
X0311939Y0146295D02*
X0314694Y0146295D01*
X0313776Y0145376D01*
X0314694Y0143576D02*
X0311939Y0143576D01*
X0313776Y0142657D02*
X0314694Y0143576D01*
X0314235Y0141775D02*
X0314694Y0141316D01*
X0314694Y0140398D01*
X0314235Y0139939D01*
X0312399Y0139939D01*
X0311939Y0140398D01*
X0312399Y0135265D02*
X0311939Y0134806D01*
X0311939Y0133888D01*
X0312399Y0133429D01*
X0313317Y0133429D02*
X0313776Y0134347D01*
X0313776Y0134806D01*
X0313317Y0135265D01*
X0312399Y0135265D01*
X0313317Y0133429D02*
X0314694Y0133429D01*
X0314694Y0135265D01*
X0314235Y0132546D02*
X0314694Y0132087D01*
X0314694Y0130710D01*
X0311939Y0130710D01*
X0311939Y0129828D02*
X0311939Y0127991D01*
X0311939Y0128909D02*
X0314694Y0128909D01*
X0313776Y0127991D01*
X0313317Y0127109D02*
X0313317Y0125272D01*
X0313317Y0124390D02*
X0312399Y0124390D01*
X0311939Y0123931D01*
X0311939Y0123012D01*
X0312399Y0122553D01*
X0313317Y0122553D02*
X0313776Y0123472D01*
X0313776Y0123931D01*
X0313317Y0124390D01*
X0314694Y0124390D02*
X0314694Y0122553D01*
X0313317Y0122553D01*
X0311939Y0121671D02*
X0311939Y0119834D01*
X0311939Y0120753D02*
X0314694Y0120753D01*
X0313776Y0119834D01*
X0314235Y0118952D02*
X0312399Y0117116D01*
X0311939Y0117575D01*
X0311939Y0118493D01*
X0312399Y0118952D01*
X0314235Y0118952D01*
X0314694Y0118493D01*
X0314694Y0117575D01*
X0314235Y0117116D01*
X0312399Y0117116D01*
X0312399Y0116233D02*
X0311939Y0115774D01*
X0311939Y0114856D01*
X0312399Y0114397D01*
X0311939Y0113515D02*
X0312858Y0112596D01*
X0312858Y0113055D02*
X0312858Y0111678D01*
X0311939Y0111678D02*
X0314694Y0111678D01*
X0314694Y0113055D01*
X0314235Y0113515D01*
X0313317Y0113515D01*
X0312858Y0113055D01*
X0314235Y0114397D02*
X0314694Y0114856D01*
X0314694Y0115774D01*
X0314235Y0116233D01*
X0313776Y0116233D01*
X0313317Y0115774D01*
X0312858Y0116233D01*
X0312399Y0116233D01*
X0313317Y0115774D02*
X0313317Y0115315D01*
X0311939Y0110796D02*
X0314694Y0110796D01*
X0314694Y0108959D02*
X0311939Y0108959D01*
X0312399Y0107618D02*
X0314694Y0107618D01*
X0314694Y0108077D02*
X0314694Y0107158D01*
X0314694Y0108959D02*
X0311939Y0110796D01*
X0312399Y0107618D02*
X0311939Y0107158D01*
X0311939Y0106699D01*
X0312399Y0106240D01*
X0312399Y0105358D02*
X0314235Y0105358D01*
X0314694Y0104899D01*
X0314694Y0103521D01*
X0311939Y0103521D01*
X0311939Y0104899D01*
X0312399Y0105358D01*
X0323916Y0112380D02*
X0325753Y0112380D01*
X0323916Y0114216D01*
X0323916Y0114675D01*
X0324375Y0115135D01*
X0325294Y0115135D01*
X0325753Y0114675D01*
X0326635Y0112380D02*
X0328472Y0112380D01*
X0328472Y0115135D01*
X0343514Y0110258D02*
X0343514Y0109339D01*
X0343973Y0108880D01*
X0344433Y0108880D01*
X0344892Y0109339D01*
X0344892Y0110258D01*
X0344433Y0110717D01*
X0343973Y0110717D01*
X0343514Y0110258D01*
X0344892Y0110258D02*
X0345351Y0110717D01*
X0345810Y0110717D01*
X0346269Y0110258D01*
X0346269Y0109339D01*
X0345810Y0108880D01*
X0345351Y0108880D01*
X0344892Y0109339D01*
X0343514Y0107998D02*
X0343514Y0106161D01*
X0343514Y0107080D02*
X0346269Y0107080D01*
X0345351Y0106161D01*
X0345810Y0105279D02*
X0346269Y0104820D01*
X0346269Y0103902D01*
X0345810Y0103443D01*
X0343973Y0103443D01*
X0343514Y0103902D01*
X0343514Y0104820D01*
X0343973Y0105279D01*
X0343709Y0131454D02*
X0342462Y0131454D01*
X0343085Y0131454D02*
X0343085Y0135195D01*
X0342462Y0135195D02*
X0343709Y0135195D01*
X0343835Y0135477D02*
X0343835Y0137313D01*
X0344294Y0137772D01*
X0345213Y0137772D01*
X0345672Y0137313D01*
X0345672Y0136854D01*
X0345213Y0136395D01*
X0343835Y0136395D01*
X0343835Y0135477D02*
X0344294Y0135017D01*
X0345213Y0135017D01*
X0345672Y0135477D01*
X0346554Y0135477D02*
X0347013Y0135017D01*
X0347931Y0135017D01*
X0348391Y0135477D01*
X0348391Y0136395D02*
X0347472Y0136854D01*
X0347013Y0136854D01*
X0346554Y0136395D01*
X0346554Y0135477D01*
X0348391Y0136395D02*
X0348391Y0137772D01*
X0346554Y0137772D01*
X0349273Y0137313D02*
X0349273Y0136395D01*
X0349732Y0135936D01*
X0351109Y0135936D01*
X0350191Y0135936D02*
X0349273Y0135017D01*
X0351109Y0135017D02*
X0351109Y0137772D01*
X0349732Y0137772D01*
X0349273Y0137313D01*
X0341292Y0134571D02*
X0341292Y0132078D01*
X0340669Y0131454D01*
X0339422Y0131454D01*
X0338798Y0132078D01*
X0337667Y0133324D02*
X0335173Y0133324D01*
X0335797Y0131454D02*
X0335797Y0135195D01*
X0337667Y0133324D01*
X0338798Y0134571D02*
X0339422Y0135195D01*
X0340669Y0135195D01*
X0341292Y0134571D01*
X0336346Y0136461D02*
X0336346Y0138297D01*
X0335886Y0138757D01*
X0334968Y0138757D01*
X0334509Y0138297D01*
X0333627Y0137379D02*
X0331790Y0137379D01*
X0330908Y0138297D02*
X0330449Y0138757D01*
X0329530Y0138757D01*
X0329071Y0138297D01*
X0329071Y0137838D01*
X0330908Y0136002D01*
X0329071Y0136002D01*
X0332249Y0136002D02*
X0332249Y0138757D01*
X0333627Y0137379D01*
X0334509Y0136461D02*
X0334968Y0136002D01*
X0335886Y0136002D01*
X0336346Y0136461D01*
X0314235Y0132546D02*
X0313317Y0132546D01*
X0312858Y0132087D01*
X0312858Y0130710D01*
X0312858Y0131628D02*
X0311939Y0132546D01*
X0318829Y0183246D02*
X0321584Y0183246D01*
X0321584Y0184623D01*
X0321125Y0185082D01*
X0320207Y0185082D01*
X0319748Y0184623D01*
X0319748Y0183246D01*
X0319748Y0184164D02*
X0318829Y0185082D01*
X0319288Y0185965D02*
X0318829Y0186424D01*
X0318829Y0187342D01*
X0319288Y0187801D01*
X0319748Y0187801D01*
X0320207Y0187342D01*
X0320207Y0186883D01*
X0320207Y0187342D02*
X0320666Y0187801D01*
X0321125Y0187801D01*
X0321584Y0187342D01*
X0321584Y0186424D01*
X0321125Y0185965D01*
X0321125Y0188683D02*
X0321584Y0189143D01*
X0321584Y0190061D01*
X0321125Y0190520D01*
X0320666Y0190520D01*
X0320207Y0190061D01*
X0319748Y0190520D01*
X0319288Y0190520D01*
X0318829Y0190061D01*
X0318829Y0189143D01*
X0319288Y0188683D01*
X0320207Y0189602D02*
X0320207Y0190061D01*
X0312726Y0190295D02*
X0312267Y0190754D01*
X0311808Y0190754D01*
X0311348Y0190295D01*
X0310889Y0190754D01*
X0310430Y0190754D01*
X0309971Y0190295D01*
X0309971Y0189376D01*
X0310430Y0188917D01*
X0309971Y0188035D02*
X0310889Y0187117D01*
X0310889Y0187576D02*
X0310889Y0186198D01*
X0309971Y0186198D02*
X0312726Y0186198D01*
X0312726Y0187576D01*
X0312267Y0188035D01*
X0311348Y0188035D01*
X0310889Y0187576D01*
X0312267Y0188917D02*
X0312726Y0189376D01*
X0312726Y0190295D01*
X0311348Y0190295D02*
X0311348Y0189836D01*
X0311808Y0191636D02*
X0312726Y0192554D01*
X0309971Y0192554D01*
X0309971Y0191636D02*
X0309971Y0193473D01*
X0292057Y0193014D02*
X0292057Y0192095D01*
X0291597Y0191636D01*
X0291597Y0190754D02*
X0291138Y0190754D01*
X0290679Y0190295D01*
X0290220Y0190754D01*
X0289761Y0190754D01*
X0289302Y0190295D01*
X0289302Y0189376D01*
X0289761Y0188917D01*
X0289302Y0188035D02*
X0290220Y0187117D01*
X0290220Y0187576D02*
X0290220Y0186198D01*
X0289302Y0186198D02*
X0292057Y0186198D01*
X0292057Y0187576D01*
X0291597Y0188035D01*
X0290679Y0188035D01*
X0290220Y0187576D01*
X0291597Y0188917D02*
X0292057Y0189376D01*
X0292057Y0190295D01*
X0291597Y0190754D01*
X0290679Y0190295D02*
X0290679Y0189836D01*
X0289302Y0191636D02*
X0291138Y0193473D01*
X0291597Y0193473D01*
X0292057Y0193014D01*
X0289302Y0193473D02*
X0289302Y0191636D01*
X0333593Y0194072D02*
X0336348Y0194072D01*
X0336348Y0195450D01*
X0335889Y0195909D01*
X0334970Y0195909D01*
X0334511Y0195450D01*
X0334511Y0194072D01*
X0334511Y0194991D02*
X0333593Y0195909D01*
X0334052Y0196791D02*
X0333593Y0197250D01*
X0333593Y0198169D01*
X0334052Y0198628D01*
X0334511Y0198628D01*
X0334970Y0198169D01*
X0334970Y0197710D01*
X0334970Y0198169D02*
X0335430Y0198628D01*
X0335889Y0198628D01*
X0336348Y0198169D01*
X0336348Y0197250D01*
X0335889Y0196791D01*
X0334970Y0199510D02*
X0334970Y0201347D01*
X0333593Y0200888D02*
X0336348Y0200888D01*
X0334970Y0199510D01*
X0363120Y0176983D02*
X0363580Y0177442D01*
X0364039Y0177442D01*
X0364498Y0176983D01*
X0364498Y0175605D01*
X0363580Y0175605D01*
X0363120Y0176065D01*
X0363120Y0176983D01*
X0364498Y0175605D02*
X0365416Y0176524D01*
X0365876Y0177442D01*
X0365876Y0173805D02*
X0363120Y0173805D01*
X0363120Y0172887D02*
X0363120Y0174723D01*
X0364957Y0172887D02*
X0365876Y0173805D01*
X0365876Y0172005D02*
X0363120Y0172005D01*
X0365876Y0170168D01*
X0363120Y0170168D01*
X0363120Y0169286D02*
X0365876Y0169286D01*
X0365876Y0167449D02*
X0363120Y0169286D01*
X0363120Y0167449D02*
X0365876Y0167449D01*
X0365416Y0166567D02*
X0365876Y0166108D01*
X0365876Y0165189D01*
X0365416Y0164730D01*
X0363580Y0164730D01*
X0363120Y0165189D01*
X0363120Y0166108D01*
X0363580Y0166567D01*
X0365416Y0166567D01*
X0365416Y0163848D02*
X0365876Y0163389D01*
X0365876Y0162470D01*
X0365416Y0162011D01*
X0363580Y0162011D01*
X0363120Y0162470D01*
X0363120Y0163389D01*
X0363580Y0163848D01*
X0330062Y0240254D02*
X0328225Y0240254D01*
X0327766Y0240713D01*
X0327766Y0241631D01*
X0328225Y0242090D01*
X0327766Y0242972D02*
X0327766Y0244809D01*
X0327766Y0243891D02*
X0330521Y0243891D01*
X0329603Y0242972D01*
X0330062Y0242090D02*
X0330521Y0241631D01*
X0330521Y0240713D01*
X0330062Y0240254D01*
X0330062Y0245691D02*
X0330521Y0246150D01*
X0330521Y0247069D01*
X0330062Y0247528D01*
X0328225Y0245691D01*
X0327766Y0246150D01*
X0327766Y0247069D01*
X0328225Y0247528D01*
X0330062Y0247528D01*
X0330062Y0245691D02*
X0328225Y0245691D01*
X0330281Y0261002D02*
X0331199Y0261002D01*
X0331658Y0261461D01*
X0332540Y0261002D02*
X0334377Y0261002D01*
X0334377Y0263757D01*
X0331658Y0263297D02*
X0331199Y0263757D01*
X0330281Y0263757D01*
X0329822Y0263297D01*
X0329822Y0262838D01*
X0330281Y0262379D01*
X0329822Y0261920D01*
X0329822Y0261461D01*
X0330281Y0261002D01*
X0330281Y0262379D02*
X0330740Y0262379D01*
X0294301Y0254490D02*
X0293842Y0254949D01*
X0292005Y0253112D01*
X0291546Y0253572D01*
X0291546Y0254490D01*
X0292005Y0254949D01*
X0293842Y0254949D01*
X0294301Y0254490D02*
X0294301Y0253572D01*
X0293842Y0253112D01*
X0292005Y0253112D01*
X0291546Y0252230D02*
X0291546Y0250394D01*
X0291546Y0249512D02*
X0292464Y0248593D01*
X0292464Y0249052D02*
X0292464Y0247675D01*
X0291546Y0247675D02*
X0294301Y0247675D01*
X0294301Y0249052D01*
X0293842Y0249512D01*
X0292923Y0249512D01*
X0292464Y0249052D01*
X0293382Y0250394D02*
X0294301Y0251312D01*
X0291546Y0251312D01*
X0291349Y0257517D02*
X0294104Y0257517D01*
X0294104Y0258895D01*
X0293645Y0259354D01*
X0292726Y0259354D01*
X0292267Y0258895D01*
X0292267Y0257517D01*
X0292267Y0258436D02*
X0291349Y0259354D01*
X0291349Y0260236D02*
X0291349Y0262073D01*
X0291349Y0262955D02*
X0291349Y0264792D01*
X0291349Y0263873D02*
X0294104Y0263873D01*
X0293186Y0262955D01*
X0294104Y0261155D02*
X0291349Y0261155D01*
X0293186Y0260236D02*
X0294104Y0261155D01*
X0294104Y0269328D02*
X0294104Y0270706D01*
X0293645Y0271165D01*
X0292726Y0271165D01*
X0292267Y0270706D01*
X0292267Y0269328D01*
X0291349Y0269328D02*
X0294104Y0269328D01*
X0292267Y0270247D02*
X0291349Y0271165D01*
X0291349Y0272047D02*
X0291349Y0273884D01*
X0291349Y0272966D02*
X0294104Y0272966D01*
X0293186Y0272047D01*
X0293186Y0274766D02*
X0293645Y0274766D01*
X0294104Y0275225D01*
X0294104Y0276144D01*
X0293645Y0276603D01*
X0293186Y0276603D01*
X0292726Y0276144D01*
X0292726Y0275225D01*
X0293186Y0274766D01*
X0292726Y0275225D02*
X0292267Y0274766D01*
X0291808Y0274766D01*
X0291349Y0275225D01*
X0291349Y0276144D01*
X0291808Y0276603D01*
X0292267Y0276603D01*
X0292726Y0276144D01*
X0292267Y0279171D02*
X0292267Y0280548D01*
X0292726Y0281008D01*
X0293645Y0281008D01*
X0294104Y0280548D01*
X0294104Y0279171D01*
X0291349Y0279171D01*
X0292267Y0280089D02*
X0291349Y0281008D01*
X0291349Y0281890D02*
X0293186Y0283726D01*
X0293645Y0283726D01*
X0294104Y0283267D01*
X0294104Y0282349D01*
X0293645Y0281890D01*
X0291349Y0281890D02*
X0291349Y0283726D01*
X0291349Y0284609D02*
X0291349Y0286445D01*
X0291349Y0285527D02*
X0294104Y0285527D01*
X0293186Y0284609D01*
X0294104Y0290982D02*
X0294104Y0292359D01*
X0293645Y0292819D01*
X0292726Y0292819D01*
X0292267Y0292359D01*
X0292267Y0290982D01*
X0291349Y0290982D02*
X0294104Y0290982D01*
X0292267Y0291900D02*
X0291349Y0292819D01*
X0291349Y0293701D02*
X0291349Y0295537D01*
X0291349Y0296420D02*
X0293186Y0298256D01*
X0293645Y0298256D01*
X0294104Y0297797D01*
X0294104Y0296879D01*
X0293645Y0296420D01*
X0294104Y0294619D02*
X0291349Y0294619D01*
X0291349Y0296420D02*
X0291349Y0298256D01*
X0291349Y0300824D02*
X0294104Y0300824D01*
X0294104Y0302202D01*
X0293645Y0302661D01*
X0292726Y0302661D01*
X0292267Y0302202D01*
X0292267Y0300824D01*
X0292267Y0301743D02*
X0291349Y0302661D01*
X0291349Y0303543D02*
X0291349Y0305380D01*
X0291349Y0304462D02*
X0294104Y0304462D01*
X0293186Y0303543D01*
X0293645Y0306262D02*
X0294104Y0306721D01*
X0294104Y0307640D01*
X0293645Y0308099D01*
X0293186Y0308099D01*
X0292726Y0307640D01*
X0292267Y0308099D01*
X0291808Y0308099D01*
X0291349Y0307640D01*
X0291349Y0306721D01*
X0291808Y0306262D01*
X0292726Y0307180D02*
X0292726Y0307640D01*
X0292267Y0313620D02*
X0292267Y0314997D01*
X0292726Y0315456D01*
X0293645Y0315456D01*
X0294104Y0314997D01*
X0294104Y0313620D01*
X0291349Y0313620D01*
X0292267Y0314538D02*
X0291349Y0315456D01*
X0291808Y0316339D02*
X0292267Y0316339D01*
X0292726Y0316798D01*
X0292726Y0317716D01*
X0292267Y0318175D01*
X0291808Y0318175D01*
X0291349Y0317716D01*
X0291349Y0316798D01*
X0291808Y0316339D01*
X0292726Y0316798D02*
X0293186Y0316339D01*
X0293645Y0316339D01*
X0294104Y0316798D01*
X0294104Y0317716D01*
X0293645Y0318175D01*
X0293186Y0318175D01*
X0292726Y0317716D01*
X0292267Y0323462D02*
X0292267Y0324840D01*
X0292726Y0325299D01*
X0293645Y0325299D01*
X0294104Y0324840D01*
X0294104Y0323462D01*
X0291349Y0323462D01*
X0292267Y0324381D02*
X0291349Y0325299D01*
X0291808Y0326181D02*
X0291349Y0326640D01*
X0291349Y0327559D01*
X0291808Y0328018D01*
X0293645Y0328018D01*
X0294104Y0327559D01*
X0294104Y0326640D01*
X0293645Y0326181D01*
X0293186Y0326181D01*
X0292726Y0326640D01*
X0292726Y0328018D01*
X0291937Y0353443D02*
X0292856Y0354361D01*
X0292396Y0354361D02*
X0293774Y0354361D01*
X0293774Y0353443D02*
X0293774Y0356198D01*
X0292396Y0356198D01*
X0291937Y0355738D01*
X0291937Y0354820D01*
X0292396Y0354361D01*
X0291055Y0354820D02*
X0289218Y0354820D01*
X0288336Y0354820D02*
X0287418Y0355279D01*
X0286959Y0355279D01*
X0286499Y0354820D01*
X0286499Y0353902D01*
X0286959Y0353443D01*
X0287877Y0353443D01*
X0288336Y0353902D01*
X0288336Y0354820D02*
X0288336Y0356198D01*
X0286499Y0356198D01*
X0283931Y0356198D02*
X0282554Y0356198D01*
X0282095Y0355738D01*
X0282095Y0354820D01*
X0282554Y0354361D01*
X0283931Y0354361D01*
X0283013Y0354361D02*
X0282095Y0353443D01*
X0281213Y0354820D02*
X0279376Y0354820D01*
X0278494Y0354820D02*
X0277116Y0354820D01*
X0276657Y0354361D01*
X0276657Y0353902D01*
X0277116Y0353443D01*
X0278034Y0353443D01*
X0278494Y0353902D01*
X0278494Y0354820D01*
X0277575Y0355738D01*
X0276657Y0356198D01*
X0279835Y0356198D02*
X0281213Y0354820D01*
X0279835Y0353443D02*
X0279835Y0356198D01*
X0283931Y0356198D02*
X0283931Y0353443D01*
X0289677Y0353443D02*
X0289677Y0356198D01*
X0291055Y0354820D01*
X0324656Y0354521D02*
X0327411Y0354521D01*
X0327411Y0355898D01*
X0326952Y0356357D01*
X0326033Y0356357D01*
X0325574Y0355898D01*
X0325574Y0354521D01*
X0325574Y0355439D02*
X0324656Y0356357D01*
X0324656Y0357239D02*
X0325115Y0357239D01*
X0326952Y0359076D01*
X0327411Y0359076D01*
X0327411Y0357239D01*
X0349420Y0356795D02*
X0350338Y0355877D01*
X0350338Y0356336D02*
X0350338Y0354958D01*
X0349420Y0354958D02*
X0352175Y0354958D01*
X0352175Y0356336D01*
X0351716Y0356795D01*
X0350797Y0356795D01*
X0350338Y0356336D01*
X0349879Y0357677D02*
X0349420Y0358136D01*
X0349420Y0359055D01*
X0349879Y0359514D01*
X0350338Y0359514D01*
X0350797Y0359055D01*
X0350797Y0357677D01*
X0349879Y0357677D01*
X0350797Y0357677D02*
X0351716Y0358595D01*
X0352175Y0359514D01*
X0294104Y0294619D02*
X0293186Y0293701D01*
X0264574Y0299925D02*
X0264115Y0299466D01*
X0263196Y0299466D01*
X0262737Y0299925D01*
X0261855Y0299925D02*
X0261396Y0299466D01*
X0260478Y0299466D01*
X0260018Y0299925D01*
X0260018Y0300844D01*
X0260478Y0301303D01*
X0260937Y0301303D01*
X0261855Y0300844D01*
X0261855Y0302221D01*
X0260018Y0302221D01*
X0262737Y0301762D02*
X0263196Y0302221D01*
X0264115Y0302221D01*
X0264574Y0301762D01*
X0264574Y0299925D01*
X0259865Y0305293D02*
X0258947Y0305293D01*
X0258488Y0305752D01*
X0258488Y0308048D01*
X0260324Y0308048D02*
X0260324Y0305752D01*
X0259865Y0305293D01*
X0260018Y0321120D02*
X0261855Y0321120D01*
X0260018Y0322956D01*
X0260018Y0323416D01*
X0260478Y0323875D01*
X0261396Y0323875D01*
X0261855Y0323416D01*
X0262737Y0323416D02*
X0263196Y0323875D01*
X0264115Y0323875D01*
X0264574Y0323416D01*
X0264574Y0321579D01*
X0264115Y0321120D01*
X0263196Y0321120D01*
X0262737Y0321579D01*
X0259642Y0328915D02*
X0257806Y0328915D01*
X0257806Y0331670D01*
X0252888Y0327195D02*
X0252888Y0325358D01*
X0252429Y0324899D01*
X0251511Y0324899D01*
X0251051Y0325358D01*
X0250169Y0325358D02*
X0249710Y0324899D01*
X0248792Y0324899D01*
X0248332Y0325358D01*
X0248332Y0325818D01*
X0248792Y0326277D01*
X0249251Y0326277D01*
X0248792Y0326277D02*
X0248332Y0326736D01*
X0248332Y0327195D01*
X0248792Y0327654D01*
X0249710Y0327654D01*
X0250169Y0327195D01*
X0251051Y0327195D02*
X0251511Y0327654D01*
X0252429Y0327654D01*
X0252888Y0327195D01*
X0247450Y0326277D02*
X0246073Y0326277D01*
X0245614Y0325818D01*
X0245614Y0325358D01*
X0246073Y0324899D01*
X0246991Y0324899D01*
X0247450Y0325358D01*
X0247450Y0326277D01*
X0246532Y0327195D01*
X0245614Y0327654D01*
X0237140Y0327195D02*
X0237140Y0325358D01*
X0236681Y0324899D01*
X0235762Y0324899D01*
X0235303Y0325358D01*
X0234421Y0326277D02*
X0232584Y0326277D01*
X0231702Y0327195D02*
X0231243Y0327654D01*
X0230325Y0327654D01*
X0229866Y0327195D01*
X0231702Y0325358D01*
X0231243Y0324899D01*
X0230325Y0324899D01*
X0229866Y0325358D01*
X0229866Y0327195D01*
X0231702Y0327195D02*
X0231702Y0325358D01*
X0233044Y0324899D02*
X0233044Y0327654D01*
X0234421Y0326277D01*
X0235303Y0327195D02*
X0235762Y0327654D01*
X0236681Y0327654D01*
X0237140Y0327195D01*
X0220933Y0307969D02*
X0220014Y0307969D01*
X0219555Y0307510D01*
X0218673Y0307510D02*
X0218214Y0307969D01*
X0217296Y0307969D01*
X0216836Y0307510D01*
X0216836Y0307051D01*
X0217296Y0306592D01*
X0216836Y0306133D01*
X0216836Y0305673D01*
X0217296Y0305214D01*
X0218214Y0305214D01*
X0218673Y0305673D01*
X0219555Y0305673D02*
X0220014Y0305214D01*
X0220933Y0305214D01*
X0221392Y0305673D01*
X0221392Y0307510D01*
X0220933Y0307969D01*
X0217755Y0306592D02*
X0217296Y0306592D01*
X0215954Y0307051D02*
X0215954Y0307510D01*
X0215495Y0307969D01*
X0214577Y0307969D01*
X0214118Y0307510D01*
X0214118Y0307051D01*
X0214577Y0306592D01*
X0215495Y0306592D01*
X0215954Y0307051D01*
X0215495Y0306592D02*
X0215954Y0306133D01*
X0215954Y0305673D01*
X0215495Y0305214D01*
X0214577Y0305214D01*
X0214118Y0305673D01*
X0214118Y0306133D01*
X0214577Y0306592D01*
X0210723Y0314151D02*
X0210723Y0316906D01*
X0209345Y0316906D01*
X0208886Y0316447D01*
X0208886Y0315529D01*
X0209345Y0315070D01*
X0210723Y0315070D01*
X0209804Y0315070D02*
X0208886Y0314151D01*
X0208004Y0314610D02*
X0207545Y0314151D01*
X0206626Y0314151D01*
X0206167Y0314610D01*
X0206167Y0315529D01*
X0206626Y0315988D01*
X0207085Y0315988D01*
X0208004Y0315529D01*
X0208004Y0316906D01*
X0206167Y0316906D01*
X0205285Y0316906D02*
X0203448Y0316906D01*
X0203448Y0316447D01*
X0205285Y0314610D01*
X0205285Y0314151D01*
X0198754Y0314453D02*
X0198295Y0313994D01*
X0197377Y0313994D01*
X0196917Y0314453D01*
X0196035Y0313994D02*
X0194199Y0313994D01*
X0193317Y0313994D02*
X0191480Y0315830D01*
X0191480Y0316290D01*
X0191939Y0316749D01*
X0192857Y0316749D01*
X0193317Y0316290D01*
X0195117Y0316749D02*
X0195117Y0313994D01*
X0193317Y0313994D02*
X0191480Y0313994D01*
X0195117Y0316749D02*
X0196035Y0315830D01*
X0196917Y0316290D02*
X0197377Y0316749D01*
X0198295Y0316749D01*
X0198754Y0316290D01*
X0198754Y0314453D01*
X0186943Y0314532D02*
X0186484Y0314072D01*
X0185566Y0314072D01*
X0185106Y0314532D01*
X0184224Y0314532D02*
X0183765Y0314072D01*
X0182847Y0314072D01*
X0182388Y0314532D01*
X0182388Y0314991D01*
X0182847Y0315450D01*
X0183306Y0315450D01*
X0182847Y0315450D02*
X0182388Y0315909D01*
X0182388Y0316368D01*
X0182847Y0316828D01*
X0183765Y0316828D01*
X0184224Y0316368D01*
X0185106Y0316368D02*
X0185566Y0316828D01*
X0186484Y0316828D01*
X0186943Y0316368D01*
X0186943Y0314532D01*
X0181505Y0314532D02*
X0181046Y0314072D01*
X0180128Y0314072D01*
X0179669Y0314532D01*
X0179669Y0316368D01*
X0180128Y0316828D01*
X0181046Y0316828D01*
X0181505Y0316368D01*
X0181505Y0315909D01*
X0181046Y0315450D01*
X0179669Y0315450D01*
X0162868Y0310922D02*
X0162868Y0308167D01*
X0162868Y0309085D02*
X0161491Y0309085D01*
X0161032Y0309544D01*
X0161032Y0310463D01*
X0161491Y0310922D01*
X0162868Y0310922D01*
X0161950Y0309085D02*
X0161032Y0308167D01*
X0160150Y0308626D02*
X0159690Y0308167D01*
X0158772Y0308167D01*
X0158313Y0308626D01*
X0158313Y0309085D01*
X0158772Y0309544D01*
X0159231Y0309544D01*
X0158772Y0309544D02*
X0158313Y0310004D01*
X0158313Y0310463D01*
X0158772Y0310922D01*
X0159690Y0310922D01*
X0160150Y0310463D01*
X0157431Y0309544D02*
X0156512Y0310463D01*
X0155594Y0310922D01*
X0156053Y0309544D02*
X0157431Y0309544D01*
X0157431Y0308626D01*
X0156972Y0308167D01*
X0156053Y0308167D01*
X0155594Y0308626D01*
X0155594Y0309085D01*
X0156053Y0309544D01*
X0156440Y0330805D02*
X0155522Y0330805D01*
X0155062Y0331264D01*
X0155062Y0331723D01*
X0155522Y0332182D01*
X0156899Y0332182D01*
X0156899Y0331264D01*
X0156440Y0330805D01*
X0157781Y0330805D02*
X0159618Y0330805D01*
X0158700Y0330805D02*
X0158700Y0333560D01*
X0159618Y0332641D01*
X0160500Y0333101D02*
X0160959Y0333560D01*
X0161878Y0333560D01*
X0162337Y0333101D01*
X0162337Y0331264D01*
X0161878Y0330805D01*
X0160959Y0330805D01*
X0160500Y0331264D01*
X0156899Y0332182D02*
X0155981Y0333101D01*
X0155062Y0333560D01*
X0215102Y0284347D02*
X0215102Y0283888D01*
X0216939Y0282051D01*
X0216939Y0281592D01*
X0217821Y0282051D02*
X0218280Y0281592D01*
X0219198Y0281592D01*
X0219657Y0282051D01*
X0220540Y0282051D02*
X0220999Y0281592D01*
X0221917Y0281592D01*
X0222376Y0282051D01*
X0222376Y0283888D01*
X0221917Y0284347D01*
X0220999Y0284347D01*
X0220540Y0283888D01*
X0219657Y0283888D02*
X0219198Y0284347D01*
X0218280Y0284347D01*
X0217821Y0283888D01*
X0217821Y0283429D01*
X0218280Y0282970D01*
X0217821Y0282510D01*
X0217821Y0282051D01*
X0218280Y0282970D02*
X0218739Y0282970D01*
X0216939Y0284347D02*
X0215102Y0284347D01*
X0257806Y0284558D02*
X0259183Y0284558D01*
X0259642Y0285017D01*
X0259642Y0285935D01*
X0259183Y0286394D01*
X0257806Y0286394D01*
X0257806Y0283639D01*
X0258724Y0284558D02*
X0259642Y0283639D01*
X0260018Y0280568D02*
X0260018Y0280109D01*
X0261855Y0278272D01*
X0261855Y0277813D01*
X0262737Y0278272D02*
X0263196Y0277813D01*
X0264115Y0277813D01*
X0264574Y0278272D01*
X0264574Y0280109D01*
X0264115Y0280568D01*
X0263196Y0280568D01*
X0262737Y0280109D01*
X0261855Y0280568D02*
X0260018Y0280568D01*
X0259183Y0264741D02*
X0257806Y0264741D01*
X0257806Y0261986D01*
X0259183Y0261986D01*
X0259642Y0262445D01*
X0259642Y0264282D01*
X0259183Y0264741D01*
X0260478Y0259702D02*
X0261855Y0258324D01*
X0260018Y0258324D01*
X0260478Y0256946D02*
X0260478Y0259702D01*
X0262737Y0259242D02*
X0263196Y0259702D01*
X0264115Y0259702D01*
X0264574Y0259242D01*
X0264574Y0257406D01*
X0264115Y0256946D01*
X0263196Y0256946D01*
X0262737Y0257406D01*
X0122586Y0423403D02*
X0121668Y0423403D01*
X0121209Y0423862D01*
X0120327Y0423862D02*
X0119868Y0423403D01*
X0118949Y0423403D01*
X0118490Y0423862D01*
X0118490Y0424322D01*
X0118949Y0424781D01*
X0119408Y0424781D01*
X0118949Y0424781D02*
X0118490Y0425240D01*
X0118490Y0425699D01*
X0118949Y0426158D01*
X0119868Y0426158D01*
X0120327Y0425699D01*
X0121209Y0425699D02*
X0121668Y0426158D01*
X0122586Y0426158D01*
X0123046Y0425699D01*
X0123046Y0423862D01*
X0122586Y0423403D01*
X0117608Y0423403D02*
X0115771Y0425240D01*
X0115771Y0425699D01*
X0116230Y0426158D01*
X0117149Y0426158D01*
X0117608Y0425699D01*
X0117608Y0423403D02*
X0115771Y0423403D01*
X0141664Y0433705D02*
X0142123Y0433246D01*
X0143041Y0433246D01*
X0143501Y0433705D01*
X0143501Y0434164D01*
X0143041Y0434623D01*
X0142582Y0434623D01*
X0143041Y0434623D02*
X0143501Y0435082D01*
X0143501Y0435542D01*
X0143041Y0436001D01*
X0142123Y0436001D01*
X0141664Y0435542D01*
X0144383Y0435542D02*
X0144842Y0436001D01*
X0145760Y0436001D01*
X0146219Y0435542D01*
X0146219Y0435082D01*
X0144383Y0433246D01*
X0146219Y0433246D01*
X0147101Y0433246D02*
X0147101Y0436001D01*
X0148479Y0435082D02*
X0147101Y0434164D01*
X0148479Y0433246D01*
X0149367Y0433246D02*
X0149367Y0433705D01*
X0151204Y0435542D01*
X0151204Y0436001D01*
X0149367Y0436001D01*
X0152086Y0434623D02*
X0153464Y0434623D01*
X0153923Y0434164D01*
X0153923Y0433705D01*
X0153464Y0433246D01*
X0152545Y0433246D01*
X0152086Y0433705D01*
X0152086Y0434623D01*
X0153004Y0435542D01*
X0153923Y0436001D01*
X0154805Y0435542D02*
X0154805Y0435082D01*
X0155264Y0434623D01*
X0156182Y0434623D01*
X0156642Y0434164D01*
X0156642Y0433705D01*
X0156182Y0433246D01*
X0155264Y0433246D01*
X0154805Y0433705D01*
X0154805Y0434164D01*
X0155264Y0434623D01*
X0156182Y0434623D02*
X0156642Y0435082D01*
X0156642Y0435542D01*
X0156182Y0436001D01*
X0155264Y0436001D01*
X0154805Y0435542D01*
X0108983Y0461789D02*
X0108983Y0464544D01*
X0107606Y0464544D01*
X0107147Y0464085D01*
X0107147Y0463167D01*
X0107606Y0462707D01*
X0108983Y0462707D01*
X0108065Y0462707D02*
X0107147Y0461789D01*
X0106265Y0462248D02*
X0105805Y0461789D01*
X0104887Y0461789D01*
X0104428Y0462248D01*
X0104428Y0463167D01*
X0104887Y0463626D01*
X0105346Y0463626D01*
X0106265Y0463167D01*
X0106265Y0464544D01*
X0104428Y0464544D01*
X0103546Y0464544D02*
X0103546Y0463167D01*
X0102627Y0463626D01*
X0102168Y0463626D01*
X0101709Y0463167D01*
X0101709Y0462248D01*
X0102168Y0461789D01*
X0103087Y0461789D01*
X0103546Y0462248D01*
X0103546Y0464544D02*
X0101709Y0464544D01*
X0096191Y0520844D02*
X0093435Y0520844D01*
X0094354Y0520844D02*
X0094354Y0522222D01*
X0094813Y0522681D01*
X0095731Y0522681D01*
X0096191Y0522222D01*
X0096191Y0520844D01*
X0094354Y0521762D02*
X0093435Y0522681D01*
X0093895Y0523563D02*
X0093435Y0524022D01*
X0093435Y0524940D01*
X0093895Y0525400D01*
X0094354Y0525400D01*
X0094813Y0524940D01*
X0094813Y0524481D01*
X0094813Y0524940D02*
X0095272Y0525400D01*
X0095731Y0525400D01*
X0096191Y0524940D01*
X0096191Y0524022D01*
X0095731Y0523563D01*
X0096191Y0526282D02*
X0096191Y0528119D01*
X0095731Y0528119D01*
X0093895Y0526282D01*
X0093435Y0526282D01*
X0093435Y0537576D02*
X0096191Y0537576D01*
X0096191Y0538954D01*
X0095731Y0539413D01*
X0094813Y0539413D01*
X0094354Y0538954D01*
X0094354Y0537576D01*
X0094354Y0538495D02*
X0093435Y0539413D01*
X0093895Y0540295D02*
X0093435Y0540754D01*
X0093435Y0541673D01*
X0093895Y0542132D01*
X0094354Y0542132D01*
X0094813Y0541673D01*
X0094813Y0541214D01*
X0094813Y0541673D02*
X0095272Y0542132D01*
X0095731Y0542132D01*
X0096191Y0541673D01*
X0096191Y0540754D01*
X0095731Y0540295D01*
X0095731Y0543014D02*
X0095272Y0543014D01*
X0094813Y0543473D01*
X0094813Y0544392D01*
X0094354Y0544851D01*
X0093895Y0544851D01*
X0093435Y0544392D01*
X0093435Y0543473D01*
X0093895Y0543014D01*
X0094354Y0543014D01*
X0094813Y0543473D01*
X0094813Y0544392D02*
X0095272Y0544851D01*
X0095731Y0544851D01*
X0096191Y0544392D01*
X0096191Y0543473D01*
X0095731Y0543014D01*
X0116473Y0540529D02*
X0118310Y0540529D01*
X0119192Y0540529D02*
X0121028Y0540529D01*
X0119192Y0542366D01*
X0119192Y0542825D01*
X0119651Y0543284D01*
X0120569Y0543284D01*
X0121028Y0542825D01*
X0121911Y0542825D02*
X0122370Y0543284D01*
X0123288Y0543284D01*
X0123747Y0542825D01*
X0123747Y0540988D01*
X0123288Y0540529D01*
X0122370Y0540529D01*
X0121911Y0540988D01*
X0118310Y0542366D02*
X0117391Y0543284D01*
X0117391Y0540529D01*
X0131237Y0532983D02*
X0133073Y0531146D01*
X0132614Y0530687D01*
X0131696Y0530687D01*
X0131237Y0531146D01*
X0131237Y0532983D01*
X0131696Y0533442D01*
X0132614Y0533442D01*
X0133073Y0532983D01*
X0133073Y0531146D01*
X0133955Y0532064D02*
X0135792Y0532064D01*
X0134415Y0533442D01*
X0134415Y0530687D01*
X0136674Y0530687D02*
X0137593Y0531605D01*
X0137133Y0531605D02*
X0138511Y0531605D01*
X0138511Y0530687D02*
X0138511Y0533442D01*
X0137133Y0533442D01*
X0136674Y0532983D01*
X0136674Y0532064D01*
X0137133Y0531605D01*
X0137133Y0521631D02*
X0136674Y0521172D01*
X0136674Y0520253D01*
X0137133Y0519794D01*
X0138511Y0519794D01*
X0137593Y0519794D02*
X0136674Y0518876D01*
X0135792Y0519335D02*
X0135333Y0518876D01*
X0134415Y0518876D01*
X0133955Y0519335D01*
X0133955Y0519794D01*
X0134415Y0520253D01*
X0134874Y0520253D01*
X0134415Y0520253D02*
X0133955Y0520712D01*
X0133955Y0521172D01*
X0134415Y0521631D01*
X0135333Y0521631D01*
X0135792Y0521172D01*
X0137133Y0521631D02*
X0138511Y0521631D01*
X0138511Y0518876D01*
X0133073Y0519335D02*
X0132614Y0518876D01*
X0131696Y0518876D01*
X0131237Y0519335D01*
X0131237Y0521172D01*
X0131696Y0521631D01*
X0132614Y0521631D01*
X0133073Y0521172D01*
X0133073Y0520712D01*
X0132614Y0520253D01*
X0131237Y0520253D01*
X0147195Y0625096D02*
X0146736Y0625555D01*
X0146736Y0627392D01*
X0148572Y0625555D01*
X0148113Y0625096D01*
X0147195Y0625096D01*
X0148572Y0625555D02*
X0148572Y0627392D01*
X0148113Y0627851D01*
X0147195Y0627851D01*
X0146736Y0627392D01*
X0149455Y0627851D02*
X0151291Y0627851D01*
X0151291Y0626474D01*
X0150373Y0626933D01*
X0149914Y0626933D01*
X0149455Y0626474D01*
X0149455Y0625555D01*
X0149914Y0625096D01*
X0150832Y0625096D01*
X0151291Y0625555D01*
X0152173Y0625096D02*
X0153092Y0626014D01*
X0152633Y0626014D02*
X0154010Y0626014D01*
X0154010Y0625096D02*
X0154010Y0627851D01*
X0152633Y0627851D01*
X0152173Y0627392D01*
X0152173Y0626474D01*
X0152633Y0626014D01*
X0189971Y0629565D02*
X0192726Y0629565D01*
X0192726Y0630942D01*
X0192267Y0631401D01*
X0191348Y0631401D01*
X0190889Y0630942D01*
X0190889Y0629565D01*
X0190889Y0630483D02*
X0189971Y0631401D01*
X0191348Y0632283D02*
X0191348Y0634120D01*
X0191808Y0635002D02*
X0192726Y0635921D01*
X0189971Y0635921D01*
X0189971Y0636839D02*
X0189971Y0635002D01*
X0189971Y0633661D02*
X0192726Y0633661D01*
X0191348Y0632283D01*
X0253940Y0522928D02*
X0254674Y0522928D01*
X0255041Y0522561D01*
X0255783Y0522561D02*
X0256150Y0522928D01*
X0256884Y0522928D01*
X0257251Y0522561D01*
X0255783Y0522561D02*
X0255783Y0522194D01*
X0257251Y0520726D01*
X0255783Y0520726D01*
X0255041Y0520726D02*
X0253573Y0522194D01*
X0253573Y0522561D01*
X0253940Y0522928D01*
X0253573Y0520726D02*
X0255041Y0520726D01*
X0247042Y0509188D02*
X0247409Y0508821D01*
X0247042Y0509188D02*
X0246308Y0509188D01*
X0245941Y0508821D01*
X0245941Y0508454D01*
X0247409Y0506986D01*
X0245941Y0506986D01*
X0245199Y0506986D02*
X0243731Y0506986D01*
X0244465Y0506986D02*
X0244465Y0509188D01*
X0245199Y0508454D01*
X0245029Y0461983D02*
X0244295Y0461983D01*
X0243928Y0461616D01*
X0243928Y0461249D01*
X0244295Y0460882D01*
X0243928Y0460515D01*
X0243928Y0460148D01*
X0244295Y0459781D01*
X0245029Y0459781D01*
X0245396Y0460148D01*
X0246138Y0459781D02*
X0247606Y0459781D01*
X0246872Y0459781D02*
X0246872Y0461983D01*
X0247606Y0461249D01*
X0245396Y0461616D02*
X0245029Y0461983D01*
X0244662Y0460882D02*
X0244295Y0460882D01*
X0253744Y0449030D02*
X0254477Y0449030D01*
X0254844Y0448663D01*
X0253744Y0449030D02*
X0253377Y0448663D01*
X0253377Y0448296D01*
X0254844Y0446828D01*
X0253377Y0446828D01*
X0255586Y0446828D02*
X0257054Y0446828D01*
X0256320Y0446828D02*
X0256320Y0449030D01*
X0257054Y0448296D01*
X0316610Y0447261D02*
X0318078Y0447261D01*
X0317344Y0447261D02*
X0317344Y0449463D01*
X0318078Y0448729D01*
X0326014Y0459781D02*
X0327482Y0459781D01*
X0326014Y0461249D01*
X0326014Y0461616D01*
X0326381Y0461983D01*
X0327115Y0461983D01*
X0327482Y0461616D01*
X0328224Y0460882D02*
X0329692Y0460882D01*
X0328591Y0461983D01*
X0328591Y0459781D01*
X0345443Y0490943D02*
X0348198Y0490943D01*
X0348198Y0492320D01*
X0347739Y0492779D01*
X0346821Y0492779D01*
X0346362Y0492320D01*
X0346362Y0490943D01*
X0346362Y0491861D02*
X0345443Y0492779D01*
X0345902Y0493661D02*
X0345443Y0494121D01*
X0345443Y0495039D01*
X0345902Y0495498D01*
X0346821Y0495498D01*
X0347280Y0495039D01*
X0347280Y0494580D01*
X0346821Y0493661D01*
X0348198Y0493661D01*
X0348198Y0495498D01*
X0347280Y0496380D02*
X0348198Y0497299D01*
X0345443Y0497299D01*
X0345443Y0498217D02*
X0345443Y0496380D01*
X0345981Y0505844D02*
X0345522Y0506303D01*
X0345522Y0507222D01*
X0345981Y0507681D01*
X0345522Y0508563D02*
X0347359Y0510400D01*
X0347818Y0510400D01*
X0348277Y0509940D01*
X0348277Y0509022D01*
X0347818Y0508563D01*
X0347818Y0507681D02*
X0348277Y0507222D01*
X0348277Y0506303D01*
X0347818Y0505844D01*
X0345981Y0505844D01*
X0345522Y0508563D02*
X0345522Y0510400D01*
X0345981Y0511282D02*
X0345522Y0511741D01*
X0345522Y0512659D01*
X0345981Y0513119D01*
X0346440Y0513119D01*
X0346900Y0512659D01*
X0346900Y0511282D01*
X0345981Y0511282D01*
X0346900Y0511282D02*
X0347818Y0512200D01*
X0348277Y0513119D01*
X0342534Y0522813D02*
X0342534Y0525568D01*
X0341156Y0525568D01*
X0340697Y0525109D01*
X0340697Y0524190D01*
X0341156Y0523731D01*
X0342534Y0523731D01*
X0341615Y0523731D02*
X0340697Y0522813D01*
X0339815Y0523272D02*
X0339356Y0522813D01*
X0338437Y0522813D01*
X0337978Y0523272D01*
X0337978Y0524190D01*
X0338437Y0524649D01*
X0338897Y0524649D01*
X0339815Y0524190D01*
X0339815Y0525568D01*
X0337978Y0525568D01*
X0337096Y0525109D02*
X0336637Y0525568D01*
X0335718Y0525568D01*
X0335259Y0525109D01*
X0335259Y0524649D01*
X0337096Y0522813D01*
X0335259Y0522813D01*
X0327750Y0509070D02*
X0327016Y0509070D01*
X0326649Y0508703D01*
X0326649Y0508336D01*
X0327016Y0507969D01*
X0326649Y0507602D01*
X0326649Y0507235D01*
X0327016Y0506868D01*
X0327750Y0506868D01*
X0328117Y0507235D01*
X0327383Y0507969D02*
X0327016Y0507969D01*
X0325907Y0507969D02*
X0324440Y0507969D01*
X0324807Y0509070D02*
X0325907Y0507969D01*
X0324807Y0506868D02*
X0324807Y0509070D01*
X0327750Y0509070D02*
X0328117Y0508703D01*
X0317908Y0520687D02*
X0318275Y0521054D01*
X0317908Y0520687D02*
X0317174Y0520687D01*
X0316807Y0521054D01*
X0316807Y0521421D01*
X0317174Y0521788D01*
X0317541Y0521788D01*
X0317174Y0521788D02*
X0316807Y0522155D01*
X0316807Y0522522D01*
X0317174Y0522888D01*
X0317908Y0522888D01*
X0318275Y0522522D01*
X0316065Y0522522D02*
X0315698Y0522888D01*
X0314964Y0522888D01*
X0314597Y0522522D01*
X0314597Y0522155D01*
X0314964Y0521788D01*
X0314597Y0521421D01*
X0314597Y0521054D01*
X0314964Y0520687D01*
X0315698Y0520687D01*
X0316065Y0521054D01*
X0315331Y0521788D02*
X0314964Y0521788D01*
X0318304Y0529420D02*
X0317845Y0529879D01*
X0317845Y0530797D01*
X0318304Y0531257D01*
X0317845Y0532139D02*
X0319682Y0533975D01*
X0320141Y0533975D01*
X0320600Y0533516D01*
X0320600Y0532598D01*
X0320141Y0532139D01*
X0320141Y0531257D02*
X0320600Y0530797D01*
X0320600Y0529879D01*
X0320141Y0529420D01*
X0318304Y0529420D01*
X0317845Y0532139D02*
X0317845Y0533975D01*
X0317845Y0534858D02*
X0318304Y0534858D01*
X0320141Y0536694D01*
X0320600Y0536694D01*
X0320600Y0534858D01*
X0350023Y0531014D02*
X0350023Y0530555D01*
X0350482Y0530096D01*
X0351401Y0530096D01*
X0351860Y0530555D01*
X0351860Y0531014D01*
X0351401Y0531473D01*
X0350482Y0531473D01*
X0350023Y0531014D01*
X0350482Y0530096D02*
X0350023Y0529636D01*
X0350023Y0529177D01*
X0350482Y0528718D01*
X0351401Y0528718D01*
X0351860Y0529177D01*
X0351860Y0529636D01*
X0351401Y0530096D01*
X0352742Y0530555D02*
X0352742Y0531014D01*
X0353201Y0531473D01*
X0354119Y0531473D01*
X0354579Y0531014D01*
X0355461Y0531014D02*
X0355920Y0531473D01*
X0356838Y0531473D01*
X0357298Y0531014D01*
X0357298Y0529177D01*
X0356838Y0528718D01*
X0355920Y0528718D01*
X0355461Y0529177D01*
X0354579Y0528718D02*
X0352742Y0530555D01*
X0352742Y0528718D02*
X0354579Y0528718D01*
X0097776Y0261867D02*
X0098235Y0261408D01*
X0098235Y0259571D01*
X0097776Y0259112D01*
X0096858Y0259112D01*
X0096399Y0259571D01*
X0095517Y0259112D02*
X0093680Y0259112D01*
X0094598Y0259112D02*
X0094598Y0261867D01*
X0095517Y0260949D01*
X0096399Y0261408D02*
X0096858Y0261867D01*
X0097776Y0261867D01*
X0092798Y0261867D02*
X0092798Y0260489D01*
X0091879Y0260949D01*
X0091420Y0260949D01*
X0090961Y0260489D01*
X0090961Y0259571D01*
X0091420Y0259112D01*
X0092339Y0259112D01*
X0092798Y0259571D01*
X0092798Y0261867D02*
X0090961Y0261867D01*
D15*
X0100225Y0437083D02*
X0112036Y0437083D01*
X0112036Y0446925D01*
X0110068Y0448894D01*
X0100225Y0448894D01*
X0100225Y0437083D01*
X0122863Y0438067D02*
X0122863Y0453815D01*
X0158296Y0453815D01*
X0158296Y0438067D01*
X0122863Y0438067D01*
X0140422Y0455547D02*
X0140422Y0519130D01*
X0158335Y0519130D01*
X0227824Y0519130D01*
X0227824Y0455547D01*
X0158335Y0455547D01*
X0140422Y0455547D01*
X0158335Y0455547D02*
X0158335Y0519130D01*
X0111209Y0520902D02*
X0111209Y0533500D01*
X0108454Y0536256D01*
X0097430Y0536256D01*
X0097430Y0520902D01*
X0111209Y0520902D01*
X0125422Y0609327D02*
X0138020Y0609327D01*
X0138020Y0652634D01*
X0125422Y0652634D01*
X0125422Y0609327D01*
X0125422Y0623106D02*
X0125422Y0638854D01*
X0123847Y0638854D01*
X0123847Y0623106D01*
X0125422Y0623106D01*
X0125422Y0623432D02*
X0123847Y0623432D01*
X0123847Y0623930D02*
X0125422Y0623930D01*
X0125422Y0624429D02*
X0123847Y0624429D01*
X0123847Y0624927D02*
X0125422Y0624927D01*
X0125422Y0625426D02*
X0123847Y0625426D01*
X0123847Y0625925D02*
X0125422Y0625925D01*
X0125422Y0626423D02*
X0123847Y0626423D01*
X0123847Y0626922D02*
X0125422Y0626922D01*
X0125422Y0627420D02*
X0123847Y0627420D01*
X0123847Y0627919D02*
X0125422Y0627919D01*
X0125422Y0628417D02*
X0123847Y0628417D01*
X0123847Y0628916D02*
X0125422Y0628916D01*
X0125422Y0629414D02*
X0123847Y0629414D01*
X0123847Y0629913D02*
X0125422Y0629913D01*
X0125422Y0630411D02*
X0123847Y0630411D01*
X0123847Y0630910D02*
X0125422Y0630910D01*
X0125422Y0631408D02*
X0123847Y0631408D01*
X0123847Y0631907D02*
X0125422Y0631907D01*
X0125422Y0632405D02*
X0123847Y0632405D01*
X0123847Y0632904D02*
X0125422Y0632904D01*
X0125422Y0633402D02*
X0123847Y0633402D01*
X0123847Y0633901D02*
X0125422Y0633901D01*
X0125422Y0634399D02*
X0123847Y0634399D01*
X0123847Y0634898D02*
X0125422Y0634898D01*
X0125422Y0635396D02*
X0123847Y0635396D01*
X0123847Y0635895D02*
X0125422Y0635895D01*
X0125422Y0636393D02*
X0123847Y0636393D01*
X0123847Y0636892D02*
X0125422Y0636892D01*
X0125422Y0637390D02*
X0123847Y0637390D01*
X0123847Y0637889D02*
X0125422Y0637889D01*
X0125422Y0638387D02*
X0123847Y0638387D01*
X0250186Y0517988D02*
X0250186Y0505587D01*
X0239556Y0505587D01*
X0239556Y0464642D01*
X0250186Y0464642D01*
X0250186Y0452240D01*
X0259635Y0452240D01*
X0259635Y0441807D01*
X0313769Y0441807D01*
X0313769Y0452240D01*
X0323414Y0452240D01*
X0323414Y0464642D01*
X0334044Y0464642D01*
X0334044Y0505587D01*
X0323414Y0505587D01*
X0323414Y0517988D01*
X0313769Y0517988D01*
X0313769Y0528421D01*
X0259635Y0528421D01*
X0259635Y0517988D01*
X0250186Y0517988D01*
X0255304Y0469366D02*
X0278926Y0469366D01*
X0278926Y0457555D01*
X0255304Y0457555D01*
X0255304Y0469366D01*
X0335304Y0541846D02*
X0335304Y0553657D01*
X0347115Y0553657D01*
X0347115Y0541846D01*
X0335304Y0541846D01*
X0340383Y0274681D02*
X0324635Y0274681D01*
X0320698Y0270744D01*
X0320698Y0254996D01*
X0324635Y0251059D01*
X0340383Y0251059D01*
X0344320Y0254996D01*
X0344320Y0270744D01*
X0340383Y0274681D01*
X0339595Y0181768D02*
X0339595Y0177437D01*
X0356524Y0177437D01*
X0356524Y0181768D01*
X0356918Y0181768D01*
X0349438Y0162870D02*
X0347076Y0162870D01*
X0347076Y0151453D01*
X0349438Y0151453D02*
X0349438Y0162870D01*
X0332509Y0134917D02*
X0332509Y0111295D01*
X0316761Y0111295D01*
X0316761Y0134917D01*
X0332509Y0134917D01*
D16*
X0334483Y0129006D02*
X0334483Y0117206D01*
X0346283Y0117206D01*
X0346283Y0129006D01*
X0334483Y0129006D01*
X0336383Y0129006D01*
X0334483Y0122206D02*
X0339483Y0117206D01*
X0336383Y0117206D02*
X0334483Y0117206D01*
X0344383Y0117206D02*
X0346283Y0117206D01*
X0348883Y0118406D02*
X0349883Y0118406D01*
X0349883Y0119906D01*
X0348883Y0119906D01*
X0348883Y0118406D01*
X0346283Y0129006D02*
X0344383Y0129006D01*
X0308813Y0162550D02*
X0306813Y0162550D01*
X0308813Y0162550D02*
X0308813Y0164550D01*
X0311013Y0165650D02*
X0312013Y0165650D01*
X0312013Y0167150D01*
X0311013Y0167150D01*
X0308813Y0176150D02*
X0308813Y0178150D01*
X0306813Y0178150D01*
X0295213Y0178150D02*
X0293213Y0178150D01*
X0293213Y0176150D01*
X0291013Y0175050D02*
X0290013Y0175050D01*
X0290013Y0173550D01*
X0291013Y0173550D01*
X0293213Y0164550D02*
X0293213Y0162550D01*
X0295213Y0162550D01*
X0276835Y0166004D02*
X0276835Y0167004D01*
X0276335Y0167504D01*
X0276335Y0176504D01*
X0276835Y0177004D01*
X0276835Y0178004D01*
X0276833Y0178064D01*
X0276828Y0178125D01*
X0276819Y0178184D01*
X0276806Y0178243D01*
X0276790Y0178302D01*
X0276770Y0178359D01*
X0276747Y0178414D01*
X0276720Y0178469D01*
X0276691Y0178521D01*
X0276658Y0178572D01*
X0276622Y0178621D01*
X0276584Y0178667D01*
X0276542Y0178711D01*
X0276498Y0178753D01*
X0276452Y0178791D01*
X0276403Y0178827D01*
X0276352Y0178860D01*
X0276300Y0178889D01*
X0276245Y0178916D01*
X0276190Y0178939D01*
X0276133Y0178959D01*
X0276074Y0178975D01*
X0276015Y0178988D01*
X0275956Y0178997D01*
X0275895Y0179002D01*
X0275835Y0179004D01*
X0270835Y0179004D02*
X0270775Y0179002D01*
X0270714Y0178997D01*
X0270655Y0178988D01*
X0270596Y0178975D01*
X0270537Y0178959D01*
X0270480Y0178939D01*
X0270425Y0178916D01*
X0270370Y0178889D01*
X0270318Y0178860D01*
X0270267Y0178827D01*
X0270218Y0178791D01*
X0270172Y0178753D01*
X0270128Y0178711D01*
X0270086Y0178667D01*
X0270048Y0178621D01*
X0270012Y0178572D01*
X0269979Y0178521D01*
X0269950Y0178469D01*
X0269923Y0178414D01*
X0269900Y0178359D01*
X0269880Y0178302D01*
X0269864Y0178243D01*
X0269851Y0178184D01*
X0269842Y0178125D01*
X0269837Y0178064D01*
X0269835Y0178004D01*
X0269835Y0177004D01*
X0270335Y0176504D01*
X0270335Y0167504D01*
X0269835Y0167004D01*
X0269835Y0166004D01*
X0269837Y0165944D01*
X0269842Y0165883D01*
X0269851Y0165824D01*
X0269864Y0165765D01*
X0269880Y0165706D01*
X0269900Y0165649D01*
X0269923Y0165594D01*
X0269950Y0165539D01*
X0269979Y0165487D01*
X0270012Y0165436D01*
X0270048Y0165387D01*
X0270086Y0165341D01*
X0270128Y0165297D01*
X0270172Y0165255D01*
X0270218Y0165217D01*
X0270267Y0165181D01*
X0270318Y0165148D01*
X0270370Y0165119D01*
X0270425Y0165092D01*
X0270480Y0165069D01*
X0270537Y0165049D01*
X0270596Y0165033D01*
X0270655Y0165020D01*
X0270714Y0165011D01*
X0270775Y0165006D01*
X0270835Y0165004D01*
X0275835Y0165004D02*
X0275895Y0165006D01*
X0275956Y0165011D01*
X0276015Y0165020D01*
X0276074Y0165033D01*
X0276133Y0165049D01*
X0276190Y0165069D01*
X0276245Y0165092D01*
X0276300Y0165119D01*
X0276352Y0165148D01*
X0276403Y0165181D01*
X0276452Y0165217D01*
X0276498Y0165255D01*
X0276542Y0165297D01*
X0276584Y0165341D01*
X0276622Y0165387D01*
X0276658Y0165436D01*
X0276691Y0165487D01*
X0276720Y0165539D01*
X0276747Y0165594D01*
X0276770Y0165649D01*
X0276790Y0165706D01*
X0276806Y0165765D01*
X0276819Y0165824D01*
X0276828Y0165883D01*
X0276833Y0165944D01*
X0276835Y0166004D01*
X0179123Y0627949D02*
X0159123Y0627949D01*
X0159123Y0637949D01*
X0179123Y0637949D01*
X0179123Y0627949D01*
X0179123Y0640744D02*
X0159123Y0640744D01*
X0159123Y0650744D01*
X0179123Y0650744D01*
X0179123Y0640744D01*
X0118099Y0641728D02*
X0098099Y0641728D01*
X0098099Y0651728D01*
X0118099Y0651728D01*
X0118099Y0641728D01*
X0118099Y0637949D02*
X0118099Y0627949D01*
X0098099Y0627949D01*
X0098099Y0637949D01*
X0118099Y0637949D01*
D17*
X0117099Y0632949D03*
X0117099Y0646728D03*
X0178123Y0645744D03*
X0178123Y0632949D03*
D18*
X0344168Y0180923D02*
X0347437Y0180923D01*
X0351707Y0181710D02*
X0354976Y0181710D01*
X0353342Y0183345D02*
X0353342Y0180075D01*
D19*
X0346254Y0327833D02*
X0330574Y0327833D01*
X0330574Y0347513D01*
X0346254Y0347513D01*
X0346254Y0327833D01*
X0340414Y0327833D02*
X0340412Y0327921D01*
X0340406Y0328010D01*
X0340396Y0328098D01*
X0340383Y0328185D01*
X0340365Y0328272D01*
X0340344Y0328358D01*
X0340319Y0328443D01*
X0340290Y0328526D01*
X0340257Y0328609D01*
X0340221Y0328689D01*
X0340182Y0328768D01*
X0340139Y0328846D01*
X0340092Y0328921D01*
X0340042Y0328994D01*
X0339989Y0329065D01*
X0339933Y0329134D01*
X0339874Y0329200D01*
X0339812Y0329263D01*
X0339748Y0329323D01*
X0339681Y0329381D01*
X0339611Y0329435D01*
X0339539Y0329487D01*
X0339465Y0329535D01*
X0339388Y0329580D01*
X0339310Y0329621D01*
X0339230Y0329659D01*
X0339149Y0329693D01*
X0339066Y0329724D01*
X0338981Y0329751D01*
X0338896Y0329774D01*
X0338810Y0329793D01*
X0338722Y0329809D01*
X0338635Y0329821D01*
X0338547Y0329829D01*
X0338458Y0329833D01*
X0338370Y0329833D01*
X0338281Y0329829D01*
X0338193Y0329821D01*
X0338106Y0329809D01*
X0338018Y0329793D01*
X0337932Y0329774D01*
X0337847Y0329751D01*
X0337762Y0329724D01*
X0337679Y0329693D01*
X0337598Y0329659D01*
X0337518Y0329621D01*
X0337440Y0329580D01*
X0337363Y0329535D01*
X0337289Y0329487D01*
X0337217Y0329435D01*
X0337147Y0329381D01*
X0337080Y0329323D01*
X0337016Y0329263D01*
X0336954Y0329200D01*
X0336895Y0329134D01*
X0336839Y0329065D01*
X0336786Y0328994D01*
X0336736Y0328921D01*
X0336689Y0328846D01*
X0336646Y0328768D01*
X0336607Y0328689D01*
X0336571Y0328609D01*
X0336538Y0328526D01*
X0336509Y0328443D01*
X0336484Y0328358D01*
X0336463Y0328272D01*
X0336445Y0328185D01*
X0336432Y0328098D01*
X0336422Y0328010D01*
X0336416Y0327921D01*
X0336414Y0327833D01*
D20*
X0115973Y0327831D02*
X0115975Y0327919D01*
X0115981Y0328007D01*
X0115991Y0328095D01*
X0116005Y0328183D01*
X0116022Y0328269D01*
X0116044Y0328355D01*
X0116069Y0328439D01*
X0116099Y0328523D01*
X0116131Y0328605D01*
X0116168Y0328685D01*
X0116208Y0328764D01*
X0116252Y0328841D01*
X0116299Y0328916D01*
X0116349Y0328988D01*
X0116403Y0329059D01*
X0116459Y0329126D01*
X0116519Y0329192D01*
X0116581Y0329254D01*
X0116647Y0329314D01*
X0116714Y0329370D01*
X0116785Y0329424D01*
X0116857Y0329474D01*
X0116932Y0329521D01*
X0117009Y0329565D01*
X0117088Y0329605D01*
X0117168Y0329642D01*
X0117250Y0329674D01*
X0117334Y0329704D01*
X0117418Y0329729D01*
X0117504Y0329751D01*
X0117590Y0329768D01*
X0117678Y0329782D01*
X0117766Y0329792D01*
X0117854Y0329798D01*
X0117942Y0329800D01*
X0118030Y0329798D01*
X0118118Y0329792D01*
X0118206Y0329782D01*
X0118294Y0329768D01*
X0118380Y0329751D01*
X0118466Y0329729D01*
X0118550Y0329704D01*
X0118634Y0329674D01*
X0118716Y0329642D01*
X0118796Y0329605D01*
X0118875Y0329565D01*
X0118952Y0329521D01*
X0119027Y0329474D01*
X0119099Y0329424D01*
X0119170Y0329370D01*
X0119237Y0329314D01*
X0119303Y0329254D01*
X0119365Y0329192D01*
X0119425Y0329126D01*
X0119481Y0329059D01*
X0119535Y0328988D01*
X0119585Y0328916D01*
X0119632Y0328841D01*
X0119676Y0328764D01*
X0119716Y0328685D01*
X0119753Y0328605D01*
X0119785Y0328523D01*
X0119815Y0328439D01*
X0119840Y0328355D01*
X0119862Y0328269D01*
X0119879Y0328183D01*
X0119893Y0328095D01*
X0119903Y0328007D01*
X0119909Y0327919D01*
X0119911Y0327831D01*
X0119909Y0327743D01*
X0119903Y0327655D01*
X0119893Y0327567D01*
X0119879Y0327479D01*
X0119862Y0327393D01*
X0119840Y0327307D01*
X0119815Y0327223D01*
X0119785Y0327139D01*
X0119753Y0327057D01*
X0119716Y0326977D01*
X0119676Y0326898D01*
X0119632Y0326821D01*
X0119585Y0326746D01*
X0119535Y0326674D01*
X0119481Y0326603D01*
X0119425Y0326536D01*
X0119365Y0326470D01*
X0119303Y0326408D01*
X0119237Y0326348D01*
X0119170Y0326292D01*
X0119099Y0326238D01*
X0119027Y0326188D01*
X0118952Y0326141D01*
X0118875Y0326097D01*
X0118796Y0326057D01*
X0118716Y0326020D01*
X0118634Y0325988D01*
X0118550Y0325958D01*
X0118466Y0325933D01*
X0118380Y0325911D01*
X0118294Y0325894D01*
X0118206Y0325880D01*
X0118118Y0325870D01*
X0118030Y0325864D01*
X0117942Y0325862D01*
X0117854Y0325864D01*
X0117766Y0325870D01*
X0117678Y0325880D01*
X0117590Y0325894D01*
X0117504Y0325911D01*
X0117418Y0325933D01*
X0117334Y0325958D01*
X0117250Y0325988D01*
X0117168Y0326020D01*
X0117088Y0326057D01*
X0117009Y0326097D01*
X0116932Y0326141D01*
X0116857Y0326188D01*
X0116785Y0326238D01*
X0116714Y0326292D01*
X0116647Y0326348D01*
X0116581Y0326408D01*
X0116519Y0326470D01*
X0116459Y0326536D01*
X0116403Y0326603D01*
X0116349Y0326674D01*
X0116299Y0326746D01*
X0116252Y0326821D01*
X0116208Y0326898D01*
X0116168Y0326977D01*
X0116131Y0327057D01*
X0116099Y0327139D01*
X0116069Y0327223D01*
X0116044Y0327307D01*
X0116022Y0327393D01*
X0116005Y0327479D01*
X0115991Y0327567D01*
X0115981Y0327655D01*
X0115975Y0327743D01*
X0115973Y0327831D01*
D21*
X0309571Y0178803D02*
X0311931Y0178803D01*
X0311931Y0177033D01*
X0310751Y0177623D01*
X0310161Y0177623D01*
X0309571Y0177033D01*
X0309571Y0175853D01*
X0310161Y0175263D01*
X0311341Y0175263D01*
X0311931Y0175853D01*
X0313196Y0175853D02*
X0313786Y0175263D01*
X0314966Y0175263D01*
X0315556Y0175853D01*
X0315556Y0178213D01*
X0314966Y0178803D01*
X0313786Y0178803D01*
X0313196Y0178213D01*
X0316792Y0178803D02*
X0317972Y0178803D01*
X0317382Y0178803D02*
X0317382Y0175263D01*
X0317972Y0175263D02*
X0316792Y0175263D01*
X0104494Y0557440D02*
X0104494Y0562044D01*
X0102192Y0562044D01*
X0101424Y0561277D01*
X0101424Y0559742D01*
X0102192Y0558975D01*
X0104494Y0558975D01*
X0102959Y0558975D02*
X0101424Y0557440D01*
X0099890Y0558207D02*
X0099890Y0559742D01*
X0097588Y0559742D01*
X0096820Y0558975D01*
X0096820Y0558207D01*
X0097588Y0557440D01*
X0099122Y0557440D01*
X0099890Y0558207D01*
X0099890Y0559742D02*
X0098355Y0561277D01*
X0096820Y0562044D01*
X0095286Y0560509D02*
X0093751Y0562044D01*
X0093751Y0557440D01*
X0092217Y0557440D02*
X0095286Y0557440D01*
X0088746Y0557440D02*
X0088746Y0562044D01*
X0086444Y0562044D01*
X0085676Y0561277D01*
X0085676Y0559742D01*
X0086444Y0558975D01*
X0088746Y0558975D01*
X0087211Y0558975D02*
X0085676Y0557440D01*
X0084142Y0558207D02*
X0083374Y0557440D01*
X0081840Y0557440D01*
X0081072Y0558207D01*
X0081072Y0558975D01*
X0081840Y0559742D01*
X0084142Y0559742D01*
X0084142Y0558207D01*
X0084142Y0559742D02*
X0082607Y0561277D01*
X0081072Y0562044D01*
X0079538Y0561277D02*
X0079538Y0558207D01*
X0076469Y0561277D01*
X0076469Y0558207D01*
X0077236Y0557440D01*
X0078771Y0557440D01*
X0079538Y0558207D01*
X0079538Y0561277D02*
X0078771Y0562044D01*
X0077236Y0562044D01*
X0076469Y0561277D01*
M02*
