%
M48
M72
T01C0.00984
T02C0.01969
T03C0.02400
T04C0.02756
T05C0.02953
T06C0.03150
T07C0.03200
T08C0.03543
T09C0.03600
T10C0.03937
T11C0.04000
T12C0.04134
T13C0.06700
T14C0.07874
T15C0.11024
T16C0.11811
%
T01
X320698Y75862
X342351Y111295
X352194Y125075
X352194Y150665
X340383Y152634
X328572Y157555
X318729Y154602
X316761Y170350
X303965Y167398
X298060Y173303
X289202Y178224
X291170Y184130
X312824Y193972
X297076Y154602
X301013Y137870
X290186Y128028
X280068Y127437
X269517Y127043
X234083Y119169
X235065Y103461
X231721Y101453
X228690Y103500
X225422Y101453
X222272Y103382
X239989Y87673
X196682Y102481
X192745Y103261
X186839Y107358
X178296Y115154
X172666Y121138
X167154Y130980
X160580Y131335
X159241Y140114
X163635Y146578
X165776Y150662
X175028Y139839
X190081Y137304
X194713Y119169
X194005Y158500
X204278Y162199
X211617Y163507
X210680Y175805
X215749Y176217
X219636Y174927
X223524Y174448
X232115Y188067
X244185Y170350
X249831Y165232
X257706Y165232
X265580Y165232
X234083Y158539
X203392Y174952
X203756Y185402
X188808Y190035
X165107Y185193
X155343Y176256
X125816Y155587
X109083Y139839
X100422Y150331
X85270Y139952
X101013Y126256
X94320Y113264
X112036Y107752
X119123Y113657
X125816Y121138
X131721Y114445
X135265Y107752
X145383Y115193
X141564Y119169
X151406Y115232
X156328Y99484
X135265Y93185
X109871Y93776
X99831Y95941
X88414Y79799
X123887Y131374
X127784Y136335
X143532Y136965
X108099Y174287
X108099Y251059
X125816Y282555
X133690Y298303
X139595Y304209
X127942Y310862
X146485Y325862
X147469Y316020
X159280Y298303
X172076Y304209
X181918Y312004
X193729Y313657
X205619Y312161
X204556Y302240
X210461Y276650
X206524Y272713
X230146Y300272
X228178Y312083
X236052Y312083
X243926Y312083
X251800Y312083
X253769Y304209
X264595Y287870
X262627Y265232
X297076Y266807
X299697Y272713
X310855Y283539
X318729Y294366
X295107Y294366
X299044Y314051
X314792Y314051
X326603Y302240
X332509Y288461
X299044Y256965
X342351Y243185
X320698Y328923
X320737Y339012
X314792Y339642
X322666Y345547
X314792Y357358
X320658Y416571
X304910Y436256
X309572Y442161
X322627Y447083
X330501Y455941
X340343Y447083
X352154Y466768
X308847Y493343
X310855Y507949
X326564Y520902
X304910Y544524
X346249Y559484
X259635Y537634
X239005Y528618
X216328Y511059
X218296Y501217
X216328Y489406
X206485Y489406
X194674Y485888
X198611Y472280
X214359Y477594
X229471Y466616
X247824Y461846
X231761Y486571
X238271Y489695
X202587Y509720
X133965Y532831
X117942Y526650
X115701Y537496
X110028Y516965
X104123Y516965
X110068Y506177
X114950Y492358
X135658Y478421
X117902Y452004
X119910Y442004
X97076Y467988
X86446Y454799
X112036Y409068
X108099Y371138
X115973Y357358
X117942Y340862
X139595Y347516
X143817Y369454
X96288Y347516
X88698Y337389
X107942Y310862
X96288Y304209
X60855Y406571
X88414Y514839
X96016Y538618
X297036Y467752
X297036Y430350
X241957Y367201
X230146Y365232
X222272Y361295
X270501Y343579
X273454Y325862
X353493Y333776
X356524Y337673
X354162Y343579
T02
X231957Y182340
X333493Y241217
X345737Y290272
X345737Y295272
X345737Y300272
X345737Y305272
X345737Y310272
X350737Y310272
X350737Y305272
X350737Y300272
X350737Y295272
X350737Y290272
X343335Y387870
X229162Y292398
X161249Y292398
X90383Y378461
X90383Y383461
X95383Y383461
X100383Y383461
X100383Y378461
X95383Y378461
X85383Y378461
X85383Y383461
X80383Y383461
X80383Y378461
X163060Y455587
X163060Y519130
X134241Y620980
X129241Y620980
X129241Y625980
X134241Y625980
X134241Y630980
X129241Y630980
X129241Y635980
X134241Y635980
X134241Y640980
X129241Y640980
T03
X200461Y89445
X220461Y89445
T04
X126800Y146728
X149438Y197909
X178965Y107358
X167154Y91610
X203458Y102398
X261643Y125075
X265580Y154602
X257706Y184130
X265580Y195941
X273454Y260902
X273454Y282555
X267548Y300272
X273454Y304209
X333296Y371925
X339595Y371925
X336446Y382161
X342745Y382161
X350816Y381768
X350816Y372319
X330146Y382161
X322076Y381768
X322076Y372319
X333493Y416413
X267548Y369169
X188808Y480390
X283296Y78815
X299044Y81768
T05
X322050Y309498
T06
X352194Y176256
X344320Y176256
T07
X119398Y69366
X129398Y69366
X139398Y69366
X149398Y69366
X159398Y69366
X169398Y69366
X179398Y69366
X189398Y69366
X199398Y69366
X209398Y69366
X219398Y69366
X229398Y69366
X239398Y69366
X249398Y69366
X259398Y69366
X269398Y69366
X279398Y69366
X289398Y69366
X299398Y69366
X309398Y69366
X273335Y162004
X273335Y182004
X269398Y208343
X279398Y208343
X289398Y208343
X299398Y208343
X309398Y208343
X309398Y242594
X299398Y242594
X289398Y242594
X279398Y242594
X269398Y242594
X259398Y242594
X249398Y242594
X239398Y242594
X229398Y242594
X219398Y242594
X209398Y242594
X199398Y242594
X189398Y242594
X179398Y242594
X169398Y242594
X159398Y242594
X149398Y242594
X139398Y242594
X129398Y242594
X119398Y242594
X119398Y208343
X129398Y208343
X139398Y208343
X149398Y208343
X159398Y208343
X169398Y208343
X179398Y208343
X189398Y208343
X199398Y208343
X209398Y208343
X219398Y208343
X229398Y208343
X239398Y208343
X249398Y208343
X259398Y208343
X309398Y381571
X299398Y381571
X289398Y381571
X279398Y381571
X269398Y381571
X259398Y381571
X249398Y381571
X239398Y381571
X229398Y381571
X219398Y381571
X209398Y381571
X199398Y381571
X189398Y381571
X179398Y381571
X169398Y381571
X159398Y381571
X149398Y381571
X139398Y381571
X129398Y381571
X119398Y381571
X119359Y415941
X129359Y415941
X139359Y415941
X149359Y415941
X159359Y415941
X169359Y415941
X179359Y415941
X189359Y415941
X199359Y415941
X209359Y415941
X219359Y415941
X229359Y415941
X239359Y415941
X249359Y415941
X259359Y415941
X269359Y415941
X279359Y415941
X289359Y415941
X299359Y415941
X309359Y415941
X309359Y554957
X299359Y554957
X289359Y554957
X279359Y554957
X269359Y554957
X259359Y554957
X249359Y554957
X239359Y554957
X229359Y554957
X219359Y554957
X209359Y554957
X199359Y554957
X189359Y554957
X179359Y554957
X169359Y554957
X159359Y554957
X149359Y554957
X139359Y554957
X129359Y554957
X119359Y554957
X103099Y632949
X113099Y632949
X113099Y646728
X103099Y646728
X164123Y645744
X174123Y645744
X174123Y632949
X164123Y632949
T08
X230146Y343579
X260068Y343579
T09
X249162Y92122
X249162Y102122
T10
X135698Y433972
X135698Y512713
T11
X425619Y99484
X458493Y148972
X505737Y148972
X552981Y148972
X600225Y148972
X647469Y148972
X647469Y238972
X600225Y238972
X552981Y238972
X505737Y238972
X458493Y238972
X475619Y99484
X181923Y604364
X181923Y622164
X156323Y622164
X156323Y604364
X111057Y604364
X111057Y622164
X85457Y622164
X85457Y604364
X77942Y530469
X77942Y520469
X77942Y510469
X77942Y500469
X77942Y490469
X77942Y480469
X77942Y470469
X77942Y460469
X77942Y450469
X77942Y440469
X77981Y357083
X77981Y347083
X77981Y337083
X77981Y327083
X77981Y317083
X77981Y307083
X77981Y297083
X77981Y287083
X77981Y277083
X77981Y267083
X77981Y183854
X77981Y173854
X77981Y163854
X77981Y153854
X77981Y143854
X77981Y133854
X77981Y123854
X77981Y113854
X77981Y103854
X77981Y93854
T12
X311471Y298919
T13
X329556Y211492
T14
X186839Y591610
X186839Y646728
X80540Y646728
X80540Y591610
T15
X104162Y79799
X104162Y197909
X348257Y197909
X348257Y79799
T16
X96288Y253028
M30
