%
M48
M72
T01C0.00984
T02C0.01969
T03C0.02362
T04C0.02400
T05C0.02756
T06C0.02953
T07C0.03150
T08C0.03200
T09C0.03600
T10C0.03937
T11C0.04000
T12C0.04134
T13C0.06700
T14C0.07874
T15C0.11811
%
T01
X256923Y20996
X278576Y56429
X288419Y70209
X288419Y95799
X276608Y97768
X264797Y102689
X254954Y99736
X252986Y115484
X240190Y112531
X234285Y118437
X225427Y123358
X227395Y129264
X249049Y139106
X274639Y143043
X290348Y503437
X262789Y466035
X247080Y453083
X245072Y438476
X233261Y412886
X245797Y387295
X241135Y381390
X233261Y375484
X256883Y361705
X258852Y392217
X266726Y401075
X276568Y392217
X288379Y411902
X241135Y489657
X195860Y482768
X175230Y473752
X152552Y456193
X154521Y446350
X152552Y434539
X142710Y434539
X130899Y431022
X134836Y417413
X150584Y422728
X165696Y411750
X184049Y406980
X174496Y434829
X167986Y431705
X138812Y454854
X70190Y477965
X54167Y471783
X51926Y482630
X32241Y483752
X16726Y489657
X16726Y497531
X46253Y462098
X40348Y462098
X46293Y451311
X51175Y437492
X71883Y423555
X54127Y397138
X56135Y387138
X33301Y413122
X22671Y399933
X44324Y188319
X62041Y227689
X69915Y243437
X75820Y249343
X64167Y255996
X44167Y255996
X32513Y249343
X24923Y282523
X32513Y292650
X52198Y302492
X44324Y316272
X54167Y285996
X75820Y292650
X80041Y314587
X82710Y270996
X83694Y261154
X95505Y243437
X108301Y249343
X118143Y257138
X129954Y258791
X141844Y257295
X140781Y247374
X164403Y257217
X172277Y257217
X180151Y257217
X188025Y257217
X189993Y249343
X200820Y233004
X198852Y210366
X166371Y245406
X146686Y221783
X142749Y217846
X209678Y270996
X206726Y288713
X178182Y312335
X166371Y310366
X158497Y306429
X235269Y259185
X254954Y239500
X262828Y247374
X251017Y259185
X256923Y274057
X256962Y284146
X251017Y284776
X258891Y290681
X251017Y302492
X290387Y288713
X292749Y282807
X289718Y278909
X268734Y233594
X247080Y228673
X235922Y217846
X233301Y211941
X235269Y202098
X231332Y239500
X278576Y188319
X201804Y110366
X193930Y110366
X186056Y110366
X180410Y115484
X170308Y103673
X159749Y119582
X155861Y120061
X151974Y121350
X146905Y120939
X139617Y120086
X147842Y108641
X140503Y107333
X130230Y103634
X111253Y84972
X103379Y76114
X96804Y76469
X95466Y85248
X99860Y91712
X102001Y95796
X79757Y82098
X77789Y64303
X81608Y60327
X87631Y60366
X92552Y44618
X114521Y60287
X108891Y66272
X123064Y52492
X128970Y48394
X132907Y47615
X130938Y64303
X126306Y82438
X158497Y48516
X161647Y46587
X164915Y48634
X167946Y46587
X171289Y48594
X176214Y32807
X170308Y64303
X205741Y72177
X216293Y72571
X226411Y73161
X237238Y83004
X233301Y99736
X168340Y133201
X139981Y130536
X125033Y135169
X101332Y130327
X91568Y121390
X62041Y100720
X64009Y81469
X60112Y76508
X62041Y66272
X67946Y59579
X71489Y52886
X71489Y38319
X55348Y58791
X48261Y52886
X46096Y38909
X36056Y41075
X24639Y24933
X30545Y58398
X37238Y71390
X45308Y84972
X36647Y95465
X21495Y85086
X44324Y119421
T02
X16608Y328594
X16608Y323594
X21608Y323594
X26608Y323594
X31608Y323594
X36608Y323594
X36608Y328594
X31608Y328594
X26608Y328594
X21608Y328594
X99285Y400720
X99285Y464264
X70466Y566114
X65466Y566114
X65466Y571114
X70466Y571114
X70466Y576114
X65466Y576114
X65466Y581114
X70466Y581114
X70466Y586114
X65466Y586114
X269718Y186350
X281962Y235406
X281962Y240406
X281962Y245406
X281962Y250406
X281962Y255406
X286962Y255406
X286962Y250406
X286962Y245406
X286962Y240406
X286962Y235406
X165387Y237531
X97474Y237531
X168182Y127473
X279560Y333004
T03
X196293Y288713
X166371Y288713
T04
X136686Y34579
X156686Y34579
T05
X235269Y26902
X219521Y23949
X197867Y70209
X201804Y99736
X193930Y129264
X201804Y141075
X209678Y206035
X209678Y227689
X203773Y245406
X209678Y249343
X269521Y317059
X275820Y317059
X272671Y327295
X278970Y327295
X287041Y326902
X287041Y317453
X139683Y47531
X115190Y52492
X103379Y36744
X63025Y91862
X85663Y143043
X125033Y425524
X203773Y314303
X258301Y317453
X258301Y326902
X266371Y327295
X269718Y361547
T06
X258275Y254632
T07
X284482Y119421
X284482Y127295
T08
X245623Y14500
X235623Y14500
X225623Y14500
X215623Y14500
X205623Y14500
X195623Y14500
X185623Y14500
X175623Y14500
X165623Y14500
X155623Y14500
X145623Y14500
X135623Y14500
X125623Y14500
X115623Y14500
X105623Y14500
X95623Y14500
X85623Y14500
X75623Y14500
X65623Y14500
X55623Y14500
X55623Y153476
X65623Y153476
X75623Y153476
X85623Y153476
X95623Y153476
X105623Y153476
X115623Y153476
X125623Y153476
X135623Y153476
X145623Y153476
X155623Y153476
X165623Y153476
X175623Y153476
X185623Y153476
X195623Y153476
X205623Y153476
X215623Y153476
X225623Y153476
X235623Y153476
X245623Y153476
X245623Y187728
X235623Y187728
X225623Y187728
X215623Y187728
X205623Y187728
X195623Y187728
X185623Y187728
X175623Y187728
X165623Y187728
X155623Y187728
X145623Y187728
X135623Y187728
X125623Y187728
X115623Y187728
X105623Y187728
X95623Y187728
X85623Y187728
X75623Y187728
X65623Y187728
X55623Y187728
X55623Y326705
X65623Y326705
X75623Y326705
X85623Y326705
X95623Y326705
X105623Y326705
X115623Y326705
X125623Y326705
X135623Y326705
X145623Y326705
X155623Y326705
X165623Y326705
X175623Y326705
X185623Y326705
X195623Y326705
X205623Y326705
X215623Y326705
X225623Y326705
X235623Y326705
X245623Y326705
X245584Y361075
X235584Y361075
X225584Y361075
X215584Y361075
X205584Y361075
X195584Y361075
X185584Y361075
X175584Y361075
X165584Y361075
X155584Y361075
X145584Y361075
X135584Y361075
X125584Y361075
X115584Y361075
X105584Y361075
X95584Y361075
X85584Y361075
X75584Y361075
X65584Y361075
X55584Y361075
X55584Y500091
X65584Y500091
X75584Y500091
X85584Y500091
X95584Y500091
X105584Y500091
X115584Y500091
X125584Y500091
X135584Y500091
X145584Y500091
X155584Y500091
X165584Y500091
X175584Y500091
X185584Y500091
X195584Y500091
X205584Y500091
X215584Y500091
X225584Y500091
X235584Y500091
X245584Y500091
X209560Y127138
X209560Y107138
X110348Y578083
X100348Y578083
X100348Y590878
X110348Y590878
X49324Y591862
X39324Y591862
X39324Y578083
X49324Y578083
T09
X185387Y47256
X185387Y37256
T10
X71923Y457846
X71923Y379106
T11
X361844Y44618
X394718Y94106
X411844Y44618
X441962Y94106
X489206Y94106
X536450Y94106
X583694Y94106
X583694Y184106
X536450Y184106
X489206Y184106
X441962Y184106
X394718Y184106
X118148Y549498
X118148Y567298
X92548Y567298
X92548Y549498
X47282Y549498
X47282Y567298
X21682Y567298
X21682Y549498
X14167Y475602
X14167Y465602
X14167Y455602
X14167Y445602
X14167Y435602
X14167Y425602
X14167Y415602
X14167Y405602
X14167Y395602
X14167Y385602
X11878Y374109
X11878Y356309
X14206Y212217
X14206Y222217
X14206Y232217
X14206Y242217
X14206Y252217
X14206Y262217
X14206Y272217
X14206Y282217
X14206Y292217
X14206Y302217
X37478Y356309
X37478Y374109
X14206Y128988
X14206Y118988
X14206Y108988
X14206Y98988
X14206Y88988
X14206Y78988
X14206Y68988
X14206Y58988
X14206Y48988
X14206Y38988
T12
X247696Y244053
T13
X265781Y156626
T14
X123064Y536744
X123064Y591862
X16765Y591862
X16765Y536744
X22749Y191823
T15
X284482Y24933
X284482Y143043
X40387Y143043
X40387Y24933
M30
