%
M48
M72
T01C0.01181
T02C0.01378
T03C0.01969
T04C0.02953
T05C0.03150
T06C0.03200
T07C0.03600
T08C0.03937
T09C0.04000
T10C0.04134
T11C0.05118
T12C0.06700
T13C0.11811
%
T01
X494879Y100469
X425410Y130862
X416552Y130862
X408678Y123972
X408678Y115114
X399820Y115114
X390961Y115114
X382103Y115114
X417123Y146728
X408264Y168382
X428143Y192794
X436779Y195694
X437792Y189051
X455902Y196925
X467320Y189051
X461005Y180193
X438383Y162476
X447635Y208539
X457635Y210042
X462635Y228264
X462635Y248264
X447635Y266807
X442713Y266807
X425194Y252240
X432635Y238264
X408068Y216020
X403343Y228476
X395627Y228421
X384642Y243185
X382477Y258343
X373816Y264839
X358068Y242201
X358068Y236295
X366926Y229406
X348862Y225816
X347241Y220420
X341926Y237732
X348300Y249316
X329077Y251245
X311808Y288461
X277556Y263264
X274406Y259720
X267325Y254996
X267516Y274681
X260627Y286484
X246847Y290429
X237595Y278224
X232876Y270106
X226553Y266965
X222427Y266994
X210036Y268382
X207477Y276229
X211147Y279429
X201578Y282529
X192713Y282555
X211386Y291382
X211414Y295547
X225283Y298392
X229131Y300272
X227556Y307752
X224808Y310873
X222241Y314051
X232674Y330980
X232350Y340499
X226693Y345350
X221650Y354602
X231099Y365232
X261750Y365232
X267516Y352437
X259642Y331768
X251768Y331768
X242218Y326256
X229131Y292398
X226178Y288868
X229131Y284524
X213383Y255980
X210627Y245744
X207477Y233343
X202195Y232982
X196650Y245744
X191875Y257161
X179052Y258031
X169288Y260508
X163776Y260409
X168107Y270744
X176965Y279602
X176965Y288461
X177162Y292791
X169288Y305220
X154327Y318382
X144091Y297122
X152359Y291952
X147635Y284524
X162595Y284524
X191335Y297516
X193698Y322909
X128737Y328224
X122602Y302405
X120107Y299287
X115942Y299287
X111776Y299287
X129505Y302221
X122241Y281571
X118501Y273500
X118304Y257161
X116548Y243563
X121469Y243563
X121469Y238642
X116548Y238642
X116548Y233720
X121469Y233720
X126390Y233720
X126390Y238642
X126390Y243563
X137595Y226453
X118894Y217594
X87595Y215823
X87595Y237476
X94288Y237083
X94288Y258933
X87595Y276846
X79721Y284720
X63973Y284720
X91532Y298500
X167320Y247516
X172044Y246138
X175979Y225467
X151178Y183028
X137595Y174287
X185627Y157437
X207477Y128028
X218304Y130980
X207477Y114248
X207477Y100469
X196650Y126059
X240942Y130980
X251768Y128028
X251768Y114248
X251768Y100469
X315745Y100469
X369485Y148697
X369485Y166413
X332083Y171335
X315640Y188050
X245269Y242201
X242320Y252043
X237989Y180193
X79721Y188264
X63973Y188264
X296060Y342594
X296060Y351453
X296060Y360311
X314760Y358343
X313776Y341610
X330509Y332752
X335430Y341610
X339367Y341610
X353090Y355466
X353146Y361886
X353146Y367988
X384753Y363264
X394446Y361335
X396453Y359327
X398383Y357398
X398383Y361335
X394446Y357398
X395483Y347241
X406007Y349576
X408549Y359237
X448619Y345547
X450587Y335705
X459446Y340626
X459446Y318972
X450400Y314773
X442713Y325469
X437595Y311492
X415351Y311267
X415351Y307161
X359052Y331768
X403343Y250075
X486020Y264839
X486020Y295350
X488973Y341610
T02
X442583Y197779
X353146Y192988
X346257Y192988
X339367Y192988
X311673Y233512
X283461Y227043
X249997Y210902
X237989Y188067
X215351Y157555
X229524Y133539
X185430Y228618
X197280Y236020
X186808Y256965
X183855Y270744
X177005Y284130
X210627Y310114
X241960Y273465
X267772Y300075
X330509Y300075
X505509Y302634
X505509Y356768
X143501Y324287
X106099Y324878
X100194Y324878
T03
X231882Y235311
X154760Y258343
X239957Y330783
X226178Y360311
X338354Y330783
X359052Y351453
X399987Y341413
X431886Y348500
X484544Y207850
X263383Y164445
X263383Y160508
X112989Y480390
T04
X413554Y173671
X442910Y375862
X451178Y375862
X121650Y480587
T05
X469871Y176114
X484642Y172713
X494674Y176114
X507674Y175114
X507674Y157713
X494674Y156429
X484642Y160114
X469871Y156429
X469871Y138713
X484642Y135311
X494674Y138713
X507674Y137713
X507674Y195114
X494674Y193831
X484642Y197516
X469871Y193831
X430902Y377043
X423028Y377043
T06
X507674Y264760
X507674Y274760
X507674Y285429
X507674Y295429
X374800Y347358
X374800Y367358
T07
X250036Y225469
X240036Y225469
X230036Y225469
X220036Y225469
T08
X376768Y200154
X376768Y278894
T09
X492910Y498933
X492910Y518933
X414170Y518933
X414170Y498933
X335430Y498933
X335430Y518933
X256690Y518933
X256690Y498933
X177949Y498933
X177949Y518933
T10
X402975Y163093
T11
X83107Y132083
X83107Y195626
T12
X469288Y377909
X498619Y377870
X325587Y377909
T13
X492910Y115232
X492910Y363264
X79524Y363264
X79524Y115232
M30
