G75*
%MOIN*%
%OFA0B0*%
%FSLAX25Y25*%
%IPPOS*%
%LPD*%
%AMOC8*
5,1,8,0,0,1.08239X$1,22.5*
%
%ADD10C,0.00000*%
%ADD11R,0.05918X0.06706*%
%ADD12R,0.06706X0.05918*%
%ADD13C,0.06706*%
%ADD14C,0.10800*%
%ADD15OC8,0.10800*%
%ADD16R,0.12611X0.09461*%
%ADD17R,0.04737X0.08674*%
%ADD18C,0.06400*%
%ADD19R,0.05524X0.05524*%
%ADD20R,0.03000X0.05800*%
%ADD21R,0.04343X0.02375*%
%ADD22R,0.07099X0.12217*%
%ADD23R,0.03400X0.08800*%
%ADD24R,0.01575X0.05512*%
%ADD25R,0.07480X0.09252*%
%ADD26R,0.01587X0.04737*%
%ADD27R,0.04737X0.06312*%
%ADD28C,0.08477*%
%ADD29C,0.01427*%
%ADD30R,0.08674X0.05524*%
%ADD31R,0.05800X0.03000*%
%ADD32R,0.06706X0.11430*%
%ADD33R,0.07099X0.23241*%
%ADD34OC8,0.05600*%
%ADD35R,0.03300X0.05800*%
%ADD36C,0.10850*%
%ADD37C,0.02769*%
%ADD38R,0.07887X0.05524*%
%ADD39R,0.09658X0.02769*%
%ADD40C,0.04337*%
%ADD41R,0.01981X0.03950*%
%ADD42R,0.03950X0.01981*%
%ADD43R,0.10643X0.10643*%
%ADD44C,0.06200*%
%ADD45C,0.03753*%
%ADD46C,0.04934*%
%ADD47C,0.05524*%
%ADD48R,0.06312X0.06312*%
%ADD49R,0.03950X0.08280*%
%ADD50R,0.08280X0.03950*%
%ADD51R,0.15367X0.15367*%
%ADD52R,0.06706X0.03556*%
%ADD53R,0.03556X0.06706*%
%ADD54C,0.16611*%
%ADD55OC8,0.05229*%
D10*
X0071650Y0095547D02*
X0500784Y0095547D01*
X0501069Y0095550D01*
X0501355Y0095561D01*
X0501640Y0095578D01*
X0501924Y0095602D01*
X0502208Y0095633D01*
X0502491Y0095671D01*
X0502772Y0095716D01*
X0503053Y0095767D01*
X0503333Y0095825D01*
X0503611Y0095890D01*
X0503887Y0095962D01*
X0504161Y0096040D01*
X0504434Y0096125D01*
X0504704Y0096217D01*
X0504972Y0096315D01*
X0505238Y0096419D01*
X0505501Y0096530D01*
X0505761Y0096647D01*
X0506019Y0096770D01*
X0506273Y0096900D01*
X0506524Y0097036D01*
X0506772Y0097177D01*
X0507016Y0097325D01*
X0507257Y0097478D01*
X0507493Y0097638D01*
X0507726Y0097803D01*
X0507955Y0097973D01*
X0508180Y0098149D01*
X0508400Y0098331D01*
X0508616Y0098517D01*
X0508827Y0098709D01*
X0509034Y0098906D01*
X0509236Y0099108D01*
X0509433Y0099315D01*
X0509625Y0099526D01*
X0509811Y0099742D01*
X0509993Y0099962D01*
X0510169Y0100187D01*
X0510339Y0100416D01*
X0510504Y0100649D01*
X0510664Y0100885D01*
X0510817Y0101126D01*
X0510965Y0101370D01*
X0511106Y0101618D01*
X0511242Y0101869D01*
X0511372Y0102123D01*
X0511495Y0102381D01*
X0511612Y0102641D01*
X0511723Y0102904D01*
X0511827Y0103170D01*
X0511925Y0103438D01*
X0512017Y0103708D01*
X0512102Y0103981D01*
X0512180Y0104255D01*
X0512252Y0104531D01*
X0512317Y0104809D01*
X0512375Y0105089D01*
X0512426Y0105370D01*
X0512471Y0105651D01*
X0512509Y0105934D01*
X0512540Y0106218D01*
X0512564Y0106502D01*
X0512581Y0106787D01*
X0512592Y0107073D01*
X0512595Y0107358D01*
X0512595Y0375075D01*
X0512593Y0375265D01*
X0512586Y0375455D01*
X0512574Y0375645D01*
X0512558Y0375835D01*
X0512538Y0376024D01*
X0512512Y0376213D01*
X0512483Y0376401D01*
X0512448Y0376588D01*
X0512409Y0376774D01*
X0512366Y0376959D01*
X0512318Y0377144D01*
X0512266Y0377327D01*
X0512210Y0377508D01*
X0512149Y0377688D01*
X0512083Y0377867D01*
X0512014Y0378044D01*
X0511940Y0378220D01*
X0511862Y0378393D01*
X0511779Y0378565D01*
X0511693Y0378734D01*
X0511603Y0378902D01*
X0511508Y0379067D01*
X0511410Y0379230D01*
X0511307Y0379390D01*
X0511201Y0379548D01*
X0511091Y0379703D01*
X0510978Y0379856D01*
X0510860Y0380006D01*
X0510739Y0380152D01*
X0510615Y0380296D01*
X0510487Y0380437D01*
X0510356Y0380575D01*
X0510221Y0380710D01*
X0510083Y0380841D01*
X0509942Y0380969D01*
X0509798Y0381093D01*
X0509652Y0381214D01*
X0509502Y0381332D01*
X0509349Y0381445D01*
X0509194Y0381555D01*
X0509036Y0381661D01*
X0508876Y0381764D01*
X0508713Y0381862D01*
X0508548Y0381957D01*
X0508380Y0382047D01*
X0508211Y0382133D01*
X0508039Y0382216D01*
X0507866Y0382294D01*
X0507690Y0382368D01*
X0507513Y0382437D01*
X0507334Y0382503D01*
X0507154Y0382564D01*
X0506973Y0382620D01*
X0506790Y0382672D01*
X0506605Y0382720D01*
X0506420Y0382763D01*
X0506234Y0382802D01*
X0506047Y0382837D01*
X0505859Y0382866D01*
X0505670Y0382892D01*
X0505481Y0382912D01*
X0505291Y0382928D01*
X0505101Y0382940D01*
X0504911Y0382947D01*
X0504721Y0382949D01*
X0071650Y0382949D01*
X0071365Y0382946D01*
X0071079Y0382935D01*
X0070794Y0382918D01*
X0070510Y0382894D01*
X0070226Y0382863D01*
X0069943Y0382825D01*
X0069662Y0382780D01*
X0069381Y0382729D01*
X0069101Y0382671D01*
X0068823Y0382606D01*
X0068547Y0382534D01*
X0068273Y0382456D01*
X0068000Y0382371D01*
X0067730Y0382279D01*
X0067462Y0382181D01*
X0067196Y0382077D01*
X0066933Y0381966D01*
X0066673Y0381849D01*
X0066415Y0381726D01*
X0066161Y0381596D01*
X0065910Y0381460D01*
X0065662Y0381319D01*
X0065418Y0381171D01*
X0065177Y0381018D01*
X0064941Y0380858D01*
X0064708Y0380693D01*
X0064479Y0380523D01*
X0064254Y0380347D01*
X0064034Y0380165D01*
X0063818Y0379979D01*
X0063607Y0379787D01*
X0063400Y0379590D01*
X0063198Y0379388D01*
X0063001Y0379181D01*
X0062809Y0378970D01*
X0062623Y0378754D01*
X0062441Y0378534D01*
X0062265Y0378309D01*
X0062095Y0378080D01*
X0061930Y0377847D01*
X0061770Y0377611D01*
X0061617Y0377370D01*
X0061469Y0377126D01*
X0061328Y0376878D01*
X0061192Y0376627D01*
X0061062Y0376373D01*
X0060939Y0376115D01*
X0060822Y0375855D01*
X0060711Y0375592D01*
X0060607Y0375326D01*
X0060509Y0375058D01*
X0060417Y0374788D01*
X0060332Y0374515D01*
X0060254Y0374241D01*
X0060182Y0373965D01*
X0060117Y0373687D01*
X0060059Y0373407D01*
X0060008Y0373126D01*
X0059963Y0372845D01*
X0059925Y0372562D01*
X0059894Y0372278D01*
X0059870Y0371994D01*
X0059853Y0371709D01*
X0059842Y0371423D01*
X0059839Y0371138D01*
X0059839Y0107358D01*
X0059842Y0107073D01*
X0059853Y0106787D01*
X0059870Y0106502D01*
X0059894Y0106218D01*
X0059925Y0105934D01*
X0059963Y0105651D01*
X0060008Y0105370D01*
X0060059Y0105089D01*
X0060117Y0104809D01*
X0060182Y0104531D01*
X0060254Y0104255D01*
X0060332Y0103981D01*
X0060417Y0103708D01*
X0060509Y0103438D01*
X0060607Y0103170D01*
X0060711Y0102904D01*
X0060822Y0102641D01*
X0060939Y0102381D01*
X0061062Y0102123D01*
X0061192Y0101869D01*
X0061328Y0101618D01*
X0061469Y0101370D01*
X0061617Y0101126D01*
X0061770Y0100885D01*
X0061930Y0100649D01*
X0062095Y0100416D01*
X0062265Y0100187D01*
X0062441Y0099962D01*
X0062623Y0099742D01*
X0062809Y0099526D01*
X0063001Y0099315D01*
X0063198Y0099108D01*
X0063400Y0098906D01*
X0063607Y0098709D01*
X0063818Y0098517D01*
X0064034Y0098331D01*
X0064254Y0098149D01*
X0064479Y0097973D01*
X0064708Y0097803D01*
X0064941Y0097638D01*
X0065177Y0097478D01*
X0065418Y0097325D01*
X0065662Y0097177D01*
X0065910Y0097036D01*
X0066161Y0096900D01*
X0066415Y0096770D01*
X0066673Y0096647D01*
X0066933Y0096530D01*
X0067196Y0096419D01*
X0067462Y0096315D01*
X0067730Y0096217D01*
X0068000Y0096125D01*
X0068273Y0096040D01*
X0068547Y0095962D01*
X0068823Y0095890D01*
X0069101Y0095825D01*
X0069381Y0095767D01*
X0069662Y0095716D01*
X0069943Y0095671D01*
X0070226Y0095633D01*
X0070510Y0095602D01*
X0070794Y0095578D01*
X0071079Y0095561D01*
X0071365Y0095550D01*
X0071650Y0095547D01*
X0400908Y0163093D02*
X0400910Y0163184D01*
X0400916Y0163274D01*
X0400926Y0163365D01*
X0400940Y0163454D01*
X0400958Y0163543D01*
X0400979Y0163632D01*
X0401005Y0163719D01*
X0401034Y0163805D01*
X0401068Y0163889D01*
X0401104Y0163972D01*
X0401145Y0164054D01*
X0401189Y0164133D01*
X0401236Y0164211D01*
X0401287Y0164286D01*
X0401341Y0164359D01*
X0401398Y0164429D01*
X0401458Y0164497D01*
X0401521Y0164563D01*
X0401587Y0164625D01*
X0401656Y0164684D01*
X0401727Y0164741D01*
X0401801Y0164794D01*
X0401877Y0164844D01*
X0401955Y0164891D01*
X0402035Y0164934D01*
X0402116Y0164973D01*
X0402200Y0165009D01*
X0402285Y0165041D01*
X0402371Y0165070D01*
X0402458Y0165094D01*
X0402547Y0165115D01*
X0402636Y0165132D01*
X0402726Y0165145D01*
X0402816Y0165154D01*
X0402907Y0165159D01*
X0402998Y0165160D01*
X0403088Y0165157D01*
X0403179Y0165150D01*
X0403269Y0165139D01*
X0403359Y0165124D01*
X0403448Y0165105D01*
X0403536Y0165083D01*
X0403622Y0165056D01*
X0403708Y0165026D01*
X0403792Y0164992D01*
X0403875Y0164954D01*
X0403956Y0164913D01*
X0404035Y0164868D01*
X0404112Y0164819D01*
X0404186Y0164768D01*
X0404259Y0164713D01*
X0404329Y0164655D01*
X0404396Y0164594D01*
X0404460Y0164530D01*
X0404522Y0164464D01*
X0404581Y0164394D01*
X0404636Y0164323D01*
X0404689Y0164248D01*
X0404738Y0164172D01*
X0404784Y0164094D01*
X0404826Y0164013D01*
X0404865Y0163931D01*
X0404900Y0163847D01*
X0404931Y0163762D01*
X0404958Y0163675D01*
X0404982Y0163588D01*
X0405002Y0163499D01*
X0405018Y0163410D01*
X0405030Y0163320D01*
X0405038Y0163229D01*
X0405042Y0163138D01*
X0405042Y0163048D01*
X0405038Y0162957D01*
X0405030Y0162866D01*
X0405018Y0162776D01*
X0405002Y0162687D01*
X0404982Y0162598D01*
X0404958Y0162511D01*
X0404931Y0162424D01*
X0404900Y0162339D01*
X0404865Y0162255D01*
X0404826Y0162173D01*
X0404784Y0162092D01*
X0404738Y0162014D01*
X0404689Y0161938D01*
X0404636Y0161863D01*
X0404581Y0161792D01*
X0404522Y0161722D01*
X0404460Y0161656D01*
X0404396Y0161592D01*
X0404329Y0161531D01*
X0404259Y0161473D01*
X0404186Y0161418D01*
X0404112Y0161367D01*
X0404035Y0161318D01*
X0403956Y0161273D01*
X0403875Y0161232D01*
X0403792Y0161194D01*
X0403708Y0161160D01*
X0403622Y0161130D01*
X0403536Y0161103D01*
X0403448Y0161081D01*
X0403359Y0161062D01*
X0403269Y0161047D01*
X0403179Y0161036D01*
X0403088Y0161029D01*
X0402998Y0161026D01*
X0402907Y0161027D01*
X0402816Y0161032D01*
X0402726Y0161041D01*
X0402636Y0161054D01*
X0402547Y0161071D01*
X0402458Y0161092D01*
X0402371Y0161116D01*
X0402285Y0161145D01*
X0402200Y0161177D01*
X0402116Y0161213D01*
X0402035Y0161252D01*
X0401955Y0161295D01*
X0401877Y0161342D01*
X0401801Y0161392D01*
X0401727Y0161445D01*
X0401656Y0161502D01*
X0401587Y0161561D01*
X0401521Y0161623D01*
X0401458Y0161689D01*
X0401398Y0161757D01*
X0401341Y0161827D01*
X0401287Y0161900D01*
X0401236Y0161975D01*
X0401189Y0162053D01*
X0401145Y0162132D01*
X0401104Y0162214D01*
X0401068Y0162297D01*
X0401034Y0162381D01*
X0401005Y0162467D01*
X0400979Y0162554D01*
X0400958Y0162643D01*
X0400940Y0162732D01*
X0400926Y0162821D01*
X0400916Y0162912D01*
X0400910Y0163002D01*
X0400908Y0163093D01*
X0412078Y0173671D02*
X0412080Y0173748D01*
X0412086Y0173824D01*
X0412096Y0173900D01*
X0412110Y0173975D01*
X0412127Y0174050D01*
X0412149Y0174123D01*
X0412174Y0174196D01*
X0412204Y0174267D01*
X0412236Y0174336D01*
X0412273Y0174403D01*
X0412312Y0174469D01*
X0412355Y0174532D01*
X0412402Y0174593D01*
X0412451Y0174652D01*
X0412504Y0174708D01*
X0412559Y0174761D01*
X0412617Y0174811D01*
X0412677Y0174858D01*
X0412740Y0174902D01*
X0412805Y0174943D01*
X0412872Y0174980D01*
X0412941Y0175014D01*
X0413011Y0175044D01*
X0413083Y0175070D01*
X0413157Y0175092D01*
X0413231Y0175111D01*
X0413306Y0175126D01*
X0413382Y0175137D01*
X0413458Y0175144D01*
X0413535Y0175147D01*
X0413611Y0175146D01*
X0413688Y0175141D01*
X0413764Y0175132D01*
X0413840Y0175119D01*
X0413914Y0175102D01*
X0413988Y0175082D01*
X0414061Y0175057D01*
X0414132Y0175029D01*
X0414202Y0174997D01*
X0414270Y0174962D01*
X0414336Y0174923D01*
X0414400Y0174881D01*
X0414461Y0174835D01*
X0414521Y0174786D01*
X0414577Y0174735D01*
X0414631Y0174680D01*
X0414682Y0174623D01*
X0414730Y0174563D01*
X0414775Y0174501D01*
X0414816Y0174436D01*
X0414854Y0174370D01*
X0414889Y0174302D01*
X0414919Y0174231D01*
X0414947Y0174160D01*
X0414970Y0174087D01*
X0414990Y0174013D01*
X0415006Y0173938D01*
X0415018Y0173862D01*
X0415026Y0173786D01*
X0415030Y0173709D01*
X0415030Y0173633D01*
X0415026Y0173556D01*
X0415018Y0173480D01*
X0415006Y0173404D01*
X0414990Y0173329D01*
X0414970Y0173255D01*
X0414947Y0173182D01*
X0414919Y0173111D01*
X0414889Y0173040D01*
X0414854Y0172972D01*
X0414816Y0172906D01*
X0414775Y0172841D01*
X0414730Y0172779D01*
X0414682Y0172719D01*
X0414631Y0172662D01*
X0414577Y0172607D01*
X0414521Y0172556D01*
X0414461Y0172507D01*
X0414400Y0172461D01*
X0414336Y0172419D01*
X0414270Y0172380D01*
X0414202Y0172345D01*
X0414132Y0172313D01*
X0414061Y0172285D01*
X0413988Y0172260D01*
X0413914Y0172240D01*
X0413840Y0172223D01*
X0413764Y0172210D01*
X0413688Y0172201D01*
X0413611Y0172196D01*
X0413535Y0172195D01*
X0413458Y0172198D01*
X0413382Y0172205D01*
X0413306Y0172216D01*
X0413231Y0172231D01*
X0413157Y0172250D01*
X0413083Y0172272D01*
X0413011Y0172298D01*
X0412941Y0172328D01*
X0412872Y0172362D01*
X0412805Y0172399D01*
X0412740Y0172440D01*
X0412677Y0172484D01*
X0412617Y0172531D01*
X0412559Y0172581D01*
X0412504Y0172634D01*
X0412451Y0172690D01*
X0412402Y0172749D01*
X0412355Y0172810D01*
X0412312Y0172873D01*
X0412273Y0172939D01*
X0412236Y0173006D01*
X0412204Y0173075D01*
X0412174Y0173146D01*
X0412149Y0173219D01*
X0412127Y0173292D01*
X0412110Y0173367D01*
X0412096Y0173442D01*
X0412086Y0173518D01*
X0412080Y0173594D01*
X0412078Y0173671D01*
X0500784Y0469563D02*
X0071650Y0469563D01*
X0071365Y0469566D01*
X0071079Y0469577D01*
X0070794Y0469594D01*
X0070510Y0469618D01*
X0070226Y0469649D01*
X0069943Y0469687D01*
X0069662Y0469732D01*
X0069381Y0469783D01*
X0069101Y0469841D01*
X0068823Y0469906D01*
X0068547Y0469978D01*
X0068273Y0470056D01*
X0068000Y0470141D01*
X0067730Y0470233D01*
X0067462Y0470331D01*
X0067196Y0470435D01*
X0066933Y0470546D01*
X0066673Y0470663D01*
X0066415Y0470786D01*
X0066161Y0470916D01*
X0065910Y0471052D01*
X0065662Y0471193D01*
X0065418Y0471341D01*
X0065177Y0471494D01*
X0064941Y0471654D01*
X0064708Y0471819D01*
X0064479Y0471989D01*
X0064254Y0472165D01*
X0064034Y0472347D01*
X0063818Y0472533D01*
X0063607Y0472725D01*
X0063400Y0472922D01*
X0063198Y0473124D01*
X0063001Y0473331D01*
X0062809Y0473542D01*
X0062623Y0473758D01*
X0062441Y0473978D01*
X0062265Y0474203D01*
X0062095Y0474432D01*
X0061930Y0474665D01*
X0061770Y0474901D01*
X0061617Y0475142D01*
X0061469Y0475386D01*
X0061328Y0475634D01*
X0061192Y0475885D01*
X0061062Y0476139D01*
X0060939Y0476397D01*
X0060822Y0476657D01*
X0060711Y0476920D01*
X0060607Y0477186D01*
X0060509Y0477454D01*
X0060417Y0477724D01*
X0060332Y0477997D01*
X0060254Y0478271D01*
X0060182Y0478547D01*
X0060117Y0478825D01*
X0060059Y0479105D01*
X0060008Y0479386D01*
X0059963Y0479667D01*
X0059925Y0479950D01*
X0059894Y0480234D01*
X0059870Y0480518D01*
X0059853Y0480803D01*
X0059842Y0481089D01*
X0059839Y0481374D01*
X0059839Y0536492D01*
X0059842Y0536777D01*
X0059853Y0537063D01*
X0059870Y0537348D01*
X0059894Y0537632D01*
X0059925Y0537916D01*
X0059963Y0538199D01*
X0060008Y0538480D01*
X0060059Y0538761D01*
X0060117Y0539041D01*
X0060182Y0539319D01*
X0060254Y0539595D01*
X0060332Y0539869D01*
X0060417Y0540142D01*
X0060509Y0540412D01*
X0060607Y0540680D01*
X0060711Y0540946D01*
X0060822Y0541209D01*
X0060939Y0541469D01*
X0061062Y0541727D01*
X0061192Y0541981D01*
X0061328Y0542232D01*
X0061469Y0542480D01*
X0061617Y0542724D01*
X0061770Y0542965D01*
X0061930Y0543201D01*
X0062095Y0543434D01*
X0062265Y0543663D01*
X0062441Y0543888D01*
X0062623Y0544108D01*
X0062809Y0544324D01*
X0063001Y0544535D01*
X0063198Y0544742D01*
X0063400Y0544944D01*
X0063607Y0545141D01*
X0063818Y0545333D01*
X0064034Y0545519D01*
X0064254Y0545701D01*
X0064479Y0545877D01*
X0064708Y0546047D01*
X0064941Y0546212D01*
X0065177Y0546372D01*
X0065418Y0546525D01*
X0065662Y0546673D01*
X0065910Y0546814D01*
X0066161Y0546950D01*
X0066415Y0547080D01*
X0066673Y0547203D01*
X0066933Y0547320D01*
X0067196Y0547431D01*
X0067462Y0547535D01*
X0067730Y0547633D01*
X0068000Y0547725D01*
X0068273Y0547810D01*
X0068547Y0547888D01*
X0068823Y0547960D01*
X0069101Y0548025D01*
X0069381Y0548083D01*
X0069662Y0548134D01*
X0069943Y0548179D01*
X0070226Y0548217D01*
X0070510Y0548248D01*
X0070794Y0548272D01*
X0071079Y0548289D01*
X0071365Y0548300D01*
X0071650Y0548303D01*
X0500784Y0548303D01*
X0501069Y0548300D01*
X0501355Y0548289D01*
X0501640Y0548272D01*
X0501924Y0548248D01*
X0502208Y0548217D01*
X0502491Y0548179D01*
X0502772Y0548134D01*
X0503053Y0548083D01*
X0503333Y0548025D01*
X0503611Y0547960D01*
X0503887Y0547888D01*
X0504161Y0547810D01*
X0504434Y0547725D01*
X0504704Y0547633D01*
X0504972Y0547535D01*
X0505238Y0547431D01*
X0505501Y0547320D01*
X0505761Y0547203D01*
X0506019Y0547080D01*
X0506273Y0546950D01*
X0506524Y0546814D01*
X0506772Y0546673D01*
X0507016Y0546525D01*
X0507257Y0546372D01*
X0507493Y0546212D01*
X0507726Y0546047D01*
X0507955Y0545877D01*
X0508180Y0545701D01*
X0508400Y0545519D01*
X0508616Y0545333D01*
X0508827Y0545141D01*
X0509034Y0544944D01*
X0509236Y0544742D01*
X0509433Y0544535D01*
X0509625Y0544324D01*
X0509811Y0544108D01*
X0509993Y0543888D01*
X0510169Y0543663D01*
X0510339Y0543434D01*
X0510504Y0543201D01*
X0510664Y0542965D01*
X0510817Y0542724D01*
X0510965Y0542480D01*
X0511106Y0542232D01*
X0511242Y0541981D01*
X0511372Y0541727D01*
X0511495Y0541469D01*
X0511612Y0541209D01*
X0511723Y0540946D01*
X0511827Y0540680D01*
X0511925Y0540412D01*
X0512017Y0540142D01*
X0512102Y0539869D01*
X0512180Y0539595D01*
X0512252Y0539319D01*
X0512317Y0539041D01*
X0512375Y0538761D01*
X0512426Y0538480D01*
X0512471Y0538199D01*
X0512509Y0537916D01*
X0512540Y0537632D01*
X0512564Y0537348D01*
X0512581Y0537063D01*
X0512592Y0536777D01*
X0512595Y0536492D01*
X0512595Y0481374D01*
X0512592Y0481089D01*
X0512581Y0480803D01*
X0512564Y0480518D01*
X0512540Y0480234D01*
X0512509Y0479950D01*
X0512471Y0479667D01*
X0512426Y0479386D01*
X0512375Y0479105D01*
X0512317Y0478825D01*
X0512252Y0478547D01*
X0512180Y0478271D01*
X0512102Y0477997D01*
X0512017Y0477724D01*
X0511925Y0477454D01*
X0511827Y0477186D01*
X0511723Y0476920D01*
X0511612Y0476657D01*
X0511495Y0476397D01*
X0511372Y0476139D01*
X0511242Y0475885D01*
X0511106Y0475634D01*
X0510965Y0475386D01*
X0510817Y0475142D01*
X0510664Y0474901D01*
X0510504Y0474665D01*
X0510339Y0474432D01*
X0510169Y0474203D01*
X0509993Y0473978D01*
X0509811Y0473758D01*
X0509625Y0473542D01*
X0509433Y0473331D01*
X0509236Y0473124D01*
X0509034Y0472922D01*
X0508827Y0472725D01*
X0508616Y0472533D01*
X0508400Y0472347D01*
X0508180Y0472165D01*
X0507955Y0471989D01*
X0507726Y0471819D01*
X0507493Y0471654D01*
X0507257Y0471494D01*
X0507016Y0471341D01*
X0506772Y0471193D01*
X0506524Y0471052D01*
X0506273Y0470916D01*
X0506019Y0470786D01*
X0505761Y0470663D01*
X0505501Y0470546D01*
X0505238Y0470435D01*
X0504972Y0470331D01*
X0504704Y0470233D01*
X0504434Y0470141D01*
X0504161Y0470056D01*
X0503887Y0469978D01*
X0503611Y0469906D01*
X0503333Y0469841D01*
X0503053Y0469783D01*
X0502772Y0469732D01*
X0502491Y0469687D01*
X0502208Y0469649D01*
X0501924Y0469618D01*
X0501640Y0469594D01*
X0501355Y0469577D01*
X0501069Y0469566D01*
X0500784Y0469563D01*
D11*
X0408068Y0375075D03*
X0400587Y0375075D03*
X0390351Y0375075D03*
X0382871Y0375075D03*
X0382871Y0344563D03*
X0390351Y0344563D03*
X0390351Y0335705D03*
X0382871Y0335705D03*
X0438973Y0330783D03*
X0446453Y0330783D03*
X0463579Y0334720D03*
X0471060Y0334720D03*
X0471060Y0324878D03*
X0463579Y0324878D03*
X0491138Y0295350D03*
X0498619Y0295350D03*
X0498619Y0264839D03*
X0491138Y0264839D03*
X0438579Y0247122D03*
X0431099Y0247122D03*
X0354918Y0182161D03*
X0347438Y0182161D03*
X0338186Y0182161D03*
X0330705Y0182161D03*
X0232083Y0188657D03*
X0224603Y0188657D03*
X0187595Y0126059D03*
X0180115Y0126059D03*
X0180115Y0110311D03*
X0187595Y0110311D03*
X0167910Y0110311D03*
X0160430Y0110311D03*
X0131138Y0174248D03*
X0123658Y0174248D03*
X0234249Y0283736D03*
X0241729Y0283736D03*
X0241729Y0292004D03*
X0234249Y0292004D03*
X0234249Y0300272D03*
X0241729Y0300272D03*
X0283461Y0342594D03*
X0290942Y0342594D03*
X0290942Y0351453D03*
X0283461Y0351453D03*
X0283461Y0360311D03*
X0290942Y0360311D03*
X0152162Y0310114D03*
X0144682Y0310114D03*
X0136414Y0310114D03*
X0128934Y0310114D03*
X0106886Y0310114D03*
X0099406Y0310114D03*
X0091138Y0310114D03*
X0083658Y0310114D03*
X0474406Y0147713D03*
X0481886Y0147713D03*
D12*
X0488973Y0181374D03*
X0488973Y0188854D03*
X0447635Y0229602D03*
X0447635Y0237083D03*
X0447635Y0246335D03*
X0447635Y0253815D03*
X0378737Y0238067D03*
X0378737Y0230587D03*
X0367910Y0132752D03*
X0367910Y0125272D03*
X0257674Y0149878D03*
X0257674Y0157358D03*
X0248816Y0157358D03*
X0248816Y0149878D03*
X0234052Y0167594D03*
X0234052Y0175075D03*
X0229406Y0126138D03*
X0229406Y0118657D03*
X0240705Y0118264D03*
X0240705Y0110783D03*
X0218068Y0110783D03*
X0218068Y0118264D03*
X0176178Y0212870D03*
X0176178Y0220350D03*
X0228146Y0243382D03*
X0228146Y0250862D03*
X0259642Y0250862D03*
X0259642Y0243382D03*
X0260627Y0273894D03*
X0260627Y0281374D03*
X0260627Y0292594D03*
X0260627Y0300075D03*
X0260627Y0337870D03*
X0260627Y0345350D03*
X0249800Y0345350D03*
X0249800Y0337870D03*
X0221257Y0337870D03*
X0221257Y0345350D03*
X0212398Y0345350D03*
X0212398Y0337870D03*
X0182280Y0306177D03*
X0182280Y0298697D03*
X0170272Y0292988D03*
X0170272Y0285508D03*
X0197635Y0290626D03*
X0197635Y0298106D03*
X0324603Y0337870D03*
X0324603Y0345350D03*
X0350194Y0345350D03*
X0350194Y0337870D03*
X0359052Y0337831D03*
X0359052Y0345311D03*
X0415981Y0341531D03*
X0416138Y0351650D03*
X0416138Y0359130D03*
X0440745Y0359524D03*
X0440745Y0367004D03*
X0415981Y0334051D03*
D13*
X0376768Y0278894D03*
X0376768Y0200154D03*
D14*
X0414170Y0518933D03*
X0492910Y0518933D03*
X0335430Y0518933D03*
X0256690Y0518933D03*
X0177949Y0518933D03*
D15*
X0177949Y0498933D03*
X0256690Y0498933D03*
X0335430Y0498933D03*
X0414170Y0498933D03*
X0492910Y0498933D03*
D16*
X0239288Y0101728D03*
X0219603Y0101728D03*
D17*
X0229446Y0109602D03*
D18*
X0423028Y0377043D03*
X0430902Y0377043D03*
D19*
X0168107Y0126256D03*
X0168107Y0117988D03*
D20*
X0395706Y0234148D03*
X0399406Y0234148D03*
X0403106Y0234148D03*
X0403106Y0244348D03*
X0399406Y0244348D03*
X0395706Y0244348D03*
X0275153Y0336510D03*
X0267753Y0336510D03*
X0267753Y0346710D03*
X0271453Y0346710D03*
X0275153Y0346710D03*
D21*
X0349997Y0245508D03*
X0349997Y0242949D03*
X0349997Y0240390D03*
X0349997Y0237831D03*
X0349997Y0235272D03*
X0349997Y0232713D03*
X0366532Y0232752D03*
X0366532Y0235311D03*
X0366532Y0237870D03*
X0366532Y0240429D03*
X0366532Y0242988D03*
X0366532Y0245547D03*
D22*
X0358264Y0239051D03*
D23*
X0162812Y0274392D03*
X0157812Y0274392D03*
X0152812Y0274392D03*
X0147812Y0274392D03*
X0147812Y0298592D03*
X0152812Y0298592D03*
X0157812Y0298592D03*
X0162812Y0298592D03*
D24*
X0147438Y0318972D03*
X0145469Y0318972D03*
X0143501Y0318972D03*
X0141532Y0318972D03*
X0139564Y0318972D03*
X0137595Y0318972D03*
X0135627Y0318972D03*
X0133658Y0318972D03*
X0131690Y0318972D03*
X0129721Y0318972D03*
X0127753Y0318972D03*
X0125784Y0318972D03*
X0123816Y0318972D03*
X0121847Y0318972D03*
X0119879Y0318972D03*
X0117910Y0318972D03*
X0115942Y0318972D03*
X0113973Y0318972D03*
X0112005Y0318972D03*
X0110036Y0318972D03*
X0108068Y0318972D03*
X0106099Y0318972D03*
X0104131Y0318972D03*
X0102162Y0318972D03*
X0100194Y0318972D03*
X0098225Y0318972D03*
X0096257Y0318972D03*
X0094288Y0318972D03*
X0092320Y0318972D03*
X0090351Y0318972D03*
D25*
X0082871Y0331768D03*
X0154918Y0331768D03*
D26*
X0203540Y0302240D03*
X0205509Y0302240D03*
X0207477Y0302240D03*
X0209446Y0302240D03*
X0211414Y0302240D03*
X0211414Y0286492D03*
X0209446Y0286492D03*
X0207477Y0286492D03*
X0205509Y0286492D03*
X0203540Y0286492D03*
D27*
X0237005Y0337280D03*
X0240745Y0345941D03*
X0233264Y0345941D03*
X0475390Y0189445D03*
X0482871Y0189445D03*
X0479131Y0180783D03*
D28*
X0086946Y0195626D02*
X0079268Y0195626D01*
X0079268Y0132083D02*
X0086946Y0132083D01*
D29*
X0333223Y0334443D02*
X0333699Y0334443D01*
X0333223Y0334443D02*
X0333223Y0336967D01*
X0333699Y0336967D01*
X0333699Y0334443D01*
X0333699Y0335869D02*
X0333223Y0335869D01*
X0335192Y0334443D02*
X0335668Y0334443D01*
X0335192Y0334443D02*
X0335192Y0336967D01*
X0335668Y0336967D01*
X0335668Y0334443D01*
X0335668Y0335869D02*
X0335192Y0335869D01*
X0337160Y0334443D02*
X0337636Y0334443D01*
X0337160Y0334443D02*
X0337160Y0336967D01*
X0337636Y0336967D01*
X0337636Y0334443D01*
X0337636Y0335869D02*
X0337160Y0335869D01*
X0339129Y0334443D02*
X0339605Y0334443D01*
X0339129Y0334443D02*
X0339129Y0336967D01*
X0339605Y0336967D01*
X0339605Y0334443D01*
X0339605Y0335869D02*
X0339129Y0335869D01*
X0341097Y0334443D02*
X0341573Y0334443D01*
X0341097Y0334443D02*
X0341097Y0336967D01*
X0341573Y0336967D01*
X0341573Y0334443D01*
X0341573Y0335869D02*
X0341097Y0335869D01*
X0341097Y0346254D02*
X0341573Y0346254D01*
X0341097Y0346254D02*
X0341097Y0348778D01*
X0341573Y0348778D01*
X0341573Y0346254D01*
X0341573Y0347680D02*
X0341097Y0347680D01*
X0339605Y0346254D02*
X0339129Y0346254D01*
X0339129Y0348778D01*
X0339605Y0348778D01*
X0339605Y0346254D01*
X0339605Y0347680D02*
X0339129Y0347680D01*
X0337636Y0346254D02*
X0337160Y0346254D01*
X0337160Y0348778D01*
X0337636Y0348778D01*
X0337636Y0346254D01*
X0337636Y0347680D02*
X0337160Y0347680D01*
X0335668Y0346254D02*
X0335192Y0346254D01*
X0335192Y0348778D01*
X0335668Y0348778D01*
X0335668Y0346254D01*
X0335668Y0347680D02*
X0335192Y0347680D01*
X0333699Y0346254D02*
X0333223Y0346254D01*
X0333223Y0348778D01*
X0333699Y0348778D01*
X0333699Y0346254D01*
X0333699Y0347680D02*
X0333223Y0347680D01*
D30*
X0337398Y0341610D03*
D31*
X0445487Y0192751D03*
X0445487Y0189051D03*
X0445487Y0185351D03*
X0445487Y0179956D03*
X0445487Y0176256D03*
X0445487Y0172556D03*
X0455687Y0172556D03*
X0455687Y0176256D03*
X0455687Y0179956D03*
X0455687Y0185351D03*
X0455687Y0189051D03*
X0455687Y0192751D03*
D32*
X0342713Y0361335D03*
X0332083Y0361256D03*
D33*
X0451178Y0359327D03*
X0469682Y0359327D03*
D34*
X0507674Y0295429D03*
X0507674Y0285429D03*
X0507674Y0274760D03*
X0507674Y0264760D03*
X0374800Y0347358D03*
X0374800Y0367358D03*
D35*
X0202556Y0327437D03*
X0202556Y0318382D03*
D36*
X0320562Y0377909D02*
X0330612Y0377909D01*
X0464263Y0377909D02*
X0474313Y0377909D01*
X0493594Y0377870D02*
X0503644Y0377870D01*
D37*
X0462635Y0248264D03*
X0462635Y0228264D03*
X0432635Y0238264D03*
X0425410Y0130862D03*
X0416552Y0130862D03*
X0408678Y0123972D03*
X0408678Y0115114D03*
X0399820Y0115114D03*
X0390961Y0115114D03*
X0382103Y0115114D03*
X0126390Y0233720D03*
X0121469Y0233720D03*
X0116548Y0233720D03*
X0116548Y0238642D03*
X0116548Y0243563D03*
X0121469Y0243563D03*
X0121469Y0238642D03*
X0126390Y0238642D03*
X0126390Y0243563D03*
D38*
X0236020Y0242398D03*
X0236020Y0251846D03*
X0251768Y0251846D03*
X0251768Y0242398D03*
D39*
X0488973Y0323500D03*
X0488973Y0326650D03*
X0488973Y0329799D03*
X0488973Y0332949D03*
X0488973Y0336098D03*
D40*
X0483851Y0351260D02*
X0494095Y0351260D01*
X0494095Y0346922D01*
X0483851Y0346922D01*
X0483851Y0351260D01*
X0483851Y0351258D02*
X0494095Y0351258D01*
X0500583Y0351260D02*
X0510827Y0351260D01*
X0510827Y0346922D01*
X0500583Y0346922D01*
X0500583Y0351260D01*
X0500583Y0351258D02*
X0510827Y0351258D01*
X0510827Y0312677D02*
X0500583Y0312677D01*
X0510827Y0312677D02*
X0510827Y0308339D01*
X0500583Y0308339D01*
X0500583Y0312677D01*
X0500583Y0312675D02*
X0510827Y0312675D01*
X0494095Y0312677D02*
X0483851Y0312677D01*
X0494095Y0312677D02*
X0494095Y0308339D01*
X0483851Y0308339D01*
X0483851Y0312677D01*
X0483851Y0312675D02*
X0494095Y0312675D01*
D41*
X0400314Y0351966D03*
X0398414Y0351966D03*
X0396414Y0351966D03*
X0394414Y0351966D03*
X0392514Y0351966D03*
X0392514Y0366766D03*
X0394414Y0366766D03*
X0396414Y0366766D03*
X0398414Y0366766D03*
X0400314Y0366766D03*
D42*
X0403814Y0363266D03*
X0403814Y0361366D03*
X0403814Y0359366D03*
X0403814Y0357366D03*
X0403814Y0355466D03*
X0389014Y0355466D03*
X0389014Y0357366D03*
X0389014Y0359366D03*
X0389014Y0361366D03*
X0389014Y0363266D03*
D43*
X0396414Y0359366D03*
D44*
X0250036Y0228169D02*
X0250036Y0222769D01*
X0240036Y0222769D02*
X0240036Y0228169D01*
X0230036Y0228169D02*
X0230036Y0222769D01*
X0220036Y0222769D02*
X0220036Y0228169D01*
D45*
X0413554Y0173671D03*
D46*
X0402975Y0163093D03*
D47*
X0469871Y0156429D03*
X0484642Y0160114D03*
X0494674Y0156429D03*
X0507674Y0157713D03*
X0507674Y0175114D03*
X0494674Y0176114D03*
X0484642Y0172713D03*
X0469871Y0176114D03*
X0469871Y0193831D03*
X0484642Y0197516D03*
X0494674Y0193831D03*
X0507674Y0195114D03*
X0507674Y0137713D03*
X0494674Y0138713D03*
X0484642Y0135311D03*
X0469871Y0138713D03*
D48*
X0269288Y0146138D03*
X0269288Y0161098D03*
D49*
X0135942Y0207406D03*
X0131942Y0207406D03*
X0127942Y0207406D03*
X0123942Y0207406D03*
X0107839Y0207358D03*
X0099902Y0207366D03*
X0095902Y0207366D03*
X0091902Y0207366D03*
X0087902Y0207366D03*
X0094453Y0265823D03*
X0098453Y0265823D03*
X0102453Y0265823D03*
X0106453Y0265823D03*
X0110453Y0265823D03*
X0114453Y0265823D03*
X0118453Y0265823D03*
X0122453Y0265823D03*
X0126453Y0265823D03*
X0130453Y0265823D03*
D50*
X0146453Y0258343D03*
X0146453Y0246343D03*
X0146453Y0242343D03*
X0146453Y0238343D03*
X0146453Y0234343D03*
X0146453Y0230343D03*
X0146453Y0226343D03*
X0146453Y0222343D03*
X0146453Y0218343D03*
D51*
X0121721Y0238760D03*
D52*
X0380135Y0175941D03*
X0380135Y0171610D03*
X0380135Y0167280D03*
X0380135Y0162949D03*
X0380135Y0158618D03*
X0380135Y0154287D03*
X0380135Y0149957D03*
X0380135Y0145626D03*
X0380135Y0141295D03*
X0380135Y0136965D03*
X0380135Y0132634D03*
X0380135Y0128303D03*
X0380135Y0103894D03*
X0380135Y0099563D03*
X0427379Y0099563D03*
X0427379Y0103894D03*
X0427379Y0136965D03*
X0427379Y0141295D03*
X0427379Y0145626D03*
X0427379Y0149957D03*
X0427379Y0154287D03*
X0427379Y0158618D03*
X0427379Y0162949D03*
X0427379Y0167280D03*
X0427379Y0171610D03*
X0427379Y0175941D03*
D53*
X0416749Y0183028D03*
X0412418Y0183028D03*
X0408087Y0183028D03*
X0403757Y0183028D03*
X0399426Y0183028D03*
X0395095Y0183028D03*
X0390764Y0183028D03*
D54*
X0492910Y0115232D03*
X0492910Y0363264D03*
X0079524Y0363264D03*
X0079524Y0115232D03*
D55*
X0442910Y0375862D03*
X0451178Y0375862D03*
X0121650Y0480587D03*
M02*
