G75*
%MOIN*%
%OFA0B0*%
%FSLAX25Y25*%
%IPPOS*%
%LPD*%
%AMOC8*
5,1,8,0,0,1.08239X$1,22.5*
%
%ADD10C,0.00000*%
%ADD11C,0.10000*%
%ADD12C,0.03937*%
%ADD13C,0.00394*%
D10*
X0004954Y0005248D02*
X0296293Y0005248D01*
X0296293Y0603673D01*
X0004954Y0603673D01*
X0004915Y0603831D02*
X0004915Y0005406D01*
X0034481Y0024933D02*
X0034483Y0025086D01*
X0034489Y0025240D01*
X0034499Y0025393D01*
X0034513Y0025545D01*
X0034531Y0025698D01*
X0034553Y0025849D01*
X0034578Y0026000D01*
X0034608Y0026151D01*
X0034642Y0026301D01*
X0034679Y0026449D01*
X0034720Y0026597D01*
X0034765Y0026743D01*
X0034814Y0026889D01*
X0034867Y0027033D01*
X0034923Y0027175D01*
X0034983Y0027316D01*
X0035047Y0027456D01*
X0035114Y0027594D01*
X0035185Y0027730D01*
X0035260Y0027864D01*
X0035337Y0027996D01*
X0035419Y0028126D01*
X0035503Y0028254D01*
X0035591Y0028380D01*
X0035682Y0028503D01*
X0035776Y0028624D01*
X0035874Y0028742D01*
X0035974Y0028858D01*
X0036078Y0028971D01*
X0036184Y0029082D01*
X0036293Y0029190D01*
X0036405Y0029295D01*
X0036519Y0029396D01*
X0036637Y0029495D01*
X0036756Y0029591D01*
X0036878Y0029684D01*
X0037003Y0029773D01*
X0037130Y0029860D01*
X0037259Y0029942D01*
X0037390Y0030022D01*
X0037523Y0030098D01*
X0037658Y0030171D01*
X0037795Y0030240D01*
X0037934Y0030305D01*
X0038074Y0030367D01*
X0038216Y0030425D01*
X0038359Y0030480D01*
X0038504Y0030531D01*
X0038650Y0030578D01*
X0038797Y0030621D01*
X0038945Y0030660D01*
X0039094Y0030696D01*
X0039244Y0030727D01*
X0039395Y0030755D01*
X0039546Y0030779D01*
X0039699Y0030799D01*
X0039851Y0030815D01*
X0040004Y0030827D01*
X0040157Y0030835D01*
X0040310Y0030839D01*
X0040464Y0030839D01*
X0040617Y0030835D01*
X0040770Y0030827D01*
X0040923Y0030815D01*
X0041075Y0030799D01*
X0041228Y0030779D01*
X0041379Y0030755D01*
X0041530Y0030727D01*
X0041680Y0030696D01*
X0041829Y0030660D01*
X0041977Y0030621D01*
X0042124Y0030578D01*
X0042270Y0030531D01*
X0042415Y0030480D01*
X0042558Y0030425D01*
X0042700Y0030367D01*
X0042840Y0030305D01*
X0042979Y0030240D01*
X0043116Y0030171D01*
X0043251Y0030098D01*
X0043384Y0030022D01*
X0043515Y0029942D01*
X0043644Y0029860D01*
X0043771Y0029773D01*
X0043896Y0029684D01*
X0044018Y0029591D01*
X0044137Y0029495D01*
X0044255Y0029396D01*
X0044369Y0029295D01*
X0044481Y0029190D01*
X0044590Y0029082D01*
X0044696Y0028971D01*
X0044800Y0028858D01*
X0044900Y0028742D01*
X0044998Y0028624D01*
X0045092Y0028503D01*
X0045183Y0028380D01*
X0045271Y0028254D01*
X0045355Y0028126D01*
X0045437Y0027996D01*
X0045514Y0027864D01*
X0045589Y0027730D01*
X0045660Y0027594D01*
X0045727Y0027456D01*
X0045791Y0027316D01*
X0045851Y0027175D01*
X0045907Y0027033D01*
X0045960Y0026889D01*
X0046009Y0026743D01*
X0046054Y0026597D01*
X0046095Y0026449D01*
X0046132Y0026301D01*
X0046166Y0026151D01*
X0046196Y0026000D01*
X0046221Y0025849D01*
X0046243Y0025698D01*
X0046261Y0025545D01*
X0046275Y0025393D01*
X0046285Y0025240D01*
X0046291Y0025086D01*
X0046293Y0024933D01*
X0046291Y0024780D01*
X0046285Y0024626D01*
X0046275Y0024473D01*
X0046261Y0024321D01*
X0046243Y0024168D01*
X0046221Y0024017D01*
X0046196Y0023866D01*
X0046166Y0023715D01*
X0046132Y0023565D01*
X0046095Y0023417D01*
X0046054Y0023269D01*
X0046009Y0023123D01*
X0045960Y0022977D01*
X0045907Y0022833D01*
X0045851Y0022691D01*
X0045791Y0022550D01*
X0045727Y0022410D01*
X0045660Y0022272D01*
X0045589Y0022136D01*
X0045514Y0022002D01*
X0045437Y0021870D01*
X0045355Y0021740D01*
X0045271Y0021612D01*
X0045183Y0021486D01*
X0045092Y0021363D01*
X0044998Y0021242D01*
X0044900Y0021124D01*
X0044800Y0021008D01*
X0044696Y0020895D01*
X0044590Y0020784D01*
X0044481Y0020676D01*
X0044369Y0020571D01*
X0044255Y0020470D01*
X0044137Y0020371D01*
X0044018Y0020275D01*
X0043896Y0020182D01*
X0043771Y0020093D01*
X0043644Y0020006D01*
X0043515Y0019924D01*
X0043384Y0019844D01*
X0043251Y0019768D01*
X0043116Y0019695D01*
X0042979Y0019626D01*
X0042840Y0019561D01*
X0042700Y0019499D01*
X0042558Y0019441D01*
X0042415Y0019386D01*
X0042270Y0019335D01*
X0042124Y0019288D01*
X0041977Y0019245D01*
X0041829Y0019206D01*
X0041680Y0019170D01*
X0041530Y0019139D01*
X0041379Y0019111D01*
X0041228Y0019087D01*
X0041075Y0019067D01*
X0040923Y0019051D01*
X0040770Y0019039D01*
X0040617Y0019031D01*
X0040464Y0019027D01*
X0040310Y0019027D01*
X0040157Y0019031D01*
X0040004Y0019039D01*
X0039851Y0019051D01*
X0039699Y0019067D01*
X0039546Y0019087D01*
X0039395Y0019111D01*
X0039244Y0019139D01*
X0039094Y0019170D01*
X0038945Y0019206D01*
X0038797Y0019245D01*
X0038650Y0019288D01*
X0038504Y0019335D01*
X0038359Y0019386D01*
X0038216Y0019441D01*
X0038074Y0019499D01*
X0037934Y0019561D01*
X0037795Y0019626D01*
X0037658Y0019695D01*
X0037523Y0019768D01*
X0037390Y0019844D01*
X0037259Y0019924D01*
X0037130Y0020006D01*
X0037003Y0020093D01*
X0036878Y0020182D01*
X0036756Y0020275D01*
X0036637Y0020371D01*
X0036519Y0020470D01*
X0036405Y0020571D01*
X0036293Y0020676D01*
X0036184Y0020784D01*
X0036078Y0020895D01*
X0035974Y0021008D01*
X0035874Y0021124D01*
X0035776Y0021242D01*
X0035682Y0021363D01*
X0035591Y0021486D01*
X0035503Y0021612D01*
X0035419Y0021740D01*
X0035337Y0021870D01*
X0035260Y0022002D01*
X0035185Y0022136D01*
X0035114Y0022272D01*
X0035047Y0022410D01*
X0034983Y0022550D01*
X0034923Y0022691D01*
X0034867Y0022833D01*
X0034814Y0022977D01*
X0034765Y0023123D01*
X0034720Y0023269D01*
X0034679Y0023417D01*
X0034642Y0023565D01*
X0034608Y0023715D01*
X0034578Y0023866D01*
X0034553Y0024017D01*
X0034531Y0024168D01*
X0034513Y0024321D01*
X0034499Y0024473D01*
X0034489Y0024626D01*
X0034483Y0024780D01*
X0034481Y0024933D01*
X0034481Y0143043D02*
X0034483Y0143196D01*
X0034489Y0143350D01*
X0034499Y0143503D01*
X0034513Y0143655D01*
X0034531Y0143808D01*
X0034553Y0143959D01*
X0034578Y0144110D01*
X0034608Y0144261D01*
X0034642Y0144411D01*
X0034679Y0144559D01*
X0034720Y0144707D01*
X0034765Y0144853D01*
X0034814Y0144999D01*
X0034867Y0145143D01*
X0034923Y0145285D01*
X0034983Y0145426D01*
X0035047Y0145566D01*
X0035114Y0145704D01*
X0035185Y0145840D01*
X0035260Y0145974D01*
X0035337Y0146106D01*
X0035419Y0146236D01*
X0035503Y0146364D01*
X0035591Y0146490D01*
X0035682Y0146613D01*
X0035776Y0146734D01*
X0035874Y0146852D01*
X0035974Y0146968D01*
X0036078Y0147081D01*
X0036184Y0147192D01*
X0036293Y0147300D01*
X0036405Y0147405D01*
X0036519Y0147506D01*
X0036637Y0147605D01*
X0036756Y0147701D01*
X0036878Y0147794D01*
X0037003Y0147883D01*
X0037130Y0147970D01*
X0037259Y0148052D01*
X0037390Y0148132D01*
X0037523Y0148208D01*
X0037658Y0148281D01*
X0037795Y0148350D01*
X0037934Y0148415D01*
X0038074Y0148477D01*
X0038216Y0148535D01*
X0038359Y0148590D01*
X0038504Y0148641D01*
X0038650Y0148688D01*
X0038797Y0148731D01*
X0038945Y0148770D01*
X0039094Y0148806D01*
X0039244Y0148837D01*
X0039395Y0148865D01*
X0039546Y0148889D01*
X0039699Y0148909D01*
X0039851Y0148925D01*
X0040004Y0148937D01*
X0040157Y0148945D01*
X0040310Y0148949D01*
X0040464Y0148949D01*
X0040617Y0148945D01*
X0040770Y0148937D01*
X0040923Y0148925D01*
X0041075Y0148909D01*
X0041228Y0148889D01*
X0041379Y0148865D01*
X0041530Y0148837D01*
X0041680Y0148806D01*
X0041829Y0148770D01*
X0041977Y0148731D01*
X0042124Y0148688D01*
X0042270Y0148641D01*
X0042415Y0148590D01*
X0042558Y0148535D01*
X0042700Y0148477D01*
X0042840Y0148415D01*
X0042979Y0148350D01*
X0043116Y0148281D01*
X0043251Y0148208D01*
X0043384Y0148132D01*
X0043515Y0148052D01*
X0043644Y0147970D01*
X0043771Y0147883D01*
X0043896Y0147794D01*
X0044018Y0147701D01*
X0044137Y0147605D01*
X0044255Y0147506D01*
X0044369Y0147405D01*
X0044481Y0147300D01*
X0044590Y0147192D01*
X0044696Y0147081D01*
X0044800Y0146968D01*
X0044900Y0146852D01*
X0044998Y0146734D01*
X0045092Y0146613D01*
X0045183Y0146490D01*
X0045271Y0146364D01*
X0045355Y0146236D01*
X0045437Y0146106D01*
X0045514Y0145974D01*
X0045589Y0145840D01*
X0045660Y0145704D01*
X0045727Y0145566D01*
X0045791Y0145426D01*
X0045851Y0145285D01*
X0045907Y0145143D01*
X0045960Y0144999D01*
X0046009Y0144853D01*
X0046054Y0144707D01*
X0046095Y0144559D01*
X0046132Y0144411D01*
X0046166Y0144261D01*
X0046196Y0144110D01*
X0046221Y0143959D01*
X0046243Y0143808D01*
X0046261Y0143655D01*
X0046275Y0143503D01*
X0046285Y0143350D01*
X0046291Y0143196D01*
X0046293Y0143043D01*
X0046291Y0142890D01*
X0046285Y0142736D01*
X0046275Y0142583D01*
X0046261Y0142431D01*
X0046243Y0142278D01*
X0046221Y0142127D01*
X0046196Y0141976D01*
X0046166Y0141825D01*
X0046132Y0141675D01*
X0046095Y0141527D01*
X0046054Y0141379D01*
X0046009Y0141233D01*
X0045960Y0141087D01*
X0045907Y0140943D01*
X0045851Y0140801D01*
X0045791Y0140660D01*
X0045727Y0140520D01*
X0045660Y0140382D01*
X0045589Y0140246D01*
X0045514Y0140112D01*
X0045437Y0139980D01*
X0045355Y0139850D01*
X0045271Y0139722D01*
X0045183Y0139596D01*
X0045092Y0139473D01*
X0044998Y0139352D01*
X0044900Y0139234D01*
X0044800Y0139118D01*
X0044696Y0139005D01*
X0044590Y0138894D01*
X0044481Y0138786D01*
X0044369Y0138681D01*
X0044255Y0138580D01*
X0044137Y0138481D01*
X0044018Y0138385D01*
X0043896Y0138292D01*
X0043771Y0138203D01*
X0043644Y0138116D01*
X0043515Y0138034D01*
X0043384Y0137954D01*
X0043251Y0137878D01*
X0043116Y0137805D01*
X0042979Y0137736D01*
X0042840Y0137671D01*
X0042700Y0137609D01*
X0042558Y0137551D01*
X0042415Y0137496D01*
X0042270Y0137445D01*
X0042124Y0137398D01*
X0041977Y0137355D01*
X0041829Y0137316D01*
X0041680Y0137280D01*
X0041530Y0137249D01*
X0041379Y0137221D01*
X0041228Y0137197D01*
X0041075Y0137177D01*
X0040923Y0137161D01*
X0040770Y0137149D01*
X0040617Y0137141D01*
X0040464Y0137137D01*
X0040310Y0137137D01*
X0040157Y0137141D01*
X0040004Y0137149D01*
X0039851Y0137161D01*
X0039699Y0137177D01*
X0039546Y0137197D01*
X0039395Y0137221D01*
X0039244Y0137249D01*
X0039094Y0137280D01*
X0038945Y0137316D01*
X0038797Y0137355D01*
X0038650Y0137398D01*
X0038504Y0137445D01*
X0038359Y0137496D01*
X0038216Y0137551D01*
X0038074Y0137609D01*
X0037934Y0137671D01*
X0037795Y0137736D01*
X0037658Y0137805D01*
X0037523Y0137878D01*
X0037390Y0137954D01*
X0037259Y0138034D01*
X0037130Y0138116D01*
X0037003Y0138203D01*
X0036878Y0138292D01*
X0036756Y0138385D01*
X0036637Y0138481D01*
X0036519Y0138580D01*
X0036405Y0138681D01*
X0036293Y0138786D01*
X0036184Y0138894D01*
X0036078Y0139005D01*
X0035974Y0139118D01*
X0035874Y0139234D01*
X0035776Y0139352D01*
X0035682Y0139473D01*
X0035591Y0139596D01*
X0035503Y0139722D01*
X0035419Y0139850D01*
X0035337Y0139980D01*
X0035260Y0140112D01*
X0035185Y0140246D01*
X0035114Y0140382D01*
X0035047Y0140520D01*
X0034983Y0140660D01*
X0034923Y0140801D01*
X0034867Y0140943D01*
X0034814Y0141087D01*
X0034765Y0141233D01*
X0034720Y0141379D01*
X0034679Y0141527D01*
X0034642Y0141675D01*
X0034608Y0141825D01*
X0034578Y0141976D01*
X0034553Y0142127D01*
X0034531Y0142278D01*
X0034513Y0142431D01*
X0034499Y0142583D01*
X0034489Y0142736D01*
X0034483Y0142890D01*
X0034481Y0143043D01*
X0004954Y0178476D02*
X0004954Y0335957D01*
X0018812Y0191823D02*
X0018814Y0191948D01*
X0018820Y0192073D01*
X0018830Y0192197D01*
X0018844Y0192321D01*
X0018861Y0192445D01*
X0018883Y0192568D01*
X0018909Y0192690D01*
X0018938Y0192812D01*
X0018971Y0192932D01*
X0019009Y0193051D01*
X0019049Y0193170D01*
X0019094Y0193286D01*
X0019142Y0193401D01*
X0019194Y0193515D01*
X0019250Y0193627D01*
X0019309Y0193737D01*
X0019371Y0193845D01*
X0019437Y0193952D01*
X0019506Y0194056D01*
X0019579Y0194157D01*
X0019654Y0194257D01*
X0019733Y0194354D01*
X0019815Y0194448D01*
X0019900Y0194540D01*
X0019987Y0194629D01*
X0020078Y0194715D01*
X0020171Y0194798D01*
X0020267Y0194879D01*
X0020365Y0194956D01*
X0020465Y0195030D01*
X0020568Y0195101D01*
X0020673Y0195168D01*
X0020781Y0195233D01*
X0020890Y0195293D01*
X0021001Y0195351D01*
X0021114Y0195404D01*
X0021228Y0195454D01*
X0021344Y0195501D01*
X0021461Y0195543D01*
X0021580Y0195582D01*
X0021700Y0195618D01*
X0021821Y0195649D01*
X0021943Y0195677D01*
X0022065Y0195700D01*
X0022189Y0195720D01*
X0022313Y0195736D01*
X0022437Y0195748D01*
X0022562Y0195756D01*
X0022687Y0195760D01*
X0022811Y0195760D01*
X0022936Y0195756D01*
X0023061Y0195748D01*
X0023185Y0195736D01*
X0023309Y0195720D01*
X0023433Y0195700D01*
X0023555Y0195677D01*
X0023677Y0195649D01*
X0023798Y0195618D01*
X0023918Y0195582D01*
X0024037Y0195543D01*
X0024154Y0195501D01*
X0024270Y0195454D01*
X0024384Y0195404D01*
X0024497Y0195351D01*
X0024608Y0195293D01*
X0024718Y0195233D01*
X0024825Y0195168D01*
X0024930Y0195101D01*
X0025033Y0195030D01*
X0025133Y0194956D01*
X0025231Y0194879D01*
X0025327Y0194798D01*
X0025420Y0194715D01*
X0025511Y0194629D01*
X0025598Y0194540D01*
X0025683Y0194448D01*
X0025765Y0194354D01*
X0025844Y0194257D01*
X0025919Y0194157D01*
X0025992Y0194056D01*
X0026061Y0193952D01*
X0026127Y0193845D01*
X0026189Y0193737D01*
X0026248Y0193627D01*
X0026304Y0193515D01*
X0026356Y0193401D01*
X0026404Y0193286D01*
X0026449Y0193170D01*
X0026489Y0193051D01*
X0026527Y0192932D01*
X0026560Y0192812D01*
X0026589Y0192690D01*
X0026615Y0192568D01*
X0026637Y0192445D01*
X0026654Y0192321D01*
X0026668Y0192197D01*
X0026678Y0192073D01*
X0026684Y0191948D01*
X0026686Y0191823D01*
X0026684Y0191698D01*
X0026678Y0191573D01*
X0026668Y0191449D01*
X0026654Y0191325D01*
X0026637Y0191201D01*
X0026615Y0191078D01*
X0026589Y0190956D01*
X0026560Y0190834D01*
X0026527Y0190714D01*
X0026489Y0190595D01*
X0026449Y0190476D01*
X0026404Y0190360D01*
X0026356Y0190245D01*
X0026304Y0190131D01*
X0026248Y0190019D01*
X0026189Y0189909D01*
X0026127Y0189801D01*
X0026061Y0189694D01*
X0025992Y0189590D01*
X0025919Y0189489D01*
X0025844Y0189389D01*
X0025765Y0189292D01*
X0025683Y0189198D01*
X0025598Y0189106D01*
X0025511Y0189017D01*
X0025420Y0188931D01*
X0025327Y0188848D01*
X0025231Y0188767D01*
X0025133Y0188690D01*
X0025033Y0188616D01*
X0024930Y0188545D01*
X0024825Y0188478D01*
X0024717Y0188413D01*
X0024608Y0188353D01*
X0024497Y0188295D01*
X0024384Y0188242D01*
X0024270Y0188192D01*
X0024154Y0188145D01*
X0024037Y0188103D01*
X0023918Y0188064D01*
X0023798Y0188028D01*
X0023677Y0187997D01*
X0023555Y0187969D01*
X0023433Y0187946D01*
X0023309Y0187926D01*
X0023185Y0187910D01*
X0023061Y0187898D01*
X0022936Y0187890D01*
X0022811Y0187886D01*
X0022687Y0187886D01*
X0022562Y0187890D01*
X0022437Y0187898D01*
X0022313Y0187910D01*
X0022189Y0187926D01*
X0022065Y0187946D01*
X0021943Y0187969D01*
X0021821Y0187997D01*
X0021700Y0188028D01*
X0021580Y0188064D01*
X0021461Y0188103D01*
X0021344Y0188145D01*
X0021228Y0188192D01*
X0021114Y0188242D01*
X0021001Y0188295D01*
X0020890Y0188353D01*
X0020780Y0188413D01*
X0020673Y0188478D01*
X0020568Y0188545D01*
X0020465Y0188616D01*
X0020365Y0188690D01*
X0020267Y0188767D01*
X0020171Y0188848D01*
X0020078Y0188931D01*
X0019987Y0189017D01*
X0019900Y0189106D01*
X0019815Y0189198D01*
X0019733Y0189292D01*
X0019654Y0189389D01*
X0019579Y0189489D01*
X0019506Y0189590D01*
X0019437Y0189694D01*
X0019371Y0189801D01*
X0019309Y0189909D01*
X0019250Y0190019D01*
X0019194Y0190131D01*
X0019142Y0190245D01*
X0019094Y0190360D01*
X0019049Y0190476D01*
X0019009Y0190595D01*
X0018971Y0190714D01*
X0018938Y0190834D01*
X0018909Y0190956D01*
X0018883Y0191078D01*
X0018861Y0191201D01*
X0018844Y0191325D01*
X0018830Y0191449D01*
X0018820Y0191573D01*
X0018814Y0191698D01*
X0018812Y0191823D01*
X0245629Y0244053D02*
X0245631Y0244144D01*
X0245637Y0244234D01*
X0245647Y0244325D01*
X0245661Y0244414D01*
X0245679Y0244503D01*
X0245700Y0244592D01*
X0245726Y0244679D01*
X0245755Y0244765D01*
X0245789Y0244849D01*
X0245825Y0244932D01*
X0245866Y0245014D01*
X0245910Y0245093D01*
X0245957Y0245171D01*
X0246008Y0245246D01*
X0246062Y0245319D01*
X0246119Y0245389D01*
X0246179Y0245457D01*
X0246242Y0245523D01*
X0246308Y0245585D01*
X0246377Y0245644D01*
X0246448Y0245701D01*
X0246522Y0245754D01*
X0246598Y0245804D01*
X0246676Y0245851D01*
X0246756Y0245894D01*
X0246837Y0245933D01*
X0246921Y0245969D01*
X0247006Y0246001D01*
X0247092Y0246030D01*
X0247179Y0246054D01*
X0247268Y0246075D01*
X0247357Y0246092D01*
X0247447Y0246105D01*
X0247537Y0246114D01*
X0247628Y0246119D01*
X0247719Y0246120D01*
X0247809Y0246117D01*
X0247900Y0246110D01*
X0247990Y0246099D01*
X0248080Y0246084D01*
X0248169Y0246065D01*
X0248257Y0246043D01*
X0248343Y0246016D01*
X0248429Y0245986D01*
X0248513Y0245952D01*
X0248596Y0245914D01*
X0248677Y0245873D01*
X0248756Y0245828D01*
X0248833Y0245779D01*
X0248907Y0245728D01*
X0248980Y0245673D01*
X0249050Y0245615D01*
X0249117Y0245554D01*
X0249181Y0245490D01*
X0249243Y0245424D01*
X0249302Y0245354D01*
X0249357Y0245283D01*
X0249410Y0245208D01*
X0249459Y0245132D01*
X0249505Y0245054D01*
X0249547Y0244973D01*
X0249586Y0244891D01*
X0249621Y0244807D01*
X0249652Y0244722D01*
X0249679Y0244635D01*
X0249703Y0244548D01*
X0249723Y0244459D01*
X0249739Y0244370D01*
X0249751Y0244280D01*
X0249759Y0244189D01*
X0249763Y0244098D01*
X0249763Y0244008D01*
X0249759Y0243917D01*
X0249751Y0243826D01*
X0249739Y0243736D01*
X0249723Y0243647D01*
X0249703Y0243558D01*
X0249679Y0243471D01*
X0249652Y0243384D01*
X0249621Y0243299D01*
X0249586Y0243215D01*
X0249547Y0243133D01*
X0249505Y0243052D01*
X0249459Y0242974D01*
X0249410Y0242898D01*
X0249357Y0242823D01*
X0249302Y0242752D01*
X0249243Y0242682D01*
X0249181Y0242616D01*
X0249117Y0242552D01*
X0249050Y0242491D01*
X0248980Y0242433D01*
X0248907Y0242378D01*
X0248833Y0242327D01*
X0248756Y0242278D01*
X0248677Y0242233D01*
X0248596Y0242192D01*
X0248513Y0242154D01*
X0248429Y0242120D01*
X0248343Y0242090D01*
X0248257Y0242063D01*
X0248169Y0242041D01*
X0248080Y0242022D01*
X0247990Y0242007D01*
X0247900Y0241996D01*
X0247809Y0241989D01*
X0247719Y0241986D01*
X0247628Y0241987D01*
X0247537Y0241992D01*
X0247447Y0242001D01*
X0247357Y0242014D01*
X0247268Y0242031D01*
X0247179Y0242052D01*
X0247092Y0242076D01*
X0247006Y0242105D01*
X0246921Y0242137D01*
X0246837Y0242173D01*
X0246756Y0242212D01*
X0246676Y0242255D01*
X0246598Y0242302D01*
X0246522Y0242352D01*
X0246448Y0242405D01*
X0246377Y0242462D01*
X0246308Y0242521D01*
X0246242Y0242583D01*
X0246179Y0242649D01*
X0246119Y0242717D01*
X0246062Y0242787D01*
X0246008Y0242860D01*
X0245957Y0242935D01*
X0245910Y0243013D01*
X0245866Y0243092D01*
X0245825Y0243174D01*
X0245789Y0243257D01*
X0245755Y0243341D01*
X0245726Y0243427D01*
X0245700Y0243514D01*
X0245679Y0243603D01*
X0245661Y0243692D01*
X0245647Y0243781D01*
X0245637Y0243872D01*
X0245631Y0243962D01*
X0245629Y0244053D01*
X0256799Y0254632D02*
X0256801Y0254709D01*
X0256807Y0254785D01*
X0256817Y0254861D01*
X0256831Y0254936D01*
X0256848Y0255011D01*
X0256870Y0255084D01*
X0256895Y0255157D01*
X0256925Y0255228D01*
X0256957Y0255297D01*
X0256994Y0255364D01*
X0257033Y0255430D01*
X0257076Y0255493D01*
X0257123Y0255554D01*
X0257172Y0255613D01*
X0257225Y0255669D01*
X0257280Y0255722D01*
X0257338Y0255772D01*
X0257398Y0255819D01*
X0257461Y0255863D01*
X0257526Y0255904D01*
X0257593Y0255941D01*
X0257662Y0255975D01*
X0257732Y0256005D01*
X0257804Y0256031D01*
X0257878Y0256053D01*
X0257952Y0256072D01*
X0258027Y0256087D01*
X0258103Y0256098D01*
X0258179Y0256105D01*
X0258256Y0256108D01*
X0258332Y0256107D01*
X0258409Y0256102D01*
X0258485Y0256093D01*
X0258561Y0256080D01*
X0258635Y0256063D01*
X0258709Y0256043D01*
X0258782Y0256018D01*
X0258853Y0255990D01*
X0258923Y0255958D01*
X0258991Y0255923D01*
X0259057Y0255884D01*
X0259121Y0255842D01*
X0259182Y0255796D01*
X0259242Y0255747D01*
X0259298Y0255696D01*
X0259352Y0255641D01*
X0259403Y0255584D01*
X0259451Y0255524D01*
X0259496Y0255462D01*
X0259537Y0255397D01*
X0259575Y0255331D01*
X0259610Y0255263D01*
X0259640Y0255192D01*
X0259668Y0255121D01*
X0259691Y0255048D01*
X0259711Y0254974D01*
X0259727Y0254899D01*
X0259739Y0254823D01*
X0259747Y0254747D01*
X0259751Y0254670D01*
X0259751Y0254594D01*
X0259747Y0254517D01*
X0259739Y0254441D01*
X0259727Y0254365D01*
X0259711Y0254290D01*
X0259691Y0254216D01*
X0259668Y0254143D01*
X0259640Y0254072D01*
X0259610Y0254001D01*
X0259575Y0253933D01*
X0259537Y0253867D01*
X0259496Y0253802D01*
X0259451Y0253740D01*
X0259403Y0253680D01*
X0259352Y0253623D01*
X0259298Y0253568D01*
X0259242Y0253517D01*
X0259182Y0253468D01*
X0259121Y0253422D01*
X0259057Y0253380D01*
X0258991Y0253341D01*
X0258923Y0253306D01*
X0258853Y0253274D01*
X0258782Y0253246D01*
X0258709Y0253221D01*
X0258635Y0253201D01*
X0258561Y0253184D01*
X0258485Y0253171D01*
X0258409Y0253162D01*
X0258332Y0253157D01*
X0258256Y0253156D01*
X0258179Y0253159D01*
X0258103Y0253166D01*
X0258027Y0253177D01*
X0257952Y0253192D01*
X0257878Y0253211D01*
X0257804Y0253233D01*
X0257732Y0253259D01*
X0257662Y0253289D01*
X0257593Y0253323D01*
X0257526Y0253360D01*
X0257461Y0253401D01*
X0257398Y0253445D01*
X0257338Y0253492D01*
X0257280Y0253542D01*
X0257225Y0253595D01*
X0257172Y0253651D01*
X0257123Y0253710D01*
X0257076Y0253771D01*
X0257033Y0253834D01*
X0256994Y0253900D01*
X0256957Y0253967D01*
X0256925Y0254036D01*
X0256895Y0254107D01*
X0256870Y0254180D01*
X0256848Y0254253D01*
X0256831Y0254328D01*
X0256817Y0254403D01*
X0256807Y0254479D01*
X0256801Y0254555D01*
X0256799Y0254632D01*
X0296293Y0178476D02*
X0296293Y0335957D01*
X0296253Y0351862D02*
X0296253Y0509343D01*
X0119127Y0536744D02*
X0119129Y0536869D01*
X0119135Y0536994D01*
X0119145Y0537118D01*
X0119159Y0537242D01*
X0119176Y0537366D01*
X0119198Y0537489D01*
X0119224Y0537611D01*
X0119253Y0537733D01*
X0119286Y0537853D01*
X0119324Y0537972D01*
X0119364Y0538091D01*
X0119409Y0538207D01*
X0119457Y0538322D01*
X0119509Y0538436D01*
X0119565Y0538548D01*
X0119624Y0538658D01*
X0119686Y0538766D01*
X0119752Y0538873D01*
X0119821Y0538977D01*
X0119894Y0539078D01*
X0119969Y0539178D01*
X0120048Y0539275D01*
X0120130Y0539369D01*
X0120215Y0539461D01*
X0120302Y0539550D01*
X0120393Y0539636D01*
X0120486Y0539719D01*
X0120582Y0539800D01*
X0120680Y0539877D01*
X0120780Y0539951D01*
X0120883Y0540022D01*
X0120988Y0540089D01*
X0121096Y0540154D01*
X0121205Y0540214D01*
X0121316Y0540272D01*
X0121429Y0540325D01*
X0121543Y0540375D01*
X0121659Y0540422D01*
X0121776Y0540464D01*
X0121895Y0540503D01*
X0122015Y0540539D01*
X0122136Y0540570D01*
X0122258Y0540598D01*
X0122380Y0540621D01*
X0122504Y0540641D01*
X0122628Y0540657D01*
X0122752Y0540669D01*
X0122877Y0540677D01*
X0123002Y0540681D01*
X0123126Y0540681D01*
X0123251Y0540677D01*
X0123376Y0540669D01*
X0123500Y0540657D01*
X0123624Y0540641D01*
X0123748Y0540621D01*
X0123870Y0540598D01*
X0123992Y0540570D01*
X0124113Y0540539D01*
X0124233Y0540503D01*
X0124352Y0540464D01*
X0124469Y0540422D01*
X0124585Y0540375D01*
X0124699Y0540325D01*
X0124812Y0540272D01*
X0124923Y0540214D01*
X0125033Y0540154D01*
X0125140Y0540089D01*
X0125245Y0540022D01*
X0125348Y0539951D01*
X0125448Y0539877D01*
X0125546Y0539800D01*
X0125642Y0539719D01*
X0125735Y0539636D01*
X0125826Y0539550D01*
X0125913Y0539461D01*
X0125998Y0539369D01*
X0126080Y0539275D01*
X0126159Y0539178D01*
X0126234Y0539078D01*
X0126307Y0538977D01*
X0126376Y0538873D01*
X0126442Y0538766D01*
X0126504Y0538658D01*
X0126563Y0538548D01*
X0126619Y0538436D01*
X0126671Y0538322D01*
X0126719Y0538207D01*
X0126764Y0538091D01*
X0126804Y0537972D01*
X0126842Y0537853D01*
X0126875Y0537733D01*
X0126904Y0537611D01*
X0126930Y0537489D01*
X0126952Y0537366D01*
X0126969Y0537242D01*
X0126983Y0537118D01*
X0126993Y0536994D01*
X0126999Y0536869D01*
X0127001Y0536744D01*
X0126999Y0536619D01*
X0126993Y0536494D01*
X0126983Y0536370D01*
X0126969Y0536246D01*
X0126952Y0536122D01*
X0126930Y0535999D01*
X0126904Y0535877D01*
X0126875Y0535755D01*
X0126842Y0535635D01*
X0126804Y0535516D01*
X0126764Y0535397D01*
X0126719Y0535281D01*
X0126671Y0535166D01*
X0126619Y0535052D01*
X0126563Y0534940D01*
X0126504Y0534830D01*
X0126442Y0534722D01*
X0126376Y0534615D01*
X0126307Y0534511D01*
X0126234Y0534410D01*
X0126159Y0534310D01*
X0126080Y0534213D01*
X0125998Y0534119D01*
X0125913Y0534027D01*
X0125826Y0533938D01*
X0125735Y0533852D01*
X0125642Y0533769D01*
X0125546Y0533688D01*
X0125448Y0533611D01*
X0125348Y0533537D01*
X0125245Y0533466D01*
X0125140Y0533399D01*
X0125032Y0533334D01*
X0124923Y0533274D01*
X0124812Y0533216D01*
X0124699Y0533163D01*
X0124585Y0533113D01*
X0124469Y0533066D01*
X0124352Y0533024D01*
X0124233Y0532985D01*
X0124113Y0532949D01*
X0123992Y0532918D01*
X0123870Y0532890D01*
X0123748Y0532867D01*
X0123624Y0532847D01*
X0123500Y0532831D01*
X0123376Y0532819D01*
X0123251Y0532811D01*
X0123126Y0532807D01*
X0123002Y0532807D01*
X0122877Y0532811D01*
X0122752Y0532819D01*
X0122628Y0532831D01*
X0122504Y0532847D01*
X0122380Y0532867D01*
X0122258Y0532890D01*
X0122136Y0532918D01*
X0122015Y0532949D01*
X0121895Y0532985D01*
X0121776Y0533024D01*
X0121659Y0533066D01*
X0121543Y0533113D01*
X0121429Y0533163D01*
X0121316Y0533216D01*
X0121205Y0533274D01*
X0121095Y0533334D01*
X0120988Y0533399D01*
X0120883Y0533466D01*
X0120780Y0533537D01*
X0120680Y0533611D01*
X0120582Y0533688D01*
X0120486Y0533769D01*
X0120393Y0533852D01*
X0120302Y0533938D01*
X0120215Y0534027D01*
X0120130Y0534119D01*
X0120048Y0534213D01*
X0119969Y0534310D01*
X0119894Y0534410D01*
X0119821Y0534511D01*
X0119752Y0534615D01*
X0119686Y0534722D01*
X0119624Y0534830D01*
X0119565Y0534940D01*
X0119509Y0535052D01*
X0119457Y0535166D01*
X0119409Y0535281D01*
X0119364Y0535397D01*
X0119324Y0535516D01*
X0119286Y0535635D01*
X0119253Y0535755D01*
X0119224Y0535877D01*
X0119198Y0535999D01*
X0119176Y0536122D01*
X0119159Y0536246D01*
X0119145Y0536370D01*
X0119135Y0536494D01*
X0119129Y0536619D01*
X0119127Y0536744D01*
X0119127Y0591862D02*
X0119129Y0591987D01*
X0119135Y0592112D01*
X0119145Y0592236D01*
X0119159Y0592360D01*
X0119176Y0592484D01*
X0119198Y0592607D01*
X0119224Y0592729D01*
X0119253Y0592851D01*
X0119286Y0592971D01*
X0119324Y0593090D01*
X0119364Y0593209D01*
X0119409Y0593325D01*
X0119457Y0593440D01*
X0119509Y0593554D01*
X0119565Y0593666D01*
X0119624Y0593776D01*
X0119686Y0593884D01*
X0119752Y0593991D01*
X0119821Y0594095D01*
X0119894Y0594196D01*
X0119969Y0594296D01*
X0120048Y0594393D01*
X0120130Y0594487D01*
X0120215Y0594579D01*
X0120302Y0594668D01*
X0120393Y0594754D01*
X0120486Y0594837D01*
X0120582Y0594918D01*
X0120680Y0594995D01*
X0120780Y0595069D01*
X0120883Y0595140D01*
X0120988Y0595207D01*
X0121096Y0595272D01*
X0121205Y0595332D01*
X0121316Y0595390D01*
X0121429Y0595443D01*
X0121543Y0595493D01*
X0121659Y0595540D01*
X0121776Y0595582D01*
X0121895Y0595621D01*
X0122015Y0595657D01*
X0122136Y0595688D01*
X0122258Y0595716D01*
X0122380Y0595739D01*
X0122504Y0595759D01*
X0122628Y0595775D01*
X0122752Y0595787D01*
X0122877Y0595795D01*
X0123002Y0595799D01*
X0123126Y0595799D01*
X0123251Y0595795D01*
X0123376Y0595787D01*
X0123500Y0595775D01*
X0123624Y0595759D01*
X0123748Y0595739D01*
X0123870Y0595716D01*
X0123992Y0595688D01*
X0124113Y0595657D01*
X0124233Y0595621D01*
X0124352Y0595582D01*
X0124469Y0595540D01*
X0124585Y0595493D01*
X0124699Y0595443D01*
X0124812Y0595390D01*
X0124923Y0595332D01*
X0125033Y0595272D01*
X0125140Y0595207D01*
X0125245Y0595140D01*
X0125348Y0595069D01*
X0125448Y0594995D01*
X0125546Y0594918D01*
X0125642Y0594837D01*
X0125735Y0594754D01*
X0125826Y0594668D01*
X0125913Y0594579D01*
X0125998Y0594487D01*
X0126080Y0594393D01*
X0126159Y0594296D01*
X0126234Y0594196D01*
X0126307Y0594095D01*
X0126376Y0593991D01*
X0126442Y0593884D01*
X0126504Y0593776D01*
X0126563Y0593666D01*
X0126619Y0593554D01*
X0126671Y0593440D01*
X0126719Y0593325D01*
X0126764Y0593209D01*
X0126804Y0593090D01*
X0126842Y0592971D01*
X0126875Y0592851D01*
X0126904Y0592729D01*
X0126930Y0592607D01*
X0126952Y0592484D01*
X0126969Y0592360D01*
X0126983Y0592236D01*
X0126993Y0592112D01*
X0126999Y0591987D01*
X0127001Y0591862D01*
X0126999Y0591737D01*
X0126993Y0591612D01*
X0126983Y0591488D01*
X0126969Y0591364D01*
X0126952Y0591240D01*
X0126930Y0591117D01*
X0126904Y0590995D01*
X0126875Y0590873D01*
X0126842Y0590753D01*
X0126804Y0590634D01*
X0126764Y0590515D01*
X0126719Y0590399D01*
X0126671Y0590284D01*
X0126619Y0590170D01*
X0126563Y0590058D01*
X0126504Y0589948D01*
X0126442Y0589840D01*
X0126376Y0589733D01*
X0126307Y0589629D01*
X0126234Y0589528D01*
X0126159Y0589428D01*
X0126080Y0589331D01*
X0125998Y0589237D01*
X0125913Y0589145D01*
X0125826Y0589056D01*
X0125735Y0588970D01*
X0125642Y0588887D01*
X0125546Y0588806D01*
X0125448Y0588729D01*
X0125348Y0588655D01*
X0125245Y0588584D01*
X0125140Y0588517D01*
X0125032Y0588452D01*
X0124923Y0588392D01*
X0124812Y0588334D01*
X0124699Y0588281D01*
X0124585Y0588231D01*
X0124469Y0588184D01*
X0124352Y0588142D01*
X0124233Y0588103D01*
X0124113Y0588067D01*
X0123992Y0588036D01*
X0123870Y0588008D01*
X0123748Y0587985D01*
X0123624Y0587965D01*
X0123500Y0587949D01*
X0123376Y0587937D01*
X0123251Y0587929D01*
X0123126Y0587925D01*
X0123002Y0587925D01*
X0122877Y0587929D01*
X0122752Y0587937D01*
X0122628Y0587949D01*
X0122504Y0587965D01*
X0122380Y0587985D01*
X0122258Y0588008D01*
X0122136Y0588036D01*
X0122015Y0588067D01*
X0121895Y0588103D01*
X0121776Y0588142D01*
X0121659Y0588184D01*
X0121543Y0588231D01*
X0121429Y0588281D01*
X0121316Y0588334D01*
X0121205Y0588392D01*
X0121095Y0588452D01*
X0120988Y0588517D01*
X0120883Y0588584D01*
X0120780Y0588655D01*
X0120680Y0588729D01*
X0120582Y0588806D01*
X0120486Y0588887D01*
X0120393Y0588970D01*
X0120302Y0589056D01*
X0120215Y0589145D01*
X0120130Y0589237D01*
X0120048Y0589331D01*
X0119969Y0589428D01*
X0119894Y0589528D01*
X0119821Y0589629D01*
X0119752Y0589733D01*
X0119686Y0589840D01*
X0119624Y0589948D01*
X0119565Y0590058D01*
X0119509Y0590170D01*
X0119457Y0590284D01*
X0119409Y0590399D01*
X0119364Y0590515D01*
X0119324Y0590634D01*
X0119286Y0590753D01*
X0119253Y0590873D01*
X0119224Y0590995D01*
X0119198Y0591117D01*
X0119176Y0591240D01*
X0119159Y0591364D01*
X0119145Y0591488D01*
X0119135Y0591612D01*
X0119129Y0591737D01*
X0119127Y0591862D01*
X0012828Y0591862D02*
X0012830Y0591987D01*
X0012836Y0592112D01*
X0012846Y0592236D01*
X0012860Y0592360D01*
X0012877Y0592484D01*
X0012899Y0592607D01*
X0012925Y0592729D01*
X0012954Y0592851D01*
X0012987Y0592971D01*
X0013025Y0593090D01*
X0013065Y0593209D01*
X0013110Y0593325D01*
X0013158Y0593440D01*
X0013210Y0593554D01*
X0013266Y0593666D01*
X0013325Y0593776D01*
X0013387Y0593884D01*
X0013453Y0593991D01*
X0013522Y0594095D01*
X0013595Y0594196D01*
X0013670Y0594296D01*
X0013749Y0594393D01*
X0013831Y0594487D01*
X0013916Y0594579D01*
X0014003Y0594668D01*
X0014094Y0594754D01*
X0014187Y0594837D01*
X0014283Y0594918D01*
X0014381Y0594995D01*
X0014481Y0595069D01*
X0014584Y0595140D01*
X0014689Y0595207D01*
X0014797Y0595272D01*
X0014906Y0595332D01*
X0015017Y0595390D01*
X0015130Y0595443D01*
X0015244Y0595493D01*
X0015360Y0595540D01*
X0015477Y0595582D01*
X0015596Y0595621D01*
X0015716Y0595657D01*
X0015837Y0595688D01*
X0015959Y0595716D01*
X0016081Y0595739D01*
X0016205Y0595759D01*
X0016329Y0595775D01*
X0016453Y0595787D01*
X0016578Y0595795D01*
X0016703Y0595799D01*
X0016827Y0595799D01*
X0016952Y0595795D01*
X0017077Y0595787D01*
X0017201Y0595775D01*
X0017325Y0595759D01*
X0017449Y0595739D01*
X0017571Y0595716D01*
X0017693Y0595688D01*
X0017814Y0595657D01*
X0017934Y0595621D01*
X0018053Y0595582D01*
X0018170Y0595540D01*
X0018286Y0595493D01*
X0018400Y0595443D01*
X0018513Y0595390D01*
X0018624Y0595332D01*
X0018734Y0595272D01*
X0018841Y0595207D01*
X0018946Y0595140D01*
X0019049Y0595069D01*
X0019149Y0594995D01*
X0019247Y0594918D01*
X0019343Y0594837D01*
X0019436Y0594754D01*
X0019527Y0594668D01*
X0019614Y0594579D01*
X0019699Y0594487D01*
X0019781Y0594393D01*
X0019860Y0594296D01*
X0019935Y0594196D01*
X0020008Y0594095D01*
X0020077Y0593991D01*
X0020143Y0593884D01*
X0020205Y0593776D01*
X0020264Y0593666D01*
X0020320Y0593554D01*
X0020372Y0593440D01*
X0020420Y0593325D01*
X0020465Y0593209D01*
X0020505Y0593090D01*
X0020543Y0592971D01*
X0020576Y0592851D01*
X0020605Y0592729D01*
X0020631Y0592607D01*
X0020653Y0592484D01*
X0020670Y0592360D01*
X0020684Y0592236D01*
X0020694Y0592112D01*
X0020700Y0591987D01*
X0020702Y0591862D01*
X0020700Y0591737D01*
X0020694Y0591612D01*
X0020684Y0591488D01*
X0020670Y0591364D01*
X0020653Y0591240D01*
X0020631Y0591117D01*
X0020605Y0590995D01*
X0020576Y0590873D01*
X0020543Y0590753D01*
X0020505Y0590634D01*
X0020465Y0590515D01*
X0020420Y0590399D01*
X0020372Y0590284D01*
X0020320Y0590170D01*
X0020264Y0590058D01*
X0020205Y0589948D01*
X0020143Y0589840D01*
X0020077Y0589733D01*
X0020008Y0589629D01*
X0019935Y0589528D01*
X0019860Y0589428D01*
X0019781Y0589331D01*
X0019699Y0589237D01*
X0019614Y0589145D01*
X0019527Y0589056D01*
X0019436Y0588970D01*
X0019343Y0588887D01*
X0019247Y0588806D01*
X0019149Y0588729D01*
X0019049Y0588655D01*
X0018946Y0588584D01*
X0018841Y0588517D01*
X0018733Y0588452D01*
X0018624Y0588392D01*
X0018513Y0588334D01*
X0018400Y0588281D01*
X0018286Y0588231D01*
X0018170Y0588184D01*
X0018053Y0588142D01*
X0017934Y0588103D01*
X0017814Y0588067D01*
X0017693Y0588036D01*
X0017571Y0588008D01*
X0017449Y0587985D01*
X0017325Y0587965D01*
X0017201Y0587949D01*
X0017077Y0587937D01*
X0016952Y0587929D01*
X0016827Y0587925D01*
X0016703Y0587925D01*
X0016578Y0587929D01*
X0016453Y0587937D01*
X0016329Y0587949D01*
X0016205Y0587965D01*
X0016081Y0587985D01*
X0015959Y0588008D01*
X0015837Y0588036D01*
X0015716Y0588067D01*
X0015596Y0588103D01*
X0015477Y0588142D01*
X0015360Y0588184D01*
X0015244Y0588231D01*
X0015130Y0588281D01*
X0015017Y0588334D01*
X0014906Y0588392D01*
X0014796Y0588452D01*
X0014689Y0588517D01*
X0014584Y0588584D01*
X0014481Y0588655D01*
X0014381Y0588729D01*
X0014283Y0588806D01*
X0014187Y0588887D01*
X0014094Y0588970D01*
X0014003Y0589056D01*
X0013916Y0589145D01*
X0013831Y0589237D01*
X0013749Y0589331D01*
X0013670Y0589428D01*
X0013595Y0589528D01*
X0013522Y0589629D01*
X0013453Y0589733D01*
X0013387Y0589840D01*
X0013325Y0589948D01*
X0013266Y0590058D01*
X0013210Y0590170D01*
X0013158Y0590284D01*
X0013110Y0590399D01*
X0013065Y0590515D01*
X0013025Y0590634D01*
X0012987Y0590753D01*
X0012954Y0590873D01*
X0012925Y0590995D01*
X0012899Y0591117D01*
X0012877Y0591240D01*
X0012860Y0591364D01*
X0012846Y0591488D01*
X0012836Y0591612D01*
X0012830Y0591737D01*
X0012828Y0591862D01*
X0012828Y0536744D02*
X0012830Y0536869D01*
X0012836Y0536994D01*
X0012846Y0537118D01*
X0012860Y0537242D01*
X0012877Y0537366D01*
X0012899Y0537489D01*
X0012925Y0537611D01*
X0012954Y0537733D01*
X0012987Y0537853D01*
X0013025Y0537972D01*
X0013065Y0538091D01*
X0013110Y0538207D01*
X0013158Y0538322D01*
X0013210Y0538436D01*
X0013266Y0538548D01*
X0013325Y0538658D01*
X0013387Y0538766D01*
X0013453Y0538873D01*
X0013522Y0538977D01*
X0013595Y0539078D01*
X0013670Y0539178D01*
X0013749Y0539275D01*
X0013831Y0539369D01*
X0013916Y0539461D01*
X0014003Y0539550D01*
X0014094Y0539636D01*
X0014187Y0539719D01*
X0014283Y0539800D01*
X0014381Y0539877D01*
X0014481Y0539951D01*
X0014584Y0540022D01*
X0014689Y0540089D01*
X0014797Y0540154D01*
X0014906Y0540214D01*
X0015017Y0540272D01*
X0015130Y0540325D01*
X0015244Y0540375D01*
X0015360Y0540422D01*
X0015477Y0540464D01*
X0015596Y0540503D01*
X0015716Y0540539D01*
X0015837Y0540570D01*
X0015959Y0540598D01*
X0016081Y0540621D01*
X0016205Y0540641D01*
X0016329Y0540657D01*
X0016453Y0540669D01*
X0016578Y0540677D01*
X0016703Y0540681D01*
X0016827Y0540681D01*
X0016952Y0540677D01*
X0017077Y0540669D01*
X0017201Y0540657D01*
X0017325Y0540641D01*
X0017449Y0540621D01*
X0017571Y0540598D01*
X0017693Y0540570D01*
X0017814Y0540539D01*
X0017934Y0540503D01*
X0018053Y0540464D01*
X0018170Y0540422D01*
X0018286Y0540375D01*
X0018400Y0540325D01*
X0018513Y0540272D01*
X0018624Y0540214D01*
X0018734Y0540154D01*
X0018841Y0540089D01*
X0018946Y0540022D01*
X0019049Y0539951D01*
X0019149Y0539877D01*
X0019247Y0539800D01*
X0019343Y0539719D01*
X0019436Y0539636D01*
X0019527Y0539550D01*
X0019614Y0539461D01*
X0019699Y0539369D01*
X0019781Y0539275D01*
X0019860Y0539178D01*
X0019935Y0539078D01*
X0020008Y0538977D01*
X0020077Y0538873D01*
X0020143Y0538766D01*
X0020205Y0538658D01*
X0020264Y0538548D01*
X0020320Y0538436D01*
X0020372Y0538322D01*
X0020420Y0538207D01*
X0020465Y0538091D01*
X0020505Y0537972D01*
X0020543Y0537853D01*
X0020576Y0537733D01*
X0020605Y0537611D01*
X0020631Y0537489D01*
X0020653Y0537366D01*
X0020670Y0537242D01*
X0020684Y0537118D01*
X0020694Y0536994D01*
X0020700Y0536869D01*
X0020702Y0536744D01*
X0020700Y0536619D01*
X0020694Y0536494D01*
X0020684Y0536370D01*
X0020670Y0536246D01*
X0020653Y0536122D01*
X0020631Y0535999D01*
X0020605Y0535877D01*
X0020576Y0535755D01*
X0020543Y0535635D01*
X0020505Y0535516D01*
X0020465Y0535397D01*
X0020420Y0535281D01*
X0020372Y0535166D01*
X0020320Y0535052D01*
X0020264Y0534940D01*
X0020205Y0534830D01*
X0020143Y0534722D01*
X0020077Y0534615D01*
X0020008Y0534511D01*
X0019935Y0534410D01*
X0019860Y0534310D01*
X0019781Y0534213D01*
X0019699Y0534119D01*
X0019614Y0534027D01*
X0019527Y0533938D01*
X0019436Y0533852D01*
X0019343Y0533769D01*
X0019247Y0533688D01*
X0019149Y0533611D01*
X0019049Y0533537D01*
X0018946Y0533466D01*
X0018841Y0533399D01*
X0018733Y0533334D01*
X0018624Y0533274D01*
X0018513Y0533216D01*
X0018400Y0533163D01*
X0018286Y0533113D01*
X0018170Y0533066D01*
X0018053Y0533024D01*
X0017934Y0532985D01*
X0017814Y0532949D01*
X0017693Y0532918D01*
X0017571Y0532890D01*
X0017449Y0532867D01*
X0017325Y0532847D01*
X0017201Y0532831D01*
X0017077Y0532819D01*
X0016952Y0532811D01*
X0016827Y0532807D01*
X0016703Y0532807D01*
X0016578Y0532811D01*
X0016453Y0532819D01*
X0016329Y0532831D01*
X0016205Y0532847D01*
X0016081Y0532867D01*
X0015959Y0532890D01*
X0015837Y0532918D01*
X0015716Y0532949D01*
X0015596Y0532985D01*
X0015477Y0533024D01*
X0015360Y0533066D01*
X0015244Y0533113D01*
X0015130Y0533163D01*
X0015017Y0533216D01*
X0014906Y0533274D01*
X0014796Y0533334D01*
X0014689Y0533399D01*
X0014584Y0533466D01*
X0014481Y0533537D01*
X0014381Y0533611D01*
X0014283Y0533688D01*
X0014187Y0533769D01*
X0014094Y0533852D01*
X0014003Y0533938D01*
X0013916Y0534027D01*
X0013831Y0534119D01*
X0013749Y0534213D01*
X0013670Y0534310D01*
X0013595Y0534410D01*
X0013522Y0534511D01*
X0013453Y0534615D01*
X0013387Y0534722D01*
X0013325Y0534830D01*
X0013266Y0534940D01*
X0013210Y0535052D01*
X0013158Y0535166D01*
X0013110Y0535281D01*
X0013065Y0535397D01*
X0013025Y0535516D01*
X0012987Y0535635D01*
X0012954Y0535755D01*
X0012925Y0535877D01*
X0012899Y0535999D01*
X0012877Y0536122D01*
X0012860Y0536246D01*
X0012846Y0536370D01*
X0012836Y0536494D01*
X0012830Y0536619D01*
X0012828Y0536744D01*
X0278576Y0143043D02*
X0278578Y0143196D01*
X0278584Y0143350D01*
X0278594Y0143503D01*
X0278608Y0143655D01*
X0278626Y0143808D01*
X0278648Y0143959D01*
X0278673Y0144110D01*
X0278703Y0144261D01*
X0278737Y0144411D01*
X0278774Y0144559D01*
X0278815Y0144707D01*
X0278860Y0144853D01*
X0278909Y0144999D01*
X0278962Y0145143D01*
X0279018Y0145285D01*
X0279078Y0145426D01*
X0279142Y0145566D01*
X0279209Y0145704D01*
X0279280Y0145840D01*
X0279355Y0145974D01*
X0279432Y0146106D01*
X0279514Y0146236D01*
X0279598Y0146364D01*
X0279686Y0146490D01*
X0279777Y0146613D01*
X0279871Y0146734D01*
X0279969Y0146852D01*
X0280069Y0146968D01*
X0280173Y0147081D01*
X0280279Y0147192D01*
X0280388Y0147300D01*
X0280500Y0147405D01*
X0280614Y0147506D01*
X0280732Y0147605D01*
X0280851Y0147701D01*
X0280973Y0147794D01*
X0281098Y0147883D01*
X0281225Y0147970D01*
X0281354Y0148052D01*
X0281485Y0148132D01*
X0281618Y0148208D01*
X0281753Y0148281D01*
X0281890Y0148350D01*
X0282029Y0148415D01*
X0282169Y0148477D01*
X0282311Y0148535D01*
X0282454Y0148590D01*
X0282599Y0148641D01*
X0282745Y0148688D01*
X0282892Y0148731D01*
X0283040Y0148770D01*
X0283189Y0148806D01*
X0283339Y0148837D01*
X0283490Y0148865D01*
X0283641Y0148889D01*
X0283794Y0148909D01*
X0283946Y0148925D01*
X0284099Y0148937D01*
X0284252Y0148945D01*
X0284405Y0148949D01*
X0284559Y0148949D01*
X0284712Y0148945D01*
X0284865Y0148937D01*
X0285018Y0148925D01*
X0285170Y0148909D01*
X0285323Y0148889D01*
X0285474Y0148865D01*
X0285625Y0148837D01*
X0285775Y0148806D01*
X0285924Y0148770D01*
X0286072Y0148731D01*
X0286219Y0148688D01*
X0286365Y0148641D01*
X0286510Y0148590D01*
X0286653Y0148535D01*
X0286795Y0148477D01*
X0286935Y0148415D01*
X0287074Y0148350D01*
X0287211Y0148281D01*
X0287346Y0148208D01*
X0287479Y0148132D01*
X0287610Y0148052D01*
X0287739Y0147970D01*
X0287866Y0147883D01*
X0287991Y0147794D01*
X0288113Y0147701D01*
X0288232Y0147605D01*
X0288350Y0147506D01*
X0288464Y0147405D01*
X0288576Y0147300D01*
X0288685Y0147192D01*
X0288791Y0147081D01*
X0288895Y0146968D01*
X0288995Y0146852D01*
X0289093Y0146734D01*
X0289187Y0146613D01*
X0289278Y0146490D01*
X0289366Y0146364D01*
X0289450Y0146236D01*
X0289532Y0146106D01*
X0289609Y0145974D01*
X0289684Y0145840D01*
X0289755Y0145704D01*
X0289822Y0145566D01*
X0289886Y0145426D01*
X0289946Y0145285D01*
X0290002Y0145143D01*
X0290055Y0144999D01*
X0290104Y0144853D01*
X0290149Y0144707D01*
X0290190Y0144559D01*
X0290227Y0144411D01*
X0290261Y0144261D01*
X0290291Y0144110D01*
X0290316Y0143959D01*
X0290338Y0143808D01*
X0290356Y0143655D01*
X0290370Y0143503D01*
X0290380Y0143350D01*
X0290386Y0143196D01*
X0290388Y0143043D01*
X0290386Y0142890D01*
X0290380Y0142736D01*
X0290370Y0142583D01*
X0290356Y0142431D01*
X0290338Y0142278D01*
X0290316Y0142127D01*
X0290291Y0141976D01*
X0290261Y0141825D01*
X0290227Y0141675D01*
X0290190Y0141527D01*
X0290149Y0141379D01*
X0290104Y0141233D01*
X0290055Y0141087D01*
X0290002Y0140943D01*
X0289946Y0140801D01*
X0289886Y0140660D01*
X0289822Y0140520D01*
X0289755Y0140382D01*
X0289684Y0140246D01*
X0289609Y0140112D01*
X0289532Y0139980D01*
X0289450Y0139850D01*
X0289366Y0139722D01*
X0289278Y0139596D01*
X0289187Y0139473D01*
X0289093Y0139352D01*
X0288995Y0139234D01*
X0288895Y0139118D01*
X0288791Y0139005D01*
X0288685Y0138894D01*
X0288576Y0138786D01*
X0288464Y0138681D01*
X0288350Y0138580D01*
X0288232Y0138481D01*
X0288113Y0138385D01*
X0287991Y0138292D01*
X0287866Y0138203D01*
X0287739Y0138116D01*
X0287610Y0138034D01*
X0287479Y0137954D01*
X0287346Y0137878D01*
X0287211Y0137805D01*
X0287074Y0137736D01*
X0286935Y0137671D01*
X0286795Y0137609D01*
X0286653Y0137551D01*
X0286510Y0137496D01*
X0286365Y0137445D01*
X0286219Y0137398D01*
X0286072Y0137355D01*
X0285924Y0137316D01*
X0285775Y0137280D01*
X0285625Y0137249D01*
X0285474Y0137221D01*
X0285323Y0137197D01*
X0285170Y0137177D01*
X0285018Y0137161D01*
X0284865Y0137149D01*
X0284712Y0137141D01*
X0284559Y0137137D01*
X0284405Y0137137D01*
X0284252Y0137141D01*
X0284099Y0137149D01*
X0283946Y0137161D01*
X0283794Y0137177D01*
X0283641Y0137197D01*
X0283490Y0137221D01*
X0283339Y0137249D01*
X0283189Y0137280D01*
X0283040Y0137316D01*
X0282892Y0137355D01*
X0282745Y0137398D01*
X0282599Y0137445D01*
X0282454Y0137496D01*
X0282311Y0137551D01*
X0282169Y0137609D01*
X0282029Y0137671D01*
X0281890Y0137736D01*
X0281753Y0137805D01*
X0281618Y0137878D01*
X0281485Y0137954D01*
X0281354Y0138034D01*
X0281225Y0138116D01*
X0281098Y0138203D01*
X0280973Y0138292D01*
X0280851Y0138385D01*
X0280732Y0138481D01*
X0280614Y0138580D01*
X0280500Y0138681D01*
X0280388Y0138786D01*
X0280279Y0138894D01*
X0280173Y0139005D01*
X0280069Y0139118D01*
X0279969Y0139234D01*
X0279871Y0139352D01*
X0279777Y0139473D01*
X0279686Y0139596D01*
X0279598Y0139722D01*
X0279514Y0139850D01*
X0279432Y0139980D01*
X0279355Y0140112D01*
X0279280Y0140246D01*
X0279209Y0140382D01*
X0279142Y0140520D01*
X0279078Y0140660D01*
X0279018Y0140801D01*
X0278962Y0140943D01*
X0278909Y0141087D01*
X0278860Y0141233D01*
X0278815Y0141379D01*
X0278774Y0141527D01*
X0278737Y0141675D01*
X0278703Y0141825D01*
X0278673Y0141976D01*
X0278648Y0142127D01*
X0278626Y0142278D01*
X0278608Y0142431D01*
X0278594Y0142583D01*
X0278584Y0142736D01*
X0278578Y0142890D01*
X0278576Y0143043D01*
X0278576Y0024933D02*
X0278578Y0025086D01*
X0278584Y0025240D01*
X0278594Y0025393D01*
X0278608Y0025545D01*
X0278626Y0025698D01*
X0278648Y0025849D01*
X0278673Y0026000D01*
X0278703Y0026151D01*
X0278737Y0026301D01*
X0278774Y0026449D01*
X0278815Y0026597D01*
X0278860Y0026743D01*
X0278909Y0026889D01*
X0278962Y0027033D01*
X0279018Y0027175D01*
X0279078Y0027316D01*
X0279142Y0027456D01*
X0279209Y0027594D01*
X0279280Y0027730D01*
X0279355Y0027864D01*
X0279432Y0027996D01*
X0279514Y0028126D01*
X0279598Y0028254D01*
X0279686Y0028380D01*
X0279777Y0028503D01*
X0279871Y0028624D01*
X0279969Y0028742D01*
X0280069Y0028858D01*
X0280173Y0028971D01*
X0280279Y0029082D01*
X0280388Y0029190D01*
X0280500Y0029295D01*
X0280614Y0029396D01*
X0280732Y0029495D01*
X0280851Y0029591D01*
X0280973Y0029684D01*
X0281098Y0029773D01*
X0281225Y0029860D01*
X0281354Y0029942D01*
X0281485Y0030022D01*
X0281618Y0030098D01*
X0281753Y0030171D01*
X0281890Y0030240D01*
X0282029Y0030305D01*
X0282169Y0030367D01*
X0282311Y0030425D01*
X0282454Y0030480D01*
X0282599Y0030531D01*
X0282745Y0030578D01*
X0282892Y0030621D01*
X0283040Y0030660D01*
X0283189Y0030696D01*
X0283339Y0030727D01*
X0283490Y0030755D01*
X0283641Y0030779D01*
X0283794Y0030799D01*
X0283946Y0030815D01*
X0284099Y0030827D01*
X0284252Y0030835D01*
X0284405Y0030839D01*
X0284559Y0030839D01*
X0284712Y0030835D01*
X0284865Y0030827D01*
X0285018Y0030815D01*
X0285170Y0030799D01*
X0285323Y0030779D01*
X0285474Y0030755D01*
X0285625Y0030727D01*
X0285775Y0030696D01*
X0285924Y0030660D01*
X0286072Y0030621D01*
X0286219Y0030578D01*
X0286365Y0030531D01*
X0286510Y0030480D01*
X0286653Y0030425D01*
X0286795Y0030367D01*
X0286935Y0030305D01*
X0287074Y0030240D01*
X0287211Y0030171D01*
X0287346Y0030098D01*
X0287479Y0030022D01*
X0287610Y0029942D01*
X0287739Y0029860D01*
X0287866Y0029773D01*
X0287991Y0029684D01*
X0288113Y0029591D01*
X0288232Y0029495D01*
X0288350Y0029396D01*
X0288464Y0029295D01*
X0288576Y0029190D01*
X0288685Y0029082D01*
X0288791Y0028971D01*
X0288895Y0028858D01*
X0288995Y0028742D01*
X0289093Y0028624D01*
X0289187Y0028503D01*
X0289278Y0028380D01*
X0289366Y0028254D01*
X0289450Y0028126D01*
X0289532Y0027996D01*
X0289609Y0027864D01*
X0289684Y0027730D01*
X0289755Y0027594D01*
X0289822Y0027456D01*
X0289886Y0027316D01*
X0289946Y0027175D01*
X0290002Y0027033D01*
X0290055Y0026889D01*
X0290104Y0026743D01*
X0290149Y0026597D01*
X0290190Y0026449D01*
X0290227Y0026301D01*
X0290261Y0026151D01*
X0290291Y0026000D01*
X0290316Y0025849D01*
X0290338Y0025698D01*
X0290356Y0025545D01*
X0290370Y0025393D01*
X0290380Y0025240D01*
X0290386Y0025086D01*
X0290388Y0024933D01*
X0290386Y0024780D01*
X0290380Y0024626D01*
X0290370Y0024473D01*
X0290356Y0024321D01*
X0290338Y0024168D01*
X0290316Y0024017D01*
X0290291Y0023866D01*
X0290261Y0023715D01*
X0290227Y0023565D01*
X0290190Y0023417D01*
X0290149Y0023269D01*
X0290104Y0023123D01*
X0290055Y0022977D01*
X0290002Y0022833D01*
X0289946Y0022691D01*
X0289886Y0022550D01*
X0289822Y0022410D01*
X0289755Y0022272D01*
X0289684Y0022136D01*
X0289609Y0022002D01*
X0289532Y0021870D01*
X0289450Y0021740D01*
X0289366Y0021612D01*
X0289278Y0021486D01*
X0289187Y0021363D01*
X0289093Y0021242D01*
X0288995Y0021124D01*
X0288895Y0021008D01*
X0288791Y0020895D01*
X0288685Y0020784D01*
X0288576Y0020676D01*
X0288464Y0020571D01*
X0288350Y0020470D01*
X0288232Y0020371D01*
X0288113Y0020275D01*
X0287991Y0020182D01*
X0287866Y0020093D01*
X0287739Y0020006D01*
X0287610Y0019924D01*
X0287479Y0019844D01*
X0287346Y0019768D01*
X0287211Y0019695D01*
X0287074Y0019626D01*
X0286935Y0019561D01*
X0286795Y0019499D01*
X0286653Y0019441D01*
X0286510Y0019386D01*
X0286365Y0019335D01*
X0286219Y0019288D01*
X0286072Y0019245D01*
X0285924Y0019206D01*
X0285775Y0019170D01*
X0285625Y0019139D01*
X0285474Y0019111D01*
X0285323Y0019087D01*
X0285170Y0019067D01*
X0285018Y0019051D01*
X0284865Y0019039D01*
X0284712Y0019031D01*
X0284559Y0019027D01*
X0284405Y0019027D01*
X0284252Y0019031D01*
X0284099Y0019039D01*
X0283946Y0019051D01*
X0283794Y0019067D01*
X0283641Y0019087D01*
X0283490Y0019111D01*
X0283339Y0019139D01*
X0283189Y0019170D01*
X0283040Y0019206D01*
X0282892Y0019245D01*
X0282745Y0019288D01*
X0282599Y0019335D01*
X0282454Y0019386D01*
X0282311Y0019441D01*
X0282169Y0019499D01*
X0282029Y0019561D01*
X0281890Y0019626D01*
X0281753Y0019695D01*
X0281618Y0019768D01*
X0281485Y0019844D01*
X0281354Y0019924D01*
X0281225Y0020006D01*
X0281098Y0020093D01*
X0280973Y0020182D01*
X0280851Y0020275D01*
X0280732Y0020371D01*
X0280614Y0020470D01*
X0280500Y0020571D01*
X0280388Y0020676D01*
X0280279Y0020784D01*
X0280173Y0020895D01*
X0280069Y0021008D01*
X0279969Y0021124D01*
X0279871Y0021242D01*
X0279777Y0021363D01*
X0279686Y0021486D01*
X0279598Y0021612D01*
X0279514Y0021740D01*
X0279432Y0021870D01*
X0279355Y0022002D01*
X0279280Y0022136D01*
X0279209Y0022272D01*
X0279142Y0022410D01*
X0279078Y0022550D01*
X0279018Y0022691D01*
X0278962Y0022833D01*
X0278909Y0022977D01*
X0278860Y0023123D01*
X0278815Y0023269D01*
X0278774Y0023417D01*
X0278737Y0023565D01*
X0278703Y0023715D01*
X0278673Y0023866D01*
X0278648Y0024017D01*
X0278626Y0024168D01*
X0278608Y0024321D01*
X0278594Y0024473D01*
X0278584Y0024626D01*
X0278578Y0024780D01*
X0278576Y0024933D01*
D11*
X0287356Y0170602D02*
X0159580Y0170583D01*
X0141765Y0170583D02*
X0029659Y0170583D01*
X0013911Y0343811D02*
X0141765Y0343811D01*
X0159580Y0343811D02*
X0287356Y0343831D01*
X0287356Y0517059D02*
X0159580Y0517039D01*
X0141765Y0517039D02*
X0017848Y0517039D01*
D12*
X0258320Y0327020D02*
X0258320Y0317177D01*
X0287080Y0317197D02*
X0287080Y0327039D01*
D13*
X0287002Y0327925D02*
X0286940Y0327921D01*
X0286879Y0327913D01*
X0286818Y0327900D01*
X0286758Y0327885D01*
X0286699Y0327865D01*
X0286642Y0327842D01*
X0286586Y0327815D01*
X0286532Y0327785D01*
X0286480Y0327751D01*
X0286431Y0327714D01*
X0286383Y0327674D01*
X0286339Y0327632D01*
X0286297Y0327586D01*
X0286258Y0327538D01*
X0286222Y0327488D01*
X0286189Y0327435D01*
X0286160Y0327381D01*
X0286134Y0327324D01*
X0286111Y0327267D01*
X0286093Y0327208D01*
X0286078Y0327148D01*
X0286067Y0327087D01*
X0286060Y0327025D01*
X0286056Y0326964D01*
X0286057Y0326902D01*
X0286056Y0326902D02*
X0286056Y0317453D01*
X0287001Y0316429D02*
X0287063Y0316431D01*
X0287124Y0316436D01*
X0287186Y0316446D01*
X0287246Y0316459D01*
X0287306Y0316475D01*
X0287364Y0316496D01*
X0287421Y0316519D01*
X0287477Y0316546D01*
X0287531Y0316577D01*
X0287583Y0316610D01*
X0287633Y0316647D01*
X0287680Y0316687D01*
X0287725Y0316729D01*
X0287767Y0316774D01*
X0287807Y0316821D01*
X0287844Y0316871D01*
X0287877Y0316923D01*
X0287908Y0316977D01*
X0287935Y0317033D01*
X0287958Y0317090D01*
X0287979Y0317148D01*
X0287995Y0317208D01*
X0288008Y0317268D01*
X0288018Y0317330D01*
X0288023Y0317391D01*
X0288025Y0317453D01*
X0288025Y0326902D01*
X0288023Y0326964D01*
X0288018Y0327025D01*
X0288008Y0327087D01*
X0287995Y0327147D01*
X0287979Y0327207D01*
X0287958Y0327265D01*
X0287935Y0327322D01*
X0287908Y0327378D01*
X0287877Y0327432D01*
X0287844Y0327484D01*
X0287807Y0327534D01*
X0287767Y0327581D01*
X0287725Y0327626D01*
X0287680Y0327668D01*
X0287633Y0327708D01*
X0287583Y0327745D01*
X0287531Y0327778D01*
X0287477Y0327809D01*
X0287421Y0327836D01*
X0287364Y0327859D01*
X0287306Y0327880D01*
X0287246Y0327896D01*
X0287186Y0327909D01*
X0287124Y0327919D01*
X0287063Y0327924D01*
X0287001Y0327926D01*
X0286057Y0317452D02*
X0286056Y0317390D01*
X0286060Y0317329D01*
X0286067Y0317267D01*
X0286078Y0317206D01*
X0286093Y0317146D01*
X0286111Y0317087D01*
X0286134Y0317030D01*
X0286160Y0316973D01*
X0286189Y0316919D01*
X0286222Y0316866D01*
X0286258Y0316816D01*
X0286297Y0316768D01*
X0286339Y0316722D01*
X0286383Y0316680D01*
X0286431Y0316640D01*
X0286480Y0316603D01*
X0286532Y0316569D01*
X0286586Y0316539D01*
X0286642Y0316512D01*
X0286699Y0316489D01*
X0286758Y0316469D01*
X0286818Y0316454D01*
X0286879Y0316441D01*
X0286940Y0316433D01*
X0287002Y0316429D01*
X0259285Y0317453D02*
X0259285Y0326980D01*
X0259284Y0326980D02*
X0259280Y0327039D01*
X0259271Y0327098D01*
X0259259Y0327156D01*
X0259243Y0327213D01*
X0259223Y0327269D01*
X0259200Y0327324D01*
X0259173Y0327377D01*
X0259143Y0327428D01*
X0259110Y0327477D01*
X0259073Y0327523D01*
X0259034Y0327567D01*
X0258991Y0327609D01*
X0258946Y0327647D01*
X0258899Y0327683D01*
X0258849Y0327715D01*
X0258797Y0327745D01*
X0258744Y0327770D01*
X0258689Y0327792D01*
X0258633Y0327811D01*
X0258575Y0327825D01*
X0258517Y0327836D01*
X0258458Y0327844D01*
X0258399Y0327847D01*
X0258340Y0327846D01*
X0258340Y0327847D02*
X0258283Y0327856D01*
X0258226Y0327862D01*
X0258168Y0327863D01*
X0258110Y0327861D01*
X0258052Y0327854D01*
X0257995Y0327844D01*
X0257939Y0327830D01*
X0257884Y0327813D01*
X0257830Y0327791D01*
X0257778Y0327766D01*
X0257728Y0327738D01*
X0257679Y0327706D01*
X0257633Y0327672D01*
X0257589Y0327634D01*
X0257548Y0327593D01*
X0257509Y0327550D01*
X0257474Y0327504D01*
X0257442Y0327456D01*
X0257413Y0327406D01*
X0257387Y0327354D01*
X0257365Y0327300D01*
X0257347Y0327246D01*
X0257332Y0327190D01*
X0257321Y0327133D01*
X0257314Y0327075D01*
X0257311Y0327017D01*
X0257312Y0326960D01*
X0257316Y0326902D01*
X0257316Y0317453D01*
X0258261Y0316429D02*
X0258323Y0316431D01*
X0258384Y0316436D01*
X0258446Y0316446D01*
X0258506Y0316459D01*
X0258566Y0316475D01*
X0258624Y0316496D01*
X0258681Y0316519D01*
X0258737Y0316546D01*
X0258791Y0316577D01*
X0258843Y0316610D01*
X0258893Y0316647D01*
X0258940Y0316687D01*
X0258985Y0316729D01*
X0259027Y0316774D01*
X0259067Y0316821D01*
X0259104Y0316871D01*
X0259137Y0316923D01*
X0259168Y0316977D01*
X0259195Y0317033D01*
X0259218Y0317090D01*
X0259239Y0317148D01*
X0259255Y0317208D01*
X0259268Y0317268D01*
X0259278Y0317330D01*
X0259283Y0317391D01*
X0259285Y0317453D01*
X0258262Y0316429D02*
X0258200Y0316433D01*
X0258139Y0316441D01*
X0258078Y0316454D01*
X0258018Y0316469D01*
X0257959Y0316489D01*
X0257902Y0316512D01*
X0257846Y0316539D01*
X0257792Y0316569D01*
X0257740Y0316603D01*
X0257691Y0316640D01*
X0257643Y0316680D01*
X0257599Y0316722D01*
X0257557Y0316768D01*
X0257518Y0316816D01*
X0257482Y0316866D01*
X0257449Y0316919D01*
X0257420Y0316973D01*
X0257394Y0317030D01*
X0257371Y0317087D01*
X0257353Y0317146D01*
X0257338Y0317206D01*
X0257327Y0317267D01*
X0257320Y0317329D01*
X0257316Y0317390D01*
X0257317Y0317452D01*
M02*
