G75*
%MOIN*%
%OFA0B0*%
%FSLAX25Y25*%
%IPPOS*%
%LPD*%
%AMOC8*
5,1,8,0,0,1.08239X$1,22.5*
%
%ADD10C,0.00000*%
%ADD11C,0.01969*%
%ADD12C,0.02362*%
%ADD13C,0.00300*%
%ADD14C,0.00500*%
%ADD15C,0.00700*%
%ADD16C,0.00984*%
%ADD17C,0.00600*%
%ADD18C,0.00400*%
%ADD19C,0.00200*%
%ADD20C,0.00800*%
%ADD21C,0.05000*%
D10*
X0071650Y0095547D02*
X0500784Y0095547D01*
X0501069Y0095550D01*
X0501355Y0095561D01*
X0501640Y0095578D01*
X0501924Y0095602D01*
X0502208Y0095633D01*
X0502491Y0095671D01*
X0502772Y0095716D01*
X0503053Y0095767D01*
X0503333Y0095825D01*
X0503611Y0095890D01*
X0503887Y0095962D01*
X0504161Y0096040D01*
X0504434Y0096125D01*
X0504704Y0096217D01*
X0504972Y0096315D01*
X0505238Y0096419D01*
X0505501Y0096530D01*
X0505761Y0096647D01*
X0506019Y0096770D01*
X0506273Y0096900D01*
X0506524Y0097036D01*
X0506772Y0097177D01*
X0507016Y0097325D01*
X0507257Y0097478D01*
X0507493Y0097638D01*
X0507726Y0097803D01*
X0507955Y0097973D01*
X0508180Y0098149D01*
X0508400Y0098331D01*
X0508616Y0098517D01*
X0508827Y0098709D01*
X0509034Y0098906D01*
X0509236Y0099108D01*
X0509433Y0099315D01*
X0509625Y0099526D01*
X0509811Y0099742D01*
X0509993Y0099962D01*
X0510169Y0100187D01*
X0510339Y0100416D01*
X0510504Y0100649D01*
X0510664Y0100885D01*
X0510817Y0101126D01*
X0510965Y0101370D01*
X0511106Y0101618D01*
X0511242Y0101869D01*
X0511372Y0102123D01*
X0511495Y0102381D01*
X0511612Y0102641D01*
X0511723Y0102904D01*
X0511827Y0103170D01*
X0511925Y0103438D01*
X0512017Y0103708D01*
X0512102Y0103981D01*
X0512180Y0104255D01*
X0512252Y0104531D01*
X0512317Y0104809D01*
X0512375Y0105089D01*
X0512426Y0105370D01*
X0512471Y0105651D01*
X0512509Y0105934D01*
X0512540Y0106218D01*
X0512564Y0106502D01*
X0512581Y0106787D01*
X0512592Y0107073D01*
X0512595Y0107358D01*
X0512595Y0375075D01*
X0512593Y0375265D01*
X0512586Y0375455D01*
X0512574Y0375645D01*
X0512558Y0375835D01*
X0512538Y0376024D01*
X0512512Y0376213D01*
X0512483Y0376401D01*
X0512448Y0376588D01*
X0512409Y0376774D01*
X0512366Y0376959D01*
X0512318Y0377144D01*
X0512266Y0377327D01*
X0512210Y0377508D01*
X0512149Y0377688D01*
X0512083Y0377867D01*
X0512014Y0378044D01*
X0511940Y0378220D01*
X0511862Y0378393D01*
X0511779Y0378565D01*
X0511693Y0378734D01*
X0511603Y0378902D01*
X0511508Y0379067D01*
X0511410Y0379230D01*
X0511307Y0379390D01*
X0511201Y0379548D01*
X0511091Y0379703D01*
X0510978Y0379856D01*
X0510860Y0380006D01*
X0510739Y0380152D01*
X0510615Y0380296D01*
X0510487Y0380437D01*
X0510356Y0380575D01*
X0510221Y0380710D01*
X0510083Y0380841D01*
X0509942Y0380969D01*
X0509798Y0381093D01*
X0509652Y0381214D01*
X0509502Y0381332D01*
X0509349Y0381445D01*
X0509194Y0381555D01*
X0509036Y0381661D01*
X0508876Y0381764D01*
X0508713Y0381862D01*
X0508548Y0381957D01*
X0508380Y0382047D01*
X0508211Y0382133D01*
X0508039Y0382216D01*
X0507866Y0382294D01*
X0507690Y0382368D01*
X0507513Y0382437D01*
X0507334Y0382503D01*
X0507154Y0382564D01*
X0506973Y0382620D01*
X0506790Y0382672D01*
X0506605Y0382720D01*
X0506420Y0382763D01*
X0506234Y0382802D01*
X0506047Y0382837D01*
X0505859Y0382866D01*
X0505670Y0382892D01*
X0505481Y0382912D01*
X0505291Y0382928D01*
X0505101Y0382940D01*
X0504911Y0382947D01*
X0504721Y0382949D01*
X0071650Y0382949D01*
X0071365Y0382946D01*
X0071079Y0382935D01*
X0070794Y0382918D01*
X0070510Y0382894D01*
X0070226Y0382863D01*
X0069943Y0382825D01*
X0069662Y0382780D01*
X0069381Y0382729D01*
X0069101Y0382671D01*
X0068823Y0382606D01*
X0068547Y0382534D01*
X0068273Y0382456D01*
X0068000Y0382371D01*
X0067730Y0382279D01*
X0067462Y0382181D01*
X0067196Y0382077D01*
X0066933Y0381966D01*
X0066673Y0381849D01*
X0066415Y0381726D01*
X0066161Y0381596D01*
X0065910Y0381460D01*
X0065662Y0381319D01*
X0065418Y0381171D01*
X0065177Y0381018D01*
X0064941Y0380858D01*
X0064708Y0380693D01*
X0064479Y0380523D01*
X0064254Y0380347D01*
X0064034Y0380165D01*
X0063818Y0379979D01*
X0063607Y0379787D01*
X0063400Y0379590D01*
X0063198Y0379388D01*
X0063001Y0379181D01*
X0062809Y0378970D01*
X0062623Y0378754D01*
X0062441Y0378534D01*
X0062265Y0378309D01*
X0062095Y0378080D01*
X0061930Y0377847D01*
X0061770Y0377611D01*
X0061617Y0377370D01*
X0061469Y0377126D01*
X0061328Y0376878D01*
X0061192Y0376627D01*
X0061062Y0376373D01*
X0060939Y0376115D01*
X0060822Y0375855D01*
X0060711Y0375592D01*
X0060607Y0375326D01*
X0060509Y0375058D01*
X0060417Y0374788D01*
X0060332Y0374515D01*
X0060254Y0374241D01*
X0060182Y0373965D01*
X0060117Y0373687D01*
X0060059Y0373407D01*
X0060008Y0373126D01*
X0059963Y0372845D01*
X0059925Y0372562D01*
X0059894Y0372278D01*
X0059870Y0371994D01*
X0059853Y0371709D01*
X0059842Y0371423D01*
X0059839Y0371138D01*
X0059839Y0107358D01*
X0059842Y0107073D01*
X0059853Y0106787D01*
X0059870Y0106502D01*
X0059894Y0106218D01*
X0059925Y0105934D01*
X0059963Y0105651D01*
X0060008Y0105370D01*
X0060059Y0105089D01*
X0060117Y0104809D01*
X0060182Y0104531D01*
X0060254Y0104255D01*
X0060332Y0103981D01*
X0060417Y0103708D01*
X0060509Y0103438D01*
X0060607Y0103170D01*
X0060711Y0102904D01*
X0060822Y0102641D01*
X0060939Y0102381D01*
X0061062Y0102123D01*
X0061192Y0101869D01*
X0061328Y0101618D01*
X0061469Y0101370D01*
X0061617Y0101126D01*
X0061770Y0100885D01*
X0061930Y0100649D01*
X0062095Y0100416D01*
X0062265Y0100187D01*
X0062441Y0099962D01*
X0062623Y0099742D01*
X0062809Y0099526D01*
X0063001Y0099315D01*
X0063198Y0099108D01*
X0063400Y0098906D01*
X0063607Y0098709D01*
X0063818Y0098517D01*
X0064034Y0098331D01*
X0064254Y0098149D01*
X0064479Y0097973D01*
X0064708Y0097803D01*
X0064941Y0097638D01*
X0065177Y0097478D01*
X0065418Y0097325D01*
X0065662Y0097177D01*
X0065910Y0097036D01*
X0066161Y0096900D01*
X0066415Y0096770D01*
X0066673Y0096647D01*
X0066933Y0096530D01*
X0067196Y0096419D01*
X0067462Y0096315D01*
X0067730Y0096217D01*
X0068000Y0096125D01*
X0068273Y0096040D01*
X0068547Y0095962D01*
X0068823Y0095890D01*
X0069101Y0095825D01*
X0069381Y0095767D01*
X0069662Y0095716D01*
X0069943Y0095671D01*
X0070226Y0095633D01*
X0070510Y0095602D01*
X0070794Y0095578D01*
X0071079Y0095561D01*
X0071365Y0095550D01*
X0071650Y0095547D01*
X0400908Y0163093D02*
X0400910Y0163184D01*
X0400916Y0163274D01*
X0400926Y0163365D01*
X0400940Y0163454D01*
X0400958Y0163543D01*
X0400979Y0163632D01*
X0401005Y0163719D01*
X0401034Y0163805D01*
X0401068Y0163889D01*
X0401104Y0163972D01*
X0401145Y0164054D01*
X0401189Y0164133D01*
X0401236Y0164211D01*
X0401287Y0164286D01*
X0401341Y0164359D01*
X0401398Y0164429D01*
X0401458Y0164497D01*
X0401521Y0164563D01*
X0401587Y0164625D01*
X0401656Y0164684D01*
X0401727Y0164741D01*
X0401801Y0164794D01*
X0401877Y0164844D01*
X0401955Y0164891D01*
X0402035Y0164934D01*
X0402116Y0164973D01*
X0402200Y0165009D01*
X0402285Y0165041D01*
X0402371Y0165070D01*
X0402458Y0165094D01*
X0402547Y0165115D01*
X0402636Y0165132D01*
X0402726Y0165145D01*
X0402816Y0165154D01*
X0402907Y0165159D01*
X0402998Y0165160D01*
X0403088Y0165157D01*
X0403179Y0165150D01*
X0403269Y0165139D01*
X0403359Y0165124D01*
X0403448Y0165105D01*
X0403536Y0165083D01*
X0403622Y0165056D01*
X0403708Y0165026D01*
X0403792Y0164992D01*
X0403875Y0164954D01*
X0403956Y0164913D01*
X0404035Y0164868D01*
X0404112Y0164819D01*
X0404186Y0164768D01*
X0404259Y0164713D01*
X0404329Y0164655D01*
X0404396Y0164594D01*
X0404460Y0164530D01*
X0404522Y0164464D01*
X0404581Y0164394D01*
X0404636Y0164323D01*
X0404689Y0164248D01*
X0404738Y0164172D01*
X0404784Y0164094D01*
X0404826Y0164013D01*
X0404865Y0163931D01*
X0404900Y0163847D01*
X0404931Y0163762D01*
X0404958Y0163675D01*
X0404982Y0163588D01*
X0405002Y0163499D01*
X0405018Y0163410D01*
X0405030Y0163320D01*
X0405038Y0163229D01*
X0405042Y0163138D01*
X0405042Y0163048D01*
X0405038Y0162957D01*
X0405030Y0162866D01*
X0405018Y0162776D01*
X0405002Y0162687D01*
X0404982Y0162598D01*
X0404958Y0162511D01*
X0404931Y0162424D01*
X0404900Y0162339D01*
X0404865Y0162255D01*
X0404826Y0162173D01*
X0404784Y0162092D01*
X0404738Y0162014D01*
X0404689Y0161938D01*
X0404636Y0161863D01*
X0404581Y0161792D01*
X0404522Y0161722D01*
X0404460Y0161656D01*
X0404396Y0161592D01*
X0404329Y0161531D01*
X0404259Y0161473D01*
X0404186Y0161418D01*
X0404112Y0161367D01*
X0404035Y0161318D01*
X0403956Y0161273D01*
X0403875Y0161232D01*
X0403792Y0161194D01*
X0403708Y0161160D01*
X0403622Y0161130D01*
X0403536Y0161103D01*
X0403448Y0161081D01*
X0403359Y0161062D01*
X0403269Y0161047D01*
X0403179Y0161036D01*
X0403088Y0161029D01*
X0402998Y0161026D01*
X0402907Y0161027D01*
X0402816Y0161032D01*
X0402726Y0161041D01*
X0402636Y0161054D01*
X0402547Y0161071D01*
X0402458Y0161092D01*
X0402371Y0161116D01*
X0402285Y0161145D01*
X0402200Y0161177D01*
X0402116Y0161213D01*
X0402035Y0161252D01*
X0401955Y0161295D01*
X0401877Y0161342D01*
X0401801Y0161392D01*
X0401727Y0161445D01*
X0401656Y0161502D01*
X0401587Y0161561D01*
X0401521Y0161623D01*
X0401458Y0161689D01*
X0401398Y0161757D01*
X0401341Y0161827D01*
X0401287Y0161900D01*
X0401236Y0161975D01*
X0401189Y0162053D01*
X0401145Y0162132D01*
X0401104Y0162214D01*
X0401068Y0162297D01*
X0401034Y0162381D01*
X0401005Y0162467D01*
X0400979Y0162554D01*
X0400958Y0162643D01*
X0400940Y0162732D01*
X0400926Y0162821D01*
X0400916Y0162912D01*
X0400910Y0163002D01*
X0400908Y0163093D01*
X0412078Y0173671D02*
X0412080Y0173748D01*
X0412086Y0173824D01*
X0412096Y0173900D01*
X0412110Y0173975D01*
X0412127Y0174050D01*
X0412149Y0174123D01*
X0412174Y0174196D01*
X0412204Y0174267D01*
X0412236Y0174336D01*
X0412273Y0174403D01*
X0412312Y0174469D01*
X0412355Y0174532D01*
X0412402Y0174593D01*
X0412451Y0174652D01*
X0412504Y0174708D01*
X0412559Y0174761D01*
X0412617Y0174811D01*
X0412677Y0174858D01*
X0412740Y0174902D01*
X0412805Y0174943D01*
X0412872Y0174980D01*
X0412941Y0175014D01*
X0413011Y0175044D01*
X0413083Y0175070D01*
X0413157Y0175092D01*
X0413231Y0175111D01*
X0413306Y0175126D01*
X0413382Y0175137D01*
X0413458Y0175144D01*
X0413535Y0175147D01*
X0413611Y0175146D01*
X0413688Y0175141D01*
X0413764Y0175132D01*
X0413840Y0175119D01*
X0413914Y0175102D01*
X0413988Y0175082D01*
X0414061Y0175057D01*
X0414132Y0175029D01*
X0414202Y0174997D01*
X0414270Y0174962D01*
X0414336Y0174923D01*
X0414400Y0174881D01*
X0414461Y0174835D01*
X0414521Y0174786D01*
X0414577Y0174735D01*
X0414631Y0174680D01*
X0414682Y0174623D01*
X0414730Y0174563D01*
X0414775Y0174501D01*
X0414816Y0174436D01*
X0414854Y0174370D01*
X0414889Y0174302D01*
X0414919Y0174231D01*
X0414947Y0174160D01*
X0414970Y0174087D01*
X0414990Y0174013D01*
X0415006Y0173938D01*
X0415018Y0173862D01*
X0415026Y0173786D01*
X0415030Y0173709D01*
X0415030Y0173633D01*
X0415026Y0173556D01*
X0415018Y0173480D01*
X0415006Y0173404D01*
X0414990Y0173329D01*
X0414970Y0173255D01*
X0414947Y0173182D01*
X0414919Y0173111D01*
X0414889Y0173040D01*
X0414854Y0172972D01*
X0414816Y0172906D01*
X0414775Y0172841D01*
X0414730Y0172779D01*
X0414682Y0172719D01*
X0414631Y0172662D01*
X0414577Y0172607D01*
X0414521Y0172556D01*
X0414461Y0172507D01*
X0414400Y0172461D01*
X0414336Y0172419D01*
X0414270Y0172380D01*
X0414202Y0172345D01*
X0414132Y0172313D01*
X0414061Y0172285D01*
X0413988Y0172260D01*
X0413914Y0172240D01*
X0413840Y0172223D01*
X0413764Y0172210D01*
X0413688Y0172201D01*
X0413611Y0172196D01*
X0413535Y0172195D01*
X0413458Y0172198D01*
X0413382Y0172205D01*
X0413306Y0172216D01*
X0413231Y0172231D01*
X0413157Y0172250D01*
X0413083Y0172272D01*
X0413011Y0172298D01*
X0412941Y0172328D01*
X0412872Y0172362D01*
X0412805Y0172399D01*
X0412740Y0172440D01*
X0412677Y0172484D01*
X0412617Y0172531D01*
X0412559Y0172581D01*
X0412504Y0172634D01*
X0412451Y0172690D01*
X0412402Y0172749D01*
X0412355Y0172810D01*
X0412312Y0172873D01*
X0412273Y0172939D01*
X0412236Y0173006D01*
X0412204Y0173075D01*
X0412174Y0173146D01*
X0412149Y0173219D01*
X0412127Y0173292D01*
X0412110Y0173367D01*
X0412096Y0173442D01*
X0412086Y0173518D01*
X0412080Y0173594D01*
X0412078Y0173671D01*
X0500784Y0469563D02*
X0071650Y0469563D01*
X0071365Y0469566D01*
X0071079Y0469577D01*
X0070794Y0469594D01*
X0070510Y0469618D01*
X0070226Y0469649D01*
X0069943Y0469687D01*
X0069662Y0469732D01*
X0069381Y0469783D01*
X0069101Y0469841D01*
X0068823Y0469906D01*
X0068547Y0469978D01*
X0068273Y0470056D01*
X0068000Y0470141D01*
X0067730Y0470233D01*
X0067462Y0470331D01*
X0067196Y0470435D01*
X0066933Y0470546D01*
X0066673Y0470663D01*
X0066415Y0470786D01*
X0066161Y0470916D01*
X0065910Y0471052D01*
X0065662Y0471193D01*
X0065418Y0471341D01*
X0065177Y0471494D01*
X0064941Y0471654D01*
X0064708Y0471819D01*
X0064479Y0471989D01*
X0064254Y0472165D01*
X0064034Y0472347D01*
X0063818Y0472533D01*
X0063607Y0472725D01*
X0063400Y0472922D01*
X0063198Y0473124D01*
X0063001Y0473331D01*
X0062809Y0473542D01*
X0062623Y0473758D01*
X0062441Y0473978D01*
X0062265Y0474203D01*
X0062095Y0474432D01*
X0061930Y0474665D01*
X0061770Y0474901D01*
X0061617Y0475142D01*
X0061469Y0475386D01*
X0061328Y0475634D01*
X0061192Y0475885D01*
X0061062Y0476139D01*
X0060939Y0476397D01*
X0060822Y0476657D01*
X0060711Y0476920D01*
X0060607Y0477186D01*
X0060509Y0477454D01*
X0060417Y0477724D01*
X0060332Y0477997D01*
X0060254Y0478271D01*
X0060182Y0478547D01*
X0060117Y0478825D01*
X0060059Y0479105D01*
X0060008Y0479386D01*
X0059963Y0479667D01*
X0059925Y0479950D01*
X0059894Y0480234D01*
X0059870Y0480518D01*
X0059853Y0480803D01*
X0059842Y0481089D01*
X0059839Y0481374D01*
X0059839Y0536492D01*
X0059842Y0536777D01*
X0059853Y0537063D01*
X0059870Y0537348D01*
X0059894Y0537632D01*
X0059925Y0537916D01*
X0059963Y0538199D01*
X0060008Y0538480D01*
X0060059Y0538761D01*
X0060117Y0539041D01*
X0060182Y0539319D01*
X0060254Y0539595D01*
X0060332Y0539869D01*
X0060417Y0540142D01*
X0060509Y0540412D01*
X0060607Y0540680D01*
X0060711Y0540946D01*
X0060822Y0541209D01*
X0060939Y0541469D01*
X0061062Y0541727D01*
X0061192Y0541981D01*
X0061328Y0542232D01*
X0061469Y0542480D01*
X0061617Y0542724D01*
X0061770Y0542965D01*
X0061930Y0543201D01*
X0062095Y0543434D01*
X0062265Y0543663D01*
X0062441Y0543888D01*
X0062623Y0544108D01*
X0062809Y0544324D01*
X0063001Y0544535D01*
X0063198Y0544742D01*
X0063400Y0544944D01*
X0063607Y0545141D01*
X0063818Y0545333D01*
X0064034Y0545519D01*
X0064254Y0545701D01*
X0064479Y0545877D01*
X0064708Y0546047D01*
X0064941Y0546212D01*
X0065177Y0546372D01*
X0065418Y0546525D01*
X0065662Y0546673D01*
X0065910Y0546814D01*
X0066161Y0546950D01*
X0066415Y0547080D01*
X0066673Y0547203D01*
X0066933Y0547320D01*
X0067196Y0547431D01*
X0067462Y0547535D01*
X0067730Y0547633D01*
X0068000Y0547725D01*
X0068273Y0547810D01*
X0068547Y0547888D01*
X0068823Y0547960D01*
X0069101Y0548025D01*
X0069381Y0548083D01*
X0069662Y0548134D01*
X0069943Y0548179D01*
X0070226Y0548217D01*
X0070510Y0548248D01*
X0070794Y0548272D01*
X0071079Y0548289D01*
X0071365Y0548300D01*
X0071650Y0548303D01*
X0500784Y0548303D01*
X0501069Y0548300D01*
X0501355Y0548289D01*
X0501640Y0548272D01*
X0501924Y0548248D01*
X0502208Y0548217D01*
X0502491Y0548179D01*
X0502772Y0548134D01*
X0503053Y0548083D01*
X0503333Y0548025D01*
X0503611Y0547960D01*
X0503887Y0547888D01*
X0504161Y0547810D01*
X0504434Y0547725D01*
X0504704Y0547633D01*
X0504972Y0547535D01*
X0505238Y0547431D01*
X0505501Y0547320D01*
X0505761Y0547203D01*
X0506019Y0547080D01*
X0506273Y0546950D01*
X0506524Y0546814D01*
X0506772Y0546673D01*
X0507016Y0546525D01*
X0507257Y0546372D01*
X0507493Y0546212D01*
X0507726Y0546047D01*
X0507955Y0545877D01*
X0508180Y0545701D01*
X0508400Y0545519D01*
X0508616Y0545333D01*
X0508827Y0545141D01*
X0509034Y0544944D01*
X0509236Y0544742D01*
X0509433Y0544535D01*
X0509625Y0544324D01*
X0509811Y0544108D01*
X0509993Y0543888D01*
X0510169Y0543663D01*
X0510339Y0543434D01*
X0510504Y0543201D01*
X0510664Y0542965D01*
X0510817Y0542724D01*
X0510965Y0542480D01*
X0511106Y0542232D01*
X0511242Y0541981D01*
X0511372Y0541727D01*
X0511495Y0541469D01*
X0511612Y0541209D01*
X0511723Y0540946D01*
X0511827Y0540680D01*
X0511925Y0540412D01*
X0512017Y0540142D01*
X0512102Y0539869D01*
X0512180Y0539595D01*
X0512252Y0539319D01*
X0512317Y0539041D01*
X0512375Y0538761D01*
X0512426Y0538480D01*
X0512471Y0538199D01*
X0512509Y0537916D01*
X0512540Y0537632D01*
X0512564Y0537348D01*
X0512581Y0537063D01*
X0512592Y0536777D01*
X0512595Y0536492D01*
X0512595Y0481374D01*
X0512592Y0481089D01*
X0512581Y0480803D01*
X0512564Y0480518D01*
X0512540Y0480234D01*
X0512509Y0479950D01*
X0512471Y0479667D01*
X0512426Y0479386D01*
X0512375Y0479105D01*
X0512317Y0478825D01*
X0512252Y0478547D01*
X0512180Y0478271D01*
X0512102Y0477997D01*
X0512017Y0477724D01*
X0511925Y0477454D01*
X0511827Y0477186D01*
X0511723Y0476920D01*
X0511612Y0476657D01*
X0511495Y0476397D01*
X0511372Y0476139D01*
X0511242Y0475885D01*
X0511106Y0475634D01*
X0510965Y0475386D01*
X0510817Y0475142D01*
X0510664Y0474901D01*
X0510504Y0474665D01*
X0510339Y0474432D01*
X0510169Y0474203D01*
X0509993Y0473978D01*
X0509811Y0473758D01*
X0509625Y0473542D01*
X0509433Y0473331D01*
X0509236Y0473124D01*
X0509034Y0472922D01*
X0508827Y0472725D01*
X0508616Y0472533D01*
X0508400Y0472347D01*
X0508180Y0472165D01*
X0507955Y0471989D01*
X0507726Y0471819D01*
X0507493Y0471654D01*
X0507257Y0471494D01*
X0507016Y0471341D01*
X0506772Y0471193D01*
X0506524Y0471052D01*
X0506273Y0470916D01*
X0506019Y0470786D01*
X0505761Y0470663D01*
X0505501Y0470546D01*
X0505238Y0470435D01*
X0504972Y0470331D01*
X0504704Y0470233D01*
X0504434Y0470141D01*
X0504161Y0470056D01*
X0503887Y0469978D01*
X0503611Y0469906D01*
X0503333Y0469841D01*
X0503053Y0469783D01*
X0502772Y0469732D01*
X0502491Y0469687D01*
X0502208Y0469649D01*
X0501924Y0469618D01*
X0501640Y0469594D01*
X0501355Y0469577D01*
X0501069Y0469566D01*
X0500784Y0469563D01*
D11*
X0385627Y0352437D02*
X0380902Y0352412D01*
X0376965Y0352391D02*
X0372241Y0352366D01*
X0368304Y0352345D02*
X0363579Y0352320D01*
X0359642Y0352299D02*
X0354918Y0352274D01*
X0350981Y0352253D02*
X0346257Y0352228D01*
X0342320Y0352207D02*
X0337595Y0352182D01*
X0333658Y0352161D02*
X0328934Y0352135D01*
X0324997Y0352115D02*
X0320272Y0352089D01*
X0316335Y0352068D02*
X0311611Y0352043D01*
X0311611Y0347450D01*
X0311611Y0343513D02*
X0311611Y0338920D01*
X0311611Y0334983D02*
X0311611Y0330390D01*
X0307149Y0330414D01*
X0303212Y0330436D02*
X0298750Y0330460D01*
X0294813Y0330482D02*
X0290351Y0330507D01*
X0286414Y0330528D02*
X0281952Y0330553D01*
X0278015Y0330574D02*
X0273553Y0330599D01*
X0269616Y0330621D02*
X0265154Y0330645D01*
X0261217Y0330667D02*
X0256755Y0330691D01*
X0252818Y0330713D02*
X0248356Y0330737D01*
X0244419Y0330759D02*
X0239957Y0330783D01*
X0332477Y0330783D02*
X0332477Y0326802D01*
X0332477Y0322865D02*
X0332477Y0318883D01*
X0332477Y0314946D02*
X0332477Y0310964D01*
X0332477Y0307027D02*
X0332477Y0303045D01*
X0332477Y0299108D02*
X0332477Y0295127D01*
X0332477Y0291190D02*
X0332477Y0287208D01*
X0332477Y0283271D02*
X0332477Y0279289D01*
X0332477Y0275352D02*
X0332477Y0271370D01*
X0332477Y0267433D02*
X0332477Y0263452D01*
X0332477Y0259515D02*
X0332477Y0255533D01*
X0332477Y0251596D02*
X0332477Y0247614D01*
X0332477Y0243677D02*
X0332477Y0239695D01*
X0332477Y0235758D02*
X0332477Y0231777D01*
X0332477Y0227840D02*
X0332477Y0223858D01*
X0332477Y0219921D02*
X0332477Y0215939D01*
X0332477Y0212002D02*
X0332477Y0208020D01*
X0332477Y0204083D02*
X0332477Y0200102D01*
X0332477Y0196165D02*
X0332477Y0192183D01*
X0332477Y0188246D02*
X0332477Y0184264D01*
X0332477Y0180327D02*
X0332477Y0176345D01*
X0332477Y0172408D02*
X0332477Y0168427D01*
X0332477Y0164490D02*
X0332477Y0160508D01*
X0328321Y0160508D01*
X0324384Y0160508D02*
X0320229Y0160508D01*
X0316292Y0160508D02*
X0312136Y0160508D01*
X0308199Y0160508D02*
X0304043Y0160508D01*
X0300106Y0160508D02*
X0295950Y0160508D01*
X0292013Y0160508D02*
X0287858Y0160508D01*
X0283921Y0160508D02*
X0279765Y0160508D01*
X0275828Y0160508D02*
X0271672Y0160508D01*
X0267735Y0160508D02*
X0263579Y0160508D01*
X0263579Y0164445D02*
X0259462Y0164445D01*
X0255525Y0164445D02*
X0251408Y0164445D01*
X0247471Y0164445D02*
X0243354Y0164445D01*
X0239417Y0164445D02*
X0235300Y0164445D01*
X0231363Y0164445D02*
X0227246Y0164445D01*
X0223309Y0164445D02*
X0219192Y0164445D01*
X0215255Y0164445D02*
X0211138Y0164445D01*
X0207201Y0164445D02*
X0203084Y0164445D01*
X0199147Y0164445D02*
X0195030Y0164445D01*
X0191093Y0164445D02*
X0186976Y0164445D01*
X0183039Y0164445D02*
X0178922Y0164445D01*
X0174985Y0164445D02*
X0170868Y0164445D01*
X0166931Y0164445D02*
X0162814Y0164445D01*
X0158877Y0164445D02*
X0154760Y0164445D01*
X0154760Y0168657D01*
X0154760Y0172594D02*
X0154760Y0176807D01*
X0154760Y0180744D02*
X0154760Y0184957D01*
X0154760Y0188894D02*
X0154760Y0193106D01*
X0154760Y0197043D02*
X0154760Y0201256D01*
X0154760Y0205193D02*
X0154760Y0209406D01*
X0154760Y0213343D02*
X0154760Y0217555D01*
X0154760Y0221492D02*
X0154760Y0225705D01*
X0154760Y0229642D02*
X0154760Y0233854D01*
X0154760Y0237791D02*
X0154760Y0242004D01*
X0154760Y0245941D02*
X0154760Y0250154D01*
X0154760Y0254091D02*
X0154760Y0258303D01*
X0332477Y0330783D02*
X0338383Y0330783D01*
X0385627Y0348500D02*
X0390056Y0348500D01*
X0393993Y0348500D02*
X0398422Y0348500D01*
X0402359Y0348500D02*
X0406788Y0348500D01*
X0410725Y0348500D02*
X0415154Y0348500D01*
X0419091Y0348500D02*
X0423520Y0348500D01*
X0427457Y0348500D02*
X0431886Y0348500D01*
X0400390Y0340626D02*
X0400390Y0336515D01*
X0400390Y0332578D02*
X0400390Y0328468D01*
X0400390Y0324531D02*
X0400390Y0320420D01*
X0400390Y0316483D02*
X0400390Y0312372D01*
X0400390Y0308435D02*
X0400390Y0304324D01*
X0400390Y0300387D02*
X0400390Y0296277D01*
X0400390Y0292340D02*
X0400390Y0288229D01*
X0400390Y0284292D02*
X0400390Y0280181D01*
X0400390Y0276244D02*
X0400390Y0272134D01*
X0400390Y0268197D02*
X0400390Y0264086D01*
X0400390Y0260149D02*
X0400390Y0256038D01*
X0400390Y0252101D02*
X0400390Y0247991D01*
X0400390Y0244053D02*
X0400390Y0239943D01*
X0400390Y0236006D02*
X0400390Y0231895D01*
X0400390Y0227958D02*
X0400390Y0223847D01*
X0400390Y0219910D02*
X0400390Y0215800D01*
X0400390Y0211863D02*
X0400390Y0207752D01*
X0404506Y0207752D01*
X0408443Y0207752D02*
X0412559Y0207752D01*
X0416496Y0207752D02*
X0420612Y0207752D01*
X0424549Y0207752D02*
X0428665Y0207752D01*
X0432602Y0207752D02*
X0436718Y0207752D01*
X0440655Y0207752D02*
X0444771Y0207752D01*
X0448708Y0207752D02*
X0452824Y0207752D01*
X0456761Y0207752D02*
X0460877Y0207752D01*
X0464814Y0207752D02*
X0468930Y0207752D01*
X0472867Y0207752D02*
X0476983Y0207752D01*
X0480920Y0207752D02*
X0485036Y0207752D01*
X0385627Y0348500D02*
X0385627Y0352437D01*
D12*
X0232083Y0235311D02*
X0227556Y0235311D01*
X0222831Y0235311D02*
X0218304Y0235311D01*
X0218304Y0240845D01*
X0218304Y0245569D02*
X0218304Y0251103D01*
X0218304Y0255827D02*
X0218304Y0261361D01*
X0218304Y0266085D02*
X0218304Y0271619D01*
X0218304Y0276343D02*
X0218304Y0281877D01*
X0218304Y0286601D02*
X0218304Y0292135D01*
X0218304Y0296860D02*
X0218304Y0302393D01*
X0218304Y0307118D02*
X0218304Y0312651D01*
X0218304Y0317376D02*
X0218304Y0322909D01*
X0226178Y0322909D01*
X0226178Y0328717D01*
X0226178Y0333441D02*
X0226178Y0339248D01*
X0226178Y0343972D02*
X0226178Y0349780D01*
X0226178Y0354504D02*
X0226178Y0360311D01*
D13*
X0233239Y0355699D02*
X0233846Y0356306D01*
X0235059Y0356306D01*
X0235666Y0355699D01*
X0236864Y0355699D02*
X0237471Y0356306D01*
X0238684Y0356306D01*
X0239291Y0355699D01*
X0239291Y0353272D01*
X0238684Y0352666D01*
X0237471Y0352666D01*
X0236864Y0353272D01*
X0235666Y0352666D02*
X0233239Y0355092D01*
X0233239Y0355699D01*
X0233239Y0352666D02*
X0235666Y0352666D01*
X0240494Y0352666D02*
X0241708Y0352666D01*
X0241101Y0352666D02*
X0241101Y0356306D01*
X0241708Y0356306D02*
X0240494Y0356306D01*
X0247863Y0355792D02*
X0248470Y0355185D01*
X0247863Y0355792D02*
X0247863Y0357005D01*
X0248470Y0357612D01*
X0249683Y0357612D01*
X0250290Y0357005D01*
X0250290Y0356399D01*
X0249683Y0355185D01*
X0251503Y0355185D01*
X0251503Y0357612D01*
X0250897Y0353987D02*
X0251503Y0353380D01*
X0251503Y0352167D01*
X0250897Y0351560D01*
X0248470Y0351560D01*
X0247863Y0352167D01*
X0247863Y0353380D01*
X0248470Y0353987D01*
X0258788Y0354416D02*
X0261215Y0356843D01*
X0261822Y0356843D01*
X0262429Y0356236D01*
X0262429Y0355023D01*
X0261822Y0354416D01*
X0261822Y0353218D02*
X0262429Y0352611D01*
X0262429Y0351398D01*
X0261822Y0350791D01*
X0259395Y0350791D01*
X0258788Y0351398D01*
X0258788Y0352611D01*
X0259395Y0353218D01*
X0258788Y0354416D02*
X0258788Y0356843D01*
X0259395Y0358041D02*
X0261822Y0360468D01*
X0259395Y0360468D01*
X0258788Y0359861D01*
X0258788Y0358648D01*
X0259395Y0358041D01*
X0261822Y0358041D01*
X0262429Y0358648D01*
X0262429Y0359861D01*
X0261822Y0360468D01*
X0261983Y0349860D02*
X0265119Y0346724D01*
X0263551Y0346724D02*
X0263551Y0349860D01*
X0265119Y0349860D02*
X0261983Y0346724D01*
X0261983Y0348292D02*
X0265119Y0348292D01*
X0299229Y0350261D02*
X0299836Y0349654D01*
X0301050Y0349654D01*
X0301656Y0350261D01*
X0299229Y0352687D01*
X0299229Y0350261D01*
X0299229Y0352687D02*
X0299836Y0353294D01*
X0301050Y0353294D01*
X0301656Y0352687D01*
X0301656Y0350261D01*
X0302855Y0349654D02*
X0305281Y0349654D01*
X0302855Y0352081D01*
X0302855Y0352687D01*
X0303461Y0353294D01*
X0304675Y0353294D01*
X0305281Y0352687D01*
X0306480Y0352687D02*
X0306480Y0351474D01*
X0307086Y0350867D01*
X0308906Y0350867D01*
X0307693Y0350867D02*
X0306480Y0349654D01*
X0308906Y0349654D02*
X0308906Y0353294D01*
X0307086Y0353294D01*
X0306480Y0352687D01*
X0306440Y0358453D02*
X0307654Y0359667D01*
X0307047Y0359667D02*
X0308867Y0359667D01*
X0308867Y0358453D02*
X0308867Y0362093D01*
X0307047Y0362093D01*
X0306440Y0361487D01*
X0306440Y0360273D01*
X0307047Y0359667D01*
X0305242Y0358453D02*
X0302815Y0360880D01*
X0302815Y0361487D01*
X0303422Y0362093D01*
X0304635Y0362093D01*
X0305242Y0361487D01*
X0305242Y0358453D02*
X0302815Y0358453D01*
X0301617Y0359060D02*
X0301010Y0358453D01*
X0299797Y0358453D01*
X0299190Y0359060D01*
X0299190Y0360273D01*
X0299797Y0360880D01*
X0300403Y0360880D01*
X0301617Y0360273D01*
X0301617Y0362093D01*
X0299190Y0362093D01*
X0299151Y0344416D02*
X0300364Y0343809D01*
X0301577Y0342596D01*
X0299757Y0342596D01*
X0299151Y0341989D01*
X0299151Y0341383D01*
X0299757Y0340776D01*
X0300971Y0340776D01*
X0301577Y0341383D01*
X0301577Y0342596D01*
X0302776Y0340776D02*
X0305203Y0340776D01*
X0306401Y0340776D02*
X0307614Y0341989D01*
X0307008Y0341989D02*
X0308828Y0341989D01*
X0308828Y0340776D02*
X0308828Y0344416D01*
X0307008Y0344416D01*
X0306401Y0343809D01*
X0306401Y0342596D01*
X0307008Y0341989D01*
X0305203Y0343203D02*
X0303989Y0344416D01*
X0303989Y0340776D01*
X0316938Y0341220D02*
X0320578Y0341220D01*
X0319365Y0340007D01*
X0319971Y0338808D02*
X0320578Y0338202D01*
X0320578Y0336988D01*
X0319971Y0336382D01*
X0317545Y0336382D01*
X0316938Y0336988D01*
X0316938Y0338202D01*
X0317545Y0338808D01*
X0316938Y0340007D02*
X0316938Y0342433D01*
X0316938Y0343632D02*
X0316938Y0346059D01*
X0316938Y0344845D02*
X0320578Y0344845D01*
X0319365Y0343632D01*
X0329428Y0350524D02*
X0332564Y0353660D01*
X0329428Y0350524D01*
X0329428Y0352092D02*
X0332564Y0352092D01*
X0329428Y0352092D01*
X0329428Y0353660D02*
X0332564Y0350524D01*
X0329428Y0353660D01*
X0330996Y0353660D02*
X0330996Y0350524D01*
X0330996Y0353660D01*
X0342912Y0370441D02*
X0345339Y0370441D01*
X0342912Y0372868D01*
X0342912Y0373475D01*
X0343519Y0374081D01*
X0344732Y0374081D01*
X0345339Y0373475D01*
X0345787Y0376209D02*
X0347001Y0376209D01*
X0347607Y0376816D01*
X0346394Y0378029D02*
X0345787Y0378029D01*
X0345181Y0377422D01*
X0345181Y0376816D01*
X0345787Y0376209D01*
X0345787Y0378029D02*
X0345181Y0378636D01*
X0345181Y0379242D01*
X0345787Y0379849D01*
X0347001Y0379849D01*
X0347607Y0379242D01*
X0343982Y0379849D02*
X0343982Y0377422D01*
X0342769Y0376209D01*
X0341555Y0377422D01*
X0341555Y0379849D01*
X0340357Y0379242D02*
X0339750Y0379849D01*
X0338537Y0379849D01*
X0337930Y0379242D01*
X0337930Y0378636D01*
X0338537Y0378029D01*
X0337930Y0377422D01*
X0337930Y0376816D01*
X0338537Y0376209D01*
X0339750Y0376209D01*
X0340357Y0376816D01*
X0339144Y0378029D02*
X0338537Y0378029D01*
X0346537Y0370441D02*
X0348964Y0370441D01*
X0348964Y0374081D01*
X0365726Y0376388D02*
X0368152Y0373961D01*
X0368152Y0373355D01*
X0369351Y0373961D02*
X0369957Y0373355D01*
X0371171Y0373355D01*
X0371777Y0373961D01*
X0372976Y0373355D02*
X0374189Y0374568D01*
X0373582Y0374568D02*
X0375403Y0374568D01*
X0375403Y0373355D02*
X0375403Y0376995D01*
X0373582Y0376995D01*
X0372976Y0376388D01*
X0372976Y0375175D01*
X0373582Y0374568D01*
X0371777Y0376388D02*
X0371171Y0376995D01*
X0369957Y0376995D01*
X0369351Y0376388D01*
X0369351Y0375781D01*
X0369957Y0375175D01*
X0369351Y0374568D01*
X0369351Y0373961D01*
X0369957Y0375175D02*
X0370564Y0375175D01*
X0368152Y0376995D02*
X0365726Y0376995D01*
X0365726Y0376388D01*
X0378163Y0353668D02*
X0377556Y0353061D01*
X0377556Y0352455D01*
X0378163Y0351848D01*
X0377556Y0351241D01*
X0377556Y0350635D01*
X0378163Y0350028D01*
X0379376Y0350028D01*
X0379983Y0350635D01*
X0381181Y0350635D02*
X0381788Y0350028D01*
X0383001Y0350028D01*
X0383608Y0350635D01*
X0384807Y0350028D02*
X0386020Y0351241D01*
X0385413Y0351241D02*
X0387233Y0351241D01*
X0387233Y0350028D02*
X0387233Y0353668D01*
X0385413Y0353668D01*
X0384807Y0353061D01*
X0384807Y0351848D01*
X0385413Y0351241D01*
X0383608Y0353061D02*
X0383001Y0353668D01*
X0381788Y0353668D01*
X0381181Y0353061D01*
X0381181Y0352455D01*
X0381788Y0351848D01*
X0381181Y0351241D01*
X0381181Y0350635D01*
X0381788Y0351848D02*
X0382395Y0351848D01*
X0379983Y0353061D02*
X0379376Y0353668D01*
X0378163Y0353668D01*
X0378163Y0351848D02*
X0378770Y0351848D01*
X0369299Y0343541D02*
X0369299Y0342328D01*
X0368692Y0341721D01*
X0368692Y0340522D02*
X0367479Y0340522D01*
X0366872Y0339916D01*
X0366872Y0338096D01*
X0366872Y0339309D02*
X0365659Y0340522D01*
X0365659Y0341721D02*
X0368085Y0344148D01*
X0368692Y0344148D01*
X0369299Y0343541D01*
X0368692Y0340522D02*
X0369299Y0339916D01*
X0369299Y0338096D01*
X0365659Y0338096D01*
X0365659Y0341721D02*
X0365659Y0344148D01*
X0352055Y0331569D02*
X0351448Y0330355D01*
X0350234Y0329142D01*
X0350234Y0330962D01*
X0349628Y0331569D01*
X0349021Y0331569D01*
X0348414Y0330962D01*
X0348414Y0329749D01*
X0349021Y0329142D01*
X0350234Y0329142D01*
X0349021Y0327944D02*
X0348414Y0327337D01*
X0348414Y0326124D01*
X0349021Y0325517D01*
X0351448Y0325517D01*
X0352055Y0326124D01*
X0352055Y0327337D01*
X0351448Y0327944D01*
X0382478Y0327557D02*
X0384298Y0327557D01*
X0384904Y0328163D01*
X0384904Y0328770D01*
X0384298Y0329377D01*
X0383084Y0329377D01*
X0382478Y0328770D01*
X0382478Y0326343D01*
X0383084Y0325737D01*
X0384298Y0325737D01*
X0384904Y0326343D01*
X0386103Y0326343D02*
X0386709Y0325737D01*
X0387923Y0325737D01*
X0388529Y0326343D01*
X0389728Y0325737D02*
X0390941Y0326950D01*
X0390334Y0326950D02*
X0392155Y0326950D01*
X0392155Y0325737D02*
X0392155Y0329377D01*
X0390334Y0329377D01*
X0389728Y0328770D01*
X0389728Y0327557D01*
X0390334Y0326950D01*
X0388529Y0328770D02*
X0387923Y0329377D01*
X0386709Y0329377D01*
X0386103Y0328770D01*
X0386103Y0328163D01*
X0386709Y0327557D01*
X0386103Y0326950D01*
X0386103Y0326343D01*
X0386709Y0327557D02*
X0387316Y0327557D01*
X0401248Y0345716D02*
X0404384Y0348852D01*
X0404384Y0347284D02*
X0401248Y0347284D01*
X0401248Y0348852D02*
X0404384Y0345716D01*
X0402816Y0345716D02*
X0402816Y0348852D01*
X0405368Y0367410D02*
X0405368Y0371050D01*
X0407188Y0369230D01*
X0404761Y0369230D01*
X0408386Y0369837D02*
X0408993Y0369230D01*
X0408386Y0368623D01*
X0408386Y0368017D01*
X0408993Y0367410D01*
X0410206Y0367410D01*
X0410813Y0368017D01*
X0412011Y0367410D02*
X0413225Y0368623D01*
X0412618Y0368623D02*
X0414438Y0368623D01*
X0414438Y0367410D02*
X0414438Y0371050D01*
X0412618Y0371050D01*
X0412011Y0370443D01*
X0412011Y0369230D01*
X0412618Y0368623D01*
X0410813Y0370443D02*
X0410206Y0371050D01*
X0408993Y0371050D01*
X0408386Y0370443D01*
X0408386Y0369837D01*
X0408993Y0369230D02*
X0409599Y0369230D01*
X0423296Y0350448D02*
X0423296Y0348022D01*
X0425723Y0350448D01*
X0426330Y0350448D01*
X0426936Y0349842D01*
X0426936Y0348628D01*
X0426330Y0348022D01*
X0426936Y0345610D02*
X0423296Y0345610D01*
X0423296Y0346823D02*
X0423296Y0344396D01*
X0423296Y0343198D02*
X0424510Y0341985D01*
X0424510Y0342591D02*
X0424510Y0340771D01*
X0423296Y0340771D02*
X0426936Y0340771D01*
X0426936Y0342591D01*
X0426330Y0343198D01*
X0425116Y0343198D01*
X0424510Y0342591D01*
X0425723Y0344396D02*
X0426936Y0345610D01*
X0426389Y0336177D02*
X0425782Y0336177D01*
X0425175Y0335570D01*
X0424569Y0336177D01*
X0423962Y0336177D01*
X0423355Y0335570D01*
X0423355Y0334357D01*
X0423962Y0333750D01*
X0423355Y0332552D02*
X0423355Y0330125D01*
X0423355Y0328926D02*
X0424569Y0327713D01*
X0424569Y0328320D02*
X0424569Y0326500D01*
X0423355Y0326500D02*
X0426995Y0326500D01*
X0426995Y0328320D01*
X0426389Y0328926D01*
X0425175Y0328926D01*
X0424569Y0328320D01*
X0425782Y0330125D02*
X0426995Y0331338D01*
X0423355Y0331338D01*
X0426389Y0333750D02*
X0426995Y0334357D01*
X0426995Y0335570D01*
X0426389Y0336177D01*
X0425175Y0335570D02*
X0425175Y0334963D01*
X0437773Y0337485D02*
X0438379Y0336878D01*
X0439593Y0336878D01*
X0440200Y0337485D01*
X0441398Y0336878D02*
X0443825Y0336878D01*
X0442611Y0336878D02*
X0442611Y0340518D01*
X0443825Y0339305D01*
X0445023Y0339912D02*
X0445630Y0340518D01*
X0446843Y0340518D01*
X0447450Y0339912D01*
X0447450Y0337485D01*
X0446843Y0336878D01*
X0445630Y0336878D01*
X0445023Y0337485D01*
X0440200Y0339912D02*
X0439593Y0340518D01*
X0438379Y0340518D01*
X0437773Y0339912D01*
X0437773Y0339305D01*
X0438379Y0338698D01*
X0437773Y0338092D01*
X0437773Y0337485D01*
X0438379Y0338698D02*
X0438986Y0338698D01*
X0440557Y0345378D02*
X0439950Y0345984D01*
X0439950Y0347198D01*
X0440557Y0347804D01*
X0441770Y0349003D02*
X0441770Y0351430D01*
X0442983Y0352628D02*
X0443590Y0353235D01*
X0443590Y0354448D01*
X0442983Y0355055D01*
X0442377Y0355055D01*
X0439950Y0352628D01*
X0439950Y0355055D01*
X0439950Y0350823D02*
X0443590Y0350823D01*
X0441770Y0349003D01*
X0442983Y0347804D02*
X0443590Y0347198D01*
X0443590Y0345984D01*
X0442983Y0345378D01*
X0440557Y0345378D01*
X0452066Y0345112D02*
X0452672Y0344505D01*
X0452066Y0343899D01*
X0452066Y0343292D01*
X0452672Y0342685D01*
X0453886Y0342685D01*
X0454492Y0343292D01*
X0455691Y0342685D02*
X0458118Y0342685D01*
X0458118Y0346326D01*
X0454492Y0345719D02*
X0453886Y0346326D01*
X0452672Y0346326D01*
X0452066Y0345719D01*
X0452066Y0345112D01*
X0452672Y0344505D02*
X0453279Y0344505D01*
X0462930Y0343928D02*
X0465357Y0341501D01*
X0464750Y0340894D01*
X0463537Y0340894D01*
X0462930Y0341501D01*
X0462930Y0343928D01*
X0463537Y0344534D01*
X0464750Y0344534D01*
X0465357Y0343928D01*
X0465357Y0341501D01*
X0466555Y0340894D02*
X0468982Y0340894D01*
X0470181Y0340894D02*
X0471394Y0342107D01*
X0470787Y0342107D02*
X0472607Y0342107D01*
X0472607Y0340894D02*
X0472607Y0344534D01*
X0470787Y0344534D01*
X0470181Y0343928D01*
X0470181Y0342714D01*
X0470787Y0342107D01*
X0468982Y0343321D02*
X0467769Y0344534D01*
X0467769Y0340894D01*
X0474966Y0361913D02*
X0474359Y0362520D01*
X0474359Y0363733D01*
X0474966Y0364340D01*
X0476179Y0364340D01*
X0476786Y0363733D01*
X0476786Y0363126D01*
X0476179Y0361913D01*
X0477999Y0361913D01*
X0477999Y0364340D01*
X0477999Y0365538D02*
X0475573Y0365538D01*
X0474359Y0366752D01*
X0475573Y0367965D01*
X0477999Y0367965D01*
X0477393Y0369163D02*
X0474966Y0369163D01*
X0477393Y0371590D01*
X0474966Y0371590D01*
X0474359Y0370983D01*
X0474359Y0369770D01*
X0474966Y0369163D01*
X0477393Y0369163D02*
X0477999Y0369770D01*
X0477999Y0370983D01*
X0477393Y0371590D01*
X0501316Y0370384D02*
X0501316Y0367957D01*
X0501923Y0367351D01*
X0503743Y0367351D01*
X0503743Y0370991D01*
X0501923Y0370991D01*
X0501316Y0370384D01*
X0504941Y0370991D02*
X0504941Y0367351D01*
X0507368Y0370991D01*
X0507368Y0367351D01*
X0508566Y0367957D02*
X0508566Y0369171D01*
X0509780Y0369171D01*
X0510993Y0370384D02*
X0510993Y0367957D01*
X0510386Y0367351D01*
X0509173Y0367351D01*
X0508566Y0367957D01*
X0508566Y0370384D02*
X0509173Y0370991D01*
X0510386Y0370991D01*
X0510993Y0370384D01*
X0470854Y0318766D02*
X0469034Y0318766D01*
X0468427Y0318160D01*
X0468427Y0316946D01*
X0469034Y0316340D01*
X0470854Y0316340D01*
X0470854Y0315126D02*
X0470854Y0318766D01*
X0469640Y0316340D02*
X0468427Y0315126D01*
X0467229Y0315733D02*
X0466622Y0315126D01*
X0465409Y0315126D01*
X0464802Y0315733D01*
X0464802Y0316340D01*
X0465409Y0316946D01*
X0467229Y0316946D01*
X0467229Y0315733D01*
X0467229Y0316946D02*
X0466015Y0318160D01*
X0464802Y0318766D01*
X0463447Y0310361D02*
X0465267Y0308541D01*
X0462841Y0308541D01*
X0463447Y0306721D02*
X0463447Y0310361D01*
X0466466Y0310361D02*
X0466466Y0306721D01*
X0468893Y0310361D01*
X0468893Y0306721D01*
X0470091Y0306721D02*
X0470091Y0310361D01*
X0472518Y0310361D02*
X0470091Y0306721D01*
X0472518Y0306721D02*
X0472518Y0310361D01*
X0473716Y0309754D02*
X0474323Y0310361D01*
X0475536Y0310361D01*
X0476143Y0309754D01*
X0476143Y0307328D01*
X0475536Y0306721D01*
X0474323Y0306721D01*
X0473716Y0307328D01*
X0473716Y0309754D01*
X0477341Y0309754D02*
X0477948Y0310361D01*
X0479161Y0310361D01*
X0479768Y0309754D01*
X0479768Y0307328D01*
X0479161Y0306721D01*
X0477948Y0306721D01*
X0477341Y0307328D01*
X0490489Y0288491D02*
X0490489Y0287884D01*
X0492916Y0285457D01*
X0492916Y0284851D01*
X0494114Y0284851D02*
X0496541Y0284851D01*
X0497740Y0284851D02*
X0498953Y0286064D01*
X0498346Y0286064D02*
X0500166Y0286064D01*
X0500166Y0284851D02*
X0500166Y0288491D01*
X0498346Y0288491D01*
X0497740Y0287884D01*
X0497740Y0286671D01*
X0498346Y0286064D01*
X0496541Y0287278D02*
X0495328Y0288491D01*
X0495328Y0284851D01*
X0492916Y0288491D02*
X0490489Y0288491D01*
X0491116Y0258097D02*
X0490509Y0257491D01*
X0490509Y0256884D01*
X0491116Y0256277D01*
X0492329Y0256277D01*
X0492936Y0256884D01*
X0492936Y0257491D01*
X0492329Y0258097D01*
X0491116Y0258097D01*
X0491116Y0256277D02*
X0490509Y0255670D01*
X0490509Y0255064D01*
X0491116Y0254457D01*
X0492329Y0254457D01*
X0492936Y0255064D01*
X0492936Y0255670D01*
X0492329Y0256277D01*
X0494134Y0254457D02*
X0496561Y0254457D01*
X0497759Y0254457D02*
X0498973Y0255670D01*
X0498366Y0255670D02*
X0500186Y0255670D01*
X0500186Y0254457D02*
X0500186Y0258097D01*
X0498366Y0258097D01*
X0497759Y0257491D01*
X0497759Y0256277D01*
X0498366Y0255670D01*
X0496561Y0256884D02*
X0495348Y0258097D01*
X0495348Y0254457D01*
X0458295Y0251497D02*
X0454655Y0251497D01*
X0454655Y0250284D02*
X0454655Y0252711D01*
X0457081Y0250284D02*
X0458295Y0251497D01*
X0457688Y0249085D02*
X0458295Y0248479D01*
X0458295Y0247265D01*
X0457688Y0246659D01*
X0455261Y0246659D01*
X0454655Y0247265D01*
X0454655Y0248479D01*
X0455261Y0249085D01*
X0438295Y0253587D02*
X0437688Y0252981D01*
X0436475Y0252981D01*
X0435868Y0253587D01*
X0434670Y0252981D02*
X0432243Y0255407D01*
X0432243Y0256014D01*
X0432849Y0256621D01*
X0434063Y0256621D01*
X0434670Y0256014D01*
X0435868Y0256014D02*
X0436475Y0256621D01*
X0437688Y0256621D01*
X0438295Y0256014D01*
X0438295Y0253587D01*
X0434670Y0252981D02*
X0432243Y0252981D01*
X0454714Y0233453D02*
X0455320Y0233453D01*
X0457747Y0235880D01*
X0458354Y0235880D01*
X0458354Y0233453D01*
X0457747Y0232255D02*
X0458354Y0231648D01*
X0458354Y0230435D01*
X0457747Y0229828D01*
X0455320Y0229828D01*
X0454714Y0230435D01*
X0454714Y0231648D01*
X0455320Y0232255D01*
X0455701Y0198521D02*
X0458837Y0195385D01*
X0457269Y0195385D02*
X0457269Y0198521D01*
X0458837Y0198521D02*
X0455701Y0195385D01*
X0455701Y0196953D02*
X0458837Y0196953D01*
X0469755Y0183117D02*
X0469755Y0179477D01*
X0468542Y0179477D02*
X0470969Y0179477D01*
X0473381Y0179477D02*
X0473381Y0183117D01*
X0474594Y0183117D02*
X0472167Y0183117D01*
X0470969Y0181904D02*
X0469755Y0183117D01*
X0445473Y0169922D02*
X0442337Y0166786D01*
X0442337Y0168354D02*
X0445473Y0168354D01*
X0445473Y0166786D02*
X0442337Y0169922D01*
X0443905Y0169922D02*
X0443905Y0166786D01*
X0473737Y0156644D02*
X0474344Y0157251D01*
X0475557Y0157251D01*
X0476164Y0156644D01*
X0477362Y0156644D02*
X0477969Y0157251D01*
X0479183Y0157251D01*
X0479789Y0156644D01*
X0480988Y0156644D02*
X0480988Y0155431D01*
X0481594Y0154824D01*
X0483414Y0154824D01*
X0482201Y0154824D02*
X0480988Y0153611D01*
X0479789Y0153611D02*
X0477362Y0156037D01*
X0477362Y0156644D01*
X0477362Y0153611D02*
X0479789Y0153611D01*
X0480988Y0156644D02*
X0481594Y0157251D01*
X0483414Y0157251D01*
X0483414Y0153611D01*
X0476164Y0153611D02*
X0473737Y0156037D01*
X0473737Y0156644D01*
X0473737Y0153611D02*
X0476164Y0153611D01*
X0495403Y0179945D02*
X0499043Y0179945D01*
X0499043Y0181765D01*
X0498436Y0182371D01*
X0497223Y0182371D01*
X0496616Y0181765D01*
X0496616Y0179945D01*
X0496616Y0181158D02*
X0495403Y0182371D01*
X0496009Y0183570D02*
X0495403Y0184176D01*
X0495403Y0185390D01*
X0496009Y0185996D01*
X0496616Y0185996D01*
X0497223Y0185390D01*
X0497223Y0184783D01*
X0497223Y0185390D02*
X0497829Y0185996D01*
X0498436Y0185996D01*
X0499043Y0185390D01*
X0499043Y0184176D01*
X0498436Y0183570D01*
X0498436Y0187195D02*
X0496009Y0187195D01*
X0498436Y0189622D01*
X0496009Y0189622D01*
X0495403Y0189015D01*
X0495403Y0187802D01*
X0496009Y0187195D01*
X0498436Y0187195D02*
X0499043Y0187802D01*
X0499043Y0189015D01*
X0498436Y0189622D01*
X0408876Y0230998D02*
X0405740Y0234134D01*
X0405740Y0232566D02*
X0408876Y0232566D01*
X0408876Y0234134D02*
X0405740Y0230998D01*
X0407308Y0230998D02*
X0407308Y0234134D01*
X0388354Y0234425D02*
X0387747Y0235032D01*
X0387140Y0235032D01*
X0386534Y0234425D01*
X0385927Y0235032D01*
X0385320Y0235032D01*
X0384714Y0234425D01*
X0384714Y0233212D01*
X0385320Y0232605D01*
X0384714Y0231407D02*
X0385927Y0230193D01*
X0385927Y0230800D02*
X0385927Y0228980D01*
X0384714Y0228980D02*
X0388354Y0228980D01*
X0388354Y0230800D01*
X0387747Y0231407D01*
X0386534Y0231407D01*
X0385927Y0230800D01*
X0387747Y0232605D02*
X0388354Y0233212D01*
X0388354Y0234425D01*
X0386534Y0234425D02*
X0386534Y0233818D01*
X0386534Y0236230D02*
X0386534Y0238050D01*
X0385927Y0238657D01*
X0385320Y0238657D01*
X0384714Y0238050D01*
X0384714Y0236837D01*
X0385320Y0236230D01*
X0386534Y0236230D01*
X0387747Y0237444D01*
X0388354Y0238657D01*
X0359052Y0257115D02*
X0357839Y0257115D01*
X0358445Y0257115D02*
X0358445Y0260755D01*
X0357839Y0260755D02*
X0359052Y0260755D01*
X0356635Y0260148D02*
X0356635Y0257721D01*
X0356028Y0257115D01*
X0354815Y0257115D01*
X0354208Y0257721D01*
X0353010Y0257115D02*
X0350583Y0257115D01*
X0349385Y0257115D02*
X0346958Y0259541D01*
X0346958Y0260148D01*
X0347565Y0260755D01*
X0348778Y0260755D01*
X0349385Y0260148D01*
X0351797Y0260755D02*
X0351797Y0257115D01*
X0349385Y0257115D02*
X0346958Y0257115D01*
X0351797Y0260755D02*
X0353010Y0259541D01*
X0354208Y0260148D02*
X0354815Y0260755D01*
X0356028Y0260755D01*
X0356635Y0260148D01*
X0269023Y0279198D02*
X0269023Y0281018D01*
X0268416Y0281625D01*
X0267203Y0281625D01*
X0266596Y0281018D01*
X0266596Y0279198D01*
X0265383Y0279198D02*
X0269023Y0279198D01*
X0266596Y0280411D02*
X0265383Y0281625D01*
X0265990Y0282823D02*
X0266596Y0282823D01*
X0267203Y0283430D01*
X0267203Y0284643D01*
X0266596Y0285250D01*
X0265990Y0285250D01*
X0265383Y0284643D01*
X0265383Y0283430D01*
X0265990Y0282823D01*
X0267203Y0283430D02*
X0267810Y0282823D01*
X0268416Y0282823D01*
X0269023Y0283430D01*
X0269023Y0284643D01*
X0268416Y0285250D01*
X0267810Y0285250D01*
X0267203Y0284643D01*
X0267765Y0291048D02*
X0271405Y0291048D01*
X0271405Y0292869D01*
X0270798Y0293475D01*
X0269585Y0293475D01*
X0268978Y0292869D01*
X0268978Y0291048D01*
X0268978Y0292262D02*
X0267765Y0293475D01*
X0267765Y0294674D02*
X0268372Y0294674D01*
X0270798Y0297100D01*
X0271405Y0297100D01*
X0271405Y0294674D01*
X0255816Y0292920D02*
X0255816Y0289280D01*
X0255816Y0290493D02*
X0253996Y0290493D01*
X0253389Y0291100D01*
X0253389Y0292313D01*
X0253996Y0292920D01*
X0255816Y0292920D01*
X0254603Y0290493D02*
X0253389Y0289280D01*
X0252191Y0289887D02*
X0251584Y0289280D01*
X0250371Y0289280D01*
X0249764Y0289887D01*
X0249764Y0290493D01*
X0250371Y0291100D01*
X0250977Y0291100D01*
X0250371Y0291100D02*
X0249764Y0291707D01*
X0249764Y0292313D01*
X0250371Y0292920D01*
X0251584Y0292920D01*
X0252191Y0292313D01*
X0248566Y0292313D02*
X0247959Y0292920D01*
X0246746Y0292920D01*
X0246139Y0292313D01*
X0246139Y0291707D01*
X0248566Y0289280D01*
X0246139Y0289280D01*
X0246470Y0285282D02*
X0247683Y0285282D01*
X0248290Y0284676D01*
X0248290Y0284069D01*
X0247683Y0283462D01*
X0245863Y0283462D01*
X0245863Y0282249D02*
X0245863Y0284676D01*
X0246470Y0285282D01*
X0245863Y0282249D02*
X0246470Y0281642D01*
X0247683Y0281642D01*
X0248290Y0282249D01*
X0249488Y0281642D02*
X0251915Y0281642D01*
X0253114Y0281642D02*
X0254327Y0282855D01*
X0253720Y0282855D02*
X0255540Y0282855D01*
X0255540Y0281642D02*
X0255540Y0285282D01*
X0253720Y0285282D01*
X0253114Y0284676D01*
X0253114Y0283462D01*
X0253720Y0282855D01*
X0251915Y0284069D02*
X0250702Y0285282D01*
X0250702Y0281642D01*
X0250292Y0298178D02*
X0250292Y0301818D01*
X0252112Y0299998D01*
X0249685Y0299998D01*
X0248487Y0300604D02*
X0247274Y0301818D01*
X0247274Y0298178D01*
X0248487Y0298178D02*
X0246060Y0298178D01*
X0253310Y0298178D02*
X0254524Y0299391D01*
X0253917Y0299391D02*
X0255737Y0299391D01*
X0255737Y0298178D02*
X0255737Y0301818D01*
X0253917Y0301818D01*
X0253310Y0301211D01*
X0253310Y0299998D01*
X0253917Y0299391D01*
X0223452Y0325158D02*
X0222845Y0324551D01*
X0220419Y0324551D01*
X0219812Y0325158D01*
X0219812Y0326371D01*
X0220419Y0326978D01*
X0221632Y0328176D02*
X0221632Y0330603D01*
X0222239Y0331801D02*
X0223452Y0333015D01*
X0219812Y0333015D01*
X0219812Y0334228D02*
X0219812Y0331801D01*
X0219812Y0329996D02*
X0223452Y0329996D01*
X0221632Y0328176D01*
X0222845Y0326978D02*
X0223452Y0326371D01*
X0223452Y0325158D01*
X0215007Y0324978D02*
X0215007Y0323765D01*
X0214401Y0323158D01*
X0214401Y0321959D02*
X0211974Y0321959D01*
X0211367Y0321353D01*
X0211367Y0320139D01*
X0211974Y0319533D01*
X0214401Y0319533D01*
X0215007Y0320139D01*
X0215007Y0321353D01*
X0214401Y0321959D01*
X0212581Y0320746D02*
X0211367Y0321959D01*
X0211367Y0323158D02*
X0213794Y0325585D01*
X0214401Y0325585D01*
X0215007Y0324978D01*
X0211367Y0325585D02*
X0211367Y0323158D01*
X0199397Y0313247D02*
X0198790Y0313854D01*
X0198184Y0313854D01*
X0195757Y0311427D01*
X0195757Y0313854D01*
X0196364Y0310229D02*
X0195757Y0309622D01*
X0195757Y0308409D01*
X0196364Y0307802D01*
X0196364Y0306604D02*
X0195757Y0305997D01*
X0195757Y0304784D01*
X0196364Y0304177D01*
X0198790Y0304177D01*
X0199397Y0304784D01*
X0199397Y0305997D01*
X0198790Y0306604D01*
X0198790Y0307802D02*
X0199397Y0308409D01*
X0199397Y0309622D01*
X0198790Y0310229D01*
X0198184Y0310229D01*
X0197577Y0309622D01*
X0196970Y0310229D01*
X0196364Y0310229D01*
X0197577Y0309622D02*
X0197577Y0309015D01*
X0198790Y0311427D02*
X0199397Y0312034D01*
X0199397Y0313247D01*
X0175716Y0306767D02*
X0175109Y0305554D01*
X0173896Y0304341D01*
X0173896Y0306161D01*
X0173289Y0306767D01*
X0172683Y0306767D01*
X0172076Y0306161D01*
X0172076Y0304947D01*
X0172683Y0304341D01*
X0173896Y0304341D01*
X0174503Y0303142D02*
X0173896Y0302535D01*
X0173289Y0303142D01*
X0172683Y0303142D01*
X0172076Y0302535D01*
X0172076Y0301322D01*
X0172683Y0300715D01*
X0172683Y0299517D02*
X0172076Y0298910D01*
X0172076Y0297697D01*
X0172683Y0297090D01*
X0175109Y0297090D01*
X0175716Y0297697D01*
X0175716Y0298910D01*
X0175109Y0299517D01*
X0175109Y0300715D02*
X0175716Y0301322D01*
X0175716Y0302535D01*
X0175109Y0303142D01*
X0174503Y0303142D01*
X0173896Y0302535D02*
X0173896Y0301929D01*
X0167670Y0308433D02*
X0166456Y0308433D01*
X0165850Y0309040D01*
X0164651Y0308433D02*
X0162225Y0308433D01*
X0161026Y0308433D02*
X0161026Y0309040D01*
X0158600Y0311467D01*
X0158600Y0312074D01*
X0161026Y0312074D01*
X0163438Y0312074D02*
X0163438Y0308433D01*
X0164651Y0310860D02*
X0163438Y0312074D01*
X0165850Y0311467D02*
X0166456Y0312074D01*
X0167670Y0312074D01*
X0168277Y0311467D01*
X0168277Y0309040D01*
X0167670Y0308433D01*
X0168473Y0281295D02*
X0168473Y0278868D01*
X0168473Y0277670D02*
X0168473Y0275243D01*
X0170900Y0277670D01*
X0171507Y0277670D01*
X0172114Y0277063D01*
X0172114Y0275850D01*
X0171507Y0275243D01*
X0171507Y0274045D02*
X0172114Y0273438D01*
X0172114Y0272224D01*
X0171507Y0271618D01*
X0169080Y0271618D01*
X0168473Y0272224D01*
X0168473Y0273438D01*
X0169080Y0274045D01*
X0170900Y0278868D02*
X0172114Y0280081D01*
X0168473Y0280081D01*
X0192588Y0279223D02*
X0193195Y0279829D01*
X0194408Y0279829D01*
X0195015Y0279223D01*
X0195015Y0278616D01*
X0194408Y0278009D01*
X0192588Y0278009D01*
X0192588Y0276796D02*
X0192588Y0279223D01*
X0192588Y0276796D02*
X0193195Y0276189D01*
X0194408Y0276189D01*
X0195015Y0276796D01*
X0196213Y0276189D02*
X0198640Y0276189D01*
X0197427Y0276189D02*
X0197427Y0279829D01*
X0198640Y0278616D01*
X0199838Y0279223D02*
X0200445Y0279829D01*
X0201658Y0279829D01*
X0202265Y0279223D01*
X0202265Y0276796D01*
X0201658Y0276189D01*
X0200445Y0276189D01*
X0199838Y0276796D01*
X0203468Y0276189D02*
X0204682Y0276189D01*
X0204075Y0276189D02*
X0204075Y0279829D01*
X0204682Y0279829D02*
X0203468Y0279829D01*
X0220970Y0249679D02*
X0220363Y0249072D01*
X0220363Y0247859D01*
X0220970Y0247252D01*
X0221577Y0247252D01*
X0222183Y0247859D01*
X0222183Y0249072D01*
X0221577Y0249679D01*
X0220970Y0249679D01*
X0222183Y0249072D02*
X0222790Y0249679D01*
X0223397Y0249679D01*
X0224003Y0249072D01*
X0224003Y0247859D01*
X0223397Y0247252D01*
X0222790Y0247252D01*
X0222183Y0247859D01*
X0220970Y0246054D02*
X0220363Y0245447D01*
X0220363Y0244234D01*
X0220970Y0243627D01*
X0223397Y0243627D01*
X0224003Y0244234D01*
X0224003Y0245447D01*
X0223397Y0246054D01*
X0242452Y0237644D02*
X0242452Y0234004D01*
X0241239Y0234004D02*
X0243666Y0234004D01*
X0244864Y0234004D02*
X0246077Y0235218D01*
X0244864Y0234611D02*
X0245471Y0234004D01*
X0246684Y0234004D01*
X0247291Y0234611D01*
X0247291Y0237038D01*
X0246684Y0237644D01*
X0245471Y0237644D01*
X0244864Y0237038D01*
X0244864Y0234611D01*
X0243666Y0236431D02*
X0242452Y0237644D01*
X0258434Y0236708D02*
X0258434Y0234281D01*
X0260861Y0236708D01*
X0261468Y0236708D01*
X0262074Y0236102D01*
X0262074Y0234888D01*
X0261468Y0234281D01*
X0262074Y0231870D02*
X0258434Y0231870D01*
X0258434Y0233083D02*
X0258434Y0230656D01*
X0259041Y0229458D02*
X0258434Y0228851D01*
X0258434Y0227638D01*
X0259041Y0227031D01*
X0261468Y0227031D01*
X0262074Y0227638D01*
X0262074Y0228851D01*
X0261468Y0229458D01*
X0260861Y0230656D02*
X0262074Y0231870D01*
X0236564Y0198176D02*
X0234744Y0198176D01*
X0234137Y0197569D01*
X0234137Y0196356D01*
X0234744Y0195749D01*
X0236564Y0195749D01*
X0236564Y0194536D02*
X0236564Y0198176D01*
X0235351Y0195749D02*
X0234137Y0194536D01*
X0232939Y0194536D02*
X0230512Y0196963D01*
X0230512Y0197569D01*
X0231119Y0198176D01*
X0232332Y0198176D01*
X0232939Y0197569D01*
X0232939Y0194536D02*
X0230512Y0194536D01*
X0229314Y0194536D02*
X0229314Y0195143D01*
X0226887Y0197569D01*
X0226887Y0198176D01*
X0229314Y0198176D01*
X0223611Y0177752D02*
X0223611Y0175325D01*
X0223611Y0176538D02*
X0227251Y0176538D01*
X0226038Y0175325D01*
X0226038Y0174126D02*
X0225431Y0173520D01*
X0224825Y0174126D01*
X0224218Y0174126D01*
X0223611Y0173520D01*
X0223611Y0172306D01*
X0224218Y0171700D01*
X0223611Y0170501D02*
X0224825Y0169288D01*
X0224825Y0169895D02*
X0224825Y0168074D01*
X0223611Y0168074D02*
X0227251Y0168074D01*
X0227251Y0169895D01*
X0226645Y0170501D01*
X0225431Y0170501D01*
X0224825Y0169895D01*
X0226645Y0171700D02*
X0227251Y0172306D01*
X0227251Y0173520D01*
X0226645Y0174126D01*
X0226038Y0174126D01*
X0225431Y0173520D02*
X0225431Y0172913D01*
X0246938Y0143877D02*
X0250578Y0143877D01*
X0248758Y0142057D01*
X0248758Y0144484D01*
X0249365Y0140859D02*
X0249971Y0140859D01*
X0250578Y0140252D01*
X0250578Y0139039D01*
X0249971Y0138432D01*
X0249971Y0137234D02*
X0250578Y0136627D01*
X0250578Y0135413D01*
X0249971Y0134807D01*
X0247545Y0134807D01*
X0246938Y0135413D01*
X0246938Y0136627D01*
X0247545Y0137234D01*
X0246938Y0138432D02*
X0249365Y0140859D01*
X0246938Y0140859D02*
X0246938Y0138432D01*
X0255875Y0138314D02*
X0258302Y0140741D01*
X0258908Y0140741D01*
X0259515Y0140134D01*
X0259515Y0138920D01*
X0258908Y0138314D01*
X0258908Y0137115D02*
X0259515Y0136509D01*
X0259515Y0135295D01*
X0258908Y0134689D01*
X0256482Y0134689D01*
X0255875Y0135295D01*
X0255875Y0136509D01*
X0256482Y0137115D01*
X0255875Y0138314D02*
X0255875Y0140741D01*
X0256482Y0141939D02*
X0255875Y0142546D01*
X0255875Y0143759D01*
X0256482Y0144366D01*
X0257088Y0144366D01*
X0257695Y0143759D01*
X0257695Y0141939D01*
X0256482Y0141939D01*
X0257695Y0141939D02*
X0258908Y0143152D01*
X0259515Y0144366D01*
X0275225Y0150123D02*
X0275225Y0151943D01*
X0275832Y0152550D01*
X0278259Y0152550D01*
X0278866Y0151943D01*
X0278866Y0150123D01*
X0275225Y0150123D01*
X0275832Y0153748D02*
X0275225Y0154355D01*
X0275225Y0155568D01*
X0275832Y0156175D01*
X0276439Y0156175D01*
X0277046Y0155568D01*
X0277046Y0154962D01*
X0277046Y0155568D02*
X0277652Y0156175D01*
X0278259Y0156175D01*
X0278866Y0155568D01*
X0278866Y0154355D01*
X0278259Y0153748D01*
X0248298Y0118933D02*
X0247692Y0118933D01*
X0247085Y0118326D01*
X0247085Y0117113D01*
X0247692Y0116506D01*
X0248298Y0116506D01*
X0248905Y0117113D01*
X0248905Y0118326D01*
X0248298Y0118933D01*
X0247085Y0118326D02*
X0246478Y0118933D01*
X0245872Y0118933D01*
X0245265Y0118326D01*
X0245265Y0117113D01*
X0245872Y0116506D01*
X0246478Y0116506D01*
X0247085Y0117113D01*
X0247692Y0115307D02*
X0248298Y0115307D01*
X0248905Y0114701D01*
X0248905Y0113487D01*
X0248298Y0112881D01*
X0248298Y0111682D02*
X0248905Y0111076D01*
X0248905Y0109862D01*
X0248298Y0109256D01*
X0245872Y0109256D01*
X0245265Y0109862D01*
X0245265Y0111076D01*
X0245872Y0111682D01*
X0245265Y0112881D02*
X0247692Y0115307D01*
X0245265Y0115307D02*
X0245265Y0112881D01*
X0224495Y0122700D02*
X0224495Y0124521D01*
X0223889Y0125127D01*
X0222675Y0125127D01*
X0222069Y0124521D01*
X0222069Y0122700D01*
X0220855Y0122700D02*
X0224495Y0122700D01*
X0222069Y0123914D02*
X0220855Y0125127D01*
X0221462Y0126326D02*
X0220855Y0126932D01*
X0220855Y0128146D01*
X0221462Y0128752D01*
X0222069Y0128752D01*
X0222675Y0128146D01*
X0222675Y0127539D01*
X0222675Y0128146D02*
X0223282Y0128752D01*
X0223889Y0128752D01*
X0224495Y0128146D01*
X0224495Y0126932D01*
X0223889Y0126326D01*
X0223889Y0129951D02*
X0223282Y0129951D01*
X0222675Y0130557D01*
X0222675Y0131771D01*
X0222069Y0132377D01*
X0221462Y0132377D01*
X0220855Y0131771D01*
X0220855Y0130557D01*
X0221462Y0129951D01*
X0222069Y0129951D01*
X0222675Y0130557D01*
X0222675Y0131771D02*
X0223282Y0132377D01*
X0223889Y0132377D01*
X0224495Y0131771D01*
X0224495Y0130557D01*
X0223889Y0129951D01*
X0212629Y0118913D02*
X0212022Y0118913D01*
X0211416Y0118306D01*
X0210809Y0118913D01*
X0210202Y0118913D01*
X0209596Y0118306D01*
X0209596Y0117093D01*
X0210202Y0116486D01*
X0210202Y0115288D02*
X0209596Y0114681D01*
X0209596Y0113468D01*
X0210202Y0112861D01*
X0210202Y0111663D02*
X0209596Y0111056D01*
X0209596Y0109843D01*
X0210202Y0109236D01*
X0212629Y0109236D01*
X0213236Y0109843D01*
X0213236Y0111056D01*
X0212629Y0111663D01*
X0212629Y0112861D02*
X0213236Y0113468D01*
X0213236Y0114681D01*
X0212629Y0115288D01*
X0212022Y0115288D01*
X0211416Y0114681D01*
X0210809Y0115288D01*
X0210202Y0115288D01*
X0211416Y0114681D02*
X0211416Y0114074D01*
X0212629Y0116486D02*
X0213236Y0117093D01*
X0213236Y0118306D01*
X0212629Y0118913D01*
X0211416Y0118306D02*
X0211416Y0117700D01*
X0187310Y0104790D02*
X0187310Y0101150D01*
X0187310Y0102363D02*
X0185490Y0102363D01*
X0184884Y0102970D01*
X0184884Y0104183D01*
X0185490Y0104790D01*
X0187310Y0104790D01*
X0186097Y0102363D02*
X0184884Y0101150D01*
X0183685Y0101150D02*
X0181259Y0101150D01*
X0182472Y0101150D02*
X0182472Y0104790D01*
X0183685Y0103577D01*
X0167645Y0104006D02*
X0167645Y0101580D01*
X0167038Y0100973D01*
X0165825Y0100973D01*
X0165218Y0101580D01*
X0164020Y0101580D02*
X0163413Y0100973D01*
X0162200Y0100973D01*
X0161593Y0101580D01*
X0161593Y0102186D01*
X0162200Y0102793D01*
X0162807Y0102793D01*
X0162200Y0102793D02*
X0161593Y0103400D01*
X0161593Y0104006D01*
X0162200Y0104613D01*
X0163413Y0104613D01*
X0164020Y0104006D01*
X0165218Y0104006D02*
X0165825Y0104613D01*
X0167038Y0104613D01*
X0167645Y0104006D01*
X0163403Y0118598D02*
X0163403Y0120418D01*
X0162796Y0121024D01*
X0160370Y0121024D01*
X0159763Y0120418D01*
X0159763Y0118598D01*
X0163403Y0118598D01*
X0162190Y0122223D02*
X0163403Y0123436D01*
X0159763Y0123436D01*
X0159763Y0122223D02*
X0159763Y0124650D01*
X0178345Y0119400D02*
X0178345Y0118793D01*
X0178952Y0118187D01*
X0178345Y0117580D01*
X0178345Y0116973D01*
X0178952Y0116367D01*
X0180165Y0116367D01*
X0180772Y0116973D01*
X0181970Y0116367D02*
X0183184Y0117580D01*
X0182577Y0117580D02*
X0184397Y0117580D01*
X0184397Y0116367D02*
X0184397Y0120007D01*
X0182577Y0120007D01*
X0181970Y0119400D01*
X0181970Y0118187D01*
X0182577Y0117580D01*
X0180772Y0119400D02*
X0180165Y0120007D01*
X0178952Y0120007D01*
X0178345Y0119400D01*
X0178952Y0118187D02*
X0179559Y0118187D01*
X0117155Y0172977D02*
X0116548Y0172370D01*
X0115334Y0172370D01*
X0114728Y0172977D01*
X0113529Y0172370D02*
X0111103Y0174797D01*
X0111103Y0175404D01*
X0111709Y0176011D01*
X0112923Y0176011D01*
X0113529Y0175404D01*
X0114728Y0175404D02*
X0115334Y0176011D01*
X0116548Y0176011D01*
X0117155Y0175404D01*
X0117155Y0172977D01*
X0113529Y0172370D02*
X0111103Y0172370D01*
X0109904Y0172370D02*
X0107477Y0174797D01*
X0107477Y0175404D01*
X0108084Y0176011D01*
X0109298Y0176011D01*
X0109904Y0175404D01*
X0109904Y0172370D02*
X0107477Y0172370D01*
X0139871Y0201225D02*
X0140478Y0200619D01*
X0141692Y0200619D01*
X0142298Y0201225D01*
X0139871Y0203652D01*
X0139871Y0201225D01*
X0139871Y0203652D02*
X0140478Y0204259D01*
X0141692Y0204259D01*
X0142298Y0203652D01*
X0142298Y0201225D01*
X0143497Y0200619D02*
X0145923Y0200619D01*
X0143497Y0203045D01*
X0143497Y0203652D01*
X0144103Y0204259D01*
X0145317Y0204259D01*
X0145923Y0203652D01*
X0147122Y0203652D02*
X0147728Y0204259D01*
X0148942Y0204259D01*
X0149548Y0203652D01*
X0149548Y0201225D01*
X0148942Y0200619D01*
X0147728Y0200619D01*
X0147122Y0201225D01*
X0150752Y0200619D02*
X0151965Y0200619D01*
X0151359Y0200619D02*
X0151359Y0204259D01*
X0151965Y0204259D02*
X0150752Y0204259D01*
X0167233Y0211931D02*
X0167233Y0213144D01*
X0167840Y0213751D01*
X0169053Y0214949D02*
X0169053Y0217376D01*
X0167233Y0216769D02*
X0170873Y0216769D01*
X0169053Y0214949D01*
X0170267Y0213751D02*
X0170873Y0213144D01*
X0170873Y0211931D01*
X0170267Y0211324D01*
X0167840Y0211324D01*
X0167233Y0211931D01*
X0137804Y0299103D02*
X0137804Y0302743D01*
X0135984Y0302743D01*
X0135377Y0302136D01*
X0135377Y0300923D01*
X0135984Y0300316D01*
X0137804Y0300316D01*
X0136591Y0300316D02*
X0135377Y0299103D01*
X0134179Y0299103D02*
X0131752Y0301529D01*
X0131752Y0302136D01*
X0132359Y0302743D01*
X0133572Y0302743D01*
X0134179Y0302136D01*
X0134179Y0299103D02*
X0131752Y0299103D01*
X0130554Y0299709D02*
X0129947Y0299103D01*
X0128734Y0299103D01*
X0128127Y0299709D01*
X0128127Y0300316D01*
X0128734Y0300923D01*
X0130554Y0300923D01*
X0130554Y0299709D01*
X0130554Y0300923D02*
X0129340Y0302136D01*
X0128127Y0302743D01*
X0106661Y0303770D02*
X0106661Y0301343D01*
X0106054Y0300737D01*
X0104841Y0300737D01*
X0104234Y0301343D01*
X0103036Y0301343D02*
X0102429Y0300737D01*
X0101216Y0300737D01*
X0100609Y0301343D01*
X0100609Y0303770D01*
X0101216Y0304377D01*
X0102429Y0304377D01*
X0103036Y0303770D01*
X0103036Y0303163D01*
X0102429Y0302557D01*
X0100609Y0302557D01*
X0104234Y0303770D02*
X0104841Y0304377D01*
X0106054Y0304377D01*
X0106661Y0303770D01*
X0092706Y0303711D02*
X0092706Y0301284D01*
X0092099Y0300678D01*
X0090886Y0300678D01*
X0090279Y0301284D01*
X0089081Y0300678D02*
X0086654Y0300678D01*
X0087867Y0300678D02*
X0087867Y0304318D01*
X0089081Y0303104D01*
X0090279Y0303711D02*
X0090886Y0304318D01*
X0092099Y0304318D01*
X0092706Y0303711D01*
X0085455Y0303711D02*
X0085455Y0301284D01*
X0083029Y0303711D01*
X0083029Y0301284D01*
X0083635Y0300678D01*
X0084849Y0300678D01*
X0085455Y0301284D01*
X0085455Y0303711D02*
X0084849Y0304318D01*
X0083635Y0304318D01*
X0083029Y0303711D01*
X0076581Y0329772D02*
X0075368Y0329772D01*
X0075974Y0329772D02*
X0075974Y0333412D01*
X0075368Y0333412D02*
X0076581Y0333412D01*
X0074164Y0332805D02*
X0074164Y0330379D01*
X0073558Y0329772D01*
X0072344Y0329772D01*
X0071738Y0330379D01*
X0070539Y0329772D02*
X0068112Y0329772D01*
X0069326Y0329772D02*
X0069326Y0333412D01*
X0070539Y0332199D01*
X0071738Y0332805D02*
X0072344Y0333412D01*
X0073558Y0333412D01*
X0074164Y0332805D01*
X0066914Y0332805D02*
X0066914Y0332199D01*
X0066307Y0331592D01*
X0065094Y0331592D01*
X0064487Y0330985D01*
X0064487Y0330379D01*
X0065094Y0329772D01*
X0066307Y0329772D01*
X0066914Y0330379D01*
X0066914Y0330985D01*
X0066307Y0331592D01*
X0065094Y0331592D02*
X0064487Y0332199D01*
X0064487Y0332805D01*
X0065094Y0333412D01*
X0066307Y0333412D01*
X0066914Y0332805D01*
X0203159Y0338017D02*
X0203159Y0340444D01*
X0203159Y0341642D02*
X0203159Y0344069D01*
X0203159Y0342855D02*
X0206799Y0342855D01*
X0205585Y0341642D01*
X0206799Y0338017D02*
X0203159Y0338017D01*
X0330131Y0176030D02*
X0329525Y0175424D01*
X0329525Y0174817D01*
X0330131Y0174210D01*
X0329525Y0173604D01*
X0329525Y0172997D01*
X0330131Y0172390D01*
X0331345Y0172390D01*
X0331951Y0172997D01*
X0333150Y0174210D02*
X0335577Y0174210D01*
X0333757Y0176030D01*
X0333757Y0172390D01*
X0336775Y0172390D02*
X0337988Y0173604D01*
X0337382Y0173604D02*
X0339202Y0173604D01*
X0339202Y0172390D02*
X0339202Y0176030D01*
X0337382Y0176030D01*
X0336775Y0175424D01*
X0336775Y0174210D01*
X0337382Y0173604D01*
X0331951Y0175424D02*
X0331345Y0176030D01*
X0330131Y0176030D01*
X0330131Y0174210D02*
X0330738Y0174210D01*
X0346336Y0173990D02*
X0346336Y0174597D01*
X0346942Y0175203D01*
X0348156Y0175203D01*
X0348762Y0174597D01*
X0349961Y0173383D02*
X0352388Y0173383D01*
X0350568Y0175203D01*
X0350568Y0171563D01*
X0348762Y0171563D02*
X0346336Y0173990D01*
X0346336Y0171563D02*
X0348762Y0171563D01*
X0353586Y0171563D02*
X0354799Y0172777D01*
X0354193Y0172777D02*
X0356013Y0172777D01*
X0356013Y0171563D02*
X0356013Y0175203D01*
X0354193Y0175203D01*
X0353586Y0174597D01*
X0353586Y0173383D01*
X0354193Y0172777D01*
X0357860Y0133736D02*
X0357253Y0133129D01*
X0357253Y0131916D01*
X0357860Y0131309D01*
X0357253Y0130111D02*
X0357253Y0127684D01*
X0359680Y0130111D01*
X0360286Y0130111D01*
X0360893Y0129504D01*
X0360893Y0128291D01*
X0360286Y0127684D01*
X0360286Y0126485D02*
X0360893Y0125879D01*
X0360893Y0124665D01*
X0360286Y0124059D01*
X0357860Y0124059D01*
X0357253Y0124665D01*
X0357253Y0125879D01*
X0357860Y0126485D01*
X0359680Y0131309D02*
X0359073Y0131916D01*
X0359073Y0133736D01*
X0357860Y0133736D02*
X0360286Y0133736D01*
X0360893Y0133129D01*
X0360893Y0131916D01*
X0360286Y0131309D01*
X0359680Y0131309D01*
D14*
X0380135Y0125941D02*
X0380135Y0112161D01*
X0380135Y0106256D01*
X0380135Y0112161D02*
X0427379Y0112161D01*
X0427379Y0106256D01*
X0427379Y0112161D02*
X0427379Y0133815D01*
X0427379Y0098382D02*
X0427379Y0096413D01*
X0380135Y0096413D01*
X0380135Y0098382D01*
X0380135Y0179091D02*
X0380135Y0183028D01*
X0388009Y0183028D01*
X0419505Y0183028D02*
X0427379Y0183028D01*
X0427379Y0179091D01*
X0365154Y0231374D02*
X0365154Y0243972D01*
X0362398Y0246728D01*
X0351375Y0246728D01*
X0351375Y0231374D01*
X0365154Y0231374D01*
X0255705Y0239248D02*
X0255705Y0254996D01*
X0232083Y0254996D01*
X0232083Y0239248D01*
X0255705Y0239248D01*
X0213383Y0288461D02*
X0201572Y0288461D01*
X0201572Y0298303D01*
X0203540Y0300272D01*
X0213383Y0300272D01*
X0213383Y0288461D01*
X0209446Y0315035D02*
X0174012Y0315035D01*
X0174012Y0330783D01*
X0209446Y0330783D01*
X0209446Y0315035D01*
X0146453Y0265823D02*
X0134642Y0265823D01*
X0146453Y0265823D02*
X0146453Y0261886D01*
X0146453Y0254012D02*
X0146453Y0250075D01*
X0146453Y0214642D02*
X0146453Y0207768D01*
X0146453Y0207752D02*
X0138579Y0207752D01*
X0118894Y0207752D02*
X0111020Y0207752D01*
X0083658Y0207752D02*
X0060823Y0207752D01*
X0060942Y0207831D02*
X0060942Y0265823D01*
X0060839Y0265823D02*
X0091335Y0265823D01*
X0223540Y0107634D02*
X0223540Y0095823D01*
X0235351Y0095823D01*
X0235351Y0107634D01*
X0223540Y0107634D01*
X0477162Y0314051D02*
X0512595Y0314051D01*
X0512595Y0345547D01*
X0477162Y0345547D01*
X0477162Y0314051D01*
X0472241Y0347516D02*
X0448619Y0347516D01*
X0448619Y0371138D01*
X0472241Y0371138D01*
X0472241Y0347516D01*
X0435233Y0378224D02*
X0435233Y0382555D01*
X0435627Y0382555D01*
X0435233Y0378224D02*
X0418304Y0378224D01*
X0418304Y0382555D01*
X0425784Y0363657D02*
X0428146Y0363657D01*
X0428146Y0352240D01*
X0425784Y0352240D02*
X0425784Y0363657D01*
X0349209Y0369169D02*
X0349209Y0353421D01*
X0325587Y0353421D01*
X0325587Y0369169D01*
X0349209Y0369169D01*
D15*
X0422876Y0381710D02*
X0426146Y0381710D01*
X0430416Y0382497D02*
X0433685Y0382497D01*
X0432050Y0380863D02*
X0432050Y0384132D01*
D16*
X0166532Y0123205D03*
D17*
X0160812Y0278492D02*
X0159812Y0278492D01*
X0155812Y0278492D02*
X0154812Y0278492D01*
X0150812Y0278492D02*
X0149812Y0278492D01*
X0146312Y0278492D02*
X0146252Y0278494D01*
X0146191Y0278499D01*
X0146132Y0278508D01*
X0146073Y0278521D01*
X0146014Y0278537D01*
X0145957Y0278557D01*
X0145902Y0278580D01*
X0145847Y0278607D01*
X0145795Y0278636D01*
X0145744Y0278669D01*
X0145695Y0278705D01*
X0145649Y0278743D01*
X0145605Y0278785D01*
X0145563Y0278829D01*
X0145525Y0278875D01*
X0145489Y0278924D01*
X0145456Y0278975D01*
X0145427Y0279027D01*
X0145400Y0279082D01*
X0145377Y0279137D01*
X0145357Y0279194D01*
X0145341Y0279253D01*
X0145328Y0279312D01*
X0145319Y0279371D01*
X0145314Y0279432D01*
X0145312Y0279492D01*
X0145312Y0293492D01*
X0145314Y0293552D01*
X0145319Y0293613D01*
X0145328Y0293672D01*
X0145341Y0293731D01*
X0145357Y0293790D01*
X0145377Y0293847D01*
X0145400Y0293902D01*
X0145427Y0293957D01*
X0145456Y0294009D01*
X0145489Y0294060D01*
X0145525Y0294109D01*
X0145563Y0294155D01*
X0145605Y0294199D01*
X0145649Y0294241D01*
X0145695Y0294279D01*
X0145744Y0294315D01*
X0145795Y0294348D01*
X0145847Y0294377D01*
X0145902Y0294404D01*
X0145957Y0294427D01*
X0146014Y0294447D01*
X0146073Y0294463D01*
X0146132Y0294476D01*
X0146191Y0294485D01*
X0146252Y0294490D01*
X0146312Y0294492D01*
X0149812Y0294492D02*
X0150812Y0294492D01*
X0154812Y0294492D02*
X0155812Y0294492D01*
X0159812Y0294492D02*
X0160812Y0294492D01*
X0164312Y0294492D02*
X0164372Y0294490D01*
X0164433Y0294485D01*
X0164492Y0294476D01*
X0164551Y0294463D01*
X0164610Y0294447D01*
X0164667Y0294427D01*
X0164722Y0294404D01*
X0164777Y0294377D01*
X0164829Y0294348D01*
X0164880Y0294315D01*
X0164929Y0294279D01*
X0164975Y0294241D01*
X0165019Y0294199D01*
X0165061Y0294155D01*
X0165099Y0294109D01*
X0165135Y0294060D01*
X0165168Y0294009D01*
X0165197Y0293957D01*
X0165224Y0293902D01*
X0165247Y0293847D01*
X0165267Y0293790D01*
X0165283Y0293731D01*
X0165296Y0293672D01*
X0165305Y0293613D01*
X0165310Y0293552D01*
X0165312Y0293492D01*
X0165312Y0279492D01*
X0165310Y0279432D01*
X0165305Y0279371D01*
X0165296Y0279312D01*
X0165283Y0279253D01*
X0165267Y0279194D01*
X0165247Y0279137D01*
X0165224Y0279082D01*
X0165197Y0279027D01*
X0165168Y0278975D01*
X0165135Y0278924D01*
X0165099Y0278875D01*
X0165061Y0278829D01*
X0165019Y0278785D01*
X0164975Y0278743D01*
X0164929Y0278705D01*
X0164880Y0278669D01*
X0164829Y0278636D01*
X0164777Y0278607D01*
X0164722Y0278580D01*
X0164667Y0278557D01*
X0164610Y0278537D01*
X0164551Y0278521D01*
X0164492Y0278508D01*
X0164433Y0278499D01*
X0164372Y0278494D01*
X0164312Y0278492D01*
X0160812Y0282492D02*
X0160814Y0282569D01*
X0160820Y0282646D01*
X0160830Y0282723D01*
X0160844Y0282799D01*
X0160861Y0282874D01*
X0160883Y0282948D01*
X0160908Y0283021D01*
X0160938Y0283093D01*
X0160970Y0283163D01*
X0161007Y0283231D01*
X0161046Y0283297D01*
X0161089Y0283361D01*
X0161136Y0283423D01*
X0161185Y0283482D01*
X0161238Y0283539D01*
X0161293Y0283593D01*
X0161351Y0283644D01*
X0161412Y0283692D01*
X0161475Y0283737D01*
X0161540Y0283778D01*
X0161607Y0283816D01*
X0161676Y0283851D01*
X0161747Y0283881D01*
X0161819Y0283909D01*
X0161893Y0283932D01*
X0161967Y0283952D01*
X0162043Y0283968D01*
X0162119Y0283980D01*
X0162196Y0283988D01*
X0162273Y0283992D01*
X0162351Y0283992D01*
X0162428Y0283988D01*
X0162505Y0283980D01*
X0162581Y0283968D01*
X0162657Y0283952D01*
X0162731Y0283932D01*
X0162805Y0283909D01*
X0162877Y0283881D01*
X0162948Y0283851D01*
X0163017Y0283816D01*
X0163084Y0283778D01*
X0163149Y0283737D01*
X0163212Y0283692D01*
X0163273Y0283644D01*
X0163331Y0283593D01*
X0163386Y0283539D01*
X0163439Y0283482D01*
X0163488Y0283423D01*
X0163535Y0283361D01*
X0163578Y0283297D01*
X0163617Y0283231D01*
X0163654Y0283163D01*
X0163686Y0283093D01*
X0163716Y0283021D01*
X0163741Y0282948D01*
X0163763Y0282874D01*
X0163780Y0282799D01*
X0163794Y0282723D01*
X0163804Y0282646D01*
X0163810Y0282569D01*
X0163812Y0282492D01*
X0163810Y0282415D01*
X0163804Y0282338D01*
X0163794Y0282261D01*
X0163780Y0282185D01*
X0163763Y0282110D01*
X0163741Y0282036D01*
X0163716Y0281963D01*
X0163686Y0281891D01*
X0163654Y0281821D01*
X0163617Y0281753D01*
X0163578Y0281687D01*
X0163535Y0281623D01*
X0163488Y0281561D01*
X0163439Y0281502D01*
X0163386Y0281445D01*
X0163331Y0281391D01*
X0163273Y0281340D01*
X0163212Y0281292D01*
X0163149Y0281247D01*
X0163084Y0281206D01*
X0163017Y0281168D01*
X0162948Y0281133D01*
X0162877Y0281103D01*
X0162805Y0281075D01*
X0162731Y0281052D01*
X0162657Y0281032D01*
X0162581Y0281016D01*
X0162505Y0281004D01*
X0162428Y0280996D01*
X0162351Y0280992D01*
X0162273Y0280992D01*
X0162196Y0280996D01*
X0162119Y0281004D01*
X0162043Y0281016D01*
X0161967Y0281032D01*
X0161893Y0281052D01*
X0161819Y0281075D01*
X0161747Y0281103D01*
X0161676Y0281133D01*
X0161607Y0281168D01*
X0161540Y0281206D01*
X0161475Y0281247D01*
X0161412Y0281292D01*
X0161351Y0281340D01*
X0161293Y0281391D01*
X0161238Y0281445D01*
X0161185Y0281502D01*
X0161136Y0281561D01*
X0161089Y0281623D01*
X0161046Y0281687D01*
X0161007Y0281753D01*
X0160970Y0281821D01*
X0160938Y0281891D01*
X0160908Y0281963D01*
X0160883Y0282036D01*
X0160861Y0282110D01*
X0160844Y0282185D01*
X0160830Y0282261D01*
X0160820Y0282338D01*
X0160814Y0282415D01*
X0160812Y0282492D01*
X0265553Y0339710D02*
X0265553Y0340410D01*
X0265553Y0342810D01*
X0265553Y0343510D01*
X0265553Y0342810D02*
X0265622Y0342808D01*
X0265690Y0342802D01*
X0265758Y0342792D01*
X0265825Y0342779D01*
X0265891Y0342761D01*
X0265956Y0342740D01*
X0266020Y0342715D01*
X0266082Y0342687D01*
X0266143Y0342655D01*
X0266202Y0342620D01*
X0266258Y0342581D01*
X0266313Y0342539D01*
X0266364Y0342494D01*
X0266414Y0342446D01*
X0266460Y0342396D01*
X0266503Y0342343D01*
X0266544Y0342287D01*
X0266581Y0342230D01*
X0266614Y0342170D01*
X0266645Y0342108D01*
X0266671Y0342045D01*
X0266694Y0341981D01*
X0266714Y0341915D01*
X0266729Y0341848D01*
X0266741Y0341781D01*
X0266749Y0341713D01*
X0266753Y0341644D01*
X0266753Y0341576D01*
X0266749Y0341507D01*
X0266741Y0341439D01*
X0266729Y0341372D01*
X0266714Y0341305D01*
X0266694Y0341239D01*
X0266671Y0341175D01*
X0266645Y0341112D01*
X0266614Y0341050D01*
X0266581Y0340990D01*
X0266544Y0340933D01*
X0266503Y0340877D01*
X0266460Y0340824D01*
X0266414Y0340774D01*
X0266364Y0340726D01*
X0266313Y0340681D01*
X0266258Y0340639D01*
X0266202Y0340600D01*
X0266143Y0340565D01*
X0266082Y0340533D01*
X0266020Y0340505D01*
X0265956Y0340480D01*
X0265891Y0340459D01*
X0265825Y0340441D01*
X0265758Y0340428D01*
X0265690Y0340418D01*
X0265622Y0340412D01*
X0265553Y0340410D01*
X0270153Y0338310D02*
X0272753Y0338310D01*
X0277353Y0339710D02*
X0277353Y0343510D01*
X0331498Y0345610D02*
X0331498Y0347510D01*
X0331493Y0347516D02*
X0332477Y0347516D01*
X0342320Y0347516D02*
X0343304Y0347516D01*
X0343298Y0347510D02*
X0343298Y0345610D01*
X0343298Y0337610D02*
X0343298Y0335710D01*
X0343304Y0335705D02*
X0342320Y0335705D01*
X0332477Y0335705D02*
X0331493Y0335705D01*
X0331498Y0335710D02*
X0331498Y0337610D01*
X0388614Y0351566D02*
X0390614Y0351566D01*
X0388614Y0351566D02*
X0388614Y0353566D01*
X0388614Y0365166D02*
X0388614Y0367166D01*
X0390614Y0367166D01*
X0402214Y0367166D02*
X0404214Y0367166D01*
X0404214Y0365166D01*
X0404214Y0353566D02*
X0404214Y0351566D01*
X0402214Y0351566D01*
X0405406Y0241348D02*
X0405406Y0240448D01*
X0405406Y0238048D01*
X0405406Y0237148D01*
X0405406Y0238048D02*
X0405337Y0238050D01*
X0405269Y0238056D01*
X0405201Y0238066D01*
X0405134Y0238079D01*
X0405068Y0238097D01*
X0405003Y0238118D01*
X0404939Y0238143D01*
X0404877Y0238171D01*
X0404816Y0238203D01*
X0404757Y0238238D01*
X0404701Y0238277D01*
X0404646Y0238319D01*
X0404595Y0238364D01*
X0404545Y0238412D01*
X0404499Y0238462D01*
X0404456Y0238515D01*
X0404415Y0238571D01*
X0404378Y0238628D01*
X0404345Y0238688D01*
X0404314Y0238750D01*
X0404288Y0238813D01*
X0404265Y0238877D01*
X0404245Y0238943D01*
X0404230Y0239010D01*
X0404218Y0239077D01*
X0404210Y0239145D01*
X0404206Y0239214D01*
X0404206Y0239282D01*
X0404210Y0239351D01*
X0404218Y0239419D01*
X0404230Y0239486D01*
X0404245Y0239553D01*
X0404265Y0239619D01*
X0404288Y0239683D01*
X0404314Y0239746D01*
X0404345Y0239808D01*
X0404378Y0239868D01*
X0404415Y0239925D01*
X0404456Y0239981D01*
X0404499Y0240034D01*
X0404545Y0240084D01*
X0404595Y0240132D01*
X0404646Y0240177D01*
X0404701Y0240219D01*
X0404757Y0240258D01*
X0404816Y0240293D01*
X0404877Y0240325D01*
X0404939Y0240353D01*
X0405003Y0240378D01*
X0405068Y0240399D01*
X0405134Y0240417D01*
X0405201Y0240430D01*
X0405269Y0240440D01*
X0405337Y0240446D01*
X0405406Y0240448D01*
X0393406Y0241348D02*
X0393406Y0237148D01*
X0448487Y0195051D02*
X0449387Y0195051D01*
X0451787Y0195051D01*
X0452687Y0195051D01*
X0451787Y0195051D02*
X0451785Y0194982D01*
X0451779Y0194914D01*
X0451769Y0194846D01*
X0451756Y0194779D01*
X0451738Y0194713D01*
X0451717Y0194648D01*
X0451692Y0194584D01*
X0451664Y0194522D01*
X0451632Y0194461D01*
X0451597Y0194402D01*
X0451558Y0194346D01*
X0451516Y0194291D01*
X0451471Y0194240D01*
X0451423Y0194190D01*
X0451373Y0194144D01*
X0451320Y0194101D01*
X0451264Y0194060D01*
X0451207Y0194023D01*
X0451147Y0193990D01*
X0451085Y0193959D01*
X0451022Y0193933D01*
X0450958Y0193910D01*
X0450892Y0193890D01*
X0450825Y0193875D01*
X0450758Y0193863D01*
X0450690Y0193855D01*
X0450621Y0193851D01*
X0450553Y0193851D01*
X0450484Y0193855D01*
X0450416Y0193863D01*
X0450349Y0193875D01*
X0450282Y0193890D01*
X0450216Y0193910D01*
X0450152Y0193933D01*
X0450089Y0193959D01*
X0450027Y0193990D01*
X0449967Y0194023D01*
X0449910Y0194060D01*
X0449854Y0194101D01*
X0449801Y0194144D01*
X0449751Y0194190D01*
X0449703Y0194240D01*
X0449658Y0194291D01*
X0449616Y0194346D01*
X0449577Y0194402D01*
X0449542Y0194461D01*
X0449510Y0194522D01*
X0449482Y0194584D01*
X0449457Y0194648D01*
X0449436Y0194713D01*
X0449418Y0194779D01*
X0449405Y0194846D01*
X0449395Y0194914D01*
X0449389Y0194982D01*
X0449387Y0195051D01*
X0448487Y0183051D02*
X0452687Y0183051D01*
X0452687Y0182256D02*
X0448487Y0182256D01*
X0448487Y0170256D02*
X0449387Y0170256D01*
X0451787Y0170256D01*
X0452687Y0170256D01*
X0451787Y0170256D02*
X0451785Y0170325D01*
X0451779Y0170393D01*
X0451769Y0170461D01*
X0451756Y0170528D01*
X0451738Y0170594D01*
X0451717Y0170659D01*
X0451692Y0170723D01*
X0451664Y0170785D01*
X0451632Y0170846D01*
X0451597Y0170905D01*
X0451558Y0170961D01*
X0451516Y0171016D01*
X0451471Y0171067D01*
X0451423Y0171117D01*
X0451373Y0171163D01*
X0451320Y0171206D01*
X0451264Y0171247D01*
X0451207Y0171284D01*
X0451147Y0171317D01*
X0451085Y0171348D01*
X0451022Y0171374D01*
X0450958Y0171397D01*
X0450892Y0171417D01*
X0450825Y0171432D01*
X0450758Y0171444D01*
X0450690Y0171452D01*
X0450621Y0171456D01*
X0450553Y0171456D01*
X0450484Y0171452D01*
X0450416Y0171444D01*
X0450349Y0171432D01*
X0450282Y0171417D01*
X0450216Y0171397D01*
X0450152Y0171374D01*
X0450089Y0171348D01*
X0450027Y0171317D01*
X0449967Y0171284D01*
X0449910Y0171247D01*
X0449854Y0171206D01*
X0449801Y0171163D01*
X0449751Y0171117D01*
X0449703Y0171067D01*
X0449658Y0171016D01*
X0449616Y0170961D01*
X0449577Y0170905D01*
X0449542Y0170846D01*
X0449510Y0170785D01*
X0449482Y0170723D01*
X0449457Y0170659D01*
X0449436Y0170594D01*
X0449418Y0170528D01*
X0449405Y0170461D01*
X0449395Y0170393D01*
X0449389Y0170325D01*
X0449387Y0170256D01*
D18*
X0449002Y0167650D02*
X0450182Y0167650D01*
X0450772Y0167060D01*
X0452037Y0167060D02*
X0452627Y0167650D01*
X0453807Y0167650D01*
X0454397Y0167060D01*
X0454397Y0164700D01*
X0453807Y0164110D01*
X0452627Y0164110D01*
X0452037Y0164700D01*
X0452037Y0165290D01*
X0452627Y0165880D01*
X0454397Y0165880D01*
X0450772Y0164700D02*
X0450182Y0164110D01*
X0449002Y0164110D01*
X0448412Y0164700D01*
X0448412Y0167060D01*
X0449002Y0167650D01*
X0447175Y0167650D02*
X0445995Y0167650D01*
X0446585Y0167650D02*
X0446585Y0164110D01*
X0445995Y0164110D02*
X0447175Y0164110D01*
X0447407Y0197578D02*
X0448587Y0197578D01*
X0449177Y0198168D01*
X0449177Y0198758D01*
X0448587Y0199348D01*
X0447407Y0199348D01*
X0446817Y0198758D01*
X0446817Y0198168D01*
X0447407Y0197578D01*
X0447407Y0199348D02*
X0446817Y0199938D01*
X0446817Y0200528D01*
X0447407Y0201118D01*
X0448587Y0201118D01*
X0449177Y0200528D01*
X0449177Y0199938D01*
X0448587Y0199348D01*
X0450442Y0200528D02*
X0451032Y0201118D01*
X0452212Y0201118D01*
X0452802Y0200528D01*
X0452802Y0198168D01*
X0452212Y0197578D01*
X0451032Y0197578D01*
X0450442Y0198168D01*
X0454038Y0197578D02*
X0455218Y0197578D01*
X0454628Y0197578D02*
X0454628Y0201118D01*
X0455218Y0201118D02*
X0454038Y0201118D01*
X0419649Y0238228D02*
X0418469Y0238228D01*
X0419059Y0238228D02*
X0419059Y0241768D01*
X0419649Y0241768D02*
X0418469Y0241768D01*
X0417232Y0241178D02*
X0417232Y0238818D01*
X0416642Y0238228D01*
X0415462Y0238228D01*
X0414872Y0238818D01*
X0413607Y0238228D02*
X0411247Y0238228D01*
X0412427Y0238228D02*
X0412427Y0241768D01*
X0413607Y0240588D01*
X0414872Y0241178D02*
X0415462Y0241768D01*
X0416642Y0241768D01*
X0417232Y0241178D01*
X0409982Y0240588D02*
X0408802Y0241768D01*
X0408802Y0238228D01*
X0409982Y0238228D02*
X0407622Y0238228D01*
X0382656Y0359889D02*
X0381476Y0359889D01*
X0382066Y0359889D02*
X0382066Y0363429D01*
X0382656Y0363429D02*
X0381476Y0363429D01*
X0380239Y0362839D02*
X0379649Y0363429D01*
X0378469Y0363429D01*
X0377879Y0362839D01*
X0376614Y0363429D02*
X0376614Y0361659D01*
X0375434Y0362249D01*
X0374844Y0362249D01*
X0374254Y0361659D01*
X0374254Y0360479D01*
X0374844Y0359889D01*
X0376024Y0359889D01*
X0376614Y0360479D01*
X0377879Y0360479D02*
X0378469Y0359889D01*
X0379649Y0359889D01*
X0380239Y0360479D01*
X0380239Y0362839D01*
X0376614Y0363429D02*
X0374254Y0363429D01*
X0267330Y0363892D02*
X0267330Y0364482D01*
X0266740Y0365072D01*
X0265560Y0365072D01*
X0264970Y0364482D01*
X0263705Y0364482D02*
X0263115Y0365072D01*
X0261935Y0365072D01*
X0261345Y0364482D01*
X0261345Y0362122D01*
X0261935Y0361532D01*
X0263115Y0361532D01*
X0263705Y0362122D01*
X0264970Y0362122D02*
X0265560Y0361532D01*
X0266740Y0361532D01*
X0267330Y0362122D01*
X0267330Y0362712D01*
X0266740Y0363302D01*
X0267330Y0363892D01*
X0266740Y0363302D02*
X0266150Y0363302D01*
X0260109Y0365072D02*
X0258929Y0365072D01*
X0259519Y0365072D02*
X0259519Y0361532D01*
X0258929Y0361532D02*
X0260109Y0361532D01*
X0143989Y0292191D02*
X0143399Y0291011D01*
X0142219Y0289831D01*
X0142219Y0291601D01*
X0141629Y0292191D01*
X0141039Y0292191D01*
X0140449Y0291601D01*
X0140449Y0290421D01*
X0141039Y0289831D01*
X0142219Y0289831D01*
X0140449Y0288566D02*
X0140449Y0286206D01*
X0140449Y0287386D02*
X0143989Y0287386D01*
X0142809Y0286206D01*
X0143399Y0284941D02*
X0143989Y0284351D01*
X0143989Y0283171D01*
X0143399Y0282581D01*
X0141039Y0282581D01*
X0140449Y0283171D01*
X0140449Y0284351D01*
X0141039Y0284941D01*
X0140449Y0281344D02*
X0140449Y0280164D01*
X0140449Y0280754D02*
X0143989Y0280754D01*
X0143989Y0280164D02*
X0143989Y0281344D01*
D19*
X0145312Y0280192D02*
X0165312Y0280192D01*
X0334503Y0325765D02*
X0336996Y0325765D01*
X0335126Y0327635D01*
X0335126Y0323895D01*
X0338128Y0324519D02*
X0338751Y0323895D01*
X0339998Y0323895D01*
X0340621Y0324519D01*
X0340621Y0327012D01*
X0339998Y0327635D01*
X0338751Y0327635D01*
X0338128Y0327012D01*
X0341791Y0327635D02*
X0343038Y0327635D01*
X0342415Y0327635D02*
X0342415Y0323895D01*
X0343038Y0323895D02*
X0341791Y0323895D01*
D20*
X0154131Y0325862D02*
X0154131Y0321925D01*
X0149406Y0321925D01*
X0154131Y0337673D02*
X0154131Y0339248D01*
X0152949Y0339248D01*
X0084839Y0339248D01*
X0084839Y0340429D01*
X0083658Y0340429D01*
X0083658Y0343185D01*
X0154131Y0343185D01*
X0154131Y0340429D01*
X0152949Y0340429D01*
X0152949Y0339248D01*
X0091138Y0340429D02*
X0089564Y0340429D01*
X0090351Y0342004D01*
X0091138Y0340429D01*
X0091008Y0340690D02*
X0089694Y0340690D01*
X0090093Y0341489D02*
X0090609Y0341489D01*
X0084839Y0339248D02*
X0083658Y0339248D01*
X0083658Y0337673D01*
X0083658Y0325862D02*
X0083658Y0321925D01*
X0088383Y0321925D01*
D21*
X0443697Y0238264D02*
X0443699Y0238352D01*
X0443705Y0238440D01*
X0443715Y0238528D01*
X0443729Y0238616D01*
X0443746Y0238702D01*
X0443768Y0238788D01*
X0443793Y0238872D01*
X0443823Y0238956D01*
X0443855Y0239038D01*
X0443892Y0239118D01*
X0443932Y0239197D01*
X0443976Y0239274D01*
X0444023Y0239349D01*
X0444073Y0239421D01*
X0444127Y0239492D01*
X0444183Y0239559D01*
X0444243Y0239625D01*
X0444305Y0239687D01*
X0444371Y0239747D01*
X0444438Y0239803D01*
X0444509Y0239857D01*
X0444581Y0239907D01*
X0444656Y0239954D01*
X0444733Y0239998D01*
X0444812Y0240038D01*
X0444892Y0240075D01*
X0444974Y0240107D01*
X0445058Y0240137D01*
X0445142Y0240162D01*
X0445228Y0240184D01*
X0445314Y0240201D01*
X0445402Y0240215D01*
X0445490Y0240225D01*
X0445578Y0240231D01*
X0445666Y0240233D01*
X0445754Y0240231D01*
X0445842Y0240225D01*
X0445930Y0240215D01*
X0446018Y0240201D01*
X0446104Y0240184D01*
X0446190Y0240162D01*
X0446274Y0240137D01*
X0446358Y0240107D01*
X0446440Y0240075D01*
X0446520Y0240038D01*
X0446599Y0239998D01*
X0446676Y0239954D01*
X0446751Y0239907D01*
X0446823Y0239857D01*
X0446894Y0239803D01*
X0446961Y0239747D01*
X0447027Y0239687D01*
X0447089Y0239625D01*
X0447149Y0239559D01*
X0447205Y0239492D01*
X0447259Y0239421D01*
X0447309Y0239349D01*
X0447356Y0239274D01*
X0447400Y0239197D01*
X0447440Y0239118D01*
X0447477Y0239038D01*
X0447509Y0238956D01*
X0447539Y0238872D01*
X0447564Y0238788D01*
X0447586Y0238702D01*
X0447603Y0238616D01*
X0447617Y0238528D01*
X0447627Y0238440D01*
X0447633Y0238352D01*
X0447635Y0238264D01*
X0447633Y0238176D01*
X0447627Y0238088D01*
X0447617Y0238000D01*
X0447603Y0237912D01*
X0447586Y0237826D01*
X0447564Y0237740D01*
X0447539Y0237656D01*
X0447509Y0237572D01*
X0447477Y0237490D01*
X0447440Y0237410D01*
X0447400Y0237331D01*
X0447356Y0237254D01*
X0447309Y0237179D01*
X0447259Y0237107D01*
X0447205Y0237036D01*
X0447149Y0236969D01*
X0447089Y0236903D01*
X0447027Y0236841D01*
X0446961Y0236781D01*
X0446894Y0236725D01*
X0446823Y0236671D01*
X0446751Y0236621D01*
X0446676Y0236574D01*
X0446599Y0236530D01*
X0446520Y0236490D01*
X0446440Y0236453D01*
X0446358Y0236421D01*
X0446274Y0236391D01*
X0446190Y0236366D01*
X0446104Y0236344D01*
X0446018Y0236327D01*
X0445930Y0236313D01*
X0445842Y0236303D01*
X0445754Y0236297D01*
X0445666Y0236295D01*
X0445578Y0236297D01*
X0445490Y0236303D01*
X0445402Y0236313D01*
X0445314Y0236327D01*
X0445228Y0236344D01*
X0445142Y0236366D01*
X0445058Y0236391D01*
X0444974Y0236421D01*
X0444892Y0236453D01*
X0444812Y0236490D01*
X0444733Y0236530D01*
X0444656Y0236574D01*
X0444581Y0236621D01*
X0444509Y0236671D01*
X0444438Y0236725D01*
X0444371Y0236781D01*
X0444305Y0236841D01*
X0444243Y0236903D01*
X0444183Y0236969D01*
X0444127Y0237036D01*
X0444073Y0237107D01*
X0444023Y0237179D01*
X0443976Y0237254D01*
X0443932Y0237331D01*
X0443892Y0237410D01*
X0443855Y0237490D01*
X0443823Y0237572D01*
X0443793Y0237656D01*
X0443768Y0237740D01*
X0443746Y0237826D01*
X0443729Y0237912D01*
X0443715Y0238000D01*
X0443705Y0238088D01*
X0443699Y0238176D01*
X0443697Y0238264D01*
M02*
