G75*
%MOIN*%
%OFA0B0*%
%FSLAX25Y25*%
%IPPOS*%
%LPD*%
%AMOC8*
5,1,8,0,0,1.08239X$1,22.5*
%
%ADD10C,0.00000*%
%ADD11R,0.06706X0.05918*%
%ADD12R,0.05918X0.06706*%
%ADD13C,0.06706*%
%ADD14C,0.10800*%
%ADD15OC8,0.10800*%
%ADD16C,0.06400*%
%ADD17R,0.03162X0.03950*%
%ADD18R,0.06600X0.02800*%
%ADD19R,0.02800X0.06600*%
%ADD20R,0.02965X0.09245*%
%ADD21R,0.09245X0.02965*%
%ADD22R,0.02375X0.05524*%
%ADD23R,0.05721X0.03162*%
%ADD24R,0.15721X0.05524*%
%ADD25R,0.03162X0.04737*%
%ADD26R,0.06312X0.06509*%
%ADD27R,0.04146X0.04540*%
%ADD28R,0.10643X0.05328*%
%ADD29R,0.10052X0.05328*%
%ADD30R,0.05918X0.04737*%
%ADD31R,0.08674X0.03162*%
%ADD32C,0.08477*%
%ADD33R,0.03162X0.11824*%
%ADD34R,0.11824X0.03162*%
%ADD35R,0.02400X0.04400*%
%ADD36R,0.10800X0.05800*%
%ADD37OC8,0.05600*%
%ADD38R,0.06706X0.06706*%
%ADD39R,0.05100X0.08700*%
%ADD40C,0.10850*%
%ADD41C,0.06312*%
%ADD42C,0.05800*%
%ADD43R,0.39370X0.25197*%
%ADD44R,0.04200X0.11000*%
%ADD45R,0.40170X0.25997*%
%ADD46C,0.02769*%
%ADD47R,0.06902X0.05918*%
%ADD48R,0.10249X0.03792*%
%ADD49C,0.06200*%
%ADD50R,0.04737X0.05918*%
%ADD51R,0.04737X0.07887*%
%ADD52C,0.03753*%
%ADD53C,0.04934*%
%ADD54C,0.05524*%
%ADD55R,0.05800X0.10800*%
%ADD56R,0.01981X0.07099*%
%ADD57C,0.16611*%
%ADD58OC8,0.05229*%
D10*
X0071650Y0095547D02*
X0500784Y0095547D01*
X0501069Y0095550D01*
X0501355Y0095561D01*
X0501640Y0095578D01*
X0501924Y0095602D01*
X0502208Y0095633D01*
X0502491Y0095671D01*
X0502772Y0095716D01*
X0503053Y0095767D01*
X0503333Y0095825D01*
X0503611Y0095890D01*
X0503887Y0095962D01*
X0504161Y0096040D01*
X0504434Y0096125D01*
X0504704Y0096217D01*
X0504972Y0096315D01*
X0505238Y0096419D01*
X0505501Y0096530D01*
X0505761Y0096647D01*
X0506019Y0096770D01*
X0506273Y0096900D01*
X0506524Y0097036D01*
X0506772Y0097177D01*
X0507016Y0097325D01*
X0507257Y0097478D01*
X0507493Y0097638D01*
X0507726Y0097803D01*
X0507955Y0097973D01*
X0508180Y0098149D01*
X0508400Y0098331D01*
X0508616Y0098517D01*
X0508827Y0098709D01*
X0509034Y0098906D01*
X0509236Y0099108D01*
X0509433Y0099315D01*
X0509625Y0099526D01*
X0509811Y0099742D01*
X0509993Y0099962D01*
X0510169Y0100187D01*
X0510339Y0100416D01*
X0510504Y0100649D01*
X0510664Y0100885D01*
X0510817Y0101126D01*
X0510965Y0101370D01*
X0511106Y0101618D01*
X0511242Y0101869D01*
X0511372Y0102123D01*
X0511495Y0102381D01*
X0511612Y0102641D01*
X0511723Y0102904D01*
X0511827Y0103170D01*
X0511925Y0103438D01*
X0512017Y0103708D01*
X0512102Y0103981D01*
X0512180Y0104255D01*
X0512252Y0104531D01*
X0512317Y0104809D01*
X0512375Y0105089D01*
X0512426Y0105370D01*
X0512471Y0105651D01*
X0512509Y0105934D01*
X0512540Y0106218D01*
X0512564Y0106502D01*
X0512581Y0106787D01*
X0512592Y0107073D01*
X0512595Y0107358D01*
X0512595Y0375075D01*
X0512593Y0375265D01*
X0512586Y0375455D01*
X0512574Y0375645D01*
X0512558Y0375835D01*
X0512538Y0376024D01*
X0512512Y0376213D01*
X0512483Y0376401D01*
X0512448Y0376588D01*
X0512409Y0376774D01*
X0512366Y0376959D01*
X0512318Y0377144D01*
X0512266Y0377327D01*
X0512210Y0377508D01*
X0512149Y0377688D01*
X0512083Y0377867D01*
X0512014Y0378044D01*
X0511940Y0378220D01*
X0511862Y0378393D01*
X0511779Y0378565D01*
X0511693Y0378734D01*
X0511603Y0378902D01*
X0511508Y0379067D01*
X0511410Y0379230D01*
X0511307Y0379390D01*
X0511201Y0379548D01*
X0511091Y0379703D01*
X0510978Y0379856D01*
X0510860Y0380006D01*
X0510739Y0380152D01*
X0510615Y0380296D01*
X0510487Y0380437D01*
X0510356Y0380575D01*
X0510221Y0380710D01*
X0510083Y0380841D01*
X0509942Y0380969D01*
X0509798Y0381093D01*
X0509652Y0381214D01*
X0509502Y0381332D01*
X0509349Y0381445D01*
X0509194Y0381555D01*
X0509036Y0381661D01*
X0508876Y0381764D01*
X0508713Y0381862D01*
X0508548Y0381957D01*
X0508380Y0382047D01*
X0508211Y0382133D01*
X0508039Y0382216D01*
X0507866Y0382294D01*
X0507690Y0382368D01*
X0507513Y0382437D01*
X0507334Y0382503D01*
X0507154Y0382564D01*
X0506973Y0382620D01*
X0506790Y0382672D01*
X0506605Y0382720D01*
X0506420Y0382763D01*
X0506234Y0382802D01*
X0506047Y0382837D01*
X0505859Y0382866D01*
X0505670Y0382892D01*
X0505481Y0382912D01*
X0505291Y0382928D01*
X0505101Y0382940D01*
X0504911Y0382947D01*
X0504721Y0382949D01*
X0071650Y0382949D01*
X0071365Y0382946D01*
X0071079Y0382935D01*
X0070794Y0382918D01*
X0070510Y0382894D01*
X0070226Y0382863D01*
X0069943Y0382825D01*
X0069662Y0382780D01*
X0069381Y0382729D01*
X0069101Y0382671D01*
X0068823Y0382606D01*
X0068547Y0382534D01*
X0068273Y0382456D01*
X0068000Y0382371D01*
X0067730Y0382279D01*
X0067462Y0382181D01*
X0067196Y0382077D01*
X0066933Y0381966D01*
X0066673Y0381849D01*
X0066415Y0381726D01*
X0066161Y0381596D01*
X0065910Y0381460D01*
X0065662Y0381319D01*
X0065418Y0381171D01*
X0065177Y0381018D01*
X0064941Y0380858D01*
X0064708Y0380693D01*
X0064479Y0380523D01*
X0064254Y0380347D01*
X0064034Y0380165D01*
X0063818Y0379979D01*
X0063607Y0379787D01*
X0063400Y0379590D01*
X0063198Y0379388D01*
X0063001Y0379181D01*
X0062809Y0378970D01*
X0062623Y0378754D01*
X0062441Y0378534D01*
X0062265Y0378309D01*
X0062095Y0378080D01*
X0061930Y0377847D01*
X0061770Y0377611D01*
X0061617Y0377370D01*
X0061469Y0377126D01*
X0061328Y0376878D01*
X0061192Y0376627D01*
X0061062Y0376373D01*
X0060939Y0376115D01*
X0060822Y0375855D01*
X0060711Y0375592D01*
X0060607Y0375326D01*
X0060509Y0375058D01*
X0060417Y0374788D01*
X0060332Y0374515D01*
X0060254Y0374241D01*
X0060182Y0373965D01*
X0060117Y0373687D01*
X0060059Y0373407D01*
X0060008Y0373126D01*
X0059963Y0372845D01*
X0059925Y0372562D01*
X0059894Y0372278D01*
X0059870Y0371994D01*
X0059853Y0371709D01*
X0059842Y0371423D01*
X0059839Y0371138D01*
X0059839Y0107358D01*
X0059842Y0107073D01*
X0059853Y0106787D01*
X0059870Y0106502D01*
X0059894Y0106218D01*
X0059925Y0105934D01*
X0059963Y0105651D01*
X0060008Y0105370D01*
X0060059Y0105089D01*
X0060117Y0104809D01*
X0060182Y0104531D01*
X0060254Y0104255D01*
X0060332Y0103981D01*
X0060417Y0103708D01*
X0060509Y0103438D01*
X0060607Y0103170D01*
X0060711Y0102904D01*
X0060822Y0102641D01*
X0060939Y0102381D01*
X0061062Y0102123D01*
X0061192Y0101869D01*
X0061328Y0101618D01*
X0061469Y0101370D01*
X0061617Y0101126D01*
X0061770Y0100885D01*
X0061930Y0100649D01*
X0062095Y0100416D01*
X0062265Y0100187D01*
X0062441Y0099962D01*
X0062623Y0099742D01*
X0062809Y0099526D01*
X0063001Y0099315D01*
X0063198Y0099108D01*
X0063400Y0098906D01*
X0063607Y0098709D01*
X0063818Y0098517D01*
X0064034Y0098331D01*
X0064254Y0098149D01*
X0064479Y0097973D01*
X0064708Y0097803D01*
X0064941Y0097638D01*
X0065177Y0097478D01*
X0065418Y0097325D01*
X0065662Y0097177D01*
X0065910Y0097036D01*
X0066161Y0096900D01*
X0066415Y0096770D01*
X0066673Y0096647D01*
X0066933Y0096530D01*
X0067196Y0096419D01*
X0067462Y0096315D01*
X0067730Y0096217D01*
X0068000Y0096125D01*
X0068273Y0096040D01*
X0068547Y0095962D01*
X0068823Y0095890D01*
X0069101Y0095825D01*
X0069381Y0095767D01*
X0069662Y0095716D01*
X0069943Y0095671D01*
X0070226Y0095633D01*
X0070510Y0095602D01*
X0070794Y0095578D01*
X0071079Y0095561D01*
X0071365Y0095550D01*
X0071650Y0095547D01*
X0400908Y0163093D02*
X0400910Y0163184D01*
X0400916Y0163274D01*
X0400926Y0163365D01*
X0400940Y0163454D01*
X0400958Y0163543D01*
X0400979Y0163632D01*
X0401005Y0163719D01*
X0401034Y0163805D01*
X0401068Y0163889D01*
X0401104Y0163972D01*
X0401145Y0164054D01*
X0401189Y0164133D01*
X0401236Y0164211D01*
X0401287Y0164286D01*
X0401341Y0164359D01*
X0401398Y0164429D01*
X0401458Y0164497D01*
X0401521Y0164563D01*
X0401587Y0164625D01*
X0401656Y0164684D01*
X0401727Y0164741D01*
X0401801Y0164794D01*
X0401877Y0164844D01*
X0401955Y0164891D01*
X0402035Y0164934D01*
X0402116Y0164973D01*
X0402200Y0165009D01*
X0402285Y0165041D01*
X0402371Y0165070D01*
X0402458Y0165094D01*
X0402547Y0165115D01*
X0402636Y0165132D01*
X0402726Y0165145D01*
X0402816Y0165154D01*
X0402907Y0165159D01*
X0402998Y0165160D01*
X0403088Y0165157D01*
X0403179Y0165150D01*
X0403269Y0165139D01*
X0403359Y0165124D01*
X0403448Y0165105D01*
X0403536Y0165083D01*
X0403622Y0165056D01*
X0403708Y0165026D01*
X0403792Y0164992D01*
X0403875Y0164954D01*
X0403956Y0164913D01*
X0404035Y0164868D01*
X0404112Y0164819D01*
X0404186Y0164768D01*
X0404259Y0164713D01*
X0404329Y0164655D01*
X0404396Y0164594D01*
X0404460Y0164530D01*
X0404522Y0164464D01*
X0404581Y0164394D01*
X0404636Y0164323D01*
X0404689Y0164248D01*
X0404738Y0164172D01*
X0404784Y0164094D01*
X0404826Y0164013D01*
X0404865Y0163931D01*
X0404900Y0163847D01*
X0404931Y0163762D01*
X0404958Y0163675D01*
X0404982Y0163588D01*
X0405002Y0163499D01*
X0405018Y0163410D01*
X0405030Y0163320D01*
X0405038Y0163229D01*
X0405042Y0163138D01*
X0405042Y0163048D01*
X0405038Y0162957D01*
X0405030Y0162866D01*
X0405018Y0162776D01*
X0405002Y0162687D01*
X0404982Y0162598D01*
X0404958Y0162511D01*
X0404931Y0162424D01*
X0404900Y0162339D01*
X0404865Y0162255D01*
X0404826Y0162173D01*
X0404784Y0162092D01*
X0404738Y0162014D01*
X0404689Y0161938D01*
X0404636Y0161863D01*
X0404581Y0161792D01*
X0404522Y0161722D01*
X0404460Y0161656D01*
X0404396Y0161592D01*
X0404329Y0161531D01*
X0404259Y0161473D01*
X0404186Y0161418D01*
X0404112Y0161367D01*
X0404035Y0161318D01*
X0403956Y0161273D01*
X0403875Y0161232D01*
X0403792Y0161194D01*
X0403708Y0161160D01*
X0403622Y0161130D01*
X0403536Y0161103D01*
X0403448Y0161081D01*
X0403359Y0161062D01*
X0403269Y0161047D01*
X0403179Y0161036D01*
X0403088Y0161029D01*
X0402998Y0161026D01*
X0402907Y0161027D01*
X0402816Y0161032D01*
X0402726Y0161041D01*
X0402636Y0161054D01*
X0402547Y0161071D01*
X0402458Y0161092D01*
X0402371Y0161116D01*
X0402285Y0161145D01*
X0402200Y0161177D01*
X0402116Y0161213D01*
X0402035Y0161252D01*
X0401955Y0161295D01*
X0401877Y0161342D01*
X0401801Y0161392D01*
X0401727Y0161445D01*
X0401656Y0161502D01*
X0401587Y0161561D01*
X0401521Y0161623D01*
X0401458Y0161689D01*
X0401398Y0161757D01*
X0401341Y0161827D01*
X0401287Y0161900D01*
X0401236Y0161975D01*
X0401189Y0162053D01*
X0401145Y0162132D01*
X0401104Y0162214D01*
X0401068Y0162297D01*
X0401034Y0162381D01*
X0401005Y0162467D01*
X0400979Y0162554D01*
X0400958Y0162643D01*
X0400940Y0162732D01*
X0400926Y0162821D01*
X0400916Y0162912D01*
X0400910Y0163002D01*
X0400908Y0163093D01*
X0412078Y0173671D02*
X0412080Y0173748D01*
X0412086Y0173824D01*
X0412096Y0173900D01*
X0412110Y0173975D01*
X0412127Y0174050D01*
X0412149Y0174123D01*
X0412174Y0174196D01*
X0412204Y0174267D01*
X0412236Y0174336D01*
X0412273Y0174403D01*
X0412312Y0174469D01*
X0412355Y0174532D01*
X0412402Y0174593D01*
X0412451Y0174652D01*
X0412504Y0174708D01*
X0412559Y0174761D01*
X0412617Y0174811D01*
X0412677Y0174858D01*
X0412740Y0174902D01*
X0412805Y0174943D01*
X0412872Y0174980D01*
X0412941Y0175014D01*
X0413011Y0175044D01*
X0413083Y0175070D01*
X0413157Y0175092D01*
X0413231Y0175111D01*
X0413306Y0175126D01*
X0413382Y0175137D01*
X0413458Y0175144D01*
X0413535Y0175147D01*
X0413611Y0175146D01*
X0413688Y0175141D01*
X0413764Y0175132D01*
X0413840Y0175119D01*
X0413914Y0175102D01*
X0413988Y0175082D01*
X0414061Y0175057D01*
X0414132Y0175029D01*
X0414202Y0174997D01*
X0414270Y0174962D01*
X0414336Y0174923D01*
X0414400Y0174881D01*
X0414461Y0174835D01*
X0414521Y0174786D01*
X0414577Y0174735D01*
X0414631Y0174680D01*
X0414682Y0174623D01*
X0414730Y0174563D01*
X0414775Y0174501D01*
X0414816Y0174436D01*
X0414854Y0174370D01*
X0414889Y0174302D01*
X0414919Y0174231D01*
X0414947Y0174160D01*
X0414970Y0174087D01*
X0414990Y0174013D01*
X0415006Y0173938D01*
X0415018Y0173862D01*
X0415026Y0173786D01*
X0415030Y0173709D01*
X0415030Y0173633D01*
X0415026Y0173556D01*
X0415018Y0173480D01*
X0415006Y0173404D01*
X0414990Y0173329D01*
X0414970Y0173255D01*
X0414947Y0173182D01*
X0414919Y0173111D01*
X0414889Y0173040D01*
X0414854Y0172972D01*
X0414816Y0172906D01*
X0414775Y0172841D01*
X0414730Y0172779D01*
X0414682Y0172719D01*
X0414631Y0172662D01*
X0414577Y0172607D01*
X0414521Y0172556D01*
X0414461Y0172507D01*
X0414400Y0172461D01*
X0414336Y0172419D01*
X0414270Y0172380D01*
X0414202Y0172345D01*
X0414132Y0172313D01*
X0414061Y0172285D01*
X0413988Y0172260D01*
X0413914Y0172240D01*
X0413840Y0172223D01*
X0413764Y0172210D01*
X0413688Y0172201D01*
X0413611Y0172196D01*
X0413535Y0172195D01*
X0413458Y0172198D01*
X0413382Y0172205D01*
X0413306Y0172216D01*
X0413231Y0172231D01*
X0413157Y0172250D01*
X0413083Y0172272D01*
X0413011Y0172298D01*
X0412941Y0172328D01*
X0412872Y0172362D01*
X0412805Y0172399D01*
X0412740Y0172440D01*
X0412677Y0172484D01*
X0412617Y0172531D01*
X0412559Y0172581D01*
X0412504Y0172634D01*
X0412451Y0172690D01*
X0412402Y0172749D01*
X0412355Y0172810D01*
X0412312Y0172873D01*
X0412273Y0172939D01*
X0412236Y0173006D01*
X0412204Y0173075D01*
X0412174Y0173146D01*
X0412149Y0173219D01*
X0412127Y0173292D01*
X0412110Y0173367D01*
X0412096Y0173442D01*
X0412086Y0173518D01*
X0412080Y0173594D01*
X0412078Y0173671D01*
X0500784Y0469563D02*
X0071650Y0469563D01*
X0071365Y0469566D01*
X0071079Y0469577D01*
X0070794Y0469594D01*
X0070510Y0469618D01*
X0070226Y0469649D01*
X0069943Y0469687D01*
X0069662Y0469732D01*
X0069381Y0469783D01*
X0069101Y0469841D01*
X0068823Y0469906D01*
X0068547Y0469978D01*
X0068273Y0470056D01*
X0068000Y0470141D01*
X0067730Y0470233D01*
X0067462Y0470331D01*
X0067196Y0470435D01*
X0066933Y0470546D01*
X0066673Y0470663D01*
X0066415Y0470786D01*
X0066161Y0470916D01*
X0065910Y0471052D01*
X0065662Y0471193D01*
X0065418Y0471341D01*
X0065177Y0471494D01*
X0064941Y0471654D01*
X0064708Y0471819D01*
X0064479Y0471989D01*
X0064254Y0472165D01*
X0064034Y0472347D01*
X0063818Y0472533D01*
X0063607Y0472725D01*
X0063400Y0472922D01*
X0063198Y0473124D01*
X0063001Y0473331D01*
X0062809Y0473542D01*
X0062623Y0473758D01*
X0062441Y0473978D01*
X0062265Y0474203D01*
X0062095Y0474432D01*
X0061930Y0474665D01*
X0061770Y0474901D01*
X0061617Y0475142D01*
X0061469Y0475386D01*
X0061328Y0475634D01*
X0061192Y0475885D01*
X0061062Y0476139D01*
X0060939Y0476397D01*
X0060822Y0476657D01*
X0060711Y0476920D01*
X0060607Y0477186D01*
X0060509Y0477454D01*
X0060417Y0477724D01*
X0060332Y0477997D01*
X0060254Y0478271D01*
X0060182Y0478547D01*
X0060117Y0478825D01*
X0060059Y0479105D01*
X0060008Y0479386D01*
X0059963Y0479667D01*
X0059925Y0479950D01*
X0059894Y0480234D01*
X0059870Y0480518D01*
X0059853Y0480803D01*
X0059842Y0481089D01*
X0059839Y0481374D01*
X0059839Y0536492D01*
X0059842Y0536777D01*
X0059853Y0537063D01*
X0059870Y0537348D01*
X0059894Y0537632D01*
X0059925Y0537916D01*
X0059963Y0538199D01*
X0060008Y0538480D01*
X0060059Y0538761D01*
X0060117Y0539041D01*
X0060182Y0539319D01*
X0060254Y0539595D01*
X0060332Y0539869D01*
X0060417Y0540142D01*
X0060509Y0540412D01*
X0060607Y0540680D01*
X0060711Y0540946D01*
X0060822Y0541209D01*
X0060939Y0541469D01*
X0061062Y0541727D01*
X0061192Y0541981D01*
X0061328Y0542232D01*
X0061469Y0542480D01*
X0061617Y0542724D01*
X0061770Y0542965D01*
X0061930Y0543201D01*
X0062095Y0543434D01*
X0062265Y0543663D01*
X0062441Y0543888D01*
X0062623Y0544108D01*
X0062809Y0544324D01*
X0063001Y0544535D01*
X0063198Y0544742D01*
X0063400Y0544944D01*
X0063607Y0545141D01*
X0063818Y0545333D01*
X0064034Y0545519D01*
X0064254Y0545701D01*
X0064479Y0545877D01*
X0064708Y0546047D01*
X0064941Y0546212D01*
X0065177Y0546372D01*
X0065418Y0546525D01*
X0065662Y0546673D01*
X0065910Y0546814D01*
X0066161Y0546950D01*
X0066415Y0547080D01*
X0066673Y0547203D01*
X0066933Y0547320D01*
X0067196Y0547431D01*
X0067462Y0547535D01*
X0067730Y0547633D01*
X0068000Y0547725D01*
X0068273Y0547810D01*
X0068547Y0547888D01*
X0068823Y0547960D01*
X0069101Y0548025D01*
X0069381Y0548083D01*
X0069662Y0548134D01*
X0069943Y0548179D01*
X0070226Y0548217D01*
X0070510Y0548248D01*
X0070794Y0548272D01*
X0071079Y0548289D01*
X0071365Y0548300D01*
X0071650Y0548303D01*
X0500784Y0548303D01*
X0501069Y0548300D01*
X0501355Y0548289D01*
X0501640Y0548272D01*
X0501924Y0548248D01*
X0502208Y0548217D01*
X0502491Y0548179D01*
X0502772Y0548134D01*
X0503053Y0548083D01*
X0503333Y0548025D01*
X0503611Y0547960D01*
X0503887Y0547888D01*
X0504161Y0547810D01*
X0504434Y0547725D01*
X0504704Y0547633D01*
X0504972Y0547535D01*
X0505238Y0547431D01*
X0505501Y0547320D01*
X0505761Y0547203D01*
X0506019Y0547080D01*
X0506273Y0546950D01*
X0506524Y0546814D01*
X0506772Y0546673D01*
X0507016Y0546525D01*
X0507257Y0546372D01*
X0507493Y0546212D01*
X0507726Y0546047D01*
X0507955Y0545877D01*
X0508180Y0545701D01*
X0508400Y0545519D01*
X0508616Y0545333D01*
X0508827Y0545141D01*
X0509034Y0544944D01*
X0509236Y0544742D01*
X0509433Y0544535D01*
X0509625Y0544324D01*
X0509811Y0544108D01*
X0509993Y0543888D01*
X0510169Y0543663D01*
X0510339Y0543434D01*
X0510504Y0543201D01*
X0510664Y0542965D01*
X0510817Y0542724D01*
X0510965Y0542480D01*
X0511106Y0542232D01*
X0511242Y0541981D01*
X0511372Y0541727D01*
X0511495Y0541469D01*
X0511612Y0541209D01*
X0511723Y0540946D01*
X0511827Y0540680D01*
X0511925Y0540412D01*
X0512017Y0540142D01*
X0512102Y0539869D01*
X0512180Y0539595D01*
X0512252Y0539319D01*
X0512317Y0539041D01*
X0512375Y0538761D01*
X0512426Y0538480D01*
X0512471Y0538199D01*
X0512509Y0537916D01*
X0512540Y0537632D01*
X0512564Y0537348D01*
X0512581Y0537063D01*
X0512592Y0536777D01*
X0512595Y0536492D01*
X0512595Y0481374D01*
X0512592Y0481089D01*
X0512581Y0480803D01*
X0512564Y0480518D01*
X0512540Y0480234D01*
X0512509Y0479950D01*
X0512471Y0479667D01*
X0512426Y0479386D01*
X0512375Y0479105D01*
X0512317Y0478825D01*
X0512252Y0478547D01*
X0512180Y0478271D01*
X0512102Y0477997D01*
X0512017Y0477724D01*
X0511925Y0477454D01*
X0511827Y0477186D01*
X0511723Y0476920D01*
X0511612Y0476657D01*
X0511495Y0476397D01*
X0511372Y0476139D01*
X0511242Y0475885D01*
X0511106Y0475634D01*
X0510965Y0475386D01*
X0510817Y0475142D01*
X0510664Y0474901D01*
X0510504Y0474665D01*
X0510339Y0474432D01*
X0510169Y0474203D01*
X0509993Y0473978D01*
X0509811Y0473758D01*
X0509625Y0473542D01*
X0509433Y0473331D01*
X0509236Y0473124D01*
X0509034Y0472922D01*
X0508827Y0472725D01*
X0508616Y0472533D01*
X0508400Y0472347D01*
X0508180Y0472165D01*
X0507955Y0471989D01*
X0507726Y0471819D01*
X0507493Y0471654D01*
X0507257Y0471494D01*
X0507016Y0471341D01*
X0506772Y0471193D01*
X0506524Y0471052D01*
X0506273Y0470916D01*
X0506019Y0470786D01*
X0505761Y0470663D01*
X0505501Y0470546D01*
X0505238Y0470435D01*
X0504972Y0470331D01*
X0504704Y0470233D01*
X0504434Y0470141D01*
X0504161Y0470056D01*
X0503887Y0469978D01*
X0503611Y0469906D01*
X0503333Y0469841D01*
X0503053Y0469783D01*
X0502772Y0469732D01*
X0502491Y0469687D01*
X0502208Y0469649D01*
X0501924Y0469618D01*
X0501640Y0469594D01*
X0501355Y0469577D01*
X0501069Y0469566D01*
X0500784Y0469563D01*
D11*
X0423028Y0360114D03*
X0423028Y0352634D03*
X0423028Y0343382D03*
X0423028Y0335902D03*
X0406296Y0333933D03*
X0406296Y0341413D03*
X0341926Y0250862D03*
X0341926Y0243382D03*
X0341926Y0232161D03*
X0341926Y0224681D03*
X0390548Y0235508D03*
X0390548Y0242988D03*
X0399406Y0242988D03*
X0408264Y0242988D03*
X0408264Y0235508D03*
X0399406Y0235508D03*
X0094288Y0244366D03*
X0094288Y0251846D03*
D12*
X0126965Y0217594D03*
X0134446Y0217594D03*
X0200784Y0255980D03*
X0208264Y0255980D03*
X0152162Y0310114D03*
X0144682Y0310114D03*
X0114760Y0310114D03*
X0107280Y0310114D03*
X0099012Y0310114D03*
X0091532Y0310114D03*
X0259839Y0188067D03*
X0267320Y0188067D03*
X0298225Y0227043D03*
X0305705Y0227043D03*
X0354327Y0225469D03*
X0361808Y0225469D03*
X0361808Y0253028D03*
X0354327Y0253028D03*
X0361217Y0264839D03*
X0368698Y0264839D03*
X0378934Y0264839D03*
X0386414Y0264839D03*
X0423225Y0307161D03*
X0430705Y0307161D03*
X0430705Y0316020D03*
X0423225Y0316020D03*
X0423225Y0370154D03*
X0430705Y0370154D03*
X0488186Y0334720D03*
X0495666Y0334720D03*
X0495666Y0324878D03*
X0488186Y0324878D03*
D13*
X0376768Y0278894D03*
X0376768Y0200154D03*
D14*
X0414170Y0518933D03*
X0492910Y0518933D03*
X0335430Y0518933D03*
X0256690Y0518933D03*
X0177949Y0518933D03*
D15*
X0177949Y0498933D03*
X0256690Y0498933D03*
X0335430Y0498933D03*
X0414170Y0498933D03*
X0492910Y0498933D03*
D16*
X0430902Y0377043D03*
X0423028Y0377043D03*
D17*
X0086414Y0498087D03*
X0086414Y0507929D03*
D18*
X0216847Y0314029D03*
X0216847Y0310929D03*
X0216847Y0307729D03*
X0216847Y0304629D03*
X0216847Y0301429D03*
X0216847Y0298329D03*
X0216847Y0295129D03*
X0216847Y0292029D03*
X0216847Y0288829D03*
X0216847Y0285729D03*
X0216847Y0282529D03*
X0216847Y0279429D03*
X0216847Y0276229D03*
X0216847Y0273129D03*
X0216847Y0269929D03*
X0216847Y0266829D03*
X0276847Y0266829D03*
X0276847Y0269929D03*
X0276847Y0273129D03*
X0276847Y0276229D03*
X0276847Y0279429D03*
X0276847Y0282529D03*
X0276847Y0285729D03*
X0276847Y0288829D03*
X0276847Y0292029D03*
X0276847Y0295129D03*
X0276847Y0298329D03*
X0276847Y0301429D03*
X0276847Y0304629D03*
X0276847Y0307729D03*
X0276847Y0310929D03*
X0276847Y0314029D03*
D19*
X0270447Y0320429D03*
X0267347Y0320429D03*
X0264147Y0320429D03*
X0261047Y0320429D03*
X0257847Y0320429D03*
X0254747Y0320429D03*
X0251547Y0320429D03*
X0248447Y0320429D03*
X0245247Y0320429D03*
X0242147Y0320429D03*
X0238947Y0320429D03*
X0235847Y0320429D03*
X0232647Y0320429D03*
X0229547Y0320429D03*
X0226347Y0320429D03*
X0223247Y0320429D03*
X0223247Y0260429D03*
X0226347Y0260429D03*
X0229547Y0260429D03*
X0232647Y0260429D03*
X0235847Y0260429D03*
X0238947Y0260429D03*
X0242147Y0260429D03*
X0245247Y0260429D03*
X0248447Y0260429D03*
X0251547Y0260429D03*
X0254747Y0260429D03*
X0257847Y0260429D03*
X0261047Y0260429D03*
X0264147Y0260429D03*
X0267347Y0260429D03*
X0270447Y0260429D03*
D20*
X0191650Y0248303D03*
X0188501Y0248303D03*
X0185351Y0248303D03*
X0182201Y0248303D03*
X0179052Y0248303D03*
X0175902Y0248303D03*
X0175902Y0235705D03*
X0179052Y0235705D03*
X0182201Y0235705D03*
X0185351Y0235705D03*
X0188501Y0235705D03*
X0191650Y0235705D03*
D21*
X0194012Y0242004D03*
X0173540Y0242004D03*
D22*
X0202201Y0238776D03*
X0204760Y0238776D03*
X0207320Y0238776D03*
X0207320Y0245862D03*
X0202201Y0245862D03*
D23*
X0182595Y0275429D03*
X0182595Y0279760D03*
X0182595Y0284091D03*
X0182595Y0288421D03*
X0182595Y0292752D03*
X0182595Y0297083D03*
X0182595Y0301413D03*
X0182595Y0305744D03*
D24*
X0195115Y0270902D03*
D25*
X0197044Y0309878D03*
D26*
X0192123Y0309091D03*
D27*
X0200863Y0307516D03*
D28*
X0138422Y0130902D03*
D29*
X0129564Y0196846D03*
D30*
X0143422Y0189602D03*
X0143422Y0184602D03*
X0143422Y0179602D03*
X0143422Y0174602D03*
X0143422Y0169602D03*
X0143422Y0164602D03*
X0143422Y0159602D03*
X0143422Y0154602D03*
X0143422Y0149602D03*
D31*
X0095351Y0131886D03*
X0095351Y0195665D03*
D32*
X0086946Y0195626D02*
X0079268Y0195626D01*
X0079268Y0132083D02*
X0086946Y0132083D01*
D33*
X0186217Y0142476D03*
X0190548Y0142476D03*
X0194879Y0142476D03*
X0199209Y0142476D03*
X0203540Y0142476D03*
X0207871Y0142476D03*
X0212201Y0142476D03*
X0216532Y0142476D03*
X0220863Y0142476D03*
X0225194Y0142476D03*
X0229524Y0142476D03*
X0233855Y0142476D03*
X0233855Y0208618D03*
X0229524Y0208618D03*
X0225194Y0208618D03*
X0220863Y0208618D03*
X0216532Y0208618D03*
X0212201Y0208618D03*
X0207871Y0208618D03*
X0203540Y0208618D03*
X0199209Y0208618D03*
X0194879Y0208618D03*
X0190548Y0208618D03*
X0186217Y0208618D03*
D34*
X0173225Y0192870D03*
X0173225Y0188539D03*
X0173225Y0184209D03*
X0173225Y0179878D03*
X0173225Y0175547D03*
X0173225Y0171217D03*
X0173225Y0166886D03*
X0173225Y0162555D03*
X0173225Y0158224D03*
X0246847Y0158224D03*
X0246847Y0162555D03*
X0246847Y0166886D03*
X0246847Y0171217D03*
X0246847Y0175547D03*
X0246847Y0179878D03*
X0246847Y0184209D03*
X0246847Y0188539D03*
X0246847Y0192870D03*
D35*
X0437900Y0319099D03*
X0440400Y0319099D03*
X0442900Y0319099D03*
X0445400Y0319099D03*
X0447900Y0319099D03*
X0450400Y0319099D03*
X0452900Y0319099D03*
X0455400Y0319099D03*
X0455400Y0340499D03*
X0452900Y0340499D03*
X0450400Y0340499D03*
X0447900Y0340499D03*
X0445400Y0340499D03*
X0442900Y0340499D03*
X0440400Y0340499D03*
X0437900Y0340499D03*
D36*
X0290351Y0206059D03*
X0290351Y0196059D03*
X0440745Y0143854D03*
X0440745Y0133854D03*
D37*
X0507674Y0264760D03*
X0507674Y0274760D03*
X0507674Y0285429D03*
X0507674Y0295429D03*
X0374800Y0347358D03*
X0374800Y0367358D03*
D38*
X0465351Y0334720D03*
X0465351Y0324878D03*
X0479131Y0324878D03*
X0479131Y0334720D03*
D39*
X0359052Y0323910D03*
X0359052Y0359310D03*
D40*
X0330612Y0377909D02*
X0320562Y0377909D01*
X0464263Y0377909D02*
X0474313Y0377909D01*
X0493594Y0377870D02*
X0503644Y0377870D01*
D41*
X0386394Y0278913D03*
X0330509Y0323894D03*
X0318737Y0279681D03*
X0272438Y0230390D03*
X0325587Y0221531D03*
X0381690Y0341610D03*
D42*
X0341335Y0282555D03*
X0263579Y0175272D03*
D43*
X0447635Y0238264D03*
D44*
X0447635Y0258611D03*
X0452635Y0258611D03*
X0457635Y0258611D03*
X0442635Y0258611D03*
X0437635Y0258611D03*
X0437635Y0217916D03*
X0442635Y0217916D03*
X0447635Y0217916D03*
X0452635Y0217916D03*
X0457635Y0217916D03*
D45*
X0447635Y0238264D03*
D46*
X0432635Y0238264D03*
X0462635Y0248264D03*
X0462635Y0228264D03*
X0425410Y0130862D03*
X0416552Y0130862D03*
X0408678Y0123972D03*
X0408678Y0115114D03*
X0399820Y0115114D03*
X0390961Y0115114D03*
X0382103Y0115114D03*
X0126390Y0233720D03*
X0121469Y0233720D03*
X0116548Y0233720D03*
X0116548Y0238642D03*
X0116548Y0243563D03*
X0121469Y0243563D03*
X0121469Y0238642D03*
X0126390Y0238642D03*
X0126390Y0243563D03*
D47*
X0158363Y0126059D03*
X0158363Y0108343D03*
X0189662Y0108343D03*
X0189662Y0126059D03*
D48*
X0239170Y0350311D03*
X0239170Y0355311D03*
X0239170Y0360311D03*
X0239170Y0365311D03*
X0239209Y0370311D03*
X0254544Y0370311D03*
X0254524Y0365311D03*
X0254524Y0360311D03*
X0254524Y0355311D03*
X0254524Y0350311D03*
D49*
X0250036Y0228169D02*
X0250036Y0222769D01*
X0240036Y0222769D02*
X0240036Y0228169D01*
X0230036Y0228169D02*
X0230036Y0222769D01*
X0220036Y0222769D02*
X0220036Y0228169D01*
D50*
G36*
X0398027Y0173839D02*
X0394678Y0170490D01*
X0390495Y0174673D01*
X0393844Y0178022D01*
X0398027Y0173839D01*
G37*
G36*
X0401981Y0177820D02*
X0398632Y0174471D01*
X0394449Y0178654D01*
X0397798Y0182003D01*
X0401981Y0177820D01*
G37*
G36*
X0406045Y0181773D02*
X0402696Y0178424D01*
X0398513Y0182607D01*
X0401862Y0185956D01*
X0406045Y0181773D01*
G37*
G36*
X0425699Y0162035D02*
X0422350Y0158686D01*
X0418167Y0162869D01*
X0421516Y0166218D01*
X0425699Y0162035D01*
G37*
G36*
X0421732Y0158068D02*
X0418383Y0154719D01*
X0414200Y0158902D01*
X0417549Y0162251D01*
X0421732Y0158068D01*
G37*
G36*
X0417765Y0154101D02*
X0414416Y0150752D01*
X0410233Y0154935D01*
X0413582Y0158284D01*
X0417765Y0154101D01*
G37*
D51*
G36*
X0396016Y0152784D02*
X0392667Y0156133D01*
X0398242Y0161708D01*
X0401591Y0158359D01*
X0396016Y0152784D01*
G37*
G36*
X0420513Y0183979D02*
X0423862Y0180630D01*
X0418287Y0175055D01*
X0414938Y0178404D01*
X0420513Y0183979D01*
G37*
D52*
X0413554Y0173671D03*
D53*
X0402975Y0163093D03*
D54*
X0469871Y0156429D03*
X0484642Y0160114D03*
X0494674Y0156429D03*
X0507674Y0157713D03*
X0507674Y0175114D03*
X0494674Y0176114D03*
X0484642Y0172713D03*
X0469871Y0176114D03*
X0469871Y0193831D03*
X0484642Y0197516D03*
X0494674Y0193831D03*
X0507674Y0195114D03*
X0507674Y0137713D03*
X0494674Y0138713D03*
X0484642Y0135311D03*
X0469871Y0138713D03*
D55*
X0113068Y0217594D03*
X0103068Y0217594D03*
D56*
X0290430Y0217693D03*
X0292989Y0217693D03*
X0295548Y0217693D03*
X0298107Y0217693D03*
X0300666Y0217693D03*
X0303225Y0217693D03*
X0305784Y0217693D03*
X0308343Y0217693D03*
X0310902Y0217693D03*
X0313461Y0217693D03*
X0313461Y0239740D03*
X0310902Y0239740D03*
X0308343Y0239740D03*
X0305784Y0239740D03*
X0303225Y0239740D03*
X0300666Y0239740D03*
X0298107Y0239740D03*
X0295548Y0239740D03*
X0292989Y0239740D03*
X0290430Y0239740D03*
D57*
X0492910Y0363264D03*
X0492910Y0115232D03*
X0079524Y0115232D03*
X0079524Y0363264D03*
D58*
X0121650Y0480587D03*
X0442910Y0375862D03*
X0451178Y0375862D03*
M02*
