G75*
%MOIN*%
%OFA0B0*%
%FSLAX25Y25*%
%IPPOS*%
%LPD*%
%AMOC8*
5,1,8,0,0,1.08239X$1,22.5*
%
%ADD10C,0.00000*%
%ADD11C,0.10000*%
%ADD12C,0.03937*%
%ADD13C,0.01600*%
%ADD14C,0.00394*%
D10*
X0049044Y0040429D02*
X0379753Y0040429D01*
X0379753Y0678224D01*
X0049044Y0678224D01*
X0049005Y0678382D02*
X0049005Y0040587D01*
X0080618Y0246689D02*
X0080620Y0246842D01*
X0080626Y0246996D01*
X0080636Y0247149D01*
X0080650Y0247301D01*
X0080668Y0247454D01*
X0080690Y0247605D01*
X0080715Y0247756D01*
X0080745Y0247907D01*
X0080779Y0248057D01*
X0080816Y0248205D01*
X0080857Y0248353D01*
X0080902Y0248499D01*
X0080951Y0248645D01*
X0081004Y0248789D01*
X0081060Y0248931D01*
X0081120Y0249072D01*
X0081184Y0249212D01*
X0081251Y0249350D01*
X0081322Y0249486D01*
X0081397Y0249620D01*
X0081474Y0249752D01*
X0081556Y0249882D01*
X0081640Y0250010D01*
X0081728Y0250136D01*
X0081819Y0250259D01*
X0081913Y0250380D01*
X0082011Y0250498D01*
X0082111Y0250614D01*
X0082215Y0250727D01*
X0082321Y0250838D01*
X0082430Y0250946D01*
X0082542Y0251051D01*
X0082656Y0251152D01*
X0082774Y0251251D01*
X0082893Y0251347D01*
X0083015Y0251440D01*
X0083140Y0251529D01*
X0083267Y0251616D01*
X0083396Y0251698D01*
X0083527Y0251778D01*
X0083660Y0251854D01*
X0083795Y0251927D01*
X0083932Y0251996D01*
X0084071Y0252061D01*
X0084211Y0252123D01*
X0084353Y0252181D01*
X0084496Y0252236D01*
X0084641Y0252287D01*
X0084787Y0252334D01*
X0084934Y0252377D01*
X0085082Y0252416D01*
X0085231Y0252452D01*
X0085381Y0252483D01*
X0085532Y0252511D01*
X0085683Y0252535D01*
X0085836Y0252555D01*
X0085988Y0252571D01*
X0086141Y0252583D01*
X0086294Y0252591D01*
X0086447Y0252595D01*
X0086601Y0252595D01*
X0086754Y0252591D01*
X0086907Y0252583D01*
X0087060Y0252571D01*
X0087212Y0252555D01*
X0087365Y0252535D01*
X0087516Y0252511D01*
X0087667Y0252483D01*
X0087817Y0252452D01*
X0087966Y0252416D01*
X0088114Y0252377D01*
X0088261Y0252334D01*
X0088407Y0252287D01*
X0088552Y0252236D01*
X0088695Y0252181D01*
X0088837Y0252123D01*
X0088977Y0252061D01*
X0089116Y0251996D01*
X0089253Y0251927D01*
X0089388Y0251854D01*
X0089521Y0251778D01*
X0089652Y0251698D01*
X0089781Y0251616D01*
X0089908Y0251529D01*
X0090033Y0251440D01*
X0090155Y0251347D01*
X0090274Y0251251D01*
X0090392Y0251152D01*
X0090506Y0251051D01*
X0090618Y0250946D01*
X0090727Y0250838D01*
X0090833Y0250727D01*
X0090937Y0250614D01*
X0091037Y0250498D01*
X0091135Y0250380D01*
X0091229Y0250259D01*
X0091320Y0250136D01*
X0091408Y0250010D01*
X0091492Y0249882D01*
X0091574Y0249752D01*
X0091651Y0249620D01*
X0091726Y0249486D01*
X0091797Y0249350D01*
X0091864Y0249212D01*
X0091928Y0249072D01*
X0091988Y0248931D01*
X0092044Y0248789D01*
X0092097Y0248645D01*
X0092146Y0248499D01*
X0092191Y0248353D01*
X0092232Y0248205D01*
X0092269Y0248057D01*
X0092303Y0247907D01*
X0092333Y0247756D01*
X0092358Y0247605D01*
X0092380Y0247454D01*
X0092398Y0247301D01*
X0092412Y0247149D01*
X0092422Y0246996D01*
X0092428Y0246842D01*
X0092430Y0246689D01*
X0092428Y0246536D01*
X0092422Y0246382D01*
X0092412Y0246229D01*
X0092398Y0246077D01*
X0092380Y0245924D01*
X0092358Y0245773D01*
X0092333Y0245622D01*
X0092303Y0245471D01*
X0092269Y0245321D01*
X0092232Y0245173D01*
X0092191Y0245025D01*
X0092146Y0244879D01*
X0092097Y0244733D01*
X0092044Y0244589D01*
X0091988Y0244447D01*
X0091928Y0244306D01*
X0091864Y0244166D01*
X0091797Y0244028D01*
X0091726Y0243892D01*
X0091651Y0243758D01*
X0091574Y0243626D01*
X0091492Y0243496D01*
X0091408Y0243368D01*
X0091320Y0243242D01*
X0091229Y0243119D01*
X0091135Y0242998D01*
X0091037Y0242880D01*
X0090937Y0242764D01*
X0090833Y0242651D01*
X0090727Y0242540D01*
X0090618Y0242432D01*
X0090506Y0242327D01*
X0090392Y0242226D01*
X0090274Y0242127D01*
X0090155Y0242031D01*
X0090033Y0241938D01*
X0089908Y0241849D01*
X0089781Y0241762D01*
X0089652Y0241680D01*
X0089521Y0241600D01*
X0089388Y0241524D01*
X0089253Y0241451D01*
X0089116Y0241382D01*
X0088977Y0241317D01*
X0088837Y0241255D01*
X0088695Y0241197D01*
X0088552Y0241142D01*
X0088407Y0241091D01*
X0088261Y0241044D01*
X0088114Y0241001D01*
X0087966Y0240962D01*
X0087817Y0240926D01*
X0087667Y0240895D01*
X0087516Y0240867D01*
X0087365Y0240843D01*
X0087212Y0240823D01*
X0087060Y0240807D01*
X0086907Y0240795D01*
X0086754Y0240787D01*
X0086601Y0240783D01*
X0086447Y0240783D01*
X0086294Y0240787D01*
X0086141Y0240795D01*
X0085988Y0240807D01*
X0085836Y0240823D01*
X0085683Y0240843D01*
X0085532Y0240867D01*
X0085381Y0240895D01*
X0085231Y0240926D01*
X0085082Y0240962D01*
X0084934Y0241001D01*
X0084787Y0241044D01*
X0084641Y0241091D01*
X0084496Y0241142D01*
X0084353Y0241197D01*
X0084211Y0241255D01*
X0084071Y0241317D01*
X0083932Y0241382D01*
X0083795Y0241451D01*
X0083660Y0241524D01*
X0083527Y0241600D01*
X0083396Y0241680D01*
X0083267Y0241762D01*
X0083140Y0241849D01*
X0083015Y0241938D01*
X0082893Y0242031D01*
X0082774Y0242127D01*
X0082656Y0242226D01*
X0082542Y0242327D01*
X0082430Y0242432D01*
X0082321Y0242540D01*
X0082215Y0242651D01*
X0082111Y0242764D01*
X0082011Y0242880D01*
X0081913Y0242998D01*
X0081819Y0243119D01*
X0081728Y0243242D01*
X0081640Y0243368D01*
X0081556Y0243496D01*
X0081474Y0243626D01*
X0081397Y0243758D01*
X0081322Y0243892D01*
X0081251Y0244028D01*
X0081184Y0244166D01*
X0081120Y0244306D01*
X0081060Y0244447D01*
X0081004Y0244589D01*
X0080951Y0244733D01*
X0080902Y0244879D01*
X0080857Y0245025D01*
X0080816Y0245173D01*
X0080779Y0245321D01*
X0080745Y0245471D01*
X0080715Y0245622D01*
X0080690Y0245773D01*
X0080668Y0245924D01*
X0080650Y0246077D01*
X0080636Y0246229D01*
X0080626Y0246382D01*
X0080620Y0246536D01*
X0080618Y0246689D01*
X0309404Y0298919D02*
X0309406Y0299010D01*
X0309412Y0299100D01*
X0309422Y0299191D01*
X0309436Y0299280D01*
X0309454Y0299369D01*
X0309475Y0299458D01*
X0309501Y0299545D01*
X0309530Y0299631D01*
X0309564Y0299715D01*
X0309600Y0299798D01*
X0309641Y0299880D01*
X0309685Y0299959D01*
X0309732Y0300037D01*
X0309783Y0300112D01*
X0309837Y0300185D01*
X0309894Y0300255D01*
X0309954Y0300323D01*
X0310017Y0300389D01*
X0310083Y0300451D01*
X0310152Y0300510D01*
X0310223Y0300567D01*
X0310297Y0300620D01*
X0310373Y0300670D01*
X0310451Y0300717D01*
X0310531Y0300760D01*
X0310612Y0300799D01*
X0310696Y0300835D01*
X0310781Y0300867D01*
X0310867Y0300896D01*
X0310954Y0300920D01*
X0311043Y0300941D01*
X0311132Y0300958D01*
X0311222Y0300971D01*
X0311312Y0300980D01*
X0311403Y0300985D01*
X0311494Y0300986D01*
X0311584Y0300983D01*
X0311675Y0300976D01*
X0311765Y0300965D01*
X0311855Y0300950D01*
X0311944Y0300931D01*
X0312032Y0300909D01*
X0312118Y0300882D01*
X0312204Y0300852D01*
X0312288Y0300818D01*
X0312371Y0300780D01*
X0312452Y0300739D01*
X0312531Y0300694D01*
X0312608Y0300645D01*
X0312682Y0300594D01*
X0312755Y0300539D01*
X0312825Y0300481D01*
X0312892Y0300420D01*
X0312956Y0300356D01*
X0313018Y0300290D01*
X0313077Y0300220D01*
X0313132Y0300149D01*
X0313185Y0300074D01*
X0313234Y0299998D01*
X0313280Y0299920D01*
X0313322Y0299839D01*
X0313361Y0299757D01*
X0313396Y0299673D01*
X0313427Y0299588D01*
X0313454Y0299501D01*
X0313478Y0299414D01*
X0313498Y0299325D01*
X0313514Y0299236D01*
X0313526Y0299146D01*
X0313534Y0299055D01*
X0313538Y0298964D01*
X0313538Y0298874D01*
X0313534Y0298783D01*
X0313526Y0298692D01*
X0313514Y0298602D01*
X0313498Y0298513D01*
X0313478Y0298424D01*
X0313454Y0298337D01*
X0313427Y0298250D01*
X0313396Y0298165D01*
X0313361Y0298081D01*
X0313322Y0297999D01*
X0313280Y0297918D01*
X0313234Y0297840D01*
X0313185Y0297764D01*
X0313132Y0297689D01*
X0313077Y0297618D01*
X0313018Y0297548D01*
X0312956Y0297482D01*
X0312892Y0297418D01*
X0312825Y0297357D01*
X0312755Y0297299D01*
X0312682Y0297244D01*
X0312608Y0297193D01*
X0312531Y0297144D01*
X0312452Y0297099D01*
X0312371Y0297058D01*
X0312288Y0297020D01*
X0312204Y0296986D01*
X0312118Y0296956D01*
X0312032Y0296929D01*
X0311944Y0296907D01*
X0311855Y0296888D01*
X0311765Y0296873D01*
X0311675Y0296862D01*
X0311584Y0296855D01*
X0311494Y0296852D01*
X0311403Y0296853D01*
X0311312Y0296858D01*
X0311222Y0296867D01*
X0311132Y0296880D01*
X0311043Y0296897D01*
X0310954Y0296918D01*
X0310867Y0296942D01*
X0310781Y0296971D01*
X0310696Y0297003D01*
X0310612Y0297039D01*
X0310531Y0297078D01*
X0310451Y0297121D01*
X0310373Y0297168D01*
X0310297Y0297218D01*
X0310223Y0297271D01*
X0310152Y0297328D01*
X0310083Y0297387D01*
X0310017Y0297449D01*
X0309954Y0297515D01*
X0309894Y0297583D01*
X0309837Y0297653D01*
X0309783Y0297726D01*
X0309732Y0297801D01*
X0309685Y0297879D01*
X0309641Y0297958D01*
X0309600Y0298040D01*
X0309564Y0298123D01*
X0309530Y0298207D01*
X0309501Y0298293D01*
X0309475Y0298380D01*
X0309454Y0298469D01*
X0309436Y0298558D01*
X0309422Y0298647D01*
X0309412Y0298738D01*
X0309406Y0298828D01*
X0309404Y0298919D01*
X0320574Y0309498D02*
X0320576Y0309575D01*
X0320582Y0309651D01*
X0320592Y0309727D01*
X0320606Y0309802D01*
X0320623Y0309877D01*
X0320645Y0309950D01*
X0320670Y0310023D01*
X0320700Y0310094D01*
X0320732Y0310163D01*
X0320769Y0310230D01*
X0320808Y0310296D01*
X0320851Y0310359D01*
X0320898Y0310420D01*
X0320947Y0310479D01*
X0321000Y0310535D01*
X0321055Y0310588D01*
X0321113Y0310638D01*
X0321173Y0310685D01*
X0321236Y0310729D01*
X0321301Y0310770D01*
X0321368Y0310807D01*
X0321437Y0310841D01*
X0321507Y0310871D01*
X0321579Y0310897D01*
X0321653Y0310919D01*
X0321727Y0310938D01*
X0321802Y0310953D01*
X0321878Y0310964D01*
X0321954Y0310971D01*
X0322031Y0310974D01*
X0322107Y0310973D01*
X0322184Y0310968D01*
X0322260Y0310959D01*
X0322336Y0310946D01*
X0322410Y0310929D01*
X0322484Y0310909D01*
X0322557Y0310884D01*
X0322628Y0310856D01*
X0322698Y0310824D01*
X0322766Y0310789D01*
X0322832Y0310750D01*
X0322896Y0310708D01*
X0322957Y0310662D01*
X0323017Y0310613D01*
X0323073Y0310562D01*
X0323127Y0310507D01*
X0323178Y0310450D01*
X0323226Y0310390D01*
X0323271Y0310328D01*
X0323312Y0310263D01*
X0323350Y0310197D01*
X0323385Y0310129D01*
X0323415Y0310058D01*
X0323443Y0309987D01*
X0323466Y0309914D01*
X0323486Y0309840D01*
X0323502Y0309765D01*
X0323514Y0309689D01*
X0323522Y0309613D01*
X0323526Y0309536D01*
X0323526Y0309460D01*
X0323522Y0309383D01*
X0323514Y0309307D01*
X0323502Y0309231D01*
X0323486Y0309156D01*
X0323466Y0309082D01*
X0323443Y0309009D01*
X0323415Y0308938D01*
X0323385Y0308867D01*
X0323350Y0308799D01*
X0323312Y0308733D01*
X0323271Y0308668D01*
X0323226Y0308606D01*
X0323178Y0308546D01*
X0323127Y0308489D01*
X0323073Y0308434D01*
X0323017Y0308383D01*
X0322957Y0308334D01*
X0322896Y0308288D01*
X0322832Y0308246D01*
X0322766Y0308207D01*
X0322698Y0308172D01*
X0322628Y0308140D01*
X0322557Y0308112D01*
X0322484Y0308087D01*
X0322410Y0308067D01*
X0322336Y0308050D01*
X0322260Y0308037D01*
X0322184Y0308028D01*
X0322107Y0308023D01*
X0322031Y0308022D01*
X0321954Y0308025D01*
X0321878Y0308032D01*
X0321802Y0308043D01*
X0321727Y0308058D01*
X0321653Y0308077D01*
X0321579Y0308099D01*
X0321507Y0308125D01*
X0321437Y0308155D01*
X0321368Y0308189D01*
X0321301Y0308226D01*
X0321236Y0308267D01*
X0321173Y0308311D01*
X0321113Y0308358D01*
X0321055Y0308408D01*
X0321000Y0308461D01*
X0320947Y0308517D01*
X0320898Y0308576D01*
X0320851Y0308637D01*
X0320808Y0308700D01*
X0320769Y0308766D01*
X0320732Y0308833D01*
X0320700Y0308902D01*
X0320670Y0308973D01*
X0320645Y0309046D01*
X0320623Y0309119D01*
X0320606Y0309194D01*
X0320592Y0309269D01*
X0320582Y0309345D01*
X0320576Y0309421D01*
X0320574Y0309498D01*
X0182902Y0591610D02*
X0182904Y0591735D01*
X0182910Y0591860D01*
X0182920Y0591984D01*
X0182934Y0592108D01*
X0182951Y0592232D01*
X0182973Y0592355D01*
X0182999Y0592477D01*
X0183028Y0592599D01*
X0183061Y0592719D01*
X0183099Y0592838D01*
X0183139Y0592957D01*
X0183184Y0593073D01*
X0183232Y0593188D01*
X0183284Y0593302D01*
X0183340Y0593414D01*
X0183399Y0593524D01*
X0183461Y0593632D01*
X0183527Y0593739D01*
X0183596Y0593843D01*
X0183669Y0593944D01*
X0183744Y0594044D01*
X0183823Y0594141D01*
X0183905Y0594235D01*
X0183990Y0594327D01*
X0184077Y0594416D01*
X0184168Y0594502D01*
X0184261Y0594585D01*
X0184357Y0594666D01*
X0184455Y0594743D01*
X0184555Y0594817D01*
X0184658Y0594888D01*
X0184763Y0594955D01*
X0184871Y0595020D01*
X0184980Y0595080D01*
X0185091Y0595138D01*
X0185204Y0595191D01*
X0185318Y0595241D01*
X0185434Y0595288D01*
X0185551Y0595330D01*
X0185670Y0595369D01*
X0185790Y0595405D01*
X0185911Y0595436D01*
X0186033Y0595464D01*
X0186155Y0595487D01*
X0186279Y0595507D01*
X0186403Y0595523D01*
X0186527Y0595535D01*
X0186652Y0595543D01*
X0186777Y0595547D01*
X0186901Y0595547D01*
X0187026Y0595543D01*
X0187151Y0595535D01*
X0187275Y0595523D01*
X0187399Y0595507D01*
X0187523Y0595487D01*
X0187645Y0595464D01*
X0187767Y0595436D01*
X0187888Y0595405D01*
X0188008Y0595369D01*
X0188127Y0595330D01*
X0188244Y0595288D01*
X0188360Y0595241D01*
X0188474Y0595191D01*
X0188587Y0595138D01*
X0188698Y0595080D01*
X0188808Y0595020D01*
X0188915Y0594955D01*
X0189020Y0594888D01*
X0189123Y0594817D01*
X0189223Y0594743D01*
X0189321Y0594666D01*
X0189417Y0594585D01*
X0189510Y0594502D01*
X0189601Y0594416D01*
X0189688Y0594327D01*
X0189773Y0594235D01*
X0189855Y0594141D01*
X0189934Y0594044D01*
X0190009Y0593944D01*
X0190082Y0593843D01*
X0190151Y0593739D01*
X0190217Y0593632D01*
X0190279Y0593524D01*
X0190338Y0593414D01*
X0190394Y0593302D01*
X0190446Y0593188D01*
X0190494Y0593073D01*
X0190539Y0592957D01*
X0190579Y0592838D01*
X0190617Y0592719D01*
X0190650Y0592599D01*
X0190679Y0592477D01*
X0190705Y0592355D01*
X0190727Y0592232D01*
X0190744Y0592108D01*
X0190758Y0591984D01*
X0190768Y0591860D01*
X0190774Y0591735D01*
X0190776Y0591610D01*
X0190774Y0591485D01*
X0190768Y0591360D01*
X0190758Y0591236D01*
X0190744Y0591112D01*
X0190727Y0590988D01*
X0190705Y0590865D01*
X0190679Y0590743D01*
X0190650Y0590621D01*
X0190617Y0590501D01*
X0190579Y0590382D01*
X0190539Y0590263D01*
X0190494Y0590147D01*
X0190446Y0590032D01*
X0190394Y0589918D01*
X0190338Y0589806D01*
X0190279Y0589696D01*
X0190217Y0589588D01*
X0190151Y0589481D01*
X0190082Y0589377D01*
X0190009Y0589276D01*
X0189934Y0589176D01*
X0189855Y0589079D01*
X0189773Y0588985D01*
X0189688Y0588893D01*
X0189601Y0588804D01*
X0189510Y0588718D01*
X0189417Y0588635D01*
X0189321Y0588554D01*
X0189223Y0588477D01*
X0189123Y0588403D01*
X0189020Y0588332D01*
X0188915Y0588265D01*
X0188807Y0588200D01*
X0188698Y0588140D01*
X0188587Y0588082D01*
X0188474Y0588029D01*
X0188360Y0587979D01*
X0188244Y0587932D01*
X0188127Y0587890D01*
X0188008Y0587851D01*
X0187888Y0587815D01*
X0187767Y0587784D01*
X0187645Y0587756D01*
X0187523Y0587733D01*
X0187399Y0587713D01*
X0187275Y0587697D01*
X0187151Y0587685D01*
X0187026Y0587677D01*
X0186901Y0587673D01*
X0186777Y0587673D01*
X0186652Y0587677D01*
X0186527Y0587685D01*
X0186403Y0587697D01*
X0186279Y0587713D01*
X0186155Y0587733D01*
X0186033Y0587756D01*
X0185911Y0587784D01*
X0185790Y0587815D01*
X0185670Y0587851D01*
X0185551Y0587890D01*
X0185434Y0587932D01*
X0185318Y0587979D01*
X0185204Y0588029D01*
X0185091Y0588082D01*
X0184980Y0588140D01*
X0184870Y0588200D01*
X0184763Y0588265D01*
X0184658Y0588332D01*
X0184555Y0588403D01*
X0184455Y0588477D01*
X0184357Y0588554D01*
X0184261Y0588635D01*
X0184168Y0588718D01*
X0184077Y0588804D01*
X0183990Y0588893D01*
X0183905Y0588985D01*
X0183823Y0589079D01*
X0183744Y0589176D01*
X0183669Y0589276D01*
X0183596Y0589377D01*
X0183527Y0589481D01*
X0183461Y0589588D01*
X0183399Y0589696D01*
X0183340Y0589806D01*
X0183284Y0589918D01*
X0183232Y0590032D01*
X0183184Y0590147D01*
X0183139Y0590263D01*
X0183099Y0590382D01*
X0183061Y0590501D01*
X0183028Y0590621D01*
X0182999Y0590743D01*
X0182973Y0590865D01*
X0182951Y0590988D01*
X0182934Y0591112D01*
X0182920Y0591236D01*
X0182910Y0591360D01*
X0182904Y0591485D01*
X0182902Y0591610D01*
X0182902Y0646728D02*
X0182904Y0646853D01*
X0182910Y0646978D01*
X0182920Y0647102D01*
X0182934Y0647226D01*
X0182951Y0647350D01*
X0182973Y0647473D01*
X0182999Y0647595D01*
X0183028Y0647717D01*
X0183061Y0647837D01*
X0183099Y0647956D01*
X0183139Y0648075D01*
X0183184Y0648191D01*
X0183232Y0648306D01*
X0183284Y0648420D01*
X0183340Y0648532D01*
X0183399Y0648642D01*
X0183461Y0648750D01*
X0183527Y0648857D01*
X0183596Y0648961D01*
X0183669Y0649062D01*
X0183744Y0649162D01*
X0183823Y0649259D01*
X0183905Y0649353D01*
X0183990Y0649445D01*
X0184077Y0649534D01*
X0184168Y0649620D01*
X0184261Y0649703D01*
X0184357Y0649784D01*
X0184455Y0649861D01*
X0184555Y0649935D01*
X0184658Y0650006D01*
X0184763Y0650073D01*
X0184871Y0650138D01*
X0184980Y0650198D01*
X0185091Y0650256D01*
X0185204Y0650309D01*
X0185318Y0650359D01*
X0185434Y0650406D01*
X0185551Y0650448D01*
X0185670Y0650487D01*
X0185790Y0650523D01*
X0185911Y0650554D01*
X0186033Y0650582D01*
X0186155Y0650605D01*
X0186279Y0650625D01*
X0186403Y0650641D01*
X0186527Y0650653D01*
X0186652Y0650661D01*
X0186777Y0650665D01*
X0186901Y0650665D01*
X0187026Y0650661D01*
X0187151Y0650653D01*
X0187275Y0650641D01*
X0187399Y0650625D01*
X0187523Y0650605D01*
X0187645Y0650582D01*
X0187767Y0650554D01*
X0187888Y0650523D01*
X0188008Y0650487D01*
X0188127Y0650448D01*
X0188244Y0650406D01*
X0188360Y0650359D01*
X0188474Y0650309D01*
X0188587Y0650256D01*
X0188698Y0650198D01*
X0188808Y0650138D01*
X0188915Y0650073D01*
X0189020Y0650006D01*
X0189123Y0649935D01*
X0189223Y0649861D01*
X0189321Y0649784D01*
X0189417Y0649703D01*
X0189510Y0649620D01*
X0189601Y0649534D01*
X0189688Y0649445D01*
X0189773Y0649353D01*
X0189855Y0649259D01*
X0189934Y0649162D01*
X0190009Y0649062D01*
X0190082Y0648961D01*
X0190151Y0648857D01*
X0190217Y0648750D01*
X0190279Y0648642D01*
X0190338Y0648532D01*
X0190394Y0648420D01*
X0190446Y0648306D01*
X0190494Y0648191D01*
X0190539Y0648075D01*
X0190579Y0647956D01*
X0190617Y0647837D01*
X0190650Y0647717D01*
X0190679Y0647595D01*
X0190705Y0647473D01*
X0190727Y0647350D01*
X0190744Y0647226D01*
X0190758Y0647102D01*
X0190768Y0646978D01*
X0190774Y0646853D01*
X0190776Y0646728D01*
X0190774Y0646603D01*
X0190768Y0646478D01*
X0190758Y0646354D01*
X0190744Y0646230D01*
X0190727Y0646106D01*
X0190705Y0645983D01*
X0190679Y0645861D01*
X0190650Y0645739D01*
X0190617Y0645619D01*
X0190579Y0645500D01*
X0190539Y0645381D01*
X0190494Y0645265D01*
X0190446Y0645150D01*
X0190394Y0645036D01*
X0190338Y0644924D01*
X0190279Y0644814D01*
X0190217Y0644706D01*
X0190151Y0644599D01*
X0190082Y0644495D01*
X0190009Y0644394D01*
X0189934Y0644294D01*
X0189855Y0644197D01*
X0189773Y0644103D01*
X0189688Y0644011D01*
X0189601Y0643922D01*
X0189510Y0643836D01*
X0189417Y0643753D01*
X0189321Y0643672D01*
X0189223Y0643595D01*
X0189123Y0643521D01*
X0189020Y0643450D01*
X0188915Y0643383D01*
X0188807Y0643318D01*
X0188698Y0643258D01*
X0188587Y0643200D01*
X0188474Y0643147D01*
X0188360Y0643097D01*
X0188244Y0643050D01*
X0188127Y0643008D01*
X0188008Y0642969D01*
X0187888Y0642933D01*
X0187767Y0642902D01*
X0187645Y0642874D01*
X0187523Y0642851D01*
X0187399Y0642831D01*
X0187275Y0642815D01*
X0187151Y0642803D01*
X0187026Y0642795D01*
X0186901Y0642791D01*
X0186777Y0642791D01*
X0186652Y0642795D01*
X0186527Y0642803D01*
X0186403Y0642815D01*
X0186279Y0642831D01*
X0186155Y0642851D01*
X0186033Y0642874D01*
X0185911Y0642902D01*
X0185790Y0642933D01*
X0185670Y0642969D01*
X0185551Y0643008D01*
X0185434Y0643050D01*
X0185318Y0643097D01*
X0185204Y0643147D01*
X0185091Y0643200D01*
X0184980Y0643258D01*
X0184870Y0643318D01*
X0184763Y0643383D01*
X0184658Y0643450D01*
X0184555Y0643521D01*
X0184455Y0643595D01*
X0184357Y0643672D01*
X0184261Y0643753D01*
X0184168Y0643836D01*
X0184077Y0643922D01*
X0183990Y0644011D01*
X0183905Y0644103D01*
X0183823Y0644197D01*
X0183744Y0644294D01*
X0183669Y0644394D01*
X0183596Y0644495D01*
X0183527Y0644599D01*
X0183461Y0644706D01*
X0183399Y0644814D01*
X0183340Y0644924D01*
X0183284Y0645036D01*
X0183232Y0645150D01*
X0183184Y0645265D01*
X0183139Y0645381D01*
X0183099Y0645500D01*
X0183061Y0645619D01*
X0183028Y0645739D01*
X0182999Y0645861D01*
X0182973Y0645983D01*
X0182951Y0646106D01*
X0182934Y0646230D01*
X0182920Y0646354D01*
X0182910Y0646478D01*
X0182904Y0646603D01*
X0182902Y0646728D01*
X0076603Y0646728D02*
X0076605Y0646853D01*
X0076611Y0646978D01*
X0076621Y0647102D01*
X0076635Y0647226D01*
X0076652Y0647350D01*
X0076674Y0647473D01*
X0076700Y0647595D01*
X0076729Y0647717D01*
X0076762Y0647837D01*
X0076800Y0647956D01*
X0076840Y0648075D01*
X0076885Y0648191D01*
X0076933Y0648306D01*
X0076985Y0648420D01*
X0077041Y0648532D01*
X0077100Y0648642D01*
X0077162Y0648750D01*
X0077228Y0648857D01*
X0077297Y0648961D01*
X0077370Y0649062D01*
X0077445Y0649162D01*
X0077524Y0649259D01*
X0077606Y0649353D01*
X0077691Y0649445D01*
X0077778Y0649534D01*
X0077869Y0649620D01*
X0077962Y0649703D01*
X0078058Y0649784D01*
X0078156Y0649861D01*
X0078256Y0649935D01*
X0078359Y0650006D01*
X0078464Y0650073D01*
X0078572Y0650138D01*
X0078681Y0650198D01*
X0078792Y0650256D01*
X0078905Y0650309D01*
X0079019Y0650359D01*
X0079135Y0650406D01*
X0079252Y0650448D01*
X0079371Y0650487D01*
X0079491Y0650523D01*
X0079612Y0650554D01*
X0079734Y0650582D01*
X0079856Y0650605D01*
X0079980Y0650625D01*
X0080104Y0650641D01*
X0080228Y0650653D01*
X0080353Y0650661D01*
X0080478Y0650665D01*
X0080602Y0650665D01*
X0080727Y0650661D01*
X0080852Y0650653D01*
X0080976Y0650641D01*
X0081100Y0650625D01*
X0081224Y0650605D01*
X0081346Y0650582D01*
X0081468Y0650554D01*
X0081589Y0650523D01*
X0081709Y0650487D01*
X0081828Y0650448D01*
X0081945Y0650406D01*
X0082061Y0650359D01*
X0082175Y0650309D01*
X0082288Y0650256D01*
X0082399Y0650198D01*
X0082509Y0650138D01*
X0082616Y0650073D01*
X0082721Y0650006D01*
X0082824Y0649935D01*
X0082924Y0649861D01*
X0083022Y0649784D01*
X0083118Y0649703D01*
X0083211Y0649620D01*
X0083302Y0649534D01*
X0083389Y0649445D01*
X0083474Y0649353D01*
X0083556Y0649259D01*
X0083635Y0649162D01*
X0083710Y0649062D01*
X0083783Y0648961D01*
X0083852Y0648857D01*
X0083918Y0648750D01*
X0083980Y0648642D01*
X0084039Y0648532D01*
X0084095Y0648420D01*
X0084147Y0648306D01*
X0084195Y0648191D01*
X0084240Y0648075D01*
X0084280Y0647956D01*
X0084318Y0647837D01*
X0084351Y0647717D01*
X0084380Y0647595D01*
X0084406Y0647473D01*
X0084428Y0647350D01*
X0084445Y0647226D01*
X0084459Y0647102D01*
X0084469Y0646978D01*
X0084475Y0646853D01*
X0084477Y0646728D01*
X0084475Y0646603D01*
X0084469Y0646478D01*
X0084459Y0646354D01*
X0084445Y0646230D01*
X0084428Y0646106D01*
X0084406Y0645983D01*
X0084380Y0645861D01*
X0084351Y0645739D01*
X0084318Y0645619D01*
X0084280Y0645500D01*
X0084240Y0645381D01*
X0084195Y0645265D01*
X0084147Y0645150D01*
X0084095Y0645036D01*
X0084039Y0644924D01*
X0083980Y0644814D01*
X0083918Y0644706D01*
X0083852Y0644599D01*
X0083783Y0644495D01*
X0083710Y0644394D01*
X0083635Y0644294D01*
X0083556Y0644197D01*
X0083474Y0644103D01*
X0083389Y0644011D01*
X0083302Y0643922D01*
X0083211Y0643836D01*
X0083118Y0643753D01*
X0083022Y0643672D01*
X0082924Y0643595D01*
X0082824Y0643521D01*
X0082721Y0643450D01*
X0082616Y0643383D01*
X0082508Y0643318D01*
X0082399Y0643258D01*
X0082288Y0643200D01*
X0082175Y0643147D01*
X0082061Y0643097D01*
X0081945Y0643050D01*
X0081828Y0643008D01*
X0081709Y0642969D01*
X0081589Y0642933D01*
X0081468Y0642902D01*
X0081346Y0642874D01*
X0081224Y0642851D01*
X0081100Y0642831D01*
X0080976Y0642815D01*
X0080852Y0642803D01*
X0080727Y0642795D01*
X0080602Y0642791D01*
X0080478Y0642791D01*
X0080353Y0642795D01*
X0080228Y0642803D01*
X0080104Y0642815D01*
X0079980Y0642831D01*
X0079856Y0642851D01*
X0079734Y0642874D01*
X0079612Y0642902D01*
X0079491Y0642933D01*
X0079371Y0642969D01*
X0079252Y0643008D01*
X0079135Y0643050D01*
X0079019Y0643097D01*
X0078905Y0643147D01*
X0078792Y0643200D01*
X0078681Y0643258D01*
X0078571Y0643318D01*
X0078464Y0643383D01*
X0078359Y0643450D01*
X0078256Y0643521D01*
X0078156Y0643595D01*
X0078058Y0643672D01*
X0077962Y0643753D01*
X0077869Y0643836D01*
X0077778Y0643922D01*
X0077691Y0644011D01*
X0077606Y0644103D01*
X0077524Y0644197D01*
X0077445Y0644294D01*
X0077370Y0644394D01*
X0077297Y0644495D01*
X0077228Y0644599D01*
X0077162Y0644706D01*
X0077100Y0644814D01*
X0077041Y0644924D01*
X0076985Y0645036D01*
X0076933Y0645150D01*
X0076885Y0645265D01*
X0076840Y0645381D01*
X0076800Y0645500D01*
X0076762Y0645619D01*
X0076729Y0645739D01*
X0076700Y0645861D01*
X0076674Y0645983D01*
X0076652Y0646106D01*
X0076635Y0646230D01*
X0076621Y0646354D01*
X0076611Y0646478D01*
X0076605Y0646603D01*
X0076603Y0646728D01*
X0076603Y0591610D02*
X0076605Y0591735D01*
X0076611Y0591860D01*
X0076621Y0591984D01*
X0076635Y0592108D01*
X0076652Y0592232D01*
X0076674Y0592355D01*
X0076700Y0592477D01*
X0076729Y0592599D01*
X0076762Y0592719D01*
X0076800Y0592838D01*
X0076840Y0592957D01*
X0076885Y0593073D01*
X0076933Y0593188D01*
X0076985Y0593302D01*
X0077041Y0593414D01*
X0077100Y0593524D01*
X0077162Y0593632D01*
X0077228Y0593739D01*
X0077297Y0593843D01*
X0077370Y0593944D01*
X0077445Y0594044D01*
X0077524Y0594141D01*
X0077606Y0594235D01*
X0077691Y0594327D01*
X0077778Y0594416D01*
X0077869Y0594502D01*
X0077962Y0594585D01*
X0078058Y0594666D01*
X0078156Y0594743D01*
X0078256Y0594817D01*
X0078359Y0594888D01*
X0078464Y0594955D01*
X0078572Y0595020D01*
X0078681Y0595080D01*
X0078792Y0595138D01*
X0078905Y0595191D01*
X0079019Y0595241D01*
X0079135Y0595288D01*
X0079252Y0595330D01*
X0079371Y0595369D01*
X0079491Y0595405D01*
X0079612Y0595436D01*
X0079734Y0595464D01*
X0079856Y0595487D01*
X0079980Y0595507D01*
X0080104Y0595523D01*
X0080228Y0595535D01*
X0080353Y0595543D01*
X0080478Y0595547D01*
X0080602Y0595547D01*
X0080727Y0595543D01*
X0080852Y0595535D01*
X0080976Y0595523D01*
X0081100Y0595507D01*
X0081224Y0595487D01*
X0081346Y0595464D01*
X0081468Y0595436D01*
X0081589Y0595405D01*
X0081709Y0595369D01*
X0081828Y0595330D01*
X0081945Y0595288D01*
X0082061Y0595241D01*
X0082175Y0595191D01*
X0082288Y0595138D01*
X0082399Y0595080D01*
X0082509Y0595020D01*
X0082616Y0594955D01*
X0082721Y0594888D01*
X0082824Y0594817D01*
X0082924Y0594743D01*
X0083022Y0594666D01*
X0083118Y0594585D01*
X0083211Y0594502D01*
X0083302Y0594416D01*
X0083389Y0594327D01*
X0083474Y0594235D01*
X0083556Y0594141D01*
X0083635Y0594044D01*
X0083710Y0593944D01*
X0083783Y0593843D01*
X0083852Y0593739D01*
X0083918Y0593632D01*
X0083980Y0593524D01*
X0084039Y0593414D01*
X0084095Y0593302D01*
X0084147Y0593188D01*
X0084195Y0593073D01*
X0084240Y0592957D01*
X0084280Y0592838D01*
X0084318Y0592719D01*
X0084351Y0592599D01*
X0084380Y0592477D01*
X0084406Y0592355D01*
X0084428Y0592232D01*
X0084445Y0592108D01*
X0084459Y0591984D01*
X0084469Y0591860D01*
X0084475Y0591735D01*
X0084477Y0591610D01*
X0084475Y0591485D01*
X0084469Y0591360D01*
X0084459Y0591236D01*
X0084445Y0591112D01*
X0084428Y0590988D01*
X0084406Y0590865D01*
X0084380Y0590743D01*
X0084351Y0590621D01*
X0084318Y0590501D01*
X0084280Y0590382D01*
X0084240Y0590263D01*
X0084195Y0590147D01*
X0084147Y0590032D01*
X0084095Y0589918D01*
X0084039Y0589806D01*
X0083980Y0589696D01*
X0083918Y0589588D01*
X0083852Y0589481D01*
X0083783Y0589377D01*
X0083710Y0589276D01*
X0083635Y0589176D01*
X0083556Y0589079D01*
X0083474Y0588985D01*
X0083389Y0588893D01*
X0083302Y0588804D01*
X0083211Y0588718D01*
X0083118Y0588635D01*
X0083022Y0588554D01*
X0082924Y0588477D01*
X0082824Y0588403D01*
X0082721Y0588332D01*
X0082616Y0588265D01*
X0082508Y0588200D01*
X0082399Y0588140D01*
X0082288Y0588082D01*
X0082175Y0588029D01*
X0082061Y0587979D01*
X0081945Y0587932D01*
X0081828Y0587890D01*
X0081709Y0587851D01*
X0081589Y0587815D01*
X0081468Y0587784D01*
X0081346Y0587756D01*
X0081224Y0587733D01*
X0081100Y0587713D01*
X0080976Y0587697D01*
X0080852Y0587685D01*
X0080727Y0587677D01*
X0080602Y0587673D01*
X0080478Y0587673D01*
X0080353Y0587677D01*
X0080228Y0587685D01*
X0080104Y0587697D01*
X0079980Y0587713D01*
X0079856Y0587733D01*
X0079734Y0587756D01*
X0079612Y0587784D01*
X0079491Y0587815D01*
X0079371Y0587851D01*
X0079252Y0587890D01*
X0079135Y0587932D01*
X0079019Y0587979D01*
X0078905Y0588029D01*
X0078792Y0588082D01*
X0078681Y0588140D01*
X0078571Y0588200D01*
X0078464Y0588265D01*
X0078359Y0588332D01*
X0078256Y0588403D01*
X0078156Y0588477D01*
X0078058Y0588554D01*
X0077962Y0588635D01*
X0077869Y0588718D01*
X0077778Y0588804D01*
X0077691Y0588893D01*
X0077606Y0588985D01*
X0077524Y0589079D01*
X0077445Y0589176D01*
X0077370Y0589276D01*
X0077297Y0589377D01*
X0077228Y0589481D01*
X0077162Y0589588D01*
X0077100Y0589696D01*
X0077041Y0589806D01*
X0076985Y0589918D01*
X0076933Y0590032D01*
X0076885Y0590147D01*
X0076840Y0590263D01*
X0076800Y0590382D01*
X0076762Y0590501D01*
X0076729Y0590621D01*
X0076700Y0590743D01*
X0076674Y0590865D01*
X0076652Y0590988D01*
X0076635Y0591112D01*
X0076621Y0591236D01*
X0076611Y0591360D01*
X0076605Y0591485D01*
X0076603Y0591610D01*
D11*
X0084477Y0567988D02*
X0088414Y0567988D01*
X0089477Y0567988D02*
X0203473Y0568008D01*
X0225324Y0567969D02*
X0343257Y0567988D01*
X0344320Y0567988D02*
X0344796Y0567982D01*
X0345271Y0567965D01*
X0345746Y0567936D01*
X0346220Y0567896D01*
X0346693Y0567844D01*
X0347164Y0567781D01*
X0347634Y0567707D01*
X0348102Y0567621D01*
X0348568Y0567524D01*
X0349031Y0567416D01*
X0349491Y0567297D01*
X0349949Y0567166D01*
X0350403Y0567025D01*
X0350854Y0566872D01*
X0351300Y0566709D01*
X0351743Y0566535D01*
X0352181Y0566350D01*
X0352615Y0566155D01*
X0353044Y0565949D01*
X0353468Y0565733D01*
X0353887Y0565507D01*
X0354300Y0565271D01*
X0354707Y0565025D01*
X0355108Y0564769D01*
X0355502Y0564503D01*
X0355891Y0564228D01*
X0356272Y0563944D01*
X0356646Y0563651D01*
X0357014Y0563349D01*
X0357374Y0563037D01*
X0357726Y0562718D01*
X0358070Y0562390D01*
X0358407Y0562053D01*
X0358735Y0561709D01*
X0359054Y0561357D01*
X0359366Y0560997D01*
X0359668Y0560629D01*
X0359961Y0560255D01*
X0360245Y0559874D01*
X0360520Y0559485D01*
X0360786Y0559091D01*
X0361042Y0558690D01*
X0361288Y0558283D01*
X0361524Y0557870D01*
X0361750Y0557451D01*
X0361966Y0557027D01*
X0362172Y0556598D01*
X0362367Y0556164D01*
X0362552Y0555726D01*
X0362726Y0555283D01*
X0362889Y0554837D01*
X0363042Y0554386D01*
X0363183Y0553932D01*
X0363314Y0553474D01*
X0363433Y0553014D01*
X0363541Y0552551D01*
X0363638Y0552085D01*
X0363724Y0551617D01*
X0363798Y0551147D01*
X0363861Y0550676D01*
X0363913Y0550203D01*
X0363953Y0549729D01*
X0363982Y0549254D01*
X0363999Y0548779D01*
X0364005Y0548303D01*
X0351131Y0398697D02*
X0221387Y0398677D01*
X0207410Y0398717D02*
X0077666Y0398697D01*
X0064792Y0548303D02*
X0064798Y0548779D01*
X0064815Y0549254D01*
X0064844Y0549729D01*
X0064884Y0550203D01*
X0064936Y0550676D01*
X0064999Y0551147D01*
X0065073Y0551617D01*
X0065159Y0552085D01*
X0065256Y0552551D01*
X0065364Y0553014D01*
X0065483Y0553474D01*
X0065614Y0553932D01*
X0065755Y0554386D01*
X0065908Y0554837D01*
X0066071Y0555283D01*
X0066245Y0555726D01*
X0066430Y0556164D01*
X0066625Y0556598D01*
X0066831Y0557027D01*
X0067047Y0557451D01*
X0067273Y0557870D01*
X0067509Y0558283D01*
X0067755Y0558690D01*
X0068011Y0559091D01*
X0068277Y0559485D01*
X0068552Y0559874D01*
X0068836Y0560255D01*
X0069129Y0560629D01*
X0069431Y0560997D01*
X0069743Y0561357D01*
X0070062Y0561709D01*
X0070390Y0562053D01*
X0070727Y0562390D01*
X0071071Y0562718D01*
X0071423Y0563037D01*
X0071783Y0563349D01*
X0072151Y0563651D01*
X0072525Y0563944D01*
X0072906Y0564228D01*
X0073295Y0564503D01*
X0073689Y0564769D01*
X0074090Y0565025D01*
X0074497Y0565271D01*
X0074910Y0565507D01*
X0075329Y0565733D01*
X0075753Y0565949D01*
X0076182Y0566155D01*
X0076616Y0566350D01*
X0077054Y0566535D01*
X0077497Y0566709D01*
X0077943Y0566872D01*
X0078394Y0567025D01*
X0078848Y0567166D01*
X0079306Y0567297D01*
X0079766Y0567416D01*
X0080229Y0567524D01*
X0080695Y0567621D01*
X0081163Y0567707D01*
X0081633Y0567781D01*
X0082104Y0567844D01*
X0082577Y0567896D01*
X0083051Y0567936D01*
X0083526Y0567965D01*
X0084001Y0567982D01*
X0084477Y0567988D01*
X0077666Y0225469D02*
X0207410Y0225488D01*
X0221387Y0225449D02*
X0351131Y0225469D01*
D12*
X0350855Y0372063D02*
X0350855Y0381906D01*
X0322095Y0381886D02*
X0322095Y0372043D01*
D13*
X0340383Y0390823D02*
X0340859Y0390817D01*
X0341334Y0390800D01*
X0341809Y0390771D01*
X0342283Y0390731D01*
X0342756Y0390679D01*
X0343227Y0390616D01*
X0343697Y0390542D01*
X0344165Y0390456D01*
X0344631Y0390359D01*
X0345094Y0390251D01*
X0345554Y0390132D01*
X0346012Y0390001D01*
X0346466Y0389860D01*
X0346917Y0389707D01*
X0347363Y0389544D01*
X0347806Y0389370D01*
X0348244Y0389185D01*
X0348678Y0388990D01*
X0349107Y0388784D01*
X0349531Y0388568D01*
X0349950Y0388342D01*
X0350363Y0388106D01*
X0350770Y0387860D01*
X0351171Y0387604D01*
X0351565Y0387338D01*
X0351954Y0387063D01*
X0352335Y0386779D01*
X0352709Y0386486D01*
X0353077Y0386184D01*
X0353437Y0385872D01*
X0353789Y0385553D01*
X0354133Y0385225D01*
X0354470Y0384888D01*
X0354798Y0384544D01*
X0355117Y0384192D01*
X0355429Y0383832D01*
X0355731Y0383464D01*
X0356024Y0383090D01*
X0356308Y0382709D01*
X0356583Y0382320D01*
X0356849Y0381926D01*
X0357105Y0381525D01*
X0357351Y0381118D01*
X0357587Y0380705D01*
X0357813Y0380286D01*
X0358029Y0379862D01*
X0358235Y0379433D01*
X0358430Y0378999D01*
X0358615Y0378561D01*
X0358789Y0378118D01*
X0358952Y0377672D01*
X0359105Y0377221D01*
X0359246Y0376767D01*
X0359377Y0376309D01*
X0359496Y0375849D01*
X0359604Y0375386D01*
X0359701Y0374920D01*
X0359787Y0374452D01*
X0359861Y0373982D01*
X0359924Y0373511D01*
X0359976Y0373038D01*
X0360016Y0372564D01*
X0360045Y0372089D01*
X0360062Y0371614D01*
X0360068Y0371138D01*
X0340383Y0406571D02*
X0340859Y0406577D01*
X0341334Y0406594D01*
X0341809Y0406623D01*
X0342283Y0406663D01*
X0342756Y0406715D01*
X0343227Y0406778D01*
X0343697Y0406852D01*
X0344165Y0406938D01*
X0344631Y0407035D01*
X0345094Y0407143D01*
X0345554Y0407262D01*
X0346012Y0407393D01*
X0346466Y0407534D01*
X0346917Y0407687D01*
X0347363Y0407850D01*
X0347806Y0408024D01*
X0348244Y0408209D01*
X0348678Y0408404D01*
X0349107Y0408610D01*
X0349531Y0408826D01*
X0349950Y0409052D01*
X0350363Y0409288D01*
X0350770Y0409534D01*
X0351171Y0409790D01*
X0351565Y0410056D01*
X0351954Y0410331D01*
X0352335Y0410615D01*
X0352709Y0410908D01*
X0353077Y0411210D01*
X0353437Y0411522D01*
X0353789Y0411841D01*
X0354133Y0412169D01*
X0354470Y0412506D01*
X0354798Y0412850D01*
X0355117Y0413202D01*
X0355429Y0413562D01*
X0355731Y0413930D01*
X0356024Y0414304D01*
X0356308Y0414685D01*
X0356583Y0415074D01*
X0356849Y0415468D01*
X0357105Y0415869D01*
X0357351Y0416276D01*
X0357587Y0416689D01*
X0357813Y0417108D01*
X0358029Y0417532D01*
X0358235Y0417961D01*
X0358430Y0418395D01*
X0358615Y0418833D01*
X0358789Y0419276D01*
X0358952Y0419722D01*
X0359105Y0420173D01*
X0359246Y0420627D01*
X0359377Y0421085D01*
X0359496Y0421545D01*
X0359604Y0422008D01*
X0359701Y0422474D01*
X0359787Y0422942D01*
X0359861Y0423412D01*
X0359924Y0423883D01*
X0359976Y0424356D01*
X0360016Y0424830D01*
X0360045Y0425305D01*
X0360062Y0425780D01*
X0360068Y0426256D01*
X0360068Y0544366D02*
X0360062Y0544842D01*
X0360045Y0545317D01*
X0360016Y0545792D01*
X0359976Y0546266D01*
X0359924Y0546739D01*
X0359861Y0547210D01*
X0359787Y0547680D01*
X0359701Y0548148D01*
X0359604Y0548614D01*
X0359496Y0549077D01*
X0359377Y0549537D01*
X0359246Y0549995D01*
X0359105Y0550449D01*
X0358952Y0550900D01*
X0358789Y0551346D01*
X0358615Y0551789D01*
X0358430Y0552227D01*
X0358235Y0552661D01*
X0358029Y0553090D01*
X0357813Y0553514D01*
X0357587Y0553933D01*
X0357351Y0554346D01*
X0357105Y0554753D01*
X0356849Y0555154D01*
X0356583Y0555548D01*
X0356308Y0555937D01*
X0356024Y0556318D01*
X0355731Y0556692D01*
X0355429Y0557060D01*
X0355117Y0557420D01*
X0354798Y0557772D01*
X0354470Y0558116D01*
X0354133Y0558453D01*
X0353789Y0558781D01*
X0353437Y0559100D01*
X0353077Y0559412D01*
X0352709Y0559714D01*
X0352335Y0560007D01*
X0351954Y0560291D01*
X0351565Y0560566D01*
X0351171Y0560832D01*
X0350770Y0561088D01*
X0350363Y0561334D01*
X0349950Y0561570D01*
X0349531Y0561796D01*
X0349107Y0562012D01*
X0348678Y0562218D01*
X0348244Y0562413D01*
X0347806Y0562598D01*
X0347363Y0562772D01*
X0346917Y0562935D01*
X0346466Y0563088D01*
X0346012Y0563229D01*
X0345554Y0563360D01*
X0345094Y0563479D01*
X0344631Y0563587D01*
X0344165Y0563684D01*
X0343697Y0563770D01*
X0343227Y0563844D01*
X0342756Y0563907D01*
X0342283Y0563959D01*
X0341809Y0563999D01*
X0341334Y0564028D01*
X0340859Y0564045D01*
X0340383Y0564051D01*
X0088414Y0406571D02*
X0087938Y0406577D01*
X0087463Y0406594D01*
X0086988Y0406623D01*
X0086514Y0406663D01*
X0086041Y0406715D01*
X0085570Y0406778D01*
X0085100Y0406852D01*
X0084632Y0406938D01*
X0084166Y0407035D01*
X0083703Y0407143D01*
X0083243Y0407262D01*
X0082785Y0407393D01*
X0082331Y0407534D01*
X0081880Y0407687D01*
X0081434Y0407850D01*
X0080991Y0408024D01*
X0080553Y0408209D01*
X0080119Y0408404D01*
X0079690Y0408610D01*
X0079266Y0408826D01*
X0078847Y0409052D01*
X0078434Y0409288D01*
X0078027Y0409534D01*
X0077626Y0409790D01*
X0077232Y0410056D01*
X0076843Y0410331D01*
X0076462Y0410615D01*
X0076088Y0410908D01*
X0075720Y0411210D01*
X0075360Y0411522D01*
X0075008Y0411841D01*
X0074664Y0412169D01*
X0074327Y0412506D01*
X0073999Y0412850D01*
X0073680Y0413202D01*
X0073368Y0413562D01*
X0073066Y0413930D01*
X0072773Y0414304D01*
X0072489Y0414685D01*
X0072214Y0415074D01*
X0071948Y0415468D01*
X0071692Y0415869D01*
X0071446Y0416276D01*
X0071210Y0416689D01*
X0070984Y0417108D01*
X0070768Y0417532D01*
X0070562Y0417961D01*
X0070367Y0418395D01*
X0070182Y0418833D01*
X0070008Y0419276D01*
X0069845Y0419722D01*
X0069692Y0420173D01*
X0069551Y0420627D01*
X0069420Y0421085D01*
X0069301Y0421545D01*
X0069193Y0422008D01*
X0069096Y0422474D01*
X0069010Y0422942D01*
X0068936Y0423412D01*
X0068873Y0423883D01*
X0068821Y0424356D01*
X0068781Y0424830D01*
X0068752Y0425305D01*
X0068735Y0425780D01*
X0068729Y0426256D01*
X0088414Y0390823D02*
X0087938Y0390817D01*
X0087463Y0390800D01*
X0086988Y0390771D01*
X0086514Y0390731D01*
X0086041Y0390679D01*
X0085570Y0390616D01*
X0085100Y0390542D01*
X0084632Y0390456D01*
X0084166Y0390359D01*
X0083703Y0390251D01*
X0083243Y0390132D01*
X0082785Y0390001D01*
X0082331Y0389860D01*
X0081880Y0389707D01*
X0081434Y0389544D01*
X0080991Y0389370D01*
X0080553Y0389185D01*
X0080119Y0388990D01*
X0079690Y0388784D01*
X0079266Y0388568D01*
X0078847Y0388342D01*
X0078434Y0388106D01*
X0078027Y0387860D01*
X0077626Y0387604D01*
X0077232Y0387338D01*
X0076843Y0387063D01*
X0076462Y0386779D01*
X0076088Y0386486D01*
X0075720Y0386184D01*
X0075360Y0385872D01*
X0075008Y0385553D01*
X0074664Y0385225D01*
X0074327Y0384888D01*
X0073999Y0384544D01*
X0073680Y0384192D01*
X0073368Y0383832D01*
X0073066Y0383464D01*
X0072773Y0383090D01*
X0072489Y0382709D01*
X0072214Y0382320D01*
X0071948Y0381926D01*
X0071692Y0381525D01*
X0071446Y0381118D01*
X0071210Y0380705D01*
X0070984Y0380286D01*
X0070768Y0379862D01*
X0070562Y0379433D01*
X0070367Y0378999D01*
X0070182Y0378561D01*
X0070008Y0378118D01*
X0069845Y0377672D01*
X0069692Y0377221D01*
X0069551Y0376767D01*
X0069420Y0376309D01*
X0069301Y0375849D01*
X0069193Y0375386D01*
X0069096Y0374920D01*
X0069010Y0374452D01*
X0068936Y0373982D01*
X0068873Y0373511D01*
X0068821Y0373038D01*
X0068781Y0372564D01*
X0068752Y0372089D01*
X0068735Y0371614D01*
X0068729Y0371138D01*
X0068729Y0253028D02*
X0068735Y0252552D01*
X0068752Y0252077D01*
X0068781Y0251602D01*
X0068821Y0251128D01*
X0068873Y0250655D01*
X0068936Y0250184D01*
X0069010Y0249714D01*
X0069096Y0249246D01*
X0069193Y0248780D01*
X0069301Y0248317D01*
X0069420Y0247857D01*
X0069551Y0247399D01*
X0069692Y0246945D01*
X0069845Y0246494D01*
X0070008Y0246048D01*
X0070182Y0245605D01*
X0070367Y0245167D01*
X0070562Y0244733D01*
X0070768Y0244304D01*
X0070984Y0243880D01*
X0071210Y0243461D01*
X0071446Y0243048D01*
X0071692Y0242641D01*
X0071948Y0242240D01*
X0072214Y0241846D01*
X0072489Y0241457D01*
X0072773Y0241076D01*
X0073066Y0240702D01*
X0073368Y0240334D01*
X0073680Y0239974D01*
X0073999Y0239622D01*
X0074327Y0239278D01*
X0074664Y0238941D01*
X0075008Y0238613D01*
X0075360Y0238294D01*
X0075720Y0237982D01*
X0076088Y0237680D01*
X0076462Y0237387D01*
X0076843Y0237103D01*
X0077232Y0236828D01*
X0077626Y0236562D01*
X0078027Y0236306D01*
X0078434Y0236060D01*
X0078847Y0235824D01*
X0079266Y0235598D01*
X0079690Y0235382D01*
X0080119Y0235176D01*
X0080553Y0234981D01*
X0080991Y0234796D01*
X0081434Y0234622D01*
X0081880Y0234459D01*
X0082331Y0234306D01*
X0082785Y0234165D01*
X0083243Y0234034D01*
X0083703Y0233915D01*
X0084166Y0233807D01*
X0084632Y0233710D01*
X0085100Y0233624D01*
X0085570Y0233550D01*
X0086041Y0233487D01*
X0086514Y0233435D01*
X0086988Y0233395D01*
X0087463Y0233366D01*
X0087938Y0233349D01*
X0088414Y0233343D01*
X0088414Y0217594D02*
X0087938Y0217588D01*
X0087463Y0217571D01*
X0086988Y0217542D01*
X0086514Y0217502D01*
X0086041Y0217450D01*
X0085570Y0217387D01*
X0085100Y0217313D01*
X0084632Y0217227D01*
X0084166Y0217130D01*
X0083703Y0217022D01*
X0083243Y0216903D01*
X0082785Y0216772D01*
X0082331Y0216631D01*
X0081880Y0216478D01*
X0081434Y0216315D01*
X0080991Y0216141D01*
X0080553Y0215956D01*
X0080119Y0215761D01*
X0079690Y0215555D01*
X0079266Y0215339D01*
X0078847Y0215113D01*
X0078434Y0214877D01*
X0078027Y0214631D01*
X0077626Y0214375D01*
X0077232Y0214109D01*
X0076843Y0213834D01*
X0076462Y0213550D01*
X0076088Y0213257D01*
X0075720Y0212955D01*
X0075360Y0212643D01*
X0075008Y0212324D01*
X0074664Y0211996D01*
X0074327Y0211659D01*
X0073999Y0211315D01*
X0073680Y0210963D01*
X0073368Y0210603D01*
X0073066Y0210235D01*
X0072773Y0209861D01*
X0072489Y0209480D01*
X0072214Y0209091D01*
X0071948Y0208697D01*
X0071692Y0208296D01*
X0071446Y0207889D01*
X0071210Y0207476D01*
X0070984Y0207057D01*
X0070768Y0206633D01*
X0070562Y0206204D01*
X0070367Y0205770D01*
X0070182Y0205332D01*
X0070008Y0204889D01*
X0069845Y0204443D01*
X0069692Y0203992D01*
X0069551Y0203538D01*
X0069420Y0203080D01*
X0069301Y0202620D01*
X0069193Y0202157D01*
X0069096Y0201691D01*
X0069010Y0201223D01*
X0068936Y0200753D01*
X0068873Y0200282D01*
X0068821Y0199809D01*
X0068781Y0199335D01*
X0068752Y0198860D01*
X0068735Y0198385D01*
X0068729Y0197909D01*
X0068729Y0079799D02*
X0068735Y0079323D01*
X0068752Y0078848D01*
X0068781Y0078373D01*
X0068821Y0077899D01*
X0068873Y0077426D01*
X0068936Y0076955D01*
X0069010Y0076485D01*
X0069096Y0076017D01*
X0069193Y0075551D01*
X0069301Y0075088D01*
X0069420Y0074628D01*
X0069551Y0074170D01*
X0069692Y0073716D01*
X0069845Y0073265D01*
X0070008Y0072819D01*
X0070182Y0072376D01*
X0070367Y0071938D01*
X0070562Y0071504D01*
X0070768Y0071075D01*
X0070984Y0070651D01*
X0071210Y0070232D01*
X0071446Y0069819D01*
X0071692Y0069412D01*
X0071948Y0069011D01*
X0072214Y0068617D01*
X0072489Y0068228D01*
X0072773Y0067847D01*
X0073066Y0067473D01*
X0073368Y0067105D01*
X0073680Y0066745D01*
X0073999Y0066393D01*
X0074327Y0066049D01*
X0074664Y0065712D01*
X0075008Y0065384D01*
X0075360Y0065065D01*
X0075720Y0064753D01*
X0076088Y0064451D01*
X0076462Y0064158D01*
X0076843Y0063874D01*
X0077232Y0063599D01*
X0077626Y0063333D01*
X0078027Y0063077D01*
X0078434Y0062831D01*
X0078847Y0062595D01*
X0079266Y0062369D01*
X0079690Y0062153D01*
X0080119Y0061947D01*
X0080553Y0061752D01*
X0080991Y0061567D01*
X0081434Y0061393D01*
X0081880Y0061230D01*
X0082331Y0061077D01*
X0082785Y0060936D01*
X0083243Y0060805D01*
X0083703Y0060686D01*
X0084166Y0060578D01*
X0084632Y0060481D01*
X0085100Y0060395D01*
X0085570Y0060321D01*
X0086041Y0060258D01*
X0086514Y0060206D01*
X0086988Y0060166D01*
X0087463Y0060137D01*
X0087938Y0060120D01*
X0088414Y0060114D01*
X0340383Y0060114D02*
X0340859Y0060120D01*
X0341334Y0060137D01*
X0341809Y0060166D01*
X0342283Y0060206D01*
X0342756Y0060258D01*
X0343227Y0060321D01*
X0343697Y0060395D01*
X0344165Y0060481D01*
X0344631Y0060578D01*
X0345094Y0060686D01*
X0345554Y0060805D01*
X0346012Y0060936D01*
X0346466Y0061077D01*
X0346917Y0061230D01*
X0347363Y0061393D01*
X0347806Y0061567D01*
X0348244Y0061752D01*
X0348678Y0061947D01*
X0349107Y0062153D01*
X0349531Y0062369D01*
X0349950Y0062595D01*
X0350363Y0062831D01*
X0350770Y0063077D01*
X0351171Y0063333D01*
X0351565Y0063599D01*
X0351954Y0063874D01*
X0352335Y0064158D01*
X0352709Y0064451D01*
X0353077Y0064753D01*
X0353437Y0065065D01*
X0353789Y0065384D01*
X0354133Y0065712D01*
X0354470Y0066049D01*
X0354798Y0066393D01*
X0355117Y0066745D01*
X0355429Y0067105D01*
X0355731Y0067473D01*
X0356024Y0067847D01*
X0356308Y0068228D01*
X0356583Y0068617D01*
X0356849Y0069011D01*
X0357105Y0069412D01*
X0357351Y0069819D01*
X0357587Y0070232D01*
X0357813Y0070651D01*
X0358029Y0071075D01*
X0358235Y0071504D01*
X0358430Y0071938D01*
X0358615Y0072376D01*
X0358789Y0072819D01*
X0358952Y0073265D01*
X0359105Y0073716D01*
X0359246Y0074170D01*
X0359377Y0074628D01*
X0359496Y0075088D01*
X0359604Y0075551D01*
X0359701Y0076017D01*
X0359787Y0076485D01*
X0359861Y0076955D01*
X0359924Y0077426D01*
X0359976Y0077899D01*
X0360016Y0078373D01*
X0360045Y0078848D01*
X0360062Y0079323D01*
X0360068Y0079799D01*
X0360068Y0197909D02*
X0360062Y0198385D01*
X0360045Y0198860D01*
X0360016Y0199335D01*
X0359976Y0199809D01*
X0359924Y0200282D01*
X0359861Y0200753D01*
X0359787Y0201223D01*
X0359701Y0201691D01*
X0359604Y0202157D01*
X0359496Y0202620D01*
X0359377Y0203080D01*
X0359246Y0203538D01*
X0359105Y0203992D01*
X0358952Y0204443D01*
X0358789Y0204889D01*
X0358615Y0205332D01*
X0358430Y0205770D01*
X0358235Y0206204D01*
X0358029Y0206633D01*
X0357813Y0207057D01*
X0357587Y0207476D01*
X0357351Y0207889D01*
X0357105Y0208296D01*
X0356849Y0208697D01*
X0356583Y0209091D01*
X0356308Y0209480D01*
X0356024Y0209861D01*
X0355731Y0210235D01*
X0355429Y0210603D01*
X0355117Y0210963D01*
X0354798Y0211315D01*
X0354470Y0211659D01*
X0354133Y0211996D01*
X0353789Y0212324D01*
X0353437Y0212643D01*
X0353077Y0212955D01*
X0352709Y0213257D01*
X0352335Y0213550D01*
X0351954Y0213834D01*
X0351565Y0214109D01*
X0351171Y0214375D01*
X0350770Y0214631D01*
X0350363Y0214877D01*
X0349950Y0215113D01*
X0349531Y0215339D01*
X0349107Y0215555D01*
X0348678Y0215761D01*
X0348244Y0215956D01*
X0347806Y0216141D01*
X0347363Y0216315D01*
X0346917Y0216478D01*
X0346466Y0216631D01*
X0346012Y0216772D01*
X0345554Y0216903D01*
X0345094Y0217022D01*
X0344631Y0217130D01*
X0344165Y0217227D01*
X0343697Y0217313D01*
X0343227Y0217387D01*
X0342756Y0217450D01*
X0342283Y0217502D01*
X0341809Y0217542D01*
X0341334Y0217571D01*
X0340859Y0217588D01*
X0340383Y0217594D01*
X0340383Y0233343D02*
X0340859Y0233349D01*
X0341334Y0233366D01*
X0341809Y0233395D01*
X0342283Y0233435D01*
X0342756Y0233487D01*
X0343227Y0233550D01*
X0343697Y0233624D01*
X0344165Y0233710D01*
X0344631Y0233807D01*
X0345094Y0233915D01*
X0345554Y0234034D01*
X0346012Y0234165D01*
X0346466Y0234306D01*
X0346917Y0234459D01*
X0347363Y0234622D01*
X0347806Y0234796D01*
X0348244Y0234981D01*
X0348678Y0235176D01*
X0349107Y0235382D01*
X0349531Y0235598D01*
X0349950Y0235824D01*
X0350363Y0236060D01*
X0350770Y0236306D01*
X0351171Y0236562D01*
X0351565Y0236828D01*
X0351954Y0237103D01*
X0352335Y0237387D01*
X0352709Y0237680D01*
X0353077Y0237982D01*
X0353437Y0238294D01*
X0353789Y0238613D01*
X0354133Y0238941D01*
X0354470Y0239278D01*
X0354798Y0239622D01*
X0355117Y0239974D01*
X0355429Y0240334D01*
X0355731Y0240702D01*
X0356024Y0241076D01*
X0356308Y0241457D01*
X0356583Y0241846D01*
X0356849Y0242240D01*
X0357105Y0242641D01*
X0357351Y0243048D01*
X0357587Y0243461D01*
X0357813Y0243880D01*
X0358029Y0244304D01*
X0358235Y0244733D01*
X0358430Y0245167D01*
X0358615Y0245605D01*
X0358789Y0246048D01*
X0358952Y0246494D01*
X0359105Y0246945D01*
X0359246Y0247399D01*
X0359377Y0247857D01*
X0359496Y0248317D01*
X0359604Y0248780D01*
X0359701Y0249246D01*
X0359787Y0249714D01*
X0359861Y0250184D01*
X0359924Y0250655D01*
X0359976Y0251128D01*
X0360016Y0251602D01*
X0360045Y0252077D01*
X0360062Y0252552D01*
X0360068Y0253028D01*
X0021485Y0552240D02*
X0021009Y0552234D01*
X0020534Y0552217D01*
X0020059Y0552188D01*
X0019585Y0552148D01*
X0019112Y0552096D01*
X0018641Y0552033D01*
X0018171Y0551959D01*
X0017703Y0551873D01*
X0017237Y0551776D01*
X0016774Y0551668D01*
X0016314Y0551549D01*
X0015856Y0551418D01*
X0015402Y0551277D01*
X0014951Y0551124D01*
X0014505Y0550961D01*
X0014062Y0550787D01*
X0013624Y0550602D01*
X0013190Y0550407D01*
X0012761Y0550201D01*
X0012337Y0549985D01*
X0011918Y0549759D01*
X0011505Y0549523D01*
X0011098Y0549277D01*
X0010697Y0549021D01*
X0010303Y0548755D01*
X0009914Y0548480D01*
X0009533Y0548196D01*
X0009159Y0547903D01*
X0008791Y0547601D01*
X0008431Y0547289D01*
X0008079Y0546970D01*
X0007735Y0546642D01*
X0007398Y0546305D01*
X0007070Y0545961D01*
X0006751Y0545609D01*
X0006439Y0545249D01*
X0006137Y0544881D01*
X0005844Y0544507D01*
X0005560Y0544126D01*
X0005285Y0543737D01*
X0005019Y0543343D01*
X0004763Y0542942D01*
X0004517Y0542535D01*
X0004281Y0542122D01*
X0004055Y0541703D01*
X0003839Y0541279D01*
X0003633Y0540850D01*
X0003438Y0540416D01*
X0003253Y0539978D01*
X0003079Y0539535D01*
X0002916Y0539089D01*
X0002763Y0538638D01*
X0002622Y0538184D01*
X0002491Y0537726D01*
X0002372Y0537266D01*
X0002264Y0536803D01*
X0002167Y0536337D01*
X0002081Y0535869D01*
X0002007Y0535399D01*
X0001944Y0534928D01*
X0001892Y0534455D01*
X0001852Y0533981D01*
X0001823Y0533506D01*
X0001806Y0533031D01*
X0001800Y0532555D01*
D14*
X0321091Y0381768D02*
X0321091Y0372319D01*
X0322036Y0371295D02*
X0322098Y0371297D01*
X0322159Y0371302D01*
X0322221Y0371312D01*
X0322281Y0371325D01*
X0322341Y0371341D01*
X0322399Y0371362D01*
X0322456Y0371385D01*
X0322512Y0371412D01*
X0322566Y0371443D01*
X0322618Y0371476D01*
X0322668Y0371513D01*
X0322715Y0371553D01*
X0322760Y0371595D01*
X0322802Y0371640D01*
X0322842Y0371687D01*
X0322879Y0371737D01*
X0322912Y0371789D01*
X0322943Y0371843D01*
X0322970Y0371899D01*
X0322993Y0371956D01*
X0323014Y0372014D01*
X0323030Y0372074D01*
X0323043Y0372134D01*
X0323053Y0372196D01*
X0323058Y0372257D01*
X0323060Y0372319D01*
X0323060Y0381846D01*
X0323059Y0381846D02*
X0323055Y0381905D01*
X0323046Y0381964D01*
X0323034Y0382022D01*
X0323018Y0382079D01*
X0322998Y0382135D01*
X0322975Y0382190D01*
X0322948Y0382243D01*
X0322918Y0382294D01*
X0322885Y0382343D01*
X0322848Y0382389D01*
X0322809Y0382433D01*
X0322766Y0382475D01*
X0322721Y0382513D01*
X0322674Y0382549D01*
X0322624Y0382581D01*
X0322572Y0382611D01*
X0322519Y0382636D01*
X0322464Y0382658D01*
X0322408Y0382677D01*
X0322350Y0382691D01*
X0322292Y0382702D01*
X0322233Y0382710D01*
X0322174Y0382713D01*
X0322115Y0382712D01*
X0322115Y0382713D02*
X0322058Y0382722D01*
X0322001Y0382728D01*
X0321943Y0382729D01*
X0321885Y0382727D01*
X0321827Y0382720D01*
X0321770Y0382710D01*
X0321714Y0382696D01*
X0321659Y0382679D01*
X0321605Y0382657D01*
X0321553Y0382632D01*
X0321503Y0382604D01*
X0321454Y0382572D01*
X0321408Y0382538D01*
X0321364Y0382500D01*
X0321323Y0382459D01*
X0321284Y0382416D01*
X0321249Y0382370D01*
X0321217Y0382322D01*
X0321188Y0382272D01*
X0321162Y0382220D01*
X0321140Y0382166D01*
X0321122Y0382112D01*
X0321107Y0382056D01*
X0321096Y0381999D01*
X0321089Y0381941D01*
X0321086Y0381883D01*
X0321087Y0381826D01*
X0321091Y0381768D01*
X0321092Y0372319D02*
X0321091Y0372257D01*
X0321095Y0372196D01*
X0321102Y0372134D01*
X0321113Y0372073D01*
X0321128Y0372013D01*
X0321146Y0371954D01*
X0321169Y0371897D01*
X0321195Y0371840D01*
X0321224Y0371786D01*
X0321257Y0371733D01*
X0321293Y0371683D01*
X0321332Y0371635D01*
X0321374Y0371589D01*
X0321418Y0371547D01*
X0321466Y0371507D01*
X0321515Y0371470D01*
X0321567Y0371436D01*
X0321621Y0371406D01*
X0321677Y0371379D01*
X0321734Y0371356D01*
X0321793Y0371336D01*
X0321853Y0371321D01*
X0321914Y0371308D01*
X0321975Y0371300D01*
X0322037Y0371296D01*
X0349831Y0372319D02*
X0349831Y0381768D01*
X0350776Y0382792D02*
X0350838Y0382790D01*
X0350899Y0382785D01*
X0350961Y0382775D01*
X0351021Y0382762D01*
X0351081Y0382746D01*
X0351139Y0382725D01*
X0351196Y0382702D01*
X0351252Y0382675D01*
X0351306Y0382644D01*
X0351358Y0382611D01*
X0351408Y0382574D01*
X0351455Y0382534D01*
X0351500Y0382492D01*
X0351542Y0382447D01*
X0351582Y0382400D01*
X0351619Y0382350D01*
X0351652Y0382298D01*
X0351683Y0382244D01*
X0351710Y0382188D01*
X0351733Y0382131D01*
X0351754Y0382073D01*
X0351770Y0382013D01*
X0351783Y0381953D01*
X0351793Y0381891D01*
X0351798Y0381830D01*
X0351800Y0381768D01*
X0351800Y0372319D01*
X0350777Y0371296D02*
X0350715Y0371300D01*
X0350654Y0371308D01*
X0350593Y0371321D01*
X0350533Y0371336D01*
X0350474Y0371356D01*
X0350417Y0371379D01*
X0350361Y0371406D01*
X0350307Y0371436D01*
X0350255Y0371470D01*
X0350206Y0371507D01*
X0350158Y0371547D01*
X0350114Y0371589D01*
X0350072Y0371635D01*
X0350033Y0371683D01*
X0349997Y0371733D01*
X0349964Y0371786D01*
X0349935Y0371840D01*
X0349909Y0371897D01*
X0349886Y0371954D01*
X0349868Y0372013D01*
X0349853Y0372073D01*
X0349842Y0372134D01*
X0349835Y0372196D01*
X0349831Y0372257D01*
X0349832Y0372319D01*
X0350776Y0371295D02*
X0350838Y0371297D01*
X0350899Y0371302D01*
X0350961Y0371312D01*
X0351021Y0371325D01*
X0351081Y0371341D01*
X0351139Y0371362D01*
X0351196Y0371385D01*
X0351252Y0371412D01*
X0351306Y0371443D01*
X0351358Y0371476D01*
X0351408Y0371513D01*
X0351455Y0371553D01*
X0351500Y0371595D01*
X0351542Y0371640D01*
X0351582Y0371687D01*
X0351619Y0371737D01*
X0351652Y0371789D01*
X0351683Y0371843D01*
X0351710Y0371899D01*
X0351733Y0371956D01*
X0351754Y0372014D01*
X0351770Y0372074D01*
X0351783Y0372134D01*
X0351793Y0372196D01*
X0351798Y0372257D01*
X0351800Y0372319D01*
X0349832Y0381768D02*
X0349831Y0381830D01*
X0349835Y0381891D01*
X0349842Y0381953D01*
X0349853Y0382014D01*
X0349868Y0382074D01*
X0349886Y0382133D01*
X0349909Y0382190D01*
X0349935Y0382247D01*
X0349964Y0382301D01*
X0349997Y0382354D01*
X0350033Y0382404D01*
X0350072Y0382452D01*
X0350114Y0382498D01*
X0350158Y0382540D01*
X0350206Y0382580D01*
X0350255Y0382617D01*
X0350307Y0382651D01*
X0350361Y0382681D01*
X0350417Y0382708D01*
X0350474Y0382731D01*
X0350533Y0382751D01*
X0350593Y0382766D01*
X0350654Y0382779D01*
X0350715Y0382787D01*
X0350777Y0382791D01*
M02*
