G75*
%MOIN*%
%OFA0B0*%
%FSLAX25Y25*%
%IPPOS*%
%LPD*%
%AMOC8*
5,1,8,0,0,1.08239X$1,22.5*
%
%ADD10C,0.00000*%
%ADD11C,0.01000*%
%ADD12C,0.00984*%
%ADD13C,0.00300*%
%ADD14C,0.00200*%
%ADD15C,0.00500*%
%ADD16C,0.00600*%
%ADD17R,0.01000X0.10000*%
%ADD18C,0.00700*%
%ADD19C,0.00800*%
%ADD20C,0.05000*%
%ADD21C,0.00400*%
D10*
X0004954Y0005248D02*
X0296293Y0005248D01*
X0296293Y0603673D01*
X0004954Y0603673D01*
X0004915Y0603831D02*
X0004915Y0005406D01*
X0034481Y0024933D02*
X0034483Y0025086D01*
X0034489Y0025240D01*
X0034499Y0025393D01*
X0034513Y0025545D01*
X0034531Y0025698D01*
X0034553Y0025849D01*
X0034578Y0026000D01*
X0034608Y0026151D01*
X0034642Y0026301D01*
X0034679Y0026449D01*
X0034720Y0026597D01*
X0034765Y0026743D01*
X0034814Y0026889D01*
X0034867Y0027033D01*
X0034923Y0027175D01*
X0034983Y0027316D01*
X0035047Y0027456D01*
X0035114Y0027594D01*
X0035185Y0027730D01*
X0035260Y0027864D01*
X0035337Y0027996D01*
X0035419Y0028126D01*
X0035503Y0028254D01*
X0035591Y0028380D01*
X0035682Y0028503D01*
X0035776Y0028624D01*
X0035874Y0028742D01*
X0035974Y0028858D01*
X0036078Y0028971D01*
X0036184Y0029082D01*
X0036293Y0029190D01*
X0036405Y0029295D01*
X0036519Y0029396D01*
X0036637Y0029495D01*
X0036756Y0029591D01*
X0036878Y0029684D01*
X0037003Y0029773D01*
X0037130Y0029860D01*
X0037259Y0029942D01*
X0037390Y0030022D01*
X0037523Y0030098D01*
X0037658Y0030171D01*
X0037795Y0030240D01*
X0037934Y0030305D01*
X0038074Y0030367D01*
X0038216Y0030425D01*
X0038359Y0030480D01*
X0038504Y0030531D01*
X0038650Y0030578D01*
X0038797Y0030621D01*
X0038945Y0030660D01*
X0039094Y0030696D01*
X0039244Y0030727D01*
X0039395Y0030755D01*
X0039546Y0030779D01*
X0039699Y0030799D01*
X0039851Y0030815D01*
X0040004Y0030827D01*
X0040157Y0030835D01*
X0040310Y0030839D01*
X0040464Y0030839D01*
X0040617Y0030835D01*
X0040770Y0030827D01*
X0040923Y0030815D01*
X0041075Y0030799D01*
X0041228Y0030779D01*
X0041379Y0030755D01*
X0041530Y0030727D01*
X0041680Y0030696D01*
X0041829Y0030660D01*
X0041977Y0030621D01*
X0042124Y0030578D01*
X0042270Y0030531D01*
X0042415Y0030480D01*
X0042558Y0030425D01*
X0042700Y0030367D01*
X0042840Y0030305D01*
X0042979Y0030240D01*
X0043116Y0030171D01*
X0043251Y0030098D01*
X0043384Y0030022D01*
X0043515Y0029942D01*
X0043644Y0029860D01*
X0043771Y0029773D01*
X0043896Y0029684D01*
X0044018Y0029591D01*
X0044137Y0029495D01*
X0044255Y0029396D01*
X0044369Y0029295D01*
X0044481Y0029190D01*
X0044590Y0029082D01*
X0044696Y0028971D01*
X0044800Y0028858D01*
X0044900Y0028742D01*
X0044998Y0028624D01*
X0045092Y0028503D01*
X0045183Y0028380D01*
X0045271Y0028254D01*
X0045355Y0028126D01*
X0045437Y0027996D01*
X0045514Y0027864D01*
X0045589Y0027730D01*
X0045660Y0027594D01*
X0045727Y0027456D01*
X0045791Y0027316D01*
X0045851Y0027175D01*
X0045907Y0027033D01*
X0045960Y0026889D01*
X0046009Y0026743D01*
X0046054Y0026597D01*
X0046095Y0026449D01*
X0046132Y0026301D01*
X0046166Y0026151D01*
X0046196Y0026000D01*
X0046221Y0025849D01*
X0046243Y0025698D01*
X0046261Y0025545D01*
X0046275Y0025393D01*
X0046285Y0025240D01*
X0046291Y0025086D01*
X0046293Y0024933D01*
X0046291Y0024780D01*
X0046285Y0024626D01*
X0046275Y0024473D01*
X0046261Y0024321D01*
X0046243Y0024168D01*
X0046221Y0024017D01*
X0046196Y0023866D01*
X0046166Y0023715D01*
X0046132Y0023565D01*
X0046095Y0023417D01*
X0046054Y0023269D01*
X0046009Y0023123D01*
X0045960Y0022977D01*
X0045907Y0022833D01*
X0045851Y0022691D01*
X0045791Y0022550D01*
X0045727Y0022410D01*
X0045660Y0022272D01*
X0045589Y0022136D01*
X0045514Y0022002D01*
X0045437Y0021870D01*
X0045355Y0021740D01*
X0045271Y0021612D01*
X0045183Y0021486D01*
X0045092Y0021363D01*
X0044998Y0021242D01*
X0044900Y0021124D01*
X0044800Y0021008D01*
X0044696Y0020895D01*
X0044590Y0020784D01*
X0044481Y0020676D01*
X0044369Y0020571D01*
X0044255Y0020470D01*
X0044137Y0020371D01*
X0044018Y0020275D01*
X0043896Y0020182D01*
X0043771Y0020093D01*
X0043644Y0020006D01*
X0043515Y0019924D01*
X0043384Y0019844D01*
X0043251Y0019768D01*
X0043116Y0019695D01*
X0042979Y0019626D01*
X0042840Y0019561D01*
X0042700Y0019499D01*
X0042558Y0019441D01*
X0042415Y0019386D01*
X0042270Y0019335D01*
X0042124Y0019288D01*
X0041977Y0019245D01*
X0041829Y0019206D01*
X0041680Y0019170D01*
X0041530Y0019139D01*
X0041379Y0019111D01*
X0041228Y0019087D01*
X0041075Y0019067D01*
X0040923Y0019051D01*
X0040770Y0019039D01*
X0040617Y0019031D01*
X0040464Y0019027D01*
X0040310Y0019027D01*
X0040157Y0019031D01*
X0040004Y0019039D01*
X0039851Y0019051D01*
X0039699Y0019067D01*
X0039546Y0019087D01*
X0039395Y0019111D01*
X0039244Y0019139D01*
X0039094Y0019170D01*
X0038945Y0019206D01*
X0038797Y0019245D01*
X0038650Y0019288D01*
X0038504Y0019335D01*
X0038359Y0019386D01*
X0038216Y0019441D01*
X0038074Y0019499D01*
X0037934Y0019561D01*
X0037795Y0019626D01*
X0037658Y0019695D01*
X0037523Y0019768D01*
X0037390Y0019844D01*
X0037259Y0019924D01*
X0037130Y0020006D01*
X0037003Y0020093D01*
X0036878Y0020182D01*
X0036756Y0020275D01*
X0036637Y0020371D01*
X0036519Y0020470D01*
X0036405Y0020571D01*
X0036293Y0020676D01*
X0036184Y0020784D01*
X0036078Y0020895D01*
X0035974Y0021008D01*
X0035874Y0021124D01*
X0035776Y0021242D01*
X0035682Y0021363D01*
X0035591Y0021486D01*
X0035503Y0021612D01*
X0035419Y0021740D01*
X0035337Y0021870D01*
X0035260Y0022002D01*
X0035185Y0022136D01*
X0035114Y0022272D01*
X0035047Y0022410D01*
X0034983Y0022550D01*
X0034923Y0022691D01*
X0034867Y0022833D01*
X0034814Y0022977D01*
X0034765Y0023123D01*
X0034720Y0023269D01*
X0034679Y0023417D01*
X0034642Y0023565D01*
X0034608Y0023715D01*
X0034578Y0023866D01*
X0034553Y0024017D01*
X0034531Y0024168D01*
X0034513Y0024321D01*
X0034499Y0024473D01*
X0034489Y0024626D01*
X0034483Y0024780D01*
X0034481Y0024933D01*
X0034481Y0143043D02*
X0034483Y0143196D01*
X0034489Y0143350D01*
X0034499Y0143503D01*
X0034513Y0143655D01*
X0034531Y0143808D01*
X0034553Y0143959D01*
X0034578Y0144110D01*
X0034608Y0144261D01*
X0034642Y0144411D01*
X0034679Y0144559D01*
X0034720Y0144707D01*
X0034765Y0144853D01*
X0034814Y0144999D01*
X0034867Y0145143D01*
X0034923Y0145285D01*
X0034983Y0145426D01*
X0035047Y0145566D01*
X0035114Y0145704D01*
X0035185Y0145840D01*
X0035260Y0145974D01*
X0035337Y0146106D01*
X0035419Y0146236D01*
X0035503Y0146364D01*
X0035591Y0146490D01*
X0035682Y0146613D01*
X0035776Y0146734D01*
X0035874Y0146852D01*
X0035974Y0146968D01*
X0036078Y0147081D01*
X0036184Y0147192D01*
X0036293Y0147300D01*
X0036405Y0147405D01*
X0036519Y0147506D01*
X0036637Y0147605D01*
X0036756Y0147701D01*
X0036878Y0147794D01*
X0037003Y0147883D01*
X0037130Y0147970D01*
X0037259Y0148052D01*
X0037390Y0148132D01*
X0037523Y0148208D01*
X0037658Y0148281D01*
X0037795Y0148350D01*
X0037934Y0148415D01*
X0038074Y0148477D01*
X0038216Y0148535D01*
X0038359Y0148590D01*
X0038504Y0148641D01*
X0038650Y0148688D01*
X0038797Y0148731D01*
X0038945Y0148770D01*
X0039094Y0148806D01*
X0039244Y0148837D01*
X0039395Y0148865D01*
X0039546Y0148889D01*
X0039699Y0148909D01*
X0039851Y0148925D01*
X0040004Y0148937D01*
X0040157Y0148945D01*
X0040310Y0148949D01*
X0040464Y0148949D01*
X0040617Y0148945D01*
X0040770Y0148937D01*
X0040923Y0148925D01*
X0041075Y0148909D01*
X0041228Y0148889D01*
X0041379Y0148865D01*
X0041530Y0148837D01*
X0041680Y0148806D01*
X0041829Y0148770D01*
X0041977Y0148731D01*
X0042124Y0148688D01*
X0042270Y0148641D01*
X0042415Y0148590D01*
X0042558Y0148535D01*
X0042700Y0148477D01*
X0042840Y0148415D01*
X0042979Y0148350D01*
X0043116Y0148281D01*
X0043251Y0148208D01*
X0043384Y0148132D01*
X0043515Y0148052D01*
X0043644Y0147970D01*
X0043771Y0147883D01*
X0043896Y0147794D01*
X0044018Y0147701D01*
X0044137Y0147605D01*
X0044255Y0147506D01*
X0044369Y0147405D01*
X0044481Y0147300D01*
X0044590Y0147192D01*
X0044696Y0147081D01*
X0044800Y0146968D01*
X0044900Y0146852D01*
X0044998Y0146734D01*
X0045092Y0146613D01*
X0045183Y0146490D01*
X0045271Y0146364D01*
X0045355Y0146236D01*
X0045437Y0146106D01*
X0045514Y0145974D01*
X0045589Y0145840D01*
X0045660Y0145704D01*
X0045727Y0145566D01*
X0045791Y0145426D01*
X0045851Y0145285D01*
X0045907Y0145143D01*
X0045960Y0144999D01*
X0046009Y0144853D01*
X0046054Y0144707D01*
X0046095Y0144559D01*
X0046132Y0144411D01*
X0046166Y0144261D01*
X0046196Y0144110D01*
X0046221Y0143959D01*
X0046243Y0143808D01*
X0046261Y0143655D01*
X0046275Y0143503D01*
X0046285Y0143350D01*
X0046291Y0143196D01*
X0046293Y0143043D01*
X0046291Y0142890D01*
X0046285Y0142736D01*
X0046275Y0142583D01*
X0046261Y0142431D01*
X0046243Y0142278D01*
X0046221Y0142127D01*
X0046196Y0141976D01*
X0046166Y0141825D01*
X0046132Y0141675D01*
X0046095Y0141527D01*
X0046054Y0141379D01*
X0046009Y0141233D01*
X0045960Y0141087D01*
X0045907Y0140943D01*
X0045851Y0140801D01*
X0045791Y0140660D01*
X0045727Y0140520D01*
X0045660Y0140382D01*
X0045589Y0140246D01*
X0045514Y0140112D01*
X0045437Y0139980D01*
X0045355Y0139850D01*
X0045271Y0139722D01*
X0045183Y0139596D01*
X0045092Y0139473D01*
X0044998Y0139352D01*
X0044900Y0139234D01*
X0044800Y0139118D01*
X0044696Y0139005D01*
X0044590Y0138894D01*
X0044481Y0138786D01*
X0044369Y0138681D01*
X0044255Y0138580D01*
X0044137Y0138481D01*
X0044018Y0138385D01*
X0043896Y0138292D01*
X0043771Y0138203D01*
X0043644Y0138116D01*
X0043515Y0138034D01*
X0043384Y0137954D01*
X0043251Y0137878D01*
X0043116Y0137805D01*
X0042979Y0137736D01*
X0042840Y0137671D01*
X0042700Y0137609D01*
X0042558Y0137551D01*
X0042415Y0137496D01*
X0042270Y0137445D01*
X0042124Y0137398D01*
X0041977Y0137355D01*
X0041829Y0137316D01*
X0041680Y0137280D01*
X0041530Y0137249D01*
X0041379Y0137221D01*
X0041228Y0137197D01*
X0041075Y0137177D01*
X0040923Y0137161D01*
X0040770Y0137149D01*
X0040617Y0137141D01*
X0040464Y0137137D01*
X0040310Y0137137D01*
X0040157Y0137141D01*
X0040004Y0137149D01*
X0039851Y0137161D01*
X0039699Y0137177D01*
X0039546Y0137197D01*
X0039395Y0137221D01*
X0039244Y0137249D01*
X0039094Y0137280D01*
X0038945Y0137316D01*
X0038797Y0137355D01*
X0038650Y0137398D01*
X0038504Y0137445D01*
X0038359Y0137496D01*
X0038216Y0137551D01*
X0038074Y0137609D01*
X0037934Y0137671D01*
X0037795Y0137736D01*
X0037658Y0137805D01*
X0037523Y0137878D01*
X0037390Y0137954D01*
X0037259Y0138034D01*
X0037130Y0138116D01*
X0037003Y0138203D01*
X0036878Y0138292D01*
X0036756Y0138385D01*
X0036637Y0138481D01*
X0036519Y0138580D01*
X0036405Y0138681D01*
X0036293Y0138786D01*
X0036184Y0138894D01*
X0036078Y0139005D01*
X0035974Y0139118D01*
X0035874Y0139234D01*
X0035776Y0139352D01*
X0035682Y0139473D01*
X0035591Y0139596D01*
X0035503Y0139722D01*
X0035419Y0139850D01*
X0035337Y0139980D01*
X0035260Y0140112D01*
X0035185Y0140246D01*
X0035114Y0140382D01*
X0035047Y0140520D01*
X0034983Y0140660D01*
X0034923Y0140801D01*
X0034867Y0140943D01*
X0034814Y0141087D01*
X0034765Y0141233D01*
X0034720Y0141379D01*
X0034679Y0141527D01*
X0034642Y0141675D01*
X0034608Y0141825D01*
X0034578Y0141976D01*
X0034553Y0142127D01*
X0034531Y0142278D01*
X0034513Y0142431D01*
X0034499Y0142583D01*
X0034489Y0142736D01*
X0034483Y0142890D01*
X0034481Y0143043D01*
X0004954Y0178476D02*
X0004954Y0335957D01*
X0018812Y0191823D02*
X0018814Y0191948D01*
X0018820Y0192073D01*
X0018830Y0192197D01*
X0018844Y0192321D01*
X0018861Y0192445D01*
X0018883Y0192568D01*
X0018909Y0192690D01*
X0018938Y0192812D01*
X0018971Y0192932D01*
X0019009Y0193051D01*
X0019049Y0193170D01*
X0019094Y0193286D01*
X0019142Y0193401D01*
X0019194Y0193515D01*
X0019250Y0193627D01*
X0019309Y0193737D01*
X0019371Y0193845D01*
X0019437Y0193952D01*
X0019506Y0194056D01*
X0019579Y0194157D01*
X0019654Y0194257D01*
X0019733Y0194354D01*
X0019815Y0194448D01*
X0019900Y0194540D01*
X0019987Y0194629D01*
X0020078Y0194715D01*
X0020171Y0194798D01*
X0020267Y0194879D01*
X0020365Y0194956D01*
X0020465Y0195030D01*
X0020568Y0195101D01*
X0020673Y0195168D01*
X0020781Y0195233D01*
X0020890Y0195293D01*
X0021001Y0195351D01*
X0021114Y0195404D01*
X0021228Y0195454D01*
X0021344Y0195501D01*
X0021461Y0195543D01*
X0021580Y0195582D01*
X0021700Y0195618D01*
X0021821Y0195649D01*
X0021943Y0195677D01*
X0022065Y0195700D01*
X0022189Y0195720D01*
X0022313Y0195736D01*
X0022437Y0195748D01*
X0022562Y0195756D01*
X0022687Y0195760D01*
X0022811Y0195760D01*
X0022936Y0195756D01*
X0023061Y0195748D01*
X0023185Y0195736D01*
X0023309Y0195720D01*
X0023433Y0195700D01*
X0023555Y0195677D01*
X0023677Y0195649D01*
X0023798Y0195618D01*
X0023918Y0195582D01*
X0024037Y0195543D01*
X0024154Y0195501D01*
X0024270Y0195454D01*
X0024384Y0195404D01*
X0024497Y0195351D01*
X0024608Y0195293D01*
X0024718Y0195233D01*
X0024825Y0195168D01*
X0024930Y0195101D01*
X0025033Y0195030D01*
X0025133Y0194956D01*
X0025231Y0194879D01*
X0025327Y0194798D01*
X0025420Y0194715D01*
X0025511Y0194629D01*
X0025598Y0194540D01*
X0025683Y0194448D01*
X0025765Y0194354D01*
X0025844Y0194257D01*
X0025919Y0194157D01*
X0025992Y0194056D01*
X0026061Y0193952D01*
X0026127Y0193845D01*
X0026189Y0193737D01*
X0026248Y0193627D01*
X0026304Y0193515D01*
X0026356Y0193401D01*
X0026404Y0193286D01*
X0026449Y0193170D01*
X0026489Y0193051D01*
X0026527Y0192932D01*
X0026560Y0192812D01*
X0026589Y0192690D01*
X0026615Y0192568D01*
X0026637Y0192445D01*
X0026654Y0192321D01*
X0026668Y0192197D01*
X0026678Y0192073D01*
X0026684Y0191948D01*
X0026686Y0191823D01*
X0026684Y0191698D01*
X0026678Y0191573D01*
X0026668Y0191449D01*
X0026654Y0191325D01*
X0026637Y0191201D01*
X0026615Y0191078D01*
X0026589Y0190956D01*
X0026560Y0190834D01*
X0026527Y0190714D01*
X0026489Y0190595D01*
X0026449Y0190476D01*
X0026404Y0190360D01*
X0026356Y0190245D01*
X0026304Y0190131D01*
X0026248Y0190019D01*
X0026189Y0189909D01*
X0026127Y0189801D01*
X0026061Y0189694D01*
X0025992Y0189590D01*
X0025919Y0189489D01*
X0025844Y0189389D01*
X0025765Y0189292D01*
X0025683Y0189198D01*
X0025598Y0189106D01*
X0025511Y0189017D01*
X0025420Y0188931D01*
X0025327Y0188848D01*
X0025231Y0188767D01*
X0025133Y0188690D01*
X0025033Y0188616D01*
X0024930Y0188545D01*
X0024825Y0188478D01*
X0024717Y0188413D01*
X0024608Y0188353D01*
X0024497Y0188295D01*
X0024384Y0188242D01*
X0024270Y0188192D01*
X0024154Y0188145D01*
X0024037Y0188103D01*
X0023918Y0188064D01*
X0023798Y0188028D01*
X0023677Y0187997D01*
X0023555Y0187969D01*
X0023433Y0187946D01*
X0023309Y0187926D01*
X0023185Y0187910D01*
X0023061Y0187898D01*
X0022936Y0187890D01*
X0022811Y0187886D01*
X0022687Y0187886D01*
X0022562Y0187890D01*
X0022437Y0187898D01*
X0022313Y0187910D01*
X0022189Y0187926D01*
X0022065Y0187946D01*
X0021943Y0187969D01*
X0021821Y0187997D01*
X0021700Y0188028D01*
X0021580Y0188064D01*
X0021461Y0188103D01*
X0021344Y0188145D01*
X0021228Y0188192D01*
X0021114Y0188242D01*
X0021001Y0188295D01*
X0020890Y0188353D01*
X0020780Y0188413D01*
X0020673Y0188478D01*
X0020568Y0188545D01*
X0020465Y0188616D01*
X0020365Y0188690D01*
X0020267Y0188767D01*
X0020171Y0188848D01*
X0020078Y0188931D01*
X0019987Y0189017D01*
X0019900Y0189106D01*
X0019815Y0189198D01*
X0019733Y0189292D01*
X0019654Y0189389D01*
X0019579Y0189489D01*
X0019506Y0189590D01*
X0019437Y0189694D01*
X0019371Y0189801D01*
X0019309Y0189909D01*
X0019250Y0190019D01*
X0019194Y0190131D01*
X0019142Y0190245D01*
X0019094Y0190360D01*
X0019049Y0190476D01*
X0019009Y0190595D01*
X0018971Y0190714D01*
X0018938Y0190834D01*
X0018909Y0190956D01*
X0018883Y0191078D01*
X0018861Y0191201D01*
X0018844Y0191325D01*
X0018830Y0191449D01*
X0018820Y0191573D01*
X0018814Y0191698D01*
X0018812Y0191823D01*
X0245629Y0244053D02*
X0245631Y0244144D01*
X0245637Y0244234D01*
X0245647Y0244325D01*
X0245661Y0244414D01*
X0245679Y0244503D01*
X0245700Y0244592D01*
X0245726Y0244679D01*
X0245755Y0244765D01*
X0245789Y0244849D01*
X0245825Y0244932D01*
X0245866Y0245014D01*
X0245910Y0245093D01*
X0245957Y0245171D01*
X0246008Y0245246D01*
X0246062Y0245319D01*
X0246119Y0245389D01*
X0246179Y0245457D01*
X0246242Y0245523D01*
X0246308Y0245585D01*
X0246377Y0245644D01*
X0246448Y0245701D01*
X0246522Y0245754D01*
X0246598Y0245804D01*
X0246676Y0245851D01*
X0246756Y0245894D01*
X0246837Y0245933D01*
X0246921Y0245969D01*
X0247006Y0246001D01*
X0247092Y0246030D01*
X0247179Y0246054D01*
X0247268Y0246075D01*
X0247357Y0246092D01*
X0247447Y0246105D01*
X0247537Y0246114D01*
X0247628Y0246119D01*
X0247719Y0246120D01*
X0247809Y0246117D01*
X0247900Y0246110D01*
X0247990Y0246099D01*
X0248080Y0246084D01*
X0248169Y0246065D01*
X0248257Y0246043D01*
X0248343Y0246016D01*
X0248429Y0245986D01*
X0248513Y0245952D01*
X0248596Y0245914D01*
X0248677Y0245873D01*
X0248756Y0245828D01*
X0248833Y0245779D01*
X0248907Y0245728D01*
X0248980Y0245673D01*
X0249050Y0245615D01*
X0249117Y0245554D01*
X0249181Y0245490D01*
X0249243Y0245424D01*
X0249302Y0245354D01*
X0249357Y0245283D01*
X0249410Y0245208D01*
X0249459Y0245132D01*
X0249505Y0245054D01*
X0249547Y0244973D01*
X0249586Y0244891D01*
X0249621Y0244807D01*
X0249652Y0244722D01*
X0249679Y0244635D01*
X0249703Y0244548D01*
X0249723Y0244459D01*
X0249739Y0244370D01*
X0249751Y0244280D01*
X0249759Y0244189D01*
X0249763Y0244098D01*
X0249763Y0244008D01*
X0249759Y0243917D01*
X0249751Y0243826D01*
X0249739Y0243736D01*
X0249723Y0243647D01*
X0249703Y0243558D01*
X0249679Y0243471D01*
X0249652Y0243384D01*
X0249621Y0243299D01*
X0249586Y0243215D01*
X0249547Y0243133D01*
X0249505Y0243052D01*
X0249459Y0242974D01*
X0249410Y0242898D01*
X0249357Y0242823D01*
X0249302Y0242752D01*
X0249243Y0242682D01*
X0249181Y0242616D01*
X0249117Y0242552D01*
X0249050Y0242491D01*
X0248980Y0242433D01*
X0248907Y0242378D01*
X0248833Y0242327D01*
X0248756Y0242278D01*
X0248677Y0242233D01*
X0248596Y0242192D01*
X0248513Y0242154D01*
X0248429Y0242120D01*
X0248343Y0242090D01*
X0248257Y0242063D01*
X0248169Y0242041D01*
X0248080Y0242022D01*
X0247990Y0242007D01*
X0247900Y0241996D01*
X0247809Y0241989D01*
X0247719Y0241986D01*
X0247628Y0241987D01*
X0247537Y0241992D01*
X0247447Y0242001D01*
X0247357Y0242014D01*
X0247268Y0242031D01*
X0247179Y0242052D01*
X0247092Y0242076D01*
X0247006Y0242105D01*
X0246921Y0242137D01*
X0246837Y0242173D01*
X0246756Y0242212D01*
X0246676Y0242255D01*
X0246598Y0242302D01*
X0246522Y0242352D01*
X0246448Y0242405D01*
X0246377Y0242462D01*
X0246308Y0242521D01*
X0246242Y0242583D01*
X0246179Y0242649D01*
X0246119Y0242717D01*
X0246062Y0242787D01*
X0246008Y0242860D01*
X0245957Y0242935D01*
X0245910Y0243013D01*
X0245866Y0243092D01*
X0245825Y0243174D01*
X0245789Y0243257D01*
X0245755Y0243341D01*
X0245726Y0243427D01*
X0245700Y0243514D01*
X0245679Y0243603D01*
X0245661Y0243692D01*
X0245647Y0243781D01*
X0245637Y0243872D01*
X0245631Y0243962D01*
X0245629Y0244053D01*
X0256799Y0254632D02*
X0256801Y0254709D01*
X0256807Y0254785D01*
X0256817Y0254861D01*
X0256831Y0254936D01*
X0256848Y0255011D01*
X0256870Y0255084D01*
X0256895Y0255157D01*
X0256925Y0255228D01*
X0256957Y0255297D01*
X0256994Y0255364D01*
X0257033Y0255430D01*
X0257076Y0255493D01*
X0257123Y0255554D01*
X0257172Y0255613D01*
X0257225Y0255669D01*
X0257280Y0255722D01*
X0257338Y0255772D01*
X0257398Y0255819D01*
X0257461Y0255863D01*
X0257526Y0255904D01*
X0257593Y0255941D01*
X0257662Y0255975D01*
X0257732Y0256005D01*
X0257804Y0256031D01*
X0257878Y0256053D01*
X0257952Y0256072D01*
X0258027Y0256087D01*
X0258103Y0256098D01*
X0258179Y0256105D01*
X0258256Y0256108D01*
X0258332Y0256107D01*
X0258409Y0256102D01*
X0258485Y0256093D01*
X0258561Y0256080D01*
X0258635Y0256063D01*
X0258709Y0256043D01*
X0258782Y0256018D01*
X0258853Y0255990D01*
X0258923Y0255958D01*
X0258991Y0255923D01*
X0259057Y0255884D01*
X0259121Y0255842D01*
X0259182Y0255796D01*
X0259242Y0255747D01*
X0259298Y0255696D01*
X0259352Y0255641D01*
X0259403Y0255584D01*
X0259451Y0255524D01*
X0259496Y0255462D01*
X0259537Y0255397D01*
X0259575Y0255331D01*
X0259610Y0255263D01*
X0259640Y0255192D01*
X0259668Y0255121D01*
X0259691Y0255048D01*
X0259711Y0254974D01*
X0259727Y0254899D01*
X0259739Y0254823D01*
X0259747Y0254747D01*
X0259751Y0254670D01*
X0259751Y0254594D01*
X0259747Y0254517D01*
X0259739Y0254441D01*
X0259727Y0254365D01*
X0259711Y0254290D01*
X0259691Y0254216D01*
X0259668Y0254143D01*
X0259640Y0254072D01*
X0259610Y0254001D01*
X0259575Y0253933D01*
X0259537Y0253867D01*
X0259496Y0253802D01*
X0259451Y0253740D01*
X0259403Y0253680D01*
X0259352Y0253623D01*
X0259298Y0253568D01*
X0259242Y0253517D01*
X0259182Y0253468D01*
X0259121Y0253422D01*
X0259057Y0253380D01*
X0258991Y0253341D01*
X0258923Y0253306D01*
X0258853Y0253274D01*
X0258782Y0253246D01*
X0258709Y0253221D01*
X0258635Y0253201D01*
X0258561Y0253184D01*
X0258485Y0253171D01*
X0258409Y0253162D01*
X0258332Y0253157D01*
X0258256Y0253156D01*
X0258179Y0253159D01*
X0258103Y0253166D01*
X0258027Y0253177D01*
X0257952Y0253192D01*
X0257878Y0253211D01*
X0257804Y0253233D01*
X0257732Y0253259D01*
X0257662Y0253289D01*
X0257593Y0253323D01*
X0257526Y0253360D01*
X0257461Y0253401D01*
X0257398Y0253445D01*
X0257338Y0253492D01*
X0257280Y0253542D01*
X0257225Y0253595D01*
X0257172Y0253651D01*
X0257123Y0253710D01*
X0257076Y0253771D01*
X0257033Y0253834D01*
X0256994Y0253900D01*
X0256957Y0253967D01*
X0256925Y0254036D01*
X0256895Y0254107D01*
X0256870Y0254180D01*
X0256848Y0254253D01*
X0256831Y0254328D01*
X0256817Y0254403D01*
X0256807Y0254479D01*
X0256801Y0254555D01*
X0256799Y0254632D01*
X0296293Y0178476D02*
X0296293Y0335957D01*
X0296253Y0351862D02*
X0296253Y0509343D01*
X0119127Y0536744D02*
X0119129Y0536869D01*
X0119135Y0536994D01*
X0119145Y0537118D01*
X0119159Y0537242D01*
X0119176Y0537366D01*
X0119198Y0537489D01*
X0119224Y0537611D01*
X0119253Y0537733D01*
X0119286Y0537853D01*
X0119324Y0537972D01*
X0119364Y0538091D01*
X0119409Y0538207D01*
X0119457Y0538322D01*
X0119509Y0538436D01*
X0119565Y0538548D01*
X0119624Y0538658D01*
X0119686Y0538766D01*
X0119752Y0538873D01*
X0119821Y0538977D01*
X0119894Y0539078D01*
X0119969Y0539178D01*
X0120048Y0539275D01*
X0120130Y0539369D01*
X0120215Y0539461D01*
X0120302Y0539550D01*
X0120393Y0539636D01*
X0120486Y0539719D01*
X0120582Y0539800D01*
X0120680Y0539877D01*
X0120780Y0539951D01*
X0120883Y0540022D01*
X0120988Y0540089D01*
X0121096Y0540154D01*
X0121205Y0540214D01*
X0121316Y0540272D01*
X0121429Y0540325D01*
X0121543Y0540375D01*
X0121659Y0540422D01*
X0121776Y0540464D01*
X0121895Y0540503D01*
X0122015Y0540539D01*
X0122136Y0540570D01*
X0122258Y0540598D01*
X0122380Y0540621D01*
X0122504Y0540641D01*
X0122628Y0540657D01*
X0122752Y0540669D01*
X0122877Y0540677D01*
X0123002Y0540681D01*
X0123126Y0540681D01*
X0123251Y0540677D01*
X0123376Y0540669D01*
X0123500Y0540657D01*
X0123624Y0540641D01*
X0123748Y0540621D01*
X0123870Y0540598D01*
X0123992Y0540570D01*
X0124113Y0540539D01*
X0124233Y0540503D01*
X0124352Y0540464D01*
X0124469Y0540422D01*
X0124585Y0540375D01*
X0124699Y0540325D01*
X0124812Y0540272D01*
X0124923Y0540214D01*
X0125033Y0540154D01*
X0125140Y0540089D01*
X0125245Y0540022D01*
X0125348Y0539951D01*
X0125448Y0539877D01*
X0125546Y0539800D01*
X0125642Y0539719D01*
X0125735Y0539636D01*
X0125826Y0539550D01*
X0125913Y0539461D01*
X0125998Y0539369D01*
X0126080Y0539275D01*
X0126159Y0539178D01*
X0126234Y0539078D01*
X0126307Y0538977D01*
X0126376Y0538873D01*
X0126442Y0538766D01*
X0126504Y0538658D01*
X0126563Y0538548D01*
X0126619Y0538436D01*
X0126671Y0538322D01*
X0126719Y0538207D01*
X0126764Y0538091D01*
X0126804Y0537972D01*
X0126842Y0537853D01*
X0126875Y0537733D01*
X0126904Y0537611D01*
X0126930Y0537489D01*
X0126952Y0537366D01*
X0126969Y0537242D01*
X0126983Y0537118D01*
X0126993Y0536994D01*
X0126999Y0536869D01*
X0127001Y0536744D01*
X0126999Y0536619D01*
X0126993Y0536494D01*
X0126983Y0536370D01*
X0126969Y0536246D01*
X0126952Y0536122D01*
X0126930Y0535999D01*
X0126904Y0535877D01*
X0126875Y0535755D01*
X0126842Y0535635D01*
X0126804Y0535516D01*
X0126764Y0535397D01*
X0126719Y0535281D01*
X0126671Y0535166D01*
X0126619Y0535052D01*
X0126563Y0534940D01*
X0126504Y0534830D01*
X0126442Y0534722D01*
X0126376Y0534615D01*
X0126307Y0534511D01*
X0126234Y0534410D01*
X0126159Y0534310D01*
X0126080Y0534213D01*
X0125998Y0534119D01*
X0125913Y0534027D01*
X0125826Y0533938D01*
X0125735Y0533852D01*
X0125642Y0533769D01*
X0125546Y0533688D01*
X0125448Y0533611D01*
X0125348Y0533537D01*
X0125245Y0533466D01*
X0125140Y0533399D01*
X0125032Y0533334D01*
X0124923Y0533274D01*
X0124812Y0533216D01*
X0124699Y0533163D01*
X0124585Y0533113D01*
X0124469Y0533066D01*
X0124352Y0533024D01*
X0124233Y0532985D01*
X0124113Y0532949D01*
X0123992Y0532918D01*
X0123870Y0532890D01*
X0123748Y0532867D01*
X0123624Y0532847D01*
X0123500Y0532831D01*
X0123376Y0532819D01*
X0123251Y0532811D01*
X0123126Y0532807D01*
X0123002Y0532807D01*
X0122877Y0532811D01*
X0122752Y0532819D01*
X0122628Y0532831D01*
X0122504Y0532847D01*
X0122380Y0532867D01*
X0122258Y0532890D01*
X0122136Y0532918D01*
X0122015Y0532949D01*
X0121895Y0532985D01*
X0121776Y0533024D01*
X0121659Y0533066D01*
X0121543Y0533113D01*
X0121429Y0533163D01*
X0121316Y0533216D01*
X0121205Y0533274D01*
X0121095Y0533334D01*
X0120988Y0533399D01*
X0120883Y0533466D01*
X0120780Y0533537D01*
X0120680Y0533611D01*
X0120582Y0533688D01*
X0120486Y0533769D01*
X0120393Y0533852D01*
X0120302Y0533938D01*
X0120215Y0534027D01*
X0120130Y0534119D01*
X0120048Y0534213D01*
X0119969Y0534310D01*
X0119894Y0534410D01*
X0119821Y0534511D01*
X0119752Y0534615D01*
X0119686Y0534722D01*
X0119624Y0534830D01*
X0119565Y0534940D01*
X0119509Y0535052D01*
X0119457Y0535166D01*
X0119409Y0535281D01*
X0119364Y0535397D01*
X0119324Y0535516D01*
X0119286Y0535635D01*
X0119253Y0535755D01*
X0119224Y0535877D01*
X0119198Y0535999D01*
X0119176Y0536122D01*
X0119159Y0536246D01*
X0119145Y0536370D01*
X0119135Y0536494D01*
X0119129Y0536619D01*
X0119127Y0536744D01*
X0119127Y0591862D02*
X0119129Y0591987D01*
X0119135Y0592112D01*
X0119145Y0592236D01*
X0119159Y0592360D01*
X0119176Y0592484D01*
X0119198Y0592607D01*
X0119224Y0592729D01*
X0119253Y0592851D01*
X0119286Y0592971D01*
X0119324Y0593090D01*
X0119364Y0593209D01*
X0119409Y0593325D01*
X0119457Y0593440D01*
X0119509Y0593554D01*
X0119565Y0593666D01*
X0119624Y0593776D01*
X0119686Y0593884D01*
X0119752Y0593991D01*
X0119821Y0594095D01*
X0119894Y0594196D01*
X0119969Y0594296D01*
X0120048Y0594393D01*
X0120130Y0594487D01*
X0120215Y0594579D01*
X0120302Y0594668D01*
X0120393Y0594754D01*
X0120486Y0594837D01*
X0120582Y0594918D01*
X0120680Y0594995D01*
X0120780Y0595069D01*
X0120883Y0595140D01*
X0120988Y0595207D01*
X0121096Y0595272D01*
X0121205Y0595332D01*
X0121316Y0595390D01*
X0121429Y0595443D01*
X0121543Y0595493D01*
X0121659Y0595540D01*
X0121776Y0595582D01*
X0121895Y0595621D01*
X0122015Y0595657D01*
X0122136Y0595688D01*
X0122258Y0595716D01*
X0122380Y0595739D01*
X0122504Y0595759D01*
X0122628Y0595775D01*
X0122752Y0595787D01*
X0122877Y0595795D01*
X0123002Y0595799D01*
X0123126Y0595799D01*
X0123251Y0595795D01*
X0123376Y0595787D01*
X0123500Y0595775D01*
X0123624Y0595759D01*
X0123748Y0595739D01*
X0123870Y0595716D01*
X0123992Y0595688D01*
X0124113Y0595657D01*
X0124233Y0595621D01*
X0124352Y0595582D01*
X0124469Y0595540D01*
X0124585Y0595493D01*
X0124699Y0595443D01*
X0124812Y0595390D01*
X0124923Y0595332D01*
X0125033Y0595272D01*
X0125140Y0595207D01*
X0125245Y0595140D01*
X0125348Y0595069D01*
X0125448Y0594995D01*
X0125546Y0594918D01*
X0125642Y0594837D01*
X0125735Y0594754D01*
X0125826Y0594668D01*
X0125913Y0594579D01*
X0125998Y0594487D01*
X0126080Y0594393D01*
X0126159Y0594296D01*
X0126234Y0594196D01*
X0126307Y0594095D01*
X0126376Y0593991D01*
X0126442Y0593884D01*
X0126504Y0593776D01*
X0126563Y0593666D01*
X0126619Y0593554D01*
X0126671Y0593440D01*
X0126719Y0593325D01*
X0126764Y0593209D01*
X0126804Y0593090D01*
X0126842Y0592971D01*
X0126875Y0592851D01*
X0126904Y0592729D01*
X0126930Y0592607D01*
X0126952Y0592484D01*
X0126969Y0592360D01*
X0126983Y0592236D01*
X0126993Y0592112D01*
X0126999Y0591987D01*
X0127001Y0591862D01*
X0126999Y0591737D01*
X0126993Y0591612D01*
X0126983Y0591488D01*
X0126969Y0591364D01*
X0126952Y0591240D01*
X0126930Y0591117D01*
X0126904Y0590995D01*
X0126875Y0590873D01*
X0126842Y0590753D01*
X0126804Y0590634D01*
X0126764Y0590515D01*
X0126719Y0590399D01*
X0126671Y0590284D01*
X0126619Y0590170D01*
X0126563Y0590058D01*
X0126504Y0589948D01*
X0126442Y0589840D01*
X0126376Y0589733D01*
X0126307Y0589629D01*
X0126234Y0589528D01*
X0126159Y0589428D01*
X0126080Y0589331D01*
X0125998Y0589237D01*
X0125913Y0589145D01*
X0125826Y0589056D01*
X0125735Y0588970D01*
X0125642Y0588887D01*
X0125546Y0588806D01*
X0125448Y0588729D01*
X0125348Y0588655D01*
X0125245Y0588584D01*
X0125140Y0588517D01*
X0125032Y0588452D01*
X0124923Y0588392D01*
X0124812Y0588334D01*
X0124699Y0588281D01*
X0124585Y0588231D01*
X0124469Y0588184D01*
X0124352Y0588142D01*
X0124233Y0588103D01*
X0124113Y0588067D01*
X0123992Y0588036D01*
X0123870Y0588008D01*
X0123748Y0587985D01*
X0123624Y0587965D01*
X0123500Y0587949D01*
X0123376Y0587937D01*
X0123251Y0587929D01*
X0123126Y0587925D01*
X0123002Y0587925D01*
X0122877Y0587929D01*
X0122752Y0587937D01*
X0122628Y0587949D01*
X0122504Y0587965D01*
X0122380Y0587985D01*
X0122258Y0588008D01*
X0122136Y0588036D01*
X0122015Y0588067D01*
X0121895Y0588103D01*
X0121776Y0588142D01*
X0121659Y0588184D01*
X0121543Y0588231D01*
X0121429Y0588281D01*
X0121316Y0588334D01*
X0121205Y0588392D01*
X0121095Y0588452D01*
X0120988Y0588517D01*
X0120883Y0588584D01*
X0120780Y0588655D01*
X0120680Y0588729D01*
X0120582Y0588806D01*
X0120486Y0588887D01*
X0120393Y0588970D01*
X0120302Y0589056D01*
X0120215Y0589145D01*
X0120130Y0589237D01*
X0120048Y0589331D01*
X0119969Y0589428D01*
X0119894Y0589528D01*
X0119821Y0589629D01*
X0119752Y0589733D01*
X0119686Y0589840D01*
X0119624Y0589948D01*
X0119565Y0590058D01*
X0119509Y0590170D01*
X0119457Y0590284D01*
X0119409Y0590399D01*
X0119364Y0590515D01*
X0119324Y0590634D01*
X0119286Y0590753D01*
X0119253Y0590873D01*
X0119224Y0590995D01*
X0119198Y0591117D01*
X0119176Y0591240D01*
X0119159Y0591364D01*
X0119145Y0591488D01*
X0119135Y0591612D01*
X0119129Y0591737D01*
X0119127Y0591862D01*
X0012828Y0591862D02*
X0012830Y0591987D01*
X0012836Y0592112D01*
X0012846Y0592236D01*
X0012860Y0592360D01*
X0012877Y0592484D01*
X0012899Y0592607D01*
X0012925Y0592729D01*
X0012954Y0592851D01*
X0012987Y0592971D01*
X0013025Y0593090D01*
X0013065Y0593209D01*
X0013110Y0593325D01*
X0013158Y0593440D01*
X0013210Y0593554D01*
X0013266Y0593666D01*
X0013325Y0593776D01*
X0013387Y0593884D01*
X0013453Y0593991D01*
X0013522Y0594095D01*
X0013595Y0594196D01*
X0013670Y0594296D01*
X0013749Y0594393D01*
X0013831Y0594487D01*
X0013916Y0594579D01*
X0014003Y0594668D01*
X0014094Y0594754D01*
X0014187Y0594837D01*
X0014283Y0594918D01*
X0014381Y0594995D01*
X0014481Y0595069D01*
X0014584Y0595140D01*
X0014689Y0595207D01*
X0014797Y0595272D01*
X0014906Y0595332D01*
X0015017Y0595390D01*
X0015130Y0595443D01*
X0015244Y0595493D01*
X0015360Y0595540D01*
X0015477Y0595582D01*
X0015596Y0595621D01*
X0015716Y0595657D01*
X0015837Y0595688D01*
X0015959Y0595716D01*
X0016081Y0595739D01*
X0016205Y0595759D01*
X0016329Y0595775D01*
X0016453Y0595787D01*
X0016578Y0595795D01*
X0016703Y0595799D01*
X0016827Y0595799D01*
X0016952Y0595795D01*
X0017077Y0595787D01*
X0017201Y0595775D01*
X0017325Y0595759D01*
X0017449Y0595739D01*
X0017571Y0595716D01*
X0017693Y0595688D01*
X0017814Y0595657D01*
X0017934Y0595621D01*
X0018053Y0595582D01*
X0018170Y0595540D01*
X0018286Y0595493D01*
X0018400Y0595443D01*
X0018513Y0595390D01*
X0018624Y0595332D01*
X0018734Y0595272D01*
X0018841Y0595207D01*
X0018946Y0595140D01*
X0019049Y0595069D01*
X0019149Y0594995D01*
X0019247Y0594918D01*
X0019343Y0594837D01*
X0019436Y0594754D01*
X0019527Y0594668D01*
X0019614Y0594579D01*
X0019699Y0594487D01*
X0019781Y0594393D01*
X0019860Y0594296D01*
X0019935Y0594196D01*
X0020008Y0594095D01*
X0020077Y0593991D01*
X0020143Y0593884D01*
X0020205Y0593776D01*
X0020264Y0593666D01*
X0020320Y0593554D01*
X0020372Y0593440D01*
X0020420Y0593325D01*
X0020465Y0593209D01*
X0020505Y0593090D01*
X0020543Y0592971D01*
X0020576Y0592851D01*
X0020605Y0592729D01*
X0020631Y0592607D01*
X0020653Y0592484D01*
X0020670Y0592360D01*
X0020684Y0592236D01*
X0020694Y0592112D01*
X0020700Y0591987D01*
X0020702Y0591862D01*
X0020700Y0591737D01*
X0020694Y0591612D01*
X0020684Y0591488D01*
X0020670Y0591364D01*
X0020653Y0591240D01*
X0020631Y0591117D01*
X0020605Y0590995D01*
X0020576Y0590873D01*
X0020543Y0590753D01*
X0020505Y0590634D01*
X0020465Y0590515D01*
X0020420Y0590399D01*
X0020372Y0590284D01*
X0020320Y0590170D01*
X0020264Y0590058D01*
X0020205Y0589948D01*
X0020143Y0589840D01*
X0020077Y0589733D01*
X0020008Y0589629D01*
X0019935Y0589528D01*
X0019860Y0589428D01*
X0019781Y0589331D01*
X0019699Y0589237D01*
X0019614Y0589145D01*
X0019527Y0589056D01*
X0019436Y0588970D01*
X0019343Y0588887D01*
X0019247Y0588806D01*
X0019149Y0588729D01*
X0019049Y0588655D01*
X0018946Y0588584D01*
X0018841Y0588517D01*
X0018733Y0588452D01*
X0018624Y0588392D01*
X0018513Y0588334D01*
X0018400Y0588281D01*
X0018286Y0588231D01*
X0018170Y0588184D01*
X0018053Y0588142D01*
X0017934Y0588103D01*
X0017814Y0588067D01*
X0017693Y0588036D01*
X0017571Y0588008D01*
X0017449Y0587985D01*
X0017325Y0587965D01*
X0017201Y0587949D01*
X0017077Y0587937D01*
X0016952Y0587929D01*
X0016827Y0587925D01*
X0016703Y0587925D01*
X0016578Y0587929D01*
X0016453Y0587937D01*
X0016329Y0587949D01*
X0016205Y0587965D01*
X0016081Y0587985D01*
X0015959Y0588008D01*
X0015837Y0588036D01*
X0015716Y0588067D01*
X0015596Y0588103D01*
X0015477Y0588142D01*
X0015360Y0588184D01*
X0015244Y0588231D01*
X0015130Y0588281D01*
X0015017Y0588334D01*
X0014906Y0588392D01*
X0014796Y0588452D01*
X0014689Y0588517D01*
X0014584Y0588584D01*
X0014481Y0588655D01*
X0014381Y0588729D01*
X0014283Y0588806D01*
X0014187Y0588887D01*
X0014094Y0588970D01*
X0014003Y0589056D01*
X0013916Y0589145D01*
X0013831Y0589237D01*
X0013749Y0589331D01*
X0013670Y0589428D01*
X0013595Y0589528D01*
X0013522Y0589629D01*
X0013453Y0589733D01*
X0013387Y0589840D01*
X0013325Y0589948D01*
X0013266Y0590058D01*
X0013210Y0590170D01*
X0013158Y0590284D01*
X0013110Y0590399D01*
X0013065Y0590515D01*
X0013025Y0590634D01*
X0012987Y0590753D01*
X0012954Y0590873D01*
X0012925Y0590995D01*
X0012899Y0591117D01*
X0012877Y0591240D01*
X0012860Y0591364D01*
X0012846Y0591488D01*
X0012836Y0591612D01*
X0012830Y0591737D01*
X0012828Y0591862D01*
X0012828Y0536744D02*
X0012830Y0536869D01*
X0012836Y0536994D01*
X0012846Y0537118D01*
X0012860Y0537242D01*
X0012877Y0537366D01*
X0012899Y0537489D01*
X0012925Y0537611D01*
X0012954Y0537733D01*
X0012987Y0537853D01*
X0013025Y0537972D01*
X0013065Y0538091D01*
X0013110Y0538207D01*
X0013158Y0538322D01*
X0013210Y0538436D01*
X0013266Y0538548D01*
X0013325Y0538658D01*
X0013387Y0538766D01*
X0013453Y0538873D01*
X0013522Y0538977D01*
X0013595Y0539078D01*
X0013670Y0539178D01*
X0013749Y0539275D01*
X0013831Y0539369D01*
X0013916Y0539461D01*
X0014003Y0539550D01*
X0014094Y0539636D01*
X0014187Y0539719D01*
X0014283Y0539800D01*
X0014381Y0539877D01*
X0014481Y0539951D01*
X0014584Y0540022D01*
X0014689Y0540089D01*
X0014797Y0540154D01*
X0014906Y0540214D01*
X0015017Y0540272D01*
X0015130Y0540325D01*
X0015244Y0540375D01*
X0015360Y0540422D01*
X0015477Y0540464D01*
X0015596Y0540503D01*
X0015716Y0540539D01*
X0015837Y0540570D01*
X0015959Y0540598D01*
X0016081Y0540621D01*
X0016205Y0540641D01*
X0016329Y0540657D01*
X0016453Y0540669D01*
X0016578Y0540677D01*
X0016703Y0540681D01*
X0016827Y0540681D01*
X0016952Y0540677D01*
X0017077Y0540669D01*
X0017201Y0540657D01*
X0017325Y0540641D01*
X0017449Y0540621D01*
X0017571Y0540598D01*
X0017693Y0540570D01*
X0017814Y0540539D01*
X0017934Y0540503D01*
X0018053Y0540464D01*
X0018170Y0540422D01*
X0018286Y0540375D01*
X0018400Y0540325D01*
X0018513Y0540272D01*
X0018624Y0540214D01*
X0018734Y0540154D01*
X0018841Y0540089D01*
X0018946Y0540022D01*
X0019049Y0539951D01*
X0019149Y0539877D01*
X0019247Y0539800D01*
X0019343Y0539719D01*
X0019436Y0539636D01*
X0019527Y0539550D01*
X0019614Y0539461D01*
X0019699Y0539369D01*
X0019781Y0539275D01*
X0019860Y0539178D01*
X0019935Y0539078D01*
X0020008Y0538977D01*
X0020077Y0538873D01*
X0020143Y0538766D01*
X0020205Y0538658D01*
X0020264Y0538548D01*
X0020320Y0538436D01*
X0020372Y0538322D01*
X0020420Y0538207D01*
X0020465Y0538091D01*
X0020505Y0537972D01*
X0020543Y0537853D01*
X0020576Y0537733D01*
X0020605Y0537611D01*
X0020631Y0537489D01*
X0020653Y0537366D01*
X0020670Y0537242D01*
X0020684Y0537118D01*
X0020694Y0536994D01*
X0020700Y0536869D01*
X0020702Y0536744D01*
X0020700Y0536619D01*
X0020694Y0536494D01*
X0020684Y0536370D01*
X0020670Y0536246D01*
X0020653Y0536122D01*
X0020631Y0535999D01*
X0020605Y0535877D01*
X0020576Y0535755D01*
X0020543Y0535635D01*
X0020505Y0535516D01*
X0020465Y0535397D01*
X0020420Y0535281D01*
X0020372Y0535166D01*
X0020320Y0535052D01*
X0020264Y0534940D01*
X0020205Y0534830D01*
X0020143Y0534722D01*
X0020077Y0534615D01*
X0020008Y0534511D01*
X0019935Y0534410D01*
X0019860Y0534310D01*
X0019781Y0534213D01*
X0019699Y0534119D01*
X0019614Y0534027D01*
X0019527Y0533938D01*
X0019436Y0533852D01*
X0019343Y0533769D01*
X0019247Y0533688D01*
X0019149Y0533611D01*
X0019049Y0533537D01*
X0018946Y0533466D01*
X0018841Y0533399D01*
X0018733Y0533334D01*
X0018624Y0533274D01*
X0018513Y0533216D01*
X0018400Y0533163D01*
X0018286Y0533113D01*
X0018170Y0533066D01*
X0018053Y0533024D01*
X0017934Y0532985D01*
X0017814Y0532949D01*
X0017693Y0532918D01*
X0017571Y0532890D01*
X0017449Y0532867D01*
X0017325Y0532847D01*
X0017201Y0532831D01*
X0017077Y0532819D01*
X0016952Y0532811D01*
X0016827Y0532807D01*
X0016703Y0532807D01*
X0016578Y0532811D01*
X0016453Y0532819D01*
X0016329Y0532831D01*
X0016205Y0532847D01*
X0016081Y0532867D01*
X0015959Y0532890D01*
X0015837Y0532918D01*
X0015716Y0532949D01*
X0015596Y0532985D01*
X0015477Y0533024D01*
X0015360Y0533066D01*
X0015244Y0533113D01*
X0015130Y0533163D01*
X0015017Y0533216D01*
X0014906Y0533274D01*
X0014796Y0533334D01*
X0014689Y0533399D01*
X0014584Y0533466D01*
X0014481Y0533537D01*
X0014381Y0533611D01*
X0014283Y0533688D01*
X0014187Y0533769D01*
X0014094Y0533852D01*
X0014003Y0533938D01*
X0013916Y0534027D01*
X0013831Y0534119D01*
X0013749Y0534213D01*
X0013670Y0534310D01*
X0013595Y0534410D01*
X0013522Y0534511D01*
X0013453Y0534615D01*
X0013387Y0534722D01*
X0013325Y0534830D01*
X0013266Y0534940D01*
X0013210Y0535052D01*
X0013158Y0535166D01*
X0013110Y0535281D01*
X0013065Y0535397D01*
X0013025Y0535516D01*
X0012987Y0535635D01*
X0012954Y0535755D01*
X0012925Y0535877D01*
X0012899Y0535999D01*
X0012877Y0536122D01*
X0012860Y0536246D01*
X0012846Y0536370D01*
X0012836Y0536494D01*
X0012830Y0536619D01*
X0012828Y0536744D01*
X0278576Y0143043D02*
X0278578Y0143196D01*
X0278584Y0143350D01*
X0278594Y0143503D01*
X0278608Y0143655D01*
X0278626Y0143808D01*
X0278648Y0143959D01*
X0278673Y0144110D01*
X0278703Y0144261D01*
X0278737Y0144411D01*
X0278774Y0144559D01*
X0278815Y0144707D01*
X0278860Y0144853D01*
X0278909Y0144999D01*
X0278962Y0145143D01*
X0279018Y0145285D01*
X0279078Y0145426D01*
X0279142Y0145566D01*
X0279209Y0145704D01*
X0279280Y0145840D01*
X0279355Y0145974D01*
X0279432Y0146106D01*
X0279514Y0146236D01*
X0279598Y0146364D01*
X0279686Y0146490D01*
X0279777Y0146613D01*
X0279871Y0146734D01*
X0279969Y0146852D01*
X0280069Y0146968D01*
X0280173Y0147081D01*
X0280279Y0147192D01*
X0280388Y0147300D01*
X0280500Y0147405D01*
X0280614Y0147506D01*
X0280732Y0147605D01*
X0280851Y0147701D01*
X0280973Y0147794D01*
X0281098Y0147883D01*
X0281225Y0147970D01*
X0281354Y0148052D01*
X0281485Y0148132D01*
X0281618Y0148208D01*
X0281753Y0148281D01*
X0281890Y0148350D01*
X0282029Y0148415D01*
X0282169Y0148477D01*
X0282311Y0148535D01*
X0282454Y0148590D01*
X0282599Y0148641D01*
X0282745Y0148688D01*
X0282892Y0148731D01*
X0283040Y0148770D01*
X0283189Y0148806D01*
X0283339Y0148837D01*
X0283490Y0148865D01*
X0283641Y0148889D01*
X0283794Y0148909D01*
X0283946Y0148925D01*
X0284099Y0148937D01*
X0284252Y0148945D01*
X0284405Y0148949D01*
X0284559Y0148949D01*
X0284712Y0148945D01*
X0284865Y0148937D01*
X0285018Y0148925D01*
X0285170Y0148909D01*
X0285323Y0148889D01*
X0285474Y0148865D01*
X0285625Y0148837D01*
X0285775Y0148806D01*
X0285924Y0148770D01*
X0286072Y0148731D01*
X0286219Y0148688D01*
X0286365Y0148641D01*
X0286510Y0148590D01*
X0286653Y0148535D01*
X0286795Y0148477D01*
X0286935Y0148415D01*
X0287074Y0148350D01*
X0287211Y0148281D01*
X0287346Y0148208D01*
X0287479Y0148132D01*
X0287610Y0148052D01*
X0287739Y0147970D01*
X0287866Y0147883D01*
X0287991Y0147794D01*
X0288113Y0147701D01*
X0288232Y0147605D01*
X0288350Y0147506D01*
X0288464Y0147405D01*
X0288576Y0147300D01*
X0288685Y0147192D01*
X0288791Y0147081D01*
X0288895Y0146968D01*
X0288995Y0146852D01*
X0289093Y0146734D01*
X0289187Y0146613D01*
X0289278Y0146490D01*
X0289366Y0146364D01*
X0289450Y0146236D01*
X0289532Y0146106D01*
X0289609Y0145974D01*
X0289684Y0145840D01*
X0289755Y0145704D01*
X0289822Y0145566D01*
X0289886Y0145426D01*
X0289946Y0145285D01*
X0290002Y0145143D01*
X0290055Y0144999D01*
X0290104Y0144853D01*
X0290149Y0144707D01*
X0290190Y0144559D01*
X0290227Y0144411D01*
X0290261Y0144261D01*
X0290291Y0144110D01*
X0290316Y0143959D01*
X0290338Y0143808D01*
X0290356Y0143655D01*
X0290370Y0143503D01*
X0290380Y0143350D01*
X0290386Y0143196D01*
X0290388Y0143043D01*
X0290386Y0142890D01*
X0290380Y0142736D01*
X0290370Y0142583D01*
X0290356Y0142431D01*
X0290338Y0142278D01*
X0290316Y0142127D01*
X0290291Y0141976D01*
X0290261Y0141825D01*
X0290227Y0141675D01*
X0290190Y0141527D01*
X0290149Y0141379D01*
X0290104Y0141233D01*
X0290055Y0141087D01*
X0290002Y0140943D01*
X0289946Y0140801D01*
X0289886Y0140660D01*
X0289822Y0140520D01*
X0289755Y0140382D01*
X0289684Y0140246D01*
X0289609Y0140112D01*
X0289532Y0139980D01*
X0289450Y0139850D01*
X0289366Y0139722D01*
X0289278Y0139596D01*
X0289187Y0139473D01*
X0289093Y0139352D01*
X0288995Y0139234D01*
X0288895Y0139118D01*
X0288791Y0139005D01*
X0288685Y0138894D01*
X0288576Y0138786D01*
X0288464Y0138681D01*
X0288350Y0138580D01*
X0288232Y0138481D01*
X0288113Y0138385D01*
X0287991Y0138292D01*
X0287866Y0138203D01*
X0287739Y0138116D01*
X0287610Y0138034D01*
X0287479Y0137954D01*
X0287346Y0137878D01*
X0287211Y0137805D01*
X0287074Y0137736D01*
X0286935Y0137671D01*
X0286795Y0137609D01*
X0286653Y0137551D01*
X0286510Y0137496D01*
X0286365Y0137445D01*
X0286219Y0137398D01*
X0286072Y0137355D01*
X0285924Y0137316D01*
X0285775Y0137280D01*
X0285625Y0137249D01*
X0285474Y0137221D01*
X0285323Y0137197D01*
X0285170Y0137177D01*
X0285018Y0137161D01*
X0284865Y0137149D01*
X0284712Y0137141D01*
X0284559Y0137137D01*
X0284405Y0137137D01*
X0284252Y0137141D01*
X0284099Y0137149D01*
X0283946Y0137161D01*
X0283794Y0137177D01*
X0283641Y0137197D01*
X0283490Y0137221D01*
X0283339Y0137249D01*
X0283189Y0137280D01*
X0283040Y0137316D01*
X0282892Y0137355D01*
X0282745Y0137398D01*
X0282599Y0137445D01*
X0282454Y0137496D01*
X0282311Y0137551D01*
X0282169Y0137609D01*
X0282029Y0137671D01*
X0281890Y0137736D01*
X0281753Y0137805D01*
X0281618Y0137878D01*
X0281485Y0137954D01*
X0281354Y0138034D01*
X0281225Y0138116D01*
X0281098Y0138203D01*
X0280973Y0138292D01*
X0280851Y0138385D01*
X0280732Y0138481D01*
X0280614Y0138580D01*
X0280500Y0138681D01*
X0280388Y0138786D01*
X0280279Y0138894D01*
X0280173Y0139005D01*
X0280069Y0139118D01*
X0279969Y0139234D01*
X0279871Y0139352D01*
X0279777Y0139473D01*
X0279686Y0139596D01*
X0279598Y0139722D01*
X0279514Y0139850D01*
X0279432Y0139980D01*
X0279355Y0140112D01*
X0279280Y0140246D01*
X0279209Y0140382D01*
X0279142Y0140520D01*
X0279078Y0140660D01*
X0279018Y0140801D01*
X0278962Y0140943D01*
X0278909Y0141087D01*
X0278860Y0141233D01*
X0278815Y0141379D01*
X0278774Y0141527D01*
X0278737Y0141675D01*
X0278703Y0141825D01*
X0278673Y0141976D01*
X0278648Y0142127D01*
X0278626Y0142278D01*
X0278608Y0142431D01*
X0278594Y0142583D01*
X0278584Y0142736D01*
X0278578Y0142890D01*
X0278576Y0143043D01*
X0278576Y0024933D02*
X0278578Y0025086D01*
X0278584Y0025240D01*
X0278594Y0025393D01*
X0278608Y0025545D01*
X0278626Y0025698D01*
X0278648Y0025849D01*
X0278673Y0026000D01*
X0278703Y0026151D01*
X0278737Y0026301D01*
X0278774Y0026449D01*
X0278815Y0026597D01*
X0278860Y0026743D01*
X0278909Y0026889D01*
X0278962Y0027033D01*
X0279018Y0027175D01*
X0279078Y0027316D01*
X0279142Y0027456D01*
X0279209Y0027594D01*
X0279280Y0027730D01*
X0279355Y0027864D01*
X0279432Y0027996D01*
X0279514Y0028126D01*
X0279598Y0028254D01*
X0279686Y0028380D01*
X0279777Y0028503D01*
X0279871Y0028624D01*
X0279969Y0028742D01*
X0280069Y0028858D01*
X0280173Y0028971D01*
X0280279Y0029082D01*
X0280388Y0029190D01*
X0280500Y0029295D01*
X0280614Y0029396D01*
X0280732Y0029495D01*
X0280851Y0029591D01*
X0280973Y0029684D01*
X0281098Y0029773D01*
X0281225Y0029860D01*
X0281354Y0029942D01*
X0281485Y0030022D01*
X0281618Y0030098D01*
X0281753Y0030171D01*
X0281890Y0030240D01*
X0282029Y0030305D01*
X0282169Y0030367D01*
X0282311Y0030425D01*
X0282454Y0030480D01*
X0282599Y0030531D01*
X0282745Y0030578D01*
X0282892Y0030621D01*
X0283040Y0030660D01*
X0283189Y0030696D01*
X0283339Y0030727D01*
X0283490Y0030755D01*
X0283641Y0030779D01*
X0283794Y0030799D01*
X0283946Y0030815D01*
X0284099Y0030827D01*
X0284252Y0030835D01*
X0284405Y0030839D01*
X0284559Y0030839D01*
X0284712Y0030835D01*
X0284865Y0030827D01*
X0285018Y0030815D01*
X0285170Y0030799D01*
X0285323Y0030779D01*
X0285474Y0030755D01*
X0285625Y0030727D01*
X0285775Y0030696D01*
X0285924Y0030660D01*
X0286072Y0030621D01*
X0286219Y0030578D01*
X0286365Y0030531D01*
X0286510Y0030480D01*
X0286653Y0030425D01*
X0286795Y0030367D01*
X0286935Y0030305D01*
X0287074Y0030240D01*
X0287211Y0030171D01*
X0287346Y0030098D01*
X0287479Y0030022D01*
X0287610Y0029942D01*
X0287739Y0029860D01*
X0287866Y0029773D01*
X0287991Y0029684D01*
X0288113Y0029591D01*
X0288232Y0029495D01*
X0288350Y0029396D01*
X0288464Y0029295D01*
X0288576Y0029190D01*
X0288685Y0029082D01*
X0288791Y0028971D01*
X0288895Y0028858D01*
X0288995Y0028742D01*
X0289093Y0028624D01*
X0289187Y0028503D01*
X0289278Y0028380D01*
X0289366Y0028254D01*
X0289450Y0028126D01*
X0289532Y0027996D01*
X0289609Y0027864D01*
X0289684Y0027730D01*
X0289755Y0027594D01*
X0289822Y0027456D01*
X0289886Y0027316D01*
X0289946Y0027175D01*
X0290002Y0027033D01*
X0290055Y0026889D01*
X0290104Y0026743D01*
X0290149Y0026597D01*
X0290190Y0026449D01*
X0290227Y0026301D01*
X0290261Y0026151D01*
X0290291Y0026000D01*
X0290316Y0025849D01*
X0290338Y0025698D01*
X0290356Y0025545D01*
X0290370Y0025393D01*
X0290380Y0025240D01*
X0290386Y0025086D01*
X0290388Y0024933D01*
X0290386Y0024780D01*
X0290380Y0024626D01*
X0290370Y0024473D01*
X0290356Y0024321D01*
X0290338Y0024168D01*
X0290316Y0024017D01*
X0290291Y0023866D01*
X0290261Y0023715D01*
X0290227Y0023565D01*
X0290190Y0023417D01*
X0290149Y0023269D01*
X0290104Y0023123D01*
X0290055Y0022977D01*
X0290002Y0022833D01*
X0289946Y0022691D01*
X0289886Y0022550D01*
X0289822Y0022410D01*
X0289755Y0022272D01*
X0289684Y0022136D01*
X0289609Y0022002D01*
X0289532Y0021870D01*
X0289450Y0021740D01*
X0289366Y0021612D01*
X0289278Y0021486D01*
X0289187Y0021363D01*
X0289093Y0021242D01*
X0288995Y0021124D01*
X0288895Y0021008D01*
X0288791Y0020895D01*
X0288685Y0020784D01*
X0288576Y0020676D01*
X0288464Y0020571D01*
X0288350Y0020470D01*
X0288232Y0020371D01*
X0288113Y0020275D01*
X0287991Y0020182D01*
X0287866Y0020093D01*
X0287739Y0020006D01*
X0287610Y0019924D01*
X0287479Y0019844D01*
X0287346Y0019768D01*
X0287211Y0019695D01*
X0287074Y0019626D01*
X0286935Y0019561D01*
X0286795Y0019499D01*
X0286653Y0019441D01*
X0286510Y0019386D01*
X0286365Y0019335D01*
X0286219Y0019288D01*
X0286072Y0019245D01*
X0285924Y0019206D01*
X0285775Y0019170D01*
X0285625Y0019139D01*
X0285474Y0019111D01*
X0285323Y0019087D01*
X0285170Y0019067D01*
X0285018Y0019051D01*
X0284865Y0019039D01*
X0284712Y0019031D01*
X0284559Y0019027D01*
X0284405Y0019027D01*
X0284252Y0019031D01*
X0284099Y0019039D01*
X0283946Y0019051D01*
X0283794Y0019067D01*
X0283641Y0019087D01*
X0283490Y0019111D01*
X0283339Y0019139D01*
X0283189Y0019170D01*
X0283040Y0019206D01*
X0282892Y0019245D01*
X0282745Y0019288D01*
X0282599Y0019335D01*
X0282454Y0019386D01*
X0282311Y0019441D01*
X0282169Y0019499D01*
X0282029Y0019561D01*
X0281890Y0019626D01*
X0281753Y0019695D01*
X0281618Y0019768D01*
X0281485Y0019844D01*
X0281354Y0019924D01*
X0281225Y0020006D01*
X0281098Y0020093D01*
X0280973Y0020182D01*
X0280851Y0020275D01*
X0280732Y0020371D01*
X0280614Y0020470D01*
X0280500Y0020571D01*
X0280388Y0020676D01*
X0280279Y0020784D01*
X0280173Y0020895D01*
X0280069Y0021008D01*
X0279969Y0021124D01*
X0279871Y0021242D01*
X0279777Y0021363D01*
X0279686Y0021486D01*
X0279598Y0021612D01*
X0279514Y0021740D01*
X0279432Y0021870D01*
X0279355Y0022002D01*
X0279280Y0022136D01*
X0279209Y0022272D01*
X0279142Y0022410D01*
X0279078Y0022550D01*
X0279018Y0022691D01*
X0278962Y0022833D01*
X0278909Y0022977D01*
X0278860Y0023123D01*
X0278815Y0023269D01*
X0278774Y0023417D01*
X0278737Y0023565D01*
X0278703Y0023715D01*
X0278673Y0023866D01*
X0278648Y0024017D01*
X0278626Y0024168D01*
X0278608Y0024321D01*
X0278594Y0024473D01*
X0278584Y0024626D01*
X0278578Y0024780D01*
X0278576Y0024933D01*
D11*
X0296293Y0048555D02*
X0296293Y0052492D01*
X0296293Y0056429D02*
X0296293Y0060366D01*
X0296293Y0064303D02*
X0296293Y0068240D01*
X0296293Y0072177D02*
X0296293Y0076114D01*
X0296293Y0080051D02*
X0296293Y0083988D01*
X0296293Y0087925D02*
X0296293Y0091862D01*
X0296293Y0095799D02*
X0296293Y0099736D01*
X0252986Y0099736D02*
X0252986Y0095143D01*
X0252986Y0091206D02*
X0252986Y0086613D01*
X0252986Y0082676D02*
X0252986Y0078083D01*
X0252986Y0073654D01*
X0252986Y0069717D02*
X0252986Y0065287D01*
X0252986Y0061350D02*
X0252986Y0056921D01*
X0252986Y0052984D02*
X0252986Y0048555D01*
X0252986Y0078083D02*
X0249049Y0078083D01*
X0245112Y0078083D02*
X0241175Y0078083D01*
X0237238Y0078083D02*
X0233301Y0078083D01*
X0229364Y0078083D02*
X0225427Y0078083D01*
X0221489Y0078083D02*
X0217552Y0078083D01*
X0213615Y0078083D02*
X0209678Y0078083D01*
X0205741Y0078083D02*
X0201804Y0078083D01*
X0201804Y0095799D02*
X0196555Y0095799D01*
X0192618Y0095799D02*
X0187369Y0095799D01*
X0183432Y0095799D02*
X0178182Y0095799D01*
X0178182Y0100720D01*
X0178182Y0104657D02*
X0178182Y0109579D01*
X0178182Y0113516D02*
X0178182Y0118437D01*
X0178182Y0122374D02*
X0178182Y0127295D01*
X0182119Y0127295D01*
X0186056Y0127295D02*
X0189993Y0127295D01*
X0193930Y0127295D02*
X0197867Y0127295D01*
X0201804Y0127295D02*
X0205741Y0127295D01*
X0205741Y0133201D01*
X0205741Y0137138D02*
X0205741Y0143043D01*
X0210335Y0143043D01*
X0214272Y0143043D02*
X0218865Y0143043D01*
X0222802Y0143043D02*
X0227395Y0143043D01*
X0231332Y0143043D02*
X0235925Y0143043D01*
X0239862Y0143043D02*
X0244455Y0143043D01*
X0248392Y0143043D02*
X0252986Y0143043D01*
X0252986Y0139106D01*
X0252986Y0135169D02*
X0252986Y0131232D01*
X0252986Y0127295D02*
X0252986Y0123358D01*
X0252986Y0119421D02*
X0252986Y0115484D01*
X0252986Y0111547D02*
X0252986Y0107610D01*
X0252986Y0103673D02*
X0252986Y0099736D01*
X0052159Y0493594D02*
X0052159Y0498516D01*
X0052159Y0502453D02*
X0052159Y0507374D01*
D12*
X0047434Y0507374D01*
X0043497Y0507374D02*
X0038773Y0507374D01*
X0034836Y0507374D02*
X0030112Y0507374D01*
X0026175Y0507374D02*
X0021450Y0507374D01*
X0017513Y0507374D02*
X0012789Y0507374D01*
X0012789Y0501469D01*
X0012789Y0497531D02*
X0012789Y0491626D01*
X0012789Y0487689D02*
X0012789Y0481783D01*
X0020663Y0481783D01*
X0020663Y0477846D01*
X0020663Y0473909D02*
X0020663Y0469972D01*
X0020663Y0466035D02*
X0020663Y0462098D01*
X0025162Y0462098D01*
X0029099Y0462098D02*
X0033599Y0462098D01*
X0037536Y0462098D02*
X0042035Y0462098D01*
X0045972Y0462098D02*
X0050471Y0462098D01*
X0054409Y0462098D02*
X0058908Y0462098D01*
X0062845Y0462098D02*
X0067344Y0462098D01*
X0071281Y0462098D02*
X0075781Y0462098D01*
X0075781Y0467020D01*
X0075781Y0470957D02*
X0075781Y0475878D01*
X0075781Y0479815D02*
X0075781Y0484736D01*
X0075781Y0488673D02*
X0075781Y0493594D01*
X0070531Y0493594D01*
X0066594Y0493594D02*
X0061345Y0493594D01*
X0057408Y0493594D02*
X0052159Y0493594D01*
X0004954Y0509185D02*
X0004954Y0351705D01*
X0296293Y0351705D01*
X0296293Y0509185D01*
X0004954Y0509185D01*
X0004954Y0524933D02*
X0004954Y0603673D01*
X0134875Y0603673D01*
X0134875Y0524933D01*
X0004954Y0524933D01*
X0032513Y0412728D02*
X0039403Y0412728D01*
X0043340Y0412728D02*
X0050230Y0412728D01*
X0050230Y0408791D01*
X0050230Y0404854D02*
X0050230Y0400917D01*
X0054823Y0400917D01*
X0058760Y0400917D02*
X0063353Y0400917D01*
X0067290Y0400917D02*
X0071883Y0400917D01*
X0075820Y0400917D02*
X0080413Y0400917D01*
X0084350Y0400917D02*
X0088944Y0400917D01*
X0092881Y0400917D02*
X0097474Y0400917D01*
X0097474Y0394684D01*
X0097474Y0390747D02*
X0097474Y0384513D01*
X0097474Y0380576D02*
X0097474Y0374343D01*
X0092552Y0374343D01*
X0088615Y0374343D02*
X0083694Y0374343D01*
X0079757Y0374343D02*
X0074836Y0374343D01*
X0070899Y0374343D02*
X0065978Y0374343D01*
X0062041Y0374343D02*
X0057119Y0374343D01*
X0032513Y0372374D02*
X0032513Y0377295D01*
X0032513Y0381232D02*
X0032513Y0386154D01*
X0032513Y0390091D02*
X0032513Y0395012D01*
X0032513Y0398949D02*
X0032513Y0403870D01*
X0032513Y0407807D02*
X0032513Y0412728D01*
X0032513Y0368437D02*
X0032513Y0363516D01*
X0004954Y0335957D02*
X0296293Y0335957D01*
X0296293Y0178476D01*
X0004954Y0178476D01*
X0004954Y0332020D01*
X0097474Y0237531D02*
X0165387Y0237531D01*
X0191962Y0238188D02*
X0191962Y0233594D01*
X0196686Y0233594D01*
X0200623Y0233594D02*
X0205348Y0233594D01*
X0209285Y0233594D02*
X0214009Y0233594D01*
X0217946Y0233594D02*
X0222671Y0233594D01*
X0226608Y0233594D02*
X0231332Y0233594D01*
X0231332Y0229001D01*
X0231332Y0225064D02*
X0231332Y0220471D01*
X0231332Y0216534D02*
X0231332Y0211941D01*
X0226608Y0211941D01*
X0222671Y0211941D02*
X0217946Y0211941D01*
X0214009Y0211941D02*
X0209285Y0211941D01*
X0205348Y0211941D02*
X0200623Y0211941D01*
X0196686Y0211941D02*
X0191962Y0211941D01*
X0191962Y0216534D01*
X0191962Y0220471D02*
X0191962Y0225064D01*
X0191962Y0229001D02*
X0191962Y0233594D01*
X0191962Y0242125D02*
X0191962Y0246718D01*
X0191962Y0250655D02*
X0191962Y0255248D01*
X0196686Y0255248D01*
X0200623Y0255248D02*
X0205348Y0255248D01*
X0209285Y0255248D02*
X0214009Y0255248D01*
X0217946Y0255248D02*
X0222671Y0255248D01*
X0226608Y0255248D02*
X0231332Y0255248D01*
X0231332Y0250655D01*
X0231332Y0246718D02*
X0231332Y0242125D01*
X0231332Y0238188D02*
X0231332Y0233594D01*
X0231332Y0211941D02*
X0231332Y0208004D01*
X0231332Y0204067D02*
X0231332Y0200130D01*
X0231332Y0196193D02*
X0231332Y0192256D01*
X0226608Y0192256D01*
X0222671Y0192256D02*
X0217946Y0192256D01*
X0214009Y0192256D02*
X0209285Y0192256D01*
X0205348Y0192256D02*
X0200623Y0192256D01*
X0196686Y0192256D02*
X0191962Y0192256D01*
X0191962Y0196193D01*
X0191962Y0200130D02*
X0191962Y0204067D01*
X0191962Y0208004D02*
X0191962Y0211941D01*
X0203773Y0245406D02*
X0203773Y0314303D01*
X0205348Y0278870D02*
X0200623Y0278870D01*
X0196686Y0278870D02*
X0191962Y0278870D01*
X0191962Y0273621D01*
X0191962Y0269684D02*
X0191962Y0264434D01*
X0191962Y0260497D02*
X0191962Y0255248D01*
X0209285Y0278870D02*
X0214009Y0278870D01*
X0217946Y0278870D02*
X0222671Y0278870D01*
X0226608Y0278870D02*
X0231332Y0278870D01*
X0231332Y0273621D01*
X0231332Y0269684D02*
X0231332Y0264434D01*
X0231332Y0260497D02*
X0231332Y0255248D01*
X0260860Y0267059D02*
X0260860Y0270996D01*
X0260860Y0267059D02*
X0266273Y0267059D01*
X0270210Y0267059D02*
X0275623Y0267059D01*
X0279560Y0267059D02*
X0284974Y0267059D01*
X0288911Y0267059D02*
X0294324Y0267059D01*
X0294324Y0270996D01*
X0294324Y0274933D02*
X0294324Y0278870D01*
X0294324Y0282807D02*
X0294324Y0286744D01*
X0294324Y0290681D02*
X0294324Y0294618D01*
X0294324Y0298555D02*
X0294324Y0302492D01*
X0294324Y0306429D02*
X0294324Y0310366D01*
X0288911Y0310366D01*
X0284974Y0310366D02*
X0279560Y0310366D01*
X0275623Y0310366D02*
X0270210Y0310366D01*
X0266273Y0310366D02*
X0260860Y0310366D01*
X0260860Y0306429D01*
X0260860Y0302492D02*
X0260860Y0298555D01*
X0260860Y0294618D02*
X0260860Y0290681D01*
X0260860Y0286744D02*
X0260860Y0282807D01*
X0260860Y0278870D02*
X0260860Y0274933D01*
X0279560Y0333004D02*
X0292356Y0333004D01*
X0292356Y0208004D01*
X0296293Y0162728D02*
X0296293Y0005248D01*
X0004954Y0005248D01*
X0004954Y0162728D01*
X0296293Y0162728D01*
X0296293Y0099736D02*
X0292356Y0099736D01*
X0288419Y0099736D02*
X0284482Y0099736D01*
X0280545Y0099736D02*
X0276608Y0099736D01*
X0272671Y0099736D02*
X0268734Y0099736D01*
X0264797Y0099736D02*
X0260860Y0099736D01*
X0256923Y0099736D02*
X0252986Y0099736D01*
X0265781Y0053476D02*
X0265781Y0048555D01*
X0261352Y0048555D01*
X0257415Y0048555D02*
X0252986Y0048555D01*
X0265781Y0048555D02*
X0265781Y0037728D01*
X0279560Y0037728D01*
X0279560Y0048555D01*
X0285958Y0048555D01*
X0289895Y0048555D02*
X0296293Y0048555D01*
X0279560Y0048555D02*
X0279560Y0053476D01*
X0265781Y0053476D01*
X0201804Y0078083D02*
X0201804Y0084972D01*
X0201804Y0088909D02*
X0201804Y0095799D01*
X0119127Y0091862D02*
X0119127Y0086613D01*
X0119127Y0082676D02*
X0119127Y0077427D01*
X0119127Y0073490D02*
X0119127Y0068240D01*
X0115190Y0068240D01*
X0111253Y0068240D02*
X0107316Y0068240D01*
X0107316Y0065287D01*
X0107316Y0061350D02*
X0107316Y0058398D01*
X0101903Y0058398D01*
X0097966Y0058398D02*
X0092552Y0058398D01*
X0060072Y0058398D02*
X0053182Y0058398D01*
X0049245Y0058398D02*
X0042356Y0058398D01*
D13*
X0142249Y0044898D02*
X0144019Y0044898D01*
X0143134Y0044898D02*
X0143134Y0047553D01*
X0144019Y0046668D01*
X0144968Y0047111D02*
X0144968Y0045341D01*
X0145410Y0044898D01*
X0146295Y0044898D01*
X0146738Y0045341D01*
X0146738Y0047111D01*
X0146295Y0047553D01*
X0145410Y0047553D01*
X0144968Y0047111D01*
X0145853Y0045783D02*
X0144968Y0044898D01*
X0207854Y0113659D02*
X0210509Y0113659D01*
X0210509Y0114987D01*
X0210066Y0115429D01*
X0209181Y0115429D01*
X0208739Y0114987D01*
X0208739Y0113659D01*
X0208739Y0114544D02*
X0207854Y0115429D01*
X0207854Y0116378D02*
X0207854Y0118148D01*
X0207854Y0117263D02*
X0210509Y0117263D01*
X0209624Y0116378D01*
X0242072Y0104970D02*
X0245208Y0101834D01*
X0245208Y0103402D02*
X0242072Y0103402D01*
X0242072Y0101834D02*
X0245208Y0104970D01*
X0243640Y0104970D02*
X0243640Y0101834D01*
X0264558Y0063406D02*
X0267694Y0060270D01*
X0264558Y0063406D01*
X0266126Y0063406D02*
X0266126Y0060270D01*
X0266126Y0063406D01*
X0267694Y0063406D02*
X0264558Y0060270D01*
X0267694Y0063406D01*
X0267694Y0061838D02*
X0264558Y0061838D01*
X0267694Y0061838D01*
X0267387Y0044471D02*
X0268601Y0044471D01*
X0269207Y0043865D01*
X0269207Y0041438D01*
X0268601Y0040831D01*
X0267387Y0040831D01*
X0266781Y0041438D01*
X0266781Y0043865D02*
X0267387Y0044471D01*
X0270406Y0043865D02*
X0271012Y0044471D01*
X0272226Y0044471D01*
X0272832Y0043865D01*
X0272832Y0041438D01*
X0272226Y0040831D01*
X0271012Y0040831D01*
X0270406Y0041438D01*
X0274031Y0042044D02*
X0274031Y0044471D01*
X0274031Y0042044D02*
X0275244Y0040831D01*
X0276458Y0042044D01*
X0276458Y0044471D01*
X0276782Y0267981D02*
X0275569Y0267981D01*
X0274962Y0268587D01*
X0273764Y0268587D02*
X0273764Y0267981D01*
X0273764Y0268587D02*
X0271337Y0271014D01*
X0271337Y0271621D01*
X0273764Y0271621D01*
X0274962Y0271014D02*
X0275569Y0271621D01*
X0276782Y0271621D01*
X0277389Y0271014D01*
X0277389Y0268587D01*
X0276782Y0267981D01*
X0278592Y0267981D02*
X0279806Y0267981D01*
X0279199Y0267981D02*
X0279199Y0271621D01*
X0279806Y0271621D02*
X0278592Y0271621D01*
X0193780Y0385319D02*
X0192567Y0385319D01*
X0193174Y0385319D02*
X0193174Y0388959D01*
X0193780Y0388959D02*
X0192567Y0388959D01*
X0191364Y0388353D02*
X0191364Y0385926D01*
X0190757Y0385319D01*
X0189544Y0385319D01*
X0188937Y0385926D01*
X0187739Y0385319D02*
X0185312Y0387746D01*
X0185312Y0388353D01*
X0185918Y0388959D01*
X0187132Y0388959D01*
X0187739Y0388353D01*
X0188937Y0388353D02*
X0189544Y0388959D01*
X0190757Y0388959D01*
X0191364Y0388353D01*
X0187739Y0385319D02*
X0185312Y0385319D01*
X0184113Y0385319D02*
X0181687Y0385319D01*
X0182900Y0385319D02*
X0182900Y0388959D01*
X0184113Y0387746D01*
X0164253Y0395162D02*
X0163040Y0395162D01*
X0163646Y0395162D02*
X0163646Y0398802D01*
X0163040Y0398802D02*
X0164253Y0398802D01*
X0161836Y0398195D02*
X0161836Y0395768D01*
X0161229Y0395162D01*
X0160016Y0395162D01*
X0159409Y0395768D01*
X0158211Y0395162D02*
X0155784Y0397589D01*
X0155784Y0398195D01*
X0156391Y0398802D01*
X0157604Y0398802D01*
X0158211Y0398195D01*
X0159409Y0398195D02*
X0160016Y0398802D01*
X0161229Y0398802D01*
X0161836Y0398195D01*
X0158211Y0395162D02*
X0155784Y0395162D01*
X0154586Y0395768D02*
X0152159Y0398195D01*
X0152159Y0395768D01*
X0152766Y0395162D01*
X0153979Y0395162D01*
X0154586Y0395768D01*
X0154586Y0398195D01*
X0153979Y0398802D01*
X0152766Y0398802D01*
X0152159Y0398195D01*
X0046044Y0486087D02*
X0044831Y0486087D01*
X0045438Y0486087D02*
X0045438Y0489727D01*
X0046044Y0489727D02*
X0044831Y0489727D01*
X0043627Y0489120D02*
X0043627Y0486694D01*
X0043021Y0486087D01*
X0041807Y0486087D01*
X0041201Y0486694D01*
X0040002Y0486087D02*
X0037576Y0486087D01*
X0036377Y0486087D02*
X0033950Y0488514D01*
X0033950Y0489120D01*
X0034557Y0489727D01*
X0035771Y0489727D01*
X0036377Y0489120D01*
X0038789Y0489727D02*
X0038789Y0486087D01*
X0036377Y0486087D02*
X0033950Y0486087D01*
X0038789Y0489727D02*
X0040002Y0488514D01*
X0041201Y0489120D02*
X0041807Y0489727D01*
X0043021Y0489727D01*
X0043627Y0489120D01*
X0029791Y0391995D02*
X0030398Y0391388D01*
X0030398Y0390175D01*
X0029791Y0389568D01*
X0029184Y0389568D01*
X0028578Y0390175D01*
X0028578Y0391995D01*
X0029791Y0391995D02*
X0027364Y0391995D01*
X0026758Y0391388D01*
X0026758Y0390175D01*
X0027364Y0389568D01*
X0026758Y0388370D02*
X0026758Y0385943D01*
X0026758Y0387156D02*
X0030398Y0387156D01*
X0029184Y0385943D01*
X0029791Y0384745D02*
X0030398Y0384138D01*
X0030398Y0382925D01*
X0029791Y0382318D01*
X0027364Y0382318D01*
X0026758Y0382925D01*
X0026758Y0384138D01*
X0027364Y0384745D01*
X0026758Y0381114D02*
X0026758Y0379901D01*
X0026758Y0380508D02*
X0030398Y0380508D01*
X0030398Y0381114D02*
X0030398Y0379901D01*
D14*
X0051996Y0370833D02*
X0052455Y0371292D01*
X0053374Y0371292D01*
X0053833Y0370833D01*
X0054715Y0370833D02*
X0054715Y0370374D01*
X0055174Y0369915D01*
X0054715Y0369455D01*
X0054715Y0368996D01*
X0055174Y0368537D01*
X0056092Y0368537D01*
X0056552Y0368996D01*
X0057434Y0368996D02*
X0057893Y0368537D01*
X0058811Y0368537D01*
X0059270Y0368996D01*
X0059270Y0370833D01*
X0058811Y0371292D01*
X0057893Y0371292D01*
X0057434Y0370833D01*
X0056552Y0370833D02*
X0056092Y0371292D01*
X0055174Y0371292D01*
X0054715Y0370833D01*
X0055174Y0369915D02*
X0055633Y0369915D01*
X0053833Y0368537D02*
X0051996Y0370374D01*
X0051996Y0370833D01*
X0051996Y0368537D02*
X0053833Y0368537D01*
X0077889Y0378839D02*
X0078348Y0378380D01*
X0079266Y0378380D01*
X0079725Y0378839D01*
X0079725Y0379298D01*
X0079266Y0379757D01*
X0078807Y0379757D01*
X0079266Y0379757D02*
X0079725Y0380216D01*
X0079725Y0380675D01*
X0079266Y0381135D01*
X0078348Y0381135D01*
X0077889Y0380675D01*
X0080608Y0380675D02*
X0081067Y0381135D01*
X0081985Y0381135D01*
X0082444Y0380675D01*
X0082444Y0380216D01*
X0080608Y0378380D01*
X0082444Y0378380D01*
X0083326Y0378380D02*
X0083326Y0381135D01*
X0084704Y0380216D02*
X0083326Y0379298D01*
X0084704Y0378380D01*
X0085592Y0378380D02*
X0085592Y0378839D01*
X0087429Y0380675D01*
X0087429Y0381135D01*
X0085592Y0381135D01*
X0088311Y0379757D02*
X0089229Y0380675D01*
X0090148Y0381135D01*
X0091030Y0380675D02*
X0091030Y0380216D01*
X0091489Y0379757D01*
X0092407Y0379757D01*
X0092867Y0379298D01*
X0092867Y0378839D01*
X0092407Y0378380D01*
X0091489Y0378380D01*
X0091030Y0378839D01*
X0091030Y0379298D01*
X0091489Y0379757D01*
X0092407Y0379757D02*
X0092867Y0380216D01*
X0092867Y0380675D01*
X0092407Y0381135D01*
X0091489Y0381135D01*
X0091030Y0380675D01*
X0089689Y0379757D02*
X0088311Y0379757D01*
X0088311Y0378839D01*
X0088770Y0378380D01*
X0089689Y0378380D01*
X0090148Y0378839D01*
X0090148Y0379298D01*
X0089689Y0379757D01*
X0045208Y0406923D02*
X0045208Y0409678D01*
X0043831Y0409678D01*
X0043372Y0409219D01*
X0043372Y0408300D01*
X0043831Y0407841D01*
X0045208Y0407841D01*
X0044290Y0407841D02*
X0043372Y0406923D01*
X0042490Y0407382D02*
X0042030Y0406923D01*
X0041112Y0406923D01*
X0040653Y0407382D01*
X0040653Y0408300D01*
X0041112Y0408760D01*
X0041571Y0408760D01*
X0042490Y0408300D01*
X0042490Y0409678D01*
X0040653Y0409678D01*
X0039771Y0409678D02*
X0039771Y0408300D01*
X0038852Y0408760D01*
X0038393Y0408760D01*
X0037934Y0408300D01*
X0037934Y0407382D01*
X0038393Y0406923D01*
X0039312Y0406923D01*
X0039771Y0407382D01*
X0039771Y0409678D02*
X0037934Y0409678D01*
X0032415Y0465978D02*
X0029660Y0465978D01*
X0030579Y0465978D02*
X0030579Y0467355D01*
X0031038Y0467815D01*
X0031956Y0467815D01*
X0032415Y0467355D01*
X0032415Y0465978D01*
X0030579Y0466896D02*
X0029660Y0467815D01*
X0030120Y0468697D02*
X0029660Y0469156D01*
X0029660Y0470074D01*
X0030120Y0470534D01*
X0030579Y0470534D01*
X0031038Y0470074D01*
X0031038Y0469615D01*
X0031038Y0470074D02*
X0031497Y0470534D01*
X0031956Y0470534D01*
X0032415Y0470074D01*
X0032415Y0469156D01*
X0031956Y0468697D01*
X0032415Y0471416D02*
X0032415Y0473252D01*
X0031956Y0473252D01*
X0030120Y0471416D01*
X0029660Y0471416D01*
X0029660Y0482710D02*
X0032415Y0482710D01*
X0032415Y0484088D01*
X0031956Y0484547D01*
X0031038Y0484547D01*
X0030579Y0484088D01*
X0030579Y0482710D01*
X0030579Y0483629D02*
X0029660Y0484547D01*
X0030120Y0485429D02*
X0029660Y0485888D01*
X0029660Y0486807D01*
X0030120Y0487266D01*
X0030579Y0487266D01*
X0031038Y0486807D01*
X0031038Y0486347D01*
X0031038Y0486807D02*
X0031497Y0487266D01*
X0031956Y0487266D01*
X0032415Y0486807D01*
X0032415Y0485888D01*
X0031956Y0485429D01*
X0031956Y0488148D02*
X0031497Y0488148D01*
X0031038Y0488607D01*
X0031038Y0489525D01*
X0030579Y0489985D01*
X0030120Y0489985D01*
X0029660Y0489525D01*
X0029660Y0488607D01*
X0030120Y0488148D01*
X0030579Y0488148D01*
X0031038Y0488607D01*
X0031038Y0489525D02*
X0031497Y0489985D01*
X0031956Y0489985D01*
X0032415Y0489525D01*
X0032415Y0488607D01*
X0031956Y0488148D01*
X0046393Y0495965D02*
X0046393Y0496883D01*
X0046852Y0497342D01*
X0046393Y0498224D02*
X0048229Y0500061D01*
X0048689Y0500061D01*
X0049148Y0499602D01*
X0049148Y0498684D01*
X0048689Y0498224D01*
X0048689Y0497342D02*
X0049148Y0496883D01*
X0049148Y0495965D01*
X0048689Y0495506D01*
X0046852Y0495506D01*
X0046393Y0495965D01*
X0046393Y0498224D02*
X0046393Y0500061D01*
X0046852Y0500943D02*
X0048689Y0502780D01*
X0046852Y0502780D01*
X0046393Y0502321D01*
X0046393Y0501402D01*
X0046852Y0500943D01*
X0048689Y0500943D01*
X0049148Y0501402D01*
X0049148Y0502321D01*
X0048689Y0502780D01*
X0053616Y0488418D02*
X0053616Y0485663D01*
X0054534Y0485663D02*
X0052698Y0485663D01*
X0054534Y0487500D02*
X0053616Y0488418D01*
X0055417Y0487959D02*
X0055876Y0488418D01*
X0056794Y0488418D01*
X0057253Y0487959D01*
X0058135Y0487959D02*
X0058595Y0488418D01*
X0059513Y0488418D01*
X0059972Y0487959D01*
X0059972Y0486122D01*
X0059513Y0485663D01*
X0058595Y0485663D01*
X0058135Y0486122D01*
X0057253Y0485663D02*
X0055417Y0487500D01*
X0055417Y0487959D01*
X0055417Y0485663D02*
X0057253Y0485663D01*
X0067462Y0478116D02*
X0069298Y0476280D01*
X0068839Y0475820D01*
X0067921Y0475820D01*
X0067462Y0476280D01*
X0067462Y0478116D01*
X0067921Y0478576D01*
X0068839Y0478576D01*
X0069298Y0478116D01*
X0069298Y0476280D01*
X0070180Y0477198D02*
X0072017Y0477198D01*
X0070640Y0478576D01*
X0070640Y0475820D01*
X0072899Y0475820D02*
X0073818Y0476739D01*
X0073358Y0476739D02*
X0074736Y0476739D01*
X0074736Y0475820D02*
X0074736Y0478576D01*
X0073358Y0478576D01*
X0072899Y0478116D01*
X0072899Y0477198D01*
X0073358Y0476739D01*
X0073358Y0466765D02*
X0072899Y0466305D01*
X0072899Y0465387D01*
X0073358Y0464928D01*
X0074736Y0464928D01*
X0073818Y0464928D02*
X0072899Y0464009D01*
X0072017Y0464469D02*
X0071558Y0464009D01*
X0070640Y0464009D01*
X0070180Y0464469D01*
X0070180Y0464928D01*
X0070640Y0465387D01*
X0071099Y0465387D01*
X0070640Y0465387D02*
X0070180Y0465846D01*
X0070180Y0466305D01*
X0070640Y0466765D01*
X0071558Y0466765D01*
X0072017Y0466305D01*
X0073358Y0466765D02*
X0074736Y0466765D01*
X0074736Y0464009D01*
X0069298Y0464469D02*
X0068839Y0464009D01*
X0067921Y0464009D01*
X0067462Y0464469D01*
X0067462Y0466305D01*
X0067921Y0466765D01*
X0068839Y0466765D01*
X0069298Y0466305D01*
X0069298Y0465846D01*
X0068839Y0465387D01*
X0067462Y0465387D01*
X0030970Y0502395D02*
X0030051Y0502395D01*
X0029592Y0502854D01*
X0028710Y0502395D02*
X0026873Y0502395D01*
X0027792Y0502395D02*
X0027792Y0505150D01*
X0028710Y0504232D01*
X0029592Y0504691D02*
X0030051Y0505150D01*
X0030970Y0505150D01*
X0031429Y0504691D01*
X0031429Y0502854D01*
X0030970Y0502395D01*
X0025991Y0502854D02*
X0025532Y0502395D01*
X0024614Y0502395D01*
X0024154Y0502854D01*
X0024154Y0504691D01*
X0024614Y0505150D01*
X0025532Y0505150D01*
X0025991Y0504691D01*
X0025991Y0504232D01*
X0025532Y0503773D01*
X0024154Y0503773D01*
X0083420Y0570230D02*
X0084338Y0570230D01*
X0084797Y0570689D01*
X0082961Y0572526D01*
X0082961Y0570689D01*
X0083420Y0570230D01*
X0084797Y0570689D02*
X0084797Y0572526D01*
X0084338Y0572985D01*
X0083420Y0572985D01*
X0082961Y0572526D01*
X0085679Y0572985D02*
X0087516Y0572985D01*
X0087516Y0571607D01*
X0086598Y0572067D01*
X0086139Y0572067D01*
X0085679Y0571607D01*
X0085679Y0570689D01*
X0086139Y0570230D01*
X0087057Y0570230D01*
X0087516Y0570689D01*
X0088398Y0570230D02*
X0089317Y0571148D01*
X0088857Y0571148D02*
X0090235Y0571148D01*
X0090235Y0570230D02*
X0090235Y0572985D01*
X0088857Y0572985D01*
X0088398Y0572526D01*
X0088398Y0571607D01*
X0088857Y0571148D01*
X0126196Y0574698D02*
X0128951Y0574698D01*
X0128951Y0576076D01*
X0128492Y0576535D01*
X0127573Y0576535D01*
X0127114Y0576076D01*
X0127114Y0574698D01*
X0127114Y0575617D02*
X0126196Y0576535D01*
X0127573Y0577417D02*
X0127573Y0579254D01*
X0128033Y0580136D02*
X0128951Y0581054D01*
X0126196Y0581054D01*
X0126196Y0580136D02*
X0126196Y0581973D01*
X0126196Y0578795D02*
X0128951Y0578795D01*
X0127573Y0577417D01*
X0190165Y0468062D02*
X0190899Y0468062D01*
X0191266Y0467695D01*
X0192008Y0467695D02*
X0192375Y0468062D01*
X0193109Y0468062D01*
X0193476Y0467695D01*
X0192008Y0467695D02*
X0192008Y0467328D01*
X0193476Y0465860D01*
X0192008Y0465860D01*
X0191266Y0465860D02*
X0189798Y0467328D01*
X0189798Y0467695D01*
X0190165Y0468062D01*
X0189798Y0465860D02*
X0191266Y0465860D01*
X0183267Y0454322D02*
X0183634Y0453955D01*
X0183267Y0454322D02*
X0182533Y0454322D01*
X0182166Y0453955D01*
X0182166Y0453588D01*
X0183634Y0452120D01*
X0182166Y0452120D01*
X0181424Y0452120D02*
X0179956Y0452120D01*
X0180690Y0452120D02*
X0180690Y0454322D01*
X0181424Y0453588D01*
X0181254Y0407117D02*
X0180520Y0407117D01*
X0180153Y0406750D01*
X0180153Y0406383D01*
X0180520Y0406016D01*
X0180153Y0405649D01*
X0180153Y0405282D01*
X0180520Y0404915D01*
X0181254Y0404915D01*
X0181621Y0405282D01*
X0182363Y0404915D02*
X0183830Y0404915D01*
X0183096Y0404915D02*
X0183096Y0407117D01*
X0183830Y0406383D01*
X0181621Y0406750D02*
X0181254Y0407117D01*
X0180887Y0406016D02*
X0180520Y0406016D01*
X0189968Y0394164D02*
X0190702Y0394164D01*
X0191069Y0393797D01*
X0189968Y0394164D02*
X0189601Y0393797D01*
X0189601Y0393430D01*
X0191069Y0391962D01*
X0189601Y0391962D01*
X0191811Y0391962D02*
X0193279Y0391962D01*
X0192545Y0391962D02*
X0192545Y0394164D01*
X0193279Y0393430D01*
X0252835Y0392395D02*
X0254303Y0392395D01*
X0253569Y0392395D02*
X0253569Y0394597D01*
X0254303Y0393863D01*
X0262239Y0404915D02*
X0263707Y0404915D01*
X0262239Y0406383D01*
X0262239Y0406750D01*
X0262606Y0407117D01*
X0263340Y0407117D01*
X0263707Y0406750D01*
X0264449Y0406016D02*
X0265917Y0406016D01*
X0264816Y0407117D01*
X0264816Y0404915D01*
X0281668Y0436076D02*
X0284423Y0436076D01*
X0284423Y0437454D01*
X0283964Y0437913D01*
X0283046Y0437913D01*
X0282587Y0437454D01*
X0282587Y0436076D01*
X0282587Y0436995D02*
X0281668Y0437913D01*
X0282127Y0438795D02*
X0281668Y0439254D01*
X0281668Y0440173D01*
X0282127Y0440632D01*
X0283046Y0440632D01*
X0283505Y0440173D01*
X0283505Y0439714D01*
X0283046Y0438795D01*
X0284423Y0438795D01*
X0284423Y0440632D01*
X0283505Y0441514D02*
X0284423Y0442432D01*
X0281668Y0442432D01*
X0281668Y0441514D02*
X0281668Y0443351D01*
X0282206Y0450978D02*
X0281747Y0451437D01*
X0281747Y0452355D01*
X0282206Y0452815D01*
X0281747Y0453697D02*
X0283584Y0455534D01*
X0284043Y0455534D01*
X0284502Y0455074D01*
X0284502Y0454156D01*
X0284043Y0453697D01*
X0284043Y0452815D02*
X0284502Y0452355D01*
X0284502Y0451437D01*
X0284043Y0450978D01*
X0282206Y0450978D01*
X0281747Y0453697D02*
X0281747Y0455534D01*
X0282206Y0456416D02*
X0281747Y0456875D01*
X0281747Y0457793D01*
X0282206Y0458252D01*
X0282665Y0458252D01*
X0283125Y0457793D01*
X0283125Y0456416D01*
X0282206Y0456416D01*
X0283125Y0456416D02*
X0284043Y0457334D01*
X0284502Y0458252D01*
X0278759Y0467946D02*
X0278759Y0470702D01*
X0277381Y0470702D01*
X0276922Y0470242D01*
X0276922Y0469324D01*
X0277381Y0468865D01*
X0278759Y0468865D01*
X0277840Y0468865D02*
X0276922Y0467946D01*
X0276040Y0468406D02*
X0275581Y0467946D01*
X0274662Y0467946D01*
X0274203Y0468406D01*
X0274203Y0469324D01*
X0274662Y0469783D01*
X0275121Y0469783D01*
X0276040Y0469324D01*
X0276040Y0470702D01*
X0274203Y0470702D01*
X0273321Y0470242D02*
X0272862Y0470702D01*
X0271943Y0470702D01*
X0271484Y0470242D01*
X0271484Y0469783D01*
X0273321Y0467946D01*
X0271484Y0467946D01*
X0263975Y0454203D02*
X0263241Y0454203D01*
X0262874Y0453836D01*
X0262874Y0453469D01*
X0263241Y0453103D01*
X0262874Y0452736D01*
X0262874Y0452369D01*
X0263241Y0452002D01*
X0263975Y0452002D01*
X0264342Y0452369D01*
X0263608Y0453103D02*
X0263241Y0453103D01*
X0262132Y0453103D02*
X0260664Y0453103D01*
X0261031Y0454203D02*
X0262132Y0453103D01*
X0261031Y0454203D02*
X0261031Y0452002D01*
X0263975Y0454203D02*
X0264342Y0453836D01*
X0254133Y0465820D02*
X0253399Y0465820D01*
X0253032Y0466187D01*
X0253032Y0466554D01*
X0253399Y0466921D01*
X0253766Y0466921D01*
X0253399Y0466921D02*
X0253032Y0467288D01*
X0253032Y0467655D01*
X0253399Y0468022D01*
X0254133Y0468022D01*
X0254500Y0467655D01*
X0254500Y0466187D02*
X0254133Y0465820D01*
X0252290Y0466187D02*
X0251923Y0465820D01*
X0251189Y0465820D01*
X0250822Y0466187D01*
X0250822Y0466554D01*
X0251189Y0466921D01*
X0251556Y0466921D01*
X0251189Y0466921D02*
X0250822Y0467288D01*
X0250822Y0467655D01*
X0251189Y0468022D01*
X0251923Y0468022D01*
X0252290Y0467655D01*
X0254529Y0474554D02*
X0254070Y0475013D01*
X0254070Y0475931D01*
X0254529Y0476390D01*
X0254070Y0477273D02*
X0255907Y0479109D01*
X0256366Y0479109D01*
X0256825Y0478650D01*
X0256825Y0477732D01*
X0256366Y0477273D01*
X0256366Y0476390D02*
X0256825Y0475931D01*
X0256825Y0475013D01*
X0256366Y0474554D01*
X0254529Y0474554D01*
X0254070Y0477273D02*
X0254070Y0479109D01*
X0254070Y0479991D02*
X0254529Y0479991D01*
X0256366Y0481828D01*
X0256825Y0481828D01*
X0256825Y0479991D01*
X0286248Y0476148D02*
X0286248Y0475689D01*
X0286707Y0475230D01*
X0287626Y0475230D01*
X0288085Y0475689D01*
X0288085Y0476148D01*
X0287626Y0476607D01*
X0286707Y0476607D01*
X0286248Y0476148D01*
X0286707Y0475230D02*
X0286248Y0474770D01*
X0286248Y0474311D01*
X0286707Y0473852D01*
X0287626Y0473852D01*
X0288085Y0474311D01*
X0288085Y0474770D01*
X0287626Y0475230D01*
X0288967Y0475689D02*
X0288967Y0476148D01*
X0289426Y0476607D01*
X0290344Y0476607D01*
X0290804Y0476148D01*
X0291686Y0476148D02*
X0292145Y0476607D01*
X0293063Y0476607D01*
X0293522Y0476148D01*
X0293522Y0474311D01*
X0293063Y0473852D01*
X0292145Y0473852D01*
X0291686Y0474311D01*
X0290804Y0473852D02*
X0288967Y0475689D01*
X0288967Y0473852D02*
X0290804Y0473852D01*
X0288400Y0304648D02*
X0287941Y0303729D01*
X0287022Y0302811D01*
X0287022Y0304189D01*
X0286563Y0304648D01*
X0286104Y0304648D01*
X0285645Y0304189D01*
X0285645Y0303270D01*
X0286104Y0302811D01*
X0287022Y0302811D01*
X0287022Y0301929D02*
X0286563Y0301470D01*
X0286563Y0300092D01*
X0285645Y0300092D02*
X0288400Y0300092D01*
X0288400Y0301470D01*
X0287941Y0301929D01*
X0287022Y0301929D01*
X0286563Y0301010D02*
X0285645Y0301929D01*
X0263636Y0302373D02*
X0263636Y0304210D01*
X0263177Y0304210D01*
X0261340Y0302373D01*
X0260881Y0302373D01*
X0260881Y0301491D02*
X0261799Y0300573D01*
X0261799Y0301032D02*
X0261799Y0299654D01*
X0260881Y0299654D02*
X0263636Y0299654D01*
X0263636Y0301032D01*
X0263177Y0301491D01*
X0262258Y0301491D01*
X0261799Y0301032D01*
X0229999Y0301331D02*
X0228621Y0301331D01*
X0228162Y0300872D01*
X0228162Y0299954D01*
X0228621Y0299495D01*
X0229999Y0299495D01*
X0229080Y0299495D02*
X0228162Y0298576D01*
X0227280Y0299954D02*
X0225443Y0299954D01*
X0224561Y0299954D02*
X0223643Y0300413D01*
X0223184Y0300413D01*
X0222724Y0299954D01*
X0222724Y0299036D01*
X0223184Y0298576D01*
X0224102Y0298576D01*
X0224561Y0299036D01*
X0224561Y0299954D02*
X0224561Y0301331D01*
X0222724Y0301331D01*
X0220156Y0301331D02*
X0218779Y0301331D01*
X0218320Y0300872D01*
X0218320Y0299954D01*
X0218779Y0299495D01*
X0220156Y0299495D01*
X0219238Y0299495D02*
X0218320Y0298576D01*
X0217437Y0299954D02*
X0215601Y0299954D01*
X0214719Y0299954D02*
X0213341Y0299954D01*
X0212882Y0299495D01*
X0212882Y0299036D01*
X0213341Y0298576D01*
X0214259Y0298576D01*
X0214719Y0299036D01*
X0214719Y0299954D01*
X0213800Y0300872D01*
X0212882Y0301331D01*
X0216060Y0301331D02*
X0217437Y0299954D01*
X0216060Y0301331D02*
X0216060Y0298576D01*
X0220156Y0298576D02*
X0220156Y0301331D01*
X0225902Y0301331D02*
X0227280Y0299954D01*
X0225902Y0298576D02*
X0225902Y0301331D01*
X0229999Y0301331D02*
X0229999Y0298576D01*
X0229870Y0273152D02*
X0230329Y0272692D01*
X0230329Y0271774D01*
X0229870Y0271315D01*
X0229410Y0271315D01*
X0228951Y0271774D01*
X0228951Y0273152D01*
X0228033Y0273152D02*
X0229870Y0273152D01*
X0228033Y0273152D02*
X0227574Y0272692D01*
X0227574Y0271774D01*
X0228033Y0271315D01*
X0227574Y0270433D02*
X0228492Y0269514D01*
X0228492Y0269974D02*
X0228492Y0268596D01*
X0227574Y0268596D02*
X0230329Y0268596D01*
X0230329Y0269974D01*
X0229870Y0270433D01*
X0228951Y0270433D01*
X0228492Y0269974D01*
X0228492Y0263309D02*
X0228033Y0263309D01*
X0227574Y0262850D01*
X0227574Y0261932D01*
X0228033Y0261472D01*
X0228492Y0261472D01*
X0228951Y0261932D01*
X0228951Y0262850D01*
X0228492Y0263309D01*
X0228951Y0262850D02*
X0229410Y0263309D01*
X0229870Y0263309D01*
X0230329Y0262850D01*
X0230329Y0261932D01*
X0229870Y0261472D01*
X0229410Y0261472D01*
X0228951Y0261932D01*
X0228951Y0260590D02*
X0228492Y0260131D01*
X0228492Y0258754D01*
X0228492Y0259672D02*
X0227574Y0260590D01*
X0228951Y0260590D02*
X0229870Y0260590D01*
X0230329Y0260131D01*
X0230329Y0258754D01*
X0227574Y0258754D01*
X0228033Y0253233D02*
X0227574Y0252774D01*
X0227574Y0251855D01*
X0228033Y0251396D01*
X0227574Y0250514D02*
X0227574Y0248677D01*
X0227574Y0247795D02*
X0228492Y0246877D01*
X0228492Y0247336D02*
X0228492Y0245958D01*
X0227574Y0245958D02*
X0230329Y0245958D01*
X0230329Y0247336D01*
X0229870Y0247795D01*
X0228951Y0247795D01*
X0228492Y0247336D01*
X0229410Y0248677D02*
X0230329Y0249595D01*
X0227574Y0249595D01*
X0229870Y0251396D02*
X0230329Y0251855D01*
X0230329Y0252774D01*
X0229870Y0253233D01*
X0229410Y0253233D01*
X0228951Y0252774D01*
X0228492Y0253233D01*
X0228033Y0253233D01*
X0228951Y0252774D02*
X0228951Y0252314D01*
X0229410Y0243390D02*
X0229870Y0243390D01*
X0230329Y0242931D01*
X0230329Y0242013D01*
X0229870Y0241553D01*
X0230329Y0239753D02*
X0227574Y0239753D01*
X0227574Y0238835D02*
X0227574Y0240671D01*
X0227574Y0241553D02*
X0229410Y0243390D01*
X0227574Y0243390D02*
X0227574Y0241553D01*
X0229410Y0238835D02*
X0230329Y0239753D01*
X0229870Y0237952D02*
X0230329Y0237493D01*
X0230329Y0236116D01*
X0227574Y0236116D01*
X0228492Y0236116D02*
X0228492Y0237493D01*
X0228951Y0237952D01*
X0229870Y0237952D01*
X0228492Y0237034D02*
X0227574Y0237952D01*
X0227574Y0231579D02*
X0227574Y0229742D01*
X0227574Y0228860D02*
X0227574Y0227024D01*
X0229410Y0228860D01*
X0229870Y0228860D01*
X0230329Y0228401D01*
X0230329Y0227483D01*
X0229870Y0227024D01*
X0229870Y0226141D02*
X0228951Y0226141D01*
X0228492Y0225682D01*
X0228492Y0224305D01*
X0228492Y0225223D02*
X0227574Y0226141D01*
X0227574Y0224305D02*
X0230329Y0224305D01*
X0230329Y0225682D01*
X0229870Y0226141D01*
X0229410Y0229742D02*
X0230329Y0230661D01*
X0227574Y0230661D01*
X0228033Y0221737D02*
X0227574Y0221277D01*
X0227574Y0220359D01*
X0228033Y0219900D01*
X0228492Y0219900D01*
X0228951Y0220359D01*
X0228951Y0221277D01*
X0228492Y0221737D01*
X0228033Y0221737D01*
X0228951Y0221277D02*
X0229410Y0221737D01*
X0229870Y0221737D01*
X0230329Y0221277D01*
X0230329Y0220359D01*
X0229870Y0219900D01*
X0229410Y0219900D01*
X0228951Y0220359D01*
X0227574Y0219018D02*
X0227574Y0217181D01*
X0227574Y0216299D02*
X0228492Y0215381D01*
X0228492Y0215840D02*
X0228492Y0214462D01*
X0227574Y0214462D02*
X0230329Y0214462D01*
X0230329Y0215840D01*
X0229870Y0216299D01*
X0228951Y0216299D01*
X0228492Y0215840D01*
X0229410Y0217181D02*
X0230329Y0218099D01*
X0227574Y0218099D01*
X0227574Y0209926D02*
X0227574Y0208089D01*
X0227574Y0207207D02*
X0227574Y0205370D01*
X0227574Y0204488D02*
X0228492Y0203570D01*
X0228492Y0204029D02*
X0228492Y0202651D01*
X0227574Y0202651D02*
X0230329Y0202651D01*
X0230329Y0204029D01*
X0229870Y0204488D01*
X0228951Y0204488D01*
X0228492Y0204029D01*
X0229410Y0205370D02*
X0230329Y0206288D01*
X0227574Y0206288D01*
X0229410Y0208089D02*
X0230329Y0209007D01*
X0227574Y0209007D01*
X0228230Y0200083D02*
X0227771Y0199624D01*
X0227771Y0198706D01*
X0228230Y0198246D01*
X0230067Y0200083D01*
X0228230Y0200083D01*
X0230067Y0200083D02*
X0230526Y0199624D01*
X0230526Y0198706D01*
X0230067Y0198246D01*
X0228230Y0198246D01*
X0227771Y0197364D02*
X0227771Y0195528D01*
X0227771Y0194645D02*
X0228689Y0193727D01*
X0228689Y0194186D02*
X0228689Y0192809D01*
X0227771Y0192809D02*
X0230526Y0192809D01*
X0230526Y0194186D01*
X0230067Y0194645D01*
X0229148Y0194645D01*
X0228689Y0194186D01*
X0229607Y0195528D02*
X0230526Y0196446D01*
X0227771Y0196446D01*
X0200799Y0202539D02*
X0200340Y0202080D01*
X0199421Y0202080D01*
X0198962Y0202539D01*
X0198080Y0203458D02*
X0196243Y0203458D01*
X0196703Y0204835D02*
X0198080Y0203458D01*
X0198962Y0204376D02*
X0199421Y0204835D01*
X0200340Y0204835D01*
X0200799Y0204376D01*
X0200799Y0202539D01*
X0196703Y0202080D02*
X0196703Y0204835D01*
X0195408Y0207120D02*
X0195867Y0207579D01*
X0195867Y0209416D01*
X0195408Y0209875D01*
X0194030Y0209875D01*
X0194030Y0207120D01*
X0195408Y0207120D01*
X0198080Y0222946D02*
X0198080Y0223406D01*
X0196243Y0225242D01*
X0196243Y0225702D01*
X0198080Y0225702D01*
X0198962Y0225242D02*
X0199421Y0225702D01*
X0200340Y0225702D01*
X0200799Y0225242D01*
X0200799Y0223406D01*
X0200340Y0222946D01*
X0199421Y0222946D01*
X0198962Y0223406D01*
X0195867Y0228773D02*
X0194949Y0229692D01*
X0195408Y0229692D02*
X0194030Y0229692D01*
X0194030Y0228773D02*
X0194030Y0231528D01*
X0195408Y0231528D01*
X0195867Y0231069D01*
X0195867Y0230151D01*
X0195408Y0229692D01*
X0196703Y0244600D02*
X0197621Y0244600D01*
X0198080Y0245059D01*
X0198962Y0245059D02*
X0199421Y0244600D01*
X0200340Y0244600D01*
X0200799Y0245059D01*
X0200799Y0246896D01*
X0200340Y0247355D01*
X0199421Y0247355D01*
X0198962Y0246896D01*
X0198080Y0247355D02*
X0198080Y0245978D01*
X0197162Y0246437D01*
X0196703Y0246437D01*
X0196243Y0245978D01*
X0196243Y0245059D01*
X0196703Y0244600D01*
X0196243Y0247355D02*
X0198080Y0247355D01*
X0196090Y0250427D02*
X0195172Y0250427D01*
X0194713Y0250886D01*
X0194713Y0253182D01*
X0196549Y0253182D02*
X0196549Y0250886D01*
X0196090Y0250427D01*
X0196243Y0266254D02*
X0198080Y0266254D01*
X0196243Y0268090D01*
X0196243Y0268549D01*
X0196703Y0269009D01*
X0197621Y0269009D01*
X0198080Y0268549D01*
X0198962Y0268549D02*
X0199421Y0269009D01*
X0200340Y0269009D01*
X0200799Y0268549D01*
X0200799Y0266713D01*
X0200340Y0266254D01*
X0199421Y0266254D01*
X0198962Y0266713D01*
X0195867Y0274049D02*
X0194030Y0274049D01*
X0194030Y0276804D01*
X0189113Y0272329D02*
X0189113Y0270492D01*
X0188654Y0270033D01*
X0187735Y0270033D01*
X0187276Y0270492D01*
X0186394Y0270492D02*
X0185935Y0270033D01*
X0185017Y0270033D01*
X0184557Y0270492D01*
X0184557Y0270951D01*
X0185017Y0271411D01*
X0185476Y0271411D01*
X0185017Y0271411D02*
X0184557Y0271870D01*
X0184557Y0272329D01*
X0185017Y0272788D01*
X0185935Y0272788D01*
X0186394Y0272329D01*
X0187276Y0272329D02*
X0187735Y0272788D01*
X0188654Y0272788D01*
X0189113Y0272329D01*
X0183675Y0271411D02*
X0182298Y0271411D01*
X0181839Y0270951D01*
X0181839Y0270492D01*
X0182298Y0270033D01*
X0183216Y0270033D01*
X0183675Y0270492D01*
X0183675Y0271411D01*
X0182757Y0272329D01*
X0181839Y0272788D01*
X0173365Y0272329D02*
X0173365Y0270492D01*
X0172906Y0270033D01*
X0171987Y0270033D01*
X0171528Y0270492D01*
X0170646Y0271411D02*
X0168809Y0271411D01*
X0167927Y0272329D02*
X0167468Y0272788D01*
X0166550Y0272788D01*
X0166091Y0272329D01*
X0167927Y0270492D01*
X0167468Y0270033D01*
X0166550Y0270033D01*
X0166091Y0270492D01*
X0166091Y0272329D01*
X0167927Y0272329D02*
X0167927Y0270492D01*
X0169269Y0270033D02*
X0169269Y0272788D01*
X0170646Y0271411D01*
X0171528Y0272329D02*
X0171987Y0272788D01*
X0172906Y0272788D01*
X0173365Y0272329D01*
X0157158Y0253103D02*
X0157617Y0252644D01*
X0157617Y0250807D01*
X0157158Y0250348D01*
X0156239Y0250348D01*
X0155780Y0250807D01*
X0154898Y0250807D02*
X0154439Y0250348D01*
X0153521Y0250348D01*
X0153061Y0250807D01*
X0153061Y0251266D01*
X0153521Y0251726D01*
X0153980Y0251726D01*
X0153521Y0251726D02*
X0153061Y0252185D01*
X0153061Y0252644D01*
X0153521Y0253103D01*
X0154439Y0253103D01*
X0154898Y0252644D01*
X0155780Y0252644D02*
X0156239Y0253103D01*
X0157158Y0253103D01*
X0152179Y0252644D02*
X0152179Y0252185D01*
X0151720Y0251726D01*
X0150802Y0251726D01*
X0150342Y0251266D01*
X0150342Y0250807D01*
X0150802Y0250348D01*
X0151720Y0250348D01*
X0152179Y0250807D01*
X0152179Y0251266D01*
X0151720Y0251726D01*
X0150802Y0251726D02*
X0150342Y0252185D01*
X0150342Y0252644D01*
X0150802Y0253103D01*
X0151720Y0253103D01*
X0152179Y0252644D01*
X0146948Y0259285D02*
X0146948Y0262040D01*
X0145570Y0262040D01*
X0145111Y0261581D01*
X0145111Y0260663D01*
X0145570Y0260203D01*
X0146948Y0260203D01*
X0146029Y0260203D02*
X0145111Y0259285D01*
X0144229Y0259744D02*
X0143770Y0259285D01*
X0142851Y0259285D01*
X0142392Y0259744D01*
X0142392Y0260663D01*
X0142851Y0261122D01*
X0143310Y0261122D01*
X0144229Y0260663D01*
X0144229Y0262040D01*
X0142392Y0262040D01*
X0141510Y0262040D02*
X0139673Y0262040D01*
X0139673Y0261581D01*
X0141510Y0259744D01*
X0141510Y0259285D01*
X0134979Y0259587D02*
X0134979Y0261423D01*
X0134520Y0261883D01*
X0133602Y0261883D01*
X0133142Y0261423D01*
X0132260Y0260964D02*
X0131342Y0261883D01*
X0131342Y0259128D01*
X0132260Y0259128D02*
X0130424Y0259128D01*
X0129541Y0259128D02*
X0127705Y0260964D01*
X0127705Y0261423D01*
X0128164Y0261883D01*
X0129082Y0261883D01*
X0129541Y0261423D01*
X0129541Y0259128D02*
X0127705Y0259128D01*
X0123168Y0259665D02*
X0123168Y0261502D01*
X0122709Y0261961D01*
X0121791Y0261961D01*
X0121331Y0261502D01*
X0120449Y0261502D02*
X0119990Y0261961D01*
X0119072Y0261961D01*
X0118613Y0261502D01*
X0118613Y0261043D01*
X0119072Y0260584D01*
X0118613Y0260125D01*
X0118613Y0259665D01*
X0119072Y0259206D01*
X0119990Y0259206D01*
X0120449Y0259665D01*
X0121331Y0259665D02*
X0121791Y0259206D01*
X0122709Y0259206D01*
X0123168Y0259665D01*
X0119531Y0260584D02*
X0119072Y0260584D01*
X0117730Y0261043D02*
X0117271Y0260584D01*
X0115894Y0260584D01*
X0115894Y0261502D02*
X0116353Y0261961D01*
X0117271Y0261961D01*
X0117730Y0261502D01*
X0117730Y0261043D01*
X0117730Y0259665D02*
X0117271Y0259206D01*
X0116353Y0259206D01*
X0115894Y0259665D01*
X0115894Y0261502D01*
X0133142Y0259587D02*
X0133602Y0259128D01*
X0134520Y0259128D01*
X0134979Y0259587D01*
X0151327Y0229481D02*
X0151327Y0229022D01*
X0153163Y0227185D01*
X0153163Y0226726D01*
X0154046Y0227185D02*
X0154505Y0226726D01*
X0155423Y0226726D01*
X0155882Y0227185D01*
X0156764Y0227185D02*
X0157224Y0226726D01*
X0158142Y0226726D01*
X0158601Y0227185D01*
X0158601Y0229022D01*
X0158142Y0229481D01*
X0157224Y0229481D01*
X0156764Y0229022D01*
X0155882Y0229022D02*
X0155423Y0229481D01*
X0154505Y0229481D01*
X0154046Y0229022D01*
X0154046Y0228563D01*
X0154505Y0228104D01*
X0154046Y0227644D01*
X0154046Y0227185D01*
X0154505Y0228104D02*
X0154964Y0228104D01*
X0153163Y0229481D02*
X0151327Y0229481D01*
X0099093Y0253301D02*
X0099093Y0256056D01*
X0097716Y0256056D01*
X0097257Y0255597D01*
X0097257Y0254678D01*
X0097716Y0254219D01*
X0099093Y0254219D01*
X0098175Y0254219D02*
X0097257Y0253301D01*
X0096374Y0253760D02*
X0095915Y0253301D01*
X0094997Y0253301D01*
X0094538Y0253760D01*
X0094538Y0254219D01*
X0094997Y0254678D01*
X0095456Y0254678D01*
X0094997Y0254678D02*
X0094538Y0255138D01*
X0094538Y0255597D01*
X0094997Y0256056D01*
X0095915Y0256056D01*
X0096374Y0255597D01*
X0093656Y0254678D02*
X0092278Y0254678D01*
X0091819Y0254219D01*
X0091819Y0253760D01*
X0092278Y0253301D01*
X0093196Y0253301D01*
X0093656Y0253760D01*
X0093656Y0254678D01*
X0092737Y0255597D01*
X0091819Y0256056D01*
X0091747Y0275939D02*
X0091287Y0276398D01*
X0091287Y0276857D01*
X0091747Y0277316D01*
X0093124Y0277316D01*
X0093124Y0276398D01*
X0092665Y0275939D01*
X0091747Y0275939D01*
X0093124Y0277316D02*
X0092206Y0278234D01*
X0091287Y0278694D01*
X0094925Y0278694D02*
X0094925Y0275939D01*
X0095843Y0275939D02*
X0094006Y0275939D01*
X0095843Y0277775D02*
X0094925Y0278694D01*
X0096725Y0278234D02*
X0097184Y0278694D01*
X0098103Y0278694D01*
X0098562Y0278234D01*
X0098562Y0276398D01*
X0098103Y0275939D01*
X0097184Y0275939D01*
X0096725Y0276398D01*
X0034001Y0207001D02*
X0034460Y0206542D01*
X0034460Y0204705D01*
X0034001Y0204246D01*
X0033083Y0204246D01*
X0032624Y0204705D01*
X0031742Y0204246D02*
X0029905Y0204246D01*
X0030823Y0204246D02*
X0030823Y0207001D01*
X0031742Y0206082D01*
X0032624Y0206542D02*
X0033083Y0207001D01*
X0034001Y0207001D01*
X0029023Y0207001D02*
X0029023Y0205623D01*
X0028104Y0206082D01*
X0027645Y0206082D01*
X0027186Y0205623D01*
X0027186Y0204705D01*
X0027645Y0204246D01*
X0028563Y0204246D01*
X0029023Y0204705D01*
X0029023Y0207001D02*
X0027186Y0207001D01*
X0206241Y0108038D02*
X0206241Y0107578D01*
X0206700Y0107119D01*
X0207619Y0107119D01*
X0208078Y0107578D01*
X0208078Y0108038D01*
X0207619Y0108497D01*
X0206700Y0108497D01*
X0206241Y0108038D01*
X0206700Y0107119D02*
X0206241Y0106660D01*
X0206241Y0106201D01*
X0206700Y0105742D01*
X0207619Y0105742D01*
X0208078Y0106201D01*
X0208078Y0106660D01*
X0207619Y0107119D01*
X0208960Y0107578D02*
X0208960Y0108038D01*
X0209419Y0108497D01*
X0210337Y0108497D01*
X0210797Y0108038D01*
X0211679Y0108038D02*
X0211679Y0107119D01*
X0212138Y0106660D01*
X0213515Y0106660D01*
X0212597Y0106660D02*
X0211679Y0105742D01*
X0210797Y0105742D02*
X0208960Y0107578D01*
X0208960Y0105742D02*
X0210797Y0105742D01*
X0211679Y0108038D02*
X0212138Y0108497D01*
X0213515Y0108497D01*
X0213515Y0105742D01*
X0221287Y0097670D02*
X0221287Y0097211D01*
X0223124Y0095374D01*
X0223124Y0094915D01*
X0224006Y0094915D02*
X0225843Y0094915D01*
X0224006Y0096752D01*
X0224006Y0097211D01*
X0224465Y0097670D01*
X0225384Y0097670D01*
X0225843Y0097211D01*
X0226725Y0097211D02*
X0226725Y0096293D01*
X0227184Y0095833D01*
X0228562Y0095833D01*
X0228562Y0094915D02*
X0228562Y0097670D01*
X0227184Y0097670D01*
X0226725Y0097211D01*
X0227643Y0095833D02*
X0226725Y0094915D01*
X0223124Y0097670D02*
X0221287Y0097670D01*
X0224017Y0087143D02*
X0223558Y0086684D01*
X0223558Y0085766D01*
X0224017Y0085306D01*
X0223558Y0084424D02*
X0223558Y0082587D01*
X0225395Y0084424D01*
X0225854Y0084424D01*
X0226313Y0083965D01*
X0226313Y0083047D01*
X0225854Y0082587D01*
X0225854Y0081705D02*
X0224936Y0081705D01*
X0224476Y0081246D01*
X0224476Y0079869D01*
X0224476Y0080787D02*
X0223558Y0081705D01*
X0223558Y0079869D02*
X0226313Y0079869D01*
X0226313Y0081246D01*
X0225854Y0081705D01*
X0225854Y0085306D02*
X0226313Y0085766D01*
X0226313Y0086684D01*
X0225854Y0087143D01*
X0225395Y0087143D01*
X0224936Y0086684D01*
X0224476Y0087143D01*
X0224017Y0087143D01*
X0224936Y0086684D02*
X0224936Y0086225D01*
X0233800Y0085466D02*
X0235637Y0085466D01*
X0234259Y0086843D01*
X0234259Y0084088D01*
X0236519Y0084088D02*
X0238356Y0084088D01*
X0236519Y0085925D01*
X0236519Y0086384D01*
X0236978Y0086843D01*
X0237897Y0086843D01*
X0238356Y0086384D01*
X0239238Y0086384D02*
X0239238Y0085466D01*
X0239697Y0085007D01*
X0241075Y0085007D01*
X0241075Y0084088D02*
X0241075Y0086843D01*
X0239697Y0086843D01*
X0239238Y0086384D01*
X0240156Y0085007D02*
X0239238Y0084088D01*
X0248164Y0085532D02*
X0248164Y0086450D01*
X0248623Y0086909D01*
X0248164Y0087791D02*
X0248164Y0089628D01*
X0248164Y0090510D02*
X0248164Y0092347D01*
X0248164Y0091429D02*
X0250919Y0091429D01*
X0250001Y0090510D01*
X0250919Y0088710D02*
X0248164Y0088710D01*
X0250001Y0087791D02*
X0250919Y0088710D01*
X0250460Y0086909D02*
X0250919Y0086450D01*
X0250919Y0085532D01*
X0250460Y0085072D01*
X0248623Y0085072D01*
X0248164Y0085532D01*
X0248623Y0080399D02*
X0248164Y0079940D01*
X0248164Y0079022D01*
X0248623Y0078562D01*
X0249542Y0078562D02*
X0250001Y0079481D01*
X0250001Y0079940D01*
X0249542Y0080399D01*
X0248623Y0080399D01*
X0249542Y0078562D02*
X0250919Y0078562D01*
X0250919Y0080399D01*
X0250460Y0077680D02*
X0249542Y0077680D01*
X0249083Y0077221D01*
X0249083Y0075844D01*
X0249083Y0076762D02*
X0248164Y0077680D01*
X0248164Y0075844D02*
X0250919Y0075844D01*
X0250919Y0077221D01*
X0250460Y0077680D01*
X0248164Y0074961D02*
X0248164Y0073125D01*
X0248164Y0074043D02*
X0250919Y0074043D01*
X0250001Y0073125D01*
X0249542Y0072243D02*
X0249542Y0070406D01*
X0249542Y0069524D02*
X0248623Y0069524D01*
X0248164Y0069065D01*
X0248164Y0068146D01*
X0248623Y0067687D01*
X0249542Y0067687D02*
X0250001Y0068605D01*
X0250001Y0069065D01*
X0249542Y0069524D01*
X0250919Y0069524D02*
X0250919Y0067687D01*
X0249542Y0067687D01*
X0248164Y0066805D02*
X0248164Y0064968D01*
X0248164Y0065887D02*
X0250919Y0065887D01*
X0250001Y0064968D01*
X0250460Y0064086D02*
X0248623Y0062249D01*
X0248164Y0062709D01*
X0248164Y0063627D01*
X0248623Y0064086D01*
X0250460Y0064086D01*
X0250919Y0063627D01*
X0250919Y0062709D01*
X0250460Y0062249D01*
X0248623Y0062249D01*
X0248623Y0061367D02*
X0248164Y0060908D01*
X0248164Y0059990D01*
X0248623Y0059531D01*
X0248164Y0058648D02*
X0249083Y0057730D01*
X0249083Y0058189D02*
X0249083Y0056812D01*
X0248164Y0056812D02*
X0250919Y0056812D01*
X0250919Y0058189D01*
X0250460Y0058648D01*
X0249542Y0058648D01*
X0249083Y0058189D01*
X0250460Y0059531D02*
X0250919Y0059990D01*
X0250919Y0060908D01*
X0250460Y0061367D01*
X0250001Y0061367D01*
X0249542Y0060908D01*
X0249083Y0061367D01*
X0248623Y0061367D01*
X0249542Y0060908D02*
X0249542Y0060449D01*
X0248164Y0055930D02*
X0250919Y0055930D01*
X0250919Y0054093D02*
X0248164Y0055930D01*
X0248164Y0054093D02*
X0250919Y0054093D01*
X0250919Y0053211D02*
X0250919Y0052292D01*
X0250919Y0052752D02*
X0248623Y0052752D01*
X0248164Y0052292D01*
X0248164Y0051833D01*
X0248623Y0051374D01*
X0248623Y0050492D02*
X0250460Y0050492D01*
X0250919Y0050033D01*
X0250919Y0048655D01*
X0248164Y0048655D01*
X0248164Y0050033D01*
X0248623Y0050492D01*
X0260141Y0057513D02*
X0261978Y0057513D01*
X0260141Y0059350D01*
X0260141Y0059809D01*
X0260600Y0060268D01*
X0261519Y0060268D01*
X0261978Y0059809D01*
X0262860Y0057513D02*
X0264697Y0057513D01*
X0264697Y0060268D01*
X0279739Y0055392D02*
X0279739Y0054473D01*
X0280198Y0054014D01*
X0280657Y0054014D01*
X0281117Y0054473D01*
X0281117Y0055392D01*
X0280657Y0055851D01*
X0280198Y0055851D01*
X0279739Y0055392D01*
X0281117Y0055392D02*
X0281576Y0055851D01*
X0282035Y0055851D01*
X0282494Y0055392D01*
X0282494Y0054473D01*
X0282035Y0054014D01*
X0281576Y0054014D01*
X0281117Y0054473D01*
X0279739Y0053132D02*
X0279739Y0051295D01*
X0279739Y0052214D02*
X0282494Y0052214D01*
X0281576Y0051295D01*
X0282035Y0050413D02*
X0282494Y0049954D01*
X0282494Y0049036D01*
X0282035Y0048576D01*
X0280198Y0048576D01*
X0279739Y0049036D01*
X0279739Y0049954D01*
X0280198Y0050413D01*
X0279934Y0076588D02*
X0278687Y0076588D01*
X0279310Y0076588D02*
X0279310Y0080328D01*
X0278687Y0080328D02*
X0279934Y0080328D01*
X0280060Y0080610D02*
X0280060Y0082447D01*
X0280519Y0082906D01*
X0281438Y0082906D01*
X0281897Y0082447D01*
X0281897Y0081988D01*
X0281438Y0081529D01*
X0280060Y0081529D01*
X0280060Y0080610D02*
X0280519Y0080151D01*
X0281438Y0080151D01*
X0281897Y0080610D01*
X0282779Y0080610D02*
X0283238Y0080151D01*
X0284156Y0080151D01*
X0284616Y0080610D01*
X0284616Y0081529D02*
X0283697Y0081988D01*
X0283238Y0081988D01*
X0282779Y0081529D01*
X0282779Y0080610D01*
X0284616Y0081529D02*
X0284616Y0082906D01*
X0282779Y0082906D01*
X0285498Y0082447D02*
X0285498Y0081529D01*
X0285957Y0081070D01*
X0287334Y0081070D01*
X0286416Y0081070D02*
X0285498Y0080151D01*
X0287334Y0080151D02*
X0287334Y0082906D01*
X0285957Y0082906D01*
X0285498Y0082447D01*
X0277517Y0079705D02*
X0277517Y0077212D01*
X0276893Y0076588D01*
X0275647Y0076588D01*
X0275023Y0077212D01*
X0273892Y0078458D02*
X0271398Y0078458D01*
X0272022Y0076588D02*
X0272022Y0080328D01*
X0273892Y0078458D01*
X0275023Y0079705D02*
X0275647Y0080328D01*
X0276893Y0080328D01*
X0277517Y0079705D01*
X0272571Y0081595D02*
X0272111Y0081135D01*
X0271193Y0081135D01*
X0270734Y0081595D01*
X0269852Y0082513D02*
X0268015Y0082513D01*
X0267133Y0083431D02*
X0266674Y0083891D01*
X0265755Y0083891D01*
X0265296Y0083431D01*
X0265296Y0082972D01*
X0267133Y0081135D01*
X0265296Y0081135D01*
X0268474Y0081135D02*
X0268474Y0083891D01*
X0269852Y0082513D01*
X0270734Y0083431D02*
X0271193Y0083891D01*
X0272111Y0083891D01*
X0272571Y0083431D01*
X0272571Y0081595D01*
X0272297Y0105742D02*
X0271378Y0105742D01*
X0270919Y0106201D01*
X0270919Y0106660D01*
X0271378Y0107119D01*
X0272756Y0107119D01*
X0272756Y0106201D01*
X0272297Y0105742D01*
X0273638Y0105742D02*
X0275475Y0105742D01*
X0276357Y0105742D02*
X0276357Y0108497D01*
X0275475Y0107578D02*
X0274556Y0108497D01*
X0274556Y0105742D01*
X0276357Y0105742D02*
X0278194Y0108497D01*
X0278194Y0105742D01*
X0279076Y0105742D02*
X0279076Y0108497D01*
X0280912Y0108497D02*
X0279076Y0105742D01*
X0280912Y0105742D02*
X0280912Y0108497D01*
X0281795Y0108038D02*
X0282254Y0108497D01*
X0283172Y0108497D01*
X0283631Y0108038D01*
X0283631Y0106201D01*
X0283172Y0105742D01*
X0282254Y0105742D01*
X0281795Y0106201D01*
X0281795Y0108038D01*
X0284513Y0108038D02*
X0284973Y0108497D01*
X0285891Y0108497D01*
X0286350Y0108038D01*
X0286350Y0106201D01*
X0285891Y0105742D01*
X0284973Y0105742D01*
X0284513Y0106201D01*
X0272756Y0107119D02*
X0271838Y0108038D01*
X0270919Y0108497D01*
X0276104Y0130144D02*
X0275645Y0130603D01*
X0275645Y0131522D01*
X0276104Y0131981D01*
X0275645Y0132863D02*
X0275645Y0134700D01*
X0275645Y0133781D02*
X0278400Y0133781D01*
X0277481Y0132863D01*
X0277941Y0131981D02*
X0278400Y0131522D01*
X0278400Y0130603D01*
X0277941Y0130144D01*
X0276104Y0130144D01*
X0276104Y0135582D02*
X0275645Y0136041D01*
X0275645Y0136959D01*
X0276104Y0137419D01*
X0276563Y0137419D01*
X0277022Y0136959D01*
X0277022Y0136500D01*
X0277022Y0136959D02*
X0277481Y0137419D01*
X0277941Y0137419D01*
X0278400Y0136959D01*
X0278400Y0136041D01*
X0277941Y0135582D01*
X0272573Y0139206D02*
X0272573Y0140584D01*
X0272114Y0141043D01*
X0271195Y0141043D01*
X0270736Y0140584D01*
X0270736Y0139206D01*
X0269818Y0139206D02*
X0272573Y0139206D01*
X0270736Y0140125D02*
X0269818Y0141043D01*
X0270277Y0141925D02*
X0269818Y0142384D01*
X0269818Y0143303D01*
X0270277Y0143762D01*
X0270736Y0143762D01*
X0271195Y0143303D01*
X0271195Y0142844D01*
X0271195Y0143303D02*
X0271655Y0143762D01*
X0272114Y0143762D01*
X0272573Y0143303D01*
X0272573Y0142384D01*
X0272114Y0141925D01*
X0271195Y0144644D02*
X0271195Y0146481D01*
X0269818Y0146022D02*
X0272573Y0146022D01*
X0271195Y0144644D01*
X0257809Y0135195D02*
X0257350Y0135654D01*
X0256891Y0135654D01*
X0256432Y0135195D01*
X0255972Y0135654D01*
X0255513Y0135654D01*
X0255054Y0135195D01*
X0255054Y0134276D01*
X0255513Y0133817D01*
X0255513Y0132935D02*
X0255054Y0132476D01*
X0255054Y0131558D01*
X0255513Y0131098D01*
X0255054Y0130216D02*
X0255972Y0129298D01*
X0255972Y0129757D02*
X0255972Y0128380D01*
X0255054Y0128380D02*
X0257809Y0128380D01*
X0257809Y0129757D01*
X0257350Y0130216D01*
X0256432Y0130216D01*
X0255972Y0129757D01*
X0257350Y0131098D02*
X0257809Y0131558D01*
X0257809Y0132476D01*
X0257350Y0132935D01*
X0256891Y0132935D01*
X0256432Y0132476D01*
X0255972Y0132935D01*
X0255513Y0132935D01*
X0256432Y0132476D02*
X0256432Y0132017D01*
X0257350Y0133817D02*
X0257809Y0134276D01*
X0257809Y0135195D01*
X0256432Y0135195D02*
X0256432Y0134736D01*
X0248951Y0134510D02*
X0248951Y0135429D01*
X0248492Y0135888D01*
X0248033Y0135888D01*
X0247573Y0135429D01*
X0247114Y0135888D01*
X0246655Y0135888D01*
X0246196Y0135429D01*
X0246196Y0134510D01*
X0246655Y0134051D01*
X0246196Y0133169D02*
X0247114Y0132251D01*
X0247114Y0132710D02*
X0247114Y0131332D01*
X0246196Y0131332D02*
X0248951Y0131332D01*
X0248951Y0132710D01*
X0248492Y0133169D01*
X0247573Y0133169D01*
X0247114Y0132710D01*
X0248492Y0134051D02*
X0248951Y0134510D01*
X0247573Y0134970D02*
X0247573Y0135429D01*
X0248033Y0136770D02*
X0248951Y0137688D01*
X0246196Y0137688D01*
X0246196Y0136770D02*
X0246196Y0138607D01*
X0228282Y0138148D02*
X0228282Y0137229D01*
X0227822Y0136770D01*
X0227822Y0135888D02*
X0227363Y0135888D01*
X0226904Y0135429D01*
X0226445Y0135888D01*
X0225986Y0135888D01*
X0225527Y0135429D01*
X0225527Y0134510D01*
X0225986Y0134051D01*
X0225527Y0133169D02*
X0226445Y0132251D01*
X0226445Y0132710D02*
X0226445Y0131332D01*
X0225527Y0131332D02*
X0228282Y0131332D01*
X0228282Y0132710D01*
X0227822Y0133169D01*
X0226904Y0133169D01*
X0226445Y0132710D01*
X0227822Y0134051D02*
X0228282Y0134510D01*
X0228282Y0135429D01*
X0227822Y0135888D01*
X0226904Y0135429D02*
X0226904Y0134970D01*
X0225527Y0136770D02*
X0227363Y0138607D01*
X0227822Y0138607D01*
X0228282Y0138148D01*
X0225527Y0138607D02*
X0225527Y0136770D01*
X0264450Y0185387D02*
X0263991Y0185847D01*
X0263991Y0186765D01*
X0264450Y0187224D01*
X0263991Y0188106D02*
X0263991Y0189943D01*
X0263991Y0189025D02*
X0266746Y0189025D01*
X0265828Y0188106D01*
X0266287Y0187224D02*
X0266746Y0186765D01*
X0266746Y0185847D01*
X0266287Y0185387D01*
X0264450Y0185387D01*
X0264450Y0190825D02*
X0266287Y0192662D01*
X0264450Y0192662D01*
X0263991Y0192203D01*
X0263991Y0191284D01*
X0264450Y0190825D01*
X0266287Y0190825D01*
X0266746Y0191284D01*
X0266746Y0192203D01*
X0266287Y0192662D01*
X0266506Y0206135D02*
X0266047Y0206595D01*
X0266047Y0207054D01*
X0266506Y0207513D01*
X0266965Y0207513D01*
X0266506Y0207513D02*
X0266047Y0207972D01*
X0266047Y0208431D01*
X0266506Y0208891D01*
X0267424Y0208891D01*
X0267883Y0208431D01*
X0267883Y0206595D02*
X0267424Y0206135D01*
X0266506Y0206135D01*
X0268765Y0206135D02*
X0270602Y0206135D01*
X0270602Y0208891D01*
D15*
X0280545Y0215878D02*
X0276608Y0219815D01*
X0260860Y0219815D01*
X0256923Y0215878D01*
X0256923Y0200130D01*
X0260860Y0196193D01*
X0276608Y0196193D01*
X0280545Y0200130D01*
X0280545Y0215878D01*
X0285663Y0132020D02*
X0285663Y0115091D01*
X0289993Y0115091D01*
X0289993Y0114697D01*
X0289993Y0132020D02*
X0285663Y0132020D01*
X0271096Y0124539D02*
X0271096Y0122177D01*
X0259678Y0122177D01*
X0259678Y0124539D02*
X0271096Y0124539D01*
X0268734Y0080051D02*
X0252986Y0080051D01*
X0252986Y0056429D01*
X0268734Y0056429D01*
X0268734Y0080051D01*
X0249993Y0386941D02*
X0195860Y0386941D01*
X0195860Y0397374D01*
X0186411Y0397374D01*
X0186411Y0409776D01*
X0175781Y0409776D01*
X0175781Y0450720D01*
X0186411Y0450720D01*
X0186411Y0463122D01*
X0195860Y0463122D01*
X0195860Y0473555D01*
X0249993Y0473555D01*
X0249993Y0463122D01*
X0259639Y0463122D01*
X0259639Y0450720D01*
X0270269Y0450720D01*
X0270269Y0409776D01*
X0259639Y0409776D01*
X0259639Y0397374D01*
X0249993Y0397374D01*
X0249993Y0386941D01*
X0215151Y0402689D02*
X0191529Y0402689D01*
X0191529Y0414500D01*
X0215151Y0414500D01*
X0215151Y0402689D01*
X0164049Y0400681D02*
X0164049Y0464264D01*
X0094560Y0464264D01*
X0076647Y0464264D01*
X0076647Y0400681D01*
X0094560Y0400681D01*
X0094560Y0464264D01*
X0047434Y0466035D02*
X0047434Y0478634D01*
X0044678Y0481390D01*
X0033655Y0481390D01*
X0033655Y0466035D01*
X0047434Y0466035D01*
X0094560Y0400681D02*
X0164049Y0400681D01*
X0094521Y0398949D02*
X0094521Y0383201D01*
X0059088Y0383201D01*
X0059088Y0398949D01*
X0094521Y0398949D01*
X0048261Y0392059D02*
X0048261Y0382217D01*
X0036450Y0382217D01*
X0036450Y0394028D01*
X0046293Y0394028D01*
X0048261Y0392059D01*
X0061647Y0554461D02*
X0074245Y0554461D01*
X0074245Y0597768D01*
X0061647Y0597768D01*
X0061647Y0554461D01*
X0061647Y0568240D02*
X0060072Y0568240D01*
X0060072Y0583988D01*
X0061647Y0583988D01*
X0061647Y0568240D01*
X0061647Y0568566D02*
X0060072Y0568566D01*
X0060072Y0569064D02*
X0061647Y0569064D01*
X0061647Y0569563D02*
X0060072Y0569563D01*
X0060072Y0570061D02*
X0061647Y0570061D01*
X0061647Y0570560D02*
X0060072Y0570560D01*
X0060072Y0571058D02*
X0061647Y0571058D01*
X0061647Y0571557D02*
X0060072Y0571557D01*
X0060072Y0572055D02*
X0061647Y0572055D01*
X0061647Y0572554D02*
X0060072Y0572554D01*
X0060072Y0573052D02*
X0061647Y0573052D01*
X0061647Y0573551D02*
X0060072Y0573551D01*
X0060072Y0574049D02*
X0061647Y0574049D01*
X0061647Y0574548D02*
X0060072Y0574548D01*
X0060072Y0575046D02*
X0061647Y0575046D01*
X0061647Y0575545D02*
X0060072Y0575545D01*
X0060072Y0576043D02*
X0061647Y0576043D01*
X0061647Y0576542D02*
X0060072Y0576542D01*
X0060072Y0577041D02*
X0061647Y0577041D01*
X0061647Y0577539D02*
X0060072Y0577539D01*
X0060072Y0578038D02*
X0061647Y0578038D01*
X0061647Y0578536D02*
X0060072Y0578536D01*
X0060072Y0579035D02*
X0061647Y0579035D01*
X0061647Y0579533D02*
X0060072Y0579533D01*
X0060072Y0580032D02*
X0061647Y0580032D01*
X0061647Y0580530D02*
X0060072Y0580530D01*
X0060072Y0581029D02*
X0061647Y0581029D01*
X0061647Y0581527D02*
X0060072Y0581527D01*
X0060072Y0582026D02*
X0061647Y0582026D01*
X0061647Y0582524D02*
X0060072Y0582524D01*
X0060072Y0583023D02*
X0061647Y0583023D01*
X0061647Y0583521D02*
X0060072Y0583521D01*
X0271529Y0498791D02*
X0271529Y0486980D01*
X0283340Y0486980D01*
X0283340Y0498791D01*
X0271529Y0498791D01*
D16*
X0115348Y0573083D02*
X0095348Y0573083D01*
X0095348Y0583083D01*
X0115348Y0583083D01*
X0115348Y0573083D01*
X0115348Y0585878D02*
X0095348Y0585878D01*
X0095348Y0595878D01*
X0115348Y0595878D01*
X0115348Y0585878D01*
X0054324Y0586862D02*
X0034324Y0586862D01*
X0034324Y0596862D01*
X0054324Y0596862D01*
X0054324Y0586862D01*
X0054324Y0583083D02*
X0054324Y0573083D01*
X0034324Y0573083D01*
X0034324Y0583083D01*
X0054324Y0583083D01*
X0206060Y0123138D02*
X0206060Y0122138D01*
X0206560Y0121638D01*
X0206560Y0112638D01*
X0206060Y0112138D01*
X0206060Y0111138D01*
X0206062Y0111078D01*
X0206067Y0111017D01*
X0206076Y0110958D01*
X0206089Y0110899D01*
X0206105Y0110840D01*
X0206125Y0110783D01*
X0206148Y0110728D01*
X0206175Y0110673D01*
X0206204Y0110621D01*
X0206237Y0110570D01*
X0206273Y0110521D01*
X0206311Y0110475D01*
X0206353Y0110431D01*
X0206397Y0110389D01*
X0206443Y0110351D01*
X0206492Y0110315D01*
X0206543Y0110282D01*
X0206595Y0110253D01*
X0206650Y0110226D01*
X0206705Y0110203D01*
X0206762Y0110183D01*
X0206821Y0110167D01*
X0206880Y0110154D01*
X0206939Y0110145D01*
X0207000Y0110140D01*
X0207060Y0110138D01*
X0212060Y0110138D02*
X0212120Y0110140D01*
X0212181Y0110145D01*
X0212240Y0110154D01*
X0212299Y0110167D01*
X0212358Y0110183D01*
X0212415Y0110203D01*
X0212470Y0110226D01*
X0212525Y0110253D01*
X0212577Y0110282D01*
X0212628Y0110315D01*
X0212677Y0110351D01*
X0212723Y0110389D01*
X0212767Y0110431D01*
X0212809Y0110475D01*
X0212847Y0110521D01*
X0212883Y0110570D01*
X0212916Y0110621D01*
X0212945Y0110673D01*
X0212972Y0110728D01*
X0212995Y0110783D01*
X0213015Y0110840D01*
X0213031Y0110899D01*
X0213044Y0110958D01*
X0213053Y0111017D01*
X0213058Y0111078D01*
X0213060Y0111138D01*
X0213060Y0112138D01*
X0212560Y0112638D01*
X0212560Y0121638D01*
X0213060Y0122138D01*
X0213060Y0123138D01*
X0213058Y0123198D01*
X0213053Y0123259D01*
X0213044Y0123318D01*
X0213031Y0123377D01*
X0213015Y0123436D01*
X0212995Y0123493D01*
X0212972Y0123548D01*
X0212945Y0123603D01*
X0212916Y0123655D01*
X0212883Y0123706D01*
X0212847Y0123755D01*
X0212809Y0123801D01*
X0212767Y0123845D01*
X0212723Y0123887D01*
X0212677Y0123925D01*
X0212628Y0123961D01*
X0212577Y0123994D01*
X0212525Y0124023D01*
X0212470Y0124050D01*
X0212415Y0124073D01*
X0212358Y0124093D01*
X0212299Y0124109D01*
X0212240Y0124122D01*
X0212181Y0124131D01*
X0212120Y0124136D01*
X0212060Y0124138D01*
X0207060Y0124138D02*
X0207000Y0124136D01*
X0206939Y0124131D01*
X0206880Y0124122D01*
X0206821Y0124109D01*
X0206762Y0124093D01*
X0206705Y0124073D01*
X0206650Y0124050D01*
X0206595Y0124023D01*
X0206543Y0123994D01*
X0206492Y0123961D01*
X0206443Y0123925D01*
X0206397Y0123887D01*
X0206353Y0123845D01*
X0206311Y0123801D01*
X0206273Y0123755D01*
X0206237Y0123706D01*
X0206204Y0123655D01*
X0206175Y0123603D01*
X0206148Y0123548D01*
X0206125Y0123493D01*
X0206105Y0123436D01*
X0206089Y0123377D01*
X0206076Y0123318D01*
X0206067Y0123259D01*
X0206062Y0123198D01*
X0206060Y0123138D01*
X0226238Y0120184D02*
X0227238Y0120184D01*
X0226238Y0120184D02*
X0226238Y0118684D01*
X0227238Y0118684D01*
X0229438Y0121284D02*
X0229438Y0123284D01*
X0231438Y0123284D01*
X0243038Y0123284D02*
X0245038Y0123284D01*
X0245038Y0121284D01*
X0247238Y0112284D02*
X0248238Y0112284D01*
X0248238Y0110784D01*
X0247238Y0110784D01*
X0245038Y0109684D02*
X0245038Y0107684D01*
X0243038Y0107684D01*
X0231438Y0107684D02*
X0229438Y0107684D01*
X0229438Y0109684D01*
X0270708Y0074140D02*
X0270708Y0062340D01*
X0282508Y0062340D01*
X0282508Y0074140D01*
X0270708Y0074140D01*
X0272608Y0074140D01*
X0270708Y0067340D02*
X0275708Y0062340D01*
X0272608Y0062340D02*
X0270708Y0062340D01*
X0280608Y0062340D02*
X0282508Y0062340D01*
X0285108Y0063540D02*
X0286108Y0063540D01*
X0286108Y0065040D01*
X0285108Y0065040D01*
X0285108Y0063540D01*
X0282508Y0074140D02*
X0280608Y0074140D01*
D17*
X0114348Y0578083D03*
X0114348Y0590878D03*
X0053324Y0591862D03*
X0053324Y0578083D03*
D18*
X0289148Y0127447D02*
X0289148Y0124178D01*
X0289936Y0119908D02*
X0289936Y0116638D01*
X0291570Y0118273D02*
X0288301Y0118273D01*
D19*
X0282479Y0272967D02*
X0266799Y0272967D01*
X0266799Y0292647D01*
X0282479Y0292647D01*
X0282479Y0272967D01*
X0276639Y0272967D02*
X0276637Y0273055D01*
X0276631Y0273144D01*
X0276621Y0273232D01*
X0276608Y0273319D01*
X0276590Y0273406D01*
X0276569Y0273492D01*
X0276544Y0273577D01*
X0276515Y0273660D01*
X0276482Y0273743D01*
X0276446Y0273823D01*
X0276407Y0273902D01*
X0276364Y0273980D01*
X0276317Y0274055D01*
X0276267Y0274128D01*
X0276214Y0274199D01*
X0276158Y0274268D01*
X0276099Y0274334D01*
X0276037Y0274397D01*
X0275973Y0274457D01*
X0275906Y0274515D01*
X0275836Y0274569D01*
X0275764Y0274621D01*
X0275690Y0274669D01*
X0275613Y0274714D01*
X0275535Y0274755D01*
X0275455Y0274793D01*
X0275374Y0274827D01*
X0275291Y0274858D01*
X0275206Y0274885D01*
X0275121Y0274908D01*
X0275035Y0274927D01*
X0274947Y0274943D01*
X0274860Y0274955D01*
X0274772Y0274963D01*
X0274683Y0274967D01*
X0274595Y0274967D01*
X0274506Y0274963D01*
X0274418Y0274955D01*
X0274331Y0274943D01*
X0274243Y0274927D01*
X0274157Y0274908D01*
X0274072Y0274885D01*
X0273987Y0274858D01*
X0273904Y0274827D01*
X0273823Y0274793D01*
X0273743Y0274755D01*
X0273665Y0274714D01*
X0273588Y0274669D01*
X0273514Y0274621D01*
X0273442Y0274569D01*
X0273372Y0274515D01*
X0273305Y0274457D01*
X0273241Y0274397D01*
X0273179Y0274334D01*
X0273120Y0274268D01*
X0273064Y0274199D01*
X0273011Y0274128D01*
X0272961Y0274055D01*
X0272914Y0273980D01*
X0272871Y0273902D01*
X0272832Y0273823D01*
X0272796Y0273743D01*
X0272763Y0273660D01*
X0272734Y0273577D01*
X0272709Y0273492D01*
X0272688Y0273406D01*
X0272670Y0273319D01*
X0272657Y0273232D01*
X0272647Y0273144D01*
X0272641Y0273055D01*
X0272639Y0272967D01*
D20*
X0052198Y0272965D02*
X0052200Y0273053D01*
X0052206Y0273141D01*
X0052216Y0273229D01*
X0052230Y0273317D01*
X0052247Y0273403D01*
X0052269Y0273489D01*
X0052294Y0273573D01*
X0052324Y0273657D01*
X0052356Y0273739D01*
X0052393Y0273819D01*
X0052433Y0273898D01*
X0052477Y0273975D01*
X0052524Y0274050D01*
X0052574Y0274122D01*
X0052628Y0274193D01*
X0052684Y0274260D01*
X0052744Y0274326D01*
X0052806Y0274388D01*
X0052872Y0274448D01*
X0052939Y0274504D01*
X0053010Y0274558D01*
X0053082Y0274608D01*
X0053157Y0274655D01*
X0053234Y0274699D01*
X0053313Y0274739D01*
X0053393Y0274776D01*
X0053475Y0274808D01*
X0053559Y0274838D01*
X0053643Y0274863D01*
X0053729Y0274885D01*
X0053815Y0274902D01*
X0053903Y0274916D01*
X0053991Y0274926D01*
X0054079Y0274932D01*
X0054167Y0274934D01*
X0054255Y0274932D01*
X0054343Y0274926D01*
X0054431Y0274916D01*
X0054519Y0274902D01*
X0054605Y0274885D01*
X0054691Y0274863D01*
X0054775Y0274838D01*
X0054859Y0274808D01*
X0054941Y0274776D01*
X0055021Y0274739D01*
X0055100Y0274699D01*
X0055177Y0274655D01*
X0055252Y0274608D01*
X0055324Y0274558D01*
X0055395Y0274504D01*
X0055462Y0274448D01*
X0055528Y0274388D01*
X0055590Y0274326D01*
X0055650Y0274260D01*
X0055706Y0274193D01*
X0055760Y0274122D01*
X0055810Y0274050D01*
X0055857Y0273975D01*
X0055901Y0273898D01*
X0055941Y0273819D01*
X0055978Y0273739D01*
X0056010Y0273657D01*
X0056040Y0273573D01*
X0056065Y0273489D01*
X0056087Y0273403D01*
X0056104Y0273317D01*
X0056118Y0273229D01*
X0056128Y0273141D01*
X0056134Y0273053D01*
X0056136Y0272965D01*
X0056134Y0272877D01*
X0056128Y0272789D01*
X0056118Y0272701D01*
X0056104Y0272613D01*
X0056087Y0272527D01*
X0056065Y0272441D01*
X0056040Y0272357D01*
X0056010Y0272273D01*
X0055978Y0272191D01*
X0055941Y0272111D01*
X0055901Y0272032D01*
X0055857Y0271955D01*
X0055810Y0271880D01*
X0055760Y0271808D01*
X0055706Y0271737D01*
X0055650Y0271670D01*
X0055590Y0271604D01*
X0055528Y0271542D01*
X0055462Y0271482D01*
X0055395Y0271426D01*
X0055324Y0271372D01*
X0055252Y0271322D01*
X0055177Y0271275D01*
X0055100Y0271231D01*
X0055021Y0271191D01*
X0054941Y0271154D01*
X0054859Y0271122D01*
X0054775Y0271092D01*
X0054691Y0271067D01*
X0054605Y0271045D01*
X0054519Y0271028D01*
X0054431Y0271014D01*
X0054343Y0271004D01*
X0054255Y0270998D01*
X0054167Y0270996D01*
X0054079Y0270998D01*
X0053991Y0271004D01*
X0053903Y0271014D01*
X0053815Y0271028D01*
X0053729Y0271045D01*
X0053643Y0271067D01*
X0053559Y0271092D01*
X0053475Y0271122D01*
X0053393Y0271154D01*
X0053313Y0271191D01*
X0053234Y0271231D01*
X0053157Y0271275D01*
X0053082Y0271322D01*
X0053010Y0271372D01*
X0052939Y0271426D01*
X0052872Y0271482D01*
X0052806Y0271542D01*
X0052744Y0271604D01*
X0052684Y0271670D01*
X0052628Y0271737D01*
X0052574Y0271808D01*
X0052524Y0271880D01*
X0052477Y0271955D01*
X0052433Y0272032D01*
X0052393Y0272111D01*
X0052356Y0272191D01*
X0052324Y0272273D01*
X0052294Y0272357D01*
X0052269Y0272441D01*
X0052247Y0272527D01*
X0052230Y0272613D01*
X0052216Y0272701D01*
X0052206Y0272789D01*
X0052200Y0272877D01*
X0052198Y0272965D01*
D21*
X0245795Y0123937D02*
X0248155Y0123937D01*
X0248155Y0122167D01*
X0246975Y0122757D01*
X0246385Y0122757D01*
X0245795Y0122167D01*
X0245795Y0120987D01*
X0246385Y0120397D01*
X0247565Y0120397D01*
X0248155Y0120987D01*
X0249421Y0120987D02*
X0250011Y0120397D01*
X0251191Y0120397D01*
X0251781Y0120987D01*
X0251781Y0123347D01*
X0251191Y0123937D01*
X0250011Y0123937D01*
X0249421Y0123347D01*
X0253017Y0123937D02*
X0254197Y0123937D01*
X0253607Y0123937D02*
X0253607Y0120397D01*
X0254197Y0120397D02*
X0253017Y0120397D01*
M02*
