M48
;GenerationSoftware,Autodesk,EAGLE,9.6.2*%
;CreationDate,2024-10-06T14:58:18Z*%
FMAT,2
ICI,OFF
METRIC,TZ,000.00000
T6C0.35000
T5C0.81280
T4C1.00000
T3C1.01600
T2C1.02000
T1C3.00000
%
G90
M71
T1
X5913000Y5339000
X1087000Y5466000
X4389000Y259000
T2
X579000Y2799000
X6675000Y1021000
X325000Y5085000
X325000Y513000
X579000Y5085000
X325000Y4831000
X579000Y4831000
X325000Y4577000
X579000Y4577000
X325000Y4323000
X579000Y4323000
X325000Y4069000
X579000Y4069000
X325000Y3815000
X579000Y3815000
X325000Y3561000
X579000Y3561000
X325000Y3307000
X579000Y3307000
X325000Y3053000
X579000Y3053000
X325000Y2799000
X325000Y2545000
X579000Y2545000
X325000Y2291000
X579000Y2291000
X325000Y2037000
X579000Y2037000
X325000Y1783000
X579000Y1783000
X325000Y1529000
X579000Y1529000
X325000Y1275000
X579000Y1275000
X325000Y1021000
X579000Y1021000
X325000Y767000
X579000Y767000
X579000Y513000
X6421000Y5085000
X6421000Y513000
X6675000Y5085000
X6421000Y4831000
X6675000Y4831000
X6421000Y4577000
X6675000Y4577000
X6421000Y4323000
X6675000Y4323000
X6421000Y4069000
X6675000Y4069000
X6421000Y3815000
X6675000Y3815000
X6421000Y3561000
X6675000Y3561000
X6421000Y3307000
X6675000Y3307000
X6421000Y3053000
X6675000Y3053000
X6421000Y2799000
X6675000Y2799000
X6421000Y2545000
X6675000Y2545000
X6421000Y2291000
X6675000Y2291000
X6421000Y2037000
X6675000Y2037000
X6421000Y1783000
X6675000Y1783000
X6421000Y1529000
X6675000Y1529000
X6421000Y1275000
X6675000Y1275000
X6421000Y1021000
X6421000Y767000
X6675000Y767000
X6675000Y513000
T3
X6627000Y7900000
X6373000Y7900000
T4
X2559000Y3250000
X4559000Y3250000
T5
X1827000Y300000
X1573000Y300000
X3227000Y300000
X2973000Y300000
X2527000Y300000
X2273000Y300000
T6
X411250Y6796250
X1462500Y7740000
X4425000Y800000
X3910000Y4450000
X6650000Y7225000
X525000Y7450000
X1025000Y7597500
X3650000Y5050000
X4150000Y5050000
X3900000Y5050000
X3800000Y4300000
X4675000Y2175000
X4675000Y800000
X1450000Y5475000
X3350000Y3150000
X1925000Y725000
X2625000Y725000
X3325000Y725000
X5950000Y7375000
X350000Y6175000
X1400000Y6250000
X1025000Y6900000
X1350000Y7500000
X1375000Y7875000
X800000Y7950000
X3350000Y3350000
X3150000Y4525000
X4150000Y4300000
X4150000Y4450000
X3900000Y4700000
X4800000Y2200000
X4450000Y2250000
X6350000Y7225000
X425000Y7950000
X1025000Y7950000
X2775000Y6725000
X3250000Y6725000
X2775000Y6400000
X4425000Y1850000
X3575000Y6400000
X2800000Y5550000
X1400000Y4825000
X1850000Y4775000
X1150000Y4200000
X575000Y5475000
X350000Y5625000
X125000Y4850000
X1250000Y6700000
X3275000Y7900000
X5750000Y6125000
X6375000Y6150000
X6700000Y6175000
X5875000Y4300000
X3425000Y3675000
X4125000Y3625000
X3650000Y1250000
X2850000Y1350000
X1250000Y3850000
X1950000Y3850000
X1150000Y1275000
X1825000Y1300000
X1400000Y2025000
X1850000Y2125000
X3600000Y450000
X4000000Y375000
X5025000Y450000
X5525000Y1125000
X675000Y6700000
X675000Y7400000
X1225000Y7275000
X1075000Y5825000
X4600000Y5400000
X4675000Y5825000
X4750000Y7250000
X5200000Y3700000
X5500000Y3025000
X6075000Y3200000
X6500000Y6975000
X1650000Y4350000
X1125000Y7875000
X1140000Y7525000
X640000Y6500000
X845000Y5925000
X3850000Y4375000
X3716500Y4924576
X4800000Y2440000
X775000Y6900000
X2975000Y800000
X5125000Y2300000
X1244400Y2689700
X200000Y6300000
X1725000Y725000
X2425000Y725000
X625000Y5925000
X4300000Y1850000
X4625000Y2550000
X4044000Y1325000
X4806000Y1071000
X4806000Y1579000
X4044000Y1071000
X4044000Y1579000
X4806000Y1325000
X4425000Y1071000
X4425000Y1579000
X4044000Y917000
X4044000Y1733000
X4806000Y917000
X4806000Y1733000
X3450000Y4575000
X4575000Y2150000
X1451250Y6873750
X2768750Y6848750
X4175000Y800000
X500000Y7145000
X955000Y5925000
X1550000Y5875000
M30