G04 EAGLE Gerber RS-274X export*
G75*
%MOMM*%
%FSLAX35Y35*%
%LPD*%
%INsolder_paste_bottom*%
%IPPOS*%
%AMOC8*
5,1,8,0,0,1.08239X$1,22.5*%
G01*
%ADD10C,0.127000*%
%ADD11C,0.000000*%
%ADD12R,0.700000X0.900000*%
%ADD13R,0.500000X1.500000*%
%ADD14R,1.500000X0.500000*%
%ADD15R,1.200000X0.400000*%
%ADD16R,0.900000X0.700000*%
%ADD17R,2.700000X1.600000*%
%ADD18R,0.700000X0.600000*%
%ADD19R,1.000000X1.400000*%
%ADD20R,1.600000X1.803000*%
%ADD21R,1.400000X1.000000*%
%ADD22R,1.500000X1.300000*%


D10*
X0Y359000D02*
X0Y8109000D01*
X44Y8112625D01*
X175Y8116247D01*
X394Y8119865D01*
X700Y8123477D01*
X1094Y8127081D01*
X1574Y8130673D01*
X2141Y8134254D01*
X2794Y8137819D01*
X3534Y8141368D01*
X4359Y8144897D01*
X5269Y8148406D01*
X6263Y8151892D01*
X7342Y8155353D01*
X8503Y8158786D01*
X9748Y8162191D01*
X11074Y8165564D01*
X12481Y8168905D01*
X13969Y8172210D01*
X15536Y8175479D01*
X17182Y8178708D01*
X18905Y8181898D01*
X20705Y8185044D01*
X22580Y8188146D01*
X24529Y8191202D01*
X26552Y8194210D01*
X28647Y8197168D01*
X30813Y8200074D01*
X33049Y8202928D01*
X35353Y8205726D01*
X37723Y8208468D01*
X40160Y8211152D01*
X42660Y8213777D01*
X45223Y8216340D01*
X47848Y8218840D01*
X50532Y8221277D01*
X53274Y8223647D01*
X56072Y8225951D01*
X58926Y8228187D01*
X61832Y8230353D01*
X64790Y8232448D01*
X67798Y8234471D01*
X70854Y8236420D01*
X73956Y8238295D01*
X77102Y8240095D01*
X80292Y8241818D01*
X83521Y8243464D01*
X86790Y8245031D01*
X90095Y8246519D01*
X93436Y8247926D01*
X96809Y8249252D01*
X100214Y8250497D01*
X103647Y8251658D01*
X107108Y8252737D01*
X110594Y8253731D01*
X114103Y8254641D01*
X117632Y8255466D01*
X121181Y8256206D01*
X124746Y8256859D01*
X128327Y8257426D01*
X131919Y8257906D01*
X135523Y8258300D01*
X139135Y8258606D01*
X142753Y8258825D01*
X146375Y8258956D01*
X150000Y8259000D01*
X6850000Y8259000D01*
X6853625Y8258956D01*
X6857247Y8258825D01*
X6860865Y8258606D01*
X6864477Y8258300D01*
X6868081Y8257906D01*
X6871673Y8257426D01*
X6875254Y8256859D01*
X6878819Y8256206D01*
X6882368Y8255466D01*
X6885897Y8254641D01*
X6889406Y8253731D01*
X6892892Y8252737D01*
X6896353Y8251658D01*
X6899786Y8250497D01*
X6903191Y8249252D01*
X6906564Y8247926D01*
X6909905Y8246519D01*
X6913210Y8245031D01*
X6916479Y8243464D01*
X6919708Y8241818D01*
X6922898Y8240095D01*
X6926044Y8238295D01*
X6929146Y8236420D01*
X6932202Y8234471D01*
X6935210Y8232448D01*
X6938168Y8230353D01*
X6941074Y8228187D01*
X6943928Y8225951D01*
X6946726Y8223647D01*
X6949468Y8221277D01*
X6952152Y8218840D01*
X6954777Y8216340D01*
X6957340Y8213777D01*
X6959840Y8211152D01*
X6962277Y8208468D01*
X6964647Y8205726D01*
X6966951Y8202928D01*
X6969187Y8200074D01*
X6971353Y8197168D01*
X6973448Y8194210D01*
X6975471Y8191202D01*
X6977420Y8188146D01*
X6979295Y8185044D01*
X6981095Y8181898D01*
X6982818Y8178708D01*
X6984464Y8175479D01*
X6986031Y8172210D01*
X6987519Y8168905D01*
X6988926Y8165564D01*
X6990252Y8162191D01*
X6991497Y8158786D01*
X6992658Y8155353D01*
X6993737Y8151892D01*
X6994731Y8148406D01*
X6995641Y8144897D01*
X6996466Y8141368D01*
X6997206Y8137819D01*
X6997859Y8134254D01*
X6998426Y8130673D01*
X6998906Y8127081D01*
X6999300Y8123477D01*
X6999606Y8119865D01*
X6999825Y8116247D01*
X6999956Y8112625D01*
X7000000Y8109000D01*
X7000000Y359000D01*
X6999956Y355375D01*
X6999825Y351753D01*
X6999606Y348135D01*
X6999300Y344523D01*
X6998906Y340919D01*
X6998426Y337327D01*
X6997859Y333746D01*
X6997206Y330181D01*
X6996466Y326632D01*
X6995641Y323103D01*
X6994731Y319594D01*
X6993737Y316108D01*
X6992658Y312647D01*
X6991497Y309214D01*
X6990252Y305809D01*
X6988926Y302436D01*
X6987519Y299095D01*
X6986031Y295790D01*
X6984464Y292521D01*
X6982818Y289292D01*
X6981095Y286102D01*
X6979295Y282956D01*
X6977420Y279854D01*
X6975471Y276798D01*
X6973448Y273790D01*
X6971353Y270832D01*
X6969187Y267926D01*
X6966951Y265072D01*
X6964647Y262274D01*
X6962277Y259532D01*
X6959840Y256848D01*
X6957340Y254223D01*
X6954777Y251660D01*
X6952152Y249160D01*
X6949468Y246723D01*
X6946726Y244353D01*
X6943928Y242049D01*
X6941074Y239813D01*
X6938168Y237647D01*
X6935210Y235552D01*
X6932202Y233529D01*
X6929146Y231580D01*
X6926044Y229705D01*
X6922898Y227905D01*
X6919708Y226182D01*
X6916479Y224536D01*
X6913210Y222969D01*
X6909905Y221481D01*
X6906564Y220074D01*
X6903191Y218748D01*
X6899786Y217503D01*
X6896353Y216342D01*
X6892892Y215263D01*
X6889406Y214269D01*
X6885897Y213359D01*
X6882368Y212534D01*
X6878819Y211794D01*
X6875254Y211141D01*
X6871673Y210574D01*
X6868081Y210094D01*
X6864477Y209700D01*
X6860865Y209394D01*
X6857247Y209175D01*
X6853625Y209044D01*
X6850000Y209000D01*
X4800000Y209000D01*
X4600000Y9000D01*
X1300000Y9000D01*
X1100000Y209000D01*
X150000Y209000D01*
X146375Y209044D01*
X142753Y209175D01*
X139135Y209394D01*
X135523Y209700D01*
X131919Y210094D01*
X128327Y210574D01*
X124746Y211141D01*
X121181Y211794D01*
X117632Y212534D01*
X114103Y213359D01*
X110594Y214269D01*
X107108Y215263D01*
X103647Y216342D01*
X100214Y217503D01*
X96809Y218748D01*
X93436Y220074D01*
X90095Y221481D01*
X86790Y222969D01*
X83521Y224536D01*
X80292Y226182D01*
X77102Y227905D01*
X73956Y229705D01*
X70854Y231580D01*
X67798Y233529D01*
X64790Y235552D01*
X61832Y237647D01*
X58926Y239813D01*
X56072Y242049D01*
X53274Y244353D01*
X50532Y246723D01*
X47848Y249160D01*
X45223Y251660D01*
X42660Y254223D01*
X40160Y256848D01*
X37723Y259532D01*
X35353Y262274D01*
X33049Y265072D01*
X30813Y267926D01*
X28647Y270832D01*
X26552Y273790D01*
X24529Y276798D01*
X22580Y279854D01*
X20705Y282956D01*
X18905Y286102D01*
X17182Y289292D01*
X15536Y292521D01*
X13969Y295790D01*
X12481Y299095D01*
X11074Y302436D01*
X9748Y305809D01*
X8503Y309214D01*
X7342Y312647D01*
X6263Y316108D01*
X5269Y319594D01*
X4359Y323103D01*
X3534Y326632D01*
X2794Y330181D01*
X2141Y333746D01*
X1574Y337327D01*
X1094Y340919D01*
X700Y344523D01*
X394Y348135D01*
X175Y351753D01*
X44Y355375D01*
X0Y359000D01*
D11*
X4239000Y259000D02*
X4239045Y262681D01*
X4239181Y266360D01*
X4239406Y270035D01*
X4239722Y273703D01*
X4240128Y277362D01*
X4240624Y281010D01*
X4241208Y284644D01*
X4241882Y288264D01*
X4242645Y291865D01*
X4243495Y295447D01*
X4244434Y299007D01*
X4245459Y302543D01*
X4246571Y306052D01*
X4247768Y309533D01*
X4249051Y312984D01*
X4250418Y316403D01*
X4251869Y319786D01*
X4253402Y323133D01*
X4255016Y326442D01*
X4256712Y329710D01*
X4258487Y332935D01*
X4260341Y336115D01*
X4262272Y339250D01*
X4264280Y342336D01*
X4266362Y345371D01*
X4268519Y348355D01*
X4270748Y351285D01*
X4273048Y354159D01*
X4275419Y356976D01*
X4277857Y359734D01*
X4280363Y362431D01*
X4282934Y365066D01*
X4285569Y367637D01*
X4288266Y370143D01*
X4291024Y372581D01*
X4293841Y374952D01*
X4296715Y377252D01*
X4299645Y379481D01*
X4302629Y381638D01*
X4305664Y383720D01*
X4308750Y385728D01*
X4311885Y387659D01*
X4315065Y389513D01*
X4318290Y391288D01*
X4321558Y392984D01*
X4324867Y394598D01*
X4328214Y396131D01*
X4331597Y397582D01*
X4335016Y398949D01*
X4338467Y400232D01*
X4341948Y401429D01*
X4345457Y402541D01*
X4348993Y403566D01*
X4352553Y404505D01*
X4356135Y405355D01*
X4359736Y406118D01*
X4363356Y406792D01*
X4366990Y407376D01*
X4370638Y407872D01*
X4374297Y408278D01*
X4377965Y408594D01*
X4381640Y408819D01*
X4385319Y408955D01*
X4389000Y409000D01*
X4392681Y408955D01*
X4396360Y408819D01*
X4400035Y408594D01*
X4403703Y408278D01*
X4407362Y407872D01*
X4411010Y407376D01*
X4414644Y406792D01*
X4418264Y406118D01*
X4421865Y405355D01*
X4425447Y404505D01*
X4429007Y403566D01*
X4432543Y402541D01*
X4436052Y401429D01*
X4439533Y400232D01*
X4442984Y398949D01*
X4446403Y397582D01*
X4449786Y396131D01*
X4453133Y394598D01*
X4456442Y392984D01*
X4459710Y391288D01*
X4462935Y389513D01*
X4466115Y387659D01*
X4469250Y385728D01*
X4472336Y383720D01*
X4475371Y381638D01*
X4478355Y379481D01*
X4481285Y377252D01*
X4484159Y374952D01*
X4486976Y372581D01*
X4489734Y370143D01*
X4492431Y367637D01*
X4495066Y365066D01*
X4497637Y362431D01*
X4500143Y359734D01*
X4502581Y356976D01*
X4504952Y354159D01*
X4507252Y351285D01*
X4509481Y348355D01*
X4511638Y345371D01*
X4513720Y342336D01*
X4515728Y339250D01*
X4517659Y336115D01*
X4519513Y332935D01*
X4521288Y329710D01*
X4522984Y326442D01*
X4524598Y323133D01*
X4526131Y319786D01*
X4527582Y316403D01*
X4528949Y312984D01*
X4530232Y309533D01*
X4531429Y306052D01*
X4532541Y302543D01*
X4533566Y299007D01*
X4534505Y295447D01*
X4535355Y291865D01*
X4536118Y288264D01*
X4536792Y284644D01*
X4537376Y281010D01*
X4537872Y277362D01*
X4538278Y273703D01*
X4538594Y270035D01*
X4538819Y266360D01*
X4538955Y262681D01*
X4539000Y259000D01*
X4538955Y255319D01*
X4538819Y251640D01*
X4538594Y247965D01*
X4538278Y244297D01*
X4537872Y240638D01*
X4537376Y236990D01*
X4536792Y233356D01*
X4536118Y229736D01*
X4535355Y226135D01*
X4534505Y222553D01*
X4533566Y218993D01*
X4532541Y215457D01*
X4531429Y211948D01*
X4530232Y208467D01*
X4528949Y205016D01*
X4527582Y201597D01*
X4526131Y198214D01*
X4524598Y194867D01*
X4522984Y191558D01*
X4521288Y188290D01*
X4519513Y185065D01*
X4517659Y181885D01*
X4515728Y178750D01*
X4513720Y175664D01*
X4511638Y172629D01*
X4509481Y169645D01*
X4507252Y166715D01*
X4504952Y163841D01*
X4502581Y161024D01*
X4500143Y158266D01*
X4497637Y155569D01*
X4495066Y152934D01*
X4492431Y150363D01*
X4489734Y147857D01*
X4486976Y145419D01*
X4484159Y143048D01*
X4481285Y140748D01*
X4478355Y138519D01*
X4475371Y136362D01*
X4472336Y134280D01*
X4469250Y132272D01*
X4466115Y130341D01*
X4462935Y128487D01*
X4459710Y126712D01*
X4456442Y125016D01*
X4453133Y123402D01*
X4449786Y121869D01*
X4446403Y120418D01*
X4442984Y119051D01*
X4439533Y117768D01*
X4436052Y116571D01*
X4432543Y115459D01*
X4429007Y114434D01*
X4425447Y113495D01*
X4421865Y112645D01*
X4418264Y111882D01*
X4414644Y111208D01*
X4411010Y110624D01*
X4407362Y110128D01*
X4403703Y109722D01*
X4400035Y109406D01*
X4396360Y109181D01*
X4392681Y109045D01*
X4389000Y109000D01*
X4385319Y109045D01*
X4381640Y109181D01*
X4377965Y109406D01*
X4374297Y109722D01*
X4370638Y110128D01*
X4366990Y110624D01*
X4363356Y111208D01*
X4359736Y111882D01*
X4356135Y112645D01*
X4352553Y113495D01*
X4348993Y114434D01*
X4345457Y115459D01*
X4341948Y116571D01*
X4338467Y117768D01*
X4335016Y119051D01*
X4331597Y120418D01*
X4328214Y121869D01*
X4324867Y123402D01*
X4321558Y125016D01*
X4318290Y126712D01*
X4315065Y128487D01*
X4311885Y130341D01*
X4308750Y132272D01*
X4305664Y134280D01*
X4302629Y136362D01*
X4299645Y138519D01*
X4296715Y140748D01*
X4293841Y143048D01*
X4291024Y145419D01*
X4288266Y147857D01*
X4285569Y150363D01*
X4282934Y152934D01*
X4280363Y155569D01*
X4277857Y158266D01*
X4275419Y161024D01*
X4273048Y163841D01*
X4270748Y166715D01*
X4268519Y169645D01*
X4266362Y172629D01*
X4264280Y175664D01*
X4262272Y178750D01*
X4260341Y181885D01*
X4258487Y185065D01*
X4256712Y188290D01*
X4255016Y191558D01*
X4253402Y194867D01*
X4251869Y198214D01*
X4250418Y201597D01*
X4249051Y205016D01*
X4247768Y208467D01*
X4246571Y211948D01*
X4245459Y215457D01*
X4244434Y218993D01*
X4243495Y222553D01*
X4242645Y226135D01*
X4241882Y229736D01*
X4241208Y233356D01*
X4240624Y236990D01*
X4240128Y240638D01*
X4239722Y244297D01*
X4239406Y247965D01*
X4239181Y251640D01*
X4239045Y255319D01*
X4239000Y259000D01*
X5763000Y5339000D02*
X5763045Y5342681D01*
X5763181Y5346360D01*
X5763406Y5350035D01*
X5763722Y5353703D01*
X5764128Y5357362D01*
X5764624Y5361010D01*
X5765208Y5364644D01*
X5765882Y5368264D01*
X5766645Y5371865D01*
X5767495Y5375447D01*
X5768434Y5379007D01*
X5769459Y5382543D01*
X5770571Y5386052D01*
X5771768Y5389533D01*
X5773051Y5392984D01*
X5774418Y5396403D01*
X5775869Y5399786D01*
X5777402Y5403133D01*
X5779016Y5406442D01*
X5780712Y5409710D01*
X5782487Y5412935D01*
X5784341Y5416115D01*
X5786272Y5419250D01*
X5788280Y5422336D01*
X5790362Y5425371D01*
X5792519Y5428355D01*
X5794748Y5431285D01*
X5797048Y5434159D01*
X5799419Y5436976D01*
X5801857Y5439734D01*
X5804363Y5442431D01*
X5806934Y5445066D01*
X5809569Y5447637D01*
X5812266Y5450143D01*
X5815024Y5452581D01*
X5817841Y5454952D01*
X5820715Y5457252D01*
X5823645Y5459481D01*
X5826629Y5461638D01*
X5829664Y5463720D01*
X5832750Y5465728D01*
X5835885Y5467659D01*
X5839065Y5469513D01*
X5842290Y5471288D01*
X5845558Y5472984D01*
X5848867Y5474598D01*
X5852214Y5476131D01*
X5855597Y5477582D01*
X5859016Y5478949D01*
X5862467Y5480232D01*
X5865948Y5481429D01*
X5869457Y5482541D01*
X5872993Y5483566D01*
X5876553Y5484505D01*
X5880135Y5485355D01*
X5883736Y5486118D01*
X5887356Y5486792D01*
X5890990Y5487376D01*
X5894638Y5487872D01*
X5898297Y5488278D01*
X5901965Y5488594D01*
X5905640Y5488819D01*
X5909319Y5488955D01*
X5913000Y5489000D01*
X5916681Y5488955D01*
X5920360Y5488819D01*
X5924035Y5488594D01*
X5927703Y5488278D01*
X5931362Y5487872D01*
X5935010Y5487376D01*
X5938644Y5486792D01*
X5942264Y5486118D01*
X5945865Y5485355D01*
X5949447Y5484505D01*
X5953007Y5483566D01*
X5956543Y5482541D01*
X5960052Y5481429D01*
X5963533Y5480232D01*
X5966984Y5478949D01*
X5970403Y5477582D01*
X5973786Y5476131D01*
X5977133Y5474598D01*
X5980442Y5472984D01*
X5983710Y5471288D01*
X5986935Y5469513D01*
X5990115Y5467659D01*
X5993250Y5465728D01*
X5996336Y5463720D01*
X5999371Y5461638D01*
X6002355Y5459481D01*
X6005285Y5457252D01*
X6008159Y5454952D01*
X6010976Y5452581D01*
X6013734Y5450143D01*
X6016431Y5447637D01*
X6019066Y5445066D01*
X6021637Y5442431D01*
X6024143Y5439734D01*
X6026581Y5436976D01*
X6028952Y5434159D01*
X6031252Y5431285D01*
X6033481Y5428355D01*
X6035638Y5425371D01*
X6037720Y5422336D01*
X6039728Y5419250D01*
X6041659Y5416115D01*
X6043513Y5412935D01*
X6045288Y5409710D01*
X6046984Y5406442D01*
X6048598Y5403133D01*
X6050131Y5399786D01*
X6051582Y5396403D01*
X6052949Y5392984D01*
X6054232Y5389533D01*
X6055429Y5386052D01*
X6056541Y5382543D01*
X6057566Y5379007D01*
X6058505Y5375447D01*
X6059355Y5371865D01*
X6060118Y5368264D01*
X6060792Y5364644D01*
X6061376Y5361010D01*
X6061872Y5357362D01*
X6062278Y5353703D01*
X6062594Y5350035D01*
X6062819Y5346360D01*
X6062955Y5342681D01*
X6063000Y5339000D01*
X6062955Y5335319D01*
X6062819Y5331640D01*
X6062594Y5327965D01*
X6062278Y5324297D01*
X6061872Y5320638D01*
X6061376Y5316990D01*
X6060792Y5313356D01*
X6060118Y5309736D01*
X6059355Y5306135D01*
X6058505Y5302553D01*
X6057566Y5298993D01*
X6056541Y5295457D01*
X6055429Y5291948D01*
X6054232Y5288467D01*
X6052949Y5285016D01*
X6051582Y5281597D01*
X6050131Y5278214D01*
X6048598Y5274867D01*
X6046984Y5271558D01*
X6045288Y5268290D01*
X6043513Y5265065D01*
X6041659Y5261885D01*
X6039728Y5258750D01*
X6037720Y5255664D01*
X6035638Y5252629D01*
X6033481Y5249645D01*
X6031252Y5246715D01*
X6028952Y5243841D01*
X6026581Y5241024D01*
X6024143Y5238266D01*
X6021637Y5235569D01*
X6019066Y5232934D01*
X6016431Y5230363D01*
X6013734Y5227857D01*
X6010976Y5225419D01*
X6008159Y5223048D01*
X6005285Y5220748D01*
X6002355Y5218519D01*
X5999371Y5216362D01*
X5996336Y5214280D01*
X5993250Y5212272D01*
X5990115Y5210341D01*
X5986935Y5208487D01*
X5983710Y5206712D01*
X5980442Y5205016D01*
X5977133Y5203402D01*
X5973786Y5201869D01*
X5970403Y5200418D01*
X5966984Y5199051D01*
X5963533Y5197768D01*
X5960052Y5196571D01*
X5956543Y5195459D01*
X5953007Y5194434D01*
X5949447Y5193495D01*
X5945865Y5192645D01*
X5942264Y5191882D01*
X5938644Y5191208D01*
X5935010Y5190624D01*
X5931362Y5190128D01*
X5927703Y5189722D01*
X5924035Y5189406D01*
X5920360Y5189181D01*
X5916681Y5189045D01*
X5913000Y5189000D01*
X5909319Y5189045D01*
X5905640Y5189181D01*
X5901965Y5189406D01*
X5898297Y5189722D01*
X5894638Y5190128D01*
X5890990Y5190624D01*
X5887356Y5191208D01*
X5883736Y5191882D01*
X5880135Y5192645D01*
X5876553Y5193495D01*
X5872993Y5194434D01*
X5869457Y5195459D01*
X5865948Y5196571D01*
X5862467Y5197768D01*
X5859016Y5199051D01*
X5855597Y5200418D01*
X5852214Y5201869D01*
X5848867Y5203402D01*
X5845558Y5205016D01*
X5842290Y5206712D01*
X5839065Y5208487D01*
X5835885Y5210341D01*
X5832750Y5212272D01*
X5829664Y5214280D01*
X5826629Y5216362D01*
X5823645Y5218519D01*
X5820715Y5220748D01*
X5817841Y5223048D01*
X5815024Y5225419D01*
X5812266Y5227857D01*
X5809569Y5230363D01*
X5806934Y5232934D01*
X5804363Y5235569D01*
X5801857Y5238266D01*
X5799419Y5241024D01*
X5797048Y5243841D01*
X5794748Y5246715D01*
X5792519Y5249645D01*
X5790362Y5252629D01*
X5788280Y5255664D01*
X5786272Y5258750D01*
X5784341Y5261885D01*
X5782487Y5265065D01*
X5780712Y5268290D01*
X5779016Y5271558D01*
X5777402Y5274867D01*
X5775869Y5278214D01*
X5774418Y5281597D01*
X5773051Y5285016D01*
X5771768Y5288467D01*
X5770571Y5291948D01*
X5769459Y5295457D01*
X5768434Y5298993D01*
X5767495Y5302553D01*
X5766645Y5306135D01*
X5765882Y5309736D01*
X5765208Y5313356D01*
X5764624Y5316990D01*
X5764128Y5320638D01*
X5763722Y5324297D01*
X5763406Y5327965D01*
X5763181Y5331640D01*
X5763045Y5335319D01*
X5763000Y5339000D01*
X937000Y5466000D02*
X937045Y5469681D01*
X937181Y5473360D01*
X937406Y5477035D01*
X937722Y5480703D01*
X938128Y5484362D01*
X938624Y5488010D01*
X939208Y5491644D01*
X939882Y5495264D01*
X940645Y5498865D01*
X941495Y5502447D01*
X942434Y5506007D01*
X943459Y5509543D01*
X944571Y5513052D01*
X945768Y5516533D01*
X947051Y5519984D01*
X948418Y5523403D01*
X949869Y5526786D01*
X951402Y5530133D01*
X953016Y5533442D01*
X954712Y5536710D01*
X956487Y5539935D01*
X958341Y5543115D01*
X960272Y5546250D01*
X962280Y5549336D01*
X964362Y5552371D01*
X966519Y5555355D01*
X968748Y5558285D01*
X971048Y5561159D01*
X973419Y5563976D01*
X975857Y5566734D01*
X978363Y5569431D01*
X980934Y5572066D01*
X983569Y5574637D01*
X986266Y5577143D01*
X989024Y5579581D01*
X991841Y5581952D01*
X994715Y5584252D01*
X997645Y5586481D01*
X1000629Y5588638D01*
X1003664Y5590720D01*
X1006750Y5592728D01*
X1009885Y5594659D01*
X1013065Y5596513D01*
X1016290Y5598288D01*
X1019558Y5599984D01*
X1022867Y5601598D01*
X1026214Y5603131D01*
X1029597Y5604582D01*
X1033016Y5605949D01*
X1036467Y5607232D01*
X1039948Y5608429D01*
X1043457Y5609541D01*
X1046993Y5610566D01*
X1050553Y5611505D01*
X1054135Y5612355D01*
X1057736Y5613118D01*
X1061356Y5613792D01*
X1064990Y5614376D01*
X1068638Y5614872D01*
X1072297Y5615278D01*
X1075965Y5615594D01*
X1079640Y5615819D01*
X1083319Y5615955D01*
X1087000Y5616000D01*
X1090681Y5615955D01*
X1094360Y5615819D01*
X1098035Y5615594D01*
X1101703Y5615278D01*
X1105362Y5614872D01*
X1109010Y5614376D01*
X1112644Y5613792D01*
X1116264Y5613118D01*
X1119865Y5612355D01*
X1123447Y5611505D01*
X1127007Y5610566D01*
X1130543Y5609541D01*
X1134052Y5608429D01*
X1137533Y5607232D01*
X1140984Y5605949D01*
X1144403Y5604582D01*
X1147786Y5603131D01*
X1151133Y5601598D01*
X1154442Y5599984D01*
X1157710Y5598288D01*
X1160935Y5596513D01*
X1164115Y5594659D01*
X1167250Y5592728D01*
X1170336Y5590720D01*
X1173371Y5588638D01*
X1176355Y5586481D01*
X1179285Y5584252D01*
X1182159Y5581952D01*
X1184976Y5579581D01*
X1187734Y5577143D01*
X1190431Y5574637D01*
X1193066Y5572066D01*
X1195637Y5569431D01*
X1198143Y5566734D01*
X1200581Y5563976D01*
X1202952Y5561159D01*
X1205252Y5558285D01*
X1207481Y5555355D01*
X1209638Y5552371D01*
X1211720Y5549336D01*
X1213728Y5546250D01*
X1215659Y5543115D01*
X1217513Y5539935D01*
X1219288Y5536710D01*
X1220984Y5533442D01*
X1222598Y5530133D01*
X1224131Y5526786D01*
X1225582Y5523403D01*
X1226949Y5519984D01*
X1228232Y5516533D01*
X1229429Y5513052D01*
X1230541Y5509543D01*
X1231566Y5506007D01*
X1232505Y5502447D01*
X1233355Y5498865D01*
X1234118Y5495264D01*
X1234792Y5491644D01*
X1235376Y5488010D01*
X1235872Y5484362D01*
X1236278Y5480703D01*
X1236594Y5477035D01*
X1236819Y5473360D01*
X1236955Y5469681D01*
X1237000Y5466000D01*
X1236955Y5462319D01*
X1236819Y5458640D01*
X1236594Y5454965D01*
X1236278Y5451297D01*
X1235872Y5447638D01*
X1235376Y5443990D01*
X1234792Y5440356D01*
X1234118Y5436736D01*
X1233355Y5433135D01*
X1232505Y5429553D01*
X1231566Y5425993D01*
X1230541Y5422457D01*
X1229429Y5418948D01*
X1228232Y5415467D01*
X1226949Y5412016D01*
X1225582Y5408597D01*
X1224131Y5405214D01*
X1222598Y5401867D01*
X1220984Y5398558D01*
X1219288Y5395290D01*
X1217513Y5392065D01*
X1215659Y5388885D01*
X1213728Y5385750D01*
X1211720Y5382664D01*
X1209638Y5379629D01*
X1207481Y5376645D01*
X1205252Y5373715D01*
X1202952Y5370841D01*
X1200581Y5368024D01*
X1198143Y5365266D01*
X1195637Y5362569D01*
X1193066Y5359934D01*
X1190431Y5357363D01*
X1187734Y5354857D01*
X1184976Y5352419D01*
X1182159Y5350048D01*
X1179285Y5347748D01*
X1176355Y5345519D01*
X1173371Y5343362D01*
X1170336Y5341280D01*
X1167250Y5339272D01*
X1164115Y5337341D01*
X1160935Y5335487D01*
X1157710Y5333712D01*
X1154442Y5332016D01*
X1151133Y5330402D01*
X1147786Y5328869D01*
X1144403Y5327418D01*
X1140984Y5326051D01*
X1137533Y5324768D01*
X1134052Y5323571D01*
X1130543Y5322459D01*
X1127007Y5321434D01*
X1123447Y5320495D01*
X1119865Y5319645D01*
X1116264Y5318882D01*
X1112644Y5318208D01*
X1109010Y5317624D01*
X1105362Y5317128D01*
X1101703Y5316722D01*
X1098035Y5316406D01*
X1094360Y5316181D01*
X1090681Y5316045D01*
X1087000Y5316000D01*
X1083319Y5316045D01*
X1079640Y5316181D01*
X1075965Y5316406D01*
X1072297Y5316722D01*
X1068638Y5317128D01*
X1064990Y5317624D01*
X1061356Y5318208D01*
X1057736Y5318882D01*
X1054135Y5319645D01*
X1050553Y5320495D01*
X1046993Y5321434D01*
X1043457Y5322459D01*
X1039948Y5323571D01*
X1036467Y5324768D01*
X1033016Y5326051D01*
X1029597Y5327418D01*
X1026214Y5328869D01*
X1022867Y5330402D01*
X1019558Y5332016D01*
X1016290Y5333712D01*
X1013065Y5335487D01*
X1009885Y5337341D01*
X1006750Y5339272D01*
X1003664Y5341280D01*
X1000629Y5343362D01*
X997645Y5345519D01*
X994715Y5347748D01*
X991841Y5350048D01*
X989024Y5352419D01*
X986266Y5354857D01*
X983569Y5357363D01*
X980934Y5359934D01*
X978363Y5362569D01*
X975857Y5365266D01*
X973419Y5368024D01*
X971048Y5370841D01*
X968748Y5373715D01*
X966519Y5376645D01*
X964362Y5379629D01*
X962280Y5382664D01*
X960272Y5385750D01*
X958341Y5388885D01*
X956487Y5392065D01*
X954712Y5395290D01*
X953016Y5398558D01*
X951402Y5401867D01*
X949869Y5405214D01*
X948418Y5408597D01*
X947051Y5412016D01*
X945768Y5415467D01*
X944571Y5418948D01*
X943459Y5422457D01*
X942434Y5425993D01*
X941495Y5429553D01*
X940645Y5433135D01*
X939882Y5436736D01*
X939208Y5440356D01*
X938624Y5443990D01*
X938128Y5447638D01*
X937722Y5451297D01*
X937406Y5454965D01*
X937181Y5458640D01*
X937045Y5462319D01*
X937000Y5466000D01*
D12*
X1185000Y7875000D03*
X1315000Y7875000D03*
D13*
X525000Y7545000D03*
X605000Y7545000D03*
X685000Y7545000D03*
X765000Y7545000D03*
X525500Y7802600D03*
X605000Y7805000D03*
X685000Y7805000D03*
X765000Y7805000D03*
D14*
X495000Y7675000D03*
D13*
X845000Y7545000D03*
X925000Y7545000D03*
X845000Y7805000D03*
X925000Y7805000D03*
D14*
X955000Y7675000D03*
D15*
X1160000Y7740000D03*
X1160000Y7610000D03*
X1340000Y7740000D03*
X1340000Y7675000D03*
X1340000Y7610000D03*
D16*
X850000Y5985000D03*
X850000Y6115000D03*
X4300000Y1790000D03*
X4300000Y1660000D03*
X4425000Y1790000D03*
X4425000Y1660000D03*
X4675000Y885000D03*
X4675000Y1015000D03*
X4550000Y2390000D03*
X4550000Y2260000D03*
X4800000Y2390000D03*
X4800000Y2260000D03*
X4675000Y2260000D03*
X4675000Y2390000D03*
D17*
X3150000Y4840000D03*
X3150000Y4560000D03*
X3500000Y4560000D03*
X3500000Y4840000D03*
D12*
X4090000Y4700000D03*
X3960000Y4700000D03*
X4090000Y4300000D03*
X3960000Y4300000D03*
X3960000Y4875000D03*
X4090000Y4875000D03*
X4090000Y5050000D03*
X3960000Y5050000D03*
D16*
X4175000Y1790000D03*
X4175000Y1660000D03*
D18*
X4425000Y2050000D03*
X4425000Y1950000D03*
X4675000Y625000D03*
X4675000Y725000D03*
D12*
X835000Y6900000D03*
X965000Y6900000D03*
D16*
X1575000Y585000D03*
X1575000Y715000D03*
D19*
X1825000Y515000D03*
X1920000Y735000D03*
X1730000Y735000D03*
X3225000Y515000D03*
X3320000Y735000D03*
X3130000Y735000D03*
X2525000Y515000D03*
X2620000Y735000D03*
X2430000Y735000D03*
D16*
X2275000Y585000D03*
X2275000Y715000D03*
X2975000Y585000D03*
X2975000Y715000D03*
D20*
X4117200Y3250000D03*
X3832800Y3250000D03*
D21*
X3610000Y3250000D03*
X3390000Y3345000D03*
X3390000Y3155000D03*
D22*
X6350000Y7380000D03*
X6350000Y7570000D03*
X6650000Y7570000D03*
X6650000Y7380000D03*
D12*
X6140000Y7375000D03*
X6010000Y7375000D03*
D16*
X6500000Y7035000D03*
X6500000Y7165000D03*
D12*
X4090000Y4450000D03*
X3960000Y4450000D03*
M02*
