G04 EAGLE Gerber RS-274X export*
G75*
%MOMM*%
%FSLAX35Y35*%
%LPD*%
%INsolder_mask_top*%
%IPPOS*%
%AMOC8*
5,1,8,0,0,1.08239X$1,22.5*%
G01*
%ADD10C,0.228600*%
%ADD11C,0.127000*%
%ADD12R,1.733200X1.733200*%
%ADD13C,1.733200*%
%ADD14C,0.000000*%
%ADD15C,3.203200*%
%ADD16R,2.235200X0.863600*%
%ADD17R,0.803200X1.453200*%
%ADD18R,1.403200X3.993200*%
%ADD19R,1.203200X0.803200*%
%ADD20R,1.653200X1.603200*%
%ADD21R,1.153200X1.053200*%
%ADD22R,0.503200X0.653200*%
%ADD23R,1.803200X1.203200*%
%ADD24C,1.703200*%
%ADD25R,0.453200X0.903200*%
%ADD26R,2.583200X1.853200*%
%ADD27R,1.063200X1.653200*%
%ADD28R,1.063200X1.903200*%
%ADD29R,9.203200X6.503200*%
%ADD30C,0.853200*%
%ADD31P,1.539592X8X202.500000*%
%ADD32R,0.653200X1.303200*%
%ADD33C,1.727200*%
%ADD34R,2.743200X1.473200*%
%ADD35R,1.803200X1.603200*%

G36*
X4568181Y1230411D02*
X4568181Y1230411D01*
X4568649Y1230543D01*
X4569401Y1230653D01*
X4586285Y1235775D01*
X4586718Y1235996D01*
X4587435Y1236251D01*
X4602994Y1244568D01*
X4603377Y1244870D01*
X4604029Y1245260D01*
X4617668Y1256452D01*
X4617983Y1256822D01*
X4618548Y1257333D01*
X4629740Y1270971D01*
X4629978Y1271396D01*
X4630432Y1272006D01*
X4638749Y1287565D01*
X4638899Y1288029D01*
X4639225Y1288715D01*
X4644347Y1305599D01*
X4644403Y1306082D01*
X4644589Y1306819D01*
X4646319Y1324378D01*
X4646280Y1324863D01*
X4646319Y1325623D01*
X4644589Y1343181D01*
X4644457Y1343649D01*
X4644347Y1344401D01*
X4639225Y1361285D01*
X4639004Y1361718D01*
X4638749Y1362435D01*
X4630432Y1377994D01*
X4630375Y1378067D01*
X4630374Y1378068D01*
X4630369Y1378074D01*
X4630130Y1378377D01*
X4629740Y1379029D01*
X4618548Y1392668D01*
X4618178Y1392983D01*
X4617668Y1393548D01*
X4604029Y1404740D01*
X4603604Y1404978D01*
X4602994Y1405432D01*
X4587435Y1413749D01*
X4586971Y1413899D01*
X4586285Y1414225D01*
X4569401Y1419347D01*
X4568918Y1419403D01*
X4568181Y1419589D01*
X4550623Y1421319D01*
X4550137Y1421280D01*
X4549378Y1421319D01*
X4531819Y1419589D01*
X4531351Y1419457D01*
X4530599Y1419347D01*
X4513715Y1414225D01*
X4513283Y1414004D01*
X4512565Y1413749D01*
X4497006Y1405432D01*
X4496623Y1405130D01*
X4495971Y1404740D01*
X4482333Y1393548D01*
X4482017Y1393178D01*
X4481452Y1392668D01*
X4470260Y1379029D01*
X4470023Y1378604D01*
X4469568Y1377994D01*
X4461251Y1362435D01*
X4461101Y1361971D01*
X4460775Y1361285D01*
X4455653Y1344401D01*
X4455607Y1344001D01*
X4455566Y1343883D01*
X4455568Y1343806D01*
X4455411Y1343181D01*
X4453681Y1325623D01*
X4453720Y1325137D01*
X4453681Y1324378D01*
X4455411Y1306819D01*
X4455543Y1306351D01*
X4455653Y1305599D01*
X4460775Y1288715D01*
X4460996Y1288283D01*
X4461251Y1287565D01*
X4469568Y1272006D01*
X4469870Y1271623D01*
X4470260Y1270971D01*
X4481452Y1257333D01*
X4481822Y1257017D01*
X4482333Y1256452D01*
X4495971Y1245260D01*
X4496396Y1245023D01*
X4497006Y1244568D01*
X4512565Y1236251D01*
X4513029Y1236101D01*
X4513715Y1235775D01*
X4530599Y1230653D01*
X4531082Y1230597D01*
X4531819Y1230411D01*
X4549378Y1228681D01*
X4549863Y1228720D01*
X4550623Y1228681D01*
X4568181Y1230411D01*
G37*
D10*
X2553761Y7436430D02*
X2553761Y7554624D01*
X2583310Y7554624D01*
X2612858Y7525076D01*
X2612858Y7436430D01*
X2612858Y7525076D02*
X2642407Y7554624D01*
X2671955Y7525076D01*
X2671955Y7436430D01*
X2737918Y7554624D02*
X2767467Y7554624D01*
X2767467Y7436430D01*
X2797015Y7436430D02*
X2737918Y7436430D01*
X2767467Y7613721D02*
X2767467Y7643270D01*
X2860690Y7436430D02*
X2949336Y7436430D01*
X2978884Y7465978D01*
X2949336Y7495527D01*
X2890238Y7495527D01*
X2860690Y7525076D01*
X2890238Y7554624D01*
X2978884Y7554624D01*
X3044847Y7613721D02*
X3044847Y7436430D01*
X3044847Y7495527D02*
X3133493Y7436430D01*
X3044847Y7495527D02*
X3133493Y7554624D01*
X3227860Y7436430D02*
X3286957Y7436430D01*
X3316506Y7465978D01*
X3316506Y7525076D01*
X3286957Y7554624D01*
X3227860Y7554624D01*
X3198312Y7525076D01*
X3198312Y7465978D01*
X3227860Y7436430D01*
X3566626Y7436430D02*
X3566626Y7613721D01*
X3655272Y7613721D01*
X3684820Y7584173D01*
X3684820Y7525076D01*
X3655272Y7495527D01*
X3566626Y7495527D01*
X3780332Y7613721D02*
X3839429Y7613721D01*
X3780332Y7613721D02*
X3750783Y7584173D01*
X3750783Y7465978D01*
X3780332Y7436430D01*
X3839429Y7436430D01*
X3868977Y7465978D01*
X3868977Y7584173D01*
X3839429Y7613721D01*
X4023586Y7613721D02*
X4053134Y7584173D01*
X4023586Y7613721D02*
X3964489Y7613721D01*
X3934940Y7584173D01*
X3934940Y7465978D01*
X3964489Y7436430D01*
X4023586Y7436430D01*
X4053134Y7465978D01*
X2427557Y7136430D02*
X2368459Y7136430D01*
X2338911Y7165978D01*
X2338911Y7225076D01*
X2368459Y7254624D01*
X2427557Y7254624D01*
X2457105Y7225076D01*
X2457105Y7195527D01*
X2338911Y7195527D01*
X2523068Y7077333D02*
X2552617Y7077333D01*
X2582165Y7106882D01*
X2582165Y7254624D01*
X2582165Y7313721D02*
X2582165Y7343270D01*
X2675388Y7136430D02*
X2734485Y7136430D01*
X2764034Y7165978D01*
X2764034Y7225076D01*
X2734485Y7254624D01*
X2675388Y7254624D01*
X2645840Y7225076D01*
X2645840Y7165978D01*
X2675388Y7136430D01*
X2829997Y7254624D02*
X2889094Y7136430D01*
X2948191Y7254624D01*
X3014154Y7254624D02*
X3014154Y7136430D01*
X3014154Y7195527D02*
X3073251Y7254624D01*
X3102800Y7254624D01*
X3167618Y7313721D02*
X3167618Y7136430D01*
X3167618Y7225076D02*
X3197167Y7254624D01*
X3256264Y7254624D01*
X3285813Y7225076D01*
X3285813Y7136430D01*
X3535933Y7136430D02*
X3535933Y7254624D01*
X3535933Y7195527D02*
X3595030Y7254624D01*
X3624578Y7254624D01*
X3718946Y7136430D02*
X3778043Y7136430D01*
X3718946Y7136430D02*
X3689397Y7165978D01*
X3689397Y7225076D01*
X3718946Y7254624D01*
X3778043Y7254624D01*
X3807591Y7225076D01*
X3807591Y7195527D01*
X3689397Y7195527D01*
X3873554Y7254624D02*
X3932651Y7136430D01*
X3991748Y7254624D01*
X4057712Y7165978D02*
X4057712Y7136430D01*
X4057712Y7165978D02*
X4087260Y7165978D01*
X4087260Y7136430D01*
X4057712Y7136430D01*
X4149790Y7284173D02*
X4179338Y7313721D01*
X4238436Y7313721D01*
X4267984Y7284173D01*
X4267984Y7254624D01*
X4238436Y7225076D01*
X4208887Y7225076D01*
X4238436Y7225076D02*
X4267984Y7195527D01*
X4267984Y7165978D01*
X4238436Y7136430D01*
X4179338Y7136430D01*
X4149790Y7165978D01*
D11*
X0Y8109000D02*
X0Y359000D01*
X0Y8109000D02*
X44Y8112625D01*
X175Y8116247D01*
X394Y8119865D01*
X700Y8123477D01*
X1094Y8127081D01*
X1574Y8130673D01*
X2141Y8134254D01*
X2794Y8137819D01*
X3534Y8141368D01*
X4359Y8144897D01*
X5269Y8148406D01*
X6263Y8151892D01*
X7342Y8155353D01*
X8503Y8158786D01*
X9748Y8162191D01*
X11074Y8165564D01*
X12481Y8168905D01*
X13969Y8172210D01*
X15536Y8175479D01*
X17182Y8178708D01*
X18905Y8181898D01*
X20705Y8185044D01*
X22580Y8188146D01*
X24529Y8191202D01*
X26552Y8194210D01*
X28647Y8197168D01*
X30813Y8200074D01*
X33049Y8202928D01*
X35353Y8205726D01*
X37723Y8208468D01*
X40160Y8211152D01*
X42660Y8213777D01*
X45223Y8216340D01*
X47848Y8218840D01*
X50532Y8221277D01*
X53274Y8223647D01*
X56072Y8225951D01*
X58926Y8228187D01*
X61832Y8230353D01*
X64790Y8232448D01*
X67798Y8234471D01*
X70854Y8236420D01*
X73956Y8238295D01*
X77102Y8240095D01*
X80292Y8241818D01*
X83521Y8243464D01*
X86790Y8245031D01*
X90095Y8246519D01*
X93436Y8247926D01*
X96809Y8249252D01*
X100214Y8250497D01*
X103647Y8251658D01*
X107108Y8252737D01*
X110594Y8253731D01*
X114103Y8254641D01*
X117632Y8255466D01*
X121181Y8256206D01*
X124746Y8256859D01*
X128327Y8257426D01*
X131919Y8257906D01*
X135523Y8258300D01*
X139135Y8258606D01*
X142753Y8258825D01*
X146375Y8258956D01*
X150000Y8259000D01*
X6850000Y8259000D01*
X6853625Y8258956D01*
X6857247Y8258825D01*
X6860865Y8258606D01*
X6864477Y8258300D01*
X6868081Y8257906D01*
X6871673Y8257426D01*
X6875254Y8256859D01*
X6878819Y8256206D01*
X6882368Y8255466D01*
X6885897Y8254641D01*
X6889406Y8253731D01*
X6892892Y8252737D01*
X6896353Y8251658D01*
X6899786Y8250497D01*
X6903191Y8249252D01*
X6906564Y8247926D01*
X6909905Y8246519D01*
X6913210Y8245031D01*
X6916479Y8243464D01*
X6919708Y8241818D01*
X6922898Y8240095D01*
X6926044Y8238295D01*
X6929146Y8236420D01*
X6932202Y8234471D01*
X6935210Y8232448D01*
X6938168Y8230353D01*
X6941074Y8228187D01*
X6943928Y8225951D01*
X6946726Y8223647D01*
X6949468Y8221277D01*
X6952152Y8218840D01*
X6954777Y8216340D01*
X6957340Y8213777D01*
X6959840Y8211152D01*
X6962277Y8208468D01*
X6964647Y8205726D01*
X6966951Y8202928D01*
X6969187Y8200074D01*
X6971353Y8197168D01*
X6973448Y8194210D01*
X6975471Y8191202D01*
X6977420Y8188146D01*
X6979295Y8185044D01*
X6981095Y8181898D01*
X6982818Y8178708D01*
X6984464Y8175479D01*
X6986031Y8172210D01*
X6987519Y8168905D01*
X6988926Y8165564D01*
X6990252Y8162191D01*
X6991497Y8158786D01*
X6992658Y8155353D01*
X6993737Y8151892D01*
X6994731Y8148406D01*
X6995641Y8144897D01*
X6996466Y8141368D01*
X6997206Y8137819D01*
X6997859Y8134254D01*
X6998426Y8130673D01*
X6998906Y8127081D01*
X6999300Y8123477D01*
X6999606Y8119865D01*
X6999825Y8116247D01*
X6999956Y8112625D01*
X7000000Y8109000D01*
X7000000Y359000D01*
X6999956Y355375D01*
X6999825Y351753D01*
X6999606Y348135D01*
X6999300Y344523D01*
X6998906Y340919D01*
X6998426Y337327D01*
X6997859Y333746D01*
X6997206Y330181D01*
X6996466Y326632D01*
X6995641Y323103D01*
X6994731Y319594D01*
X6993737Y316108D01*
X6992658Y312647D01*
X6991497Y309214D01*
X6990252Y305809D01*
X6988926Y302436D01*
X6987519Y299095D01*
X6986031Y295790D01*
X6984464Y292521D01*
X6982818Y289292D01*
X6981095Y286102D01*
X6979295Y282956D01*
X6977420Y279854D01*
X6975471Y276798D01*
X6973448Y273790D01*
X6971353Y270832D01*
X6969187Y267926D01*
X6966951Y265072D01*
X6964647Y262274D01*
X6962277Y259532D01*
X6959840Y256848D01*
X6957340Y254223D01*
X6954777Y251660D01*
X6952152Y249160D01*
X6949468Y246723D01*
X6946726Y244353D01*
X6943928Y242049D01*
X6941074Y239813D01*
X6938168Y237647D01*
X6935210Y235552D01*
X6932202Y233529D01*
X6929146Y231580D01*
X6926044Y229705D01*
X6922898Y227905D01*
X6919708Y226182D01*
X6916479Y224536D01*
X6913210Y222969D01*
X6909905Y221481D01*
X6906564Y220074D01*
X6903191Y218748D01*
X6899786Y217503D01*
X6896353Y216342D01*
X6892892Y215263D01*
X6889406Y214269D01*
X6885897Y213359D01*
X6882368Y212534D01*
X6878819Y211794D01*
X6875254Y211141D01*
X6871673Y210574D01*
X6868081Y210094D01*
X6864477Y209700D01*
X6860865Y209394D01*
X6857247Y209175D01*
X6853625Y209044D01*
X6850000Y209000D01*
X4800000Y209000D01*
X4600000Y9000D01*
X1300000Y9000D01*
X1100000Y209000D01*
X150000Y209000D01*
X146375Y209044D01*
X142753Y209175D01*
X139135Y209394D01*
X135523Y209700D01*
X131919Y210094D01*
X128327Y210574D01*
X124746Y211141D01*
X121181Y211794D01*
X117632Y212534D01*
X114103Y213359D01*
X110594Y214269D01*
X107108Y215263D01*
X103647Y216342D01*
X100214Y217503D01*
X96809Y218748D01*
X93436Y220074D01*
X90095Y221481D01*
X86790Y222969D01*
X83521Y224536D01*
X80292Y226182D01*
X77102Y227905D01*
X73956Y229705D01*
X70854Y231580D01*
X67798Y233529D01*
X64790Y235552D01*
X61832Y237647D01*
X58926Y239813D01*
X56072Y242049D01*
X53274Y244353D01*
X50532Y246723D01*
X47848Y249160D01*
X45223Y251660D01*
X42660Y254223D01*
X40160Y256848D01*
X37723Y259532D01*
X35353Y262274D01*
X33049Y265072D01*
X30813Y267926D01*
X28647Y270832D01*
X26552Y273790D01*
X24529Y276798D01*
X22580Y279854D01*
X20705Y282956D01*
X18905Y286102D01*
X17182Y289292D01*
X15536Y292521D01*
X13969Y295790D01*
X12481Y299095D01*
X11074Y302436D01*
X9748Y305809D01*
X8503Y309214D01*
X7342Y312647D01*
X6263Y316108D01*
X5269Y319594D01*
X4359Y323103D01*
X3534Y326632D01*
X2794Y330181D01*
X2141Y333746D01*
X1574Y337327D01*
X1094Y340919D01*
X700Y344523D01*
X394Y348135D01*
X175Y351753D01*
X44Y355375D01*
X0Y359000D01*
D12*
X325000Y5085000D03*
D13*
X325000Y513000D03*
X579000Y5085000D03*
X325000Y4831000D03*
X579000Y4831000D03*
X325000Y4577000D03*
X579000Y4577000D03*
X325000Y4323000D03*
X579000Y4323000D03*
X325000Y4069000D03*
X579000Y4069000D03*
X325000Y3815000D03*
X579000Y3815000D03*
X325000Y3561000D03*
X579000Y3561000D03*
X325000Y3307000D03*
X579000Y3307000D03*
X325000Y3053000D03*
X579000Y3053000D03*
X325000Y2799000D03*
X579000Y2799000D03*
X325000Y2545000D03*
X579000Y2545000D03*
X325000Y2291000D03*
X579000Y2291000D03*
X325000Y2037000D03*
X579000Y2037000D03*
X325000Y1783000D03*
X579000Y1783000D03*
X325000Y1529000D03*
X579000Y1529000D03*
X325000Y1275000D03*
X579000Y1275000D03*
X325000Y1021000D03*
X579000Y1021000D03*
X325000Y767000D03*
X579000Y767000D03*
X579000Y513000D03*
D12*
X6421000Y5085000D03*
D13*
X6421000Y513000D03*
X6675000Y5085000D03*
X6421000Y4831000D03*
X6675000Y4831000D03*
X6421000Y4577000D03*
X6675000Y4577000D03*
X6421000Y4323000D03*
X6675000Y4323000D03*
X6421000Y4069000D03*
X6675000Y4069000D03*
X6421000Y3815000D03*
X6675000Y3815000D03*
X6421000Y3561000D03*
X6675000Y3561000D03*
X6421000Y3307000D03*
X6675000Y3307000D03*
X6421000Y3053000D03*
X6675000Y3053000D03*
X6421000Y2799000D03*
X6675000Y2799000D03*
X6421000Y2545000D03*
X6675000Y2545000D03*
X6421000Y2291000D03*
X6675000Y2291000D03*
X6421000Y2037000D03*
X6675000Y2037000D03*
X6421000Y1783000D03*
X6675000Y1783000D03*
X6421000Y1529000D03*
X6675000Y1529000D03*
X6421000Y1275000D03*
X6675000Y1275000D03*
X6421000Y1021000D03*
X6675000Y1021000D03*
X6421000Y767000D03*
X6675000Y767000D03*
X6675000Y513000D03*
D14*
X4239000Y259000D02*
X4239045Y262681D01*
X4239181Y266360D01*
X4239406Y270035D01*
X4239722Y273703D01*
X4240128Y277362D01*
X4240624Y281010D01*
X4241208Y284644D01*
X4241882Y288264D01*
X4242645Y291865D01*
X4243495Y295447D01*
X4244434Y299007D01*
X4245459Y302543D01*
X4246571Y306052D01*
X4247768Y309533D01*
X4249051Y312984D01*
X4250418Y316403D01*
X4251869Y319786D01*
X4253402Y323133D01*
X4255016Y326442D01*
X4256712Y329710D01*
X4258487Y332935D01*
X4260341Y336115D01*
X4262272Y339250D01*
X4264280Y342336D01*
X4266362Y345371D01*
X4268519Y348355D01*
X4270748Y351285D01*
X4273048Y354159D01*
X4275419Y356976D01*
X4277857Y359734D01*
X4280363Y362431D01*
X4282934Y365066D01*
X4285569Y367637D01*
X4288266Y370143D01*
X4291024Y372581D01*
X4293841Y374952D01*
X4296715Y377252D01*
X4299645Y379481D01*
X4302629Y381638D01*
X4305664Y383720D01*
X4308750Y385728D01*
X4311885Y387659D01*
X4315065Y389513D01*
X4318290Y391288D01*
X4321558Y392984D01*
X4324867Y394598D01*
X4328214Y396131D01*
X4331597Y397582D01*
X4335016Y398949D01*
X4338467Y400232D01*
X4341948Y401429D01*
X4345457Y402541D01*
X4348993Y403566D01*
X4352553Y404505D01*
X4356135Y405355D01*
X4359736Y406118D01*
X4363356Y406792D01*
X4366990Y407376D01*
X4370638Y407872D01*
X4374297Y408278D01*
X4377965Y408594D01*
X4381640Y408819D01*
X4385319Y408955D01*
X4389000Y409000D01*
X4392681Y408955D01*
X4396360Y408819D01*
X4400035Y408594D01*
X4403703Y408278D01*
X4407362Y407872D01*
X4411010Y407376D01*
X4414644Y406792D01*
X4418264Y406118D01*
X4421865Y405355D01*
X4425447Y404505D01*
X4429007Y403566D01*
X4432543Y402541D01*
X4436052Y401429D01*
X4439533Y400232D01*
X4442984Y398949D01*
X4446403Y397582D01*
X4449786Y396131D01*
X4453133Y394598D01*
X4456442Y392984D01*
X4459710Y391288D01*
X4462935Y389513D01*
X4466115Y387659D01*
X4469250Y385728D01*
X4472336Y383720D01*
X4475371Y381638D01*
X4478355Y379481D01*
X4481285Y377252D01*
X4484159Y374952D01*
X4486976Y372581D01*
X4489734Y370143D01*
X4492431Y367637D01*
X4495066Y365066D01*
X4497637Y362431D01*
X4500143Y359734D01*
X4502581Y356976D01*
X4504952Y354159D01*
X4507252Y351285D01*
X4509481Y348355D01*
X4511638Y345371D01*
X4513720Y342336D01*
X4515728Y339250D01*
X4517659Y336115D01*
X4519513Y332935D01*
X4521288Y329710D01*
X4522984Y326442D01*
X4524598Y323133D01*
X4526131Y319786D01*
X4527582Y316403D01*
X4528949Y312984D01*
X4530232Y309533D01*
X4531429Y306052D01*
X4532541Y302543D01*
X4533566Y299007D01*
X4534505Y295447D01*
X4535355Y291865D01*
X4536118Y288264D01*
X4536792Y284644D01*
X4537376Y281010D01*
X4537872Y277362D01*
X4538278Y273703D01*
X4538594Y270035D01*
X4538819Y266360D01*
X4538955Y262681D01*
X4539000Y259000D01*
X4538955Y255319D01*
X4538819Y251640D01*
X4538594Y247965D01*
X4538278Y244297D01*
X4537872Y240638D01*
X4537376Y236990D01*
X4536792Y233356D01*
X4536118Y229736D01*
X4535355Y226135D01*
X4534505Y222553D01*
X4533566Y218993D01*
X4532541Y215457D01*
X4531429Y211948D01*
X4530232Y208467D01*
X4528949Y205016D01*
X4527582Y201597D01*
X4526131Y198214D01*
X4524598Y194867D01*
X4522984Y191558D01*
X4521288Y188290D01*
X4519513Y185065D01*
X4517659Y181885D01*
X4515728Y178750D01*
X4513720Y175664D01*
X4511638Y172629D01*
X4509481Y169645D01*
X4507252Y166715D01*
X4504952Y163841D01*
X4502581Y161024D01*
X4500143Y158266D01*
X4497637Y155569D01*
X4495066Y152934D01*
X4492431Y150363D01*
X4489734Y147857D01*
X4486976Y145419D01*
X4484159Y143048D01*
X4481285Y140748D01*
X4478355Y138519D01*
X4475371Y136362D01*
X4472336Y134280D01*
X4469250Y132272D01*
X4466115Y130341D01*
X4462935Y128487D01*
X4459710Y126712D01*
X4456442Y125016D01*
X4453133Y123402D01*
X4449786Y121869D01*
X4446403Y120418D01*
X4442984Y119051D01*
X4439533Y117768D01*
X4436052Y116571D01*
X4432543Y115459D01*
X4429007Y114434D01*
X4425447Y113495D01*
X4421865Y112645D01*
X4418264Y111882D01*
X4414644Y111208D01*
X4411010Y110624D01*
X4407362Y110128D01*
X4403703Y109722D01*
X4400035Y109406D01*
X4396360Y109181D01*
X4392681Y109045D01*
X4389000Y109000D01*
X4385319Y109045D01*
X4381640Y109181D01*
X4377965Y109406D01*
X4374297Y109722D01*
X4370638Y110128D01*
X4366990Y110624D01*
X4363356Y111208D01*
X4359736Y111882D01*
X4356135Y112645D01*
X4352553Y113495D01*
X4348993Y114434D01*
X4345457Y115459D01*
X4341948Y116571D01*
X4338467Y117768D01*
X4335016Y119051D01*
X4331597Y120418D01*
X4328214Y121869D01*
X4324867Y123402D01*
X4321558Y125016D01*
X4318290Y126712D01*
X4315065Y128487D01*
X4311885Y130341D01*
X4308750Y132272D01*
X4305664Y134280D01*
X4302629Y136362D01*
X4299645Y138519D01*
X4296715Y140748D01*
X4293841Y143048D01*
X4291024Y145419D01*
X4288266Y147857D01*
X4285569Y150363D01*
X4282934Y152934D01*
X4280363Y155569D01*
X4277857Y158266D01*
X4275419Y161024D01*
X4273048Y163841D01*
X4270748Y166715D01*
X4268519Y169645D01*
X4266362Y172629D01*
X4264280Y175664D01*
X4262272Y178750D01*
X4260341Y181885D01*
X4258487Y185065D01*
X4256712Y188290D01*
X4255016Y191558D01*
X4253402Y194867D01*
X4251869Y198214D01*
X4250418Y201597D01*
X4249051Y205016D01*
X4247768Y208467D01*
X4246571Y211948D01*
X4245459Y215457D01*
X4244434Y218993D01*
X4243495Y222553D01*
X4242645Y226135D01*
X4241882Y229736D01*
X4241208Y233356D01*
X4240624Y236990D01*
X4240128Y240638D01*
X4239722Y244297D01*
X4239406Y247965D01*
X4239181Y251640D01*
X4239045Y255319D01*
X4239000Y259000D01*
D15*
X4389000Y259000D03*
D14*
X5763000Y5339000D02*
X5763045Y5342681D01*
X5763181Y5346360D01*
X5763406Y5350035D01*
X5763722Y5353703D01*
X5764128Y5357362D01*
X5764624Y5361010D01*
X5765208Y5364644D01*
X5765882Y5368264D01*
X5766645Y5371865D01*
X5767495Y5375447D01*
X5768434Y5379007D01*
X5769459Y5382543D01*
X5770571Y5386052D01*
X5771768Y5389533D01*
X5773051Y5392984D01*
X5774418Y5396403D01*
X5775869Y5399786D01*
X5777402Y5403133D01*
X5779016Y5406442D01*
X5780712Y5409710D01*
X5782487Y5412935D01*
X5784341Y5416115D01*
X5786272Y5419250D01*
X5788280Y5422336D01*
X5790362Y5425371D01*
X5792519Y5428355D01*
X5794748Y5431285D01*
X5797048Y5434159D01*
X5799419Y5436976D01*
X5801857Y5439734D01*
X5804363Y5442431D01*
X5806934Y5445066D01*
X5809569Y5447637D01*
X5812266Y5450143D01*
X5815024Y5452581D01*
X5817841Y5454952D01*
X5820715Y5457252D01*
X5823645Y5459481D01*
X5826629Y5461638D01*
X5829664Y5463720D01*
X5832750Y5465728D01*
X5835885Y5467659D01*
X5839065Y5469513D01*
X5842290Y5471288D01*
X5845558Y5472984D01*
X5848867Y5474598D01*
X5852214Y5476131D01*
X5855597Y5477582D01*
X5859016Y5478949D01*
X5862467Y5480232D01*
X5865948Y5481429D01*
X5869457Y5482541D01*
X5872993Y5483566D01*
X5876553Y5484505D01*
X5880135Y5485355D01*
X5883736Y5486118D01*
X5887356Y5486792D01*
X5890990Y5487376D01*
X5894638Y5487872D01*
X5898297Y5488278D01*
X5901965Y5488594D01*
X5905640Y5488819D01*
X5909319Y5488955D01*
X5913000Y5489000D01*
X5916681Y5488955D01*
X5920360Y5488819D01*
X5924035Y5488594D01*
X5927703Y5488278D01*
X5931362Y5487872D01*
X5935010Y5487376D01*
X5938644Y5486792D01*
X5942264Y5486118D01*
X5945865Y5485355D01*
X5949447Y5484505D01*
X5953007Y5483566D01*
X5956543Y5482541D01*
X5960052Y5481429D01*
X5963533Y5480232D01*
X5966984Y5478949D01*
X5970403Y5477582D01*
X5973786Y5476131D01*
X5977133Y5474598D01*
X5980442Y5472984D01*
X5983710Y5471288D01*
X5986935Y5469513D01*
X5990115Y5467659D01*
X5993250Y5465728D01*
X5996336Y5463720D01*
X5999371Y5461638D01*
X6002355Y5459481D01*
X6005285Y5457252D01*
X6008159Y5454952D01*
X6010976Y5452581D01*
X6013734Y5450143D01*
X6016431Y5447637D01*
X6019066Y5445066D01*
X6021637Y5442431D01*
X6024143Y5439734D01*
X6026581Y5436976D01*
X6028952Y5434159D01*
X6031252Y5431285D01*
X6033481Y5428355D01*
X6035638Y5425371D01*
X6037720Y5422336D01*
X6039728Y5419250D01*
X6041659Y5416115D01*
X6043513Y5412935D01*
X6045288Y5409710D01*
X6046984Y5406442D01*
X6048598Y5403133D01*
X6050131Y5399786D01*
X6051582Y5396403D01*
X6052949Y5392984D01*
X6054232Y5389533D01*
X6055429Y5386052D01*
X6056541Y5382543D01*
X6057566Y5379007D01*
X6058505Y5375447D01*
X6059355Y5371865D01*
X6060118Y5368264D01*
X6060792Y5364644D01*
X6061376Y5361010D01*
X6061872Y5357362D01*
X6062278Y5353703D01*
X6062594Y5350035D01*
X6062819Y5346360D01*
X6062955Y5342681D01*
X6063000Y5339000D01*
X6062955Y5335319D01*
X6062819Y5331640D01*
X6062594Y5327965D01*
X6062278Y5324297D01*
X6061872Y5320638D01*
X6061376Y5316990D01*
X6060792Y5313356D01*
X6060118Y5309736D01*
X6059355Y5306135D01*
X6058505Y5302553D01*
X6057566Y5298993D01*
X6056541Y5295457D01*
X6055429Y5291948D01*
X6054232Y5288467D01*
X6052949Y5285016D01*
X6051582Y5281597D01*
X6050131Y5278214D01*
X6048598Y5274867D01*
X6046984Y5271558D01*
X6045288Y5268290D01*
X6043513Y5265065D01*
X6041659Y5261885D01*
X6039728Y5258750D01*
X6037720Y5255664D01*
X6035638Y5252629D01*
X6033481Y5249645D01*
X6031252Y5246715D01*
X6028952Y5243841D01*
X6026581Y5241024D01*
X6024143Y5238266D01*
X6021637Y5235569D01*
X6019066Y5232934D01*
X6016431Y5230363D01*
X6013734Y5227857D01*
X6010976Y5225419D01*
X6008159Y5223048D01*
X6005285Y5220748D01*
X6002355Y5218519D01*
X5999371Y5216362D01*
X5996336Y5214280D01*
X5993250Y5212272D01*
X5990115Y5210341D01*
X5986935Y5208487D01*
X5983710Y5206712D01*
X5980442Y5205016D01*
X5977133Y5203402D01*
X5973786Y5201869D01*
X5970403Y5200418D01*
X5966984Y5199051D01*
X5963533Y5197768D01*
X5960052Y5196571D01*
X5956543Y5195459D01*
X5953007Y5194434D01*
X5949447Y5193495D01*
X5945865Y5192645D01*
X5942264Y5191882D01*
X5938644Y5191208D01*
X5935010Y5190624D01*
X5931362Y5190128D01*
X5927703Y5189722D01*
X5924035Y5189406D01*
X5920360Y5189181D01*
X5916681Y5189045D01*
X5913000Y5189000D01*
X5909319Y5189045D01*
X5905640Y5189181D01*
X5901965Y5189406D01*
X5898297Y5189722D01*
X5894638Y5190128D01*
X5890990Y5190624D01*
X5887356Y5191208D01*
X5883736Y5191882D01*
X5880135Y5192645D01*
X5876553Y5193495D01*
X5872993Y5194434D01*
X5869457Y5195459D01*
X5865948Y5196571D01*
X5862467Y5197768D01*
X5859016Y5199051D01*
X5855597Y5200418D01*
X5852214Y5201869D01*
X5848867Y5203402D01*
X5845558Y5205016D01*
X5842290Y5206712D01*
X5839065Y5208487D01*
X5835885Y5210341D01*
X5832750Y5212272D01*
X5829664Y5214280D01*
X5826629Y5216362D01*
X5823645Y5218519D01*
X5820715Y5220748D01*
X5817841Y5223048D01*
X5815024Y5225419D01*
X5812266Y5227857D01*
X5809569Y5230363D01*
X5806934Y5232934D01*
X5804363Y5235569D01*
X5801857Y5238266D01*
X5799419Y5241024D01*
X5797048Y5243841D01*
X5794748Y5246715D01*
X5792519Y5249645D01*
X5790362Y5252629D01*
X5788280Y5255664D01*
X5786272Y5258750D01*
X5784341Y5261885D01*
X5782487Y5265065D01*
X5780712Y5268290D01*
X5779016Y5271558D01*
X5777402Y5274867D01*
X5775869Y5278214D01*
X5774418Y5281597D01*
X5773051Y5285016D01*
X5771768Y5288467D01*
X5770571Y5291948D01*
X5769459Y5295457D01*
X5768434Y5298993D01*
X5767495Y5302553D01*
X5766645Y5306135D01*
X5765882Y5309736D01*
X5765208Y5313356D01*
X5764624Y5316990D01*
X5764128Y5320638D01*
X5763722Y5324297D01*
X5763406Y5327965D01*
X5763181Y5331640D01*
X5763045Y5335319D01*
X5763000Y5339000D01*
D15*
X5913000Y5339000D03*
D14*
X937000Y5466000D02*
X937045Y5469681D01*
X937181Y5473360D01*
X937406Y5477035D01*
X937722Y5480703D01*
X938128Y5484362D01*
X938624Y5488010D01*
X939208Y5491644D01*
X939882Y5495264D01*
X940645Y5498865D01*
X941495Y5502447D01*
X942434Y5506007D01*
X943459Y5509543D01*
X944571Y5513052D01*
X945768Y5516533D01*
X947051Y5519984D01*
X948418Y5523403D01*
X949869Y5526786D01*
X951402Y5530133D01*
X953016Y5533442D01*
X954712Y5536710D01*
X956487Y5539935D01*
X958341Y5543115D01*
X960272Y5546250D01*
X962280Y5549336D01*
X964362Y5552371D01*
X966519Y5555355D01*
X968748Y5558285D01*
X971048Y5561159D01*
X973419Y5563976D01*
X975857Y5566734D01*
X978363Y5569431D01*
X980934Y5572066D01*
X983569Y5574637D01*
X986266Y5577143D01*
X989024Y5579581D01*
X991841Y5581952D01*
X994715Y5584252D01*
X997645Y5586481D01*
X1000629Y5588638D01*
X1003664Y5590720D01*
X1006750Y5592728D01*
X1009885Y5594659D01*
X1013065Y5596513D01*
X1016290Y5598288D01*
X1019558Y5599984D01*
X1022867Y5601598D01*
X1026214Y5603131D01*
X1029597Y5604582D01*
X1033016Y5605949D01*
X1036467Y5607232D01*
X1039948Y5608429D01*
X1043457Y5609541D01*
X1046993Y5610566D01*
X1050553Y5611505D01*
X1054135Y5612355D01*
X1057736Y5613118D01*
X1061356Y5613792D01*
X1064990Y5614376D01*
X1068638Y5614872D01*
X1072297Y5615278D01*
X1075965Y5615594D01*
X1079640Y5615819D01*
X1083319Y5615955D01*
X1087000Y5616000D01*
X1090681Y5615955D01*
X1094360Y5615819D01*
X1098035Y5615594D01*
X1101703Y5615278D01*
X1105362Y5614872D01*
X1109010Y5614376D01*
X1112644Y5613792D01*
X1116264Y5613118D01*
X1119865Y5612355D01*
X1123447Y5611505D01*
X1127007Y5610566D01*
X1130543Y5609541D01*
X1134052Y5608429D01*
X1137533Y5607232D01*
X1140984Y5605949D01*
X1144403Y5604582D01*
X1147786Y5603131D01*
X1151133Y5601598D01*
X1154442Y5599984D01*
X1157710Y5598288D01*
X1160935Y5596513D01*
X1164115Y5594659D01*
X1167250Y5592728D01*
X1170336Y5590720D01*
X1173371Y5588638D01*
X1176355Y5586481D01*
X1179285Y5584252D01*
X1182159Y5581952D01*
X1184976Y5579581D01*
X1187734Y5577143D01*
X1190431Y5574637D01*
X1193066Y5572066D01*
X1195637Y5569431D01*
X1198143Y5566734D01*
X1200581Y5563976D01*
X1202952Y5561159D01*
X1205252Y5558285D01*
X1207481Y5555355D01*
X1209638Y5552371D01*
X1211720Y5549336D01*
X1213728Y5546250D01*
X1215659Y5543115D01*
X1217513Y5539935D01*
X1219288Y5536710D01*
X1220984Y5533442D01*
X1222598Y5530133D01*
X1224131Y5526786D01*
X1225582Y5523403D01*
X1226949Y5519984D01*
X1228232Y5516533D01*
X1229429Y5513052D01*
X1230541Y5509543D01*
X1231566Y5506007D01*
X1232505Y5502447D01*
X1233355Y5498865D01*
X1234118Y5495264D01*
X1234792Y5491644D01*
X1235376Y5488010D01*
X1235872Y5484362D01*
X1236278Y5480703D01*
X1236594Y5477035D01*
X1236819Y5473360D01*
X1236955Y5469681D01*
X1237000Y5466000D01*
X1236955Y5462319D01*
X1236819Y5458640D01*
X1236594Y5454965D01*
X1236278Y5451297D01*
X1235872Y5447638D01*
X1235376Y5443990D01*
X1234792Y5440356D01*
X1234118Y5436736D01*
X1233355Y5433135D01*
X1232505Y5429553D01*
X1231566Y5425993D01*
X1230541Y5422457D01*
X1229429Y5418948D01*
X1228232Y5415467D01*
X1226949Y5412016D01*
X1225582Y5408597D01*
X1224131Y5405214D01*
X1222598Y5401867D01*
X1220984Y5398558D01*
X1219288Y5395290D01*
X1217513Y5392065D01*
X1215659Y5388885D01*
X1213728Y5385750D01*
X1211720Y5382664D01*
X1209638Y5379629D01*
X1207481Y5376645D01*
X1205252Y5373715D01*
X1202952Y5370841D01*
X1200581Y5368024D01*
X1198143Y5365266D01*
X1195637Y5362569D01*
X1193066Y5359934D01*
X1190431Y5357363D01*
X1187734Y5354857D01*
X1184976Y5352419D01*
X1182159Y5350048D01*
X1179285Y5347748D01*
X1176355Y5345519D01*
X1173371Y5343362D01*
X1170336Y5341280D01*
X1167250Y5339272D01*
X1164115Y5337341D01*
X1160935Y5335487D01*
X1157710Y5333712D01*
X1154442Y5332016D01*
X1151133Y5330402D01*
X1147786Y5328869D01*
X1144403Y5327418D01*
X1140984Y5326051D01*
X1137533Y5324768D01*
X1134052Y5323571D01*
X1130543Y5322459D01*
X1127007Y5321434D01*
X1123447Y5320495D01*
X1119865Y5319645D01*
X1116264Y5318882D01*
X1112644Y5318208D01*
X1109010Y5317624D01*
X1105362Y5317128D01*
X1101703Y5316722D01*
X1098035Y5316406D01*
X1094360Y5316181D01*
X1090681Y5316045D01*
X1087000Y5316000D01*
X1083319Y5316045D01*
X1079640Y5316181D01*
X1075965Y5316406D01*
X1072297Y5316722D01*
X1068638Y5317128D01*
X1064990Y5317624D01*
X1061356Y5318208D01*
X1057736Y5318882D01*
X1054135Y5319645D01*
X1050553Y5320495D01*
X1046993Y5321434D01*
X1043457Y5322459D01*
X1039948Y5323571D01*
X1036467Y5324768D01*
X1033016Y5326051D01*
X1029597Y5327418D01*
X1026214Y5328869D01*
X1022867Y5330402D01*
X1019558Y5332016D01*
X1016290Y5333712D01*
X1013065Y5335487D01*
X1009885Y5337341D01*
X1006750Y5339272D01*
X1003664Y5341280D01*
X1000629Y5343362D01*
X997645Y5345519D01*
X994715Y5347748D01*
X991841Y5350048D01*
X989024Y5352419D01*
X986266Y5354857D01*
X983569Y5357363D01*
X980934Y5359934D01*
X978363Y5362569D01*
X975857Y5365266D01*
X973419Y5368024D01*
X971048Y5370841D01*
X968748Y5373715D01*
X966519Y5376645D01*
X964362Y5379629D01*
X962280Y5382664D01*
X960272Y5385750D01*
X958341Y5388885D01*
X956487Y5392065D01*
X954712Y5395290D01*
X953016Y5398558D01*
X951402Y5401867D01*
X949869Y5405214D01*
X948418Y5408597D01*
X947051Y5412016D01*
X945768Y5415467D01*
X944571Y5418948D01*
X943459Y5422457D01*
X942434Y5425993D01*
X941495Y5429553D01*
X940645Y5433135D01*
X939882Y5436736D01*
X939208Y5440356D01*
X938624Y5443990D01*
X938128Y5447638D01*
X937722Y5451297D01*
X937406Y5454965D01*
X937181Y5458640D01*
X937045Y5462319D01*
X937000Y5466000D01*
D15*
X1087000Y5466000D03*
D16*
X1232340Y6884500D03*
X617660Y6884500D03*
X1232340Y7011500D03*
X1232340Y7138500D03*
X617660Y7011500D03*
X617660Y7138500D03*
X1232340Y7265500D03*
X617660Y7265500D03*
D17*
X1285000Y6008000D03*
X1175000Y6008000D03*
X1065000Y6008000D03*
X955000Y6008000D03*
X845000Y6008000D03*
X735000Y6008000D03*
X625000Y6008000D03*
X515000Y6008000D03*
D18*
X1400000Y6256000D03*
D19*
X330000Y6305000D03*
D20*
X352500Y6180000D03*
D21*
X422500Y6447300D03*
D22*
X4692500Y2452500D03*
X4627500Y2452500D03*
X4562500Y2452500D03*
X4562500Y2247500D03*
X4627500Y2247500D03*
X4692500Y2247500D03*
D23*
X4625000Y2350000D03*
D24*
X2559000Y3250000D03*
X4559000Y3250000D03*
D25*
X3691500Y4556000D03*
X3736500Y4556000D03*
X3781500Y4556000D03*
X3826500Y4556000D03*
X3871500Y4556000D03*
X3916500Y4556000D03*
X3916500Y4836000D03*
X3871500Y4836000D03*
X3826500Y4836000D03*
X3781500Y4836000D03*
X3736500Y4836000D03*
X3691500Y4836000D03*
D26*
X3804000Y4696000D03*
D27*
X4171000Y873174D03*
X4298000Y873174D03*
X4425000Y873173D03*
X4552000Y873174D03*
X4679000Y873173D03*
D28*
X4679000Y1764327D03*
D27*
X4552000Y1776826D03*
X4425000Y1776827D03*
X4298000Y1776827D03*
X4171000Y1776826D03*
D29*
X4425000Y1325000D03*
D30*
X4044000Y1325000D03*
X4806000Y1071000D03*
X4806000Y1579000D03*
X4044000Y1071000D03*
X4044000Y1579000D03*
X4806000Y1325000D03*
X4425000Y1071000D03*
X4425000Y1579000D03*
X4044000Y917000D03*
X4044000Y1733000D03*
X4806000Y917000D03*
X4806000Y1733000D03*
D31*
X1827000Y300000D03*
X1573000Y300000D03*
X3227000Y300000D03*
X2973000Y300000D03*
X2527000Y300000D03*
X2273000Y300000D03*
D32*
X6402500Y7097500D03*
X6467500Y7097500D03*
X6532500Y7097500D03*
X6597500Y7097500D03*
X6597500Y7352500D03*
X6532500Y7352500D03*
X6467500Y7352500D03*
X6402500Y7352500D03*
D33*
X6627000Y7823800D02*
X6627000Y7976200D01*
X6373000Y7976200D02*
X6373000Y7823800D01*
D34*
X3450000Y4573000D03*
X3450000Y4827000D03*
D35*
X1955600Y3839700D03*
X1955600Y3560300D03*
X1244400Y3560300D03*
X1244400Y3839700D03*
X1955600Y2689700D03*
X1955600Y2410300D03*
X1244400Y2410300D03*
X1244400Y2689700D03*
M02*
