G04 EAGLE Gerber RS-274X export*
G75*
%MOMM*%
%FSLAX35Y35*%
%LPD*%
%INsilk_top*%
%IPPOS*%
%AMOC8*
5,1,8,0,0,1.08239X$1,22.5*%
G01*
%ADD10C,0.076200*%
%ADD11C,0.050800*%
%ADD12C,0.152400*%
%ADD13C,0.127000*%
%ADD14C,0.000000*%
%ADD15C,0.101600*%
%ADD16C,0.203200*%
%ADD17C,0.200000*%
%ADD18C,0.300000*%
%ADD19C,0.508000*%
%ADD20C,0.500000*%
%ADD21R,0.254000X2.540000*%
%ADD22R,0.508000X0.508000*%


D10*
X6176731Y408613D02*
X6253780Y408613D01*
X6269190Y424023D01*
X6269190Y454843D01*
X6253780Y470253D01*
X6176731Y470253D01*
X6207551Y500692D02*
X6269190Y500692D01*
X6207551Y500692D02*
X6176731Y531511D01*
X6207551Y562331D01*
X6269190Y562331D01*
X6222961Y562331D02*
X6222961Y500692D01*
X6269190Y592770D02*
X6176731Y592770D01*
X6176731Y639000D01*
X6192141Y654409D01*
X6222961Y654409D01*
X6238371Y639000D01*
X6238371Y592770D01*
X6238371Y623590D02*
X6269190Y654409D01*
X6269190Y715668D02*
X6176731Y715668D01*
X6176731Y684849D02*
X6176731Y746488D01*
X6207551Y776927D02*
X6176731Y807747D01*
X6269190Y807747D01*
X6269190Y838566D02*
X6269190Y776927D01*
X6176731Y2603922D02*
X6192141Y2619331D01*
X6176731Y2603922D02*
X6176731Y2573102D01*
X6192141Y2557692D01*
X6253780Y2557692D01*
X6269190Y2573102D01*
X6269190Y2603922D01*
X6253780Y2619331D01*
X6269190Y2649771D02*
X6207551Y2649771D01*
X6176731Y2680590D01*
X6207551Y2711410D01*
X6269190Y2711410D01*
X6222961Y2711410D02*
X6222961Y2649771D01*
X6269190Y2741849D02*
X6176731Y2741849D01*
X6269190Y2803488D01*
X6176731Y2803488D01*
X5930999Y1570269D02*
X5930999Y1477810D01*
X5961818Y1539449D02*
X5930999Y1570269D01*
X5961818Y1539449D02*
X5992638Y1570269D01*
X5992638Y1477810D01*
X6038487Y1570269D02*
X6069307Y1570269D01*
X6038487Y1570269D02*
X6023078Y1554859D01*
X6023078Y1493220D01*
X6038487Y1477810D01*
X6069307Y1477810D01*
X6084717Y1493220D01*
X6084717Y1554859D01*
X6069307Y1570269D01*
X6161385Y1570269D02*
X6176795Y1554859D01*
X6161385Y1570269D02*
X6130566Y1570269D01*
X6115156Y1554859D01*
X6115156Y1539449D01*
X6130566Y1524039D01*
X6161385Y1524039D01*
X6176795Y1508629D01*
X6176795Y1493220D01*
X6161385Y1477810D01*
X6130566Y1477810D01*
X6115156Y1493220D01*
X6207234Y1477810D02*
X6238054Y1477810D01*
X6222644Y1477810D02*
X6222644Y1570269D01*
X6207234Y1570269D02*
X6238054Y1570269D01*
X5930999Y1731810D02*
X5930999Y1824269D01*
X5961818Y1793449D01*
X5992638Y1824269D01*
X5992638Y1731810D01*
X6023078Y1731810D02*
X6053897Y1731810D01*
X6038487Y1731810D02*
X6038487Y1824269D01*
X6023078Y1824269D02*
X6053897Y1824269D01*
X6130693Y1824269D02*
X6146102Y1808859D01*
X6130693Y1824269D02*
X6099873Y1824269D01*
X6084463Y1808859D01*
X6084463Y1793449D01*
X6099873Y1778039D01*
X6130693Y1778039D01*
X6146102Y1762629D01*
X6146102Y1747220D01*
X6130693Y1731810D01*
X6099873Y1731810D01*
X6084463Y1747220D01*
X6191951Y1824269D02*
X6222771Y1824269D01*
X6191951Y1824269D02*
X6176542Y1808859D01*
X6176542Y1747220D01*
X6191951Y1731810D01*
X6222771Y1731810D01*
X6238181Y1747220D01*
X6238181Y1808859D01*
X6222771Y1824269D01*
X6023331Y2316859D02*
X6007921Y2332269D01*
X5977102Y2332269D01*
X5961692Y2316859D01*
X5961692Y2301449D01*
X5977102Y2286039D01*
X6007921Y2286039D01*
X6023331Y2270629D01*
X6023331Y2255220D01*
X6007921Y2239810D01*
X5977102Y2239810D01*
X5961692Y2255220D01*
X6100000Y2332269D02*
X6115409Y2316859D01*
X6100000Y2332269D02*
X6069180Y2332269D01*
X6053770Y2316859D01*
X6053770Y2255220D01*
X6069180Y2239810D01*
X6100000Y2239810D01*
X6115409Y2255220D01*
X6145849Y2239810D02*
X6145849Y2332269D01*
X6207488Y2332269D02*
X6145849Y2270629D01*
X6161258Y2286039D02*
X6207488Y2239810D01*
X6427331Y7630859D02*
X6411922Y7646269D01*
X6381102Y7646269D01*
X6365692Y7630859D01*
X6365692Y7569220D01*
X6381102Y7553810D01*
X6411922Y7553810D01*
X6427331Y7569220D01*
X6457771Y7553810D02*
X6457771Y7615449D01*
X6488590Y7646269D01*
X6519410Y7615449D01*
X6519410Y7553810D01*
X6519410Y7600039D02*
X6457771Y7600039D01*
X6549849Y7553810D02*
X6549849Y7646269D01*
X6611488Y7553810D01*
X6611488Y7646269D01*
X6803810Y7828810D02*
X6803810Y7921269D01*
X6803810Y7828810D02*
X6865449Y7828810D01*
X6111732Y7828810D02*
X6111732Y7921269D01*
X6111732Y7875039D02*
X6173371Y7875039D01*
X6173371Y7828810D02*
X6173371Y7921269D01*
D11*
X3201644Y4392388D02*
X3189980Y4380725D01*
X3189980Y4357398D01*
X3201644Y4345735D01*
X3213307Y4345735D01*
X3224970Y4357398D01*
X3224970Y4380725D01*
X3236633Y4392388D01*
X3248297Y4392388D01*
X3259960Y4380725D01*
X3259960Y4357398D01*
X3248297Y4345735D01*
X3189980Y4449784D02*
X3201644Y4461447D01*
X3189980Y4449784D02*
X3189980Y4426457D01*
X3201644Y4414794D01*
X3248297Y4414794D01*
X3259960Y4426457D01*
X3259960Y4449784D01*
X3248297Y4461447D01*
X3259960Y4564575D02*
X3259960Y4587901D01*
X3248297Y4599565D01*
X3224970Y4599565D01*
X3213307Y4587901D01*
X3213307Y4564575D01*
X3224970Y4552912D01*
X3248297Y4552912D01*
X3259960Y4564575D01*
X3213307Y4621970D02*
X3259960Y4645297D01*
X3213307Y4668623D01*
X3259960Y4702692D02*
X3259960Y4726019D01*
X3259960Y4702692D02*
X3248297Y4691029D01*
X3224970Y4691029D01*
X3213307Y4702692D01*
X3213307Y4726019D01*
X3224970Y4737682D01*
X3236633Y4737682D01*
X3236633Y4691029D01*
X3259960Y4760088D02*
X3213307Y4760088D01*
X3236633Y4760088D02*
X3213307Y4783414D01*
X3213307Y4795078D01*
X3213307Y4817637D02*
X3259960Y4817637D01*
X3236633Y4817637D02*
X3213307Y4840963D01*
X3213307Y4852627D01*
X3213307Y4875186D02*
X3213307Y4886849D01*
X3259960Y4886849D01*
X3259960Y4875186D02*
X3259960Y4898513D01*
X3189980Y4886849D02*
X3178317Y4886849D01*
X3189980Y4967878D02*
X3259960Y4967878D01*
X3259960Y4932888D01*
X3248297Y4921225D01*
X3224970Y4921225D01*
X3213307Y4932888D01*
X3213307Y4967878D01*
X3259960Y5001947D02*
X3259960Y5025273D01*
X3259960Y5001947D02*
X3248297Y4990284D01*
X3224970Y4990284D01*
X3213307Y5001947D01*
X3213307Y5025273D01*
X3224970Y5036937D01*
X3236633Y5036937D01*
X3236633Y4990284D01*
D10*
X1373613Y4071269D02*
X1373613Y3978810D01*
X1373613Y4071269D02*
X1419843Y4071269D01*
X1435252Y4055859D01*
X1435252Y4025039D01*
X1419843Y4009629D01*
X1373613Y4009629D01*
X1404433Y4009629D02*
X1435252Y3978810D01*
X1465692Y4071269D02*
X1527331Y4071269D01*
X1465692Y4071269D02*
X1465692Y3978810D01*
X1527331Y3978810D01*
X1496511Y4025039D02*
X1465692Y4025039D01*
X1603999Y4071269D02*
X1619409Y4055859D01*
X1603999Y4071269D02*
X1573180Y4071269D01*
X1557770Y4055859D01*
X1557770Y4040449D01*
X1573180Y4025039D01*
X1603999Y4025039D01*
X1619409Y4009629D01*
X1619409Y3994220D01*
X1603999Y3978810D01*
X1573180Y3978810D01*
X1557770Y3994220D01*
X1649848Y4071269D02*
X1711488Y4071269D01*
X1649848Y4071269D02*
X1649848Y3978810D01*
X1711488Y3978810D01*
X1680668Y4025039D02*
X1649848Y4025039D01*
X1772746Y3978810D02*
X1772746Y4071269D01*
X1741927Y4071269D02*
X1803566Y4071269D01*
X1419653Y2921269D02*
X1419653Y2844220D01*
X1435063Y2828810D01*
X1465882Y2828810D01*
X1481292Y2844220D01*
X1481292Y2921269D01*
X1557961Y2921269D02*
X1573370Y2905859D01*
X1557961Y2921269D02*
X1527141Y2921269D01*
X1511731Y2905859D01*
X1511731Y2890449D01*
X1527141Y2875039D01*
X1557961Y2875039D01*
X1573370Y2859629D01*
X1573370Y2844220D01*
X1557961Y2828810D01*
X1527141Y2828810D01*
X1511731Y2844220D01*
X1603810Y2921269D02*
X1665449Y2921269D01*
X1603810Y2921269D02*
X1603810Y2828810D01*
X1665449Y2828810D01*
X1634629Y2875039D02*
X1603810Y2875039D01*
X1695888Y2828810D02*
X1695888Y2921269D01*
X1742118Y2921269D01*
X1757527Y2905859D01*
X1757527Y2875039D01*
X1742118Y2859629D01*
X1695888Y2859629D01*
X1726708Y2859629D02*
X1757527Y2828810D01*
D12*
X192380Y4326927D02*
X7462Y4326927D01*
X7462Y3051927D02*
X192380Y3051927D01*
X192380Y1801927D02*
X7462Y1801927D01*
X6807462Y4326927D02*
X6992380Y4326927D01*
X6992380Y3051927D02*
X6807462Y3051927D01*
X6807462Y1776927D02*
X6992380Y1776927D01*
D13*
X0Y359000D02*
X0Y8109000D01*
X44Y8112625D01*
X175Y8116247D01*
X394Y8119865D01*
X700Y8123477D01*
X1094Y8127081D01*
X1574Y8130673D01*
X2141Y8134254D01*
X2794Y8137819D01*
X3534Y8141368D01*
X4359Y8144897D01*
X5269Y8148406D01*
X6263Y8151892D01*
X7342Y8155353D01*
X8503Y8158786D01*
X9748Y8162191D01*
X11074Y8165564D01*
X12481Y8168905D01*
X13969Y8172210D01*
X15536Y8175479D01*
X17182Y8178708D01*
X18905Y8181898D01*
X20705Y8185044D01*
X22580Y8188146D01*
X24529Y8191202D01*
X26552Y8194210D01*
X28647Y8197168D01*
X30813Y8200074D01*
X33049Y8202928D01*
X35353Y8205726D01*
X37723Y8208468D01*
X40160Y8211152D01*
X42660Y8213777D01*
X45223Y8216340D01*
X47848Y8218840D01*
X50532Y8221277D01*
X53274Y8223647D01*
X56072Y8225951D01*
X58926Y8228187D01*
X61832Y8230353D01*
X64790Y8232448D01*
X67798Y8234471D01*
X70854Y8236420D01*
X73956Y8238295D01*
X77102Y8240095D01*
X80292Y8241818D01*
X83521Y8243464D01*
X86790Y8245031D01*
X90095Y8246519D01*
X93436Y8247926D01*
X96809Y8249252D01*
X100214Y8250497D01*
X103647Y8251658D01*
X107108Y8252737D01*
X110594Y8253731D01*
X114103Y8254641D01*
X117632Y8255466D01*
X121181Y8256206D01*
X124746Y8256859D01*
X128327Y8257426D01*
X131919Y8257906D01*
X135523Y8258300D01*
X139135Y8258606D01*
X142753Y8258825D01*
X146375Y8258956D01*
X150000Y8259000D01*
X6850000Y8259000D01*
X6853625Y8258956D01*
X6857247Y8258825D01*
X6860865Y8258606D01*
X6864477Y8258300D01*
X6868081Y8257906D01*
X6871673Y8257426D01*
X6875254Y8256859D01*
X6878819Y8256206D01*
X6882368Y8255466D01*
X6885897Y8254641D01*
X6889406Y8253731D01*
X6892892Y8252737D01*
X6896353Y8251658D01*
X6899786Y8250497D01*
X6903191Y8249252D01*
X6906564Y8247926D01*
X6909905Y8246519D01*
X6913210Y8245031D01*
X6916479Y8243464D01*
X6919708Y8241818D01*
X6922898Y8240095D01*
X6926044Y8238295D01*
X6929146Y8236420D01*
X6932202Y8234471D01*
X6935210Y8232448D01*
X6938168Y8230353D01*
X6941074Y8228187D01*
X6943928Y8225951D01*
X6946726Y8223647D01*
X6949468Y8221277D01*
X6952152Y8218840D01*
X6954777Y8216340D01*
X6957340Y8213777D01*
X6959840Y8211152D01*
X6962277Y8208468D01*
X6964647Y8205726D01*
X6966951Y8202928D01*
X6969187Y8200074D01*
X6971353Y8197168D01*
X6973448Y8194210D01*
X6975471Y8191202D01*
X6977420Y8188146D01*
X6979295Y8185044D01*
X6981095Y8181898D01*
X6982818Y8178708D01*
X6984464Y8175479D01*
X6986031Y8172210D01*
X6987519Y8168905D01*
X6988926Y8165564D01*
X6990252Y8162191D01*
X6991497Y8158786D01*
X6992658Y8155353D01*
X6993737Y8151892D01*
X6994731Y8148406D01*
X6995641Y8144897D01*
X6996466Y8141368D01*
X6997206Y8137819D01*
X6997859Y8134254D01*
X6998426Y8130673D01*
X6998906Y8127081D01*
X6999300Y8123477D01*
X6999606Y8119865D01*
X6999825Y8116247D01*
X6999956Y8112625D01*
X7000000Y8109000D01*
X7000000Y359000D01*
X6999956Y355375D01*
X6999825Y351753D01*
X6999606Y348135D01*
X6999300Y344523D01*
X6998906Y340919D01*
X6998426Y337327D01*
X6997859Y333746D01*
X6997206Y330181D01*
X6996466Y326632D01*
X6995641Y323103D01*
X6994731Y319594D01*
X6993737Y316108D01*
X6992658Y312647D01*
X6991497Y309214D01*
X6990252Y305809D01*
X6988926Y302436D01*
X6987519Y299095D01*
X6986031Y295790D01*
X6984464Y292521D01*
X6982818Y289292D01*
X6981095Y286102D01*
X6979295Y282956D01*
X6977420Y279854D01*
X6975471Y276798D01*
X6973448Y273790D01*
X6971353Y270832D01*
X6969187Y267926D01*
X6966951Y265072D01*
X6964647Y262274D01*
X6962277Y259532D01*
X6959840Y256848D01*
X6957340Y254223D01*
X6954777Y251660D01*
X6952152Y249160D01*
X6949468Y246723D01*
X6946726Y244353D01*
X6943928Y242049D01*
X6941074Y239813D01*
X6938168Y237647D01*
X6935210Y235552D01*
X6932202Y233529D01*
X6929146Y231580D01*
X6926044Y229705D01*
X6922898Y227905D01*
X6919708Y226182D01*
X6916479Y224536D01*
X6913210Y222969D01*
X6909905Y221481D01*
X6906564Y220074D01*
X6903191Y218748D01*
X6899786Y217503D01*
X6896353Y216342D01*
X6892892Y215263D01*
X6889406Y214269D01*
X6885897Y213359D01*
X6882368Y212534D01*
X6878819Y211794D01*
X6875254Y211141D01*
X6871673Y210574D01*
X6868081Y210094D01*
X6864477Y209700D01*
X6860865Y209394D01*
X6857247Y209175D01*
X6853625Y209044D01*
X6850000Y209000D01*
X4800000Y209000D01*
X4600000Y9000D01*
X1300000Y9000D01*
X1100000Y209000D01*
X150000Y209000D01*
X146375Y209044D01*
X142753Y209175D01*
X139135Y209394D01*
X135523Y209700D01*
X131919Y210094D01*
X128327Y210574D01*
X124746Y211141D01*
X121181Y211794D01*
X117632Y212534D01*
X114103Y213359D01*
X110594Y214269D01*
X107108Y215263D01*
X103647Y216342D01*
X100214Y217503D01*
X96809Y218748D01*
X93436Y220074D01*
X90095Y221481D01*
X86790Y222969D01*
X83521Y224536D01*
X80292Y226182D01*
X77102Y227905D01*
X73956Y229705D01*
X70854Y231580D01*
X67798Y233529D01*
X64790Y235552D01*
X61832Y237647D01*
X58926Y239813D01*
X56072Y242049D01*
X53274Y244353D01*
X50532Y246723D01*
X47848Y249160D01*
X45223Y251660D01*
X42660Y254223D01*
X40160Y256848D01*
X37723Y259532D01*
X35353Y262274D01*
X33049Y265072D01*
X30813Y267926D01*
X28647Y270832D01*
X26552Y273790D01*
X24529Y276798D01*
X22580Y279854D01*
X20705Y282956D01*
X18905Y286102D01*
X17182Y289292D01*
X15536Y292521D01*
X13969Y295790D01*
X12481Y299095D01*
X11074Y302436D01*
X9748Y305809D01*
X8503Y309214D01*
X7342Y312647D01*
X6263Y316108D01*
X5269Y319594D01*
X4359Y323103D01*
X3534Y326632D01*
X2794Y330181D01*
X2141Y333746D01*
X1574Y337327D01*
X1094Y340919D01*
X700Y344523D01*
X394Y348135D01*
X175Y351753D01*
X44Y355375D01*
X0Y359000D01*
X6298000Y386000D02*
X6298000Y5212000D01*
X6298000Y386000D02*
X6798000Y386000D01*
X6798000Y5212000D01*
X6298000Y5212000D01*
X202000Y5212000D02*
X202000Y386000D01*
X702000Y386000D01*
X702000Y5212000D01*
X202000Y5212000D01*
D14*
X4239000Y259000D02*
X4239045Y262681D01*
X4239181Y266360D01*
X4239406Y270035D01*
X4239722Y273703D01*
X4240128Y277362D01*
X4240624Y281010D01*
X4241208Y284644D01*
X4241882Y288264D01*
X4242645Y291865D01*
X4243495Y295447D01*
X4244434Y299007D01*
X4245459Y302543D01*
X4246571Y306052D01*
X4247768Y309533D01*
X4249051Y312984D01*
X4250418Y316403D01*
X4251869Y319786D01*
X4253402Y323133D01*
X4255016Y326442D01*
X4256712Y329710D01*
X4258487Y332935D01*
X4260341Y336115D01*
X4262272Y339250D01*
X4264280Y342336D01*
X4266362Y345371D01*
X4268519Y348355D01*
X4270748Y351285D01*
X4273048Y354159D01*
X4275419Y356976D01*
X4277857Y359734D01*
X4280363Y362431D01*
X4282934Y365066D01*
X4285569Y367637D01*
X4288266Y370143D01*
X4291024Y372581D01*
X4293841Y374952D01*
X4296715Y377252D01*
X4299645Y379481D01*
X4302629Y381638D01*
X4305664Y383720D01*
X4308750Y385728D01*
X4311885Y387659D01*
X4315065Y389513D01*
X4318290Y391288D01*
X4321558Y392984D01*
X4324867Y394598D01*
X4328214Y396131D01*
X4331597Y397582D01*
X4335016Y398949D01*
X4338467Y400232D01*
X4341948Y401429D01*
X4345457Y402541D01*
X4348993Y403566D01*
X4352553Y404505D01*
X4356135Y405355D01*
X4359736Y406118D01*
X4363356Y406792D01*
X4366990Y407376D01*
X4370638Y407872D01*
X4374297Y408278D01*
X4377965Y408594D01*
X4381640Y408819D01*
X4385319Y408955D01*
X4389000Y409000D01*
X4392681Y408955D01*
X4396360Y408819D01*
X4400035Y408594D01*
X4403703Y408278D01*
X4407362Y407872D01*
X4411010Y407376D01*
X4414644Y406792D01*
X4418264Y406118D01*
X4421865Y405355D01*
X4425447Y404505D01*
X4429007Y403566D01*
X4432543Y402541D01*
X4436052Y401429D01*
X4439533Y400232D01*
X4442984Y398949D01*
X4446403Y397582D01*
X4449786Y396131D01*
X4453133Y394598D01*
X4456442Y392984D01*
X4459710Y391288D01*
X4462935Y389513D01*
X4466115Y387659D01*
X4469250Y385728D01*
X4472336Y383720D01*
X4475371Y381638D01*
X4478355Y379481D01*
X4481285Y377252D01*
X4484159Y374952D01*
X4486976Y372581D01*
X4489734Y370143D01*
X4492431Y367637D01*
X4495066Y365066D01*
X4497637Y362431D01*
X4500143Y359734D01*
X4502581Y356976D01*
X4504952Y354159D01*
X4507252Y351285D01*
X4509481Y348355D01*
X4511638Y345371D01*
X4513720Y342336D01*
X4515728Y339250D01*
X4517659Y336115D01*
X4519513Y332935D01*
X4521288Y329710D01*
X4522984Y326442D01*
X4524598Y323133D01*
X4526131Y319786D01*
X4527582Y316403D01*
X4528949Y312984D01*
X4530232Y309533D01*
X4531429Y306052D01*
X4532541Y302543D01*
X4533566Y299007D01*
X4534505Y295447D01*
X4535355Y291865D01*
X4536118Y288264D01*
X4536792Y284644D01*
X4537376Y281010D01*
X4537872Y277362D01*
X4538278Y273703D01*
X4538594Y270035D01*
X4538819Y266360D01*
X4538955Y262681D01*
X4539000Y259000D01*
X4538955Y255319D01*
X4538819Y251640D01*
X4538594Y247965D01*
X4538278Y244297D01*
X4537872Y240638D01*
X4537376Y236990D01*
X4536792Y233356D01*
X4536118Y229736D01*
X4535355Y226135D01*
X4534505Y222553D01*
X4533566Y218993D01*
X4532541Y215457D01*
X4531429Y211948D01*
X4530232Y208467D01*
X4528949Y205016D01*
X4527582Y201597D01*
X4526131Y198214D01*
X4524598Y194867D01*
X4522984Y191558D01*
X4521288Y188290D01*
X4519513Y185065D01*
X4517659Y181885D01*
X4515728Y178750D01*
X4513720Y175664D01*
X4511638Y172629D01*
X4509481Y169645D01*
X4507252Y166715D01*
X4504952Y163841D01*
X4502581Y161024D01*
X4500143Y158266D01*
X4497637Y155569D01*
X4495066Y152934D01*
X4492431Y150363D01*
X4489734Y147857D01*
X4486976Y145419D01*
X4484159Y143048D01*
X4481285Y140748D01*
X4478355Y138519D01*
X4475371Y136362D01*
X4472336Y134280D01*
X4469250Y132272D01*
X4466115Y130341D01*
X4462935Y128487D01*
X4459710Y126712D01*
X4456442Y125016D01*
X4453133Y123402D01*
X4449786Y121869D01*
X4446403Y120418D01*
X4442984Y119051D01*
X4439533Y117768D01*
X4436052Y116571D01*
X4432543Y115459D01*
X4429007Y114434D01*
X4425447Y113495D01*
X4421865Y112645D01*
X4418264Y111882D01*
X4414644Y111208D01*
X4411010Y110624D01*
X4407362Y110128D01*
X4403703Y109722D01*
X4400035Y109406D01*
X4396360Y109181D01*
X4392681Y109045D01*
X4389000Y109000D01*
X4385319Y109045D01*
X4381640Y109181D01*
X4377965Y109406D01*
X4374297Y109722D01*
X4370638Y110128D01*
X4366990Y110624D01*
X4363356Y111208D01*
X4359736Y111882D01*
X4356135Y112645D01*
X4352553Y113495D01*
X4348993Y114434D01*
X4345457Y115459D01*
X4341948Y116571D01*
X4338467Y117768D01*
X4335016Y119051D01*
X4331597Y120418D01*
X4328214Y121869D01*
X4324867Y123402D01*
X4321558Y125016D01*
X4318290Y126712D01*
X4315065Y128487D01*
X4311885Y130341D01*
X4308750Y132272D01*
X4305664Y134280D01*
X4302629Y136362D01*
X4299645Y138519D01*
X4296715Y140748D01*
X4293841Y143048D01*
X4291024Y145419D01*
X4288266Y147857D01*
X4285569Y150363D01*
X4282934Y152934D01*
X4280363Y155569D01*
X4277857Y158266D01*
X4275419Y161024D01*
X4273048Y163841D01*
X4270748Y166715D01*
X4268519Y169645D01*
X4266362Y172629D01*
X4264280Y175664D01*
X4262272Y178750D01*
X4260341Y181885D01*
X4258487Y185065D01*
X4256712Y188290D01*
X4255016Y191558D01*
X4253402Y194867D01*
X4251869Y198214D01*
X4250418Y201597D01*
X4249051Y205016D01*
X4247768Y208467D01*
X4246571Y211948D01*
X4245459Y215457D01*
X4244434Y218993D01*
X4243495Y222553D01*
X4242645Y226135D01*
X4241882Y229736D01*
X4241208Y233356D01*
X4240624Y236990D01*
X4240128Y240638D01*
X4239722Y244297D01*
X4239406Y247965D01*
X4239181Y251640D01*
X4239045Y255319D01*
X4239000Y259000D01*
X5763000Y5339000D02*
X5763045Y5342681D01*
X5763181Y5346360D01*
X5763406Y5350035D01*
X5763722Y5353703D01*
X5764128Y5357362D01*
X5764624Y5361010D01*
X5765208Y5364644D01*
X5765882Y5368264D01*
X5766645Y5371865D01*
X5767495Y5375447D01*
X5768434Y5379007D01*
X5769459Y5382543D01*
X5770571Y5386052D01*
X5771768Y5389533D01*
X5773051Y5392984D01*
X5774418Y5396403D01*
X5775869Y5399786D01*
X5777402Y5403133D01*
X5779016Y5406442D01*
X5780712Y5409710D01*
X5782487Y5412935D01*
X5784341Y5416115D01*
X5786272Y5419250D01*
X5788280Y5422336D01*
X5790362Y5425371D01*
X5792519Y5428355D01*
X5794748Y5431285D01*
X5797048Y5434159D01*
X5799419Y5436976D01*
X5801857Y5439734D01*
X5804363Y5442431D01*
X5806934Y5445066D01*
X5809569Y5447637D01*
X5812266Y5450143D01*
X5815024Y5452581D01*
X5817841Y5454952D01*
X5820715Y5457252D01*
X5823645Y5459481D01*
X5826629Y5461638D01*
X5829664Y5463720D01*
X5832750Y5465728D01*
X5835885Y5467659D01*
X5839065Y5469513D01*
X5842290Y5471288D01*
X5845558Y5472984D01*
X5848867Y5474598D01*
X5852214Y5476131D01*
X5855597Y5477582D01*
X5859016Y5478949D01*
X5862467Y5480232D01*
X5865948Y5481429D01*
X5869457Y5482541D01*
X5872993Y5483566D01*
X5876553Y5484505D01*
X5880135Y5485355D01*
X5883736Y5486118D01*
X5887356Y5486792D01*
X5890990Y5487376D01*
X5894638Y5487872D01*
X5898297Y5488278D01*
X5901965Y5488594D01*
X5905640Y5488819D01*
X5909319Y5488955D01*
X5913000Y5489000D01*
X5916681Y5488955D01*
X5920360Y5488819D01*
X5924035Y5488594D01*
X5927703Y5488278D01*
X5931362Y5487872D01*
X5935010Y5487376D01*
X5938644Y5486792D01*
X5942264Y5486118D01*
X5945865Y5485355D01*
X5949447Y5484505D01*
X5953007Y5483566D01*
X5956543Y5482541D01*
X5960052Y5481429D01*
X5963533Y5480232D01*
X5966984Y5478949D01*
X5970403Y5477582D01*
X5973786Y5476131D01*
X5977133Y5474598D01*
X5980442Y5472984D01*
X5983710Y5471288D01*
X5986935Y5469513D01*
X5990115Y5467659D01*
X5993250Y5465728D01*
X5996336Y5463720D01*
X5999371Y5461638D01*
X6002355Y5459481D01*
X6005285Y5457252D01*
X6008159Y5454952D01*
X6010976Y5452581D01*
X6013734Y5450143D01*
X6016431Y5447637D01*
X6019066Y5445066D01*
X6021637Y5442431D01*
X6024143Y5439734D01*
X6026581Y5436976D01*
X6028952Y5434159D01*
X6031252Y5431285D01*
X6033481Y5428355D01*
X6035638Y5425371D01*
X6037720Y5422336D01*
X6039728Y5419250D01*
X6041659Y5416115D01*
X6043513Y5412935D01*
X6045288Y5409710D01*
X6046984Y5406442D01*
X6048598Y5403133D01*
X6050131Y5399786D01*
X6051582Y5396403D01*
X6052949Y5392984D01*
X6054232Y5389533D01*
X6055429Y5386052D01*
X6056541Y5382543D01*
X6057566Y5379007D01*
X6058505Y5375447D01*
X6059355Y5371865D01*
X6060118Y5368264D01*
X6060792Y5364644D01*
X6061376Y5361010D01*
X6061872Y5357362D01*
X6062278Y5353703D01*
X6062594Y5350035D01*
X6062819Y5346360D01*
X6062955Y5342681D01*
X6063000Y5339000D01*
X6062955Y5335319D01*
X6062819Y5331640D01*
X6062594Y5327965D01*
X6062278Y5324297D01*
X6061872Y5320638D01*
X6061376Y5316990D01*
X6060792Y5313356D01*
X6060118Y5309736D01*
X6059355Y5306135D01*
X6058505Y5302553D01*
X6057566Y5298993D01*
X6056541Y5295457D01*
X6055429Y5291948D01*
X6054232Y5288467D01*
X6052949Y5285016D01*
X6051582Y5281597D01*
X6050131Y5278214D01*
X6048598Y5274867D01*
X6046984Y5271558D01*
X6045288Y5268290D01*
X6043513Y5265065D01*
X6041659Y5261885D01*
X6039728Y5258750D01*
X6037720Y5255664D01*
X6035638Y5252629D01*
X6033481Y5249645D01*
X6031252Y5246715D01*
X6028952Y5243841D01*
X6026581Y5241024D01*
X6024143Y5238266D01*
X6021637Y5235569D01*
X6019066Y5232934D01*
X6016431Y5230363D01*
X6013734Y5227857D01*
X6010976Y5225419D01*
X6008159Y5223048D01*
X6005285Y5220748D01*
X6002355Y5218519D01*
X5999371Y5216362D01*
X5996336Y5214280D01*
X5993250Y5212272D01*
X5990115Y5210341D01*
X5986935Y5208487D01*
X5983710Y5206712D01*
X5980442Y5205016D01*
X5977133Y5203402D01*
X5973786Y5201869D01*
X5970403Y5200418D01*
X5966984Y5199051D01*
X5963533Y5197768D01*
X5960052Y5196571D01*
X5956543Y5195459D01*
X5953007Y5194434D01*
X5949447Y5193495D01*
X5945865Y5192645D01*
X5942264Y5191882D01*
X5938644Y5191208D01*
X5935010Y5190624D01*
X5931362Y5190128D01*
X5927703Y5189722D01*
X5924035Y5189406D01*
X5920360Y5189181D01*
X5916681Y5189045D01*
X5913000Y5189000D01*
X5909319Y5189045D01*
X5905640Y5189181D01*
X5901965Y5189406D01*
X5898297Y5189722D01*
X5894638Y5190128D01*
X5890990Y5190624D01*
X5887356Y5191208D01*
X5883736Y5191882D01*
X5880135Y5192645D01*
X5876553Y5193495D01*
X5872993Y5194434D01*
X5869457Y5195459D01*
X5865948Y5196571D01*
X5862467Y5197768D01*
X5859016Y5199051D01*
X5855597Y5200418D01*
X5852214Y5201869D01*
X5848867Y5203402D01*
X5845558Y5205016D01*
X5842290Y5206712D01*
X5839065Y5208487D01*
X5835885Y5210341D01*
X5832750Y5212272D01*
X5829664Y5214280D01*
X5826629Y5216362D01*
X5823645Y5218519D01*
X5820715Y5220748D01*
X5817841Y5223048D01*
X5815024Y5225419D01*
X5812266Y5227857D01*
X5809569Y5230363D01*
X5806934Y5232934D01*
X5804363Y5235569D01*
X5801857Y5238266D01*
X5799419Y5241024D01*
X5797048Y5243841D01*
X5794748Y5246715D01*
X5792519Y5249645D01*
X5790362Y5252629D01*
X5788280Y5255664D01*
X5786272Y5258750D01*
X5784341Y5261885D01*
X5782487Y5265065D01*
X5780712Y5268290D01*
X5779016Y5271558D01*
X5777402Y5274867D01*
X5775869Y5278214D01*
X5774418Y5281597D01*
X5773051Y5285016D01*
X5771768Y5288467D01*
X5770571Y5291948D01*
X5769459Y5295457D01*
X5768434Y5298993D01*
X5767495Y5302553D01*
X5766645Y5306135D01*
X5765882Y5309736D01*
X5765208Y5313356D01*
X5764624Y5316990D01*
X5764128Y5320638D01*
X5763722Y5324297D01*
X5763406Y5327965D01*
X5763181Y5331640D01*
X5763045Y5335319D01*
X5763000Y5339000D01*
X937000Y5466000D02*
X937045Y5469681D01*
X937181Y5473360D01*
X937406Y5477035D01*
X937722Y5480703D01*
X938128Y5484362D01*
X938624Y5488010D01*
X939208Y5491644D01*
X939882Y5495264D01*
X940645Y5498865D01*
X941495Y5502447D01*
X942434Y5506007D01*
X943459Y5509543D01*
X944571Y5513052D01*
X945768Y5516533D01*
X947051Y5519984D01*
X948418Y5523403D01*
X949869Y5526786D01*
X951402Y5530133D01*
X953016Y5533442D01*
X954712Y5536710D01*
X956487Y5539935D01*
X958341Y5543115D01*
X960272Y5546250D01*
X962280Y5549336D01*
X964362Y5552371D01*
X966519Y5555355D01*
X968748Y5558285D01*
X971048Y5561159D01*
X973419Y5563976D01*
X975857Y5566734D01*
X978363Y5569431D01*
X980934Y5572066D01*
X983569Y5574637D01*
X986266Y5577143D01*
X989024Y5579581D01*
X991841Y5581952D01*
X994715Y5584252D01*
X997645Y5586481D01*
X1000629Y5588638D01*
X1003664Y5590720D01*
X1006750Y5592728D01*
X1009885Y5594659D01*
X1013065Y5596513D01*
X1016290Y5598288D01*
X1019558Y5599984D01*
X1022867Y5601598D01*
X1026214Y5603131D01*
X1029597Y5604582D01*
X1033016Y5605949D01*
X1036467Y5607232D01*
X1039948Y5608429D01*
X1043457Y5609541D01*
X1046993Y5610566D01*
X1050553Y5611505D01*
X1054135Y5612355D01*
X1057736Y5613118D01*
X1061356Y5613792D01*
X1064990Y5614376D01*
X1068638Y5614872D01*
X1072297Y5615278D01*
X1075965Y5615594D01*
X1079640Y5615819D01*
X1083319Y5615955D01*
X1087000Y5616000D01*
X1090681Y5615955D01*
X1094360Y5615819D01*
X1098035Y5615594D01*
X1101703Y5615278D01*
X1105362Y5614872D01*
X1109010Y5614376D01*
X1112644Y5613792D01*
X1116264Y5613118D01*
X1119865Y5612355D01*
X1123447Y5611505D01*
X1127007Y5610566D01*
X1130543Y5609541D01*
X1134052Y5608429D01*
X1137533Y5607232D01*
X1140984Y5605949D01*
X1144403Y5604582D01*
X1147786Y5603131D01*
X1151133Y5601598D01*
X1154442Y5599984D01*
X1157710Y5598288D01*
X1160935Y5596513D01*
X1164115Y5594659D01*
X1167250Y5592728D01*
X1170336Y5590720D01*
X1173371Y5588638D01*
X1176355Y5586481D01*
X1179285Y5584252D01*
X1182159Y5581952D01*
X1184976Y5579581D01*
X1187734Y5577143D01*
X1190431Y5574637D01*
X1193066Y5572066D01*
X1195637Y5569431D01*
X1198143Y5566734D01*
X1200581Y5563976D01*
X1202952Y5561159D01*
X1205252Y5558285D01*
X1207481Y5555355D01*
X1209638Y5552371D01*
X1211720Y5549336D01*
X1213728Y5546250D01*
X1215659Y5543115D01*
X1217513Y5539935D01*
X1219288Y5536710D01*
X1220984Y5533442D01*
X1222598Y5530133D01*
X1224131Y5526786D01*
X1225582Y5523403D01*
X1226949Y5519984D01*
X1228232Y5516533D01*
X1229429Y5513052D01*
X1230541Y5509543D01*
X1231566Y5506007D01*
X1232505Y5502447D01*
X1233355Y5498865D01*
X1234118Y5495264D01*
X1234792Y5491644D01*
X1235376Y5488010D01*
X1235872Y5484362D01*
X1236278Y5480703D01*
X1236594Y5477035D01*
X1236819Y5473360D01*
X1236955Y5469681D01*
X1237000Y5466000D01*
X1236955Y5462319D01*
X1236819Y5458640D01*
X1236594Y5454965D01*
X1236278Y5451297D01*
X1235872Y5447638D01*
X1235376Y5443990D01*
X1234792Y5440356D01*
X1234118Y5436736D01*
X1233355Y5433135D01*
X1232505Y5429553D01*
X1231566Y5425993D01*
X1230541Y5422457D01*
X1229429Y5418948D01*
X1228232Y5415467D01*
X1226949Y5412016D01*
X1225582Y5408597D01*
X1224131Y5405214D01*
X1222598Y5401867D01*
X1220984Y5398558D01*
X1219288Y5395290D01*
X1217513Y5392065D01*
X1215659Y5388885D01*
X1213728Y5385750D01*
X1211720Y5382664D01*
X1209638Y5379629D01*
X1207481Y5376645D01*
X1205252Y5373715D01*
X1202952Y5370841D01*
X1200581Y5368024D01*
X1198143Y5365266D01*
X1195637Y5362569D01*
X1193066Y5359934D01*
X1190431Y5357363D01*
X1187734Y5354857D01*
X1184976Y5352419D01*
X1182159Y5350048D01*
X1179285Y5347748D01*
X1176355Y5345519D01*
X1173371Y5343362D01*
X1170336Y5341280D01*
X1167250Y5339272D01*
X1164115Y5337341D01*
X1160935Y5335487D01*
X1157710Y5333712D01*
X1154442Y5332016D01*
X1151133Y5330402D01*
X1147786Y5328869D01*
X1144403Y5327418D01*
X1140984Y5326051D01*
X1137533Y5324768D01*
X1134052Y5323571D01*
X1130543Y5322459D01*
X1127007Y5321434D01*
X1123447Y5320495D01*
X1119865Y5319645D01*
X1116264Y5318882D01*
X1112644Y5318208D01*
X1109010Y5317624D01*
X1105362Y5317128D01*
X1101703Y5316722D01*
X1098035Y5316406D01*
X1094360Y5316181D01*
X1090681Y5316045D01*
X1087000Y5316000D01*
X1083319Y5316045D01*
X1079640Y5316181D01*
X1075965Y5316406D01*
X1072297Y5316722D01*
X1068638Y5317128D01*
X1064990Y5317624D01*
X1061356Y5318208D01*
X1057736Y5318882D01*
X1054135Y5319645D01*
X1050553Y5320495D01*
X1046993Y5321434D01*
X1043457Y5322459D01*
X1039948Y5323571D01*
X1036467Y5324768D01*
X1033016Y5326051D01*
X1029597Y5327418D01*
X1026214Y5328869D01*
X1022867Y5330402D01*
X1019558Y5332016D01*
X1016290Y5333712D01*
X1013065Y5335487D01*
X1009885Y5337341D01*
X1006750Y5339272D01*
X1003664Y5341280D01*
X1000629Y5343362D01*
X997645Y5345519D01*
X994715Y5347748D01*
X991841Y5350048D01*
X989024Y5352419D01*
X986266Y5354857D01*
X983569Y5357363D01*
X980934Y5359934D01*
X978363Y5362569D01*
X975857Y5365266D01*
X973419Y5368024D01*
X971048Y5370841D01*
X968748Y5373715D01*
X966519Y5376645D01*
X964362Y5379629D01*
X962280Y5382664D01*
X960272Y5385750D01*
X958341Y5388885D01*
X956487Y5392065D01*
X954712Y5395290D01*
X953016Y5398558D01*
X951402Y5401867D01*
X949869Y5405214D01*
X948418Y5408597D01*
X947051Y5412016D01*
X945768Y5415467D01*
X944571Y5418948D01*
X943459Y5422457D01*
X942434Y5425993D01*
X941495Y5429553D01*
X940645Y5433135D01*
X939882Y5436736D01*
X939208Y5440356D01*
X938624Y5443990D01*
X938128Y5447638D01*
X937722Y5451297D01*
X937406Y5454965D01*
X937181Y5458640D01*
X937045Y5462319D01*
X937000Y5466000D01*
D10*
X1959141Y116269D02*
X1959141Y23810D01*
X2020780Y23810D02*
X1959141Y116269D01*
X2020780Y116269D02*
X2020780Y23810D01*
X2051220Y39220D02*
X2051220Y116269D01*
X2051220Y39220D02*
X2066629Y23810D01*
X2097449Y23810D01*
X2112859Y39220D01*
X2112859Y116269D01*
X2189528Y116269D02*
X2204937Y100859D01*
X2189528Y116269D02*
X2158708Y116269D01*
X2143298Y100859D01*
X2143298Y39220D01*
X2158708Y23810D01*
X2189528Y23810D01*
X2204937Y39220D01*
X2235377Y23810D02*
X2235377Y116269D01*
X2235377Y23810D02*
X2297016Y23810D01*
X2327455Y116269D02*
X2389094Y116269D01*
X2327455Y116269D02*
X2327455Y23810D01*
X2389094Y23810D01*
X2358274Y70039D02*
X2327455Y70039D01*
X2434943Y116269D02*
X2465763Y116269D01*
X2434943Y116269D02*
X2419533Y100859D01*
X2419533Y39220D01*
X2434943Y23810D01*
X2465763Y23810D01*
X2481173Y39220D01*
X2481173Y100859D01*
X2465763Y116269D01*
X2511612Y70039D02*
X2573251Y70039D01*
X2603690Y23810D02*
X2603690Y116269D01*
X2603690Y70039D02*
X2665329Y70039D01*
X2665329Y23810D02*
X2665329Y116269D01*
X2695769Y116269D02*
X2757408Y116269D01*
X2695769Y116269D02*
X2695769Y70039D01*
X2726588Y85449D01*
X2741998Y85449D01*
X2757408Y70039D01*
X2757408Y39220D01*
X2741998Y23810D01*
X2711178Y23810D01*
X2695769Y39220D01*
X2787847Y39220D02*
X2787847Y100859D01*
X2803257Y116269D01*
X2834077Y116269D01*
X2849486Y100859D01*
X2849486Y39220D01*
X2834077Y23810D01*
X2803257Y23810D01*
X2787847Y39220D01*
X2849486Y100859D01*
X2879926Y100859D02*
X2895335Y116269D01*
X2926155Y116269D01*
X2941565Y100859D01*
X2941565Y85449D01*
X2926155Y70039D01*
X2910745Y70039D01*
X2926155Y70039D02*
X2941565Y54629D01*
X2941565Y39220D01*
X2926155Y23810D01*
X2895335Y23810D01*
X2879926Y39220D01*
X2972004Y23810D02*
X2972004Y116269D01*
X3018233Y116269D01*
X3033643Y100859D01*
X3033643Y70039D01*
X3018233Y54629D01*
X2972004Y54629D01*
X3002823Y54629D02*
X3033643Y23810D01*
X3064083Y23810D02*
X3064083Y116269D01*
X3110312Y116269D01*
X3125722Y100859D01*
X3125722Y85449D01*
X3110312Y70039D01*
X3125722Y54629D01*
X3125722Y39220D01*
X3110312Y23810D01*
X3064083Y23810D01*
X3064083Y70039D02*
X3110312Y70039D01*
X3156161Y70039D02*
X3217800Y70039D01*
X3248239Y23810D02*
X3248239Y116269D01*
X3294469Y116269D01*
X3309878Y100859D01*
X3309878Y85449D01*
X3294469Y70039D01*
X3309878Y54629D01*
X3309878Y39220D01*
X3294469Y23810D01*
X3248239Y23810D01*
X3248239Y70039D02*
X3294469Y70039D01*
X3340318Y39220D02*
X3340318Y100859D01*
X3355728Y116269D01*
X3386547Y116269D01*
X3401957Y100859D01*
X3401957Y39220D01*
X3386547Y23810D01*
X3355728Y23810D01*
X3340318Y39220D01*
X3401957Y100859D01*
X3432396Y23810D02*
X3494035Y23810D01*
X3432396Y23810D02*
X3494035Y85449D01*
X3494035Y100859D01*
X3478626Y116269D01*
X3447806Y116269D01*
X3432396Y100859D01*
D15*
X359630Y5379530D02*
X340140Y5399020D01*
X301160Y5399020D01*
X281670Y5379530D01*
X281670Y5301570D01*
X301160Y5282080D01*
X340140Y5282080D01*
X359630Y5301570D01*
X398610Y5282080D02*
X398610Y5399020D01*
X476570Y5282080D01*
X476570Y5399020D01*
X515550Y5399020D02*
X593509Y5399020D01*
X593509Y5379530D01*
X515550Y5301570D01*
X515550Y5282080D01*
X6377670Y5399020D02*
X6397160Y5379530D01*
X6377670Y5399020D02*
X6338690Y5399020D01*
X6319200Y5379530D01*
X6319200Y5301570D01*
X6338690Y5282080D01*
X6377670Y5282080D01*
X6397160Y5301570D01*
X6436140Y5282080D02*
X6436140Y5399020D01*
X6514100Y5282080D01*
X6514100Y5399020D01*
X6553080Y5360040D02*
X6592059Y5399020D01*
X6592059Y5282080D01*
X6553080Y5282080D02*
X6631039Y5282080D01*
X6670019Y5301570D02*
X6670019Y5379530D01*
X6689509Y5399020D01*
X6728489Y5399020D01*
X6747979Y5379530D01*
X6747979Y5301570D01*
X6728489Y5282080D01*
X6689509Y5282080D01*
X6670019Y5301570D01*
X6747979Y5379530D01*
D16*
X759340Y5150000D02*
X759343Y5150249D01*
X759352Y5150499D01*
X759368Y5150747D01*
X759389Y5150996D01*
X759416Y5151244D01*
X759450Y5151491D01*
X759490Y5151737D01*
X759535Y5151982D01*
X759587Y5152226D01*
X759644Y5152469D01*
X759708Y5152710D01*
X759777Y5152949D01*
X759853Y5153187D01*
X759934Y5153423D01*
X760021Y5153657D01*
X760113Y5153888D01*
X760212Y5154117D01*
X760315Y5154344D01*
X760425Y5154568D01*
X760540Y5154789D01*
X760660Y5155008D01*
X760785Y5155223D01*
X760916Y5155436D01*
X761052Y5155645D01*
X761193Y5155850D01*
X761339Y5156052D01*
X761490Y5156251D01*
X761646Y5156445D01*
X761807Y5156636D01*
X761972Y5156823D01*
X762142Y5157006D01*
X762316Y5157184D01*
X762494Y5157358D01*
X762677Y5157528D01*
X762864Y5157693D01*
X763055Y5157854D01*
X763249Y5158010D01*
X763448Y5158161D01*
X763650Y5158307D01*
X763855Y5158448D01*
X764064Y5158584D01*
X764277Y5158715D01*
X764492Y5158840D01*
X764711Y5158960D01*
X764932Y5159075D01*
X765156Y5159185D01*
X765383Y5159288D01*
X765612Y5159387D01*
X765843Y5159479D01*
X766077Y5159566D01*
X766313Y5159647D01*
X766551Y5159723D01*
X766790Y5159792D01*
X767031Y5159856D01*
X767274Y5159913D01*
X767518Y5159965D01*
X767763Y5160010D01*
X768009Y5160050D01*
X768256Y5160084D01*
X768504Y5160111D01*
X768753Y5160132D01*
X769001Y5160148D01*
X769251Y5160157D01*
X769500Y5160160D01*
X769749Y5160157D01*
X769999Y5160148D01*
X770247Y5160132D01*
X770496Y5160111D01*
X770744Y5160084D01*
X770991Y5160050D01*
X771237Y5160010D01*
X771482Y5159965D01*
X771726Y5159913D01*
X771969Y5159856D01*
X772210Y5159792D01*
X772449Y5159723D01*
X772687Y5159647D01*
X772923Y5159566D01*
X773157Y5159479D01*
X773388Y5159387D01*
X773617Y5159288D01*
X773844Y5159185D01*
X774068Y5159075D01*
X774289Y5158960D01*
X774508Y5158840D01*
X774723Y5158715D01*
X774936Y5158584D01*
X775145Y5158448D01*
X775350Y5158307D01*
X775552Y5158161D01*
X775751Y5158010D01*
X775945Y5157854D01*
X776136Y5157693D01*
X776323Y5157528D01*
X776506Y5157358D01*
X776684Y5157184D01*
X776858Y5157006D01*
X777028Y5156823D01*
X777193Y5156636D01*
X777354Y5156445D01*
X777510Y5156251D01*
X777661Y5156052D01*
X777807Y5155850D01*
X777948Y5155645D01*
X778084Y5155436D01*
X778215Y5155223D01*
X778340Y5155008D01*
X778460Y5154789D01*
X778575Y5154568D01*
X778685Y5154344D01*
X778788Y5154117D01*
X778887Y5153888D01*
X778979Y5153657D01*
X779066Y5153423D01*
X779147Y5153187D01*
X779223Y5152949D01*
X779292Y5152710D01*
X779356Y5152469D01*
X779413Y5152226D01*
X779465Y5151982D01*
X779510Y5151737D01*
X779550Y5151491D01*
X779584Y5151244D01*
X779611Y5150996D01*
X779632Y5150747D01*
X779648Y5150499D01*
X779657Y5150249D01*
X779660Y5150000D01*
X779657Y5149751D01*
X779648Y5149501D01*
X779632Y5149253D01*
X779611Y5149004D01*
X779584Y5148756D01*
X779550Y5148509D01*
X779510Y5148263D01*
X779465Y5148018D01*
X779413Y5147774D01*
X779356Y5147531D01*
X779292Y5147290D01*
X779223Y5147051D01*
X779147Y5146813D01*
X779066Y5146577D01*
X778979Y5146343D01*
X778887Y5146112D01*
X778788Y5145883D01*
X778685Y5145656D01*
X778575Y5145432D01*
X778460Y5145211D01*
X778340Y5144992D01*
X778215Y5144777D01*
X778084Y5144564D01*
X777948Y5144355D01*
X777807Y5144150D01*
X777661Y5143948D01*
X777510Y5143749D01*
X777354Y5143555D01*
X777193Y5143364D01*
X777028Y5143177D01*
X776858Y5142994D01*
X776684Y5142816D01*
X776506Y5142642D01*
X776323Y5142472D01*
X776136Y5142307D01*
X775945Y5142146D01*
X775751Y5141990D01*
X775552Y5141839D01*
X775350Y5141693D01*
X775145Y5141552D01*
X774936Y5141416D01*
X774723Y5141285D01*
X774508Y5141160D01*
X774289Y5141040D01*
X774068Y5140925D01*
X773844Y5140815D01*
X773617Y5140712D01*
X773388Y5140613D01*
X773157Y5140521D01*
X772923Y5140434D01*
X772687Y5140353D01*
X772449Y5140277D01*
X772210Y5140208D01*
X771969Y5140144D01*
X771726Y5140087D01*
X771482Y5140035D01*
X771237Y5139990D01*
X770991Y5139950D01*
X770744Y5139916D01*
X770496Y5139889D01*
X770247Y5139868D01*
X769999Y5139852D01*
X769749Y5139843D01*
X769500Y5139840D01*
X769251Y5139843D01*
X769001Y5139852D01*
X768753Y5139868D01*
X768504Y5139889D01*
X768256Y5139916D01*
X768009Y5139950D01*
X767763Y5139990D01*
X767518Y5140035D01*
X767274Y5140087D01*
X767031Y5140144D01*
X766790Y5140208D01*
X766551Y5140277D01*
X766313Y5140353D01*
X766077Y5140434D01*
X765843Y5140521D01*
X765612Y5140613D01*
X765383Y5140712D01*
X765156Y5140815D01*
X764932Y5140925D01*
X764711Y5141040D01*
X764492Y5141160D01*
X764277Y5141285D01*
X764064Y5141416D01*
X763855Y5141552D01*
X763650Y5141693D01*
X763448Y5141839D01*
X763249Y5141990D01*
X763055Y5142146D01*
X762864Y5142307D01*
X762677Y5142472D01*
X762494Y5142642D01*
X762316Y5142816D01*
X762142Y5142994D01*
X761972Y5143177D01*
X761807Y5143364D01*
X761646Y5143555D01*
X761490Y5143749D01*
X761339Y5143948D01*
X761193Y5144150D01*
X761052Y5144355D01*
X760916Y5144564D01*
X760785Y5144777D01*
X760660Y5144992D01*
X760540Y5145211D01*
X760425Y5145432D01*
X760315Y5145656D01*
X760212Y5145883D01*
X760113Y5146112D01*
X760021Y5146343D01*
X759934Y5146577D01*
X759853Y5146813D01*
X759777Y5147051D01*
X759708Y5147290D01*
X759644Y5147531D01*
X759587Y5147774D01*
X759535Y5148018D01*
X759490Y5148263D01*
X759450Y5148509D01*
X759416Y5148756D01*
X759389Y5149004D01*
X759368Y5149253D01*
X759352Y5149501D01*
X759343Y5149751D01*
X759340Y5150000D01*
X6220340Y5086500D02*
X6220343Y5086749D01*
X6220352Y5086999D01*
X6220368Y5087247D01*
X6220389Y5087496D01*
X6220416Y5087744D01*
X6220450Y5087991D01*
X6220490Y5088237D01*
X6220535Y5088482D01*
X6220587Y5088726D01*
X6220644Y5088969D01*
X6220708Y5089210D01*
X6220777Y5089449D01*
X6220853Y5089687D01*
X6220934Y5089923D01*
X6221021Y5090157D01*
X6221113Y5090388D01*
X6221212Y5090617D01*
X6221315Y5090844D01*
X6221425Y5091068D01*
X6221540Y5091289D01*
X6221660Y5091508D01*
X6221785Y5091723D01*
X6221916Y5091936D01*
X6222052Y5092145D01*
X6222193Y5092350D01*
X6222339Y5092552D01*
X6222490Y5092751D01*
X6222646Y5092945D01*
X6222807Y5093136D01*
X6222972Y5093323D01*
X6223142Y5093506D01*
X6223316Y5093684D01*
X6223494Y5093858D01*
X6223677Y5094028D01*
X6223864Y5094193D01*
X6224055Y5094354D01*
X6224249Y5094510D01*
X6224448Y5094661D01*
X6224650Y5094807D01*
X6224855Y5094948D01*
X6225064Y5095084D01*
X6225277Y5095215D01*
X6225492Y5095340D01*
X6225711Y5095460D01*
X6225932Y5095575D01*
X6226156Y5095685D01*
X6226383Y5095788D01*
X6226612Y5095887D01*
X6226843Y5095979D01*
X6227077Y5096066D01*
X6227313Y5096147D01*
X6227551Y5096223D01*
X6227790Y5096292D01*
X6228031Y5096356D01*
X6228274Y5096413D01*
X6228518Y5096465D01*
X6228763Y5096510D01*
X6229009Y5096550D01*
X6229256Y5096584D01*
X6229504Y5096611D01*
X6229753Y5096632D01*
X6230001Y5096648D01*
X6230251Y5096657D01*
X6230500Y5096660D01*
X6230749Y5096657D01*
X6230999Y5096648D01*
X6231247Y5096632D01*
X6231496Y5096611D01*
X6231744Y5096584D01*
X6231991Y5096550D01*
X6232237Y5096510D01*
X6232482Y5096465D01*
X6232726Y5096413D01*
X6232969Y5096356D01*
X6233210Y5096292D01*
X6233449Y5096223D01*
X6233687Y5096147D01*
X6233923Y5096066D01*
X6234157Y5095979D01*
X6234388Y5095887D01*
X6234617Y5095788D01*
X6234844Y5095685D01*
X6235068Y5095575D01*
X6235289Y5095460D01*
X6235508Y5095340D01*
X6235723Y5095215D01*
X6235936Y5095084D01*
X6236145Y5094948D01*
X6236350Y5094807D01*
X6236552Y5094661D01*
X6236751Y5094510D01*
X6236945Y5094354D01*
X6237136Y5094193D01*
X6237323Y5094028D01*
X6237506Y5093858D01*
X6237684Y5093684D01*
X6237858Y5093506D01*
X6238028Y5093323D01*
X6238193Y5093136D01*
X6238354Y5092945D01*
X6238510Y5092751D01*
X6238661Y5092552D01*
X6238807Y5092350D01*
X6238948Y5092145D01*
X6239084Y5091936D01*
X6239215Y5091723D01*
X6239340Y5091508D01*
X6239460Y5091289D01*
X6239575Y5091068D01*
X6239685Y5090844D01*
X6239788Y5090617D01*
X6239887Y5090388D01*
X6239979Y5090157D01*
X6240066Y5089923D01*
X6240147Y5089687D01*
X6240223Y5089449D01*
X6240292Y5089210D01*
X6240356Y5088969D01*
X6240413Y5088726D01*
X6240465Y5088482D01*
X6240510Y5088237D01*
X6240550Y5087991D01*
X6240584Y5087744D01*
X6240611Y5087496D01*
X6240632Y5087247D01*
X6240648Y5086999D01*
X6240657Y5086749D01*
X6240660Y5086500D01*
X6240657Y5086251D01*
X6240648Y5086001D01*
X6240632Y5085753D01*
X6240611Y5085504D01*
X6240584Y5085256D01*
X6240550Y5085009D01*
X6240510Y5084763D01*
X6240465Y5084518D01*
X6240413Y5084274D01*
X6240356Y5084031D01*
X6240292Y5083790D01*
X6240223Y5083551D01*
X6240147Y5083313D01*
X6240066Y5083077D01*
X6239979Y5082843D01*
X6239887Y5082612D01*
X6239788Y5082383D01*
X6239685Y5082156D01*
X6239575Y5081932D01*
X6239460Y5081711D01*
X6239340Y5081492D01*
X6239215Y5081277D01*
X6239084Y5081064D01*
X6238948Y5080855D01*
X6238807Y5080650D01*
X6238661Y5080448D01*
X6238510Y5080249D01*
X6238354Y5080055D01*
X6238193Y5079864D01*
X6238028Y5079677D01*
X6237858Y5079494D01*
X6237684Y5079316D01*
X6237506Y5079142D01*
X6237323Y5078972D01*
X6237136Y5078807D01*
X6236945Y5078646D01*
X6236751Y5078490D01*
X6236552Y5078339D01*
X6236350Y5078193D01*
X6236145Y5078052D01*
X6235936Y5077916D01*
X6235723Y5077785D01*
X6235508Y5077660D01*
X6235289Y5077540D01*
X6235068Y5077425D01*
X6234844Y5077315D01*
X6234617Y5077212D01*
X6234388Y5077113D01*
X6234157Y5077021D01*
X6233923Y5076934D01*
X6233687Y5076853D01*
X6233449Y5076777D01*
X6233210Y5076708D01*
X6232969Y5076644D01*
X6232726Y5076587D01*
X6232482Y5076535D01*
X6232237Y5076490D01*
X6231991Y5076450D01*
X6231744Y5076416D01*
X6231496Y5076389D01*
X6231247Y5076368D01*
X6230999Y5076352D01*
X6230749Y5076343D01*
X6230500Y5076340D01*
X6230251Y5076343D01*
X6230001Y5076352D01*
X6229753Y5076368D01*
X6229504Y5076389D01*
X6229256Y5076416D01*
X6229009Y5076450D01*
X6228763Y5076490D01*
X6228518Y5076535D01*
X6228274Y5076587D01*
X6228031Y5076644D01*
X6227790Y5076708D01*
X6227551Y5076777D01*
X6227313Y5076853D01*
X6227077Y5076934D01*
X6226843Y5077021D01*
X6226612Y5077113D01*
X6226383Y5077212D01*
X6226156Y5077315D01*
X6225932Y5077425D01*
X6225711Y5077540D01*
X6225492Y5077660D01*
X6225277Y5077785D01*
X6225064Y5077916D01*
X6224855Y5078052D01*
X6224650Y5078193D01*
X6224448Y5078339D01*
X6224249Y5078490D01*
X6224055Y5078646D01*
X6223864Y5078807D01*
X6223677Y5078972D01*
X6223494Y5079142D01*
X6223316Y5079316D01*
X6223142Y5079494D01*
X6222972Y5079677D01*
X6222807Y5079864D01*
X6222646Y5080055D01*
X6222490Y5080249D01*
X6222339Y5080448D01*
X6222193Y5080650D01*
X6222052Y5080855D01*
X6221916Y5081064D01*
X6221785Y5081277D01*
X6221660Y5081492D01*
X6221540Y5081711D01*
X6221425Y5081932D01*
X6221315Y5082156D01*
X6221212Y5082383D01*
X6221113Y5082612D01*
X6221021Y5082843D01*
X6220934Y5083077D01*
X6220853Y5083313D01*
X6220777Y5083551D01*
X6220708Y5083790D01*
X6220644Y5084031D01*
X6220587Y5084274D01*
X6220535Y5084518D01*
X6220490Y5084763D01*
X6220450Y5085009D01*
X6220416Y5085256D01*
X6220389Y5085504D01*
X6220368Y5085753D01*
X6220352Y5086001D01*
X6220343Y5086251D01*
X6220340Y5086500D01*
D17*
X1166600Y6797200D02*
X1166603Y6797445D01*
X1166612Y6797691D01*
X1166627Y6797936D01*
X1166648Y6798180D01*
X1166675Y6798424D01*
X1166708Y6798667D01*
X1166747Y6798910D01*
X1166792Y6799151D01*
X1166843Y6799391D01*
X1166900Y6799630D01*
X1166962Y6799867D01*
X1167031Y6800103D01*
X1167105Y6800337D01*
X1167185Y6800569D01*
X1167270Y6800799D01*
X1167361Y6801027D01*
X1167458Y6801252D01*
X1167560Y6801476D01*
X1167668Y6801696D01*
X1167781Y6801914D01*
X1167899Y6802129D01*
X1168023Y6802341D01*
X1168151Y6802550D01*
X1168285Y6802756D01*
X1168424Y6802958D01*
X1168568Y6803157D01*
X1168717Y6803352D01*
X1168870Y6803544D01*
X1169028Y6803732D01*
X1169190Y6803916D01*
X1169358Y6804095D01*
X1169529Y6804271D01*
X1169705Y6804442D01*
X1169884Y6804610D01*
X1170068Y6804772D01*
X1170256Y6804930D01*
X1170448Y6805083D01*
X1170643Y6805232D01*
X1170842Y6805376D01*
X1171044Y6805515D01*
X1171250Y6805649D01*
X1171459Y6805777D01*
X1171671Y6805901D01*
X1171886Y6806019D01*
X1172104Y6806132D01*
X1172324Y6806240D01*
X1172548Y6806342D01*
X1172773Y6806439D01*
X1173001Y6806530D01*
X1173231Y6806615D01*
X1173463Y6806695D01*
X1173697Y6806769D01*
X1173933Y6806838D01*
X1174170Y6806900D01*
X1174409Y6806957D01*
X1174649Y6807008D01*
X1174890Y6807053D01*
X1175133Y6807092D01*
X1175376Y6807125D01*
X1175620Y6807152D01*
X1175864Y6807173D01*
X1176109Y6807188D01*
X1176355Y6807197D01*
X1176600Y6807200D01*
X1176845Y6807197D01*
X1177091Y6807188D01*
X1177336Y6807173D01*
X1177580Y6807152D01*
X1177824Y6807125D01*
X1178067Y6807092D01*
X1178310Y6807053D01*
X1178551Y6807008D01*
X1178791Y6806957D01*
X1179030Y6806900D01*
X1179267Y6806838D01*
X1179503Y6806769D01*
X1179737Y6806695D01*
X1179969Y6806615D01*
X1180199Y6806530D01*
X1180427Y6806439D01*
X1180652Y6806342D01*
X1180876Y6806240D01*
X1181096Y6806132D01*
X1181314Y6806019D01*
X1181529Y6805901D01*
X1181741Y6805777D01*
X1181950Y6805649D01*
X1182156Y6805515D01*
X1182358Y6805376D01*
X1182557Y6805232D01*
X1182752Y6805083D01*
X1182944Y6804930D01*
X1183132Y6804772D01*
X1183316Y6804610D01*
X1183495Y6804442D01*
X1183671Y6804271D01*
X1183842Y6804095D01*
X1184010Y6803916D01*
X1184172Y6803732D01*
X1184330Y6803544D01*
X1184483Y6803352D01*
X1184632Y6803157D01*
X1184776Y6802958D01*
X1184915Y6802756D01*
X1185049Y6802550D01*
X1185177Y6802341D01*
X1185301Y6802129D01*
X1185419Y6801914D01*
X1185532Y6801696D01*
X1185640Y6801476D01*
X1185742Y6801252D01*
X1185839Y6801027D01*
X1185930Y6800799D01*
X1186015Y6800569D01*
X1186095Y6800337D01*
X1186169Y6800103D01*
X1186238Y6799867D01*
X1186300Y6799630D01*
X1186357Y6799391D01*
X1186408Y6799151D01*
X1186453Y6798910D01*
X1186492Y6798667D01*
X1186525Y6798424D01*
X1186552Y6798180D01*
X1186573Y6797936D01*
X1186588Y6797691D01*
X1186597Y6797445D01*
X1186600Y6797200D01*
X1186597Y6796955D01*
X1186588Y6796709D01*
X1186573Y6796464D01*
X1186552Y6796220D01*
X1186525Y6795976D01*
X1186492Y6795733D01*
X1186453Y6795490D01*
X1186408Y6795249D01*
X1186357Y6795009D01*
X1186300Y6794770D01*
X1186238Y6794533D01*
X1186169Y6794297D01*
X1186095Y6794063D01*
X1186015Y6793831D01*
X1185930Y6793601D01*
X1185839Y6793373D01*
X1185742Y6793148D01*
X1185640Y6792924D01*
X1185532Y6792704D01*
X1185419Y6792486D01*
X1185301Y6792271D01*
X1185177Y6792059D01*
X1185049Y6791850D01*
X1184915Y6791644D01*
X1184776Y6791442D01*
X1184632Y6791243D01*
X1184483Y6791048D01*
X1184330Y6790856D01*
X1184172Y6790668D01*
X1184010Y6790484D01*
X1183842Y6790305D01*
X1183671Y6790129D01*
X1183495Y6789958D01*
X1183316Y6789790D01*
X1183132Y6789628D01*
X1182944Y6789470D01*
X1182752Y6789317D01*
X1182557Y6789168D01*
X1182358Y6789024D01*
X1182156Y6788885D01*
X1181950Y6788751D01*
X1181741Y6788623D01*
X1181529Y6788499D01*
X1181314Y6788381D01*
X1181096Y6788268D01*
X1180876Y6788160D01*
X1180652Y6788058D01*
X1180427Y6787961D01*
X1180199Y6787870D01*
X1179969Y6787785D01*
X1179737Y6787705D01*
X1179503Y6787631D01*
X1179267Y6787562D01*
X1179030Y6787500D01*
X1178791Y6787443D01*
X1178551Y6787392D01*
X1178310Y6787347D01*
X1178067Y6787308D01*
X1177824Y6787275D01*
X1177580Y6787248D01*
X1177336Y6787227D01*
X1177091Y6787212D01*
X1176845Y6787203D01*
X1176600Y6787200D01*
X1176355Y6787203D01*
X1176109Y6787212D01*
X1175864Y6787227D01*
X1175620Y6787248D01*
X1175376Y6787275D01*
X1175133Y6787308D01*
X1174890Y6787347D01*
X1174649Y6787392D01*
X1174409Y6787443D01*
X1174170Y6787500D01*
X1173933Y6787562D01*
X1173697Y6787631D01*
X1173463Y6787705D01*
X1173231Y6787785D01*
X1173001Y6787870D01*
X1172773Y6787961D01*
X1172548Y6788058D01*
X1172324Y6788160D01*
X1172104Y6788268D01*
X1171886Y6788381D01*
X1171671Y6788499D01*
X1171459Y6788623D01*
X1171250Y6788751D01*
X1171044Y6788885D01*
X1170842Y6789024D01*
X1170643Y6789168D01*
X1170448Y6789317D01*
X1170256Y6789470D01*
X1170068Y6789628D01*
X1169884Y6789790D01*
X1169705Y6789958D01*
X1169529Y6790129D01*
X1169358Y6790305D01*
X1169190Y6790484D01*
X1169028Y6790668D01*
X1168870Y6790856D01*
X1168717Y6791048D01*
X1168568Y6791243D01*
X1168424Y6791442D01*
X1168285Y6791644D01*
X1168151Y6791850D01*
X1168023Y6792059D01*
X1167899Y6792271D01*
X1167781Y6792486D01*
X1167668Y6792704D01*
X1167560Y6792924D01*
X1167458Y6793148D01*
X1167361Y6793373D01*
X1167270Y6793601D01*
X1167185Y6793831D01*
X1167105Y6794063D01*
X1167031Y6794297D01*
X1166962Y6794533D01*
X1166900Y6794770D01*
X1166843Y6795009D01*
X1166792Y6795249D01*
X1166747Y6795490D01*
X1166708Y6795733D01*
X1166675Y6795976D01*
X1166648Y6796220D01*
X1166627Y6796464D01*
X1166612Y6796709D01*
X1166603Y6796955D01*
X1166600Y6797200D01*
D13*
X1125000Y6825000D02*
X725000Y6825000D01*
X725000Y7325000D02*
X1125000Y7325000D01*
D11*
X755199Y7390040D02*
X731873Y7390040D01*
X743536Y7390040D02*
X743536Y7460020D01*
X731873Y7460020D02*
X755199Y7460020D01*
X812902Y7460020D02*
X824565Y7448356D01*
X812902Y7460020D02*
X789575Y7460020D01*
X777912Y7448356D01*
X777912Y7401703D01*
X789575Y7390040D01*
X812902Y7390040D01*
X824565Y7401703D01*
X846971Y7436693D02*
X870297Y7460020D01*
X870297Y7390040D01*
X846971Y7390040D02*
X893624Y7390040D01*
X916029Y7390040D02*
X962683Y7390040D01*
X962683Y7436693D02*
X916029Y7390040D01*
X962683Y7436693D02*
X962683Y7448356D01*
X951019Y7460020D01*
X927693Y7460020D01*
X916029Y7448356D01*
X985088Y7448356D02*
X985088Y7401703D01*
X985088Y7448356D02*
X996751Y7460020D01*
X1020078Y7460020D01*
X1031741Y7448356D01*
X1031741Y7401703D01*
X1020078Y7390040D01*
X996751Y7390040D01*
X985088Y7401703D01*
X1031741Y7448356D01*
X1054147Y7436693D02*
X1077473Y7460020D01*
X1077473Y7390040D01*
X1054147Y7390040D02*
X1100800Y7390040D01*
D13*
X300000Y6095000D02*
X300000Y5875000D01*
X300000Y6345000D02*
X300000Y7145000D01*
X300058Y7149833D01*
X300234Y7154663D01*
X300525Y7159487D01*
X300934Y7164303D01*
X301458Y7169107D01*
X302099Y7173898D01*
X302855Y7178671D01*
X303726Y7183425D01*
X304712Y7188157D01*
X305812Y7192863D01*
X307025Y7197541D01*
X308351Y7202189D01*
X309789Y7206803D01*
X311338Y7211382D01*
X312997Y7215921D01*
X314765Y7220419D01*
X316642Y7224873D01*
X318625Y7229280D01*
X320715Y7233638D01*
X322909Y7237945D01*
X325206Y7242197D01*
X327606Y7246392D01*
X330106Y7250528D01*
X332706Y7254603D01*
X335403Y7258613D01*
X338197Y7262557D01*
X341084Y7266433D01*
X344065Y7270237D01*
X347137Y7273968D01*
X350298Y7277625D01*
X353546Y7281203D01*
X356880Y7284702D01*
X360298Y7288120D01*
X363797Y7291454D01*
X367375Y7294702D01*
X371032Y7297863D01*
X374763Y7300935D01*
X378567Y7303916D01*
X382443Y7306803D01*
X386387Y7309597D01*
X390397Y7312294D01*
X394472Y7314894D01*
X398608Y7317394D01*
X402803Y7319794D01*
X407055Y7322091D01*
X411362Y7324285D01*
X415720Y7326375D01*
X420127Y7328358D01*
X424581Y7330235D01*
X429079Y7332003D01*
X433618Y7333662D01*
X438197Y7335211D01*
X442811Y7336649D01*
X447459Y7337975D01*
X452137Y7339188D01*
X456843Y7340288D01*
X461575Y7341274D01*
X466329Y7342145D01*
X471102Y7342901D01*
X475893Y7343542D01*
X480697Y7344066D01*
X485513Y7344475D01*
X490337Y7344766D01*
X495167Y7344942D01*
X500000Y7345000D01*
X1260000Y7345000D01*
X1264833Y7344942D01*
X1269663Y7344766D01*
X1274487Y7344475D01*
X1279303Y7344066D01*
X1284107Y7343542D01*
X1288898Y7342901D01*
X1293671Y7342145D01*
X1298425Y7341274D01*
X1303157Y7340288D01*
X1307863Y7339188D01*
X1312541Y7337975D01*
X1317189Y7336649D01*
X1321803Y7335211D01*
X1326382Y7333662D01*
X1330921Y7332003D01*
X1335419Y7330235D01*
X1339873Y7328358D01*
X1344280Y7326375D01*
X1348638Y7324285D01*
X1352945Y7322091D01*
X1357197Y7319794D01*
X1361392Y7317394D01*
X1365528Y7314894D01*
X1369603Y7312294D01*
X1373613Y7309597D01*
X1377557Y7306803D01*
X1381433Y7303916D01*
X1385237Y7300935D01*
X1388968Y7297863D01*
X1392625Y7294702D01*
X1396203Y7291454D01*
X1399702Y7288120D01*
X1403120Y7284702D01*
X1406454Y7281203D01*
X1409702Y7277625D01*
X1412863Y7273968D01*
X1415935Y7270237D01*
X1418916Y7266433D01*
X1421803Y7262557D01*
X1424597Y7258613D01*
X1427294Y7254603D01*
X1429894Y7250528D01*
X1432394Y7246392D01*
X1434794Y7242197D01*
X1437091Y7237945D01*
X1439285Y7233638D01*
X1441375Y7229280D01*
X1443358Y7224873D01*
X1445235Y7220419D01*
X1447003Y7215921D01*
X1448662Y7211382D01*
X1450211Y7206803D01*
X1451649Y7202189D01*
X1452975Y7197541D01*
X1454188Y7192863D01*
X1455288Y7188157D01*
X1456274Y7183425D01*
X1457145Y7178671D01*
X1457901Y7173898D01*
X1458542Y7169107D01*
X1459066Y7164303D01*
X1459475Y7159487D01*
X1459766Y7154663D01*
X1459942Y7149833D01*
X1460000Y7145000D01*
X1460000Y6455000D01*
X1460000Y6065000D02*
X1460000Y5875000D01*
X300000Y5875000D01*
X480000Y6425000D02*
X1330000Y6425000D01*
X360000Y6425000D02*
X300000Y6425000D01*
D11*
X706873Y5765040D02*
X730199Y5765040D01*
X718536Y5765040D02*
X718536Y5835020D01*
X706873Y5835020D02*
X730199Y5835020D01*
X787902Y5835020D02*
X799565Y5823356D01*
X787902Y5835020D02*
X764575Y5835020D01*
X752912Y5823356D01*
X752912Y5776703D01*
X764575Y5765040D01*
X787902Y5765040D01*
X799565Y5776703D01*
X821971Y5811693D02*
X845297Y5835020D01*
X845297Y5765040D01*
X821971Y5765040D02*
X868624Y5765040D01*
X891029Y5811693D02*
X914356Y5835020D01*
X914356Y5765040D01*
X891029Y5765040D02*
X937683Y5765040D01*
X960088Y5776703D02*
X960088Y5823356D01*
X971751Y5835020D01*
X995078Y5835020D01*
X1006741Y5823356D01*
X1006741Y5776703D01*
X995078Y5765040D01*
X971751Y5765040D01*
X960088Y5776703D01*
X1006741Y5823356D01*
X1029147Y5811693D02*
X1052473Y5835020D01*
X1052473Y5765040D01*
X1029147Y5765040D02*
X1075800Y5765040D01*
D13*
X4525000Y2450000D02*
X4525000Y2250000D01*
X4725000Y2250000D02*
X4725000Y2450000D01*
D18*
X4685000Y2510000D02*
X4685003Y2510245D01*
X4685012Y2510491D01*
X4685027Y2510736D01*
X4685048Y2510980D01*
X4685075Y2511224D01*
X4685108Y2511467D01*
X4685147Y2511710D01*
X4685192Y2511951D01*
X4685243Y2512191D01*
X4685300Y2512430D01*
X4685362Y2512667D01*
X4685431Y2512903D01*
X4685505Y2513137D01*
X4685585Y2513369D01*
X4685670Y2513599D01*
X4685761Y2513827D01*
X4685858Y2514052D01*
X4685960Y2514276D01*
X4686068Y2514496D01*
X4686181Y2514714D01*
X4686299Y2514929D01*
X4686423Y2515141D01*
X4686551Y2515350D01*
X4686685Y2515556D01*
X4686824Y2515758D01*
X4686968Y2515957D01*
X4687117Y2516152D01*
X4687270Y2516344D01*
X4687428Y2516532D01*
X4687590Y2516716D01*
X4687758Y2516895D01*
X4687929Y2517071D01*
X4688105Y2517242D01*
X4688284Y2517410D01*
X4688468Y2517572D01*
X4688656Y2517730D01*
X4688848Y2517883D01*
X4689043Y2518032D01*
X4689242Y2518176D01*
X4689444Y2518315D01*
X4689650Y2518449D01*
X4689859Y2518577D01*
X4690071Y2518701D01*
X4690286Y2518819D01*
X4690504Y2518932D01*
X4690724Y2519040D01*
X4690948Y2519142D01*
X4691173Y2519239D01*
X4691401Y2519330D01*
X4691631Y2519415D01*
X4691863Y2519495D01*
X4692097Y2519569D01*
X4692333Y2519638D01*
X4692570Y2519700D01*
X4692809Y2519757D01*
X4693049Y2519808D01*
X4693290Y2519853D01*
X4693533Y2519892D01*
X4693776Y2519925D01*
X4694020Y2519952D01*
X4694264Y2519973D01*
X4694509Y2519988D01*
X4694755Y2519997D01*
X4695000Y2520000D01*
X4695245Y2519997D01*
X4695491Y2519988D01*
X4695736Y2519973D01*
X4695980Y2519952D01*
X4696224Y2519925D01*
X4696467Y2519892D01*
X4696710Y2519853D01*
X4696951Y2519808D01*
X4697191Y2519757D01*
X4697430Y2519700D01*
X4697667Y2519638D01*
X4697903Y2519569D01*
X4698137Y2519495D01*
X4698369Y2519415D01*
X4698599Y2519330D01*
X4698827Y2519239D01*
X4699052Y2519142D01*
X4699276Y2519040D01*
X4699496Y2518932D01*
X4699714Y2518819D01*
X4699929Y2518701D01*
X4700141Y2518577D01*
X4700350Y2518449D01*
X4700556Y2518315D01*
X4700758Y2518176D01*
X4700957Y2518032D01*
X4701152Y2517883D01*
X4701344Y2517730D01*
X4701532Y2517572D01*
X4701716Y2517410D01*
X4701895Y2517242D01*
X4702071Y2517071D01*
X4702242Y2516895D01*
X4702410Y2516716D01*
X4702572Y2516532D01*
X4702730Y2516344D01*
X4702883Y2516152D01*
X4703032Y2515957D01*
X4703176Y2515758D01*
X4703315Y2515556D01*
X4703449Y2515350D01*
X4703577Y2515141D01*
X4703701Y2514929D01*
X4703819Y2514714D01*
X4703932Y2514496D01*
X4704040Y2514276D01*
X4704142Y2514052D01*
X4704239Y2513827D01*
X4704330Y2513599D01*
X4704415Y2513369D01*
X4704495Y2513137D01*
X4704569Y2512903D01*
X4704638Y2512667D01*
X4704700Y2512430D01*
X4704757Y2512191D01*
X4704808Y2511951D01*
X4704853Y2511710D01*
X4704892Y2511467D01*
X4704925Y2511224D01*
X4704952Y2510980D01*
X4704973Y2510736D01*
X4704988Y2510491D01*
X4704997Y2510245D01*
X4705000Y2510000D01*
X4704997Y2509755D01*
X4704988Y2509509D01*
X4704973Y2509264D01*
X4704952Y2509020D01*
X4704925Y2508776D01*
X4704892Y2508533D01*
X4704853Y2508290D01*
X4704808Y2508049D01*
X4704757Y2507809D01*
X4704700Y2507570D01*
X4704638Y2507333D01*
X4704569Y2507097D01*
X4704495Y2506863D01*
X4704415Y2506631D01*
X4704330Y2506401D01*
X4704239Y2506173D01*
X4704142Y2505948D01*
X4704040Y2505724D01*
X4703932Y2505504D01*
X4703819Y2505286D01*
X4703701Y2505071D01*
X4703577Y2504859D01*
X4703449Y2504650D01*
X4703315Y2504444D01*
X4703176Y2504242D01*
X4703032Y2504043D01*
X4702883Y2503848D01*
X4702730Y2503656D01*
X4702572Y2503468D01*
X4702410Y2503284D01*
X4702242Y2503105D01*
X4702071Y2502929D01*
X4701895Y2502758D01*
X4701716Y2502590D01*
X4701532Y2502428D01*
X4701344Y2502270D01*
X4701152Y2502117D01*
X4700957Y2501968D01*
X4700758Y2501824D01*
X4700556Y2501685D01*
X4700350Y2501551D01*
X4700141Y2501423D01*
X4699929Y2501299D01*
X4699714Y2501181D01*
X4699496Y2501068D01*
X4699276Y2500960D01*
X4699052Y2500858D01*
X4698827Y2500761D01*
X4698599Y2500670D01*
X4698369Y2500585D01*
X4698137Y2500505D01*
X4697903Y2500431D01*
X4697667Y2500362D01*
X4697430Y2500300D01*
X4697191Y2500243D01*
X4696951Y2500192D01*
X4696710Y2500147D01*
X4696467Y2500108D01*
X4696224Y2500075D01*
X4695980Y2500048D01*
X4695736Y2500027D01*
X4695491Y2500012D01*
X4695245Y2500003D01*
X4695000Y2500000D01*
X4694755Y2500003D01*
X4694509Y2500012D01*
X4694264Y2500027D01*
X4694020Y2500048D01*
X4693776Y2500075D01*
X4693533Y2500108D01*
X4693290Y2500147D01*
X4693049Y2500192D01*
X4692809Y2500243D01*
X4692570Y2500300D01*
X4692333Y2500362D01*
X4692097Y2500431D01*
X4691863Y2500505D01*
X4691631Y2500585D01*
X4691401Y2500670D01*
X4691173Y2500761D01*
X4690948Y2500858D01*
X4690724Y2500960D01*
X4690504Y2501068D01*
X4690286Y2501181D01*
X4690071Y2501299D01*
X4689859Y2501423D01*
X4689650Y2501551D01*
X4689444Y2501685D01*
X4689242Y2501824D01*
X4689043Y2501968D01*
X4688848Y2502117D01*
X4688656Y2502270D01*
X4688468Y2502428D01*
X4688284Y2502590D01*
X4688105Y2502758D01*
X4687929Y2502929D01*
X4687758Y2503105D01*
X4687590Y2503284D01*
X4687428Y2503468D01*
X4687270Y2503656D01*
X4687117Y2503848D01*
X4686968Y2504043D01*
X4686824Y2504242D01*
X4686685Y2504444D01*
X4686551Y2504650D01*
X4686423Y2504859D01*
X4686299Y2505071D01*
X4686181Y2505286D01*
X4686068Y2505504D01*
X4685960Y2505724D01*
X4685858Y2505948D01*
X4685761Y2506173D01*
X4685670Y2506401D01*
X4685585Y2506631D01*
X4685505Y2506863D01*
X4685431Y2507097D01*
X4685362Y2507333D01*
X4685300Y2507570D01*
X4685243Y2507809D01*
X4685192Y2508049D01*
X4685147Y2508290D01*
X4685108Y2508533D01*
X4685075Y2508776D01*
X4685048Y2509020D01*
X4685027Y2509264D01*
X4685012Y2509509D01*
X4685003Y2509755D01*
X4685000Y2510000D01*
D11*
X4923356Y2600063D02*
X4935020Y2611726D01*
X4935020Y2635053D01*
X4923356Y2646716D01*
X4876703Y2646716D01*
X4865040Y2635053D01*
X4865040Y2611726D01*
X4876703Y2600063D01*
X4900030Y2600063D01*
X4900030Y2623389D01*
X4865040Y2577657D02*
X4935020Y2577657D01*
X4935020Y2542667D01*
X4923356Y2531004D01*
X4900030Y2531004D01*
X4888367Y2542667D01*
X4888367Y2577657D01*
X4935020Y2473608D02*
X4923356Y2461945D01*
X4935020Y2473608D02*
X4935020Y2496935D01*
X4923356Y2508598D01*
X4911693Y2508598D01*
X4900030Y2496935D01*
X4900030Y2473608D01*
X4888367Y2461945D01*
X4876703Y2461945D01*
X4865040Y2473608D01*
X4865040Y2496935D01*
X4876703Y2508598D01*
X4911693Y2439539D02*
X4911693Y2427876D01*
X4900030Y2427876D01*
X4900030Y2439539D01*
X4911693Y2439539D01*
X4876703Y2439539D02*
X4876703Y2427876D01*
X4865040Y2427876D01*
X4865040Y2439539D01*
X4876703Y2439539D01*
X4935020Y2370020D02*
X4923356Y2358357D01*
X4935020Y2370020D02*
X4935020Y2393347D01*
X4923356Y2405010D01*
X4911693Y2405010D01*
X4900030Y2393347D01*
X4900030Y2370020D01*
X4888367Y2358357D01*
X4876703Y2358357D01*
X4865040Y2370020D01*
X4865040Y2393347D01*
X4876703Y2405010D01*
X4888367Y2335951D02*
X4935020Y2335951D01*
X4888367Y2335951D02*
X4865040Y2312625D01*
X4888367Y2289298D01*
X4935020Y2289298D01*
X4911693Y2266893D02*
X4911693Y2255229D01*
X4900030Y2255229D01*
X4900030Y2266893D01*
X4911693Y2266893D01*
X4876703Y2266893D02*
X4876703Y2255229D01*
X4865040Y2255229D01*
X4865040Y2266893D01*
X4876703Y2266893D01*
X4865040Y2232363D02*
X4865040Y2209037D01*
X4865040Y2220700D02*
X4935020Y2220700D01*
X4935020Y2232363D02*
X4935020Y2209037D01*
X4935020Y2151334D02*
X4923356Y2139671D01*
X4935020Y2151334D02*
X4935020Y2174661D01*
X4923356Y2186324D01*
X4876703Y2186324D01*
X4865040Y2174661D01*
X4865040Y2151334D01*
X4876703Y2139671D01*
X4865040Y2117265D02*
X4865040Y2070612D01*
X4865040Y2117265D02*
X4911693Y2070612D01*
X4923356Y2070612D01*
X4935020Y2082276D01*
X4935020Y2105602D01*
X4923356Y2117265D01*
D13*
X2659000Y3250000D02*
X2659271Y3272087D01*
X2660084Y3294161D01*
X2661439Y3316208D01*
X2663334Y3338215D01*
X2665768Y3360170D01*
X2668741Y3382057D01*
X2672250Y3403866D01*
X2676293Y3425581D01*
X2680868Y3447191D01*
X2685972Y3468682D01*
X2691602Y3490041D01*
X2697754Y3511256D01*
X2704425Y3532314D01*
X2711610Y3553201D01*
X2719306Y3573906D01*
X2727508Y3594415D01*
X2736211Y3614717D01*
X2745410Y3634800D01*
X2755098Y3654650D01*
X2765271Y3674257D01*
X2775922Y3693608D01*
X2787044Y3712692D01*
X2798632Y3731498D01*
X2810677Y3750013D01*
X2823174Y3768227D01*
X2836113Y3786129D01*
X2849488Y3803708D01*
X2863291Y3820954D01*
X2877512Y3837856D01*
X2892144Y3854403D01*
X2907178Y3870586D01*
X2922604Y3886396D01*
X2938414Y3901822D01*
X2954597Y3916856D01*
X2971144Y3931488D01*
X2988046Y3945709D01*
X3005292Y3959512D01*
X3022871Y3972887D01*
X3040773Y3985826D01*
X3058987Y3998323D01*
X3077502Y4010368D01*
X3096308Y4021956D01*
X3115392Y4033078D01*
X3134743Y4043729D01*
X3154350Y4053902D01*
X3174200Y4063590D01*
X3194283Y4072789D01*
X3214585Y4081492D01*
X3235094Y4089694D01*
X3255799Y4097390D01*
X3276686Y4104575D01*
X3297744Y4111246D01*
X3318959Y4117398D01*
X3340318Y4123028D01*
X3361809Y4128132D01*
X3383419Y4132707D01*
X3405134Y4136750D01*
X3426943Y4140259D01*
X3448830Y4143232D01*
X3470785Y4145666D01*
X3492792Y4147561D01*
X3514839Y4148916D01*
X3536913Y4149729D01*
X3559000Y4150000D01*
X3581087Y4149729D01*
X3603161Y4148916D01*
X3625208Y4147561D01*
X3647215Y4145666D01*
X3669170Y4143232D01*
X3691057Y4140259D01*
X3712866Y4136750D01*
X3734581Y4132707D01*
X3756191Y4128132D01*
X3777682Y4123028D01*
X3799041Y4117398D01*
X3820256Y4111246D01*
X3841314Y4104575D01*
X3862201Y4097390D01*
X3882906Y4089694D01*
X3903415Y4081492D01*
X3923717Y4072789D01*
X3943800Y4063590D01*
X3963650Y4053902D01*
X3983257Y4043729D01*
X4002608Y4033078D01*
X4021692Y4021956D01*
X4040498Y4010368D01*
X4059013Y3998323D01*
X4077227Y3985826D01*
X4095129Y3972887D01*
X4112708Y3959512D01*
X4129954Y3945709D01*
X4146856Y3931488D01*
X4163403Y3916856D01*
X4179586Y3901822D01*
X4195396Y3886396D01*
X4210822Y3870586D01*
X4225856Y3854403D01*
X4240488Y3837856D01*
X4254709Y3820954D01*
X4268512Y3803708D01*
X4281887Y3786129D01*
X4294826Y3768227D01*
X4307323Y3750013D01*
X4319368Y3731498D01*
X4330956Y3712692D01*
X4342078Y3693608D01*
X4352729Y3674257D01*
X4362902Y3654650D01*
X4372590Y3634800D01*
X4381789Y3614717D01*
X4390492Y3594415D01*
X4398694Y3573906D01*
X4406390Y3553201D01*
X4413575Y3532314D01*
X4420246Y3511256D01*
X4426398Y3490041D01*
X4432028Y3468682D01*
X4437132Y3447191D01*
X4441707Y3425581D01*
X4445750Y3403866D01*
X4449259Y3382057D01*
X4452232Y3360170D01*
X4454666Y3338215D01*
X4456561Y3316208D01*
X4457916Y3294161D01*
X4458729Y3272087D01*
X4459000Y3250000D01*
X4458729Y3227913D01*
X4457916Y3205839D01*
X4456561Y3183792D01*
X4454666Y3161785D01*
X4452232Y3139830D01*
X4449259Y3117943D01*
X4445750Y3096134D01*
X4441707Y3074419D01*
X4437132Y3052809D01*
X4432028Y3031318D01*
X4426398Y3009959D01*
X4420246Y2988744D01*
X4413575Y2967686D01*
X4406390Y2946799D01*
X4398694Y2926094D01*
X4390492Y2905585D01*
X4381789Y2885283D01*
X4372590Y2865200D01*
X4362902Y2845350D01*
X4352729Y2825743D01*
X4342078Y2806392D01*
X4330956Y2787308D01*
X4319368Y2768502D01*
X4307323Y2749987D01*
X4294826Y2731773D01*
X4281887Y2713871D01*
X4268512Y2696292D01*
X4254709Y2679046D01*
X4240488Y2662144D01*
X4225856Y2645597D01*
X4210822Y2629414D01*
X4195396Y2613604D01*
X4179586Y2598178D01*
X4163403Y2583144D01*
X4146856Y2568512D01*
X4129954Y2554291D01*
X4112708Y2540488D01*
X4095129Y2527113D01*
X4077227Y2514174D01*
X4059013Y2501677D01*
X4040498Y2489632D01*
X4021692Y2478044D01*
X4002608Y2466922D01*
X3983257Y2456271D01*
X3963650Y2446098D01*
X3943800Y2436410D01*
X3923717Y2427211D01*
X3903415Y2418508D01*
X3882906Y2410306D01*
X3862201Y2402610D01*
X3841314Y2395425D01*
X3820256Y2388754D01*
X3799041Y2382602D01*
X3777682Y2376972D01*
X3756191Y2371868D01*
X3734581Y2367293D01*
X3712866Y2363250D01*
X3691057Y2359741D01*
X3669170Y2356768D01*
X3647215Y2354334D01*
X3625208Y2352439D01*
X3603161Y2351084D01*
X3581087Y2350271D01*
X3559000Y2350000D01*
X3536913Y2350271D01*
X3514839Y2351084D01*
X3492792Y2352439D01*
X3470785Y2354334D01*
X3448830Y2356768D01*
X3426943Y2359741D01*
X3405134Y2363250D01*
X3383419Y2367293D01*
X3361809Y2371868D01*
X3340318Y2376972D01*
X3318959Y2382602D01*
X3297744Y2388754D01*
X3276686Y2395425D01*
X3255799Y2402610D01*
X3235094Y2410306D01*
X3214585Y2418508D01*
X3194283Y2427211D01*
X3174200Y2436410D01*
X3154350Y2446098D01*
X3134743Y2456271D01*
X3115392Y2466922D01*
X3096308Y2478044D01*
X3077502Y2489632D01*
X3058987Y2501677D01*
X3040773Y2514174D01*
X3022871Y2527113D01*
X3005292Y2540488D01*
X2988046Y2554291D01*
X2971144Y2568512D01*
X2954597Y2583144D01*
X2938414Y2598178D01*
X2922604Y2613604D01*
X2907178Y2629414D01*
X2892144Y2645597D01*
X2877512Y2662144D01*
X2863291Y2679046D01*
X2849488Y2696292D01*
X2836113Y2713871D01*
X2823174Y2731773D01*
X2810677Y2749987D01*
X2798632Y2768502D01*
X2787044Y2787308D01*
X2775922Y2806392D01*
X2765271Y2825743D01*
X2755098Y2845350D01*
X2745410Y2865200D01*
X2736211Y2885283D01*
X2727508Y2905585D01*
X2719306Y2926094D01*
X2711610Y2946799D01*
X2704425Y2967686D01*
X2697754Y2988744D01*
X2691602Y3009959D01*
X2685972Y3031318D01*
X2680868Y3052809D01*
X2676293Y3074419D01*
X2672250Y3096134D01*
X2668741Y3117943D01*
X2665768Y3139830D01*
X2663334Y3161785D01*
X2661439Y3183792D01*
X2660084Y3205839D01*
X2659271Y3227913D01*
X2659000Y3250000D01*
D19*
X2795373Y3250254D02*
X3191952Y3250254D01*
X3938373Y3250254D02*
X4334952Y3250254D01*
X4136662Y3448543D02*
X4136662Y3051965D01*
D11*
X4514980Y3401764D02*
X4526644Y3413428D01*
X4514980Y3401764D02*
X4514980Y3378438D01*
X4526644Y3366774D01*
X4573297Y3366774D01*
X4584960Y3378438D01*
X4584960Y3401764D01*
X4573297Y3413428D01*
X4549970Y3413428D01*
X4549970Y3390101D01*
X4584960Y3435833D02*
X4514980Y3435833D01*
X4514980Y3470823D01*
X4526644Y3482486D01*
X4549970Y3482486D01*
X4561633Y3470823D01*
X4561633Y3435833D01*
X4514980Y3539882D02*
X4526644Y3551545D01*
X4514980Y3539882D02*
X4514980Y3516555D01*
X4526644Y3504892D01*
X4538307Y3504892D01*
X4549970Y3516555D01*
X4549970Y3539882D01*
X4561633Y3551545D01*
X4573297Y3551545D01*
X4584960Y3539882D01*
X4584960Y3516555D01*
X4573297Y3504892D01*
X4538307Y3573951D02*
X4538307Y3585614D01*
X4549970Y3585614D01*
X4549970Y3573951D01*
X4538307Y3573951D01*
X4573297Y3573951D02*
X4573297Y3585614D01*
X4584960Y3585614D01*
X4584960Y3573951D01*
X4573297Y3573951D01*
X4514980Y3643470D02*
X4526644Y3655133D01*
X4514980Y3643470D02*
X4514980Y3620143D01*
X4526644Y3608480D01*
X4538307Y3608480D01*
X4549970Y3620143D01*
X4549970Y3643470D01*
X4561633Y3655133D01*
X4573297Y3655133D01*
X4584960Y3643470D01*
X4584960Y3620143D01*
X4573297Y3608480D01*
X4514980Y3712528D02*
X4526644Y3724192D01*
X4514980Y3712528D02*
X4514980Y3689202D01*
X4526644Y3677539D01*
X4573297Y3677539D01*
X4584960Y3689202D01*
X4584960Y3712528D01*
X4573297Y3724192D01*
X4538307Y3746598D02*
X4538307Y3758261D01*
X4549970Y3758261D01*
X4549970Y3746598D01*
X4538307Y3746598D01*
X4573297Y3746598D02*
X4573297Y3758261D01*
X4584960Y3758261D01*
X4584960Y3746598D01*
X4573297Y3746598D01*
X4514980Y3816117D02*
X4526644Y3827780D01*
X4514980Y3816117D02*
X4514980Y3792790D01*
X4526644Y3781127D01*
X4573297Y3781127D01*
X4584960Y3792790D01*
X4584960Y3816117D01*
X4573297Y3827780D01*
X4584960Y3850186D02*
X4584960Y3896839D01*
X4584960Y3850186D02*
X4538307Y3896839D01*
X4526644Y3896839D01*
X4514980Y3885175D01*
X4514980Y3861849D01*
X4526644Y3850186D01*
X4514980Y3954234D02*
X4584960Y3954234D01*
X4549970Y3919244D02*
X4514980Y3954234D01*
X4549970Y3965898D02*
X4549970Y3919244D01*
X4639980Y3580013D02*
X4663307Y3556687D01*
X4639980Y3580013D02*
X4709960Y3580013D01*
X4709960Y3556687D02*
X4709960Y3603340D01*
X4709960Y3625745D02*
X4698297Y3625745D01*
X4698297Y3637408D01*
X4709960Y3637408D01*
X4709960Y3625745D01*
X4639980Y3660275D02*
X4639980Y3706928D01*
X4639980Y3660275D02*
X4674970Y3660275D01*
X4663307Y3683601D01*
X4663307Y3695264D01*
X4674970Y3706928D01*
X4698297Y3706928D01*
X4709960Y3695264D01*
X4709960Y3671938D01*
X4698297Y3660275D01*
X4709960Y3729333D02*
X4639980Y3729333D01*
X4639980Y3775987D01*
X4674970Y3752660D02*
X4674970Y3729333D01*
D13*
X3654000Y4546000D02*
X3654000Y4846000D01*
X3954000Y4846000D02*
X3954000Y4546000D01*
D18*
X3634000Y4446000D02*
X3634006Y4446491D01*
X3634024Y4446981D01*
X3634054Y4447471D01*
X3634096Y4447960D01*
X3634150Y4448448D01*
X3634216Y4448935D01*
X3634294Y4449419D01*
X3634384Y4449902D01*
X3634486Y4450382D01*
X3634599Y4450860D01*
X3634724Y4451334D01*
X3634861Y4451806D01*
X3635009Y4452274D01*
X3635169Y4452738D01*
X3635340Y4453198D01*
X3635522Y4453654D01*
X3635716Y4454105D01*
X3635920Y4454551D01*
X3636136Y4454992D01*
X3636362Y4455428D01*
X3636598Y4455858D01*
X3636845Y4456282D01*
X3637103Y4456700D01*
X3637371Y4457111D01*
X3637648Y4457516D01*
X3637936Y4457914D01*
X3638233Y4458305D01*
X3638540Y4458688D01*
X3638856Y4459063D01*
X3639181Y4459431D01*
X3639515Y4459791D01*
X3639858Y4460142D01*
X3640209Y4460485D01*
X3640569Y4460819D01*
X3640937Y4461144D01*
X3641312Y4461460D01*
X3641695Y4461767D01*
X3642086Y4462064D01*
X3642484Y4462352D01*
X3642889Y4462629D01*
X3643300Y4462897D01*
X3643718Y4463155D01*
X3644142Y4463402D01*
X3644572Y4463638D01*
X3645008Y4463864D01*
X3645449Y4464080D01*
X3645895Y4464284D01*
X3646346Y4464478D01*
X3646802Y4464660D01*
X3647262Y4464831D01*
X3647726Y4464991D01*
X3648194Y4465139D01*
X3648666Y4465276D01*
X3649140Y4465401D01*
X3649618Y4465514D01*
X3650098Y4465616D01*
X3650581Y4465706D01*
X3651065Y4465784D01*
X3651552Y4465850D01*
X3652040Y4465904D01*
X3652529Y4465946D01*
X3653019Y4465976D01*
X3653509Y4465994D01*
X3654000Y4466000D01*
X3654491Y4465994D01*
X3654981Y4465976D01*
X3655471Y4465946D01*
X3655960Y4465904D01*
X3656448Y4465850D01*
X3656935Y4465784D01*
X3657419Y4465706D01*
X3657902Y4465616D01*
X3658382Y4465514D01*
X3658860Y4465401D01*
X3659334Y4465276D01*
X3659806Y4465139D01*
X3660274Y4464991D01*
X3660738Y4464831D01*
X3661198Y4464660D01*
X3661654Y4464478D01*
X3662105Y4464284D01*
X3662551Y4464080D01*
X3662992Y4463864D01*
X3663428Y4463638D01*
X3663858Y4463402D01*
X3664282Y4463155D01*
X3664700Y4462897D01*
X3665111Y4462629D01*
X3665516Y4462352D01*
X3665914Y4462064D01*
X3666305Y4461767D01*
X3666688Y4461460D01*
X3667063Y4461144D01*
X3667431Y4460819D01*
X3667791Y4460485D01*
X3668142Y4460142D01*
X3668485Y4459791D01*
X3668819Y4459431D01*
X3669144Y4459063D01*
X3669460Y4458688D01*
X3669767Y4458305D01*
X3670064Y4457914D01*
X3670352Y4457516D01*
X3670629Y4457111D01*
X3670897Y4456700D01*
X3671155Y4456282D01*
X3671402Y4455858D01*
X3671638Y4455428D01*
X3671864Y4454992D01*
X3672080Y4454551D01*
X3672284Y4454105D01*
X3672478Y4453654D01*
X3672660Y4453198D01*
X3672831Y4452738D01*
X3672991Y4452274D01*
X3673139Y4451806D01*
X3673276Y4451334D01*
X3673401Y4450860D01*
X3673514Y4450382D01*
X3673616Y4449902D01*
X3673706Y4449419D01*
X3673784Y4448935D01*
X3673850Y4448448D01*
X3673904Y4447960D01*
X3673946Y4447471D01*
X3673976Y4446981D01*
X3673994Y4446491D01*
X3674000Y4446000D01*
X3673994Y4445509D01*
X3673976Y4445019D01*
X3673946Y4444529D01*
X3673904Y4444040D01*
X3673850Y4443552D01*
X3673784Y4443065D01*
X3673706Y4442581D01*
X3673616Y4442098D01*
X3673514Y4441618D01*
X3673401Y4441140D01*
X3673276Y4440666D01*
X3673139Y4440194D01*
X3672991Y4439726D01*
X3672831Y4439262D01*
X3672660Y4438802D01*
X3672478Y4438346D01*
X3672284Y4437895D01*
X3672080Y4437449D01*
X3671864Y4437008D01*
X3671638Y4436572D01*
X3671402Y4436142D01*
X3671155Y4435718D01*
X3670897Y4435300D01*
X3670629Y4434889D01*
X3670352Y4434484D01*
X3670064Y4434086D01*
X3669767Y4433695D01*
X3669460Y4433312D01*
X3669144Y4432937D01*
X3668819Y4432569D01*
X3668485Y4432209D01*
X3668142Y4431858D01*
X3667791Y4431515D01*
X3667431Y4431181D01*
X3667063Y4430856D01*
X3666688Y4430540D01*
X3666305Y4430233D01*
X3665914Y4429936D01*
X3665516Y4429648D01*
X3665111Y4429371D01*
X3664700Y4429103D01*
X3664282Y4428845D01*
X3663858Y4428598D01*
X3663428Y4428362D01*
X3662992Y4428136D01*
X3662551Y4427920D01*
X3662105Y4427716D01*
X3661654Y4427522D01*
X3661198Y4427340D01*
X3660738Y4427169D01*
X3660274Y4427009D01*
X3659806Y4426861D01*
X3659334Y4426724D01*
X3658860Y4426599D01*
X3658382Y4426486D01*
X3657902Y4426384D01*
X3657419Y4426294D01*
X3656935Y4426216D01*
X3656448Y4426150D01*
X3655960Y4426096D01*
X3655471Y4426054D01*
X3654981Y4426024D01*
X3654491Y4426006D01*
X3654000Y4426000D01*
X3653509Y4426006D01*
X3653019Y4426024D01*
X3652529Y4426054D01*
X3652040Y4426096D01*
X3651552Y4426150D01*
X3651065Y4426216D01*
X3650581Y4426294D01*
X3650098Y4426384D01*
X3649618Y4426486D01*
X3649140Y4426599D01*
X3648666Y4426724D01*
X3648194Y4426861D01*
X3647726Y4427009D01*
X3647262Y4427169D01*
X3646802Y4427340D01*
X3646346Y4427522D01*
X3645895Y4427716D01*
X3645449Y4427920D01*
X3645008Y4428136D01*
X3644572Y4428362D01*
X3644142Y4428598D01*
X3643718Y4428845D01*
X3643300Y4429103D01*
X3642889Y4429371D01*
X3642484Y4429648D01*
X3642086Y4429936D01*
X3641695Y4430233D01*
X3641312Y4430540D01*
X3640937Y4430856D01*
X3640569Y4431181D01*
X3640209Y4431515D01*
X3639858Y4431858D01*
X3639515Y4432209D01*
X3639181Y4432569D01*
X3638856Y4432937D01*
X3638540Y4433312D01*
X3638233Y4433695D01*
X3637936Y4434086D01*
X3637648Y4434484D01*
X3637371Y4434889D01*
X3637103Y4435300D01*
X3636845Y4435718D01*
X3636598Y4436142D01*
X3636362Y4436572D01*
X3636136Y4437008D01*
X3635920Y4437449D01*
X3635716Y4437895D01*
X3635522Y4438346D01*
X3635340Y4438802D01*
X3635169Y4439262D01*
X3635009Y4439726D01*
X3634861Y4440194D01*
X3634724Y4440666D01*
X3634599Y4441140D01*
X3634486Y4441618D01*
X3634384Y4442098D01*
X3634294Y4442581D01*
X3634216Y4443065D01*
X3634150Y4443552D01*
X3634096Y4444040D01*
X3634054Y4444529D01*
X3634024Y4445019D01*
X3634006Y4445509D01*
X3634000Y4446000D01*
D11*
X3993980Y4434274D02*
X4005644Y4445938D01*
X3993980Y4434274D02*
X3993980Y4410948D01*
X4005644Y4399284D01*
X4052297Y4399284D01*
X4063960Y4410948D01*
X4063960Y4434274D01*
X4052297Y4445938D01*
X4028970Y4445938D01*
X4028970Y4422611D01*
X4063960Y4468343D02*
X3993980Y4468343D01*
X3993980Y4503333D01*
X4005644Y4514996D01*
X4028970Y4514996D01*
X4040633Y4503333D01*
X4040633Y4468343D01*
X3993980Y4572392D02*
X4005644Y4584055D01*
X3993980Y4572392D02*
X3993980Y4549065D01*
X4005644Y4537402D01*
X4017307Y4537402D01*
X4028970Y4549065D01*
X4028970Y4572392D01*
X4040633Y4584055D01*
X4052297Y4584055D01*
X4063960Y4572392D01*
X4063960Y4549065D01*
X4052297Y4537402D01*
X4017307Y4606461D02*
X4017307Y4618124D01*
X4028970Y4618124D01*
X4028970Y4606461D01*
X4017307Y4606461D01*
X4052297Y4606461D02*
X4052297Y4618124D01*
X4063960Y4618124D01*
X4063960Y4606461D01*
X4052297Y4606461D01*
X3993980Y4675980D02*
X4005644Y4687643D01*
X3993980Y4675980D02*
X3993980Y4652653D01*
X4005644Y4640990D01*
X4017307Y4640990D01*
X4028970Y4652653D01*
X4028970Y4675980D01*
X4040633Y4687643D01*
X4052297Y4687643D01*
X4063960Y4675980D01*
X4063960Y4652653D01*
X4052297Y4640990D01*
X3993980Y4745038D02*
X4005644Y4756702D01*
X3993980Y4745038D02*
X3993980Y4721712D01*
X4005644Y4710049D01*
X4052297Y4710049D01*
X4063960Y4721712D01*
X4063960Y4745038D01*
X4052297Y4756702D01*
X4017307Y4779108D02*
X4017307Y4790771D01*
X4028970Y4790771D01*
X4028970Y4779108D01*
X4017307Y4779108D01*
X4052297Y4779108D02*
X4052297Y4790771D01*
X4063960Y4790771D01*
X4063960Y4779108D01*
X4052297Y4779108D01*
X4063960Y4813637D02*
X4063960Y4836963D01*
X4063960Y4825300D02*
X3993980Y4825300D01*
X3993980Y4813637D02*
X3993980Y4836963D01*
X3993980Y4894666D02*
X4005644Y4906329D01*
X3993980Y4894666D02*
X3993980Y4871339D01*
X4005644Y4859676D01*
X4052297Y4859676D01*
X4063960Y4871339D01*
X4063960Y4894666D01*
X4052297Y4906329D01*
X4063960Y4928735D02*
X4063960Y4975388D01*
X4063960Y4928735D02*
X4017307Y4975388D01*
X4005644Y4975388D01*
X3993980Y4963724D01*
X3993980Y4940398D01*
X4005644Y4928735D01*
D13*
X3925000Y1825000D02*
X3925000Y825000D01*
X4925000Y825000D02*
X4925000Y1825000D01*
X4105000Y825000D02*
X3925000Y825000D01*
X3925000Y1825000D02*
X4105000Y1825000D01*
X4745000Y825000D02*
X4925000Y825000D01*
X4925000Y1825000D02*
X4745000Y1825000D01*
D20*
X4665000Y1900000D02*
X4665003Y1900245D01*
X4665012Y1900491D01*
X4665027Y1900736D01*
X4665048Y1900980D01*
X4665075Y1901224D01*
X4665108Y1901467D01*
X4665147Y1901710D01*
X4665192Y1901951D01*
X4665243Y1902191D01*
X4665300Y1902430D01*
X4665362Y1902667D01*
X4665431Y1902903D01*
X4665505Y1903137D01*
X4665585Y1903369D01*
X4665670Y1903599D01*
X4665761Y1903827D01*
X4665858Y1904052D01*
X4665960Y1904276D01*
X4666068Y1904496D01*
X4666181Y1904714D01*
X4666299Y1904929D01*
X4666423Y1905141D01*
X4666551Y1905350D01*
X4666685Y1905556D01*
X4666824Y1905758D01*
X4666968Y1905957D01*
X4667117Y1906152D01*
X4667270Y1906344D01*
X4667428Y1906532D01*
X4667590Y1906716D01*
X4667758Y1906895D01*
X4667929Y1907071D01*
X4668105Y1907242D01*
X4668284Y1907410D01*
X4668468Y1907572D01*
X4668656Y1907730D01*
X4668848Y1907883D01*
X4669043Y1908032D01*
X4669242Y1908176D01*
X4669444Y1908315D01*
X4669650Y1908449D01*
X4669859Y1908577D01*
X4670071Y1908701D01*
X4670286Y1908819D01*
X4670504Y1908932D01*
X4670724Y1909040D01*
X4670948Y1909142D01*
X4671173Y1909239D01*
X4671401Y1909330D01*
X4671631Y1909415D01*
X4671863Y1909495D01*
X4672097Y1909569D01*
X4672333Y1909638D01*
X4672570Y1909700D01*
X4672809Y1909757D01*
X4673049Y1909808D01*
X4673290Y1909853D01*
X4673533Y1909892D01*
X4673776Y1909925D01*
X4674020Y1909952D01*
X4674264Y1909973D01*
X4674509Y1909988D01*
X4674755Y1909997D01*
X4675000Y1910000D01*
X4675245Y1909997D01*
X4675491Y1909988D01*
X4675736Y1909973D01*
X4675980Y1909952D01*
X4676224Y1909925D01*
X4676467Y1909892D01*
X4676710Y1909853D01*
X4676951Y1909808D01*
X4677191Y1909757D01*
X4677430Y1909700D01*
X4677667Y1909638D01*
X4677903Y1909569D01*
X4678137Y1909495D01*
X4678369Y1909415D01*
X4678599Y1909330D01*
X4678827Y1909239D01*
X4679052Y1909142D01*
X4679276Y1909040D01*
X4679496Y1908932D01*
X4679714Y1908819D01*
X4679929Y1908701D01*
X4680141Y1908577D01*
X4680350Y1908449D01*
X4680556Y1908315D01*
X4680758Y1908176D01*
X4680957Y1908032D01*
X4681152Y1907883D01*
X4681344Y1907730D01*
X4681532Y1907572D01*
X4681716Y1907410D01*
X4681895Y1907242D01*
X4682071Y1907071D01*
X4682242Y1906895D01*
X4682410Y1906716D01*
X4682572Y1906532D01*
X4682730Y1906344D01*
X4682883Y1906152D01*
X4683032Y1905957D01*
X4683176Y1905758D01*
X4683315Y1905556D01*
X4683449Y1905350D01*
X4683577Y1905141D01*
X4683701Y1904929D01*
X4683819Y1904714D01*
X4683932Y1904496D01*
X4684040Y1904276D01*
X4684142Y1904052D01*
X4684239Y1903827D01*
X4684330Y1903599D01*
X4684415Y1903369D01*
X4684495Y1903137D01*
X4684569Y1902903D01*
X4684638Y1902667D01*
X4684700Y1902430D01*
X4684757Y1902191D01*
X4684808Y1901951D01*
X4684853Y1901710D01*
X4684892Y1901467D01*
X4684925Y1901224D01*
X4684952Y1900980D01*
X4684973Y1900736D01*
X4684988Y1900491D01*
X4684997Y1900245D01*
X4685000Y1900000D01*
X4684997Y1899755D01*
X4684988Y1899509D01*
X4684973Y1899264D01*
X4684952Y1899020D01*
X4684925Y1898776D01*
X4684892Y1898533D01*
X4684853Y1898290D01*
X4684808Y1898049D01*
X4684757Y1897809D01*
X4684700Y1897570D01*
X4684638Y1897333D01*
X4684569Y1897097D01*
X4684495Y1896863D01*
X4684415Y1896631D01*
X4684330Y1896401D01*
X4684239Y1896173D01*
X4684142Y1895948D01*
X4684040Y1895724D01*
X4683932Y1895504D01*
X4683819Y1895286D01*
X4683701Y1895071D01*
X4683577Y1894859D01*
X4683449Y1894650D01*
X4683315Y1894444D01*
X4683176Y1894242D01*
X4683032Y1894043D01*
X4682883Y1893848D01*
X4682730Y1893656D01*
X4682572Y1893468D01*
X4682410Y1893284D01*
X4682242Y1893105D01*
X4682071Y1892929D01*
X4681895Y1892758D01*
X4681716Y1892590D01*
X4681532Y1892428D01*
X4681344Y1892270D01*
X4681152Y1892117D01*
X4680957Y1891968D01*
X4680758Y1891824D01*
X4680556Y1891685D01*
X4680350Y1891551D01*
X4680141Y1891423D01*
X4679929Y1891299D01*
X4679714Y1891181D01*
X4679496Y1891068D01*
X4679276Y1890960D01*
X4679052Y1890858D01*
X4678827Y1890761D01*
X4678599Y1890670D01*
X4678369Y1890585D01*
X4678137Y1890505D01*
X4677903Y1890431D01*
X4677667Y1890362D01*
X4677430Y1890300D01*
X4677191Y1890243D01*
X4676951Y1890192D01*
X4676710Y1890147D01*
X4676467Y1890108D01*
X4676224Y1890075D01*
X4675980Y1890048D01*
X4675736Y1890027D01*
X4675491Y1890012D01*
X4675245Y1890003D01*
X4675000Y1890000D01*
X4674755Y1890003D01*
X4674509Y1890012D01*
X4674264Y1890027D01*
X4674020Y1890048D01*
X4673776Y1890075D01*
X4673533Y1890108D01*
X4673290Y1890147D01*
X4673049Y1890192D01*
X4672809Y1890243D01*
X4672570Y1890300D01*
X4672333Y1890362D01*
X4672097Y1890431D01*
X4671863Y1890505D01*
X4671631Y1890585D01*
X4671401Y1890670D01*
X4671173Y1890761D01*
X4670948Y1890858D01*
X4670724Y1890960D01*
X4670504Y1891068D01*
X4670286Y1891181D01*
X4670071Y1891299D01*
X4669859Y1891423D01*
X4669650Y1891551D01*
X4669444Y1891685D01*
X4669242Y1891824D01*
X4669043Y1891968D01*
X4668848Y1892117D01*
X4668656Y1892270D01*
X4668468Y1892428D01*
X4668284Y1892590D01*
X4668105Y1892758D01*
X4667929Y1892929D01*
X4667758Y1893105D01*
X4667590Y1893284D01*
X4667428Y1893468D01*
X4667270Y1893656D01*
X4667117Y1893848D01*
X4666968Y1894043D01*
X4666824Y1894242D01*
X4666685Y1894444D01*
X4666551Y1894650D01*
X4666423Y1894859D01*
X4666299Y1895071D01*
X4666181Y1895286D01*
X4666068Y1895504D01*
X4665960Y1895724D01*
X4665858Y1895948D01*
X4665761Y1896173D01*
X4665670Y1896401D01*
X4665585Y1896631D01*
X4665505Y1896863D01*
X4665431Y1897097D01*
X4665362Y1897333D01*
X4665300Y1897570D01*
X4665243Y1897809D01*
X4665192Y1898049D01*
X4665147Y1898290D01*
X4665108Y1898533D01*
X4665075Y1898776D01*
X4665048Y1899020D01*
X4665027Y1899264D01*
X4665012Y1899509D01*
X4665003Y1899755D01*
X4665000Y1900000D01*
D11*
X4976644Y1109467D02*
X4964980Y1097803D01*
X4964980Y1074477D01*
X4976644Y1062814D01*
X5023297Y1062814D01*
X5034960Y1074477D01*
X5034960Y1097803D01*
X5023297Y1109467D01*
X4999970Y1109467D01*
X4999970Y1086140D01*
X5034960Y1131873D02*
X4964980Y1131873D01*
X4964980Y1166862D01*
X4976644Y1178526D01*
X4999970Y1178526D01*
X5011633Y1166862D01*
X5011633Y1131873D01*
X4964980Y1235921D02*
X4976644Y1247584D01*
X4964980Y1235921D02*
X4964980Y1212594D01*
X4976644Y1200931D01*
X4988307Y1200931D01*
X4999970Y1212594D01*
X4999970Y1235921D01*
X5011633Y1247584D01*
X5023297Y1247584D01*
X5034960Y1235921D01*
X5034960Y1212594D01*
X5023297Y1200931D01*
X4988307Y1269990D02*
X4988307Y1281653D01*
X4999970Y1281653D01*
X4999970Y1269990D01*
X4988307Y1269990D01*
X5023297Y1269990D02*
X5023297Y1281653D01*
X5034960Y1281653D01*
X5034960Y1269990D01*
X5023297Y1269990D01*
X4964980Y1339509D02*
X4976644Y1351173D01*
X4964980Y1339509D02*
X4964980Y1316183D01*
X4976644Y1304519D01*
X5023297Y1304519D01*
X5034960Y1316183D01*
X5034960Y1339509D01*
X5023297Y1351173D01*
X4999970Y1351173D01*
X4999970Y1327846D01*
X4988307Y1373578D02*
X4988307Y1385241D01*
X4999970Y1385241D01*
X4999970Y1373578D01*
X4988307Y1373578D01*
X5023297Y1373578D02*
X5023297Y1385241D01*
X5034960Y1385241D01*
X5034960Y1373578D01*
X5023297Y1373578D01*
X5034960Y1408108D02*
X5034960Y1431434D01*
X5034960Y1419771D02*
X4964980Y1419771D01*
X4964980Y1408108D02*
X4964980Y1431434D01*
X4964980Y1489136D02*
X4976644Y1500800D01*
X4964980Y1489136D02*
X4964980Y1465810D01*
X4976644Y1454147D01*
X5023297Y1454147D01*
X5034960Y1465810D01*
X5034960Y1489136D01*
X5023297Y1500800D01*
X4988307Y1523205D02*
X4964980Y1546532D01*
X5034960Y1546532D01*
X5034960Y1569858D02*
X5034960Y1523205D01*
D12*
X1954000Y427000D02*
X1446000Y427000D01*
X1446000Y173000D01*
X1954000Y173000D01*
X1954000Y427000D01*
D21*
X1471400Y300000D03*
D11*
X1460833Y465040D02*
X1460833Y535020D01*
X1460833Y465040D02*
X1507487Y465040D01*
X1529892Y535020D02*
X1576545Y535020D01*
X1529892Y535020D02*
X1529892Y465040D01*
X1576545Y465040D01*
X1553219Y500030D02*
X1529892Y500030D01*
X1598951Y535020D02*
X1598951Y465040D01*
X1633941Y465040D01*
X1645604Y476703D01*
X1645604Y523356D01*
X1633941Y535020D01*
X1598951Y535020D01*
X1668010Y511693D02*
X1691336Y535020D01*
X1691336Y465040D01*
X1668010Y465040D02*
X1714663Y465040D01*
X1737068Y535020D02*
X1783722Y535020D01*
X1783722Y523356D01*
X1737068Y476703D01*
X1737068Y465040D01*
X1806127Y476703D02*
X1806127Y523356D01*
X1817790Y535020D01*
X1841117Y535020D01*
X1852780Y523356D01*
X1852780Y476703D01*
X1841117Y465040D01*
X1817790Y465040D01*
X1806127Y476703D01*
X1852780Y523356D01*
X1910176Y535020D02*
X1910176Y465040D01*
X1875186Y500030D02*
X1910176Y535020D01*
X1921839Y500030D02*
X1875186Y500030D01*
D12*
X2846000Y427000D02*
X3354000Y427000D01*
X2846000Y427000D02*
X2846000Y173000D01*
X3354000Y173000D01*
X3354000Y427000D01*
D21*
X2871400Y300000D03*
D11*
X2860833Y465040D02*
X2860833Y535020D01*
X2860833Y465040D02*
X2907487Y465040D01*
X2929892Y535020D02*
X2976545Y535020D01*
X2929892Y535020D02*
X2929892Y465040D01*
X2976545Y465040D01*
X2953219Y500030D02*
X2929892Y500030D01*
X2998951Y535020D02*
X2998951Y465040D01*
X3033941Y465040D01*
X3045604Y476703D01*
X3045604Y523356D01*
X3033941Y535020D01*
X2998951Y535020D01*
X3068010Y511693D02*
X3091336Y535020D01*
X3091336Y465040D01*
X3068010Y465040D02*
X3114663Y465040D01*
X3137068Y535020D02*
X3183722Y535020D01*
X3183722Y523356D01*
X3137068Y476703D01*
X3137068Y465040D01*
X3206127Y476703D02*
X3206127Y523356D01*
X3217790Y535020D01*
X3241117Y535020D01*
X3252780Y523356D01*
X3252780Y476703D01*
X3241117Y465040D01*
X3217790Y465040D01*
X3206127Y476703D01*
X3252780Y523356D01*
X3275186Y523356D02*
X3286849Y535020D01*
X3310176Y535020D01*
X3321839Y523356D01*
X3321839Y511693D01*
X3310176Y500030D01*
X3298513Y500030D01*
X3310176Y500030D02*
X3321839Y488367D01*
X3321839Y476703D01*
X3310176Y465040D01*
X3286849Y465040D01*
X3275186Y476703D01*
D12*
X2654000Y427000D02*
X2146000Y427000D01*
X2146000Y173000D01*
X2654000Y173000D01*
X2654000Y427000D01*
D21*
X2171400Y300000D03*
D11*
X2160833Y465040D02*
X2160833Y535020D01*
X2160833Y465040D02*
X2207487Y465040D01*
X2229892Y535020D02*
X2276545Y535020D01*
X2229892Y535020D02*
X2229892Y465040D01*
X2276545Y465040D01*
X2253219Y500030D02*
X2229892Y500030D01*
X2298951Y535020D02*
X2298951Y465040D01*
X2333941Y465040D01*
X2345604Y476703D01*
X2345604Y523356D01*
X2333941Y535020D01*
X2298951Y535020D01*
X2368010Y511693D02*
X2391336Y535020D01*
X2391336Y465040D01*
X2368010Y465040D02*
X2414663Y465040D01*
X2437068Y535020D02*
X2483722Y535020D01*
X2483722Y523356D01*
X2437068Y476703D01*
X2437068Y465040D01*
X2506127Y476703D02*
X2506127Y523356D01*
X2517790Y535020D01*
X2541117Y535020D01*
X2552780Y523356D01*
X2552780Y476703D01*
X2541117Y465040D01*
X2517790Y465040D01*
X2506127Y476703D01*
X2552780Y523356D01*
X2575186Y511693D02*
X2598513Y535020D01*
X2598513Y465040D01*
X2621839Y465040D02*
X2575186Y465040D01*
D13*
X6350000Y7135000D02*
X6350000Y7315000D01*
X6650000Y7315000D02*
X6650000Y7135000D01*
X6630000Y7135000D01*
X6370000Y7315000D02*
X6350000Y7315000D01*
X6630000Y7315000D02*
X6650000Y7315000D01*
X6370000Y7135000D02*
X6350000Y7135000D01*
D11*
X6284960Y7089729D02*
X6284960Y7066403D01*
X6284960Y7078066D02*
X6214980Y7078066D01*
X6214980Y7066403D02*
X6214980Y7089729D01*
X6214980Y7147431D02*
X6226644Y7159095D01*
X6214980Y7147431D02*
X6214980Y7124105D01*
X6226644Y7112442D01*
X6273297Y7112442D01*
X6284960Y7124105D01*
X6284960Y7147431D01*
X6273297Y7159095D01*
X6284960Y7216490D02*
X6214980Y7216490D01*
X6249970Y7181500D01*
X6249970Y7228153D01*
X6226644Y7250559D02*
X6273297Y7250559D01*
X6226644Y7250559D02*
X6214980Y7262222D01*
X6214980Y7285549D01*
X6226644Y7297212D01*
X6273297Y7297212D01*
X6284960Y7285549D01*
X6284960Y7262222D01*
X6273297Y7250559D01*
X6226644Y7297212D01*
X6238307Y7319618D02*
X6214980Y7342944D01*
X6284960Y7342944D01*
X6284960Y7319618D02*
X6284960Y7366271D01*
D12*
X6754000Y7773000D02*
X6754000Y8027000D01*
X6754000Y7773000D02*
X6246000Y7773000D01*
X6246000Y8027000D02*
X6754000Y8027000D01*
X6754000Y7773000D02*
X6754000Y7709500D01*
X6246000Y7709500D01*
X6246000Y7773000D02*
X6246000Y8027000D01*
X6246000Y7773000D02*
X6246000Y7709500D01*
D22*
X6373000Y7900000D03*
X6627000Y7900000D03*
D12*
X3602400Y4890500D02*
X3602400Y4509500D01*
X3297600Y4890500D02*
X3297607Y4891114D01*
X3297630Y4891727D01*
X3297667Y4892340D01*
X3297719Y4892951D01*
X3297785Y4893562D01*
X3297867Y4894170D01*
X3297963Y4894776D01*
X3298073Y4895380D01*
X3298198Y4895981D01*
X3298338Y4896579D01*
X3298492Y4897173D01*
X3298661Y4897763D01*
X3298843Y4898349D01*
X3299040Y4898930D01*
X3299251Y4899507D01*
X3299475Y4900078D01*
X3299713Y4900644D01*
X3299965Y4901204D01*
X3300231Y4901757D01*
X3300509Y4902304D01*
X3300801Y4902844D01*
X3301106Y4903377D01*
X3301424Y4903902D01*
X3301754Y4904420D01*
X3302096Y4904929D01*
X3302451Y4905430D01*
X3302818Y4905922D01*
X3303196Y4906405D01*
X3303586Y4906879D01*
X3303988Y4907343D01*
X3304400Y4907798D01*
X3304824Y4908242D01*
X3305258Y4908676D01*
X3305702Y4909100D01*
X3306157Y4909512D01*
X3306621Y4909914D01*
X3307095Y4910304D01*
X3307578Y4910682D01*
X3308070Y4911049D01*
X3308571Y4911404D01*
X3309080Y4911746D01*
X3309598Y4912076D01*
X3310123Y4912394D01*
X3310656Y4912699D01*
X3311196Y4912991D01*
X3311743Y4913269D01*
X3312296Y4913535D01*
X3312856Y4913787D01*
X3313422Y4914025D01*
X3313993Y4914249D01*
X3314570Y4914460D01*
X3315151Y4914657D01*
X3315737Y4914839D01*
X3316327Y4915008D01*
X3316921Y4915162D01*
X3317519Y4915302D01*
X3318120Y4915427D01*
X3318724Y4915537D01*
X3319330Y4915633D01*
X3319938Y4915715D01*
X3320549Y4915781D01*
X3321160Y4915833D01*
X3321773Y4915870D01*
X3322386Y4915893D01*
X3323000Y4915900D01*
X3297600Y4509500D02*
X3297607Y4508886D01*
X3297630Y4508273D01*
X3297667Y4507660D01*
X3297719Y4507049D01*
X3297785Y4506438D01*
X3297867Y4505830D01*
X3297963Y4505224D01*
X3298073Y4504620D01*
X3298198Y4504019D01*
X3298338Y4503421D01*
X3298492Y4502827D01*
X3298661Y4502237D01*
X3298843Y4501651D01*
X3299040Y4501070D01*
X3299251Y4500493D01*
X3299475Y4499922D01*
X3299713Y4499356D01*
X3299965Y4498796D01*
X3300231Y4498243D01*
X3300509Y4497696D01*
X3300801Y4497156D01*
X3301106Y4496623D01*
X3301424Y4496098D01*
X3301754Y4495580D01*
X3302096Y4495071D01*
X3302451Y4494570D01*
X3302818Y4494078D01*
X3303196Y4493595D01*
X3303586Y4493121D01*
X3303988Y4492657D01*
X3304400Y4492202D01*
X3304824Y4491758D01*
X3305258Y4491324D01*
X3305702Y4490900D01*
X3306157Y4490488D01*
X3306621Y4490086D01*
X3307095Y4489696D01*
X3307578Y4489318D01*
X3308070Y4488951D01*
X3308571Y4488596D01*
X3309080Y4488254D01*
X3309598Y4487924D01*
X3310123Y4487606D01*
X3310656Y4487301D01*
X3311196Y4487009D01*
X3311743Y4486731D01*
X3312296Y4486465D01*
X3312856Y4486213D01*
X3313422Y4485975D01*
X3313993Y4485751D01*
X3314570Y4485540D01*
X3315151Y4485343D01*
X3315737Y4485161D01*
X3316327Y4484992D01*
X3316921Y4484838D01*
X3317519Y4484698D01*
X3318120Y4484573D01*
X3318724Y4484463D01*
X3319330Y4484367D01*
X3319938Y4484285D01*
X3320549Y4484219D01*
X3321160Y4484167D01*
X3321773Y4484130D01*
X3322386Y4484107D01*
X3323000Y4484100D01*
X3577000Y4484100D02*
X3577614Y4484107D01*
X3578227Y4484130D01*
X3578840Y4484167D01*
X3579451Y4484219D01*
X3580062Y4484285D01*
X3580670Y4484367D01*
X3581276Y4484463D01*
X3581880Y4484573D01*
X3582481Y4484698D01*
X3583079Y4484838D01*
X3583673Y4484992D01*
X3584263Y4485161D01*
X3584849Y4485343D01*
X3585430Y4485540D01*
X3586007Y4485751D01*
X3586578Y4485975D01*
X3587144Y4486213D01*
X3587704Y4486465D01*
X3588257Y4486731D01*
X3588804Y4487009D01*
X3589344Y4487301D01*
X3589877Y4487606D01*
X3590402Y4487924D01*
X3590920Y4488254D01*
X3591429Y4488596D01*
X3591930Y4488951D01*
X3592422Y4489318D01*
X3592905Y4489696D01*
X3593379Y4490086D01*
X3593843Y4490488D01*
X3594298Y4490900D01*
X3594742Y4491324D01*
X3595176Y4491758D01*
X3595600Y4492202D01*
X3596012Y4492657D01*
X3596414Y4493121D01*
X3596804Y4493595D01*
X3597182Y4494078D01*
X3597549Y4494570D01*
X3597904Y4495071D01*
X3598246Y4495580D01*
X3598576Y4496098D01*
X3598894Y4496623D01*
X3599199Y4497156D01*
X3599491Y4497696D01*
X3599769Y4498243D01*
X3600035Y4498796D01*
X3600287Y4499356D01*
X3600525Y4499922D01*
X3600749Y4500493D01*
X3600960Y4501070D01*
X3601157Y4501651D01*
X3601339Y4502237D01*
X3601508Y4502827D01*
X3601662Y4503421D01*
X3601802Y4504019D01*
X3601927Y4504620D01*
X3602037Y4505224D01*
X3602133Y4505830D01*
X3602215Y4506438D01*
X3602281Y4507049D01*
X3602333Y4507660D01*
X3602370Y4508273D01*
X3602393Y4508886D01*
X3602400Y4509500D01*
X3602400Y4890500D02*
X3602393Y4891114D01*
X3602370Y4891727D01*
X3602333Y4892340D01*
X3602281Y4892951D01*
X3602215Y4893562D01*
X3602133Y4894170D01*
X3602037Y4894776D01*
X3601927Y4895380D01*
X3601802Y4895981D01*
X3601662Y4896579D01*
X3601508Y4897173D01*
X3601339Y4897763D01*
X3601157Y4898349D01*
X3600960Y4898930D01*
X3600749Y4899507D01*
X3600525Y4900078D01*
X3600287Y4900644D01*
X3600035Y4901204D01*
X3599769Y4901757D01*
X3599491Y4902304D01*
X3599199Y4902844D01*
X3598894Y4903377D01*
X3598576Y4903902D01*
X3598246Y4904420D01*
X3597904Y4904929D01*
X3597549Y4905430D01*
X3597182Y4905922D01*
X3596804Y4906405D01*
X3596414Y4906879D01*
X3596012Y4907343D01*
X3595600Y4907798D01*
X3595176Y4908242D01*
X3594742Y4908676D01*
X3594298Y4909100D01*
X3593843Y4909512D01*
X3593379Y4909914D01*
X3592905Y4910304D01*
X3592422Y4910682D01*
X3591930Y4911049D01*
X3591429Y4911404D01*
X3590920Y4911746D01*
X3590402Y4912076D01*
X3589877Y4912394D01*
X3589344Y4912699D01*
X3588804Y4912991D01*
X3588257Y4913269D01*
X3587704Y4913535D01*
X3587144Y4913787D01*
X3586578Y4914025D01*
X3586007Y4914249D01*
X3585430Y4914460D01*
X3584849Y4914657D01*
X3584263Y4914839D01*
X3583673Y4915008D01*
X3583079Y4915162D01*
X3582481Y4915302D01*
X3581880Y4915427D01*
X3581276Y4915537D01*
X3580670Y4915633D01*
X3580062Y4915715D01*
X3579451Y4915781D01*
X3578840Y4915833D01*
X3578227Y4915870D01*
X3577614Y4915893D01*
X3577000Y4915900D01*
X3323000Y4915900D01*
X3323000Y4484100D02*
X3577000Y4484100D01*
X3297600Y4509500D02*
X3297600Y4890500D01*
D11*
X3414980Y4976764D02*
X3426644Y4988428D01*
X3414980Y4976764D02*
X3414980Y4953438D01*
X3426644Y4941774D01*
X3473297Y4941774D01*
X3484960Y4953438D01*
X3484960Y4976764D01*
X3473297Y4988428D01*
X3449970Y4988428D01*
X3449970Y4965101D01*
X3484960Y5010833D02*
X3414980Y5010833D01*
X3414980Y5045823D01*
X3426644Y5057486D01*
X3449970Y5057486D01*
X3461633Y5045823D01*
X3461633Y5010833D01*
X3414980Y5114882D02*
X3426644Y5126545D01*
X3414980Y5114882D02*
X3414980Y5091555D01*
X3426644Y5079892D01*
X3438307Y5079892D01*
X3449970Y5091555D01*
X3449970Y5114882D01*
X3461633Y5126545D01*
X3473297Y5126545D01*
X3484960Y5114882D01*
X3484960Y5091555D01*
X3473297Y5079892D01*
X3438307Y5148951D02*
X3438307Y5160614D01*
X3449970Y5160614D01*
X3449970Y5148951D01*
X3438307Y5148951D01*
X3473297Y5148951D02*
X3473297Y5160614D01*
X3484960Y5160614D01*
X3484960Y5148951D01*
X3473297Y5148951D01*
X3414980Y5218470D02*
X3426644Y5230133D01*
X3414980Y5218470D02*
X3414980Y5195143D01*
X3426644Y5183480D01*
X3438307Y5183480D01*
X3449970Y5195143D01*
X3449970Y5218470D01*
X3461633Y5230133D01*
X3473297Y5230133D01*
X3484960Y5218470D01*
X3484960Y5195143D01*
X3473297Y5183480D01*
X3414980Y5287528D02*
X3426644Y5299192D01*
X3414980Y5287528D02*
X3414980Y5264202D01*
X3426644Y5252539D01*
X3473297Y5252539D01*
X3484960Y5264202D01*
X3484960Y5287528D01*
X3473297Y5299192D01*
X3438307Y5321598D02*
X3438307Y5333261D01*
X3449970Y5333261D01*
X3449970Y5321598D01*
X3438307Y5321598D01*
X3473297Y5321598D02*
X3473297Y5333261D01*
X3484960Y5333261D01*
X3484960Y5321598D01*
X3473297Y5321598D01*
X3473297Y5356127D02*
X3484960Y5367790D01*
X3484960Y5379453D01*
X3473297Y5391117D01*
X3414980Y5391117D01*
X3414980Y5402780D02*
X3414980Y5379453D01*
X3414980Y5425186D02*
X3484960Y5425186D01*
X3414980Y5425186D02*
X3414980Y5460175D01*
X3426644Y5471839D01*
X3449970Y5471839D01*
X3461633Y5460175D01*
X3461633Y5425186D01*
X3438307Y5494244D02*
X3414980Y5517571D01*
X3484960Y5517571D01*
X3484960Y5494244D02*
X3484960Y5540898D01*
D13*
X1825000Y3925000D02*
X1375000Y3925000D01*
X1825000Y3925000D02*
X1825000Y3475000D01*
X1375000Y3475000D01*
X1375000Y3925000D01*
D11*
X1441663Y3657515D02*
X1452492Y3646686D01*
X1441663Y3657515D02*
X1420004Y3657515D01*
X1409175Y3646686D01*
X1409175Y3635857D01*
X1420004Y3625028D01*
X1441663Y3625028D01*
X1452492Y3614198D01*
X1452492Y3603369D01*
X1441663Y3592540D01*
X1420004Y3592540D01*
X1409175Y3603369D01*
X1473630Y3592540D02*
X1473630Y3657515D01*
X1495288Y3614198D02*
X1473630Y3592540D01*
X1495288Y3614198D02*
X1516947Y3592540D01*
X1516947Y3657515D01*
X1538085Y3635857D02*
X1559743Y3657515D01*
X1559743Y3592540D01*
X1538085Y3592540D02*
X1581402Y3592540D01*
X1635028Y3592540D02*
X1635028Y3657515D01*
X1602540Y3625028D01*
X1645857Y3625028D01*
X1666995Y3646686D02*
X1666995Y3603369D01*
X1666995Y3646686D02*
X1677824Y3657515D01*
X1699483Y3657515D01*
X1710312Y3646686D01*
X1710312Y3603369D01*
X1699483Y3592540D01*
X1677824Y3592540D01*
X1666995Y3603369D01*
X1710312Y3646686D01*
X1731450Y3635857D02*
X1753108Y3657515D01*
X1753108Y3592540D01*
X1731450Y3592540D02*
X1774767Y3592540D01*
D13*
X1825000Y2775000D02*
X1375000Y2775000D01*
X1825000Y2775000D02*
X1825000Y2325000D01*
X1375000Y2325000D01*
X1375000Y2775000D01*
D11*
X1441663Y2507515D02*
X1452492Y2496686D01*
X1441663Y2507515D02*
X1420004Y2507515D01*
X1409175Y2496686D01*
X1409175Y2485857D01*
X1420004Y2475028D01*
X1441663Y2475028D01*
X1452492Y2464198D01*
X1452492Y2453369D01*
X1441663Y2442540D01*
X1420004Y2442540D01*
X1409175Y2453369D01*
X1473630Y2442540D02*
X1473630Y2507515D01*
X1495288Y2464198D02*
X1473630Y2442540D01*
X1495288Y2464198D02*
X1516947Y2442540D01*
X1516947Y2507515D01*
X1538085Y2485857D02*
X1559743Y2507515D01*
X1559743Y2442540D01*
X1538085Y2442540D02*
X1581402Y2442540D01*
X1635028Y2442540D02*
X1635028Y2507515D01*
X1602540Y2475028D01*
X1645857Y2475028D01*
X1666995Y2496686D02*
X1666995Y2453369D01*
X1666995Y2496686D02*
X1677824Y2507515D01*
X1699483Y2507515D01*
X1710312Y2496686D01*
X1710312Y2453369D01*
X1699483Y2442540D01*
X1677824Y2442540D01*
X1666995Y2453369D01*
X1710312Y2496686D01*
X1731450Y2442540D02*
X1774767Y2442540D01*
X1731450Y2442540D02*
X1774767Y2485857D01*
X1774767Y2496686D01*
X1763938Y2507515D01*
X1742279Y2507515D01*
X1731450Y2496686D01*
M02*
